%TF.GenerationSoftware,KiCad,Pcbnew,9.0.6-9.0.6~ubuntu22.04.1*%
%TF.CreationDate,2026-01-04T20:59:47+05:30*%
%TF.ProjectId,TWIN_NODE,5457494e-5f4e-44f4-9445-2e6b69636164,rev?*%
%TF.SameCoordinates,Original*%
%TF.FileFunction,Paste,Top*%
%TF.FilePolarity,Positive*%
%FSLAX46Y46*%
G04 Gerber Fmt 4.6, Leading zero omitted, Abs format (unit mm)*
G04 Created by KiCad (PCBNEW 9.0.6-9.0.6~ubuntu22.04.1) date 2026-01-04 20:59:47*
%MOMM*%
%LPD*%
G01*
G04 APERTURE LIST*
G04 Aperture macros list*
%AMRoundRect*
0 Rectangle with rounded corners*
0 $1 Rounding radius*
0 $2 $3 $4 $5 $6 $7 $8 $9 X,Y pos of 4 corners*
0 Add a 4 corners polygon primitive as box body*
4,1,4,$2,$3,$4,$5,$6,$7,$8,$9,$2,$3,0*
0 Add four circle primitives for the rounded corners*
1,1,$1+$1,$2,$3*
1,1,$1+$1,$4,$5*
1,1,$1+$1,$6,$7*
1,1,$1+$1,$8,$9*
0 Add four rect primitives between the rounded corners*
20,1,$1+$1,$2,$3,$4,$5,0*
20,1,$1+$1,$4,$5,$6,$7,0*
20,1,$1+$1,$6,$7,$8,$9,0*
20,1,$1+$1,$8,$9,$2,$3,0*%
G04 Aperture macros list end*
%ADD10RoundRect,0.250000X0.450000X-0.350000X0.450000X0.350000X-0.450000X0.350000X-0.450000X-0.350000X0*%
%ADD11RoundRect,0.250000X0.475000X-0.337500X0.475000X0.337500X-0.475000X0.337500X-0.475000X-0.337500X0*%
%ADD12RoundRect,0.050000X-0.730000X-0.150000X0.730000X-0.150000X0.730000X0.150000X-0.730000X0.150000X0*%
%ADD13RoundRect,0.150000X-0.150000X-0.625000X0.150000X-0.625000X0.150000X0.625000X-0.150000X0.625000X0*%
%ADD14RoundRect,0.250000X-0.350000X-0.650000X0.350000X-0.650000X0.350000X0.650000X-0.350000X0.650000X0*%
%ADD15RoundRect,0.250000X-0.255000X-0.440000X0.255000X-0.440000X0.255000X0.440000X-0.255000X0.440000X0*%
%ADD16RoundRect,0.150000X-0.825000X-0.150000X0.825000X-0.150000X0.825000X0.150000X-0.825000X0.150000X0*%
%ADD17RoundRect,0.250000X-0.475000X0.337500X-0.475000X-0.337500X0.475000X-0.337500X0.475000X0.337500X0*%
%ADD18RoundRect,0.250000X0.350000X0.450000X-0.350000X0.450000X-0.350000X-0.450000X0.350000X-0.450000X0*%
%ADD19RoundRect,0.250000X-0.450000X0.350000X-0.450000X-0.350000X0.450000X-0.350000X0.450000X0.350000X0*%
%ADD20RoundRect,0.150000X-0.625000X0.150000X-0.625000X-0.150000X0.625000X-0.150000X0.625000X0.150000X0*%
%ADD21RoundRect,0.250000X-0.650000X0.350000X-0.650000X-0.350000X0.650000X-0.350000X0.650000X0.350000X0*%
%ADD22RoundRect,0.250000X0.337500X0.475000X-0.337500X0.475000X-0.337500X-0.475000X0.337500X-0.475000X0*%
%ADD23RoundRect,0.250000X1.000000X-1.950000X1.000000X1.950000X-1.000000X1.950000X-1.000000X-1.950000X0*%
%ADD24RoundRect,0.250000X-0.325000X-0.450000X0.325000X-0.450000X0.325000X0.450000X-0.325000X0.450000X0*%
%ADD25R,2.000000X1.200000*%
%ADD26R,1.200000X2.000000*%
%ADD27R,1.250000X0.650000*%
%ADD28R,1.250000X1.000000*%
%ADD29R,0.802000X0.972000*%
%ADD30RoundRect,0.150000X0.512500X0.150000X-0.512500X0.150000X-0.512500X-0.150000X0.512500X-0.150000X0*%
G04 APERTURE END LIST*
D10*
%TO.C,R4*%
X164060000Y-86500000D03*
X164060000Y-84500000D03*
%TD*%
D11*
%TO.C,C4*%
X152000000Y-77752500D03*
X152000000Y-75677500D03*
%TD*%
D12*
%TO.C,Q1*%
X151620000Y-84467500D03*
X151620000Y-85117500D03*
X151620000Y-85767500D03*
X151620000Y-86417500D03*
X157380000Y-86417500D03*
X157380000Y-85767500D03*
X157380000Y-85117500D03*
X157380000Y-84467500D03*
%TD*%
D13*
%TO.C,J3*%
X150900000Y-98875000D03*
X151900000Y-98875000D03*
D14*
X149600000Y-102750000D03*
X153200000Y-102750000D03*
%TD*%
D15*
%TO.C,U2*%
X156125000Y-91532500D03*
X156125000Y-93182500D03*
X157325000Y-91532500D03*
X157325000Y-93182500D03*
D16*
X154250000Y-90452500D03*
X154250000Y-91722500D03*
X154250000Y-92992500D03*
X154250000Y-94262500D03*
X159200000Y-94262500D03*
X159200000Y-92992500D03*
X159200000Y-91722500D03*
X159200000Y-90452500D03*
%TD*%
D17*
%TO.C,C6*%
X152000000Y-65425000D03*
X152000000Y-67500000D03*
%TD*%
D10*
%TO.C,R10*%
X165200000Y-93962500D03*
X165200000Y-91962500D03*
%TD*%
%TO.C,R11*%
X172800000Y-86667500D03*
X172800000Y-84667500D03*
%TD*%
%TO.C,R9*%
X174400000Y-71600000D03*
X174400000Y-69600000D03*
%TD*%
D18*
%TO.C,R1*%
X151625000Y-91666250D03*
X149625000Y-91666250D03*
%TD*%
D10*
%TO.C,R3*%
X174400000Y-76000000D03*
X174400000Y-74000000D03*
%TD*%
D19*
%TO.C,R7*%
X149475000Y-65475000D03*
X149475000Y-67475000D03*
%TD*%
D20*
%TO.C,J4*%
X146500000Y-85890000D03*
X146500000Y-86890000D03*
X146500000Y-87890000D03*
X146500000Y-88890000D03*
D21*
X142625000Y-84590000D03*
X142625000Y-90190000D03*
%TD*%
D22*
%TO.C,C1*%
X151692500Y-94362500D03*
X149617500Y-94362500D03*
%TD*%
D11*
%TO.C,C8*%
X168000000Y-94037500D03*
X168000000Y-91962500D03*
%TD*%
D17*
%TO.C,C5*%
X160760000Y-84492500D03*
X160760000Y-86567500D03*
%TD*%
D13*
%TO.C,J1*%
X157800000Y-98875000D03*
X158800000Y-98875000D03*
X159800000Y-98875000D03*
X160800000Y-98875000D03*
X161800000Y-98875000D03*
X162800000Y-98875000D03*
D14*
X156500000Y-102750000D03*
X164100000Y-102750000D03*
%TD*%
D18*
%TO.C,R2*%
X151625000Y-89000000D03*
X149625000Y-89000000D03*
%TD*%
D23*
%TO.C,C3*%
X146400000Y-80000000D03*
X146400000Y-72600000D03*
%TD*%
D19*
%TO.C,R6*%
X152000000Y-70588750D03*
X152000000Y-72588750D03*
%TD*%
D11*
%TO.C,C7*%
X174400000Y-67200000D03*
X174400000Y-65125000D03*
%TD*%
D24*
%TO.C,D1*%
X178450000Y-81067500D03*
X180500000Y-81067500D03*
%TD*%
D11*
%TO.C,C2*%
X162400000Y-93970000D03*
X162400000Y-91895000D03*
%TD*%
D17*
%TO.C,C9*%
X176000000Y-91785000D03*
X176000000Y-93860000D03*
%TD*%
D25*
%TO.C,U1*%
X155100000Y-64020000D03*
X155100000Y-66020000D03*
X155100000Y-68020000D03*
X155100000Y-70020000D03*
X155100000Y-72020000D03*
X155100000Y-74020000D03*
X155100000Y-76020000D03*
X155100000Y-78020000D03*
D26*
X158100000Y-79500000D03*
X160100000Y-79500000D03*
X162100000Y-79500000D03*
X164100000Y-79500000D03*
X166100000Y-79500000D03*
X168100000Y-79500000D03*
D25*
X171100000Y-78020000D03*
X171100000Y-76020000D03*
X171100000Y-74020000D03*
X171100000Y-72020000D03*
X171100000Y-70020000D03*
X171100000Y-68020000D03*
X171100000Y-66020000D03*
X171100000Y-64020000D03*
%TD*%
D10*
%TO.C,R8*%
X177000000Y-71600000D03*
X177000000Y-69600000D03*
%TD*%
D19*
%TO.C,R5*%
X177000000Y-74000000D03*
X177000000Y-76000000D03*
%TD*%
D27*
%TO.C,IC1*%
X172800000Y-93842500D03*
X172800000Y-92902500D03*
X172800000Y-91962500D03*
X170300000Y-91962500D03*
X170300000Y-93842500D03*
%TD*%
D13*
%TO.C,J2*%
X169700000Y-98875000D03*
X170700000Y-98875000D03*
X171700000Y-98875000D03*
X172700000Y-98875000D03*
D14*
X168400000Y-102750000D03*
X174000000Y-102750000D03*
%TD*%
D20*
%TO.C,J5*%
X146500000Y-94230000D03*
X146500000Y-95230000D03*
D21*
X142625000Y-92930000D03*
X142625000Y-96530000D03*
%TD*%
D28*
%TO.C,SW1*%
X175450000Y-85867500D03*
X183200000Y-85867500D03*
%TD*%
D29*
%TO.C,T1*%
X180965200Y-91530500D03*
X179034800Y-91530500D03*
X180000000Y-93562500D03*
%TD*%
D30*
%TO.C,U3*%
X169567500Y-86467500D03*
X169567500Y-85517500D03*
X169567500Y-84567500D03*
X167292500Y-84567500D03*
X167292500Y-85517500D03*
X167292500Y-86467500D03*
%TD*%
M02*
