M48
; DRILL file {KiCad 9.0.7-9.0.7~ubuntu22.04.1} date 2026-01-21T20:55:43+0530
; FORMAT={-:-/ absolute / metric / decimal}
; #@! TF.CreationDate,2026-01-21T20:55:43+05:30
; #@! TF.GenerationSoftware,Kicad,Pcbnew,9.0.7-9.0.7~ubuntu22.04.1
; #@! TF.FileFunction,Plated,1,2,PTH
FMAT,2
METRIC
; #@! TA.AperFunction,Plated,PTH,ViaDrill
T1C0.350
; #@! TA.AperFunction,Plated,PTH,ComponentDrill
T2C0.350
; #@! TA.AperFunction,Plated,PTH,ComponentDrill
T3C0.500
; #@! TA.AperFunction,Plated,PTH,ComponentDrill
T4C3.200
%
G90
G05
T1
X146.35Y-83.15
X148.0Y-83.5
X148.439Y-76.889
X149.5Y-69.05
X149.8Y-78.7
X150.5Y-80.0
X150.816Y-90.226
X151.37Y-74.22
X153.0Y-74.5
X153.4Y-76.5
X154.5Y-85.5
X157.5Y-88.5
X159.16Y-85.36
X159.253Y-96.2
X160.2Y-89.4
X160.6Y-97.101
X160.941Y-88.573
X161.0Y-94.262
X163.2Y-92.6
X163.4Y-100.0
X164.0Y-95.5
X164.5Y-88.5
X165.0Y-66.0
X165.5Y-64.0
X166.4Y-97.6
X168.5Y-87.5
X169.0Y-75.5
X171.0Y-88.6
X171.2Y-100.875
X171.5Y-90.5
X171.5Y-97.5
X173.0Y-69.0
X173.0Y-70.5
X173.5Y-81.0
X173.5Y-82.5
X175.0Y-79.5
X176.1Y-77.55
X176.2Y-82.55
X176.5Y-68.0
X177.0Y-81.0
X177.85Y-79.55
X178.0Y-78.5
X179.0Y-83.0
X179.0Y-90.0
X179.04Y-84.67
X180.165Y-89.405
X180.5Y-95.5
X180.566Y-88.434
X181.0Y-72.5
X182.067Y-81.433
X182.2Y-84.1
X183.2Y-77.0
X183.566Y-79.566
X183.81Y-87.502
T2
X156.025Y-91.157
X156.025Y-92.358
X156.025Y-93.557
X157.425Y-91.157
X157.425Y-92.358
X157.425Y-93.557
T3
X141.6Y-66.8
X141.6Y-101.275
X142.303Y-65.103
X142.303Y-68.497
X142.303Y-99.578
X142.303Y-102.972
X144.0Y-64.4
X144.0Y-69.2
X144.0Y-98.875
X144.0Y-103.675
X145.697Y-65.103
X145.697Y-68.497
X145.697Y-99.578
X145.697Y-102.972
X146.4Y-66.8
X146.4Y-101.275
X178.399Y-66.763
X178.399Y-101.237
X179.102Y-65.065
X179.102Y-68.46
X179.102Y-99.54
X179.102Y-102.935
X180.799Y-64.362
X180.799Y-69.162
X180.799Y-98.837
X180.799Y-103.637
X182.496Y-65.065
X182.496Y-68.46
X182.496Y-99.54
X182.496Y-102.935
X183.199Y-66.763
X183.199Y-101.237
T4
X144.0Y-66.8
X144.0Y-101.275
X180.799Y-66.763
X180.799Y-101.237
M30
