%TF.GenerationSoftware,KiCad,Pcbnew,9.0.7-9.0.7~ubuntu22.04.1*%
%TF.CreationDate,2026-01-25T16:59:33+05:30*%
%TF.ProjectId,ESP01-MOTOR_CTRL - TWIN_NODE,45535030-312d-44d4-9f54-4f525f435452,rev?*%
%TF.SameCoordinates,Original*%
%TF.FileFunction,Legend,Bot*%
%TF.FilePolarity,Positive*%
%FSLAX46Y46*%
G04 Gerber Fmt 4.6, Leading zero omitted, Abs format (unit mm)*
G04 Created by KiCad (PCBNEW 9.0.7-9.0.7~ubuntu22.04.1) date 2026-01-25 16:59:33*
%MOMM*%
%LPD*%
G01*
G04 APERTURE LIST*
%ADD10C,0.200000*%
%ADD11C,0.800000*%
%ADD12C,0.100000*%
%ADD13C,0.000000*%
G04 APERTURE END LIST*
D10*
X109030326Y-112967219D02*
X109030326Y-111967219D01*
X109030326Y-111967219D02*
X108696993Y-112681504D01*
X108696993Y-112681504D02*
X108363660Y-111967219D01*
X108363660Y-111967219D02*
X108363660Y-112967219D01*
X107696993Y-111967219D02*
X107506517Y-111967219D01*
X107506517Y-111967219D02*
X107411279Y-112014838D01*
X107411279Y-112014838D02*
X107316041Y-112110076D01*
X107316041Y-112110076D02*
X107268422Y-112300552D01*
X107268422Y-112300552D02*
X107268422Y-112633885D01*
X107268422Y-112633885D02*
X107316041Y-112824361D01*
X107316041Y-112824361D02*
X107411279Y-112919600D01*
X107411279Y-112919600D02*
X107506517Y-112967219D01*
X107506517Y-112967219D02*
X107696993Y-112967219D01*
X107696993Y-112967219D02*
X107792231Y-112919600D01*
X107792231Y-112919600D02*
X107887469Y-112824361D01*
X107887469Y-112824361D02*
X107935088Y-112633885D01*
X107935088Y-112633885D02*
X107935088Y-112300552D01*
X107935088Y-112300552D02*
X107887469Y-112110076D01*
X107887469Y-112110076D02*
X107792231Y-112014838D01*
X107792231Y-112014838D02*
X107696993Y-111967219D01*
X106982707Y-111967219D02*
X106411279Y-111967219D01*
X106696993Y-112967219D02*
X106696993Y-111967219D01*
X105887469Y-111967219D02*
X105696993Y-111967219D01*
X105696993Y-111967219D02*
X105601755Y-112014838D01*
X105601755Y-112014838D02*
X105506517Y-112110076D01*
X105506517Y-112110076D02*
X105458898Y-112300552D01*
X105458898Y-112300552D02*
X105458898Y-112633885D01*
X105458898Y-112633885D02*
X105506517Y-112824361D01*
X105506517Y-112824361D02*
X105601755Y-112919600D01*
X105601755Y-112919600D02*
X105696993Y-112967219D01*
X105696993Y-112967219D02*
X105887469Y-112967219D01*
X105887469Y-112967219D02*
X105982707Y-112919600D01*
X105982707Y-112919600D02*
X106077945Y-112824361D01*
X106077945Y-112824361D02*
X106125564Y-112633885D01*
X106125564Y-112633885D02*
X106125564Y-112300552D01*
X106125564Y-112300552D02*
X106077945Y-112110076D01*
X106077945Y-112110076D02*
X105982707Y-112014838D01*
X105982707Y-112014838D02*
X105887469Y-111967219D01*
X104458898Y-112967219D02*
X104792231Y-112491028D01*
X105030326Y-112967219D02*
X105030326Y-111967219D01*
X105030326Y-111967219D02*
X104649374Y-111967219D01*
X104649374Y-111967219D02*
X104554136Y-112014838D01*
X104554136Y-112014838D02*
X104506517Y-112062457D01*
X104506517Y-112062457D02*
X104458898Y-112157695D01*
X104458898Y-112157695D02*
X104458898Y-112300552D01*
X104458898Y-112300552D02*
X104506517Y-112395790D01*
X104506517Y-112395790D02*
X104554136Y-112443409D01*
X104554136Y-112443409D02*
X104649374Y-112491028D01*
X104649374Y-112491028D02*
X105030326Y-112491028D01*
X102696993Y-112871980D02*
X102744612Y-112919600D01*
X102744612Y-112919600D02*
X102887469Y-112967219D01*
X102887469Y-112967219D02*
X102982707Y-112967219D01*
X102982707Y-112967219D02*
X103125564Y-112919600D01*
X103125564Y-112919600D02*
X103220802Y-112824361D01*
X103220802Y-112824361D02*
X103268421Y-112729123D01*
X103268421Y-112729123D02*
X103316040Y-112538647D01*
X103316040Y-112538647D02*
X103316040Y-112395790D01*
X103316040Y-112395790D02*
X103268421Y-112205314D01*
X103268421Y-112205314D02*
X103220802Y-112110076D01*
X103220802Y-112110076D02*
X103125564Y-112014838D01*
X103125564Y-112014838D02*
X102982707Y-111967219D01*
X102982707Y-111967219D02*
X102887469Y-111967219D01*
X102887469Y-111967219D02*
X102744612Y-112014838D01*
X102744612Y-112014838D02*
X102696993Y-112062457D01*
X102077945Y-111967219D02*
X101887469Y-111967219D01*
X101887469Y-111967219D02*
X101792231Y-112014838D01*
X101792231Y-112014838D02*
X101696993Y-112110076D01*
X101696993Y-112110076D02*
X101649374Y-112300552D01*
X101649374Y-112300552D02*
X101649374Y-112633885D01*
X101649374Y-112633885D02*
X101696993Y-112824361D01*
X101696993Y-112824361D02*
X101792231Y-112919600D01*
X101792231Y-112919600D02*
X101887469Y-112967219D01*
X101887469Y-112967219D02*
X102077945Y-112967219D01*
X102077945Y-112967219D02*
X102173183Y-112919600D01*
X102173183Y-112919600D02*
X102268421Y-112824361D01*
X102268421Y-112824361D02*
X102316040Y-112633885D01*
X102316040Y-112633885D02*
X102316040Y-112300552D01*
X102316040Y-112300552D02*
X102268421Y-112110076D01*
X102268421Y-112110076D02*
X102173183Y-112014838D01*
X102173183Y-112014838D02*
X102077945Y-111967219D01*
X101220802Y-112967219D02*
X101220802Y-111967219D01*
X101220802Y-111967219D02*
X100649374Y-112967219D01*
X100649374Y-112967219D02*
X100649374Y-111967219D01*
X100316040Y-111967219D02*
X99744612Y-111967219D01*
X100030326Y-112967219D02*
X100030326Y-111967219D01*
X98839850Y-112967219D02*
X99173183Y-112491028D01*
X99411278Y-112967219D02*
X99411278Y-111967219D01*
X99411278Y-111967219D02*
X99030326Y-111967219D01*
X99030326Y-111967219D02*
X98935088Y-112014838D01*
X98935088Y-112014838D02*
X98887469Y-112062457D01*
X98887469Y-112062457D02*
X98839850Y-112157695D01*
X98839850Y-112157695D02*
X98839850Y-112300552D01*
X98839850Y-112300552D02*
X98887469Y-112395790D01*
X98887469Y-112395790D02*
X98935088Y-112443409D01*
X98935088Y-112443409D02*
X99030326Y-112491028D01*
X99030326Y-112491028D02*
X99411278Y-112491028D01*
X98220802Y-111967219D02*
X98030326Y-111967219D01*
X98030326Y-111967219D02*
X97935088Y-112014838D01*
X97935088Y-112014838D02*
X97839850Y-112110076D01*
X97839850Y-112110076D02*
X97792231Y-112300552D01*
X97792231Y-112300552D02*
X97792231Y-112633885D01*
X97792231Y-112633885D02*
X97839850Y-112824361D01*
X97839850Y-112824361D02*
X97935088Y-112919600D01*
X97935088Y-112919600D02*
X98030326Y-112967219D01*
X98030326Y-112967219D02*
X98220802Y-112967219D01*
X98220802Y-112967219D02*
X98316040Y-112919600D01*
X98316040Y-112919600D02*
X98411278Y-112824361D01*
X98411278Y-112824361D02*
X98458897Y-112633885D01*
X98458897Y-112633885D02*
X98458897Y-112300552D01*
X98458897Y-112300552D02*
X98411278Y-112110076D01*
X98411278Y-112110076D02*
X98316040Y-112014838D01*
X98316040Y-112014838D02*
X98220802Y-111967219D01*
X96887469Y-112967219D02*
X97363659Y-112967219D01*
X97363659Y-112967219D02*
X97363659Y-111967219D01*
X128480326Y-112467219D02*
X128480326Y-111467219D01*
X128004136Y-112467219D02*
X128004136Y-111467219D01*
X128004136Y-111467219D02*
X127432708Y-112467219D01*
X127432708Y-112467219D02*
X127432708Y-111467219D01*
X126956517Y-112467219D02*
X126956517Y-111467219D01*
X126956517Y-111467219D02*
X126575565Y-111467219D01*
X126575565Y-111467219D02*
X126480327Y-111514838D01*
X126480327Y-111514838D02*
X126432708Y-111562457D01*
X126432708Y-111562457D02*
X126385089Y-111657695D01*
X126385089Y-111657695D02*
X126385089Y-111800552D01*
X126385089Y-111800552D02*
X126432708Y-111895790D01*
X126432708Y-111895790D02*
X126480327Y-111943409D01*
X126480327Y-111943409D02*
X126575565Y-111991028D01*
X126575565Y-111991028D02*
X126956517Y-111991028D01*
X125956517Y-111467219D02*
X125956517Y-112276742D01*
X125956517Y-112276742D02*
X125908898Y-112371980D01*
X125908898Y-112371980D02*
X125861279Y-112419600D01*
X125861279Y-112419600D02*
X125766041Y-112467219D01*
X125766041Y-112467219D02*
X125575565Y-112467219D01*
X125575565Y-112467219D02*
X125480327Y-112419600D01*
X125480327Y-112419600D02*
X125432708Y-112371980D01*
X125432708Y-112371980D02*
X125385089Y-112276742D01*
X125385089Y-112276742D02*
X125385089Y-111467219D01*
X125051755Y-111467219D02*
X124480327Y-111467219D01*
X124766041Y-112467219D02*
X124766041Y-111467219D01*
D11*
G36*
X132491870Y-62874396D02*
G01*
X132314518Y-62895756D01*
X132206120Y-62949813D01*
X132144508Y-63031281D01*
X132122575Y-63148681D01*
X132138661Y-63249219D01*
X132185874Y-63333577D01*
X132268143Y-63406113D01*
X131926692Y-63680397D01*
X131585484Y-63400495D01*
X131669476Y-63325158D01*
X131715709Y-63246054D01*
X131730809Y-63159916D01*
X131708441Y-63036671D01*
X131646108Y-62951923D01*
X131537610Y-62896257D01*
X131361514Y-62874396D01*
X130852267Y-62874396D01*
X130672382Y-62896146D01*
X130562321Y-62951233D01*
X130499679Y-63034363D01*
X130477355Y-63154298D01*
X130495911Y-63266288D01*
X130547595Y-63346423D01*
X130635566Y-63402805D01*
X130773866Y-63434200D01*
X131512700Y-64049692D01*
X130662002Y-64760439D01*
X130521440Y-64787258D01*
X130432024Y-64841978D01*
X130379099Y-64923161D01*
X130359874Y-65040097D01*
X130382026Y-65160415D01*
X130444001Y-65243523D01*
X130552450Y-65298388D01*
X130729169Y-65320000D01*
X131355896Y-65320000D01*
X131535152Y-65297998D01*
X131645262Y-65242104D01*
X131708267Y-65157335D01*
X131730809Y-65034480D01*
X131705939Y-64909566D01*
X131634807Y-64820861D01*
X131507083Y-64760439D01*
X131926692Y-64418988D01*
X132335310Y-64760439D01*
X132211898Y-64835179D01*
X132144887Y-64924871D01*
X132122575Y-65034480D01*
X132144943Y-65157724D01*
X132207275Y-65242472D01*
X132315774Y-65298139D01*
X132491870Y-65320000D01*
X133113224Y-65320000D01*
X133289942Y-65298388D01*
X133398391Y-65243523D01*
X133460366Y-65160415D01*
X133482519Y-65040097D01*
X133463294Y-64923161D01*
X133410369Y-64841978D01*
X133320953Y-64787258D01*
X133180390Y-64760439D01*
X132368771Y-64044075D01*
X133085136Y-63434200D01*
X133220471Y-63402995D01*
X133306896Y-63346834D01*
X133357903Y-63266689D01*
X133376273Y-63154298D01*
X133354113Y-63033997D01*
X133292109Y-62950888D01*
X133183590Y-62896014D01*
X133006734Y-62874396D01*
X132491870Y-62874396D01*
G37*
D10*
X138487469Y-58492219D02*
X138487469Y-58730314D01*
X138725564Y-58635076D02*
X138487469Y-58730314D01*
X138487469Y-58730314D02*
X138249374Y-58635076D01*
X138630326Y-58920790D02*
X138487469Y-58730314D01*
X138487469Y-58730314D02*
X138344612Y-58920790D01*
X137106516Y-58968409D02*
X136773183Y-58968409D01*
X136630326Y-59492219D02*
X137106516Y-59492219D01*
X137106516Y-59492219D02*
X137106516Y-58492219D01*
X137106516Y-58492219D02*
X136630326Y-58492219D01*
X136249373Y-59444600D02*
X136106516Y-59492219D01*
X136106516Y-59492219D02*
X135868421Y-59492219D01*
X135868421Y-59492219D02*
X135773183Y-59444600D01*
X135773183Y-59444600D02*
X135725564Y-59396980D01*
X135725564Y-59396980D02*
X135677945Y-59301742D01*
X135677945Y-59301742D02*
X135677945Y-59206504D01*
X135677945Y-59206504D02*
X135725564Y-59111266D01*
X135725564Y-59111266D02*
X135773183Y-59063647D01*
X135773183Y-59063647D02*
X135868421Y-59016028D01*
X135868421Y-59016028D02*
X136058897Y-58968409D01*
X136058897Y-58968409D02*
X136154135Y-58920790D01*
X136154135Y-58920790D02*
X136201754Y-58873171D01*
X136201754Y-58873171D02*
X136249373Y-58777933D01*
X136249373Y-58777933D02*
X136249373Y-58682695D01*
X136249373Y-58682695D02*
X136201754Y-58587457D01*
X136201754Y-58587457D02*
X136154135Y-58539838D01*
X136154135Y-58539838D02*
X136058897Y-58492219D01*
X136058897Y-58492219D02*
X135820802Y-58492219D01*
X135820802Y-58492219D02*
X135677945Y-58539838D01*
X135249373Y-59492219D02*
X135249373Y-58492219D01*
X135249373Y-58492219D02*
X134868421Y-58492219D01*
X134868421Y-58492219D02*
X134773183Y-58539838D01*
X134773183Y-58539838D02*
X134725564Y-58587457D01*
X134725564Y-58587457D02*
X134677945Y-58682695D01*
X134677945Y-58682695D02*
X134677945Y-58825552D01*
X134677945Y-58825552D02*
X134725564Y-58920790D01*
X134725564Y-58920790D02*
X134773183Y-58968409D01*
X134773183Y-58968409D02*
X134868421Y-59016028D01*
X134868421Y-59016028D02*
X135249373Y-59016028D01*
X134249373Y-59492219D02*
X134249373Y-58492219D01*
X134249373Y-58492219D02*
X133677945Y-59492219D01*
X133677945Y-59492219D02*
X133677945Y-58492219D01*
X133011278Y-58492219D02*
X132820802Y-58492219D01*
X132820802Y-58492219D02*
X132725564Y-58539838D01*
X132725564Y-58539838D02*
X132630326Y-58635076D01*
X132630326Y-58635076D02*
X132582707Y-58825552D01*
X132582707Y-58825552D02*
X132582707Y-59158885D01*
X132582707Y-59158885D02*
X132630326Y-59349361D01*
X132630326Y-59349361D02*
X132725564Y-59444600D01*
X132725564Y-59444600D02*
X132820802Y-59492219D01*
X132820802Y-59492219D02*
X133011278Y-59492219D01*
X133011278Y-59492219D02*
X133106516Y-59444600D01*
X133106516Y-59444600D02*
X133201754Y-59349361D01*
X133201754Y-59349361D02*
X133249373Y-59158885D01*
X133249373Y-59158885D02*
X133249373Y-58825552D01*
X133249373Y-58825552D02*
X133201754Y-58635076D01*
X133201754Y-58635076D02*
X133106516Y-58539838D01*
X133106516Y-58539838D02*
X133011278Y-58492219D01*
X132249373Y-58492219D02*
X132011278Y-59492219D01*
X132011278Y-59492219D02*
X131820802Y-58777933D01*
X131820802Y-58777933D02*
X131630326Y-59492219D01*
X131630326Y-59492219D02*
X131392231Y-58492219D01*
X129916040Y-58968409D02*
X129773183Y-59016028D01*
X129773183Y-59016028D02*
X129725564Y-59063647D01*
X129725564Y-59063647D02*
X129677945Y-59158885D01*
X129677945Y-59158885D02*
X129677945Y-59301742D01*
X129677945Y-59301742D02*
X129725564Y-59396980D01*
X129725564Y-59396980D02*
X129773183Y-59444600D01*
X129773183Y-59444600D02*
X129868421Y-59492219D01*
X129868421Y-59492219D02*
X130249373Y-59492219D01*
X130249373Y-59492219D02*
X130249373Y-58492219D01*
X130249373Y-58492219D02*
X129916040Y-58492219D01*
X129916040Y-58492219D02*
X129820802Y-58539838D01*
X129820802Y-58539838D02*
X129773183Y-58587457D01*
X129773183Y-58587457D02*
X129725564Y-58682695D01*
X129725564Y-58682695D02*
X129725564Y-58777933D01*
X129725564Y-58777933D02*
X129773183Y-58873171D01*
X129773183Y-58873171D02*
X129820802Y-58920790D01*
X129820802Y-58920790D02*
X129916040Y-58968409D01*
X129916040Y-58968409D02*
X130249373Y-58968409D01*
X129296992Y-59206504D02*
X128820802Y-59206504D01*
X129392230Y-59492219D02*
X129058897Y-58492219D01*
X129058897Y-58492219D02*
X128725564Y-59492219D01*
X128439849Y-59444600D02*
X128296992Y-59492219D01*
X128296992Y-59492219D02*
X128058897Y-59492219D01*
X128058897Y-59492219D02*
X127963659Y-59444600D01*
X127963659Y-59444600D02*
X127916040Y-59396980D01*
X127916040Y-59396980D02*
X127868421Y-59301742D01*
X127868421Y-59301742D02*
X127868421Y-59206504D01*
X127868421Y-59206504D02*
X127916040Y-59111266D01*
X127916040Y-59111266D02*
X127963659Y-59063647D01*
X127963659Y-59063647D02*
X128058897Y-59016028D01*
X128058897Y-59016028D02*
X128249373Y-58968409D01*
X128249373Y-58968409D02*
X128344611Y-58920790D01*
X128344611Y-58920790D02*
X128392230Y-58873171D01*
X128392230Y-58873171D02*
X128439849Y-58777933D01*
X128439849Y-58777933D02*
X128439849Y-58682695D01*
X128439849Y-58682695D02*
X128392230Y-58587457D01*
X128392230Y-58587457D02*
X128344611Y-58539838D01*
X128344611Y-58539838D02*
X128249373Y-58492219D01*
X128249373Y-58492219D02*
X128011278Y-58492219D01*
X128011278Y-58492219D02*
X127868421Y-58539838D01*
X127439849Y-58968409D02*
X127106516Y-58968409D01*
X126963659Y-59492219D02*
X127439849Y-59492219D01*
X127439849Y-59492219D02*
X127439849Y-58492219D01*
X127439849Y-58492219D02*
X126963659Y-58492219D01*
X126535087Y-59492219D02*
X126535087Y-58492219D01*
X126535087Y-58492219D02*
X126296992Y-58492219D01*
X126296992Y-58492219D02*
X126154135Y-58539838D01*
X126154135Y-58539838D02*
X126058897Y-58635076D01*
X126058897Y-58635076D02*
X126011278Y-58730314D01*
X126011278Y-58730314D02*
X125963659Y-58920790D01*
X125963659Y-58920790D02*
X125963659Y-59063647D01*
X125963659Y-59063647D02*
X126011278Y-59254123D01*
X126011278Y-59254123D02*
X126058897Y-59349361D01*
X126058897Y-59349361D02*
X126154135Y-59444600D01*
X126154135Y-59444600D02*
X126296992Y-59492219D01*
X126296992Y-59492219D02*
X126535087Y-59492219D01*
X138487469Y-56867219D02*
X138487469Y-57105314D01*
X138725564Y-57010076D02*
X138487469Y-57105314D01*
X138487469Y-57105314D02*
X138249374Y-57010076D01*
X138630326Y-57295790D02*
X138487469Y-57105314D01*
X138487469Y-57105314D02*
X138344612Y-57295790D01*
X136535088Y-57771980D02*
X136582707Y-57819600D01*
X136582707Y-57819600D02*
X136725564Y-57867219D01*
X136725564Y-57867219D02*
X136820802Y-57867219D01*
X136820802Y-57867219D02*
X136963659Y-57819600D01*
X136963659Y-57819600D02*
X137058897Y-57724361D01*
X137058897Y-57724361D02*
X137106516Y-57629123D01*
X137106516Y-57629123D02*
X137154135Y-57438647D01*
X137154135Y-57438647D02*
X137154135Y-57295790D01*
X137154135Y-57295790D02*
X137106516Y-57105314D01*
X137106516Y-57105314D02*
X137058897Y-57010076D01*
X137058897Y-57010076D02*
X136963659Y-56914838D01*
X136963659Y-56914838D02*
X136820802Y-56867219D01*
X136820802Y-56867219D02*
X136725564Y-56867219D01*
X136725564Y-56867219D02*
X136582707Y-56914838D01*
X136582707Y-56914838D02*
X136535088Y-56962457D01*
X135916040Y-56867219D02*
X135725564Y-56867219D01*
X135725564Y-56867219D02*
X135630326Y-56914838D01*
X135630326Y-56914838D02*
X135535088Y-57010076D01*
X135535088Y-57010076D02*
X135487469Y-57200552D01*
X135487469Y-57200552D02*
X135487469Y-57533885D01*
X135487469Y-57533885D02*
X135535088Y-57724361D01*
X135535088Y-57724361D02*
X135630326Y-57819600D01*
X135630326Y-57819600D02*
X135725564Y-57867219D01*
X135725564Y-57867219D02*
X135916040Y-57867219D01*
X135916040Y-57867219D02*
X136011278Y-57819600D01*
X136011278Y-57819600D02*
X136106516Y-57724361D01*
X136106516Y-57724361D02*
X136154135Y-57533885D01*
X136154135Y-57533885D02*
X136154135Y-57200552D01*
X136154135Y-57200552D02*
X136106516Y-57010076D01*
X136106516Y-57010076D02*
X136011278Y-56914838D01*
X136011278Y-56914838D02*
X135916040Y-56867219D01*
X135058897Y-57867219D02*
X135058897Y-56867219D01*
X135058897Y-56867219D02*
X134725564Y-57581504D01*
X134725564Y-57581504D02*
X134392231Y-56867219D01*
X134392231Y-56867219D02*
X134392231Y-57867219D01*
X133916040Y-57867219D02*
X133916040Y-56867219D01*
X133916040Y-56867219D02*
X133535088Y-56867219D01*
X133535088Y-56867219D02*
X133439850Y-56914838D01*
X133439850Y-56914838D02*
X133392231Y-56962457D01*
X133392231Y-56962457D02*
X133344612Y-57057695D01*
X133344612Y-57057695D02*
X133344612Y-57200552D01*
X133344612Y-57200552D02*
X133392231Y-57295790D01*
X133392231Y-57295790D02*
X133439850Y-57343409D01*
X133439850Y-57343409D02*
X133535088Y-57391028D01*
X133535088Y-57391028D02*
X133916040Y-57391028D01*
X132963659Y-57581504D02*
X132487469Y-57581504D01*
X133058897Y-57867219D02*
X132725564Y-56867219D01*
X132725564Y-56867219D02*
X132392231Y-57867219D01*
X132201754Y-56867219D02*
X131630326Y-56867219D01*
X131916040Y-57867219D02*
X131916040Y-56867219D01*
X131296992Y-57867219D02*
X131296992Y-56867219D01*
X130487469Y-57343409D02*
X130344612Y-57391028D01*
X130344612Y-57391028D02*
X130296993Y-57438647D01*
X130296993Y-57438647D02*
X130249374Y-57533885D01*
X130249374Y-57533885D02*
X130249374Y-57676742D01*
X130249374Y-57676742D02*
X130296993Y-57771980D01*
X130296993Y-57771980D02*
X130344612Y-57819600D01*
X130344612Y-57819600D02*
X130439850Y-57867219D01*
X130439850Y-57867219D02*
X130820802Y-57867219D01*
X130820802Y-57867219D02*
X130820802Y-56867219D01*
X130820802Y-56867219D02*
X130487469Y-56867219D01*
X130487469Y-56867219D02*
X130392231Y-56914838D01*
X130392231Y-56914838D02*
X130344612Y-56962457D01*
X130344612Y-56962457D02*
X130296993Y-57057695D01*
X130296993Y-57057695D02*
X130296993Y-57152933D01*
X130296993Y-57152933D02*
X130344612Y-57248171D01*
X130344612Y-57248171D02*
X130392231Y-57295790D01*
X130392231Y-57295790D02*
X130487469Y-57343409D01*
X130487469Y-57343409D02*
X130820802Y-57343409D01*
X129344612Y-57867219D02*
X129820802Y-57867219D01*
X129820802Y-57867219D02*
X129820802Y-56867219D01*
X129011278Y-57343409D02*
X128677945Y-57343409D01*
X128535088Y-57867219D02*
X129011278Y-57867219D01*
X129011278Y-57867219D02*
X129011278Y-56867219D01*
X129011278Y-56867219D02*
X128535088Y-56867219D01*
X127439849Y-56867219D02*
X127201754Y-57867219D01*
X127201754Y-57867219D02*
X127011278Y-57152933D01*
X127011278Y-57152933D02*
X126820802Y-57867219D01*
X126820802Y-57867219D02*
X126582707Y-56867219D01*
X126201754Y-57867219D02*
X126201754Y-56867219D01*
X125868421Y-56867219D02*
X125296993Y-56867219D01*
X125582707Y-57867219D02*
X125582707Y-56867219D01*
X124963659Y-57867219D02*
X124963659Y-56867219D01*
X124963659Y-57343409D02*
X124392231Y-57343409D01*
X124392231Y-57867219D02*
X124392231Y-56867219D01*
X123296992Y-56867219D02*
X122725564Y-56867219D01*
X123011278Y-57867219D02*
X123011278Y-56867219D01*
X122487468Y-56867219D02*
X122249373Y-57867219D01*
X122249373Y-57867219D02*
X122058897Y-57152933D01*
X122058897Y-57152933D02*
X121868421Y-57867219D01*
X121868421Y-57867219D02*
X121630326Y-56867219D01*
X121249373Y-57867219D02*
X121249373Y-56867219D01*
X120773183Y-57867219D02*
X120773183Y-56867219D01*
X120773183Y-56867219D02*
X120201755Y-57867219D01*
X120201755Y-57867219D02*
X120201755Y-56867219D01*
X118963659Y-57867219D02*
X118963659Y-56867219D01*
X118963659Y-56867219D02*
X118392231Y-57867219D01*
X118392231Y-57867219D02*
X118392231Y-56867219D01*
X117725564Y-56867219D02*
X117535088Y-56867219D01*
X117535088Y-56867219D02*
X117439850Y-56914838D01*
X117439850Y-56914838D02*
X117344612Y-57010076D01*
X117344612Y-57010076D02*
X117296993Y-57200552D01*
X117296993Y-57200552D02*
X117296993Y-57533885D01*
X117296993Y-57533885D02*
X117344612Y-57724361D01*
X117344612Y-57724361D02*
X117439850Y-57819600D01*
X117439850Y-57819600D02*
X117535088Y-57867219D01*
X117535088Y-57867219D02*
X117725564Y-57867219D01*
X117725564Y-57867219D02*
X117820802Y-57819600D01*
X117820802Y-57819600D02*
X117916040Y-57724361D01*
X117916040Y-57724361D02*
X117963659Y-57533885D01*
X117963659Y-57533885D02*
X117963659Y-57200552D01*
X117963659Y-57200552D02*
X117916040Y-57010076D01*
X117916040Y-57010076D02*
X117820802Y-56914838D01*
X117820802Y-56914838D02*
X117725564Y-56867219D01*
X116868421Y-57867219D02*
X116868421Y-56867219D01*
X116868421Y-56867219D02*
X116630326Y-56867219D01*
X116630326Y-56867219D02*
X116487469Y-56914838D01*
X116487469Y-56914838D02*
X116392231Y-57010076D01*
X116392231Y-57010076D02*
X116344612Y-57105314D01*
X116344612Y-57105314D02*
X116296993Y-57295790D01*
X116296993Y-57295790D02*
X116296993Y-57438647D01*
X116296993Y-57438647D02*
X116344612Y-57629123D01*
X116344612Y-57629123D02*
X116392231Y-57724361D01*
X116392231Y-57724361D02*
X116487469Y-57819600D01*
X116487469Y-57819600D02*
X116630326Y-57867219D01*
X116630326Y-57867219D02*
X116868421Y-57867219D01*
X115868421Y-57343409D02*
X115535088Y-57343409D01*
X115392231Y-57867219D02*
X115868421Y-57867219D01*
X115868421Y-57867219D02*
X115868421Y-56867219D01*
X115868421Y-56867219D02*
X115392231Y-56867219D01*
X138237469Y-54867219D02*
X138237469Y-55105314D01*
X138475564Y-55010076D02*
X138237469Y-55105314D01*
X138237469Y-55105314D02*
X137999374Y-55010076D01*
X138380326Y-55295790D02*
X138237469Y-55105314D01*
X138237469Y-55105314D02*
X138094612Y-55295790D01*
X136856516Y-54867219D02*
X136856516Y-55676742D01*
X136856516Y-55676742D02*
X136808897Y-55771980D01*
X136808897Y-55771980D02*
X136761278Y-55819600D01*
X136761278Y-55819600D02*
X136666040Y-55867219D01*
X136666040Y-55867219D02*
X136475564Y-55867219D01*
X136475564Y-55867219D02*
X136380326Y-55819600D01*
X136380326Y-55819600D02*
X136332707Y-55771980D01*
X136332707Y-55771980D02*
X136285088Y-55676742D01*
X136285088Y-55676742D02*
X136285088Y-54867219D01*
X135332707Y-55867219D02*
X135808897Y-55867219D01*
X135808897Y-55867219D02*
X135808897Y-54867219D01*
X135142230Y-54867219D02*
X134570802Y-54867219D01*
X134856516Y-55867219D02*
X134856516Y-54867219D01*
X133666040Y-55867219D02*
X133999373Y-55391028D01*
X134237468Y-55867219D02*
X134237468Y-54867219D01*
X134237468Y-54867219D02*
X133856516Y-54867219D01*
X133856516Y-54867219D02*
X133761278Y-54914838D01*
X133761278Y-54914838D02*
X133713659Y-54962457D01*
X133713659Y-54962457D02*
X133666040Y-55057695D01*
X133666040Y-55057695D02*
X133666040Y-55200552D01*
X133666040Y-55200552D02*
X133713659Y-55295790D01*
X133713659Y-55295790D02*
X133761278Y-55343409D01*
X133761278Y-55343409D02*
X133856516Y-55391028D01*
X133856516Y-55391028D02*
X134237468Y-55391028D01*
X133285087Y-55581504D02*
X132808897Y-55581504D01*
X133380325Y-55867219D02*
X133046992Y-54867219D01*
X133046992Y-54867219D02*
X132713659Y-55867219D01*
X131142230Y-55867219D02*
X131618420Y-55867219D01*
X131618420Y-55867219D02*
X131618420Y-54867219D01*
X130618420Y-54867219D02*
X130427944Y-54867219D01*
X130427944Y-54867219D02*
X130332706Y-54914838D01*
X130332706Y-54914838D02*
X130237468Y-55010076D01*
X130237468Y-55010076D02*
X130189849Y-55200552D01*
X130189849Y-55200552D02*
X130189849Y-55533885D01*
X130189849Y-55533885D02*
X130237468Y-55724361D01*
X130237468Y-55724361D02*
X130332706Y-55819600D01*
X130332706Y-55819600D02*
X130427944Y-55867219D01*
X130427944Y-55867219D02*
X130618420Y-55867219D01*
X130618420Y-55867219D02*
X130713658Y-55819600D01*
X130713658Y-55819600D02*
X130808896Y-55724361D01*
X130808896Y-55724361D02*
X130856515Y-55533885D01*
X130856515Y-55533885D02*
X130856515Y-55200552D01*
X130856515Y-55200552D02*
X130808896Y-55010076D01*
X130808896Y-55010076D02*
X130713658Y-54914838D01*
X130713658Y-54914838D02*
X130618420Y-54867219D01*
X129856515Y-54867219D02*
X129618420Y-55867219D01*
X129618420Y-55867219D02*
X129427944Y-55152933D01*
X129427944Y-55152933D02*
X129237468Y-55867219D01*
X129237468Y-55867219D02*
X128999373Y-54867219D01*
X127856515Y-55867219D02*
X127856515Y-54867219D01*
X127856515Y-54867219D02*
X127475563Y-54867219D01*
X127475563Y-54867219D02*
X127380325Y-54914838D01*
X127380325Y-54914838D02*
X127332706Y-54962457D01*
X127332706Y-54962457D02*
X127285087Y-55057695D01*
X127285087Y-55057695D02*
X127285087Y-55200552D01*
X127285087Y-55200552D02*
X127332706Y-55295790D01*
X127332706Y-55295790D02*
X127380325Y-55343409D01*
X127380325Y-55343409D02*
X127475563Y-55391028D01*
X127475563Y-55391028D02*
X127856515Y-55391028D01*
X126666039Y-54867219D02*
X126475563Y-54867219D01*
X126475563Y-54867219D02*
X126380325Y-54914838D01*
X126380325Y-54914838D02*
X126285087Y-55010076D01*
X126285087Y-55010076D02*
X126237468Y-55200552D01*
X126237468Y-55200552D02*
X126237468Y-55533885D01*
X126237468Y-55533885D02*
X126285087Y-55724361D01*
X126285087Y-55724361D02*
X126380325Y-55819600D01*
X126380325Y-55819600D02*
X126475563Y-55867219D01*
X126475563Y-55867219D02*
X126666039Y-55867219D01*
X126666039Y-55867219D02*
X126761277Y-55819600D01*
X126761277Y-55819600D02*
X126856515Y-55724361D01*
X126856515Y-55724361D02*
X126904134Y-55533885D01*
X126904134Y-55533885D02*
X126904134Y-55200552D01*
X126904134Y-55200552D02*
X126856515Y-55010076D01*
X126856515Y-55010076D02*
X126761277Y-54914838D01*
X126761277Y-54914838D02*
X126666039Y-54867219D01*
X125904134Y-54867219D02*
X125666039Y-55867219D01*
X125666039Y-55867219D02*
X125475563Y-55152933D01*
X125475563Y-55152933D02*
X125285087Y-55867219D01*
X125285087Y-55867219D02*
X125046992Y-54867219D01*
X124666039Y-55343409D02*
X124332706Y-55343409D01*
X124189849Y-55867219D02*
X124666039Y-55867219D01*
X124666039Y-55867219D02*
X124666039Y-54867219D01*
X124666039Y-54867219D02*
X124189849Y-54867219D01*
X123189849Y-55867219D02*
X123523182Y-55391028D01*
X123761277Y-55867219D02*
X123761277Y-54867219D01*
X123761277Y-54867219D02*
X123380325Y-54867219D01*
X123380325Y-54867219D02*
X123285087Y-54914838D01*
X123285087Y-54914838D02*
X123237468Y-54962457D01*
X123237468Y-54962457D02*
X123189849Y-55057695D01*
X123189849Y-55057695D02*
X123189849Y-55200552D01*
X123189849Y-55200552D02*
X123237468Y-55295790D01*
X123237468Y-55295790D02*
X123285087Y-55343409D01*
X123285087Y-55343409D02*
X123380325Y-55391028D01*
X123380325Y-55391028D02*
X123761277Y-55391028D01*
X138237469Y-52867219D02*
X138237469Y-53105314D01*
X138475564Y-53010076D02*
X138237469Y-53105314D01*
X138237469Y-53105314D02*
X137999374Y-53010076D01*
X138380326Y-53295790D02*
X138237469Y-53105314D01*
X138237469Y-53105314D02*
X138094612Y-53295790D01*
X136380326Y-53867219D02*
X136856516Y-53867219D01*
X136856516Y-53867219D02*
X136856516Y-52867219D01*
X135856516Y-52867219D02*
X135666040Y-52867219D01*
X135666040Y-52867219D02*
X135570802Y-52914838D01*
X135570802Y-52914838D02*
X135475564Y-53010076D01*
X135475564Y-53010076D02*
X135427945Y-53200552D01*
X135427945Y-53200552D02*
X135427945Y-53533885D01*
X135427945Y-53533885D02*
X135475564Y-53724361D01*
X135475564Y-53724361D02*
X135570802Y-53819600D01*
X135570802Y-53819600D02*
X135666040Y-53867219D01*
X135666040Y-53867219D02*
X135856516Y-53867219D01*
X135856516Y-53867219D02*
X135951754Y-53819600D01*
X135951754Y-53819600D02*
X136046992Y-53724361D01*
X136046992Y-53724361D02*
X136094611Y-53533885D01*
X136094611Y-53533885D02*
X136094611Y-53200552D01*
X136094611Y-53200552D02*
X136046992Y-53010076D01*
X136046992Y-53010076D02*
X135951754Y-52914838D01*
X135951754Y-52914838D02*
X135856516Y-52867219D01*
X135094611Y-52867219D02*
X134856516Y-53867219D01*
X134856516Y-53867219D02*
X134666040Y-53152933D01*
X134666040Y-53152933D02*
X134475564Y-53867219D01*
X134475564Y-53867219D02*
X134237469Y-52867219D01*
X132523183Y-53771980D02*
X132570802Y-53819600D01*
X132570802Y-53819600D02*
X132713659Y-53867219D01*
X132713659Y-53867219D02*
X132808897Y-53867219D01*
X132808897Y-53867219D02*
X132951754Y-53819600D01*
X132951754Y-53819600D02*
X133046992Y-53724361D01*
X133046992Y-53724361D02*
X133094611Y-53629123D01*
X133094611Y-53629123D02*
X133142230Y-53438647D01*
X133142230Y-53438647D02*
X133142230Y-53295790D01*
X133142230Y-53295790D02*
X133094611Y-53105314D01*
X133094611Y-53105314D02*
X133046992Y-53010076D01*
X133046992Y-53010076D02*
X132951754Y-52914838D01*
X132951754Y-52914838D02*
X132808897Y-52867219D01*
X132808897Y-52867219D02*
X132713659Y-52867219D01*
X132713659Y-52867219D02*
X132570802Y-52914838D01*
X132570802Y-52914838D02*
X132523183Y-52962457D01*
X131904135Y-52867219D02*
X131713659Y-52867219D01*
X131713659Y-52867219D02*
X131618421Y-52914838D01*
X131618421Y-52914838D02*
X131523183Y-53010076D01*
X131523183Y-53010076D02*
X131475564Y-53200552D01*
X131475564Y-53200552D02*
X131475564Y-53533885D01*
X131475564Y-53533885D02*
X131523183Y-53724361D01*
X131523183Y-53724361D02*
X131618421Y-53819600D01*
X131618421Y-53819600D02*
X131713659Y-53867219D01*
X131713659Y-53867219D02*
X131904135Y-53867219D01*
X131904135Y-53867219D02*
X131999373Y-53819600D01*
X131999373Y-53819600D02*
X132094611Y-53724361D01*
X132094611Y-53724361D02*
X132142230Y-53533885D01*
X132142230Y-53533885D02*
X132142230Y-53200552D01*
X132142230Y-53200552D02*
X132094611Y-53010076D01*
X132094611Y-53010076D02*
X131999373Y-52914838D01*
X131999373Y-52914838D02*
X131904135Y-52867219D01*
X131094611Y-53819600D02*
X130951754Y-53867219D01*
X130951754Y-53867219D02*
X130713659Y-53867219D01*
X130713659Y-53867219D02*
X130618421Y-53819600D01*
X130618421Y-53819600D02*
X130570802Y-53771980D01*
X130570802Y-53771980D02*
X130523183Y-53676742D01*
X130523183Y-53676742D02*
X130523183Y-53581504D01*
X130523183Y-53581504D02*
X130570802Y-53486266D01*
X130570802Y-53486266D02*
X130618421Y-53438647D01*
X130618421Y-53438647D02*
X130713659Y-53391028D01*
X130713659Y-53391028D02*
X130904135Y-53343409D01*
X130904135Y-53343409D02*
X130999373Y-53295790D01*
X130999373Y-53295790D02*
X131046992Y-53248171D01*
X131046992Y-53248171D02*
X131094611Y-53152933D01*
X131094611Y-53152933D02*
X131094611Y-53057695D01*
X131094611Y-53057695D02*
X131046992Y-52962457D01*
X131046992Y-52962457D02*
X130999373Y-52914838D01*
X130999373Y-52914838D02*
X130904135Y-52867219D01*
X130904135Y-52867219D02*
X130666040Y-52867219D01*
X130666040Y-52867219D02*
X130523183Y-52914838D01*
X130237468Y-52867219D02*
X129666040Y-52867219D01*
X129951754Y-53867219D02*
X129951754Y-52867219D01*
X128570801Y-53486266D02*
X127808897Y-53486266D01*
X126570801Y-53343409D02*
X126237468Y-53343409D01*
X126094611Y-53867219D02*
X126570801Y-53867219D01*
X126570801Y-53867219D02*
X126570801Y-52867219D01*
X126570801Y-52867219D02*
X126094611Y-52867219D01*
X125713658Y-53819600D02*
X125570801Y-53867219D01*
X125570801Y-53867219D02*
X125332706Y-53867219D01*
X125332706Y-53867219D02*
X125237468Y-53819600D01*
X125237468Y-53819600D02*
X125189849Y-53771980D01*
X125189849Y-53771980D02*
X125142230Y-53676742D01*
X125142230Y-53676742D02*
X125142230Y-53581504D01*
X125142230Y-53581504D02*
X125189849Y-53486266D01*
X125189849Y-53486266D02*
X125237468Y-53438647D01*
X125237468Y-53438647D02*
X125332706Y-53391028D01*
X125332706Y-53391028D02*
X125523182Y-53343409D01*
X125523182Y-53343409D02*
X125618420Y-53295790D01*
X125618420Y-53295790D02*
X125666039Y-53248171D01*
X125666039Y-53248171D02*
X125713658Y-53152933D01*
X125713658Y-53152933D02*
X125713658Y-53057695D01*
X125713658Y-53057695D02*
X125666039Y-52962457D01*
X125666039Y-52962457D02*
X125618420Y-52914838D01*
X125618420Y-52914838D02*
X125523182Y-52867219D01*
X125523182Y-52867219D02*
X125285087Y-52867219D01*
X125285087Y-52867219D02*
X125142230Y-52914838D01*
X124713658Y-53867219D02*
X124713658Y-52867219D01*
X124713658Y-52867219D02*
X124332706Y-52867219D01*
X124332706Y-52867219D02*
X124237468Y-52914838D01*
X124237468Y-52914838D02*
X124189849Y-52962457D01*
X124189849Y-52962457D02*
X124142230Y-53057695D01*
X124142230Y-53057695D02*
X124142230Y-53200552D01*
X124142230Y-53200552D02*
X124189849Y-53295790D01*
X124189849Y-53295790D02*
X124237468Y-53343409D01*
X124237468Y-53343409D02*
X124332706Y-53391028D01*
X124332706Y-53391028D02*
X124713658Y-53391028D01*
X123523182Y-52867219D02*
X123427944Y-52867219D01*
X123427944Y-52867219D02*
X123332706Y-52914838D01*
X123332706Y-52914838D02*
X123285087Y-52962457D01*
X123285087Y-52962457D02*
X123237468Y-53057695D01*
X123237468Y-53057695D02*
X123189849Y-53248171D01*
X123189849Y-53248171D02*
X123189849Y-53486266D01*
X123189849Y-53486266D02*
X123237468Y-53676742D01*
X123237468Y-53676742D02*
X123285087Y-53771980D01*
X123285087Y-53771980D02*
X123332706Y-53819600D01*
X123332706Y-53819600D02*
X123427944Y-53867219D01*
X123427944Y-53867219D02*
X123523182Y-53867219D01*
X123523182Y-53867219D02*
X123618420Y-53819600D01*
X123618420Y-53819600D02*
X123666039Y-53771980D01*
X123666039Y-53771980D02*
X123713658Y-53676742D01*
X123713658Y-53676742D02*
X123761277Y-53486266D01*
X123761277Y-53486266D02*
X123761277Y-53248171D01*
X123761277Y-53248171D02*
X123713658Y-53057695D01*
X123713658Y-53057695D02*
X123666039Y-52962457D01*
X123666039Y-52962457D02*
X123618420Y-52914838D01*
X123618420Y-52914838D02*
X123523182Y-52867219D01*
X122237468Y-53867219D02*
X122808896Y-53867219D01*
X122523182Y-53867219D02*
X122523182Y-52867219D01*
X122523182Y-52867219D02*
X122618420Y-53010076D01*
X122618420Y-53010076D02*
X122713658Y-53105314D01*
X122713658Y-53105314D02*
X122808896Y-53152933D01*
X144975564Y-50367219D02*
X144737469Y-51367219D01*
X144737469Y-51367219D02*
X144546993Y-50652933D01*
X144546993Y-50652933D02*
X144356517Y-51367219D01*
X144356517Y-51367219D02*
X144118422Y-50367219D01*
X143785088Y-51081504D02*
X143308898Y-51081504D01*
X143880326Y-51367219D02*
X143546993Y-50367219D01*
X143546993Y-50367219D02*
X143213660Y-51367219D01*
X143023183Y-50367219D02*
X142451755Y-50367219D01*
X142737469Y-51367219D02*
X142737469Y-50367219D01*
X142118421Y-50843409D02*
X141785088Y-50843409D01*
X141642231Y-51367219D02*
X142118421Y-51367219D01*
X142118421Y-51367219D02*
X142118421Y-50367219D01*
X142118421Y-50367219D02*
X141642231Y-50367219D01*
X140642231Y-51367219D02*
X140975564Y-50891028D01*
X141213659Y-51367219D02*
X141213659Y-50367219D01*
X141213659Y-50367219D02*
X140832707Y-50367219D01*
X140832707Y-50367219D02*
X140737469Y-50414838D01*
X140737469Y-50414838D02*
X140689850Y-50462457D01*
X140689850Y-50462457D02*
X140642231Y-50557695D01*
X140642231Y-50557695D02*
X140642231Y-50700552D01*
X140642231Y-50700552D02*
X140689850Y-50795790D01*
X140689850Y-50795790D02*
X140737469Y-50843409D01*
X140737469Y-50843409D02*
X140832707Y-50891028D01*
X140832707Y-50891028D02*
X141213659Y-50891028D01*
X139451754Y-51367219D02*
X139451754Y-50367219D01*
X139451754Y-50367219D02*
X139118421Y-51081504D01*
X139118421Y-51081504D02*
X138785088Y-50367219D01*
X138785088Y-50367219D02*
X138785088Y-51367219D01*
X138118421Y-50367219D02*
X137927945Y-50367219D01*
X137927945Y-50367219D02*
X137832707Y-50414838D01*
X137832707Y-50414838D02*
X137737469Y-50510076D01*
X137737469Y-50510076D02*
X137689850Y-50700552D01*
X137689850Y-50700552D02*
X137689850Y-51033885D01*
X137689850Y-51033885D02*
X137737469Y-51224361D01*
X137737469Y-51224361D02*
X137832707Y-51319600D01*
X137832707Y-51319600D02*
X137927945Y-51367219D01*
X137927945Y-51367219D02*
X138118421Y-51367219D01*
X138118421Y-51367219D02*
X138213659Y-51319600D01*
X138213659Y-51319600D02*
X138308897Y-51224361D01*
X138308897Y-51224361D02*
X138356516Y-51033885D01*
X138356516Y-51033885D02*
X138356516Y-50700552D01*
X138356516Y-50700552D02*
X138308897Y-50510076D01*
X138308897Y-50510076D02*
X138213659Y-50414838D01*
X138213659Y-50414838D02*
X138118421Y-50367219D01*
X137404135Y-50367219D02*
X136832707Y-50367219D01*
X137118421Y-51367219D02*
X137118421Y-50367219D01*
X136308897Y-50367219D02*
X136118421Y-50367219D01*
X136118421Y-50367219D02*
X136023183Y-50414838D01*
X136023183Y-50414838D02*
X135927945Y-50510076D01*
X135927945Y-50510076D02*
X135880326Y-50700552D01*
X135880326Y-50700552D02*
X135880326Y-51033885D01*
X135880326Y-51033885D02*
X135927945Y-51224361D01*
X135927945Y-51224361D02*
X136023183Y-51319600D01*
X136023183Y-51319600D02*
X136118421Y-51367219D01*
X136118421Y-51367219D02*
X136308897Y-51367219D01*
X136308897Y-51367219D02*
X136404135Y-51319600D01*
X136404135Y-51319600D02*
X136499373Y-51224361D01*
X136499373Y-51224361D02*
X136546992Y-51033885D01*
X136546992Y-51033885D02*
X136546992Y-50700552D01*
X136546992Y-50700552D02*
X136499373Y-50510076D01*
X136499373Y-50510076D02*
X136404135Y-50414838D01*
X136404135Y-50414838D02*
X136308897Y-50367219D01*
X134880326Y-51367219D02*
X135213659Y-50891028D01*
X135451754Y-51367219D02*
X135451754Y-50367219D01*
X135451754Y-50367219D02*
X135070802Y-50367219D01*
X135070802Y-50367219D02*
X134975564Y-50414838D01*
X134975564Y-50414838D02*
X134927945Y-50462457D01*
X134927945Y-50462457D02*
X134880326Y-50557695D01*
X134880326Y-50557695D02*
X134880326Y-50700552D01*
X134880326Y-50700552D02*
X134927945Y-50795790D01*
X134927945Y-50795790D02*
X134975564Y-50843409D01*
X134975564Y-50843409D02*
X135070802Y-50891028D01*
X135070802Y-50891028D02*
X135451754Y-50891028D01*
X133118421Y-51271980D02*
X133166040Y-51319600D01*
X133166040Y-51319600D02*
X133308897Y-51367219D01*
X133308897Y-51367219D02*
X133404135Y-51367219D01*
X133404135Y-51367219D02*
X133546992Y-51319600D01*
X133546992Y-51319600D02*
X133642230Y-51224361D01*
X133642230Y-51224361D02*
X133689849Y-51129123D01*
X133689849Y-51129123D02*
X133737468Y-50938647D01*
X133737468Y-50938647D02*
X133737468Y-50795790D01*
X133737468Y-50795790D02*
X133689849Y-50605314D01*
X133689849Y-50605314D02*
X133642230Y-50510076D01*
X133642230Y-50510076D02*
X133546992Y-50414838D01*
X133546992Y-50414838D02*
X133404135Y-50367219D01*
X133404135Y-50367219D02*
X133308897Y-50367219D01*
X133308897Y-50367219D02*
X133166040Y-50414838D01*
X133166040Y-50414838D02*
X133118421Y-50462457D01*
X132499373Y-50367219D02*
X132308897Y-50367219D01*
X132308897Y-50367219D02*
X132213659Y-50414838D01*
X132213659Y-50414838D02*
X132118421Y-50510076D01*
X132118421Y-50510076D02*
X132070802Y-50700552D01*
X132070802Y-50700552D02*
X132070802Y-51033885D01*
X132070802Y-51033885D02*
X132118421Y-51224361D01*
X132118421Y-51224361D02*
X132213659Y-51319600D01*
X132213659Y-51319600D02*
X132308897Y-51367219D01*
X132308897Y-51367219D02*
X132499373Y-51367219D01*
X132499373Y-51367219D02*
X132594611Y-51319600D01*
X132594611Y-51319600D02*
X132689849Y-51224361D01*
X132689849Y-51224361D02*
X132737468Y-51033885D01*
X132737468Y-51033885D02*
X132737468Y-50700552D01*
X132737468Y-50700552D02*
X132689849Y-50510076D01*
X132689849Y-50510076D02*
X132594611Y-50414838D01*
X132594611Y-50414838D02*
X132499373Y-50367219D01*
X131642230Y-51367219D02*
X131642230Y-50367219D01*
X131642230Y-50367219D02*
X131070802Y-51367219D01*
X131070802Y-51367219D02*
X131070802Y-50367219D01*
X130737468Y-50367219D02*
X130166040Y-50367219D01*
X130451754Y-51367219D02*
X130451754Y-50367219D01*
X129261278Y-51367219D02*
X129594611Y-50891028D01*
X129832706Y-51367219D02*
X129832706Y-50367219D01*
X129832706Y-50367219D02*
X129451754Y-50367219D01*
X129451754Y-50367219D02*
X129356516Y-50414838D01*
X129356516Y-50414838D02*
X129308897Y-50462457D01*
X129308897Y-50462457D02*
X129261278Y-50557695D01*
X129261278Y-50557695D02*
X129261278Y-50700552D01*
X129261278Y-50700552D02*
X129308897Y-50795790D01*
X129308897Y-50795790D02*
X129356516Y-50843409D01*
X129356516Y-50843409D02*
X129451754Y-50891028D01*
X129451754Y-50891028D02*
X129832706Y-50891028D01*
X128642230Y-50367219D02*
X128451754Y-50367219D01*
X128451754Y-50367219D02*
X128356516Y-50414838D01*
X128356516Y-50414838D02*
X128261278Y-50510076D01*
X128261278Y-50510076D02*
X128213659Y-50700552D01*
X128213659Y-50700552D02*
X128213659Y-51033885D01*
X128213659Y-51033885D02*
X128261278Y-51224361D01*
X128261278Y-51224361D02*
X128356516Y-51319600D01*
X128356516Y-51319600D02*
X128451754Y-51367219D01*
X128451754Y-51367219D02*
X128642230Y-51367219D01*
X128642230Y-51367219D02*
X128737468Y-51319600D01*
X128737468Y-51319600D02*
X128832706Y-51224361D01*
X128832706Y-51224361D02*
X128880325Y-51033885D01*
X128880325Y-51033885D02*
X128880325Y-50700552D01*
X128880325Y-50700552D02*
X128832706Y-50510076D01*
X128832706Y-50510076D02*
X128737468Y-50414838D01*
X128737468Y-50414838D02*
X128642230Y-50367219D01*
X127308897Y-51367219D02*
X127785087Y-51367219D01*
X127785087Y-51367219D02*
X127785087Y-50367219D01*
X126975563Y-50843409D02*
X126642230Y-50843409D01*
X126499373Y-51367219D02*
X126975563Y-51367219D01*
X126975563Y-51367219D02*
X126975563Y-50367219D01*
X126975563Y-50367219D02*
X126499373Y-50367219D01*
X125499373Y-51367219D02*
X125832706Y-50891028D01*
X126070801Y-51367219D02*
X126070801Y-50367219D01*
X126070801Y-50367219D02*
X125689849Y-50367219D01*
X125689849Y-50367219D02*
X125594611Y-50414838D01*
X125594611Y-50414838D02*
X125546992Y-50462457D01*
X125546992Y-50462457D02*
X125499373Y-50557695D01*
X125499373Y-50557695D02*
X125499373Y-50700552D01*
X125499373Y-50700552D02*
X125546992Y-50795790D01*
X125546992Y-50795790D02*
X125594611Y-50843409D01*
X125594611Y-50843409D02*
X125689849Y-50891028D01*
X125689849Y-50891028D02*
X126070801Y-50891028D01*
X124308896Y-51271980D02*
X124261277Y-51319600D01*
X124261277Y-51319600D02*
X124308896Y-51367219D01*
X124308896Y-51367219D02*
X124356515Y-51319600D01*
X124356515Y-51319600D02*
X124308896Y-51271980D01*
X124308896Y-51271980D02*
X124308896Y-51367219D01*
X124308896Y-50748171D02*
X124261277Y-50795790D01*
X124261277Y-50795790D02*
X124308896Y-50843409D01*
X124308896Y-50843409D02*
X124356515Y-50795790D01*
X124356515Y-50795790D02*
X124308896Y-50748171D01*
X124308896Y-50748171D02*
X124308896Y-50843409D01*
D12*
X114000000Y-49500000D02*
X146000000Y-49500000D01*
X146000000Y-69750000D01*
X114000000Y-69750000D01*
X114000000Y-49500000D01*
D13*
%TO.C,G\u002A\u002A\u002A*%
G36*
X127984740Y-66733402D02*
G01*
X128016295Y-66735856D01*
X128127538Y-66754321D01*
X128181743Y-66797635D01*
X128208079Y-66885688D01*
X128234172Y-67023732D01*
X128269474Y-66874184D01*
X128272891Y-66859976D01*
X128305966Y-66769805D01*
X128365923Y-66732184D01*
X128485178Y-66724637D01*
X128665580Y-66724637D01*
X128665580Y-67115761D01*
X128664554Y-67303663D01*
X128657896Y-67419903D01*
X128640247Y-67480372D01*
X128606250Y-67503293D01*
X128550544Y-67506884D01*
X128499793Y-67503886D01*
X128456158Y-67478060D01*
X128436730Y-67406198D01*
X128430041Y-67265308D01*
X128424575Y-67023732D01*
X128380090Y-67267992D01*
X128366047Y-67340772D01*
X128335721Y-67448785D01*
X128297292Y-67494471D01*
X128238286Y-67498065D01*
X128181888Y-67475262D01*
X128130622Y-67400178D01*
X128086639Y-67253804D01*
X128032310Y-67023732D01*
X128026843Y-67268508D01*
X128023124Y-67374636D01*
X128009796Y-67465016D01*
X127978056Y-67499253D01*
X127917845Y-67498580D01*
X127882703Y-67491339D01*
X127844562Y-67465205D01*
X127821958Y-67404230D01*
X127809276Y-67289354D01*
X127800903Y-67101518D01*
X127787494Y-66719160D01*
X127984740Y-66733402D01*
G37*
G36*
X127719207Y-67215524D02*
G01*
X127738090Y-67355596D01*
X127745290Y-67435222D01*
X127715096Y-67487507D01*
X127607247Y-67506884D01*
X127510360Y-67492659D01*
X127469203Y-67437862D01*
X127464012Y-67406110D01*
X127423189Y-67368840D01*
X127402021Y-67376627D01*
X127377174Y-67437862D01*
X127348724Y-67486305D01*
X127239131Y-67506884D01*
X127163885Y-67505517D01*
X127121289Y-67488923D01*
X127107960Y-67438196D01*
X127119038Y-67334431D01*
X127149667Y-67158722D01*
X127157498Y-67114836D01*
X127433020Y-67114836D01*
X127438527Y-67169444D01*
X127452367Y-67176643D01*
X127469203Y-67138768D01*
X127465882Y-67114408D01*
X127438527Y-67108091D01*
X127433020Y-67114836D01*
X127157498Y-67114836D01*
X127168178Y-67054981D01*
X127200798Y-66891123D01*
X127233176Y-66793011D01*
X127276682Y-66743792D01*
X127342685Y-66726618D01*
X127442553Y-66724637D01*
X127639774Y-66724637D01*
X127692532Y-67044099D01*
X127692719Y-67045233D01*
X127707268Y-67138768D01*
X127719207Y-67215524D01*
G37*
G36*
X126929796Y-66724643D02*
G01*
X127022065Y-66732085D01*
X127049686Y-66772606D01*
X127033344Y-66874184D01*
X127030759Y-66885828D01*
X127010540Y-66986402D01*
X127004543Y-67066792D01*
X127013002Y-67163996D01*
X127036155Y-67315011D01*
X127049192Y-67400332D01*
X127050720Y-67478974D01*
X127016981Y-67504180D01*
X126935305Y-67499069D01*
X126898374Y-67493434D01*
X126815233Y-67449946D01*
X126776339Y-67345833D01*
X126750248Y-67207790D01*
X126714947Y-67357337D01*
X126693788Y-67429277D01*
X126642818Y-67492069D01*
X126545257Y-67506884D01*
X126540301Y-67506888D01*
X126454222Y-67505101D01*
X126420502Y-67484471D01*
X126432602Y-67422610D01*
X126483981Y-67297128D01*
X126511199Y-67221035D01*
X126532405Y-67022564D01*
X126478191Y-66805163D01*
X126470942Y-66783172D01*
X126483542Y-66736630D01*
X126568480Y-66724637D01*
X126656721Y-66742229D01*
X126731537Y-66828170D01*
X126773152Y-66931703D01*
X126776069Y-66828170D01*
X126780389Y-66787310D01*
X126819938Y-66737152D01*
X126922781Y-66724637D01*
X126929796Y-66724643D01*
G37*
G36*
X125826718Y-66697762D02*
G01*
X125950725Y-66770652D01*
X125998881Y-66848298D01*
X126037378Y-66998612D01*
X126046179Y-67170275D01*
X126024222Y-67327518D01*
X125970445Y-67434575D01*
X125962891Y-67441396D01*
X125860090Y-67488161D01*
X125720652Y-67506884D01*
X125548170Y-67477168D01*
X125437180Y-67389768D01*
X125398551Y-67250517D01*
X125401651Y-67203958D01*
X125437731Y-67151352D01*
X125536595Y-67138768D01*
X125598540Y-67141706D01*
X125660302Y-67172494D01*
X125674638Y-67256520D01*
X125686532Y-67329542D01*
X125720652Y-67345833D01*
X125736181Y-67322834D01*
X125758072Y-67227266D01*
X125766667Y-67090038D01*
X125763680Y-67009656D01*
X125747034Y-66904037D01*
X125720652Y-66862681D01*
X125693908Y-66879938D01*
X125674638Y-66954710D01*
X125673214Y-66978466D01*
X125637638Y-67032277D01*
X125536595Y-67046739D01*
X125478543Y-67044180D01*
X125413949Y-67014792D01*
X125398551Y-66934312D01*
X125398717Y-66925932D01*
X125442693Y-66806586D01*
X125546292Y-66723557D01*
X125683104Y-66684674D01*
X125826718Y-66697762D01*
G37*
G36*
X125352537Y-67113565D02*
G01*
X125352537Y-67506884D01*
X125214493Y-67506884D01*
X125181768Y-67506518D01*
X125110348Y-67492656D01*
X125081697Y-67439253D01*
X125076450Y-67320110D01*
X125075589Y-67279691D01*
X125060645Y-67182486D01*
X125030435Y-67161775D01*
X125026376Y-67164899D01*
X124996613Y-67233935D01*
X124984421Y-67348549D01*
X124979297Y-67439807D01*
X124947489Y-67494653D01*
X124868910Y-67506884D01*
X124814534Y-67504021D01*
X124780051Y-67483110D01*
X124763725Y-67425669D01*
X124760514Y-67313215D01*
X124765378Y-67127264D01*
X124772360Y-66905980D01*
X124984421Y-66905980D01*
X124986176Y-66918890D01*
X125030435Y-66977717D01*
X125054142Y-66982046D01*
X125076450Y-66934418D01*
X125070818Y-66900135D01*
X125030435Y-66862681D01*
X125019518Y-66863920D01*
X124984421Y-66905980D01*
X124772360Y-66905980D01*
X124777355Y-66747645D01*
X125064946Y-66733945D01*
X125352537Y-66720246D01*
X125352537Y-66934418D01*
X125352537Y-67113565D01*
G37*
G36*
X124147884Y-67194458D02*
G01*
X124159792Y-67313587D01*
X124159809Y-67314130D01*
X124169214Y-67384556D01*
X124186634Y-67380344D01*
X124213447Y-67349126D01*
X124298038Y-67322826D01*
X124348151Y-67310518D01*
X124386232Y-67253804D01*
X124378215Y-67221615D01*
X124317210Y-67184782D01*
X124276960Y-67167701D01*
X124248189Y-67092753D01*
X124260999Y-67039086D01*
X124317210Y-67000724D01*
X124349399Y-66992707D01*
X124386232Y-66931703D01*
X124369151Y-66891452D01*
X124294203Y-66862681D01*
X124240536Y-66849870D01*
X124202174Y-66793659D01*
X124224056Y-66752578D01*
X124302632Y-66730834D01*
X124455254Y-66724637D01*
X124708334Y-66724637D01*
X124708334Y-67085084D01*
X124708144Y-67125662D01*
X124703045Y-67293482D01*
X124692405Y-67418353D01*
X124678121Y-67475743D01*
X124672385Y-67479139D01*
X124597743Y-67492109D01*
X124461114Y-67500310D01*
X124286998Y-67502093D01*
X124169612Y-67499641D01*
X124024509Y-67488985D01*
X123948240Y-67467881D01*
X123926087Y-67433535D01*
X123918120Y-67403452D01*
X123857066Y-67368840D01*
X123824877Y-67376857D01*
X123788044Y-67437862D01*
X123756799Y-67487731D01*
X123645077Y-67506884D01*
X123544902Y-67493251D01*
X123523984Y-67449366D01*
X123525097Y-67446240D01*
X123544634Y-67368008D01*
X123573298Y-67229395D01*
X123596404Y-67105814D01*
X123840788Y-67105814D01*
X123849890Y-67197162D01*
X123851724Y-67201264D01*
X123866129Y-67194345D01*
X123871102Y-67115761D01*
X123870799Y-67101471D01*
X123862832Y-67040353D01*
X123848185Y-67059118D01*
X123840788Y-67105814D01*
X123596404Y-67105814D01*
X123605299Y-67058242D01*
X123664739Y-66724637D01*
X123860622Y-66724637D01*
X124056505Y-66724637D01*
X124106332Y-66956975D01*
X124121860Y-67034623D01*
X124135071Y-67115761D01*
X124147884Y-67194458D01*
G37*
G36*
X123240321Y-66724980D02*
G01*
X123422095Y-66729447D01*
X123533221Y-66740877D01*
X123588814Y-66761529D01*
X123603986Y-66793659D01*
X123595969Y-66825848D01*
X123534964Y-66862681D01*
X123521572Y-66864217D01*
X123487945Y-66897915D01*
X123470763Y-66988800D01*
X123465942Y-67154106D01*
X123462093Y-67294551D01*
X123450232Y-67418298D01*
X123433154Y-67478320D01*
X123384119Y-67496265D01*
X123283606Y-67497493D01*
X123265219Y-67495127D01*
X123210195Y-67478076D01*
X123178905Y-67432961D01*
X123162777Y-67338467D01*
X123153242Y-67173279D01*
X123151983Y-67146389D01*
X123137556Y-66979749D01*
X123112974Y-66889692D01*
X123074819Y-66862681D01*
X123069191Y-66863072D01*
X123032919Y-66897223D01*
X123009794Y-66996113D01*
X122996396Y-67173279D01*
X122982790Y-67483877D01*
X122844747Y-67483877D01*
X122706703Y-67483877D01*
X122693339Y-67104257D01*
X122679974Y-66724637D01*
X123141980Y-66724637D01*
X123240321Y-66724980D01*
G37*
G36*
X122632398Y-67239945D02*
G01*
X122612566Y-67376996D01*
X122582464Y-67451666D01*
X122569424Y-67461821D01*
X122470102Y-67493400D01*
X122330150Y-67504917D01*
X122189655Y-67495387D01*
X122088708Y-67463821D01*
X122065633Y-67437820D01*
X122026872Y-67325314D01*
X122003025Y-67147582D01*
X121999478Y-67090038D01*
X122269566Y-67090038D01*
X122272278Y-67168440D01*
X122288882Y-67286864D01*
X122315580Y-67345833D01*
X122333699Y-67341604D01*
X122354265Y-67267303D01*
X122361595Y-67118476D01*
X122357376Y-67011796D01*
X122340663Y-66904309D01*
X122315580Y-66862681D01*
X122299312Y-66877440D01*
X122277936Y-66959687D01*
X122269566Y-67090038D01*
X121999478Y-67090038D01*
X121998041Y-67066727D01*
X121999815Y-66932927D01*
X122025133Y-66846139D01*
X122080350Y-66775809D01*
X122211090Y-66697842D01*
X122375894Y-66686280D01*
X122535414Y-66750254D01*
X122570414Y-66778296D01*
X122612910Y-66841813D01*
X122632770Y-66943110D01*
X122637681Y-67109167D01*
X122637305Y-67118476D01*
X122632398Y-67239945D01*
G37*
G36*
X121887688Y-66728143D02*
G01*
X121922035Y-66750785D01*
X121939804Y-66810787D01*
X121946460Y-66926371D01*
X121947464Y-67115761D01*
X121946438Y-67303663D01*
X121939780Y-67419903D01*
X121922131Y-67480372D01*
X121888134Y-67503293D01*
X121832428Y-67506884D01*
X121812638Y-67506589D01*
X121749562Y-67491357D01*
X121721777Y-67434678D01*
X121714003Y-67311322D01*
X121710615Y-67115761D01*
X121635472Y-67311322D01*
X121594454Y-67405238D01*
X121532675Y-67484817D01*
X121454803Y-67506884D01*
X121409264Y-67503587D01*
X121375660Y-67481025D01*
X121357731Y-67420989D01*
X121350572Y-67305295D01*
X121349276Y-67115761D01*
X121350302Y-66927858D01*
X121356960Y-66811618D01*
X121374608Y-66751149D01*
X121408606Y-66728228D01*
X121464312Y-66724637D01*
X121523457Y-66729813D01*
X121569438Y-66770193D01*
X121581149Y-66874184D01*
X121582950Y-67023732D01*
X121647950Y-66874184D01*
X121662554Y-66842652D01*
X121732997Y-66750616D01*
X121830207Y-66724637D01*
X121831300Y-66724637D01*
X121887688Y-66728143D01*
G37*
G36*
X120888786Y-66984401D02*
G01*
X120868402Y-67131565D01*
X120809026Y-67208558D01*
X120700150Y-67230797D01*
X120689048Y-67230896D01*
X120595510Y-67250469D01*
X120570662Y-67311322D01*
X120577247Y-67350470D01*
X120597504Y-67334329D01*
X120603627Y-67323616D01*
X120669237Y-67287382D01*
X120765045Y-67277681D01*
X120851521Y-67294201D01*
X120889131Y-67336630D01*
X120882990Y-67370105D01*
X120833913Y-67451666D01*
X120816517Y-67464052D01*
X120717574Y-67494640D01*
X120582453Y-67506884D01*
X120532573Y-67505594D01*
X120411280Y-67480078D01*
X120337502Y-67410120D01*
X120300851Y-67280345D01*
X120290942Y-67075380D01*
X120291114Y-67041837D01*
X120299359Y-66917825D01*
X120573048Y-66917825D01*
X120579541Y-67035235D01*
X120586375Y-67062668D01*
X120604134Y-67091652D01*
X120633853Y-67035235D01*
X120646636Y-66984244D01*
X120633853Y-66874184D01*
X120621640Y-66846752D01*
X120598197Y-66817768D01*
X120579541Y-66874184D01*
X120573048Y-66917825D01*
X120299359Y-66917825D01*
X120300705Y-66897581D01*
X120331655Y-66810183D01*
X120393210Y-66750254D01*
X120480158Y-66704626D01*
X120590037Y-66678623D01*
X120596805Y-66678702D01*
X120741516Y-66719801D01*
X120847804Y-66819550D01*
X120889131Y-66953556D01*
X120888788Y-66984244D01*
X120888786Y-66984401D01*
G37*
G36*
X120174911Y-67340463D02*
G01*
X120124236Y-67436945D01*
X120033789Y-67486674D01*
X119861118Y-67497749D01*
X119776916Y-67487691D01*
X119672831Y-67446046D01*
X119602190Y-67357337D01*
X119566471Y-67285565D01*
X119563139Y-67253804D01*
X119830797Y-67253804D01*
X119842222Y-67329462D01*
X119876812Y-67368840D01*
X119907075Y-67340280D01*
X119922826Y-67253804D01*
X119911402Y-67178146D01*
X119876812Y-67138768D01*
X119846549Y-67167329D01*
X119830797Y-67253804D01*
X119563139Y-67253804D01*
X119557941Y-67204248D01*
X119603283Y-67104257D01*
X119681345Y-67011424D01*
X119798844Y-66979531D01*
X119811629Y-66979568D01*
X119898610Y-66959098D01*
X119922826Y-66889803D01*
X119922806Y-66884938D01*
X119910726Y-66828471D01*
X119867609Y-66853478D01*
X119815883Y-66885345D01*
X119722309Y-66906507D01*
X119637611Y-66900397D01*
X119600725Y-66865290D01*
X119615995Y-66827726D01*
X119691127Y-66759675D01*
X119797579Y-66702582D01*
X119899819Y-66678623D01*
X119983635Y-66695142D01*
X120096646Y-66750254D01*
X120121975Y-66769660D01*
X120170333Y-66832427D01*
X120193172Y-66930516D01*
X120198913Y-67092076D01*
X120197247Y-67173665D01*
X120186516Y-67253804D01*
X120174911Y-67340463D01*
G37*
G36*
X129378805Y-64091403D02*
G01*
X129378805Y-66287500D01*
X124754348Y-66312857D01*
X123950327Y-66317231D01*
X123158387Y-66321434D01*
X122449616Y-66325045D01*
X121819395Y-66328056D01*
X121263105Y-66330460D01*
X120776127Y-66332248D01*
X120353842Y-66333414D01*
X119991631Y-66333950D01*
X119684875Y-66333848D01*
X119428955Y-66333102D01*
X119219253Y-66331703D01*
X119051149Y-66329645D01*
X118920024Y-66326920D01*
X118821260Y-66323520D01*
X118750237Y-66319437D01*
X118702337Y-66314666D01*
X118672940Y-66309197D01*
X118657428Y-66303024D01*
X118656564Y-66302248D01*
X118645113Y-66242136D01*
X118635870Y-66092050D01*
X118632822Y-65988405D01*
X119048551Y-65988405D01*
X121188225Y-65988405D01*
X123327899Y-65988405D01*
X123335392Y-65516757D01*
X123337662Y-65375496D01*
X123342921Y-65045185D01*
X123346052Y-64791691D01*
X123346192Y-64603860D01*
X123342478Y-64470538D01*
X123334046Y-64380573D01*
X123320033Y-64322811D01*
X123299574Y-64286098D01*
X123271808Y-64259280D01*
X123235870Y-64231205D01*
X123181169Y-64185200D01*
X123062412Y-64081383D01*
X122910223Y-63945728D01*
X122744347Y-63795729D01*
X122602907Y-63666594D01*
X122431698Y-63512313D01*
X122301831Y-63404632D01*
X122196248Y-63335219D01*
X122097893Y-63295738D01*
X121989709Y-63277855D01*
X121854638Y-63273238D01*
X121675623Y-63273550D01*
X121211232Y-63273550D01*
X121211232Y-64584963D01*
X121211232Y-65896377D01*
X120889131Y-65896377D01*
X120567029Y-65896377D01*
X120567029Y-64584963D01*
X120567029Y-63273550D01*
X120203836Y-63273550D01*
X120018714Y-63276781D01*
X119890155Y-63294844D01*
X119819964Y-63339522D01*
X119790666Y-63422585D01*
X119784783Y-63555805D01*
X119781244Y-63632189D01*
X119755218Y-63672801D01*
X119683580Y-63684348D01*
X119543207Y-63678582D01*
X119301631Y-63664674D01*
X119301631Y-63158514D01*
X119301631Y-62652355D01*
X120923625Y-62640263D01*
X122545619Y-62628170D01*
X122959766Y-63036056D01*
X123373913Y-63443942D01*
X123373913Y-63818891D01*
X123374332Y-63877124D01*
X123380511Y-64038408D01*
X123392536Y-64150578D01*
X123408424Y-64192185D01*
X123411629Y-64191714D01*
X123472107Y-64158235D01*
X123472598Y-64157857D01*
X124311099Y-64157857D01*
X124373114Y-64226737D01*
X124404010Y-64256721D01*
X124449153Y-64284241D01*
X124501551Y-64274361D01*
X124582467Y-64220048D01*
X124713164Y-64114270D01*
X124869748Y-63985097D01*
X124984320Y-63886233D01*
X125046182Y-63820762D01*
X125064742Y-63775221D01*
X125049409Y-63736145D01*
X125009592Y-63690072D01*
X124988873Y-63667567D01*
X124945111Y-63633712D01*
X124896366Y-63638476D01*
X124820997Y-63688938D01*
X124697361Y-63792173D01*
X124584318Y-63887817D01*
X124459650Y-63991890D01*
X124375079Y-64060856D01*
X124314686Y-64113590D01*
X124311099Y-64157857D01*
X123472598Y-64157857D01*
X123562408Y-64088653D01*
X123657701Y-64008768D01*
X123828202Y-63868733D01*
X124028038Y-63706668D01*
X124232772Y-63542268D01*
X124417966Y-63395230D01*
X124559185Y-63285250D01*
X124637246Y-63228374D01*
X124748227Y-63168485D01*
X124869736Y-63141937D01*
X125042337Y-63136216D01*
X125329529Y-63136925D01*
X125536595Y-63437286D01*
X125659630Y-63614494D01*
X125772375Y-63775221D01*
X125808350Y-63826507D01*
X125939221Y-64011033D01*
X125946520Y-64021294D01*
X126041646Y-64166696D01*
X126109132Y-64290938D01*
X126134783Y-64368097D01*
X126117788Y-64416787D01*
X126047464Y-64527167D01*
X125920871Y-64694619D01*
X125736152Y-64921479D01*
X125491447Y-65210084D01*
X125184900Y-65562771D01*
X124932684Y-65850362D01*
X125299108Y-65850362D01*
X125665532Y-65850362D01*
X125911661Y-65563249D01*
X125930549Y-65541228D01*
X126065387Y-65384608D01*
X126190212Y-65240492D01*
X126280147Y-65137615D01*
X126290902Y-65125411D01*
X126400505Y-64998824D01*
X126497185Y-64884058D01*
X126591866Y-64769021D01*
X126593397Y-65309692D01*
X126594928Y-65850362D01*
X127354167Y-65850362D01*
X128113406Y-65850362D01*
X128113406Y-65620290D01*
X128113406Y-65390217D01*
X127653261Y-65390217D01*
X127193116Y-65390217D01*
X127193116Y-64268496D01*
X127193512Y-64017335D01*
X127195860Y-63709062D01*
X127200805Y-63475974D01*
X127208904Y-63307957D01*
X127220712Y-63194897D01*
X127236785Y-63126681D01*
X127257678Y-63093194D01*
X127326097Y-63068027D01*
X127481216Y-63052478D01*
X127706320Y-63053049D01*
X128090399Y-63066485D01*
X128104307Y-63308061D01*
X128118216Y-63549637D01*
X128345883Y-63549637D01*
X128573551Y-63549637D01*
X128573551Y-63089492D01*
X128573551Y-62629348D01*
X127584239Y-62629348D01*
X126594928Y-62629348D01*
X126593101Y-63216032D01*
X126591274Y-63802717D01*
X126389938Y-63584007D01*
X126354987Y-63544768D01*
X126224387Y-63384759D01*
X126078594Y-63191237D01*
X125943124Y-62997686D01*
X125697645Y-62630076D01*
X125017611Y-62629712D01*
X124337576Y-62629348D01*
X123867248Y-63017898D01*
X123396921Y-63406449D01*
X123384081Y-62810833D01*
X123371242Y-62215217D01*
X121240005Y-62215217D01*
X119108768Y-62215217D01*
X119078846Y-62801902D01*
X119071837Y-62975427D01*
X119064402Y-63246644D01*
X119058060Y-63573270D01*
X119053126Y-63935594D01*
X119049913Y-64313907D01*
X119048738Y-64688496D01*
X119048551Y-65988405D01*
X118632822Y-65988405D01*
X118628866Y-65853890D01*
X118624127Y-65529555D01*
X118621682Y-65120944D01*
X118621561Y-64629956D01*
X118623790Y-64058492D01*
X118636167Y-61843671D01*
X124007486Y-61869489D01*
X129378805Y-61895307D01*
X129378805Y-62629348D01*
X129378805Y-64091403D01*
G37*
G36*
X122430474Y-63779569D02*
G01*
X122497434Y-63847045D01*
X122616599Y-63973588D01*
X122698963Y-64070145D01*
X122729710Y-64119866D01*
X122712332Y-64166738D01*
X122653220Y-64248108D01*
X122631144Y-64273488D01*
X122602708Y-64300580D01*
X122570518Y-64305207D01*
X122521597Y-64279601D01*
X122442968Y-64215996D01*
X122321655Y-64106622D01*
X122144679Y-63943714D01*
X121897635Y-63716594D01*
X122014436Y-63599793D01*
X122131237Y-63482992D01*
X122430474Y-63779569D01*
G37*
G36*
X142435687Y-66212120D02*
G01*
X142448881Y-66217766D01*
X142504867Y-66245869D01*
X142560746Y-66279525D01*
X142609980Y-66314548D01*
X142646029Y-66346752D01*
X142657005Y-66360842D01*
X142667639Y-66380749D01*
X142677992Y-66408345D01*
X142688798Y-66446224D01*
X142700793Y-66496978D01*
X142714713Y-66563201D01*
X142731292Y-66647485D01*
X142732830Y-66655478D01*
X142753298Y-66764901D01*
X142772137Y-66871143D01*
X142789034Y-66972036D01*
X142803675Y-67065413D01*
X142815745Y-67149107D01*
X142824932Y-67220952D01*
X142830922Y-67278779D01*
X142833402Y-67320423D01*
X142832057Y-67343715D01*
X142825506Y-67358164D01*
X142811350Y-67373276D01*
X142788636Y-67388285D01*
X142756154Y-67403527D01*
X142712692Y-67419337D01*
X142657036Y-67436049D01*
X142587975Y-67454000D01*
X142504297Y-67473524D01*
X142404790Y-67494957D01*
X142288242Y-67518633D01*
X142153441Y-67544889D01*
X141999174Y-67574058D01*
X141956939Y-67581981D01*
X141844943Y-67603231D01*
X141733435Y-67624711D01*
X141624646Y-67645971D01*
X141520809Y-67666557D01*
X141424155Y-67686018D01*
X141336918Y-67703903D01*
X141261328Y-67719759D01*
X141199619Y-67733134D01*
X141154023Y-67743578D01*
X141126770Y-67750638D01*
X141117469Y-67754004D01*
X141084108Y-67770550D01*
X141043825Y-67794913D01*
X141003375Y-67823125D01*
X140993851Y-67830167D01*
X140950621Y-67859498D01*
X140898683Y-67890727D01*
X140836228Y-67924777D01*
X140761445Y-67962568D01*
X140672525Y-68005025D01*
X140567658Y-68053068D01*
X140445033Y-68107620D01*
X140347430Y-68150231D01*
X140229900Y-68200818D01*
X140107016Y-68253036D01*
X139980824Y-68306057D01*
X139853372Y-68359052D01*
X139726707Y-68411191D01*
X139602874Y-68461645D01*
X139483921Y-68509586D01*
X139371896Y-68554184D01*
X139268844Y-68594611D01*
X139176813Y-68630037D01*
X139097849Y-68659634D01*
X139033999Y-68682572D01*
X138987311Y-68698023D01*
X138857974Y-68732389D01*
X138728675Y-68754671D01*
X138689047Y-68757960D01*
X138632593Y-68759151D01*
X138564437Y-68757300D01*
X138483095Y-68752293D01*
X138387086Y-68744015D01*
X138274927Y-68732354D01*
X138145136Y-68717195D01*
X137996230Y-68698424D01*
X137941865Y-68691265D01*
X137811488Y-68672892D01*
X137695539Y-68654303D01*
X137589338Y-68634416D01*
X137488202Y-68612150D01*
X137387449Y-68586423D01*
X137282397Y-68556153D01*
X137168365Y-68520258D01*
X137040670Y-68477658D01*
X136955799Y-68447902D01*
X136852787Y-68408432D01*
X136761813Y-68368716D01*
X136677926Y-68326382D01*
X136596171Y-68279059D01*
X136511597Y-68224377D01*
X136474618Y-68198996D01*
X136291543Y-68061040D01*
X136112647Y-67906054D01*
X135941487Y-67737289D01*
X135781624Y-67557992D01*
X135750457Y-67520395D01*
X135669691Y-67420157D01*
X135603392Y-67332852D01*
X135551016Y-67257394D01*
X135512020Y-67192696D01*
X135485859Y-67137672D01*
X135471990Y-67091235D01*
X135469870Y-67052299D01*
X135478954Y-67019776D01*
X135498698Y-66992581D01*
X135515585Y-66977290D01*
X135545022Y-66959651D01*
X135576220Y-66954355D01*
X135611567Y-66962097D01*
X135653452Y-66983574D01*
X135704265Y-67019480D01*
X135766394Y-67070511D01*
X135806591Y-67103474D01*
X135876893Y-67156794D01*
X135960057Y-67216066D01*
X136052756Y-67279087D01*
X136151666Y-67343658D01*
X136253462Y-67407575D01*
X136354818Y-67468639D01*
X136452408Y-67524647D01*
X136475582Y-67536917D01*
X136506656Y-67551430D01*
X136542295Y-67565839D01*
X136584094Y-67580573D01*
X136633646Y-67596063D01*
X136692546Y-67612738D01*
X136762388Y-67631029D01*
X136844766Y-67651366D01*
X136941274Y-67674178D01*
X137053506Y-67699895D01*
X137183056Y-67728948D01*
X137331518Y-67761766D01*
X137364354Y-67768981D01*
X137464832Y-67790938D01*
X137548127Y-67808822D01*
X137616745Y-67823048D01*
X137673193Y-67834028D01*
X137719978Y-67842175D01*
X137759605Y-67847901D01*
X137794580Y-67851621D01*
X137827410Y-67853746D01*
X137860602Y-67854690D01*
X137896661Y-67854865D01*
X137911481Y-67854817D01*
X137962159Y-67853914D01*
X138000819Y-67850966D01*
X138034635Y-67844760D01*
X138070783Y-67834085D01*
X138116438Y-67817728D01*
X138181745Y-67793563D01*
X138278695Y-67758116D01*
X138360759Y-67728778D01*
X138430822Y-67704562D01*
X138491770Y-67684479D01*
X138546486Y-67667541D01*
X138597856Y-67652759D01*
X138640817Y-67640851D01*
X138694289Y-67626016D01*
X138741122Y-67613008D01*
X138774549Y-67603705D01*
X138797999Y-67596083D01*
X138817709Y-67586614D01*
X138821645Y-67579630D01*
X138821166Y-67579239D01*
X138811548Y-67575169D01*
X138792029Y-67570357D01*
X138761616Y-67564674D01*
X138719316Y-67557995D01*
X138664137Y-67550191D01*
X138595086Y-67541138D01*
X138511170Y-67530707D01*
X138411396Y-67518772D01*
X138294771Y-67505207D01*
X138160304Y-67489883D01*
X138007000Y-67472676D01*
X137833867Y-67453456D01*
X137816116Y-67451490D01*
X137684710Y-67436591D01*
X137571977Y-67423048D01*
X137475976Y-67410506D01*
X137394763Y-67398610D01*
X137326396Y-67387005D01*
X137268932Y-67375334D01*
X137220430Y-67363243D01*
X137178946Y-67350377D01*
X137142539Y-67336379D01*
X137109266Y-67320895D01*
X137091541Y-67311207D01*
X137040442Y-67271749D01*
X137006858Y-67225033D01*
X136991917Y-67173091D01*
X136996748Y-67117959D01*
X136997633Y-67114770D01*
X137005651Y-67093623D01*
X137018141Y-67075639D01*
X137037718Y-67059348D01*
X137066994Y-67043281D01*
X137108584Y-67025971D01*
X137165102Y-67005948D01*
X137239160Y-66981744D01*
X137300487Y-66962173D01*
X137380399Y-66937171D01*
X137447309Y-66917461D01*
X137505387Y-66902322D01*
X137558802Y-66891032D01*
X137611725Y-66882870D01*
X137668326Y-66877113D01*
X137732774Y-66873042D01*
X137809240Y-66869933D01*
X137901893Y-66867066D01*
X137920001Y-66866529D01*
X138015452Y-66863367D01*
X138093875Y-66859945D01*
X138158610Y-66855901D01*
X138212994Y-66850872D01*
X138260364Y-66844495D01*
X138304060Y-66836409D01*
X138347418Y-66826251D01*
X138393776Y-66813659D01*
X138506741Y-66780122D01*
X138683717Y-66721914D01*
X138852851Y-66659374D01*
X139009785Y-66594148D01*
X139150156Y-66527884D01*
X139273358Y-66468987D01*
X139493946Y-66380349D01*
X139719177Y-66310513D01*
X139947122Y-66259955D01*
X140175854Y-66229151D01*
X140403445Y-66218577D01*
X140478607Y-66219452D01*
X140607464Y-66226806D01*
X140724541Y-66242506D01*
X140835091Y-66267608D01*
X140944361Y-66303170D01*
X141057603Y-66350246D01*
X141157358Y-66395603D01*
X141277380Y-66374532D01*
X141315805Y-66367753D01*
X141373991Y-66357429D01*
X141444754Y-66344835D01*
X141523886Y-66330718D01*
X141607183Y-66315829D01*
X141690439Y-66300917D01*
X141754391Y-66289499D01*
X141847303Y-66273053D01*
X141941291Y-66256561D01*
X142030936Y-66240968D01*
X142110821Y-66227220D01*
X142175528Y-66216261D01*
X142367580Y-66184150D01*
X142435687Y-66212120D01*
G37*
G36*
X138214790Y-65885000D02*
G01*
X138074352Y-66023072D01*
X137919346Y-66146767D01*
X137750141Y-66255598D01*
X137567106Y-66349076D01*
X137370610Y-66426711D01*
X137327261Y-66440875D01*
X137190384Y-66477378D01*
X137041642Y-66505092D01*
X136878482Y-66524433D01*
X136698350Y-66535814D01*
X136698311Y-66535816D01*
X136659274Y-66537527D01*
X136627330Y-66539212D01*
X136609392Y-66540506D01*
X136604260Y-66540666D01*
X136580107Y-66540075D01*
X136541102Y-66538393D01*
X136491317Y-66535806D01*
X136434824Y-66532502D01*
X136359769Y-66526527D01*
X136156980Y-66496742D01*
X135958970Y-66447887D01*
X135767345Y-66380763D01*
X135583710Y-66296168D01*
X135409670Y-66194901D01*
X135246829Y-66077760D01*
X135096795Y-65945546D01*
X134961170Y-65799056D01*
X134953087Y-65789299D01*
X134841046Y-65639061D01*
X134744182Y-65478616D01*
X134662102Y-65306910D01*
X134594415Y-65122885D01*
X134540728Y-64925485D01*
X134500650Y-64713656D01*
X134473789Y-64486340D01*
X134465504Y-64338561D01*
X134467115Y-64216821D01*
X135103619Y-64216821D01*
X135103765Y-64276010D01*
X135105477Y-64350287D01*
X135107123Y-64397623D01*
X135113379Y-64498027D01*
X135123883Y-64587267D01*
X135139800Y-64672102D01*
X135162295Y-64759287D01*
X135192531Y-64855581D01*
X135199537Y-64876099D01*
X135269059Y-65045357D01*
X135355772Y-65202881D01*
X135460260Y-65349620D01*
X135583111Y-65486520D01*
X135666000Y-65563809D01*
X135789382Y-65661048D01*
X135918914Y-65744210D01*
X136051790Y-65811737D01*
X136185206Y-65862072D01*
X136316356Y-65893657D01*
X136348796Y-65897917D01*
X136405044Y-65902650D01*
X136472265Y-65906349D01*
X136545155Y-65908887D01*
X136618409Y-65910137D01*
X136686722Y-65909974D01*
X136744789Y-65908269D01*
X136787308Y-65904898D01*
X136801395Y-65902909D01*
X136854165Y-65893069D01*
X136911461Y-65879385D01*
X136970173Y-65862949D01*
X137027190Y-65844853D01*
X137079405Y-65826188D01*
X137123706Y-65808048D01*
X137156985Y-65791523D01*
X137176131Y-65777707D01*
X137178036Y-65767690D01*
X137175399Y-65765989D01*
X137158247Y-65761105D01*
X137125624Y-65755727D01*
X137076445Y-65749731D01*
X137009623Y-65742995D01*
X136924071Y-65735393D01*
X136818704Y-65726804D01*
X136757869Y-65721296D01*
X136603270Y-65699643D01*
X136463097Y-65667325D01*
X136334056Y-65623083D01*
X136212854Y-65565656D01*
X136096196Y-65493785D01*
X135980791Y-65406209D01*
X135947208Y-65377691D01*
X135814680Y-65248583D01*
X135698842Y-65107209D01*
X135600284Y-64954578D01*
X135519599Y-64791701D01*
X135457377Y-64619586D01*
X135414212Y-64439244D01*
X135404461Y-64371565D01*
X135396450Y-64279988D01*
X135391926Y-64179463D01*
X135390934Y-64075899D01*
X135393515Y-63975207D01*
X135399713Y-63883296D01*
X135409572Y-63806076D01*
X135425947Y-63727455D01*
X135463928Y-63596061D01*
X135517551Y-63451407D01*
X135586894Y-63293262D01*
X135587294Y-63292407D01*
X135622101Y-63216678D01*
X135647674Y-63157662D01*
X135664614Y-63113618D01*
X135673524Y-63082803D01*
X135675006Y-63063477D01*
X135669663Y-63053897D01*
X135661050Y-63053239D01*
X135638152Y-63064947D01*
X135605567Y-63091116D01*
X135565015Y-63130300D01*
X135518216Y-63181056D01*
X135496525Y-63206253D01*
X135389852Y-63348708D01*
X135298064Y-63504276D01*
X135222275Y-63670576D01*
X135163599Y-63845229D01*
X135123148Y-64025853D01*
X135115743Y-64071739D01*
X135109292Y-64120491D01*
X135105356Y-64166916D01*
X135103619Y-64216821D01*
X134467115Y-64216821D01*
X134467668Y-64175000D01*
X134482519Y-64012247D01*
X134510575Y-63847880D01*
X134552356Y-63679476D01*
X134608379Y-63504612D01*
X134679165Y-63320865D01*
X134765231Y-63125812D01*
X134855470Y-62942451D01*
X134983432Y-62708750D01*
X135128358Y-62469021D01*
X135289138Y-62224820D01*
X135464659Y-61977699D01*
X135653811Y-61729213D01*
X135855481Y-61480917D01*
X136068559Y-61234363D01*
X136291933Y-60991108D01*
X136351556Y-60928918D01*
X136434900Y-60844525D01*
X136517806Y-60763298D01*
X136598736Y-60686583D01*
X136676148Y-60615728D01*
X136748502Y-60552079D01*
X136814259Y-60496983D01*
X136871877Y-60451786D01*
X136919818Y-60417835D01*
X136956540Y-60396477D01*
X136980504Y-60389059D01*
X136981720Y-60391245D01*
X136983993Y-60409063D01*
X136985566Y-60440928D01*
X136986154Y-60482140D01*
X136988110Y-60563074D01*
X137001153Y-60719784D01*
X137025441Y-60885338D01*
X137059807Y-61054895D01*
X137103079Y-61223613D01*
X137154089Y-61386652D01*
X137211667Y-61539170D01*
X137274643Y-61676327D01*
X137333242Y-61782698D01*
X137415824Y-61913711D01*
X137514716Y-62053919D01*
X137630274Y-62203801D01*
X137762855Y-62363836D01*
X137912816Y-62534506D01*
X137973325Y-62601972D01*
X138062625Y-62702839D01*
X138144904Y-62797375D01*
X138218286Y-62883396D01*
X138280895Y-62958718D01*
X138330852Y-63021156D01*
X138388388Y-63097546D01*
X138493606Y-63253929D01*
X138580214Y-63408899D01*
X138649365Y-63564902D01*
X138702211Y-63724387D01*
X138739904Y-63889801D01*
X138746954Y-63941412D01*
X138752934Y-64009768D01*
X138757723Y-64090420D01*
X138761221Y-64179053D01*
X138763330Y-64271356D01*
X138763951Y-64363014D01*
X138762987Y-64449716D01*
X138760339Y-64527147D01*
X138755908Y-64590995D01*
X138730840Y-64782042D01*
X138685554Y-64996106D01*
X138623487Y-65198728D01*
X138545008Y-65389416D01*
X138450487Y-65567684D01*
X138340291Y-65733041D01*
X138311675Y-65767690D01*
X138214790Y-65885000D01*
G37*
%TD*%
M02*
