M48
; DRILL file {KiCad 9.0.7-9.0.7~ubuntu22.04.1} date 2026-01-25T16:59:00+0530
; FORMAT={-:-/ absolute / metric / decimal}
; #@! TF.CreationDate,2026-01-25T16:59:00+05:30
; #@! TF.GenerationSoftware,Kicad,Pcbnew,9.0.7-9.0.7~ubuntu22.04.1
; #@! TF.FileFunction,Plated,1,2,PTH
FMAT,2
METRIC
; #@! TA.AperFunction,Plated,PTH,ViaDrill
T1C0.300
; #@! TA.AperFunction,Plated,PTH,ComponentDrill
T2C0.500
; #@! TA.AperFunction,Plated,PTH,ComponentDrill
T3C0.800
; #@! TA.AperFunction,Plated,PTH,ComponentDrill
T4C1.000
; #@! TA.AperFunction,Plated,PTH,ComponentDrill
T5C1.100
; #@! TA.AperFunction,Plated,PTH,ComponentDrill
T6C1.300
; #@! TA.AperFunction,Plated,PTH,ComponentDrill
T7C1.980
; #@! TA.AperFunction,Plated,PTH,ComponentDrill
T8C2.100
; #@! TA.AperFunction,Plated,PTH,ComponentDrill
T9C3.200
%
G90
G05
T1
X131.75Y-51.0
X132.25Y-63.0
X133.75Y-51.0
X146.0Y-92.25
X146.7Y-88.0
T2
X89.85Y-32.1
X89.85Y-109.25
X90.553Y-30.403
X90.553Y-33.797
X90.553Y-107.553
X90.553Y-110.947
X92.25Y-29.7
X92.25Y-34.5
X92.25Y-106.85
X92.25Y-111.65
X93.947Y-30.403
X93.947Y-33.797
X93.947Y-107.553
X93.947Y-110.947
X94.65Y-32.1
X94.65Y-109.25
X139.35Y-33.1
X139.35Y-109.25
X140.053Y-31.403
X140.053Y-34.797
X140.053Y-107.553
X140.053Y-110.947
X141.75Y-30.7
X141.75Y-35.5
X141.75Y-106.85
X141.75Y-111.65
X143.447Y-31.403
X143.447Y-34.797
X143.447Y-107.553
X143.447Y-110.947
X144.15Y-33.1
X144.15Y-109.25
T3
X135.5Y-79.25
X139.5Y-71.75
T4
X97.42Y-80.0
X97.42Y-85.0
X126.5Y-45.5
X126.5Y-48.04
X126.5Y-75.0
X126.5Y-90.0
X129.04Y-45.5
X129.04Y-48.04
X131.58Y-45.5
X131.58Y-48.04
X134.12Y-45.5
X134.12Y-48.04
T5
X101.8Y-61.5
X112.0Y-61.5
T6
X100.75Y-109.5
X105.75Y-109.5
X124.0Y-109.0
X129.0Y-109.0
T7
X95.41Y-99.5
X103.03Y-99.5
X122.0Y-99.5
X129.62Y-99.5
T8
X98.0Y-48.8
X106.9Y-64.0
X115.8Y-38.7
X115.8Y-46.3
T9
X92.25Y-32.1
X92.25Y-109.25
X141.75Y-33.1
X141.75Y-109.25
M30
