%TF.GenerationSoftware,KiCad,Pcbnew,9.0.7-9.0.7~ubuntu22.04.1*%
%TF.CreationDate,2026-01-25T16:59:33+05:30*%
%TF.ProjectId,ESP01-MOTOR_CTRL - TWIN_NODE,45535030-312d-44d4-9f54-4f525f435452,rev?*%
%TF.SameCoordinates,Original*%
%TF.FileFunction,Copper,L2,Bot*%
%TF.FilePolarity,Positive*%
%FSLAX46Y46*%
G04 Gerber Fmt 4.6, Leading zero omitted, Abs format (unit mm)*
G04 Created by KiCad (PCBNEW 9.0.7-9.0.7~ubuntu22.04.1) date 2026-01-25 16:59:33*
%MOMM*%
%LPD*%
G01*
G04 APERTURE LIST*
G04 Aperture macros list*
%AMRoundRect*
0 Rectangle with rounded corners*
0 $1 Rounding radius*
0 $2 $3 $4 $5 $6 $7 $8 $9 X,Y pos of 4 corners*
0 Add a 4 corners polygon primitive as box body*
4,1,4,$2,$3,$4,$5,$6,$7,$8,$9,$2,$3,0*
0 Add four circle primitives for the rounded corners*
1,1,$1+$1,$2,$3*
1,1,$1+$1,$4,$5*
1,1,$1+$1,$6,$7*
1,1,$1+$1,$8,$9*
0 Add four rect primitives between the rounded corners*
20,1,$1+$1,$2,$3,$4,$5,0*
20,1,$1+$1,$4,$5,$6,$7,0*
20,1,$1+$1,$6,$7,$8,$9,0*
20,1,$1+$1,$8,$9,$2,$3,0*%
G04 Aperture macros list end*
%TA.AperFunction,ComponentPad*%
%ADD10C,1.650000*%
%TD*%
%TA.AperFunction,ComponentPad*%
%ADD11C,3.116000*%
%TD*%
%TA.AperFunction,ComponentPad*%
%ADD12C,0.800000*%
%TD*%
%TA.AperFunction,ComponentPad*%
%ADD13C,6.400000*%
%TD*%
%TA.AperFunction,ComponentPad*%
%ADD14RoundRect,0.250001X-1.149999X-1.149999X1.149999X-1.149999X1.149999X1.149999X-1.149999X1.149999X0*%
%TD*%
%TA.AperFunction,ComponentPad*%
%ADD15C,2.800000*%
%TD*%
%TA.AperFunction,ComponentPad*%
%ADD16RoundRect,0.750000X0.750000X0.750000X-0.750000X0.750000X-0.750000X-0.750000X0.750000X-0.750000X0*%
%TD*%
%TA.AperFunction,ComponentPad*%
%ADD17C,3.000000*%
%TD*%
%TA.AperFunction,ComponentPad*%
%ADD18C,1.800000*%
%TD*%
%TA.AperFunction,ComponentPad*%
%ADD19R,1.700000X1.700000*%
%TD*%
%TA.AperFunction,ComponentPad*%
%ADD20C,1.700000*%
%TD*%
%TA.AperFunction,ComponentPad*%
%ADD21O,1.700000X2.000000*%
%TD*%
%TA.AperFunction,ComponentPad*%
%ADD22RoundRect,0.250000X-0.600000X-0.750000X0.600000X-0.750000X0.600000X0.750000X-0.600000X0.750000X0*%
%TD*%
%TA.AperFunction,ViaPad*%
%ADD23C,0.600000*%
%TD*%
%TA.AperFunction,Conductor*%
%ADD24C,0.700000*%
%TD*%
%TA.AperFunction,Conductor*%
%ADD25C,0.400000*%
%TD*%
%TA.AperFunction,Conductor*%
%ADD26C,1.500000*%
%TD*%
G04 APERTURE END LIST*
D10*
%TO.P,K1,C1*%
%TO.N,/5V*%
X101800000Y-61500000D03*
%TO.P,K1,C2*%
%TO.N,Net-(D2-K)*%
X112000000Y-61500000D03*
D11*
%TO.P,K1,COM1*%
%TO.N,NEUTRAL*%
X106900000Y-64000000D03*
%TO.P,K1,COM2*%
X98000000Y-48800000D03*
%TO.P,K1,NC*%
%TO.N,unconnected-(K1-PadNC)*%
X115800000Y-38700000D03*
%TO.P,K1,NO*%
%TO.N,NEUTRAL_BREAK*%
X115800000Y-46300000D03*
%TD*%
D12*
%TO.P,H4,1*%
%TO.N,N/C*%
X139350000Y-109250000D03*
X140052944Y-107552944D03*
X140052944Y-110947056D03*
X141750000Y-106850000D03*
D13*
X141750000Y-109250000D03*
D12*
X141750000Y-111650000D03*
X143447056Y-107552944D03*
X143447056Y-110947056D03*
X144150000Y-109250000D03*
%TD*%
D14*
%TO.P,J3,1,Pin_1*%
%TO.N,NEUTRAL*%
X124000000Y-109000000D03*
D15*
%TO.P,J3,2,Pin_2*%
%TO.N,LIVE*%
X129000000Y-109000000D03*
%TD*%
D12*
%TO.P,H1,1*%
%TO.N,N/C*%
X89850000Y-32100000D03*
X90552944Y-30402944D03*
X90552944Y-33797056D03*
X92250000Y-29700000D03*
D13*
X92250000Y-32100000D03*
D12*
X92250000Y-34500000D03*
X93947056Y-30402944D03*
X93947056Y-33797056D03*
X94650000Y-32100000D03*
%TD*%
D16*
%TO.P,F1,1*%
%TO.N,LIVE*%
X129620000Y-99500000D03*
X122000000Y-99500000D03*
D17*
%TO.P,F1,2*%
%TO.N,FUSED_LIVE*%
X103030000Y-99500000D03*
X95410000Y-99500000D03*
%TD*%
D14*
%TO.P,J1,1,Pin_1*%
%TO.N,LIVE*%
X100750000Y-109500000D03*
D15*
%TO.P,J1,2,Pin_2*%
%TO.N,NEUTRAL_BREAK*%
X105750000Y-109500000D03*
%TD*%
D12*
%TO.P,H2,1*%
%TO.N,N/C*%
X139350000Y-33100000D03*
X140052944Y-31402944D03*
X140052944Y-34797056D03*
X141750000Y-30700000D03*
D13*
X141750000Y-33100000D03*
D12*
X141750000Y-35500000D03*
X143447056Y-31402944D03*
X143447056Y-34797056D03*
X144150000Y-33100000D03*
%TD*%
D18*
%TO.P,RV1,1*%
%TO.N,/5V*%
X135500000Y-79250000D03*
%TO.P,RV1,2*%
%TO.N,GND*%
X139500000Y-71750000D03*
%TD*%
D12*
%TO.P,H3,1*%
%TO.N,N/C*%
X89850000Y-109250000D03*
X90552944Y-107552944D03*
X90552944Y-110947056D03*
X92250000Y-106850000D03*
D13*
X92250000Y-109250000D03*
D12*
X92250000Y-111650000D03*
X93947056Y-107552944D03*
X93947056Y-110947056D03*
X94650000Y-109250000D03*
%TD*%
D19*
%TO.P,J2,1,Pin_1*%
%TO.N,GND*%
X134120000Y-48040000D03*
D20*
%TO.P,J2,2,Pin_2*%
%TO.N,TX*%
X134120000Y-45500000D03*
%TO.P,J2,3,Pin_3*%
%TO.N,GPIO2*%
X131580000Y-48040000D03*
%TO.P,J2,4,Pin_4*%
%TO.N,/3.3V*%
X131580000Y-45500000D03*
%TO.P,J2,5,Pin_5*%
%TO.N,GPIO0*%
X129040000Y-48040000D03*
%TO.P,J2,6,Pin_6*%
%TO.N,/RST*%
X129040000Y-45500000D03*
%TO.P,J2,7,Pin_7*%
%TO.N,RX*%
X126500000Y-48040000D03*
%TO.P,J2,8,Pin_8*%
%TO.N,/3.3V*%
X126500000Y-45500000D03*
%TD*%
D21*
%TO.P,PS1,4,+Vout*%
%TO.N,/5V*%
X126500000Y-90000000D03*
%TO.P,PS1,3,-Vout*%
%TO.N,GND*%
X126500000Y-75000000D03*
%TO.P,PS1,2,AC/N*%
%TO.N,NEUTRAL*%
X97420000Y-85000000D03*
D22*
%TO.P,PS1,1,AC/L*%
%TO.N,FUSED_LIVE*%
X97420000Y-80000000D03*
%TD*%
D23*
%TO.N,/3.3V*%
X133750000Y-51000000D03*
X131750000Y-51000000D03*
%TO.N,RX*%
X146000000Y-92250000D03*
%TO.N,TX*%
X146700000Y-88000000D03*
%TO.N,/RST*%
X132250000Y-63000000D03*
%TD*%
D24*
%TO.N,/3.3V*%
X131750000Y-51000000D02*
X133750000Y-51000000D01*
D25*
%TO.N,RX*%
X146000000Y-58625942D02*
X146000000Y-92250000D01*
X146198000Y-58427942D02*
X146000000Y-58625942D01*
X137061058Y-49291000D02*
X138385029Y-50614971D01*
X127751000Y-49291000D02*
X137061058Y-49291000D01*
X126500000Y-48040000D02*
X127751000Y-49291000D01*
X138385029Y-50614971D02*
X146198000Y-58427942D01*
%TO.N,TX*%
X146799000Y-58179000D02*
X146799000Y-88000000D01*
X134120000Y-45500000D02*
X146799000Y-58179000D01*
%TO.N,/RST*%
X132250000Y-63000000D02*
X129750000Y-63000000D01*
X129750000Y-63000000D02*
X123750000Y-57000000D01*
X123750000Y-57000000D02*
X123750000Y-48000000D01*
X123750000Y-48000000D02*
X124961000Y-46789000D01*
X124961000Y-46789000D02*
X127751000Y-46789000D01*
X127751000Y-46789000D02*
X129040000Y-45500000D01*
D24*
%TO.N,/5V*%
X135500000Y-79250000D02*
X135500000Y-81000000D01*
X135500000Y-81000000D02*
X126500000Y-90000000D01*
%TO.N,/3.3V*%
X126500000Y-45500000D02*
X127901000Y-44099000D01*
X127901000Y-44099000D02*
X130179000Y-44099000D01*
X130179000Y-44099000D02*
X131580000Y-45500000D01*
D26*
%TO.N,NEUTRAL*%
X97420000Y-85000000D02*
X106900000Y-75520000D01*
X106900000Y-75520000D02*
X106900000Y-64000000D01*
X97420000Y-85000000D02*
X100000000Y-85000000D01*
X100000000Y-85000000D02*
X124000000Y-109000000D01*
%TO.N,FUSED_LIVE*%
X97420000Y-80000000D02*
X93250000Y-84170000D01*
X93250000Y-84170000D02*
X93250000Y-97340000D01*
X93250000Y-97340000D02*
X95410000Y-99500000D01*
%TO.N,NEUTRAL*%
X106900000Y-64000000D02*
X106900000Y-57700000D01*
X106900000Y-57700000D02*
X98000000Y-48800000D01*
%TD*%
%TA.AperFunction,Conductor*%
%TO.N,GND*%
G36*
X142502702Y-28000617D02*
G01*
X142886771Y-28017386D01*
X142897506Y-28018326D01*
X143275971Y-28068152D01*
X143286597Y-28070025D01*
X143659284Y-28152648D01*
X143669710Y-28155442D01*
X144033765Y-28270227D01*
X144043911Y-28273920D01*
X144396578Y-28420000D01*
X144406369Y-28424566D01*
X144744942Y-28600816D01*
X144754309Y-28606223D01*
X144978221Y-28748871D01*
X145076244Y-28811318D01*
X145085105Y-28817523D01*
X145387930Y-29049889D01*
X145396217Y-29056843D01*
X145677635Y-29314715D01*
X145685284Y-29322364D01*
X145943156Y-29603782D01*
X145950110Y-29612069D01*
X146182476Y-29914894D01*
X146188681Y-29923755D01*
X146393775Y-30245689D01*
X146399183Y-30255057D01*
X146575430Y-30593623D01*
X146580002Y-30603427D01*
X146726075Y-30956078D01*
X146729775Y-30966244D01*
X146844554Y-31330278D01*
X146847354Y-31340727D01*
X146929971Y-31713389D01*
X146931849Y-31724042D01*
X146981671Y-32102473D01*
X146982614Y-32113249D01*
X146999382Y-32497297D01*
X146999500Y-32502706D01*
X146999500Y-57443034D01*
X146979815Y-57510073D01*
X146927011Y-57555828D01*
X146857853Y-57565772D01*
X146794297Y-57536747D01*
X146787819Y-57530715D01*
X135203333Y-45946230D01*
X135169848Y-45884907D01*
X135173083Y-45820231D01*
X135193402Y-45757701D01*
X135220500Y-45586611D01*
X135220500Y-45413389D01*
X135193402Y-45242299D01*
X135139873Y-45077555D01*
X135061232Y-44923212D01*
X134959414Y-44783072D01*
X134836928Y-44660586D01*
X134696788Y-44558768D01*
X134542445Y-44480127D01*
X134377701Y-44426598D01*
X134377699Y-44426597D01*
X134377698Y-44426597D01*
X134229801Y-44403173D01*
X134206611Y-44399500D01*
X134033389Y-44399500D01*
X134010199Y-44403173D01*
X133862302Y-44426597D01*
X133697552Y-44480128D01*
X133543211Y-44558768D01*
X133508754Y-44583803D01*
X133403072Y-44660586D01*
X133403070Y-44660588D01*
X133403069Y-44660588D01*
X133280588Y-44783069D01*
X133280588Y-44783070D01*
X133280586Y-44783072D01*
X133236859Y-44843256D01*
X133178768Y-44923211D01*
X133100128Y-45077552D01*
X133046597Y-45242302D01*
X133019500Y-45413389D01*
X133019500Y-45586610D01*
X133046597Y-45757697D01*
X133046597Y-45757699D01*
X133046598Y-45757701D01*
X133100127Y-45922445D01*
X133178768Y-46076788D01*
X133280586Y-46216928D01*
X133403072Y-46339414D01*
X133543212Y-46441232D01*
X133566213Y-46452951D01*
X133571244Y-46455515D01*
X133622040Y-46503490D01*
X133638835Y-46571311D01*
X133616297Y-46637446D01*
X133561582Y-46680897D01*
X133514949Y-46690000D01*
X133222155Y-46690000D01*
X133162627Y-46696401D01*
X133162620Y-46696403D01*
X133027913Y-46746645D01*
X133027906Y-46746649D01*
X132912812Y-46832809D01*
X132912809Y-46832812D01*
X132826649Y-46947906D01*
X132826645Y-46947913D01*
X132776403Y-47082620D01*
X132776401Y-47082627D01*
X132770000Y-47142155D01*
X132770000Y-47434949D01*
X132750315Y-47501988D01*
X132697511Y-47547743D01*
X132628353Y-47557687D01*
X132564797Y-47528662D01*
X132535515Y-47491244D01*
X132521231Y-47463211D01*
X132521229Y-47463208D01*
X132419414Y-47323072D01*
X132296928Y-47200586D01*
X132156788Y-47098768D01*
X132002445Y-47020127D01*
X131837701Y-46966598D01*
X131837699Y-46966597D01*
X131837698Y-46966597D01*
X131706271Y-46945781D01*
X131666611Y-46939500D01*
X131493389Y-46939500D01*
X131453728Y-46945781D01*
X131322302Y-46966597D01*
X131157552Y-47020128D01*
X131003211Y-47098768D01*
X130943495Y-47142155D01*
X130863072Y-47200586D01*
X130863070Y-47200588D01*
X130863069Y-47200588D01*
X130740588Y-47323069D01*
X130740588Y-47323070D01*
X130740586Y-47323072D01*
X130734846Y-47330973D01*
X130638768Y-47463211D01*
X130560128Y-47617552D01*
X130506597Y-47782302D01*
X130481511Y-47940691D01*
X130479500Y-47953389D01*
X130479500Y-48126611D01*
X130485739Y-48166000D01*
X130506597Y-48297697D01*
X130506597Y-48297699D01*
X130506598Y-48297701D01*
X130552866Y-48440099D01*
X130560128Y-48462447D01*
X130638767Y-48616787D01*
X130658259Y-48643615D01*
X130681738Y-48709422D01*
X130665912Y-48777475D01*
X130615806Y-48826170D01*
X130557940Y-48840500D01*
X130062060Y-48840500D01*
X129995021Y-48820815D01*
X129949266Y-48768011D01*
X129939322Y-48698853D01*
X129961741Y-48643615D01*
X129972491Y-48628819D01*
X129981232Y-48616788D01*
X130059873Y-48462445D01*
X130113402Y-48297701D01*
X130140500Y-48126611D01*
X130140500Y-47953389D01*
X130113402Y-47782299D01*
X130059873Y-47617555D01*
X129981232Y-47463212D01*
X129879414Y-47323072D01*
X129756928Y-47200586D01*
X129616788Y-47098768D01*
X129462445Y-47020127D01*
X129297701Y-46966598D01*
X129297699Y-46966597D01*
X129297698Y-46966597D01*
X129166271Y-46945781D01*
X129126611Y-46939500D01*
X128953389Y-46939500D01*
X128913728Y-46945781D01*
X128782302Y-46966597D01*
X128617552Y-47020128D01*
X128463207Y-47098770D01*
X128337979Y-47189753D01*
X128337969Y-47189762D01*
X128323072Y-47200586D01*
X128200586Y-47323072D01*
X128194849Y-47330967D01*
X128194844Y-47330973D01*
X128098770Y-47463208D01*
X128020128Y-47617552D01*
X127966597Y-47782302D01*
X127941511Y-47940691D01*
X127939500Y-47953389D01*
X127939500Y-48126611D01*
X127945739Y-48166000D01*
X127966597Y-48297697D01*
X127966597Y-48297699D01*
X127966598Y-48297701D01*
X128012866Y-48440099D01*
X128020128Y-48462447D01*
X128098767Y-48616787D01*
X128118259Y-48643615D01*
X128122490Y-48655475D01*
X128130734Y-48664989D01*
X128134007Y-48687754D01*
X128141738Y-48709422D01*
X128138886Y-48721685D01*
X128140678Y-48734147D01*
X128131121Y-48755071D01*
X128125912Y-48777475D01*
X128116883Y-48786248D01*
X128111653Y-48797703D01*
X128092300Y-48810139D01*
X128075806Y-48826170D01*
X128062060Y-48829573D01*
X128052875Y-48835477D01*
X128017940Y-48840500D01*
X127988965Y-48840500D01*
X127921926Y-48820815D01*
X127901284Y-48804181D01*
X127583333Y-48486230D01*
X127549848Y-48424907D01*
X127553083Y-48360231D01*
X127573402Y-48297701D01*
X127600500Y-48126611D01*
X127600500Y-47953389D01*
X127573402Y-47782299D01*
X127519873Y-47617555D01*
X127441232Y-47463212D01*
X127421741Y-47436385D01*
X127398262Y-47370578D01*
X127414088Y-47302525D01*
X127464194Y-47253830D01*
X127522060Y-47239500D01*
X127810308Y-47239500D01*
X127810309Y-47239500D01*
X127900673Y-47215286D01*
X127924887Y-47208799D01*
X128027614Y-47149489D01*
X128593770Y-46583331D01*
X128655091Y-46549848D01*
X128719764Y-46553082D01*
X128782299Y-46573402D01*
X128953389Y-46600500D01*
X128953390Y-46600500D01*
X129126610Y-46600500D01*
X129126611Y-46600500D01*
X129297701Y-46573402D01*
X129462445Y-46519873D01*
X129616788Y-46441232D01*
X129756928Y-46339414D01*
X129879414Y-46216928D01*
X129981232Y-46076788D01*
X130059873Y-45922445D01*
X130113402Y-45757701D01*
X130140500Y-45586611D01*
X130140500Y-45413389D01*
X130113402Y-45242299D01*
X130099899Y-45200744D01*
X130099718Y-45194377D01*
X130096665Y-45188786D01*
X130098732Y-45159875D01*
X130097905Y-45130906D01*
X130101194Y-45125451D01*
X130101649Y-45119094D01*
X130119021Y-45095887D01*
X130133985Y-45071073D01*
X130139702Y-45068261D01*
X130143521Y-45063161D01*
X130170676Y-45053032D01*
X130196686Y-45040244D01*
X130203016Y-45040970D01*
X130208985Y-45038744D01*
X130237301Y-45044903D01*
X130266100Y-45048208D01*
X130272595Y-45052581D01*
X130277258Y-45053596D01*
X130305512Y-45074747D01*
X130457336Y-45226571D01*
X130490821Y-45287894D01*
X130492129Y-45333649D01*
X130479500Y-45413389D01*
X130479500Y-45586610D01*
X130506597Y-45757697D01*
X130506597Y-45757699D01*
X130506598Y-45757701D01*
X130560127Y-45922445D01*
X130638768Y-46076788D01*
X130740586Y-46216928D01*
X130863072Y-46339414D01*
X131003212Y-46441232D01*
X131157555Y-46519873D01*
X131322299Y-46573402D01*
X131493389Y-46600500D01*
X131493390Y-46600500D01*
X131666610Y-46600500D01*
X131666611Y-46600500D01*
X131837701Y-46573402D01*
X132002445Y-46519873D01*
X132156788Y-46441232D01*
X132296928Y-46339414D01*
X132419414Y-46216928D01*
X132521232Y-46076788D01*
X132599873Y-45922445D01*
X132653402Y-45757701D01*
X132680500Y-45586611D01*
X132680500Y-45413389D01*
X132653402Y-45242299D01*
X132599873Y-45077555D01*
X132521232Y-44923212D01*
X132419414Y-44783072D01*
X132296928Y-44660586D01*
X132156788Y-44558768D01*
X132002445Y-44480127D01*
X131837701Y-44426598D01*
X131837699Y-44426597D01*
X131837698Y-44426597D01*
X131689801Y-44403173D01*
X131666611Y-44399500D01*
X131493389Y-44399500D01*
X131413649Y-44412129D01*
X131344355Y-44403173D01*
X131306571Y-44377336D01*
X130666590Y-43737355D01*
X130666588Y-43737352D01*
X130547717Y-43618481D01*
X130547716Y-43618480D01*
X130460904Y-43568360D01*
X130460904Y-43568359D01*
X130460900Y-43568358D01*
X130410785Y-43539423D01*
X130258057Y-43498499D01*
X130099943Y-43498499D01*
X130092347Y-43498499D01*
X130092331Y-43498500D01*
X127980057Y-43498500D01*
X127821942Y-43498500D01*
X127669215Y-43539423D01*
X127669214Y-43539423D01*
X127669212Y-43539424D01*
X127669209Y-43539425D01*
X127619096Y-43568359D01*
X127619095Y-43568360D01*
X127575689Y-43593420D01*
X127532285Y-43618479D01*
X127532282Y-43618481D01*
X127420478Y-43730286D01*
X126773427Y-44377336D01*
X126712104Y-44410821D01*
X126666349Y-44412128D01*
X126586617Y-44399500D01*
X126586611Y-44399500D01*
X126413389Y-44399500D01*
X126390199Y-44403173D01*
X126242302Y-44426597D01*
X126077552Y-44480128D01*
X125923211Y-44558768D01*
X125888754Y-44583803D01*
X125783072Y-44660586D01*
X125783070Y-44660588D01*
X125783069Y-44660588D01*
X125660588Y-44783069D01*
X125660588Y-44783070D01*
X125660586Y-44783072D01*
X125616859Y-44843256D01*
X125558768Y-44923211D01*
X125480128Y-45077552D01*
X125426597Y-45242302D01*
X125399500Y-45413389D01*
X125399500Y-45586610D01*
X125426597Y-45757697D01*
X125426597Y-45757699D01*
X125426598Y-45757701D01*
X125426598Y-45757702D01*
X125480128Y-45922447D01*
X125558770Y-46076791D01*
X125605867Y-46141615D01*
X125629347Y-46207421D01*
X125613522Y-46275475D01*
X125563416Y-46324170D01*
X125505549Y-46338500D01*
X124901691Y-46338500D01*
X124815758Y-46361525D01*
X124787113Y-46369201D01*
X124684386Y-46428509D01*
X124684384Y-46428511D01*
X123389513Y-47723383D01*
X123389509Y-47723389D01*
X123330201Y-47826112D01*
X123330200Y-47826117D01*
X123299500Y-47940691D01*
X123299500Y-57059308D01*
X123323712Y-57149672D01*
X123330200Y-57173885D01*
X123330200Y-57173886D01*
X123330201Y-57173887D01*
X123389511Y-57276614D01*
X129473386Y-63360489D01*
X129473387Y-63360490D01*
X129473389Y-63360491D01*
X129532693Y-63394729D01*
X129532696Y-63394732D01*
X129566937Y-63414500D01*
X129576114Y-63419799D01*
X129690691Y-63450500D01*
X131896064Y-63450500D01*
X131958063Y-63467112D01*
X132037515Y-63512984D01*
X132177525Y-63550500D01*
X132177528Y-63550500D01*
X132322472Y-63550500D01*
X132322475Y-63550500D01*
X132462485Y-63512984D01*
X132588015Y-63440509D01*
X132690509Y-63338015D01*
X132762984Y-63212485D01*
X132800500Y-63072475D01*
X132800500Y-62927525D01*
X132762984Y-62787515D01*
X132690509Y-62661985D01*
X132588015Y-62559491D01*
X132588013Y-62559490D01*
X132588011Y-62559488D01*
X132462488Y-62487017D01*
X132462489Y-62487017D01*
X132451006Y-62483940D01*
X132322475Y-62449500D01*
X132177525Y-62449500D01*
X132037515Y-62487016D01*
X131958063Y-62532887D01*
X131896064Y-62549500D01*
X129987965Y-62549500D01*
X129920926Y-62529815D01*
X129900284Y-62513181D01*
X124236819Y-56849716D01*
X124203334Y-56788393D01*
X124200500Y-56762035D01*
X124200500Y-50920943D01*
X131149500Y-50920943D01*
X131149500Y-51079056D01*
X131190423Y-51231783D01*
X131190426Y-51231790D01*
X131269475Y-51368709D01*
X131269479Y-51368714D01*
X131269480Y-51368716D01*
X131381284Y-51480520D01*
X131381286Y-51480521D01*
X131381290Y-51480524D01*
X131518209Y-51559573D01*
X131518216Y-51559577D01*
X131670943Y-51600500D01*
X131670945Y-51600500D01*
X133829055Y-51600500D01*
X133829057Y-51600500D01*
X133981784Y-51559577D01*
X134118716Y-51480520D01*
X134230520Y-51368716D01*
X134309577Y-51231784D01*
X134350500Y-51079057D01*
X134350500Y-50920943D01*
X134309577Y-50768216D01*
X134309573Y-50768209D01*
X134230524Y-50631290D01*
X134230518Y-50631282D01*
X134118717Y-50519481D01*
X134118709Y-50519475D01*
X133981790Y-50440426D01*
X133981786Y-50440424D01*
X133981784Y-50440423D01*
X133829057Y-50399500D01*
X131670943Y-50399500D01*
X131518216Y-50440423D01*
X131518209Y-50440426D01*
X131381290Y-50519475D01*
X131381282Y-50519481D01*
X131269481Y-50631282D01*
X131269475Y-50631290D01*
X131190426Y-50768209D01*
X131190423Y-50768216D01*
X131149500Y-50920943D01*
X124200500Y-50920943D01*
X124200500Y-48237965D01*
X124220185Y-48170926D01*
X124236819Y-48150284D01*
X125111285Y-47275819D01*
X125172608Y-47242334D01*
X125198966Y-47239500D01*
X125477940Y-47239500D01*
X125544979Y-47259185D01*
X125590734Y-47311989D01*
X125600678Y-47381147D01*
X125578259Y-47436385D01*
X125558767Y-47463212D01*
X125480128Y-47617552D01*
X125426597Y-47782302D01*
X125401511Y-47940691D01*
X125399500Y-47953389D01*
X125399500Y-48126611D01*
X125405739Y-48166000D01*
X125426597Y-48297697D01*
X125426597Y-48297699D01*
X125426598Y-48297701D01*
X125480127Y-48462445D01*
X125558768Y-48616788D01*
X125660586Y-48756928D01*
X125783072Y-48879414D01*
X125923212Y-48981232D01*
X126077555Y-49059873D01*
X126242299Y-49113402D01*
X126413389Y-49140500D01*
X126413390Y-49140500D01*
X126586610Y-49140500D01*
X126586611Y-49140500D01*
X126757701Y-49113402D01*
X126820231Y-49093083D01*
X126890070Y-49091087D01*
X126946230Y-49123333D01*
X127474386Y-49651489D01*
X127577113Y-49710799D01*
X127601321Y-49717284D01*
X127601324Y-49717286D01*
X127601325Y-49717286D01*
X127631447Y-49725357D01*
X127691691Y-49741500D01*
X136823093Y-49741500D01*
X136890132Y-49761185D01*
X136910774Y-49777819D01*
X138115480Y-50982526D01*
X138115486Y-50982531D01*
X145530594Y-58397639D01*
X145564079Y-58458962D01*
X145562688Y-58517412D01*
X145549500Y-58566631D01*
X145549500Y-91896063D01*
X145532887Y-91958062D01*
X145487019Y-92037508D01*
X145487016Y-92037513D01*
X145468258Y-92107520D01*
X145449500Y-92177525D01*
X145449500Y-92322475D01*
X145487016Y-92462485D01*
X145487017Y-92462488D01*
X145559488Y-92588011D01*
X145559490Y-92588013D01*
X145559491Y-92588015D01*
X145661985Y-92690509D01*
X145661986Y-92690510D01*
X145661988Y-92690511D01*
X145787511Y-92762982D01*
X145787512Y-92762982D01*
X145787515Y-92762984D01*
X145927525Y-92800500D01*
X145927528Y-92800500D01*
X146072472Y-92800500D01*
X146072475Y-92800500D01*
X146212485Y-92762984D01*
X146338015Y-92690509D01*
X146440509Y-92588015D01*
X146512984Y-92462485D01*
X146550500Y-92322475D01*
X146550500Y-92177525D01*
X146512984Y-92037515D01*
X146512980Y-92037508D01*
X146467113Y-91958062D01*
X146450500Y-91896063D01*
X146450500Y-88664665D01*
X146470185Y-88597626D01*
X146522989Y-88551871D01*
X146592147Y-88541927D01*
X146606576Y-88544886D01*
X146627525Y-88550500D01*
X146627528Y-88550500D01*
X146772472Y-88550500D01*
X146772475Y-88550500D01*
X146843409Y-88531493D01*
X146913256Y-88533156D01*
X146971118Y-88572318D01*
X146998623Y-88636546D01*
X146999500Y-88651268D01*
X146999500Y-109997293D01*
X146999382Y-110002702D01*
X146982614Y-110386750D01*
X146981671Y-110397526D01*
X146931849Y-110775957D01*
X146929971Y-110786610D01*
X146847354Y-111159272D01*
X146844554Y-111169721D01*
X146729775Y-111533755D01*
X146726075Y-111543921D01*
X146580002Y-111896572D01*
X146575430Y-111906376D01*
X146399183Y-112244942D01*
X146393775Y-112254310D01*
X146188681Y-112576244D01*
X146182476Y-112585105D01*
X145950110Y-112887930D01*
X145943156Y-112896217D01*
X145685284Y-113177635D01*
X145677635Y-113185284D01*
X145396217Y-113443156D01*
X145387930Y-113450110D01*
X145085105Y-113682476D01*
X145076244Y-113688681D01*
X144754310Y-113893775D01*
X144744942Y-113899183D01*
X144406376Y-114075430D01*
X144396572Y-114080002D01*
X144043921Y-114226075D01*
X144033755Y-114229775D01*
X143669721Y-114344554D01*
X143659272Y-114347354D01*
X143286610Y-114429971D01*
X143275957Y-114431849D01*
X142897526Y-114481671D01*
X142886750Y-114482614D01*
X142502703Y-114499382D01*
X142497294Y-114499500D01*
X92502706Y-114499500D01*
X92497297Y-114499382D01*
X92113249Y-114482614D01*
X92102473Y-114481671D01*
X91724042Y-114431849D01*
X91713389Y-114429971D01*
X91340727Y-114347354D01*
X91330278Y-114344554D01*
X90966244Y-114229775D01*
X90956078Y-114226075D01*
X90603427Y-114080002D01*
X90593623Y-114075430D01*
X90255057Y-113899183D01*
X90245689Y-113893775D01*
X89923755Y-113688681D01*
X89914894Y-113682476D01*
X89612069Y-113450110D01*
X89603782Y-113443156D01*
X89322364Y-113185284D01*
X89314715Y-113177635D01*
X89056843Y-112896217D01*
X89049889Y-112887930D01*
X88817523Y-112585105D01*
X88811318Y-112576244D01*
X88606224Y-112254310D01*
X88600816Y-112244942D01*
X88424566Y-111906369D01*
X88419997Y-111896572D01*
X88285072Y-111570834D01*
X88273920Y-111543911D01*
X88270224Y-111533755D01*
X88155442Y-111169710D01*
X88152648Y-111159284D01*
X88070025Y-110786597D01*
X88068152Y-110775971D01*
X88018326Y-110397506D01*
X88017386Y-110386771D01*
X88000618Y-110002702D01*
X88000500Y-109997293D01*
X88000500Y-109080491D01*
X88799500Y-109080491D01*
X88799500Y-109419508D01*
X88832729Y-109756901D01*
X88896049Y-110075229D01*
X88898871Y-110089414D01*
X88931771Y-110197872D01*
X88997284Y-110413841D01*
X89127024Y-110727060D01*
X89127026Y-110727065D01*
X89286831Y-111026039D01*
X89286842Y-111026057D01*
X89475184Y-111307930D01*
X89475194Y-111307944D01*
X89690269Y-111570014D01*
X89929985Y-111809730D01*
X89929990Y-111809734D01*
X89929991Y-111809735D01*
X90192061Y-112024810D01*
X90473949Y-112213162D01*
X90473958Y-112213167D01*
X90473960Y-112213168D01*
X90772934Y-112372973D01*
X90772936Y-112372973D01*
X90772942Y-112372977D01*
X91086160Y-112502716D01*
X91410586Y-112601129D01*
X91743096Y-112667270D01*
X92080488Y-112700500D01*
X92080491Y-112700500D01*
X92419509Y-112700500D01*
X92419512Y-112700500D01*
X92756904Y-112667270D01*
X93089414Y-112601129D01*
X93413840Y-112502716D01*
X93727058Y-112372977D01*
X94026051Y-112213162D01*
X94307939Y-112024810D01*
X94570009Y-111809735D01*
X94809735Y-111570009D01*
X95024810Y-111307939D01*
X95213162Y-111026051D01*
X95372977Y-110727058D01*
X95502716Y-110413840D01*
X95601129Y-110089414D01*
X95667270Y-109756904D01*
X95700500Y-109419512D01*
X95700500Y-109080488D01*
X95667270Y-108743096D01*
X95601129Y-108410586D01*
X95568231Y-108302136D01*
X99099500Y-108302136D01*
X99099500Y-110697863D01*
X99099501Y-110697882D01*
X99105908Y-110757481D01*
X99156202Y-110892327D01*
X99156203Y-110892328D01*
X99156204Y-110892330D01*
X99242454Y-111007546D01*
X99357670Y-111093796D01*
X99357671Y-111093796D01*
X99357672Y-111093797D01*
X99492518Y-111144091D01*
X99492517Y-111144091D01*
X99499445Y-111144835D01*
X99552128Y-111150500D01*
X99552137Y-111150500D01*
X101947863Y-111150500D01*
X101947872Y-111150500D01*
X102007482Y-111144091D01*
X102142330Y-111093796D01*
X102257546Y-111007546D01*
X102343796Y-110892330D01*
X102394091Y-110757482D01*
X102400500Y-110697872D01*
X102400500Y-109370097D01*
X104099500Y-109370097D01*
X104099500Y-109629902D01*
X104140140Y-109886493D01*
X104220422Y-110133576D01*
X104338368Y-110365054D01*
X104457901Y-110529577D01*
X104491069Y-110575229D01*
X104674771Y-110758931D01*
X104884949Y-110911634D01*
X105032445Y-110986787D01*
X105116423Y-111029577D01*
X105116425Y-111029577D01*
X105116428Y-111029579D01*
X105363507Y-111109860D01*
X105489103Y-111129752D01*
X105620098Y-111150500D01*
X105620103Y-111150500D01*
X105879902Y-111150500D01*
X106010897Y-111129752D01*
X106136493Y-111109860D01*
X106383572Y-111029579D01*
X106615051Y-110911634D01*
X106825229Y-110758931D01*
X107008931Y-110575229D01*
X107161634Y-110365051D01*
X107279579Y-110133572D01*
X107359860Y-109886493D01*
X107382539Y-109743298D01*
X107400500Y-109629902D01*
X107400500Y-109370097D01*
X107378947Y-109234021D01*
X107359860Y-109113507D01*
X107279579Y-108866428D01*
X107279577Y-108866425D01*
X107279577Y-108866423D01*
X107216738Y-108743096D01*
X107161634Y-108634949D01*
X107008931Y-108424771D01*
X106825229Y-108241069D01*
X106679162Y-108134945D01*
X106615054Y-108088368D01*
X106615053Y-108088367D01*
X106615051Y-108088366D01*
X106542764Y-108051534D01*
X106383576Y-107970422D01*
X106136493Y-107890140D01*
X105879902Y-107849500D01*
X105879897Y-107849500D01*
X105620103Y-107849500D01*
X105620098Y-107849500D01*
X105363506Y-107890140D01*
X105116423Y-107970422D01*
X104884945Y-108088368D01*
X104674774Y-108241066D01*
X104674768Y-108241071D01*
X104491071Y-108424768D01*
X104491066Y-108424774D01*
X104338368Y-108634945D01*
X104220422Y-108866423D01*
X104140140Y-109113506D01*
X104099500Y-109370097D01*
X102400500Y-109370097D01*
X102400500Y-108302128D01*
X102394091Y-108242518D01*
X102393549Y-108241066D01*
X102343797Y-108107672D01*
X102343796Y-108107671D01*
X102343796Y-108107670D01*
X102257546Y-107992454D01*
X102142330Y-107906204D01*
X102142328Y-107906203D01*
X102142327Y-107906202D01*
X102007481Y-107855908D01*
X102007482Y-107855908D01*
X101947882Y-107849501D01*
X101947880Y-107849500D01*
X101947872Y-107849500D01*
X99552128Y-107849500D01*
X99552120Y-107849500D01*
X99552117Y-107849501D01*
X99492518Y-107855908D01*
X99357672Y-107906202D01*
X99357670Y-107906204D01*
X99242454Y-107992454D01*
X99156204Y-108107670D01*
X99156202Y-108107672D01*
X99105908Y-108242518D01*
X99099501Y-108302117D01*
X99099500Y-108302136D01*
X95568231Y-108302136D01*
X95502716Y-108086160D01*
X95372977Y-107772942D01*
X95284638Y-107607672D01*
X95213168Y-107473960D01*
X95213167Y-107473958D01*
X95213162Y-107473949D01*
X95024810Y-107192061D01*
X94809735Y-106929991D01*
X94809734Y-106929990D01*
X94809730Y-106929985D01*
X94570014Y-106690269D01*
X94307944Y-106475194D01*
X94307943Y-106475193D01*
X94307939Y-106475190D01*
X94026051Y-106286838D01*
X94026046Y-106286835D01*
X94026039Y-106286831D01*
X93727065Y-106127026D01*
X93727060Y-106127024D01*
X93413841Y-105997284D01*
X93223382Y-105939509D01*
X93089414Y-105898871D01*
X93089411Y-105898870D01*
X93089410Y-105898870D01*
X92756901Y-105832729D01*
X92519199Y-105809318D01*
X92419512Y-105799500D01*
X92080488Y-105799500D01*
X91989738Y-105808437D01*
X91743098Y-105832729D01*
X91410589Y-105898870D01*
X91086158Y-105997284D01*
X90772939Y-106127024D01*
X90772934Y-106127026D01*
X90473960Y-106286831D01*
X90473942Y-106286842D01*
X90192069Y-106475184D01*
X90192055Y-106475194D01*
X89929985Y-106690269D01*
X89690269Y-106929985D01*
X89475194Y-107192055D01*
X89475184Y-107192069D01*
X89286842Y-107473942D01*
X89286831Y-107473960D01*
X89127026Y-107772934D01*
X89127024Y-107772939D01*
X88997284Y-108086158D01*
X88898870Y-108410589D01*
X88832729Y-108743098D01*
X88799500Y-109080491D01*
X88000500Y-109080491D01*
X88000500Y-97438543D01*
X92249499Y-97438543D01*
X92287947Y-97631829D01*
X92287950Y-97631839D01*
X92363364Y-97813907D01*
X92363371Y-97813920D01*
X92472859Y-97977780D01*
X92472860Y-97977781D01*
X92472861Y-97977782D01*
X92612218Y-98117139D01*
X92612219Y-98117139D01*
X92619286Y-98124206D01*
X92619285Y-98124206D01*
X92619289Y-98124209D01*
X93641952Y-99146873D01*
X93675437Y-99208196D01*
X93677210Y-99250739D01*
X93659500Y-99385265D01*
X93659500Y-99614741D01*
X93684446Y-99804215D01*
X93689452Y-99842238D01*
X93689453Y-99842240D01*
X93748842Y-100063887D01*
X93836650Y-100275876D01*
X93836657Y-100275890D01*
X93855217Y-100308037D01*
X93924140Y-100427416D01*
X93951392Y-100474617D01*
X94091081Y-100656661D01*
X94091089Y-100656670D01*
X94253330Y-100818911D01*
X94253338Y-100818918D01*
X94435382Y-100958607D01*
X94435385Y-100958608D01*
X94435388Y-100958611D01*
X94634112Y-101073344D01*
X94634117Y-101073346D01*
X94634123Y-101073349D01*
X94725480Y-101111190D01*
X94846113Y-101161158D01*
X95067762Y-101220548D01*
X95284312Y-101249057D01*
X95295250Y-101250498D01*
X95295266Y-101250500D01*
X95295273Y-101250500D01*
X95524727Y-101250500D01*
X95524734Y-101250500D01*
X95752238Y-101220548D01*
X95973887Y-101161158D01*
X96185888Y-101073344D01*
X96384612Y-100958611D01*
X96566661Y-100818919D01*
X96566665Y-100818914D01*
X96566670Y-100818911D01*
X96728911Y-100656670D01*
X96728914Y-100656665D01*
X96728919Y-100656661D01*
X96868611Y-100474612D01*
X96983344Y-100275888D01*
X97071158Y-100063887D01*
X97130548Y-99842238D01*
X97160500Y-99614734D01*
X97160500Y-99385266D01*
X97160499Y-99385258D01*
X101279500Y-99385258D01*
X101279500Y-99614741D01*
X101304446Y-99804215D01*
X101309452Y-99842238D01*
X101309453Y-99842240D01*
X101368842Y-100063887D01*
X101456650Y-100275876D01*
X101456657Y-100275890D01*
X101475217Y-100308037D01*
X101544140Y-100427416D01*
X101571392Y-100474617D01*
X101711081Y-100656661D01*
X101711089Y-100656670D01*
X101873330Y-100818911D01*
X101873338Y-100818918D01*
X102055382Y-100958607D01*
X102055385Y-100958608D01*
X102055388Y-100958611D01*
X102254112Y-101073344D01*
X102254117Y-101073346D01*
X102254123Y-101073349D01*
X102345480Y-101111190D01*
X102466113Y-101161158D01*
X102687762Y-101220548D01*
X102904312Y-101249057D01*
X102915250Y-101250498D01*
X102915266Y-101250500D01*
X102915273Y-101250500D01*
X103144727Y-101250500D01*
X103144734Y-101250500D01*
X103372238Y-101220548D01*
X103593887Y-101161158D01*
X103805888Y-101073344D01*
X104004612Y-100958611D01*
X104186661Y-100818919D01*
X104186665Y-100818914D01*
X104186670Y-100818911D01*
X104348911Y-100656670D01*
X104348914Y-100656665D01*
X104348919Y-100656661D01*
X104488611Y-100474612D01*
X104603344Y-100275888D01*
X104691158Y-100063887D01*
X104750548Y-99842238D01*
X104780500Y-99614734D01*
X104780500Y-99385266D01*
X104750548Y-99157762D01*
X104691158Y-98936113D01*
X104603344Y-98724112D01*
X104488611Y-98525388D01*
X104488608Y-98525385D01*
X104488607Y-98525382D01*
X104374713Y-98376954D01*
X104348919Y-98343339D01*
X104348918Y-98343338D01*
X104348911Y-98343330D01*
X104186670Y-98181089D01*
X104186661Y-98181081D01*
X104004617Y-98041392D01*
X104000283Y-98038890D01*
X103805888Y-97926656D01*
X103805876Y-97926650D01*
X103593887Y-97838842D01*
X103372238Y-97779452D01*
X103334215Y-97774446D01*
X103144741Y-97749500D01*
X103144734Y-97749500D01*
X102915266Y-97749500D01*
X102915258Y-97749500D01*
X102720119Y-97775192D01*
X102687762Y-97779452D01*
X102594076Y-97804554D01*
X102466112Y-97838842D01*
X102254123Y-97926650D01*
X102254109Y-97926657D01*
X102055382Y-98041392D01*
X101873338Y-98181081D01*
X101711081Y-98343338D01*
X101571392Y-98525382D01*
X101456657Y-98724109D01*
X101456650Y-98724123D01*
X101368842Y-98936112D01*
X101309453Y-99157759D01*
X101309451Y-99157770D01*
X101279500Y-99385258D01*
X97160499Y-99385258D01*
X97130548Y-99157762D01*
X97071158Y-98936113D01*
X96983344Y-98724112D01*
X96868611Y-98525388D01*
X96868608Y-98525385D01*
X96868607Y-98525382D01*
X96754713Y-98376954D01*
X96728919Y-98343339D01*
X96728918Y-98343338D01*
X96728911Y-98343330D01*
X96566670Y-98181089D01*
X96566661Y-98181081D01*
X96384617Y-98041392D01*
X96380283Y-98038890D01*
X96185888Y-97926656D01*
X96185876Y-97926650D01*
X95973887Y-97838842D01*
X95752238Y-97779452D01*
X95714215Y-97774446D01*
X95524741Y-97749500D01*
X95524734Y-97749500D01*
X95295266Y-97749500D01*
X95295265Y-97749500D01*
X95160739Y-97767210D01*
X95091703Y-97756444D01*
X95056873Y-97731952D01*
X94286819Y-96961898D01*
X94253334Y-96900575D01*
X94250500Y-96874217D01*
X94250500Y-84635782D01*
X94270185Y-84568743D01*
X94286819Y-84548101D01*
X97548102Y-81286818D01*
X97609425Y-81253333D01*
X97635783Y-81250499D01*
X98067871Y-81250499D01*
X98067872Y-81250499D01*
X98127483Y-81244091D01*
X98262331Y-81193796D01*
X98377546Y-81107546D01*
X98463796Y-80992331D01*
X98514091Y-80857483D01*
X98520500Y-80797873D01*
X98520499Y-79202128D01*
X98514091Y-79142517D01*
X98463796Y-79007669D01*
X98463795Y-79007668D01*
X98463793Y-79007664D01*
X98377547Y-78892455D01*
X98377544Y-78892452D01*
X98262335Y-78806206D01*
X98262328Y-78806202D01*
X98127482Y-78755908D01*
X98127483Y-78755908D01*
X98067883Y-78749501D01*
X98067881Y-78749500D01*
X98067873Y-78749500D01*
X98067864Y-78749500D01*
X96772129Y-78749500D01*
X96772123Y-78749501D01*
X96712516Y-78755908D01*
X96577671Y-78806202D01*
X96577664Y-78806206D01*
X96462455Y-78892452D01*
X96462452Y-78892455D01*
X96376206Y-79007664D01*
X96376202Y-79007671D01*
X96325908Y-79142517D01*
X96319501Y-79202116D01*
X96319501Y-79202123D01*
X96319500Y-79202135D01*
X96319500Y-79634216D01*
X96299815Y-79701255D01*
X96283180Y-79721897D01*
X92612220Y-83392859D01*
X92612218Y-83392861D01*
X92542538Y-83462540D01*
X92472859Y-83532219D01*
X92363371Y-83696079D01*
X92363364Y-83696092D01*
X92330019Y-83776597D01*
X92330019Y-83776598D01*
X92287949Y-83878163D01*
X92287947Y-83878171D01*
X92281861Y-83908768D01*
X92268724Y-83974812D01*
X92249500Y-84071459D01*
X92249500Y-97438541D01*
X92249500Y-97438543D01*
X92249499Y-97438543D01*
X88000500Y-97438543D01*
X88000500Y-61415350D01*
X100724500Y-61415350D01*
X100724500Y-61584649D01*
X100750981Y-61751847D01*
X100803296Y-61912853D01*
X100880152Y-62063688D01*
X100979648Y-62200634D01*
X100979652Y-62200639D01*
X101099360Y-62320347D01*
X101099365Y-62320351D01*
X101218817Y-62407137D01*
X101236315Y-62419850D01*
X101332425Y-62468820D01*
X101387146Y-62496703D01*
X101387148Y-62496703D01*
X101387151Y-62496705D01*
X101437859Y-62513181D01*
X101548152Y-62549018D01*
X101715351Y-62575500D01*
X101715356Y-62575500D01*
X101884649Y-62575500D01*
X102051847Y-62549018D01*
X102212849Y-62496705D01*
X102363685Y-62419850D01*
X102500641Y-62320346D01*
X102620346Y-62200641D01*
X102719850Y-62063685D01*
X102796705Y-61912849D01*
X102849018Y-61751847D01*
X102875500Y-61584649D01*
X102875500Y-61415350D01*
X102849018Y-61248152D01*
X102796703Y-61087146D01*
X102768820Y-61032425D01*
X102719850Y-60936315D01*
X102707137Y-60918817D01*
X102620351Y-60799365D01*
X102620347Y-60799360D01*
X102500639Y-60679652D01*
X102500634Y-60679648D01*
X102363688Y-60580152D01*
X102363687Y-60580151D01*
X102363685Y-60580150D01*
X102316582Y-60556150D01*
X102212853Y-60503296D01*
X102051847Y-60450981D01*
X101884649Y-60424500D01*
X101884644Y-60424500D01*
X101715356Y-60424500D01*
X101715351Y-60424500D01*
X101548152Y-60450981D01*
X101387146Y-60503296D01*
X101236311Y-60580152D01*
X101099365Y-60679648D01*
X101099360Y-60679652D01*
X100979652Y-60799360D01*
X100979648Y-60799365D01*
X100880152Y-60936311D01*
X100803296Y-61087146D01*
X100750981Y-61248152D01*
X100724500Y-61415350D01*
X88000500Y-61415350D01*
X88000500Y-48681471D01*
X96191500Y-48681471D01*
X96191500Y-48918528D01*
X96191501Y-48918544D01*
X96222443Y-49153574D01*
X96283803Y-49382570D01*
X96374520Y-49601583D01*
X96374526Y-49601595D01*
X96493061Y-49806904D01*
X96493063Y-49806907D01*
X96493064Y-49806908D01*
X96637379Y-49994983D01*
X96637385Y-49994990D01*
X96805009Y-50162614D01*
X96805015Y-50162619D01*
X96993096Y-50306939D01*
X97198405Y-50425474D01*
X97198410Y-50425476D01*
X97198416Y-50425479D01*
X97234502Y-50440426D01*
X97417430Y-50516197D01*
X97646422Y-50577556D01*
X97881465Y-50608500D01*
X97881472Y-50608500D01*
X98118528Y-50608500D01*
X98118535Y-50608500D01*
X98262626Y-50589529D01*
X98300956Y-50584484D01*
X98369991Y-50595250D01*
X98404822Y-50619742D01*
X105863181Y-58078101D01*
X105896666Y-58139424D01*
X105899500Y-58165782D01*
X105899500Y-62426997D01*
X105879815Y-62494036D01*
X105850986Y-62525373D01*
X105705016Y-62637379D01*
X105705009Y-62637385D01*
X105537385Y-62805009D01*
X105537379Y-62805016D01*
X105393064Y-62993091D01*
X105274527Y-63198402D01*
X105274520Y-63198416D01*
X105183803Y-63417429D01*
X105122443Y-63646425D01*
X105091501Y-63881455D01*
X105091500Y-63881471D01*
X105091500Y-64118528D01*
X105091501Y-64118544D01*
X105122443Y-64353574D01*
X105183803Y-64582570D01*
X105274520Y-64801583D01*
X105274526Y-64801595D01*
X105393061Y-65006904D01*
X105393063Y-65006907D01*
X105393064Y-65006908D01*
X105537379Y-65194983D01*
X105537385Y-65194990D01*
X105705009Y-65362614D01*
X105705016Y-65362620D01*
X105850986Y-65474627D01*
X105892189Y-65531055D01*
X105899500Y-65573003D01*
X105899500Y-75054216D01*
X105879815Y-75121255D01*
X105863181Y-75141897D01*
X97269425Y-83735652D01*
X97208102Y-83769137D01*
X97201146Y-83770444D01*
X97162300Y-83776597D01*
X96997552Y-83830128D01*
X96843211Y-83908768D01*
X96703069Y-84010588D01*
X96580588Y-84133069D01*
X96580588Y-84133070D01*
X96580586Y-84133072D01*
X96536859Y-84193256D01*
X96478768Y-84273211D01*
X96400128Y-84427552D01*
X96346597Y-84592302D01*
X96339711Y-84635782D01*
X96319500Y-84763389D01*
X96319500Y-85236611D01*
X96346598Y-85407701D01*
X96400127Y-85572445D01*
X96478768Y-85726788D01*
X96580586Y-85866928D01*
X96703072Y-85989414D01*
X96843212Y-86091232D01*
X96997555Y-86169873D01*
X97162299Y-86223402D01*
X97333389Y-86250500D01*
X97333390Y-86250500D01*
X97506610Y-86250500D01*
X97506611Y-86250500D01*
X97677701Y-86223402D01*
X97842445Y-86169873D01*
X97996788Y-86091232D01*
X98089074Y-86024182D01*
X98154881Y-86000702D01*
X98161960Y-86000500D01*
X99534218Y-86000500D01*
X99601257Y-86020185D01*
X99621899Y-86036819D01*
X122313181Y-108728101D01*
X122346666Y-108789424D01*
X122349500Y-108815782D01*
X122349500Y-110197863D01*
X122349501Y-110197882D01*
X122355908Y-110257481D01*
X122406202Y-110392327D01*
X122406203Y-110392328D01*
X122406204Y-110392330D01*
X122492454Y-110507546D01*
X122607670Y-110593796D01*
X122607671Y-110593796D01*
X122607672Y-110593797D01*
X122742518Y-110644091D01*
X122742517Y-110644091D01*
X122749445Y-110644835D01*
X122802128Y-110650500D01*
X122802137Y-110650500D01*
X125197863Y-110650500D01*
X125197872Y-110650500D01*
X125257482Y-110644091D01*
X125392330Y-110593796D01*
X125507546Y-110507546D01*
X125593796Y-110392330D01*
X125644091Y-110257482D01*
X125650500Y-110197872D01*
X125650500Y-108870097D01*
X127349500Y-108870097D01*
X127349500Y-109129902D01*
X127390140Y-109386493D01*
X127470422Y-109633576D01*
X127533262Y-109756904D01*
X127588366Y-109865051D01*
X127741069Y-110075229D01*
X127924771Y-110258931D01*
X128134949Y-110411634D01*
X128282445Y-110486787D01*
X128366423Y-110529577D01*
X128366425Y-110529577D01*
X128366428Y-110529579D01*
X128613507Y-110609860D01*
X128745706Y-110630797D01*
X128870098Y-110650500D01*
X128870103Y-110650500D01*
X129129902Y-110650500D01*
X129243298Y-110632539D01*
X129386493Y-110609860D01*
X129633572Y-110529579D01*
X129865051Y-110411634D01*
X130075229Y-110258931D01*
X130258931Y-110075229D01*
X130411634Y-109865051D01*
X130529579Y-109633572D01*
X130609860Y-109386493D01*
X130632539Y-109243298D01*
X130650500Y-109129902D01*
X130650500Y-109080491D01*
X138299500Y-109080491D01*
X138299500Y-109419508D01*
X138332729Y-109756901D01*
X138396049Y-110075229D01*
X138398871Y-110089414D01*
X138431771Y-110197872D01*
X138497284Y-110413841D01*
X138627024Y-110727060D01*
X138627026Y-110727065D01*
X138786831Y-111026039D01*
X138786842Y-111026057D01*
X138975184Y-111307930D01*
X138975194Y-111307944D01*
X139190269Y-111570014D01*
X139429985Y-111809730D01*
X139429990Y-111809734D01*
X139429991Y-111809735D01*
X139692061Y-112024810D01*
X139973949Y-112213162D01*
X139973958Y-112213167D01*
X139973960Y-112213168D01*
X140272934Y-112372973D01*
X140272936Y-112372973D01*
X140272942Y-112372977D01*
X140586160Y-112502716D01*
X140910586Y-112601129D01*
X141243096Y-112667270D01*
X141580488Y-112700500D01*
X141580491Y-112700500D01*
X141919509Y-112700500D01*
X141919512Y-112700500D01*
X142256904Y-112667270D01*
X142589414Y-112601129D01*
X142913840Y-112502716D01*
X143227058Y-112372977D01*
X143526051Y-112213162D01*
X143807939Y-112024810D01*
X144070009Y-111809735D01*
X144309735Y-111570009D01*
X144524810Y-111307939D01*
X144713162Y-111026051D01*
X144872977Y-110727058D01*
X145002716Y-110413840D01*
X145101129Y-110089414D01*
X145167270Y-109756904D01*
X145200500Y-109419512D01*
X145200500Y-109080488D01*
X145167270Y-108743096D01*
X145101129Y-108410586D01*
X145002716Y-108086160D01*
X144872977Y-107772942D01*
X144784638Y-107607672D01*
X144713168Y-107473960D01*
X144713167Y-107473958D01*
X144713162Y-107473949D01*
X144524810Y-107192061D01*
X144309735Y-106929991D01*
X144309734Y-106929990D01*
X144309730Y-106929985D01*
X144070014Y-106690269D01*
X143807944Y-106475194D01*
X143807943Y-106475193D01*
X143807939Y-106475190D01*
X143526051Y-106286838D01*
X143526046Y-106286835D01*
X143526039Y-106286831D01*
X143227065Y-106127026D01*
X143227060Y-106127024D01*
X142913841Y-105997284D01*
X142723382Y-105939509D01*
X142589414Y-105898871D01*
X142589411Y-105898870D01*
X142589410Y-105898870D01*
X142256901Y-105832729D01*
X142019199Y-105809318D01*
X141919512Y-105799500D01*
X141580488Y-105799500D01*
X141489738Y-105808437D01*
X141243098Y-105832729D01*
X140910589Y-105898870D01*
X140586158Y-105997284D01*
X140272939Y-106127024D01*
X140272934Y-106127026D01*
X139973960Y-106286831D01*
X139973942Y-106286842D01*
X139692069Y-106475184D01*
X139692055Y-106475194D01*
X139429985Y-106690269D01*
X139190269Y-106929985D01*
X138975194Y-107192055D01*
X138975184Y-107192069D01*
X138786842Y-107473942D01*
X138786831Y-107473960D01*
X138627026Y-107772934D01*
X138627024Y-107772939D01*
X138497284Y-108086158D01*
X138398870Y-108410589D01*
X138332729Y-108743098D01*
X138299500Y-109080491D01*
X130650500Y-109080491D01*
X130650500Y-108870097D01*
X130628010Y-108728101D01*
X130609860Y-108613507D01*
X130529579Y-108366428D01*
X130529577Y-108366425D01*
X130529577Y-108366423D01*
X130465705Y-108241069D01*
X130411634Y-108134949D01*
X130258931Y-107924771D01*
X130075229Y-107741069D01*
X130075225Y-107741066D01*
X129865054Y-107588368D01*
X129865053Y-107588367D01*
X129865051Y-107588366D01*
X129792764Y-107551534D01*
X129633576Y-107470422D01*
X129386493Y-107390140D01*
X129129902Y-107349500D01*
X129129897Y-107349500D01*
X128870103Y-107349500D01*
X128870098Y-107349500D01*
X128613506Y-107390140D01*
X128366423Y-107470422D01*
X128134945Y-107588368D01*
X127924774Y-107741066D01*
X127924768Y-107741071D01*
X127741071Y-107924768D01*
X127741066Y-107924774D01*
X127588368Y-108134945D01*
X127470422Y-108366423D01*
X127390140Y-108613506D01*
X127349500Y-108870097D01*
X125650500Y-108870097D01*
X125650500Y-107802128D01*
X125644091Y-107742518D01*
X125593796Y-107607670D01*
X125507546Y-107492454D01*
X125392330Y-107406204D01*
X125392328Y-107406203D01*
X125392327Y-107406202D01*
X125257481Y-107355908D01*
X125257482Y-107355908D01*
X125197882Y-107349501D01*
X125197880Y-107349500D01*
X125197872Y-107349500D01*
X125197864Y-107349500D01*
X123815783Y-107349500D01*
X123748744Y-107329815D01*
X123728102Y-107313181D01*
X115106887Y-98691966D01*
X120249500Y-98691966D01*
X120249500Y-100308028D01*
X120249501Y-100308034D01*
X120260113Y-100427415D01*
X120316089Y-100623045D01*
X120316090Y-100623048D01*
X120316091Y-100623049D01*
X120410302Y-100803407D01*
X120444977Y-100845933D01*
X120538890Y-100961109D01*
X120632803Y-101037684D01*
X120696593Y-101089698D01*
X120876951Y-101183909D01*
X121072582Y-101239886D01*
X121191963Y-101250500D01*
X122808036Y-101250499D01*
X122927418Y-101239886D01*
X123123049Y-101183909D01*
X123303407Y-101089698D01*
X123461109Y-100961109D01*
X123589698Y-100803407D01*
X123683909Y-100623049D01*
X123739886Y-100427418D01*
X123750500Y-100308037D01*
X123750499Y-98691966D01*
X127869500Y-98691966D01*
X127869500Y-100308028D01*
X127869501Y-100308034D01*
X127880113Y-100427415D01*
X127936089Y-100623045D01*
X127936090Y-100623048D01*
X127936091Y-100623049D01*
X128030302Y-100803407D01*
X128064977Y-100845933D01*
X128158890Y-100961109D01*
X128252803Y-101037684D01*
X128316593Y-101089698D01*
X128496951Y-101183909D01*
X128692582Y-101239886D01*
X128811963Y-101250500D01*
X130428036Y-101250499D01*
X130547418Y-101239886D01*
X130743049Y-101183909D01*
X130923407Y-101089698D01*
X131081109Y-100961109D01*
X131209698Y-100803407D01*
X131303909Y-100623049D01*
X131359886Y-100427418D01*
X131370500Y-100308037D01*
X131370499Y-98691964D01*
X131359886Y-98572582D01*
X131303909Y-98376951D01*
X131209698Y-98196593D01*
X131144912Y-98117139D01*
X131081109Y-98038890D01*
X130943465Y-97926657D01*
X130923407Y-97910302D01*
X130743049Y-97816091D01*
X130743048Y-97816090D01*
X130743045Y-97816089D01*
X130600113Y-97775192D01*
X130547418Y-97760114D01*
X130547415Y-97760113D01*
X130547413Y-97760113D01*
X130481102Y-97754217D01*
X130428037Y-97749500D01*
X130428032Y-97749500D01*
X128811971Y-97749500D01*
X128811965Y-97749500D01*
X128811964Y-97749501D01*
X128800316Y-97750536D01*
X128692584Y-97760113D01*
X128496954Y-97816089D01*
X128453396Y-97838842D01*
X128316593Y-97910302D01*
X128316591Y-97910303D01*
X128316590Y-97910304D01*
X128158890Y-98038890D01*
X128030304Y-98196590D01*
X127936089Y-98376954D01*
X127880114Y-98572583D01*
X127880113Y-98572586D01*
X127869500Y-98691966D01*
X123750499Y-98691966D01*
X123750499Y-98691964D01*
X123739886Y-98572582D01*
X123683909Y-98376951D01*
X123589698Y-98196593D01*
X123524912Y-98117139D01*
X123461109Y-98038890D01*
X123323465Y-97926657D01*
X123303407Y-97910302D01*
X123123049Y-97816091D01*
X123123048Y-97816090D01*
X123123045Y-97816089D01*
X122980113Y-97775192D01*
X122927418Y-97760114D01*
X122927415Y-97760113D01*
X122927413Y-97760113D01*
X122861102Y-97754217D01*
X122808037Y-97749500D01*
X122808032Y-97749500D01*
X121191971Y-97749500D01*
X121191965Y-97749500D01*
X121191964Y-97749501D01*
X121180316Y-97750536D01*
X121072584Y-97760113D01*
X120876954Y-97816089D01*
X120833396Y-97838842D01*
X120696593Y-97910302D01*
X120696591Y-97910303D01*
X120696590Y-97910304D01*
X120538890Y-98038890D01*
X120410304Y-98196590D01*
X120316089Y-98376954D01*
X120260114Y-98572583D01*
X120260113Y-98572586D01*
X120249500Y-98691966D01*
X115106887Y-98691966D01*
X106178310Y-89763389D01*
X125399500Y-89763389D01*
X125399500Y-90236611D01*
X125426598Y-90407701D01*
X125480127Y-90572445D01*
X125558768Y-90726788D01*
X125660586Y-90866928D01*
X125783072Y-90989414D01*
X125923212Y-91091232D01*
X126077555Y-91169873D01*
X126242299Y-91223402D01*
X126413389Y-91250500D01*
X126413390Y-91250500D01*
X126586610Y-91250500D01*
X126586611Y-91250500D01*
X126757701Y-91223402D01*
X126922445Y-91169873D01*
X127076788Y-91091232D01*
X127216928Y-90989414D01*
X127339414Y-90866928D01*
X127441232Y-90726788D01*
X127519873Y-90572445D01*
X127573402Y-90407701D01*
X127600500Y-90236611D01*
X127600500Y-89800096D01*
X127620185Y-89733057D01*
X127636819Y-89712415D01*
X131622446Y-85726788D01*
X135868713Y-81480521D01*
X135868716Y-81480520D01*
X135980520Y-81368716D01*
X136030639Y-81281904D01*
X136059577Y-81231785D01*
X136100500Y-81079057D01*
X136100500Y-80920943D01*
X136100500Y-80298989D01*
X136120185Y-80231950D01*
X136151616Y-80198670D01*
X136249497Y-80127556D01*
X136249497Y-80127555D01*
X136249501Y-80127553D01*
X136377553Y-79999501D01*
X136483996Y-79852994D01*
X136566211Y-79691639D01*
X136622171Y-79519409D01*
X136636765Y-79427259D01*
X136650500Y-79340551D01*
X136650500Y-79159448D01*
X136626460Y-79007671D01*
X136622171Y-78980591D01*
X136566211Y-78808361D01*
X136566211Y-78808360D01*
X136536220Y-78749500D01*
X136483996Y-78647006D01*
X136470396Y-78628287D01*
X136377558Y-78500505D01*
X136377554Y-78500500D01*
X136249499Y-78372445D01*
X136249494Y-78372441D01*
X136102997Y-78266006D01*
X136102996Y-78266005D01*
X136102994Y-78266004D01*
X136051300Y-78239664D01*
X135941639Y-78183788D01*
X135941636Y-78183787D01*
X135769410Y-78127829D01*
X135590551Y-78099500D01*
X135590546Y-78099500D01*
X135409454Y-78099500D01*
X135409449Y-78099500D01*
X135230589Y-78127829D01*
X135058363Y-78183787D01*
X135058360Y-78183788D01*
X134897002Y-78266006D01*
X134750505Y-78372441D01*
X134750500Y-78372445D01*
X134622445Y-78500500D01*
X134622441Y-78500505D01*
X134516006Y-78647002D01*
X134433788Y-78808360D01*
X134433787Y-78808363D01*
X134377829Y-78980589D01*
X134349500Y-79159448D01*
X134349500Y-79340551D01*
X134377829Y-79519410D01*
X134433787Y-79691636D01*
X134433788Y-79691639D01*
X134516006Y-79852997D01*
X134622441Y-79999494D01*
X134622445Y-79999499D01*
X134750502Y-80127556D01*
X134848384Y-80198670D01*
X134891051Y-80254000D01*
X134899500Y-80298989D01*
X134899500Y-80699902D01*
X134879815Y-80766941D01*
X134863181Y-80787583D01*
X126899335Y-88751428D01*
X126838012Y-88784913D01*
X126773336Y-88781678D01*
X126765663Y-88779185D01*
X126757699Y-88776597D01*
X126618807Y-88754599D01*
X126586611Y-88749500D01*
X126413389Y-88749500D01*
X126373728Y-88755781D01*
X126242302Y-88776597D01*
X126077552Y-88830128D01*
X125923211Y-88908768D01*
X125843256Y-88966859D01*
X125783072Y-89010586D01*
X125783070Y-89010588D01*
X125783069Y-89010588D01*
X125660588Y-89133069D01*
X125660588Y-89133070D01*
X125660586Y-89133072D01*
X125616859Y-89193256D01*
X125558768Y-89273211D01*
X125480128Y-89427552D01*
X125426597Y-89592302D01*
X125407573Y-89712415D01*
X125399500Y-89763389D01*
X106178310Y-89763389D01*
X100777139Y-84362218D01*
X100637782Y-84222861D01*
X100637781Y-84222860D01*
X100637780Y-84222859D01*
X100473920Y-84113371D01*
X100473911Y-84113366D01*
X100375620Y-84072653D01*
X100345165Y-84060038D01*
X100291836Y-84037949D01*
X100154273Y-84010586D01*
X100140630Y-84007872D01*
X100106602Y-84001103D01*
X100044691Y-83968717D01*
X100010118Y-83908001D01*
X100013859Y-83838231D01*
X100043112Y-83791807D01*
X107677140Y-76157781D01*
X107786632Y-75993914D01*
X107862052Y-75811835D01*
X107900501Y-75618540D01*
X107900501Y-75421459D01*
X107900501Y-75416349D01*
X107900500Y-75416323D01*
X107900500Y-74743753D01*
X125150000Y-74743753D01*
X125150000Y-74750000D01*
X126066988Y-74750000D01*
X126034075Y-74807007D01*
X126000000Y-74934174D01*
X126000000Y-75065826D01*
X126034075Y-75192993D01*
X126066988Y-75250000D01*
X125150000Y-75250000D01*
X125150000Y-75256246D01*
X125183242Y-75466127D01*
X125183242Y-75466130D01*
X125248904Y-75668217D01*
X125345379Y-75857557D01*
X125470272Y-76029459D01*
X125470276Y-76029464D01*
X125620535Y-76179723D01*
X125620540Y-76179727D01*
X125792442Y-76304620D01*
X125981782Y-76401095D01*
X126183871Y-76466757D01*
X126250000Y-76477231D01*
X126250000Y-75433012D01*
X126307007Y-75465925D01*
X126434174Y-75500000D01*
X126565826Y-75500000D01*
X126692993Y-75465925D01*
X126750000Y-75433012D01*
X126750000Y-76477230D01*
X126816126Y-76466757D01*
X126816129Y-76466757D01*
X127018217Y-76401095D01*
X127207557Y-76304620D01*
X127379459Y-76179727D01*
X127379464Y-76179723D01*
X127529723Y-76029464D01*
X127529727Y-76029459D01*
X127654620Y-75857557D01*
X127751095Y-75668217D01*
X127816757Y-75466130D01*
X127816757Y-75466127D01*
X127850000Y-75256246D01*
X127850000Y-75250000D01*
X126933012Y-75250000D01*
X126965925Y-75192993D01*
X127000000Y-75065826D01*
X127000000Y-74934174D01*
X126965925Y-74807007D01*
X126933012Y-74750000D01*
X127850000Y-74750000D01*
X127850000Y-74743753D01*
X127816757Y-74533872D01*
X127816757Y-74533869D01*
X127751095Y-74331782D01*
X127654620Y-74142442D01*
X127529727Y-73970540D01*
X127529723Y-73970535D01*
X127379464Y-73820276D01*
X127379459Y-73820272D01*
X127207557Y-73695379D01*
X127018215Y-73598903D01*
X126816124Y-73533241D01*
X126750000Y-73522768D01*
X126750000Y-74566988D01*
X126692993Y-74534075D01*
X126565826Y-74500000D01*
X126434174Y-74500000D01*
X126307007Y-74534075D01*
X126250000Y-74566988D01*
X126250000Y-73522768D01*
X126249999Y-73522768D01*
X126183875Y-73533241D01*
X125981784Y-73598903D01*
X125792442Y-73695379D01*
X125620540Y-73820272D01*
X125620535Y-73820276D01*
X125470276Y-73970535D01*
X125470272Y-73970540D01*
X125345379Y-74142442D01*
X125248904Y-74331782D01*
X125183242Y-74533869D01*
X125183242Y-74533872D01*
X125150000Y-74743753D01*
X107900500Y-74743753D01*
X107900500Y-71639818D01*
X138100000Y-71639818D01*
X138100000Y-71860181D01*
X138134473Y-72077835D01*
X138202567Y-72287410D01*
X138302611Y-72483756D01*
X138348932Y-72547513D01*
X139100000Y-71796445D01*
X139100000Y-71802661D01*
X139127259Y-71904394D01*
X139179920Y-71995606D01*
X139254394Y-72070080D01*
X139345606Y-72122741D01*
X139447339Y-72150000D01*
X139453553Y-72150000D01*
X138702485Y-72901065D01*
X138702485Y-72901066D01*
X138766243Y-72947388D01*
X138962589Y-73047432D01*
X139172164Y-73115526D01*
X139389819Y-73150000D01*
X139610181Y-73150000D01*
X139827835Y-73115526D01*
X140037410Y-73047432D01*
X140233760Y-72947386D01*
X140297513Y-72901066D01*
X140297514Y-72901066D01*
X139546447Y-72150000D01*
X139552661Y-72150000D01*
X139654394Y-72122741D01*
X139745606Y-72070080D01*
X139820080Y-71995606D01*
X139872741Y-71904394D01*
X139900000Y-71802661D01*
X139900000Y-71796448D01*
X140651066Y-72547514D01*
X140651066Y-72547513D01*
X140697386Y-72483760D01*
X140797432Y-72287410D01*
X140865526Y-72077835D01*
X140900000Y-71860181D01*
X140900000Y-71639818D01*
X140865526Y-71422164D01*
X140797432Y-71212589D01*
X140697388Y-71016243D01*
X140651066Y-70952485D01*
X140651065Y-70952485D01*
X139900000Y-71703551D01*
X139900000Y-71697339D01*
X139872741Y-71595606D01*
X139820080Y-71504394D01*
X139745606Y-71429920D01*
X139654394Y-71377259D01*
X139552661Y-71350000D01*
X139546445Y-71350000D01*
X140297513Y-70598932D01*
X140233756Y-70552611D01*
X140037410Y-70452567D01*
X139827835Y-70384473D01*
X139610181Y-70350000D01*
X139389819Y-70350000D01*
X139172164Y-70384473D01*
X138962589Y-70452567D01*
X138766233Y-70552616D01*
X138702485Y-70598931D01*
X138702485Y-70598932D01*
X139453553Y-71350000D01*
X139447339Y-71350000D01*
X139345606Y-71377259D01*
X139254394Y-71429920D01*
X139179920Y-71504394D01*
X139127259Y-71595606D01*
X139100000Y-71697339D01*
X139100000Y-71703553D01*
X138348932Y-70952485D01*
X138348931Y-70952485D01*
X138302616Y-71016233D01*
X138202567Y-71212589D01*
X138134473Y-71422164D01*
X138100000Y-71639818D01*
X107900500Y-71639818D01*
X107900500Y-65573003D01*
X107920185Y-65505964D01*
X107949014Y-65474627D01*
X107991966Y-65441667D01*
X108094985Y-65362619D01*
X108262619Y-65194985D01*
X108406939Y-65006904D01*
X108525474Y-64801595D01*
X108616197Y-64582570D01*
X108677556Y-64353578D01*
X108708500Y-64118535D01*
X108708500Y-63881465D01*
X108677556Y-63646422D01*
X108616197Y-63417430D01*
X108564575Y-63292803D01*
X108525479Y-63198416D01*
X108525476Y-63198410D01*
X108525474Y-63198405D01*
X108406939Y-62993096D01*
X108262619Y-62805015D01*
X108262614Y-62805009D01*
X108094990Y-62637385D01*
X108094983Y-62637379D01*
X107949014Y-62525373D01*
X107907811Y-62468945D01*
X107900500Y-62426997D01*
X107900500Y-61415350D01*
X110924500Y-61415350D01*
X110924500Y-61584649D01*
X110950981Y-61751847D01*
X111003296Y-61912853D01*
X111080152Y-62063688D01*
X111179648Y-62200634D01*
X111179652Y-62200639D01*
X111299360Y-62320347D01*
X111299365Y-62320351D01*
X111418817Y-62407137D01*
X111436315Y-62419850D01*
X111532425Y-62468820D01*
X111587146Y-62496703D01*
X111587148Y-62496703D01*
X111587151Y-62496705D01*
X111637859Y-62513181D01*
X111748152Y-62549018D01*
X111915351Y-62575500D01*
X111915356Y-62575500D01*
X112084649Y-62575500D01*
X112251847Y-62549018D01*
X112412849Y-62496705D01*
X112563685Y-62419850D01*
X112700641Y-62320346D01*
X112820346Y-62200641D01*
X112919850Y-62063685D01*
X112996705Y-61912849D01*
X113049018Y-61751847D01*
X113075500Y-61584649D01*
X113075500Y-61415350D01*
X113049018Y-61248152D01*
X112996703Y-61087146D01*
X112968820Y-61032425D01*
X112919850Y-60936315D01*
X112907137Y-60918817D01*
X112820351Y-60799365D01*
X112820347Y-60799360D01*
X112700639Y-60679652D01*
X112700634Y-60679648D01*
X112563688Y-60580152D01*
X112563687Y-60580151D01*
X112563685Y-60580150D01*
X112516582Y-60556150D01*
X112412853Y-60503296D01*
X112251847Y-60450981D01*
X112084649Y-60424500D01*
X112084644Y-60424500D01*
X111915356Y-60424500D01*
X111915351Y-60424500D01*
X111748152Y-60450981D01*
X111587146Y-60503296D01*
X111436311Y-60580152D01*
X111299365Y-60679648D01*
X111299360Y-60679652D01*
X111179652Y-60799360D01*
X111179648Y-60799365D01*
X111080152Y-60936311D01*
X111003296Y-61087146D01*
X110950981Y-61248152D01*
X110924500Y-61415350D01*
X107900500Y-61415350D01*
X107900500Y-57601458D01*
X107900499Y-57601457D01*
X107894121Y-57569389D01*
X107862052Y-57408165D01*
X107807562Y-57276616D01*
X107786633Y-57226088D01*
X107786628Y-57226079D01*
X107677140Y-57062219D01*
X107677137Y-57062215D01*
X99819742Y-49204822D01*
X99786257Y-49143499D01*
X99784484Y-49100956D01*
X99789893Y-49059871D01*
X99808500Y-48918535D01*
X99808500Y-48681465D01*
X99777556Y-48446422D01*
X99716197Y-48217430D01*
X99632844Y-48016197D01*
X99625479Y-47998416D01*
X99625476Y-47998410D01*
X99625474Y-47998405D01*
X99506939Y-47793096D01*
X99415301Y-47673671D01*
X99362620Y-47605016D01*
X99362614Y-47605009D01*
X99194990Y-47437385D01*
X99194983Y-47437379D01*
X99006908Y-47293064D01*
X99006907Y-47293063D01*
X99006904Y-47293061D01*
X98801595Y-47174526D01*
X98801583Y-47174520D01*
X98582570Y-47083803D01*
X98353574Y-47022443D01*
X98118544Y-46991501D01*
X98118541Y-46991500D01*
X98118535Y-46991500D01*
X97881465Y-46991500D01*
X97881459Y-46991500D01*
X97881455Y-46991501D01*
X97646425Y-47022443D01*
X97417429Y-47083803D01*
X97198416Y-47174520D01*
X97198402Y-47174527D01*
X96993091Y-47293064D01*
X96805016Y-47437379D01*
X96805009Y-47437385D01*
X96637385Y-47605009D01*
X96637379Y-47605016D01*
X96493064Y-47793091D01*
X96374527Y-47998402D01*
X96374520Y-47998416D01*
X96283803Y-48217429D01*
X96222443Y-48446425D01*
X96191501Y-48681455D01*
X96191500Y-48681471D01*
X88000500Y-48681471D01*
X88000500Y-46181471D01*
X113991500Y-46181471D01*
X113991500Y-46418528D01*
X113991501Y-46418544D01*
X114022443Y-46653574D01*
X114083803Y-46882570D01*
X114174520Y-47101583D01*
X114174526Y-47101595D01*
X114293061Y-47306904D01*
X114293063Y-47306907D01*
X114293064Y-47306908D01*
X114437379Y-47494983D01*
X114437385Y-47494990D01*
X114605009Y-47662614D01*
X114605015Y-47662619D01*
X114793096Y-47806939D01*
X114998405Y-47925474D01*
X114998410Y-47925476D01*
X114998416Y-47925479D01*
X115065798Y-47953389D01*
X115217430Y-48016197D01*
X115446422Y-48077556D01*
X115681465Y-48108500D01*
X115681472Y-48108500D01*
X115918528Y-48108500D01*
X115918535Y-48108500D01*
X116153578Y-48077556D01*
X116382570Y-48016197D01*
X116601595Y-47925474D01*
X116806904Y-47806939D01*
X116994985Y-47662619D01*
X117162619Y-47494985D01*
X117306939Y-47306904D01*
X117425474Y-47101595D01*
X117516197Y-46882570D01*
X117577556Y-46653578D01*
X117608500Y-46418535D01*
X117608500Y-46181465D01*
X117577556Y-45946422D01*
X117516197Y-45717430D01*
X117425474Y-45498405D01*
X117306939Y-45293096D01*
X117162619Y-45105015D01*
X117162614Y-45105009D01*
X116994990Y-44937385D01*
X116994983Y-44937379D01*
X116806908Y-44793064D01*
X116806907Y-44793063D01*
X116806904Y-44793061D01*
X116601595Y-44674526D01*
X116601583Y-44674520D01*
X116382570Y-44583803D01*
X116153574Y-44522443D01*
X115918544Y-44491501D01*
X115918541Y-44491500D01*
X115918535Y-44491500D01*
X115681465Y-44491500D01*
X115681459Y-44491500D01*
X115681455Y-44491501D01*
X115446425Y-44522443D01*
X115217429Y-44583803D01*
X114998416Y-44674520D01*
X114998402Y-44674527D01*
X114820598Y-44777182D01*
X114810398Y-44783072D01*
X114793091Y-44793064D01*
X114605016Y-44937379D01*
X114605009Y-44937385D01*
X114437385Y-45105009D01*
X114437379Y-45105016D01*
X114293064Y-45293091D01*
X114174527Y-45498402D01*
X114174520Y-45498416D01*
X114083803Y-45717429D01*
X114022443Y-45946425D01*
X113991501Y-46181455D01*
X113991500Y-46181471D01*
X88000500Y-46181471D01*
X88000500Y-38581471D01*
X113991500Y-38581471D01*
X113991500Y-38818528D01*
X113991501Y-38818544D01*
X114022443Y-39053574D01*
X114083803Y-39282570D01*
X114174520Y-39501583D01*
X114174526Y-39501595D01*
X114293061Y-39706904D01*
X114293063Y-39706907D01*
X114293064Y-39706908D01*
X114437379Y-39894983D01*
X114437385Y-39894990D01*
X114605009Y-40062614D01*
X114605015Y-40062619D01*
X114793096Y-40206939D01*
X114998405Y-40325474D01*
X114998410Y-40325476D01*
X114998416Y-40325479D01*
X115092803Y-40364575D01*
X115217430Y-40416197D01*
X115446422Y-40477556D01*
X115681465Y-40508500D01*
X115681472Y-40508500D01*
X115918528Y-40508500D01*
X115918535Y-40508500D01*
X116153578Y-40477556D01*
X116382570Y-40416197D01*
X116601595Y-40325474D01*
X116806904Y-40206939D01*
X116994985Y-40062619D01*
X117162619Y-39894985D01*
X117306939Y-39706904D01*
X117425474Y-39501595D01*
X117516197Y-39282570D01*
X117577556Y-39053578D01*
X117608500Y-38818535D01*
X117608500Y-38581465D01*
X117577556Y-38346422D01*
X117516197Y-38117430D01*
X117425474Y-37898405D01*
X117306939Y-37693096D01*
X117162619Y-37505015D01*
X117162614Y-37505009D01*
X116994990Y-37337385D01*
X116994983Y-37337379D01*
X116806908Y-37193064D01*
X116806907Y-37193063D01*
X116806904Y-37193061D01*
X116601595Y-37074526D01*
X116601583Y-37074520D01*
X116382570Y-36983803D01*
X116153574Y-36922443D01*
X115918544Y-36891501D01*
X115918541Y-36891500D01*
X115918535Y-36891500D01*
X115681465Y-36891500D01*
X115681459Y-36891500D01*
X115681455Y-36891501D01*
X115446425Y-36922443D01*
X115217429Y-36983803D01*
X114998416Y-37074520D01*
X114998402Y-37074527D01*
X114793091Y-37193064D01*
X114605016Y-37337379D01*
X114605009Y-37337385D01*
X114437385Y-37505009D01*
X114437379Y-37505016D01*
X114293064Y-37693091D01*
X114174527Y-37898402D01*
X114174520Y-37898416D01*
X114083803Y-38117429D01*
X114022443Y-38346425D01*
X113991501Y-38581455D01*
X113991500Y-38581471D01*
X88000500Y-38581471D01*
X88000500Y-32502706D01*
X88000618Y-32497297D01*
X88003377Y-32434108D01*
X88017386Y-32113226D01*
X88018326Y-32102495D01*
X88040971Y-31930491D01*
X88799500Y-31930491D01*
X88799500Y-32269508D01*
X88832729Y-32606901D01*
X88898870Y-32939410D01*
X88997284Y-33263841D01*
X89127024Y-33577060D01*
X89127026Y-33577065D01*
X89286831Y-33876039D01*
X89286842Y-33876057D01*
X89475184Y-34157930D01*
X89475194Y-34157944D01*
X89690269Y-34420014D01*
X89929985Y-34659730D01*
X89929990Y-34659734D01*
X89929991Y-34659735D01*
X90192061Y-34874810D01*
X90473949Y-35063162D01*
X90473958Y-35063167D01*
X90473960Y-35063168D01*
X90772934Y-35222973D01*
X90772936Y-35222973D01*
X90772942Y-35222977D01*
X91086160Y-35352716D01*
X91410586Y-35451129D01*
X91743096Y-35517270D01*
X92080488Y-35550500D01*
X92080491Y-35550500D01*
X92419509Y-35550500D01*
X92419512Y-35550500D01*
X92756904Y-35517270D01*
X93089414Y-35451129D01*
X93413840Y-35352716D01*
X93727058Y-35222977D01*
X94026051Y-35063162D01*
X94307939Y-34874810D01*
X94570009Y-34659735D01*
X94809735Y-34420009D01*
X95024810Y-34157939D01*
X95213162Y-33876051D01*
X95372977Y-33577058D01*
X95502716Y-33263840D01*
X95601129Y-32939414D01*
X95602904Y-32930491D01*
X138299500Y-32930491D01*
X138299500Y-33269508D01*
X138332729Y-33606901D01*
X138398870Y-33939410D01*
X138497284Y-34263841D01*
X138627024Y-34577060D01*
X138627026Y-34577065D01*
X138786831Y-34876039D01*
X138786842Y-34876057D01*
X138975184Y-35157930D01*
X138975194Y-35157944D01*
X139190269Y-35420014D01*
X139429985Y-35659730D01*
X139429990Y-35659734D01*
X139429991Y-35659735D01*
X139692061Y-35874810D01*
X139973949Y-36063162D01*
X139973958Y-36063167D01*
X139973960Y-36063168D01*
X140272934Y-36222973D01*
X140272936Y-36222973D01*
X140272942Y-36222977D01*
X140586160Y-36352716D01*
X140910586Y-36451129D01*
X141243096Y-36517270D01*
X141580488Y-36550500D01*
X141580491Y-36550500D01*
X141919509Y-36550500D01*
X141919512Y-36550500D01*
X142256904Y-36517270D01*
X142589414Y-36451129D01*
X142913840Y-36352716D01*
X143227058Y-36222977D01*
X143526051Y-36063162D01*
X143807939Y-35874810D01*
X144070009Y-35659735D01*
X144309735Y-35420009D01*
X144524810Y-35157939D01*
X144713162Y-34876051D01*
X144872977Y-34577058D01*
X145002716Y-34263840D01*
X145101129Y-33939414D01*
X145167270Y-33606904D01*
X145200500Y-33269512D01*
X145200500Y-32930488D01*
X145167270Y-32593096D01*
X145101129Y-32260586D01*
X145002716Y-31936160D01*
X144872977Y-31622942D01*
X144713162Y-31323949D01*
X144524810Y-31042061D01*
X144309735Y-30779991D01*
X144309734Y-30779990D01*
X144309730Y-30779985D01*
X144070014Y-30540269D01*
X143807944Y-30325194D01*
X143807943Y-30325193D01*
X143807939Y-30325190D01*
X143526051Y-30136838D01*
X143526046Y-30136835D01*
X143526039Y-30136831D01*
X143227065Y-29977026D01*
X143227060Y-29977024D01*
X142913841Y-29847284D01*
X142691984Y-29779985D01*
X142589414Y-29748871D01*
X142589411Y-29748870D01*
X142589410Y-29748870D01*
X142256901Y-29682729D01*
X142019199Y-29659318D01*
X141919512Y-29649500D01*
X141580488Y-29649500D01*
X141489738Y-29658437D01*
X141243098Y-29682729D01*
X140910589Y-29748870D01*
X140586158Y-29847284D01*
X140272939Y-29977024D01*
X140272934Y-29977026D01*
X139973960Y-30136831D01*
X139973942Y-30136842D01*
X139692069Y-30325184D01*
X139692055Y-30325194D01*
X139429985Y-30540269D01*
X139190269Y-30779985D01*
X138975194Y-31042055D01*
X138975184Y-31042069D01*
X138786842Y-31323942D01*
X138786831Y-31323960D01*
X138627026Y-31622934D01*
X138627024Y-31622939D01*
X138497284Y-31936158D01*
X138398870Y-32260589D01*
X138332729Y-32593098D01*
X138308437Y-32839738D01*
X138302183Y-32903252D01*
X138299500Y-32930491D01*
X95602904Y-32930491D01*
X95667270Y-32606904D01*
X95700500Y-32269512D01*
X95700500Y-31930488D01*
X95667270Y-31593096D01*
X95601129Y-31260586D01*
X95502716Y-30936160D01*
X95372977Y-30622942D01*
X95328787Y-30540269D01*
X95213168Y-30323960D01*
X95213167Y-30323958D01*
X95213162Y-30323949D01*
X95024810Y-30042061D01*
X94809735Y-29779991D01*
X94809734Y-29779990D01*
X94809730Y-29779985D01*
X94570014Y-29540269D01*
X94307944Y-29325194D01*
X94307943Y-29325193D01*
X94307939Y-29325190D01*
X94026051Y-29136838D01*
X94026046Y-29136835D01*
X94026039Y-29136831D01*
X93727065Y-28977026D01*
X93727060Y-28977024D01*
X93413841Y-28847284D01*
X93223382Y-28789509D01*
X93089414Y-28748871D01*
X93089411Y-28748870D01*
X93089410Y-28748870D01*
X92756901Y-28682729D01*
X92519199Y-28659318D01*
X92419512Y-28649500D01*
X92080488Y-28649500D01*
X91989738Y-28658437D01*
X91743098Y-28682729D01*
X91410589Y-28748870D01*
X91086158Y-28847284D01*
X90772939Y-28977024D01*
X90772934Y-28977026D01*
X90473960Y-29136831D01*
X90473942Y-29136842D01*
X90192069Y-29325184D01*
X90192055Y-29325194D01*
X89929985Y-29540269D01*
X89690269Y-29779985D01*
X89475194Y-30042055D01*
X89475184Y-30042069D01*
X89286842Y-30323942D01*
X89286831Y-30323960D01*
X89127026Y-30622934D01*
X89127024Y-30622939D01*
X88997284Y-30936158D01*
X88898870Y-31260589D01*
X88832729Y-31593098D01*
X88799500Y-31930491D01*
X88040971Y-31930491D01*
X88068153Y-31724021D01*
X88070025Y-31713405D01*
X88152649Y-31340709D01*
X88155440Y-31330295D01*
X88270230Y-30966227D01*
X88273917Y-30956095D01*
X88420003Y-30603412D01*
X88424561Y-30593638D01*
X88600822Y-30255045D01*
X88606217Y-30245700D01*
X88811325Y-29923744D01*
X88817515Y-29914905D01*
X89049896Y-29612060D01*
X89056834Y-29603791D01*
X89314726Y-29322352D01*
X89322352Y-29314726D01*
X89603791Y-29056834D01*
X89612060Y-29049896D01*
X89914905Y-28817515D01*
X89923744Y-28811325D01*
X90245700Y-28606217D01*
X90255045Y-28600822D01*
X90593638Y-28424561D01*
X90603412Y-28420003D01*
X90956095Y-28273917D01*
X90966227Y-28270230D01*
X91330295Y-28155440D01*
X91340709Y-28152649D01*
X91713405Y-28070025D01*
X91724025Y-28068152D01*
X92102495Y-28018326D01*
X92113226Y-28017386D01*
X92497297Y-28000617D01*
X92502706Y-28000500D01*
X92565892Y-28000500D01*
X142434108Y-28000500D01*
X142497294Y-28000500D01*
X142502702Y-28000617D01*
G37*
%TD.AperFunction*%
%TA.AperFunction,Conductor*%
G36*
X135675203Y-47692752D02*
G01*
X135681681Y-47698784D01*
X136611716Y-48628819D01*
X136645201Y-48690142D01*
X136640217Y-48759834D01*
X136598345Y-48815767D01*
X136532881Y-48840184D01*
X136524035Y-48840500D01*
X135594000Y-48840500D01*
X135526961Y-48820815D01*
X135481206Y-48768011D01*
X135470000Y-48716500D01*
X135470000Y-48290000D01*
X134553012Y-48290000D01*
X134585925Y-48232993D01*
X134620000Y-48105826D01*
X134620000Y-47974174D01*
X134585925Y-47847007D01*
X134553012Y-47790000D01*
X135470000Y-47790000D01*
X135470000Y-47786465D01*
X135489685Y-47719426D01*
X135542489Y-47673671D01*
X135611647Y-47663727D01*
X135675203Y-47692752D01*
G37*
%TD.AperFunction*%
%TD*%
M02*
