%TF.GenerationSoftware,KiCad,Pcbnew,9.0.7-9.0.7~ubuntu22.04.1*%
%TF.CreationDate,2026-01-25T16:59:34+05:30*%
%TF.ProjectId,ESP01-MOTOR_CTRL - TWIN_NODE,45535030-312d-44d4-9f54-4f525f435452,rev?*%
%TF.SameCoordinates,Original*%
%TF.FileFunction,Soldermask,Top*%
%TF.FilePolarity,Negative*%
%FSLAX46Y46*%
G04 Gerber Fmt 4.6, Leading zero omitted, Abs format (unit mm)*
G04 Created by KiCad (PCBNEW 9.0.7-9.0.7~ubuntu22.04.1) date 2026-01-25 16:59:34*
%MOMM*%
%LPD*%
G01*
G04 APERTURE LIST*
G04 Aperture macros list*
%AMRoundRect*
0 Rectangle with rounded corners*
0 $1 Rounding radius*
0 $2 $3 $4 $5 $6 $7 $8 $9 X,Y pos of 4 corners*
0 Add a 4 corners polygon primitive as box body*
4,1,4,$2,$3,$4,$5,$6,$7,$8,$9,$2,$3,0*
0 Add four circle primitives for the rounded corners*
1,1,$1+$1,$2,$3*
1,1,$1+$1,$4,$5*
1,1,$1+$1,$6,$7*
1,1,$1+$1,$8,$9*
0 Add four rect primitives between the rounded corners*
20,1,$1+$1,$2,$3,$4,$5,0*
20,1,$1+$1,$4,$5,$6,$7,0*
20,1,$1+$1,$6,$7,$8,$9,0*
20,1,$1+$1,$8,$9,$2,$3,0*%
G04 Aperture macros list end*
%ADD10C,1.854000*%
%ADD11C,3.320000*%
%ADD12RoundRect,0.102000X0.486000X0.401000X-0.486000X0.401000X-0.486000X-0.401000X0.486000X-0.401000X0*%
%ADD13C,0.800000*%
%ADD14C,6.400000*%
%ADD15RoundRect,0.250000X0.650000X-1.000000X0.650000X1.000000X-0.650000X1.000000X-0.650000X-1.000000X0*%
%ADD16RoundRect,0.250000X0.450000X-0.350000X0.450000X0.350000X-0.450000X0.350000X-0.450000X-0.350000X0*%
%ADD17RoundRect,0.250001X-1.149999X-1.149999X1.149999X-1.149999X1.149999X1.149999X-1.149999X1.149999X0*%
%ADD18C,2.800000*%
%ADD19RoundRect,0.750000X0.750000X0.750000X-0.750000X0.750000X-0.750000X-0.750000X0.750000X-0.750000X0*%
%ADD20C,3.000000*%
%ADD21C,1.800000*%
%ADD22C,2.500000*%
%ADD23RoundRect,0.250000X0.450000X-0.325000X0.450000X0.325000X-0.450000X0.325000X-0.450000X-0.325000X0*%
%ADD24R,1.700000X1.700000*%
%ADD25C,1.700000*%
%ADD26O,1.700000X2.000000*%
%ADD27RoundRect,0.250000X-0.600000X-0.750000X0.600000X-0.750000X0.600000X0.750000X-0.600000X0.750000X0*%
%ADD28R,1.250000X1.000000*%
%ADD29RoundRect,0.250000X-0.475000X0.337500X-0.475000X-0.337500X0.475000X-0.337500X0.475000X0.337500X0*%
%ADD30RoundRect,0.250000X-0.450000X0.350000X-0.450000X-0.350000X0.450000X-0.350000X0.450000X0.350000X0*%
%ADD31RoundRect,0.102000X-0.625000X-0.325000X0.625000X-0.325000X0.625000X0.325000X-0.625000X0.325000X0*%
G04 APERTURE END LIST*
D10*
%TO.C,K1*%
X101800000Y-61500000D03*
X112000000Y-61500000D03*
D11*
X106900000Y-64000000D03*
X98000000Y-48800000D03*
X115800000Y-38700000D03*
X115800000Y-46300000D03*
%TD*%
D12*
%TO.C,M1*%
X130500000Y-63750000D03*
X130500000Y-61819600D03*
X128468000Y-62784800D03*
%TD*%
D13*
%TO.C,H4*%
X139350000Y-109250000D03*
X140052944Y-107552944D03*
X140052944Y-110947056D03*
X141750000Y-106850000D03*
D14*
X141750000Y-109250000D03*
D13*
X141750000Y-111650000D03*
X143447056Y-107552944D03*
X143447056Y-110947056D03*
X144150000Y-109250000D03*
%TD*%
D15*
%TO.C,D2*%
X124500000Y-65500000D03*
X124500000Y-61500000D03*
%TD*%
D16*
%TO.C,R2*%
X132000000Y-40500000D03*
X132000000Y-42500000D03*
%TD*%
D17*
%TO.C,J3*%
X124000000Y-109000000D03*
D18*
X129000000Y-109000000D03*
%TD*%
D13*
%TO.C,H1*%
X89850000Y-32100000D03*
X90552944Y-30402944D03*
X90552944Y-33797056D03*
X92250000Y-29700000D03*
D14*
X92250000Y-32100000D03*
D13*
X92250000Y-34500000D03*
X93947056Y-30402944D03*
X93947056Y-33797056D03*
X94650000Y-32100000D03*
%TD*%
D19*
%TO.C,F1*%
X129620000Y-99500000D03*
X122000000Y-99500000D03*
D20*
X103030000Y-99500000D03*
X95410000Y-99500000D03*
%TD*%
D17*
%TO.C,J1*%
X100750000Y-109500000D03*
D18*
X105750000Y-109500000D03*
%TD*%
D13*
%TO.C,H2*%
X139350000Y-33100000D03*
X140052944Y-31402944D03*
X140052944Y-34797056D03*
X141750000Y-30700000D03*
D14*
X141750000Y-33100000D03*
D13*
X141750000Y-35500000D03*
X143447056Y-31402944D03*
X143447056Y-34797056D03*
X144150000Y-33100000D03*
%TD*%
D21*
%TO.C,RV1*%
X135500000Y-79250000D03*
X139500000Y-71750000D03*
%TD*%
D22*
%TO.C,3.3V*%
X138500000Y-86700000D03*
%TD*%
D23*
%TO.C,D1*%
X138500000Y-55550000D03*
X138500000Y-53500000D03*
%TD*%
D13*
%TO.C,H3*%
X89850000Y-109250000D03*
X90552944Y-107552944D03*
X90552944Y-110947056D03*
X92250000Y-106850000D03*
D14*
X92250000Y-109250000D03*
D13*
X92250000Y-111650000D03*
X93947056Y-107552944D03*
X93947056Y-110947056D03*
X94650000Y-109250000D03*
%TD*%
D22*
%TO.C,RX*%
X138500000Y-95800000D03*
%TD*%
D24*
%TO.C,J2*%
X134120000Y-48040000D03*
D25*
X134120000Y-45500000D03*
X131580000Y-48040000D03*
X131580000Y-45500000D03*
X129040000Y-48040000D03*
X129040000Y-45500000D03*
X126500000Y-48040000D03*
X126500000Y-45500000D03*
%TD*%
D26*
%TO.C,PS1*%
X126500000Y-90000000D03*
X126500000Y-75000000D03*
X97420000Y-85000000D03*
D27*
X97420000Y-80000000D03*
%TD*%
D28*
%TO.C,SW1*%
X134625000Y-63000000D03*
X142375000Y-63000000D03*
%TD*%
D29*
%TO.C,C2*%
X134000000Y-53425000D03*
X134000000Y-55500000D03*
%TD*%
%TO.C,C1*%
X126000000Y-53425000D03*
X126000000Y-55500000D03*
%TD*%
D22*
%TO.C,GND*%
X138500000Y-100350000D03*
%TD*%
D30*
%TO.C,R1*%
X128500000Y-40500000D03*
X128500000Y-42500000D03*
%TD*%
D22*
%TO.C,TX*%
X138500000Y-91250000D03*
%TD*%
D31*
%TO.C,IC1*%
X129000000Y-53620000D03*
X129000000Y-54560000D03*
X129000000Y-55500000D03*
X131500000Y-55500000D03*
X131500000Y-53620000D03*
%TD*%
M02*
