%TF.GenerationSoftware,KiCad,Pcbnew,9.0.7-9.0.7~ubuntu22.04.1*%
%TF.CreationDate,2026-01-25T16:59:33+05:30*%
%TF.ProjectId,ESP01-MOTOR_CTRL - TWIN_NODE,45535030-312d-44d4-9f54-4f525f435452,rev?*%
%TF.SameCoordinates,Original*%
%TF.FileFunction,Copper,L1,Top*%
%TF.FilePolarity,Positive*%
%FSLAX46Y46*%
G04 Gerber Fmt 4.6, Leading zero omitted, Abs format (unit mm)*
G04 Created by KiCad (PCBNEW 9.0.7-9.0.7~ubuntu22.04.1) date 2026-01-25 16:59:33*
%MOMM*%
%LPD*%
G01*
G04 APERTURE LIST*
G04 Aperture macros list*
%AMRoundRect*
0 Rectangle with rounded corners*
0 $1 Rounding radius*
0 $2 $3 $4 $5 $6 $7 $8 $9 X,Y pos of 4 corners*
0 Add a 4 corners polygon primitive as box body*
4,1,4,$2,$3,$4,$5,$6,$7,$8,$9,$2,$3,0*
0 Add four circle primitives for the rounded corners*
1,1,$1+$1,$2,$3*
1,1,$1+$1,$4,$5*
1,1,$1+$1,$6,$7*
1,1,$1+$1,$8,$9*
0 Add four rect primitives between the rounded corners*
20,1,$1+$1,$2,$3,$4,$5,0*
20,1,$1+$1,$4,$5,$6,$7,0*
20,1,$1+$1,$6,$7,$8,$9,0*
20,1,$1+$1,$8,$9,$2,$3,0*%
G04 Aperture macros list end*
%TA.AperFunction,EtchedComponent*%
%ADD10C,0.200000*%
%TD*%
%TA.AperFunction,ComponentPad*%
%ADD11C,1.650000*%
%TD*%
%TA.AperFunction,ComponentPad*%
%ADD12C,3.116000*%
%TD*%
%TA.AperFunction,SMDPad,CuDef*%
%ADD13R,0.972000X0.802000*%
%TD*%
%TA.AperFunction,ComponentPad*%
%ADD14C,0.800000*%
%TD*%
%TA.AperFunction,ComponentPad*%
%ADD15C,6.400000*%
%TD*%
%TA.AperFunction,SMDPad,CuDef*%
%ADD16RoundRect,0.250000X0.650000X-1.000000X0.650000X1.000000X-0.650000X1.000000X-0.650000X-1.000000X0*%
%TD*%
%TA.AperFunction,SMDPad,CuDef*%
%ADD17RoundRect,0.250000X0.450000X-0.350000X0.450000X0.350000X-0.450000X0.350000X-0.450000X-0.350000X0*%
%TD*%
%TA.AperFunction,ComponentPad*%
%ADD18RoundRect,0.250001X-1.149999X-1.149999X1.149999X-1.149999X1.149999X1.149999X-1.149999X1.149999X0*%
%TD*%
%TA.AperFunction,ComponentPad*%
%ADD19C,2.800000*%
%TD*%
%TA.AperFunction,ComponentPad*%
%ADD20RoundRect,0.750000X0.750000X0.750000X-0.750000X0.750000X-0.750000X-0.750000X0.750000X-0.750000X0*%
%TD*%
%TA.AperFunction,ComponentPad*%
%ADD21C,3.000000*%
%TD*%
%TA.AperFunction,ComponentPad*%
%ADD22C,1.800000*%
%TD*%
%TA.AperFunction,SMDPad,CuDef*%
%ADD23C,2.500000*%
%TD*%
%TA.AperFunction,SMDPad,CuDef*%
%ADD24RoundRect,0.250000X0.450000X-0.325000X0.450000X0.325000X-0.450000X0.325000X-0.450000X-0.325000X0*%
%TD*%
%TA.AperFunction,ComponentPad*%
%ADD25R,1.700000X1.700000*%
%TD*%
%TA.AperFunction,ComponentPad*%
%ADD26C,1.700000*%
%TD*%
%TA.AperFunction,ComponentPad*%
%ADD27O,1.700000X2.000000*%
%TD*%
%TA.AperFunction,ComponentPad*%
%ADD28RoundRect,0.250000X-0.600000X-0.750000X0.600000X-0.750000X0.600000X0.750000X-0.600000X0.750000X0*%
%TD*%
%TA.AperFunction,SMDPad,CuDef*%
%ADD29R,1.250000X1.000000*%
%TD*%
%TA.AperFunction,SMDPad,CuDef*%
%ADD30RoundRect,0.250000X-0.475000X0.337500X-0.475000X-0.337500X0.475000X-0.337500X0.475000X0.337500X0*%
%TD*%
%TA.AperFunction,SMDPad,CuDef*%
%ADD31RoundRect,0.250000X-0.450000X0.350000X-0.450000X-0.350000X0.450000X-0.350000X0.450000X0.350000X0*%
%TD*%
%TA.AperFunction,SMDPad,CuDef*%
%ADD32R,1.250000X0.650000*%
%TD*%
%TA.AperFunction,ViaPad*%
%ADD33C,0.600000*%
%TD*%
%TA.AperFunction,Conductor*%
%ADD34C,1.500000*%
%TD*%
%TA.AperFunction,Conductor*%
%ADD35C,0.700000*%
%TD*%
%TA.AperFunction,Conductor*%
%ADD36C,0.400000*%
%TD*%
G04 APERTURE END LIST*
D10*
%TO.C,REF\u002A\u002A*%
X146160000Y-43840000D02*
X146426322Y-43430736D01*
X142500000Y-37360000D02*
X142810000Y-37360000D01*
X142310000Y-42495000D02*
X142820000Y-42585000D01*
X139140000Y-43840000D02*
X138873678Y-43430736D01*
%TD*%
D11*
%TO.P,K1,C1*%
%TO.N,/5V*%
X101800000Y-61500000D03*
%TO.P,K1,C2*%
%TO.N,Net-(D2-K)*%
X112000000Y-61500000D03*
D12*
%TO.P,K1,COM1*%
%TO.N,NEUTRAL*%
X106900000Y-64000000D03*
%TO.P,K1,COM2*%
X98000000Y-48800000D03*
%TO.P,K1,NC*%
%TO.N,unconnected-(K1-PadNC)*%
X115800000Y-38700000D03*
%TO.P,K1,NO*%
%TO.N,NEUTRAL_BREAK*%
X115800000Y-46300000D03*
%TD*%
D13*
%TO.P,M1,1*%
%TO.N,GPIO2*%
X130500000Y-63750000D03*
%TO.P,M1,2*%
%TO.N,GND*%
X130500000Y-61819600D03*
%TO.P,M1,3*%
%TO.N,Net-(D2-K)*%
X128468000Y-62784800D03*
%TD*%
D14*
%TO.P,H4,1*%
%TO.N,N/C*%
X139350000Y-109250000D03*
X140052944Y-107552944D03*
X140052944Y-110947056D03*
X141750000Y-106850000D03*
D15*
X141750000Y-109250000D03*
D14*
X141750000Y-111650000D03*
X143447056Y-107552944D03*
X143447056Y-110947056D03*
X144150000Y-109250000D03*
%TD*%
D16*
%TO.P,D2,1,K*%
%TO.N,Net-(D2-K)*%
X124500000Y-65500000D03*
%TO.P,D2,2,A*%
%TO.N,/5V*%
X124500000Y-61500000D03*
%TD*%
D17*
%TO.P,R2,2*%
%TO.N,Net-(D1-A)*%
X132000000Y-40500000D03*
%TO.P,R2,1*%
%TO.N,GPIO0*%
X132000000Y-42500000D03*
%TD*%
D18*
%TO.P,J3,1,Pin_1*%
%TO.N,NEUTRAL*%
X124000000Y-109000000D03*
D19*
%TO.P,J3,2,Pin_2*%
%TO.N,LIVE*%
X129000000Y-109000000D03*
%TD*%
D14*
%TO.P,H1,1*%
%TO.N,N/C*%
X89850000Y-32100000D03*
X90552944Y-30402944D03*
X90552944Y-33797056D03*
X92250000Y-29700000D03*
D15*
X92250000Y-32100000D03*
D14*
X92250000Y-34500000D03*
X93947056Y-30402944D03*
X93947056Y-33797056D03*
X94650000Y-32100000D03*
%TD*%
D20*
%TO.P,F1,1*%
%TO.N,LIVE*%
X129620000Y-99500000D03*
X122000000Y-99500000D03*
D21*
%TO.P,F1,2*%
%TO.N,FUSED_LIVE*%
X103030000Y-99500000D03*
X95410000Y-99500000D03*
%TD*%
D18*
%TO.P,J1,1,Pin_1*%
%TO.N,LIVE*%
X100750000Y-109500000D03*
D19*
%TO.P,J1,2,Pin_2*%
%TO.N,NEUTRAL_BREAK*%
X105750000Y-109500000D03*
%TD*%
D14*
%TO.P,H2,1*%
%TO.N,N/C*%
X139350000Y-33100000D03*
X140052944Y-31402944D03*
X140052944Y-34797056D03*
X141750000Y-30700000D03*
D15*
X141750000Y-33100000D03*
D14*
X141750000Y-35500000D03*
X143447056Y-31402944D03*
X143447056Y-34797056D03*
X144150000Y-33100000D03*
%TD*%
D22*
%TO.P,RV1,1*%
%TO.N,/5V*%
X135500000Y-79250000D03*
%TO.P,RV1,2*%
%TO.N,GND*%
X139500000Y-71750000D03*
%TD*%
D23*
%TO.P,3.3V,1,1*%
%TO.N,/3.3V*%
X138500000Y-86700000D03*
%TD*%
D24*
%TO.P,D1,1,K*%
%TO.N,GND*%
X138500000Y-55550000D03*
%TO.P,D1,2,A*%
%TO.N,Net-(D1-A)*%
X138500000Y-53500000D03*
%TD*%
D14*
%TO.P,H3,1*%
%TO.N,N/C*%
X89850000Y-109250000D03*
X90552944Y-107552944D03*
X90552944Y-110947056D03*
X92250000Y-106850000D03*
D15*
X92250000Y-109250000D03*
D14*
X92250000Y-111650000D03*
X93947056Y-107552944D03*
X93947056Y-110947056D03*
X94650000Y-109250000D03*
%TD*%
D23*
%TO.P,RX,1,1*%
%TO.N,RX*%
X138500000Y-95800000D03*
%TD*%
D25*
%TO.P,J2,1,Pin_1*%
%TO.N,GND*%
X134120000Y-48040000D03*
D26*
%TO.P,J2,2,Pin_2*%
%TO.N,TX*%
X134120000Y-45500000D03*
%TO.P,J2,3,Pin_3*%
%TO.N,GPIO2*%
X131580000Y-48040000D03*
%TO.P,J2,4,Pin_4*%
%TO.N,/3.3V*%
X131580000Y-45500000D03*
%TO.P,J2,5,Pin_5*%
%TO.N,GPIO0*%
X129040000Y-48040000D03*
%TO.P,J2,6,Pin_6*%
%TO.N,/RST*%
X129040000Y-45500000D03*
%TO.P,J2,7,Pin_7*%
%TO.N,RX*%
X126500000Y-48040000D03*
%TO.P,J2,8,Pin_8*%
%TO.N,/3.3V*%
X126500000Y-45500000D03*
%TD*%
D27*
%TO.P,PS1,4,+Vout*%
%TO.N,/5V*%
X126500000Y-90000000D03*
%TO.P,PS1,3,-Vout*%
%TO.N,GND*%
X126500000Y-75000000D03*
%TO.P,PS1,2,AC/N*%
%TO.N,NEUTRAL*%
X97420000Y-85000000D03*
D28*
%TO.P,PS1,1,AC/L*%
%TO.N,FUSED_LIVE*%
X97420000Y-80000000D03*
%TD*%
D29*
%TO.P,SW1,1,1*%
%TO.N,/RST*%
X134625000Y-63000000D03*
%TO.P,SW1,2,2*%
%TO.N,GND*%
X142375000Y-63000000D03*
%TD*%
D30*
%TO.P,C2,1*%
%TO.N,/3.3V*%
X134000000Y-53425000D03*
%TO.P,C2,2*%
%TO.N,GND*%
X134000000Y-55500000D03*
%TD*%
%TO.P,C1,1*%
%TO.N,/5V*%
X126000000Y-53425000D03*
%TO.P,C1,2*%
%TO.N,GND*%
X126000000Y-55500000D03*
%TD*%
D23*
%TO.P,GND,1,1*%
%TO.N,GND*%
X138500000Y-100350000D03*
%TD*%
D31*
%TO.P,R1,1*%
%TO.N,/3.3V*%
X128500000Y-40500000D03*
%TO.P,R1,2*%
%TO.N,/RST*%
X128500000Y-42500000D03*
%TD*%
D23*
%TO.P,TX,1,1*%
%TO.N,TX*%
X138500000Y-91250000D03*
%TD*%
D32*
%TO.P,IC1,1,VIN*%
%TO.N,/5V*%
X129000000Y-53620000D03*
%TO.P,IC1,2,GND*%
%TO.N,GND*%
X129000000Y-54560000D03*
%TO.P,IC1,3,EN*%
%TO.N,/5V*%
X129000000Y-55500000D03*
%TO.P,IC1,4,SNS*%
%TO.N,unconnected-(IC1-SNS-Pad4)*%
X131500000Y-55500000D03*
%TO.P,IC1,5,VOUT*%
%TO.N,/3.3V*%
X131500000Y-53620000D03*
%TD*%
D33*
%TO.N,/3.3V*%
X133750000Y-51000000D03*
X131750000Y-51000000D03*
%TO.N,RX*%
X146000000Y-92250000D03*
%TO.N,TX*%
X146700000Y-88000000D03*
%TO.N,/RST*%
X132250000Y-63000000D03*
%TD*%
D34*
%TO.N,NEUTRAL_BREAK*%
X97000000Y-106250000D02*
X102500000Y-106250000D01*
X105750000Y-109500000D02*
X102500000Y-106250000D01*
X91250000Y-100500000D02*
X97000000Y-106250000D01*
X115750000Y-46250000D02*
X97000000Y-46250000D01*
X115800000Y-46300000D02*
X115750000Y-46250000D01*
X91250000Y-52000000D02*
X91250000Y-100500000D01*
X97000000Y-46250000D02*
X91250000Y-52000000D01*
%TO.N,LIVE*%
X108750000Y-112750000D02*
X101500000Y-112750000D01*
X122000000Y-99500000D02*
X108750000Y-112750000D01*
X101500000Y-112750000D02*
X100750000Y-112000000D01*
X100750000Y-112000000D02*
X100750000Y-109500000D01*
D35*
%TO.N,/5V*%
X126000000Y-53425000D02*
X124500000Y-54925000D01*
X124500000Y-54925000D02*
X124500000Y-61500000D01*
X126500000Y-90000000D02*
X112750000Y-90000000D01*
X112750000Y-90000000D02*
X110000000Y-87250000D01*
X110000000Y-87250000D02*
X110000000Y-60124000D01*
X103176000Y-60124000D02*
X110000000Y-60124000D01*
X129000000Y-57000000D02*
X129000000Y-55500000D01*
%TO.N,/3.3V*%
X134000000Y-53425000D02*
X134000000Y-51250000D01*
X134000000Y-51250000D02*
X133750000Y-51000000D01*
X130500000Y-52000000D02*
X129750000Y-51250000D01*
X130500000Y-52000000D02*
X131500000Y-51000000D01*
X131500000Y-51000000D02*
X131750000Y-51000000D01*
%TO.N,/5V*%
X129000000Y-57000000D02*
X124500000Y-61500000D01*
X101800000Y-61500000D02*
X103176000Y-60124000D01*
X123124000Y-60124000D02*
X124500000Y-61500000D01*
X110000000Y-60124000D02*
X123124000Y-60124000D01*
D36*
%TO.N,Net-(D2-K)*%
X128468000Y-64032000D02*
X128468000Y-62784800D01*
%TO.N,GPIO2*%
X132874000Y-61126000D02*
X130500000Y-63500000D01*
X130500000Y-63500000D02*
X130500000Y-63750000D01*
D35*
%TO.N,/3.3V*%
X128500000Y-40500000D02*
X126500000Y-42500000D01*
X126500000Y-42500000D02*
X126500000Y-45500000D01*
D36*
%TO.N,RX*%
X146000000Y-92250000D02*
X142450000Y-95800000D01*
X142450000Y-95800000D02*
X138500000Y-95800000D01*
%TO.N,TX*%
X138500000Y-91250000D02*
X143450000Y-91250000D01*
X143450000Y-91250000D02*
X146700000Y-88000000D01*
%TO.N,/RST*%
X134625000Y-63000000D02*
X132250000Y-63000000D01*
D35*
%TO.N,/3.3V*%
X131500000Y-53620000D02*
X131500000Y-53000000D01*
X131500000Y-53000000D02*
X130500000Y-52000000D01*
X126750000Y-51250000D02*
X129750000Y-51250000D01*
X124750000Y-49250000D02*
X126750000Y-51250000D01*
X126500000Y-45500000D02*
X124750000Y-47250000D01*
X124750000Y-47250000D02*
X124750000Y-49250000D01*
X144250000Y-59250000D02*
X143250000Y-58250000D01*
X143250000Y-58250000D02*
X137500000Y-58250000D01*
X135425000Y-53425000D02*
X136250000Y-54250000D01*
X136250000Y-57000000D02*
X137500000Y-58250000D01*
X134000000Y-53425000D02*
X135425000Y-53425000D01*
X136250000Y-54250000D02*
X136250000Y-57000000D01*
X144250000Y-80950000D02*
X144250000Y-59250000D01*
X138500000Y-86700000D02*
X144250000Y-80950000D01*
D36*
%TO.N,GPIO0*%
X132000000Y-42500000D02*
X130329000Y-44171000D01*
X130329000Y-44171000D02*
X130329000Y-46751000D01*
X130329000Y-46751000D02*
X129040000Y-48040000D01*
%TO.N,/RST*%
X128500000Y-42500000D02*
X128500000Y-44960000D01*
X128500000Y-44960000D02*
X129040000Y-45500000D01*
%TO.N,Net-(D1-A)*%
X138500000Y-41750000D02*
X137250000Y-40500000D01*
X132000000Y-40500000D02*
X137250000Y-40500000D01*
X138500000Y-53500000D02*
X138500000Y-41750000D01*
%TO.N,Net-(D2-K)*%
X124500000Y-65500000D02*
X116000000Y-65500000D01*
X116000000Y-65500000D02*
X112000000Y-61500000D01*
X128468000Y-64032000D02*
X127000000Y-65500000D01*
X127000000Y-65500000D02*
X124500000Y-65500000D01*
%TO.N,GPIO2*%
X131580000Y-48040000D02*
X132874000Y-49334000D01*
X132874000Y-49334000D02*
X132874000Y-61126000D01*
D35*
%TO.N,/5V*%
X126000000Y-53425000D02*
X128805000Y-53425000D01*
X128805000Y-53425000D02*
X129000000Y-53620000D01*
D34*
%TO.N,FUSED_LIVE*%
X103030000Y-99500000D02*
X95410000Y-99500000D01*
%TO.N,LIVE*%
X122000000Y-99500000D02*
X129620000Y-99500000D01*
X129000000Y-109000000D02*
X129000000Y-100120000D01*
X129000000Y-100120000D02*
X129620000Y-99500000D01*
%TD*%
%TA.AperFunction,Conductor*%
%TO.N,GND*%
G36*
X142502702Y-28000617D02*
G01*
X142886771Y-28017386D01*
X142897506Y-28018326D01*
X143275971Y-28068152D01*
X143286597Y-28070025D01*
X143659284Y-28152648D01*
X143669710Y-28155442D01*
X144033765Y-28270227D01*
X144043911Y-28273920D01*
X144396578Y-28420000D01*
X144406369Y-28424566D01*
X144744942Y-28600816D01*
X144754309Y-28606223D01*
X144978221Y-28748871D01*
X145076244Y-28811318D01*
X145085105Y-28817523D01*
X145387930Y-29049889D01*
X145396217Y-29056843D01*
X145677635Y-29314715D01*
X145685284Y-29322364D01*
X145943156Y-29603782D01*
X145950110Y-29612069D01*
X146182476Y-29914894D01*
X146188681Y-29923755D01*
X146393775Y-30245689D01*
X146399183Y-30255057D01*
X146575430Y-30593623D01*
X146580002Y-30603427D01*
X146726075Y-30956078D01*
X146729775Y-30966244D01*
X146844554Y-31330278D01*
X146847354Y-31340727D01*
X146929971Y-31713389D01*
X146931849Y-31724042D01*
X146981671Y-32102473D01*
X146982614Y-32113249D01*
X146999382Y-32497297D01*
X146999500Y-32502706D01*
X146999500Y-43268628D01*
X146979815Y-43335667D01*
X146927011Y-43381422D01*
X146857853Y-43391366D01*
X146794297Y-43362341D01*
X146765052Y-43319422D01*
X146763360Y-43320283D01*
X146717857Y-43230770D01*
X146717855Y-43230767D01*
X146656170Y-43162130D01*
X146656165Y-43162126D01*
X146578818Y-43111793D01*
X146578817Y-43111792D01*
X146578816Y-43111792D01*
X146491071Y-43083192D01*
X146491069Y-43083191D01*
X146491068Y-43083191D01*
X146398913Y-43078276D01*
X146398909Y-43078277D01*
X146308624Y-43097379D01*
X146226356Y-43139200D01*
X146226352Y-43139202D01*
X146157716Y-43200886D01*
X146157714Y-43200889D01*
X145841057Y-43687503D01*
X145841056Y-43687506D01*
X145812455Y-43775252D01*
X145807539Y-43867409D01*
X145807540Y-43867411D01*
X145826643Y-43957696D01*
X145868464Y-44039966D01*
X145868466Y-44039969D01*
X145930150Y-44108604D01*
X145930154Y-44108608D01*
X146007506Y-44158944D01*
X146095251Y-44187544D01*
X146187409Y-44192460D01*
X146277697Y-44173356D01*
X146359967Y-44131535D01*
X146428608Y-44069846D01*
X146745266Y-43583230D01*
X146757604Y-43545375D01*
X146797094Y-43487737D01*
X146861478Y-43460597D01*
X146930313Y-43472575D01*
X146981746Y-43519866D01*
X146999500Y-43583802D01*
X146999500Y-87348731D01*
X146979815Y-87415770D01*
X146927011Y-87461525D01*
X146857853Y-87471469D01*
X146843407Y-87468506D01*
X146801284Y-87457219D01*
X146772475Y-87449500D01*
X146627525Y-87449500D01*
X146507037Y-87481785D01*
X146487511Y-87487017D01*
X146361988Y-87559488D01*
X146361982Y-87559493D01*
X146259493Y-87661982D01*
X146259488Y-87661988D01*
X146187017Y-87787511D01*
X146187014Y-87787518D01*
X146163269Y-87876133D01*
X146131176Y-87931719D01*
X143299716Y-90763181D01*
X143238393Y-90796666D01*
X143212035Y-90799500D01*
X140021434Y-90799500D01*
X139954395Y-90779815D01*
X139908640Y-90727011D01*
X139903503Y-90713819D01*
X139890566Y-90674003D01*
X139783342Y-90463566D01*
X139644517Y-90272490D01*
X139477510Y-90105483D01*
X139286433Y-89966657D01*
X139075996Y-89859433D01*
X138851368Y-89786446D01*
X138618097Y-89749500D01*
X138618092Y-89749500D01*
X138381908Y-89749500D01*
X138381903Y-89749500D01*
X138148631Y-89786446D01*
X137924003Y-89859433D01*
X137713566Y-89966657D01*
X137604550Y-90045862D01*
X137522490Y-90105483D01*
X137522488Y-90105485D01*
X137522487Y-90105485D01*
X137355485Y-90272487D01*
X137355485Y-90272488D01*
X137355483Y-90272490D01*
X137295862Y-90354550D01*
X137216657Y-90463566D01*
X137109433Y-90674003D01*
X137036446Y-90898631D01*
X136999500Y-91131902D01*
X136999500Y-91368097D01*
X137036446Y-91601368D01*
X137109433Y-91825996D01*
X137153249Y-91911988D01*
X137216657Y-92036433D01*
X137355483Y-92227510D01*
X137522490Y-92394517D01*
X137713567Y-92533343D01*
X137812991Y-92584002D01*
X137924003Y-92640566D01*
X137924005Y-92640566D01*
X137924008Y-92640568D01*
X138044412Y-92679689D01*
X138148631Y-92713553D01*
X138381903Y-92750500D01*
X138381908Y-92750500D01*
X138618097Y-92750500D01*
X138851368Y-92713553D01*
X139075992Y-92640568D01*
X139286433Y-92533343D01*
X139477510Y-92394517D01*
X139644517Y-92227510D01*
X139783343Y-92036433D01*
X139890568Y-91825992D01*
X139903503Y-91786179D01*
X139942941Y-91728506D01*
X140007300Y-91701308D01*
X140021434Y-91700500D01*
X143509308Y-91700500D01*
X143509309Y-91700500D01*
X143599673Y-91676286D01*
X143623887Y-91669799D01*
X143726614Y-91610489D01*
X146768281Y-88568820D01*
X146782165Y-88560804D01*
X146791426Y-88550619D01*
X146823866Y-88536728D01*
X146843411Y-88531492D01*
X146913260Y-88533157D01*
X146971122Y-88572322D01*
X146998624Y-88636551D01*
X146999500Y-88651268D01*
X146999500Y-109997293D01*
X146999382Y-110002702D01*
X146982614Y-110386750D01*
X146981671Y-110397526D01*
X146931849Y-110775957D01*
X146929971Y-110786610D01*
X146847354Y-111159272D01*
X146844554Y-111169721D01*
X146729775Y-111533755D01*
X146726075Y-111543921D01*
X146580002Y-111896572D01*
X146575430Y-111906376D01*
X146399183Y-112244942D01*
X146393775Y-112254310D01*
X146188681Y-112576244D01*
X146182476Y-112585105D01*
X145950110Y-112887930D01*
X145943156Y-112896217D01*
X145685284Y-113177635D01*
X145677635Y-113185284D01*
X145396217Y-113443156D01*
X145387930Y-113450110D01*
X145085105Y-113682476D01*
X145076244Y-113688681D01*
X144754310Y-113893775D01*
X144744942Y-113899183D01*
X144406376Y-114075430D01*
X144396572Y-114080002D01*
X144043921Y-114226075D01*
X144033755Y-114229775D01*
X143669721Y-114344554D01*
X143659272Y-114347354D01*
X143286610Y-114429971D01*
X143275957Y-114431849D01*
X142897526Y-114481671D01*
X142886750Y-114482614D01*
X142502703Y-114499382D01*
X142497294Y-114499500D01*
X92502706Y-114499500D01*
X92497297Y-114499382D01*
X92113249Y-114482614D01*
X92102473Y-114481671D01*
X91724042Y-114431849D01*
X91713389Y-114429971D01*
X91340727Y-114347354D01*
X91330278Y-114344554D01*
X90966244Y-114229775D01*
X90956078Y-114226075D01*
X90603427Y-114080002D01*
X90593623Y-114075430D01*
X90255057Y-113899183D01*
X90245689Y-113893775D01*
X89923755Y-113688681D01*
X89914894Y-113682476D01*
X89612069Y-113450110D01*
X89603782Y-113443156D01*
X89322364Y-113185284D01*
X89314715Y-113177635D01*
X89056843Y-112896217D01*
X89049889Y-112887930D01*
X88817523Y-112585105D01*
X88811318Y-112576244D01*
X88606224Y-112254310D01*
X88600816Y-112244942D01*
X88424566Y-111906369D01*
X88419997Y-111896572D01*
X88285072Y-111570834D01*
X88273920Y-111543911D01*
X88270224Y-111533755D01*
X88155442Y-111169710D01*
X88152648Y-111159284D01*
X88070025Y-110786597D01*
X88068152Y-110775971D01*
X88018326Y-110397506D01*
X88017386Y-110386771D01*
X88000618Y-110002702D01*
X88000500Y-109997293D01*
X88000500Y-109080491D01*
X88799500Y-109080491D01*
X88799500Y-109419508D01*
X88832729Y-109756901D01*
X88896049Y-110075229D01*
X88898871Y-110089414D01*
X88931771Y-110197872D01*
X88997284Y-110413841D01*
X89127024Y-110727060D01*
X89127026Y-110727065D01*
X89286831Y-111026039D01*
X89286842Y-111026057D01*
X89475184Y-111307930D01*
X89475194Y-111307944D01*
X89690269Y-111570014D01*
X89929985Y-111809730D01*
X89929990Y-111809734D01*
X89929991Y-111809735D01*
X90192061Y-112024810D01*
X90473949Y-112213162D01*
X90473958Y-112213167D01*
X90473960Y-112213168D01*
X90772934Y-112372973D01*
X90772936Y-112372973D01*
X90772942Y-112372977D01*
X91086160Y-112502716D01*
X91410586Y-112601129D01*
X91743096Y-112667270D01*
X92080488Y-112700500D01*
X92080491Y-112700500D01*
X92419509Y-112700500D01*
X92419512Y-112700500D01*
X92756904Y-112667270D01*
X93089414Y-112601129D01*
X93413840Y-112502716D01*
X93727058Y-112372977D01*
X94026051Y-112213162D01*
X94307939Y-112024810D01*
X94570009Y-111809735D01*
X94809735Y-111570009D01*
X95024810Y-111307939D01*
X95213162Y-111026051D01*
X95372977Y-110727058D01*
X95502716Y-110413840D01*
X95601129Y-110089414D01*
X95667270Y-109756904D01*
X95700500Y-109419512D01*
X95700500Y-109080488D01*
X95667270Y-108743096D01*
X95601129Y-108410586D01*
X95568231Y-108302136D01*
X99099500Y-108302136D01*
X99099500Y-110697863D01*
X99099501Y-110697882D01*
X99105908Y-110757481D01*
X99156202Y-110892327D01*
X99156203Y-110892328D01*
X99156204Y-110892330D01*
X99242454Y-111007546D01*
X99357670Y-111093796D01*
X99357671Y-111093796D01*
X99357672Y-111093797D01*
X99492518Y-111144091D01*
X99492517Y-111144091D01*
X99499445Y-111144835D01*
X99552128Y-111150500D01*
X99625500Y-111150500D01*
X99692539Y-111170185D01*
X99738294Y-111222989D01*
X99749500Y-111274500D01*
X99749500Y-112098541D01*
X99749500Y-112098543D01*
X99749499Y-112098543D01*
X99787947Y-112291829D01*
X99787950Y-112291839D01*
X99863364Y-112473907D01*
X99863371Y-112473920D01*
X99972860Y-112637781D01*
X99972863Y-112637785D01*
X100116537Y-112781459D01*
X100116559Y-112781479D01*
X100719735Y-113384655D01*
X100719764Y-113384686D01*
X100862217Y-113527139D01*
X100908418Y-113558009D01*
X101026086Y-113636632D01*
X101026088Y-113636633D01*
X101026092Y-113636635D01*
X101074770Y-113656797D01*
X101144729Y-113685775D01*
X101208164Y-113712051D01*
X101304812Y-113731275D01*
X101382240Y-113746676D01*
X101401458Y-113750500D01*
X101401459Y-113750500D01*
X108848542Y-113750500D01*
X108873037Y-113745627D01*
X108945188Y-113731275D01*
X109041836Y-113712051D01*
X109105271Y-113685775D01*
X109223914Y-113636632D01*
X109387782Y-113527139D01*
X109527139Y-113387782D01*
X109527139Y-113387780D01*
X109537347Y-113377573D01*
X109537348Y-113377570D01*
X115112783Y-107802136D01*
X122349500Y-107802136D01*
X122349500Y-110197863D01*
X122349501Y-110197882D01*
X122355908Y-110257481D01*
X122406202Y-110392327D01*
X122406203Y-110392328D01*
X122406204Y-110392330D01*
X122492454Y-110507546D01*
X122607670Y-110593796D01*
X122607671Y-110593796D01*
X122607672Y-110593797D01*
X122742518Y-110644091D01*
X122742517Y-110644091D01*
X122749445Y-110644835D01*
X122802128Y-110650500D01*
X122802137Y-110650500D01*
X125197863Y-110650500D01*
X125197872Y-110650500D01*
X125257482Y-110644091D01*
X125392330Y-110593796D01*
X125507546Y-110507546D01*
X125593796Y-110392330D01*
X125644091Y-110257482D01*
X125650500Y-110197872D01*
X125650500Y-107802128D01*
X125644091Y-107742518D01*
X125593796Y-107607670D01*
X125507546Y-107492454D01*
X125392330Y-107406204D01*
X125392328Y-107406203D01*
X125392327Y-107406202D01*
X125257481Y-107355908D01*
X125257482Y-107355908D01*
X125197882Y-107349501D01*
X125197880Y-107349500D01*
X125197872Y-107349500D01*
X122802128Y-107349500D01*
X122802120Y-107349500D01*
X122802117Y-107349501D01*
X122742518Y-107355908D01*
X122607672Y-107406202D01*
X122607670Y-107406204D01*
X122492454Y-107492454D01*
X122406204Y-107607670D01*
X122406202Y-107607672D01*
X122355908Y-107742518D01*
X122349501Y-107802117D01*
X122349500Y-107802136D01*
X115112783Y-107802136D01*
X121628102Y-101286818D01*
X121689425Y-101253333D01*
X121715783Y-101250499D01*
X122808028Y-101250499D01*
X122808036Y-101250499D01*
X122927418Y-101239886D01*
X123123049Y-101183909D01*
X123303407Y-101089698D01*
X123461109Y-100961109D01*
X123589698Y-100803407D01*
X123683909Y-100623049D01*
X123683911Y-100623043D01*
X123693256Y-100590387D01*
X123730624Y-100531349D01*
X123793978Y-100501887D01*
X123812471Y-100500500D01*
X127807529Y-100500500D01*
X127874568Y-100520185D01*
X127920323Y-100572989D01*
X127920522Y-100573426D01*
X127924255Y-100581684D01*
X127936091Y-100623049D01*
X127987040Y-100720586D01*
X127988493Y-100723800D01*
X127990516Y-100738273D01*
X127999500Y-100774874D01*
X127999500Y-107623594D01*
X127979815Y-107690633D01*
X127948386Y-107723911D01*
X127924777Y-107741064D01*
X127924768Y-107741071D01*
X127741071Y-107924768D01*
X127741066Y-107924774D01*
X127588368Y-108134945D01*
X127470422Y-108366423D01*
X127390140Y-108613506D01*
X127349500Y-108870097D01*
X127349500Y-109129902D01*
X127390140Y-109386493D01*
X127470422Y-109633576D01*
X127533262Y-109756904D01*
X127588366Y-109865051D01*
X127741069Y-110075229D01*
X127924771Y-110258931D01*
X128134949Y-110411634D01*
X128282445Y-110486787D01*
X128366423Y-110529577D01*
X128366425Y-110529577D01*
X128366428Y-110529579D01*
X128613507Y-110609860D01*
X128745706Y-110630797D01*
X128870098Y-110650500D01*
X128870103Y-110650500D01*
X129129902Y-110650500D01*
X129243298Y-110632539D01*
X129386493Y-110609860D01*
X129633572Y-110529579D01*
X129865051Y-110411634D01*
X130075229Y-110258931D01*
X130258931Y-110075229D01*
X130411634Y-109865051D01*
X130529579Y-109633572D01*
X130609860Y-109386493D01*
X130632539Y-109243298D01*
X130650500Y-109129902D01*
X130650500Y-109080491D01*
X138299500Y-109080491D01*
X138299500Y-109419508D01*
X138332729Y-109756901D01*
X138396049Y-110075229D01*
X138398871Y-110089414D01*
X138431771Y-110197872D01*
X138497284Y-110413841D01*
X138627024Y-110727060D01*
X138627026Y-110727065D01*
X138786831Y-111026039D01*
X138786842Y-111026057D01*
X138975184Y-111307930D01*
X138975194Y-111307944D01*
X139190269Y-111570014D01*
X139429985Y-111809730D01*
X139429990Y-111809734D01*
X139429991Y-111809735D01*
X139692061Y-112024810D01*
X139973949Y-112213162D01*
X139973958Y-112213167D01*
X139973960Y-112213168D01*
X140272934Y-112372973D01*
X140272936Y-112372973D01*
X140272942Y-112372977D01*
X140586160Y-112502716D01*
X140910586Y-112601129D01*
X141243096Y-112667270D01*
X141580488Y-112700500D01*
X141580491Y-112700500D01*
X141919509Y-112700500D01*
X141919512Y-112700500D01*
X142256904Y-112667270D01*
X142589414Y-112601129D01*
X142913840Y-112502716D01*
X143227058Y-112372977D01*
X143526051Y-112213162D01*
X143807939Y-112024810D01*
X144070009Y-111809735D01*
X144309735Y-111570009D01*
X144524810Y-111307939D01*
X144713162Y-111026051D01*
X144872977Y-110727058D01*
X145002716Y-110413840D01*
X145101129Y-110089414D01*
X145167270Y-109756904D01*
X145200500Y-109419512D01*
X145200500Y-109080488D01*
X145167270Y-108743096D01*
X145101129Y-108410586D01*
X145002716Y-108086160D01*
X144872977Y-107772942D01*
X144846769Y-107723911D01*
X144713168Y-107473960D01*
X144713167Y-107473958D01*
X144713162Y-107473949D01*
X144524810Y-107192061D01*
X144309735Y-106929991D01*
X144309734Y-106929990D01*
X144309730Y-106929985D01*
X144070014Y-106690269D01*
X143807944Y-106475194D01*
X143807943Y-106475193D01*
X143807939Y-106475190D01*
X143526051Y-106286838D01*
X143526046Y-106286835D01*
X143526039Y-106286831D01*
X143227065Y-106127026D01*
X143227060Y-106127024D01*
X142913841Y-105997284D01*
X142723382Y-105939509D01*
X142589414Y-105898871D01*
X142589411Y-105898870D01*
X142589410Y-105898870D01*
X142256901Y-105832729D01*
X142019199Y-105809318D01*
X141919512Y-105799500D01*
X141580488Y-105799500D01*
X141489738Y-105808437D01*
X141243098Y-105832729D01*
X140910589Y-105898870D01*
X140586158Y-105997284D01*
X140272939Y-106127024D01*
X140272934Y-106127026D01*
X139973960Y-106286831D01*
X139973942Y-106286842D01*
X139692069Y-106475184D01*
X139692055Y-106475194D01*
X139429985Y-106690269D01*
X139190269Y-106929985D01*
X138975194Y-107192055D01*
X138975184Y-107192069D01*
X138786842Y-107473942D01*
X138786831Y-107473960D01*
X138627026Y-107772934D01*
X138627024Y-107772939D01*
X138497284Y-108086158D01*
X138398870Y-108410589D01*
X138332729Y-108743098D01*
X138299500Y-109080491D01*
X130650500Y-109080491D01*
X130650500Y-108870097D01*
X130628947Y-108734021D01*
X130609860Y-108613507D01*
X130529579Y-108366428D01*
X130529577Y-108366425D01*
X130529577Y-108366423D01*
X130465705Y-108241069D01*
X130411634Y-108134949D01*
X130258931Y-107924771D01*
X130075229Y-107741069D01*
X130072407Y-107739018D01*
X130051614Y-107723911D01*
X130008948Y-107668581D01*
X130000500Y-107623594D01*
X130000500Y-101751617D01*
X137451934Y-101751617D01*
X137451934Y-101751618D01*
X137525666Y-101808194D01*
X137724330Y-101922893D01*
X137724340Y-101922897D01*
X137936269Y-102010681D01*
X138157862Y-102070057D01*
X138385289Y-102099998D01*
X138385306Y-102100000D01*
X138614694Y-102100000D01*
X138614710Y-102099998D01*
X138842137Y-102070057D01*
X139063730Y-102010681D01*
X139275659Y-101922897D01*
X139275668Y-101922893D01*
X139474327Y-101808197D01*
X139474334Y-101808192D01*
X139548064Y-101751617D01*
X138500000Y-100703553D01*
X137451934Y-101751617D01*
X130000500Y-101751617D01*
X130000500Y-101374499D01*
X130020185Y-101307460D01*
X130072989Y-101261705D01*
X130124500Y-101250499D01*
X130428028Y-101250499D01*
X130428036Y-101250499D01*
X130547418Y-101239886D01*
X130743049Y-101183909D01*
X130923407Y-101089698D01*
X131081109Y-100961109D01*
X131209698Y-100803407D01*
X131303909Y-100623049D01*
X131359886Y-100427418D01*
X131370500Y-100308037D01*
X131370500Y-100235305D01*
X136750000Y-100235305D01*
X136750000Y-100464694D01*
X136750001Y-100464710D01*
X136779942Y-100692137D01*
X136839318Y-100913730D01*
X136927102Y-101125659D01*
X136927106Y-101125669D01*
X137041799Y-101324324D01*
X137041805Y-101324331D01*
X137098381Y-101398064D01*
X138146446Y-100350000D01*
X138146446Y-100349999D01*
X138853553Y-100349999D01*
X138853553Y-100350000D01*
X139901617Y-101398064D01*
X139958192Y-101324334D01*
X139958197Y-101324327D01*
X140072893Y-101125668D01*
X140072897Y-101125659D01*
X140160681Y-100913730D01*
X140220057Y-100692137D01*
X140249998Y-100464710D01*
X140250000Y-100464694D01*
X140250000Y-100235305D01*
X140249998Y-100235289D01*
X140220057Y-100007862D01*
X140160681Y-99786269D01*
X140072897Y-99574340D01*
X140072893Y-99574330D01*
X139958194Y-99375666D01*
X139901618Y-99301934D01*
X139901617Y-99301934D01*
X138853553Y-100349999D01*
X138146446Y-100349999D01*
X137098380Y-99301934D01*
X137041810Y-99375659D01*
X137041801Y-99375673D01*
X136927106Y-99574330D01*
X136927102Y-99574340D01*
X136839318Y-99786269D01*
X136779942Y-100007862D01*
X136750001Y-100235289D01*
X136750000Y-100235305D01*
X131370500Y-100235305D01*
X131370499Y-98948380D01*
X137451934Y-98948380D01*
X138499999Y-99996446D01*
X139548064Y-98948381D01*
X139548064Y-98948380D01*
X139474331Y-98891805D01*
X139474324Y-98891799D01*
X139275669Y-98777106D01*
X139275659Y-98777102D01*
X139063730Y-98689318D01*
X138842137Y-98629942D01*
X138614710Y-98600001D01*
X138614694Y-98600000D01*
X138385306Y-98600000D01*
X138385289Y-98600001D01*
X138157862Y-98629942D01*
X137936269Y-98689318D01*
X137724340Y-98777102D01*
X137724330Y-98777106D01*
X137525673Y-98891801D01*
X137525659Y-98891810D01*
X137451934Y-98948380D01*
X131370499Y-98948380D01*
X131370499Y-98691964D01*
X131359886Y-98572582D01*
X131313255Y-98409613D01*
X131303910Y-98376954D01*
X131303909Y-98376953D01*
X131303909Y-98376951D01*
X131209698Y-98196593D01*
X131157684Y-98132803D01*
X131081109Y-98038890D01*
X130943465Y-97926657D01*
X130923407Y-97910302D01*
X130743049Y-97816091D01*
X130743048Y-97816090D01*
X130743045Y-97816089D01*
X130614998Y-97779451D01*
X130547418Y-97760114D01*
X130547415Y-97760113D01*
X130547413Y-97760113D01*
X130481102Y-97754217D01*
X130428037Y-97749500D01*
X130428032Y-97749500D01*
X128811971Y-97749500D01*
X128811965Y-97749500D01*
X128811964Y-97749501D01*
X128800316Y-97750536D01*
X128692584Y-97760113D01*
X128496954Y-97816089D01*
X128453396Y-97838842D01*
X128316593Y-97910302D01*
X128316591Y-97910303D01*
X128316590Y-97910304D01*
X128158890Y-98038890D01*
X128030304Y-98196590D01*
X127936088Y-98376956D01*
X127926744Y-98409613D01*
X127889376Y-98468651D01*
X127826022Y-98498113D01*
X127807529Y-98499500D01*
X123812471Y-98499500D01*
X123745432Y-98479815D01*
X123699677Y-98427011D01*
X123693256Y-98409613D01*
X123683911Y-98376956D01*
X123683909Y-98376953D01*
X123683909Y-98376951D01*
X123589698Y-98196593D01*
X123537684Y-98132803D01*
X123461109Y-98038890D01*
X123323465Y-97926657D01*
X123303407Y-97910302D01*
X123123049Y-97816091D01*
X123123048Y-97816090D01*
X123123045Y-97816089D01*
X122994998Y-97779451D01*
X122927418Y-97760114D01*
X122927415Y-97760113D01*
X122927413Y-97760113D01*
X122861102Y-97754217D01*
X122808037Y-97749500D01*
X122808032Y-97749500D01*
X121191971Y-97749500D01*
X121191965Y-97749500D01*
X121191964Y-97749501D01*
X121180316Y-97750536D01*
X121072584Y-97760113D01*
X120876954Y-97816089D01*
X120833396Y-97838842D01*
X120696593Y-97910302D01*
X120696591Y-97910303D01*
X120696590Y-97910304D01*
X120538890Y-98038890D01*
X120410304Y-98196590D01*
X120316089Y-98376954D01*
X120260114Y-98572583D01*
X120260113Y-98572586D01*
X120249500Y-98691966D01*
X120249500Y-99784216D01*
X120229815Y-99851255D01*
X120213181Y-99871897D01*
X108371899Y-111713181D01*
X108310576Y-111746666D01*
X108284218Y-111749500D01*
X101965782Y-111749500D01*
X101936341Y-111740855D01*
X101906355Y-111734332D01*
X101901339Y-111730577D01*
X101898743Y-111729815D01*
X101878101Y-111713181D01*
X101786819Y-111621899D01*
X101753334Y-111560576D01*
X101750500Y-111534218D01*
X101750500Y-111274500D01*
X101770185Y-111207461D01*
X101822989Y-111161706D01*
X101874500Y-111150500D01*
X101947863Y-111150500D01*
X101947872Y-111150500D01*
X102007482Y-111144091D01*
X102142330Y-111093796D01*
X102257546Y-111007546D01*
X102343796Y-110892330D01*
X102394091Y-110757482D01*
X102400500Y-110697872D01*
X102400500Y-108302128D01*
X102394091Y-108242518D01*
X102393549Y-108241066D01*
X102343797Y-108107672D01*
X102343796Y-108107671D01*
X102343796Y-108107670D01*
X102257546Y-107992454D01*
X102142330Y-107906204D01*
X102142328Y-107906203D01*
X102142327Y-107906202D01*
X102007481Y-107855908D01*
X102007482Y-107855908D01*
X101947882Y-107849501D01*
X101947880Y-107849500D01*
X101947872Y-107849500D01*
X99552128Y-107849500D01*
X99552120Y-107849500D01*
X99552117Y-107849501D01*
X99492518Y-107855908D01*
X99357672Y-107906202D01*
X99357670Y-107906204D01*
X99242454Y-107992454D01*
X99156204Y-108107670D01*
X99156202Y-108107672D01*
X99105908Y-108242518D01*
X99099501Y-108302117D01*
X99099500Y-108302136D01*
X95568231Y-108302136D01*
X95502716Y-108086160D01*
X95372977Y-107772942D01*
X95346769Y-107723911D01*
X95213168Y-107473960D01*
X95213167Y-107473958D01*
X95213162Y-107473949D01*
X95024810Y-107192061D01*
X94809735Y-106929991D01*
X94809734Y-106929990D01*
X94809730Y-106929985D01*
X94570014Y-106690269D01*
X94307944Y-106475194D01*
X94307943Y-106475193D01*
X94307939Y-106475190D01*
X94026051Y-106286838D01*
X94026046Y-106286835D01*
X94026039Y-106286831D01*
X93727065Y-106127026D01*
X93727060Y-106127024D01*
X93413841Y-105997284D01*
X93223382Y-105939509D01*
X93089414Y-105898871D01*
X93089411Y-105898870D01*
X93089410Y-105898870D01*
X92756901Y-105832729D01*
X92519199Y-105809318D01*
X92419512Y-105799500D01*
X92080488Y-105799500D01*
X91989738Y-105808437D01*
X91743098Y-105832729D01*
X91410589Y-105898870D01*
X91086158Y-105997284D01*
X90772939Y-106127024D01*
X90772934Y-106127026D01*
X90473960Y-106286831D01*
X90473942Y-106286842D01*
X90192069Y-106475184D01*
X90192055Y-106475194D01*
X89929985Y-106690269D01*
X89690269Y-106929985D01*
X89475194Y-107192055D01*
X89475184Y-107192069D01*
X89286842Y-107473942D01*
X89286831Y-107473960D01*
X89127026Y-107772934D01*
X89127024Y-107772939D01*
X88997284Y-108086158D01*
X88898870Y-108410589D01*
X88832729Y-108743098D01*
X88799500Y-109080491D01*
X88000500Y-109080491D01*
X88000500Y-100598543D01*
X90249499Y-100598543D01*
X90287947Y-100791829D01*
X90287950Y-100791839D01*
X90363364Y-100973907D01*
X90363371Y-100973920D01*
X90472860Y-101137781D01*
X90472863Y-101137785D01*
X90616537Y-101281459D01*
X90616559Y-101281479D01*
X96219735Y-106884655D01*
X96219764Y-106884686D01*
X96362214Y-107027136D01*
X96362218Y-107027139D01*
X96526079Y-107136628D01*
X96526092Y-107136635D01*
X96654833Y-107189961D01*
X96697744Y-107207735D01*
X96708164Y-107212051D01*
X96804812Y-107231275D01*
X96853135Y-107240887D01*
X96901458Y-107250500D01*
X96901459Y-107250500D01*
X96901460Y-107250500D01*
X97098540Y-107250500D01*
X102034218Y-107250500D01*
X102101257Y-107270185D01*
X102121899Y-107286819D01*
X104069273Y-109234193D01*
X104102758Y-109295516D01*
X104104066Y-109341269D01*
X104099500Y-109370101D01*
X104099500Y-109629902D01*
X104140140Y-109886493D01*
X104220422Y-110133576D01*
X104338368Y-110365054D01*
X104457901Y-110529577D01*
X104491069Y-110575229D01*
X104674771Y-110758931D01*
X104884949Y-110911634D01*
X105032445Y-110986787D01*
X105116423Y-111029577D01*
X105116425Y-111029577D01*
X105116428Y-111029579D01*
X105363507Y-111109860D01*
X105489103Y-111129752D01*
X105620098Y-111150500D01*
X105620103Y-111150500D01*
X105879902Y-111150500D01*
X106010897Y-111129752D01*
X106136493Y-111109860D01*
X106383572Y-111029579D01*
X106615051Y-110911634D01*
X106825229Y-110758931D01*
X107008931Y-110575229D01*
X107161634Y-110365051D01*
X107279579Y-110133572D01*
X107359860Y-109886493D01*
X107382539Y-109743298D01*
X107400500Y-109629902D01*
X107400500Y-109370097D01*
X107378947Y-109234021D01*
X107359860Y-109113507D01*
X107279579Y-108866428D01*
X107279577Y-108866425D01*
X107279577Y-108866423D01*
X107216738Y-108743096D01*
X107161634Y-108634949D01*
X107008931Y-108424771D01*
X106825229Y-108241069D01*
X106679162Y-108134945D01*
X106615054Y-108088368D01*
X106615053Y-108088367D01*
X106615051Y-108088366D01*
X106542764Y-108051534D01*
X106383576Y-107970422D01*
X106136493Y-107890140D01*
X105879902Y-107849500D01*
X105879897Y-107849500D01*
X105620103Y-107849500D01*
X105620101Y-107849500D01*
X105591269Y-107854066D01*
X105521976Y-107845109D01*
X105484193Y-107819273D01*
X103281479Y-105616559D01*
X103281459Y-105616537D01*
X103137785Y-105472863D01*
X103137781Y-105472860D01*
X102973920Y-105363371D01*
X102973911Y-105363366D01*
X102901315Y-105333296D01*
X102845165Y-105310038D01*
X102791836Y-105287949D01*
X102791832Y-105287948D01*
X102791828Y-105287946D01*
X102695188Y-105268724D01*
X102598544Y-105249500D01*
X102598541Y-105249500D01*
X97465782Y-105249500D01*
X97398743Y-105229815D01*
X97378101Y-105213181D01*
X92286819Y-100121899D01*
X92253334Y-100060576D01*
X92250500Y-100034218D01*
X92250500Y-99385258D01*
X93659500Y-99385258D01*
X93659500Y-99614741D01*
X93681813Y-99784216D01*
X93689452Y-99842238D01*
X93733830Y-100007862D01*
X93748842Y-100063887D01*
X93836650Y-100275876D01*
X93836656Y-100275888D01*
X93924140Y-100427416D01*
X93951392Y-100474617D01*
X94091081Y-100656661D01*
X94091089Y-100656670D01*
X94253330Y-100818911D01*
X94253338Y-100818918D01*
X94435382Y-100958607D01*
X94435385Y-100958608D01*
X94435388Y-100958611D01*
X94634112Y-101073344D01*
X94634117Y-101073346D01*
X94634123Y-101073349D01*
X94725480Y-101111190D01*
X94846113Y-101161158D01*
X95067762Y-101220548D01*
X95284312Y-101249057D01*
X95295250Y-101250498D01*
X95295266Y-101250500D01*
X95295273Y-101250500D01*
X95524727Y-101250500D01*
X95524734Y-101250500D01*
X95752238Y-101220548D01*
X95973887Y-101161158D01*
X96185888Y-101073344D01*
X96384612Y-100958611D01*
X96566661Y-100818919D01*
X96566665Y-100818914D01*
X96566670Y-100818911D01*
X96728914Y-100656666D01*
X96728919Y-100656661D01*
X96811520Y-100549014D01*
X96867948Y-100507811D01*
X96909896Y-100500500D01*
X101530104Y-100500500D01*
X101597143Y-100520185D01*
X101628480Y-100549014D01*
X101711079Y-100656659D01*
X101711085Y-100656666D01*
X101873330Y-100818911D01*
X101873338Y-100818918D01*
X102055382Y-100958607D01*
X102055385Y-100958608D01*
X102055388Y-100958611D01*
X102254112Y-101073344D01*
X102254117Y-101073346D01*
X102254123Y-101073349D01*
X102345480Y-101111190D01*
X102466113Y-101161158D01*
X102687762Y-101220548D01*
X102904312Y-101249057D01*
X102915250Y-101250498D01*
X102915266Y-101250500D01*
X102915273Y-101250500D01*
X103144727Y-101250500D01*
X103144734Y-101250500D01*
X103372238Y-101220548D01*
X103593887Y-101161158D01*
X103805888Y-101073344D01*
X104004612Y-100958611D01*
X104186661Y-100818919D01*
X104186665Y-100818914D01*
X104186670Y-100818911D01*
X104348911Y-100656670D01*
X104348914Y-100656665D01*
X104348919Y-100656661D01*
X104488611Y-100474612D01*
X104603344Y-100275888D01*
X104691158Y-100063887D01*
X104750548Y-99842238D01*
X104780500Y-99614734D01*
X104780500Y-99385266D01*
X104750548Y-99157762D01*
X104691158Y-98936113D01*
X104603344Y-98724112D01*
X104488611Y-98525388D01*
X104488608Y-98525385D01*
X104488607Y-98525382D01*
X104374713Y-98376954D01*
X104348919Y-98343339D01*
X104348918Y-98343338D01*
X104348911Y-98343330D01*
X104186670Y-98181089D01*
X104186661Y-98181081D01*
X104004617Y-98041392D01*
X104000283Y-98038890D01*
X103805888Y-97926656D01*
X103805876Y-97926650D01*
X103593887Y-97838842D01*
X103372238Y-97779452D01*
X103334215Y-97774446D01*
X103144741Y-97749500D01*
X103144734Y-97749500D01*
X102915266Y-97749500D01*
X102915258Y-97749500D01*
X102698715Y-97778009D01*
X102687762Y-97779452D01*
X102594076Y-97804554D01*
X102466112Y-97838842D01*
X102254123Y-97926650D01*
X102254109Y-97926657D01*
X102055382Y-98041392D01*
X101873338Y-98181081D01*
X101873330Y-98181089D01*
X101711085Y-98343333D01*
X101711079Y-98343340D01*
X101628480Y-98450986D01*
X101572052Y-98492189D01*
X101530104Y-98499500D01*
X96909896Y-98499500D01*
X96842857Y-98479815D01*
X96811520Y-98450986D01*
X96728920Y-98343340D01*
X96728914Y-98343333D01*
X96566670Y-98181089D01*
X96566661Y-98181081D01*
X96384617Y-98041392D01*
X96380283Y-98038890D01*
X96185888Y-97926656D01*
X96185876Y-97926650D01*
X95973887Y-97838842D01*
X95752238Y-97779452D01*
X95714215Y-97774446D01*
X95524741Y-97749500D01*
X95524734Y-97749500D01*
X95295266Y-97749500D01*
X95295258Y-97749500D01*
X95078715Y-97778009D01*
X95067762Y-97779452D01*
X94974076Y-97804554D01*
X94846112Y-97838842D01*
X94634123Y-97926650D01*
X94634109Y-97926657D01*
X94435382Y-98041392D01*
X94253338Y-98181081D01*
X94091081Y-98343338D01*
X93951392Y-98525382D01*
X93836657Y-98724109D01*
X93836650Y-98724123D01*
X93748842Y-98936112D01*
X93689453Y-99157759D01*
X93689451Y-99157770D01*
X93659500Y-99385258D01*
X92250500Y-99385258D01*
X92250500Y-95681902D01*
X136999500Y-95681902D01*
X136999500Y-95918097D01*
X137036446Y-96151368D01*
X137109433Y-96375996D01*
X137216657Y-96586433D01*
X137355483Y-96777510D01*
X137522490Y-96944517D01*
X137713567Y-97083343D01*
X137812991Y-97134002D01*
X137924003Y-97190566D01*
X137924005Y-97190566D01*
X137924008Y-97190568D01*
X138044412Y-97229689D01*
X138148631Y-97263553D01*
X138381903Y-97300500D01*
X138381908Y-97300500D01*
X138618097Y-97300500D01*
X138851368Y-97263553D01*
X139075992Y-97190568D01*
X139286433Y-97083343D01*
X139477510Y-96944517D01*
X139644517Y-96777510D01*
X139783343Y-96586433D01*
X139890568Y-96375992D01*
X139903503Y-96336179D01*
X139942941Y-96278506D01*
X140007300Y-96251308D01*
X140021434Y-96250500D01*
X142509308Y-96250500D01*
X142509309Y-96250500D01*
X142599673Y-96226286D01*
X142623887Y-96219799D01*
X142726614Y-96160489D01*
X146068281Y-92818820D01*
X146123864Y-92786729D01*
X146212485Y-92762984D01*
X146338015Y-92690509D01*
X146440509Y-92588015D01*
X146512984Y-92462485D01*
X146550500Y-92322475D01*
X146550500Y-92177525D01*
X146512984Y-92037515D01*
X146512359Y-92036433D01*
X146440511Y-91911988D01*
X146440506Y-91911982D01*
X146338017Y-91809493D01*
X146338011Y-91809488D01*
X146212488Y-91737017D01*
X146212489Y-91737017D01*
X146201006Y-91733940D01*
X146072475Y-91699500D01*
X145927525Y-91699500D01*
X145798993Y-91733940D01*
X145787511Y-91737017D01*
X145661988Y-91809488D01*
X145661982Y-91809493D01*
X145559493Y-91911982D01*
X145559488Y-91911988D01*
X145487017Y-92037511D01*
X145487014Y-92037518D01*
X145463269Y-92126133D01*
X145431176Y-92181719D01*
X142299716Y-95313181D01*
X142238393Y-95346666D01*
X142212035Y-95349500D01*
X140021434Y-95349500D01*
X139954395Y-95329815D01*
X139908640Y-95277011D01*
X139903503Y-95263819D01*
X139890566Y-95224003D01*
X139783342Y-95013566D01*
X139644517Y-94822490D01*
X139477510Y-94655483D01*
X139286433Y-94516657D01*
X139075996Y-94409433D01*
X138851368Y-94336446D01*
X138618097Y-94299500D01*
X138618092Y-94299500D01*
X138381908Y-94299500D01*
X138381903Y-94299500D01*
X138148631Y-94336446D01*
X137924003Y-94409433D01*
X137713566Y-94516657D01*
X137604550Y-94595862D01*
X137522490Y-94655483D01*
X137522488Y-94655485D01*
X137522487Y-94655485D01*
X137355485Y-94822487D01*
X137355485Y-94822488D01*
X137355483Y-94822490D01*
X137295862Y-94904550D01*
X137216657Y-95013566D01*
X137109433Y-95224003D01*
X137036446Y-95448631D01*
X136999500Y-95681902D01*
X92250500Y-95681902D01*
X92250500Y-84763389D01*
X96319500Y-84763389D01*
X96319500Y-85236611D01*
X96346598Y-85407701D01*
X96400127Y-85572445D01*
X96478768Y-85726788D01*
X96580586Y-85866928D01*
X96703072Y-85989414D01*
X96843212Y-86091232D01*
X96997555Y-86169873D01*
X97162299Y-86223402D01*
X97333389Y-86250500D01*
X97333390Y-86250500D01*
X97506610Y-86250500D01*
X97506611Y-86250500D01*
X97677701Y-86223402D01*
X97842445Y-86169873D01*
X97996788Y-86091232D01*
X98136928Y-85989414D01*
X98259414Y-85866928D01*
X98361232Y-85726788D01*
X98439873Y-85572445D01*
X98493402Y-85407701D01*
X98520500Y-85236611D01*
X98520500Y-84763389D01*
X98493402Y-84592299D01*
X98439873Y-84427555D01*
X98361232Y-84273212D01*
X98259414Y-84133072D01*
X98136928Y-84010586D01*
X97996788Y-83908768D01*
X97842445Y-83830127D01*
X97677701Y-83776598D01*
X97677699Y-83776597D01*
X97677698Y-83776597D01*
X97546271Y-83755781D01*
X97506611Y-83749500D01*
X97333389Y-83749500D01*
X97293728Y-83755781D01*
X97162302Y-83776597D01*
X96997552Y-83830128D01*
X96843211Y-83908768D01*
X96763256Y-83966859D01*
X96703072Y-84010586D01*
X96703070Y-84010588D01*
X96703069Y-84010588D01*
X96580588Y-84133069D01*
X96580588Y-84133070D01*
X96580586Y-84133072D01*
X96536859Y-84193256D01*
X96478768Y-84273211D01*
X96400128Y-84427552D01*
X96346597Y-84592302D01*
X96319500Y-84763389D01*
X92250500Y-84763389D01*
X92250500Y-79202135D01*
X96319500Y-79202135D01*
X96319500Y-80797870D01*
X96319501Y-80797876D01*
X96325908Y-80857483D01*
X96376202Y-80992328D01*
X96376206Y-80992335D01*
X96462452Y-81107544D01*
X96462455Y-81107547D01*
X96577664Y-81193793D01*
X96577671Y-81193797D01*
X96712517Y-81244091D01*
X96712516Y-81244091D01*
X96719444Y-81244835D01*
X96772127Y-81250500D01*
X98067872Y-81250499D01*
X98127483Y-81244091D01*
X98262331Y-81193796D01*
X98377546Y-81107546D01*
X98463796Y-80992331D01*
X98514091Y-80857483D01*
X98520500Y-80797873D01*
X98520499Y-79202128D01*
X98514091Y-79142517D01*
X98463796Y-79007669D01*
X98463795Y-79007668D01*
X98463793Y-79007664D01*
X98377547Y-78892455D01*
X98377544Y-78892452D01*
X98262335Y-78806206D01*
X98262328Y-78806202D01*
X98127482Y-78755908D01*
X98127483Y-78755908D01*
X98067883Y-78749501D01*
X98067881Y-78749500D01*
X98067873Y-78749500D01*
X98067864Y-78749500D01*
X96772129Y-78749500D01*
X96772123Y-78749501D01*
X96712516Y-78755908D01*
X96577671Y-78806202D01*
X96577664Y-78806206D01*
X96462455Y-78892452D01*
X96462452Y-78892455D01*
X96376206Y-79007664D01*
X96376202Y-79007671D01*
X96325908Y-79142517D01*
X96319501Y-79202116D01*
X96319501Y-79202123D01*
X96319500Y-79202135D01*
X92250500Y-79202135D01*
X92250500Y-63881471D01*
X105091500Y-63881471D01*
X105091500Y-64118528D01*
X105091501Y-64118544D01*
X105119550Y-64331601D01*
X105122444Y-64353578D01*
X105148851Y-64452128D01*
X105183803Y-64582570D01*
X105274520Y-64801583D01*
X105274526Y-64801595D01*
X105393061Y-65006904D01*
X105393063Y-65006907D01*
X105393064Y-65006908D01*
X105537379Y-65194983D01*
X105537385Y-65194990D01*
X105705009Y-65362614D01*
X105705015Y-65362619D01*
X105893096Y-65506939D01*
X106098405Y-65625474D01*
X106098410Y-65625476D01*
X106098416Y-65625479D01*
X106192803Y-65664575D01*
X106317430Y-65716197D01*
X106546422Y-65777556D01*
X106781465Y-65808500D01*
X106781472Y-65808500D01*
X107018528Y-65808500D01*
X107018535Y-65808500D01*
X107253578Y-65777556D01*
X107482570Y-65716197D01*
X107701595Y-65625474D01*
X107906904Y-65506939D01*
X108094985Y-65362619D01*
X108262619Y-65194985D01*
X108406939Y-65006904D01*
X108525474Y-64801595D01*
X108616197Y-64582570D01*
X108677556Y-64353578D01*
X108708500Y-64118535D01*
X108708500Y-63881465D01*
X108677556Y-63646422D01*
X108616197Y-63417430D01*
X108547367Y-63251260D01*
X108525479Y-63198416D01*
X108525476Y-63198410D01*
X108525474Y-63198405D01*
X108406939Y-62993096D01*
X108286206Y-62835754D01*
X108262620Y-62805016D01*
X108262614Y-62805009D01*
X108094990Y-62637385D01*
X108094983Y-62637379D01*
X107906908Y-62493064D01*
X107906907Y-62493063D01*
X107906904Y-62493061D01*
X107701595Y-62374526D01*
X107701583Y-62374520D01*
X107482570Y-62283803D01*
X107408788Y-62264033D01*
X107253578Y-62222444D01*
X107253577Y-62222443D01*
X107253574Y-62222443D01*
X107018544Y-62191501D01*
X107018541Y-62191500D01*
X107018535Y-62191500D01*
X106781465Y-62191500D01*
X106781459Y-62191500D01*
X106781455Y-62191501D01*
X106546425Y-62222443D01*
X106317429Y-62283803D01*
X106098416Y-62374520D01*
X106098402Y-62374527D01*
X105893091Y-62493064D01*
X105705016Y-62637379D01*
X105705009Y-62637385D01*
X105537385Y-62805009D01*
X105537379Y-62805016D01*
X105393064Y-62993091D01*
X105393061Y-62993095D01*
X105393061Y-62993096D01*
X105388787Y-63000499D01*
X105274527Y-63198402D01*
X105274520Y-63198416D01*
X105183803Y-63417429D01*
X105122443Y-63646425D01*
X105091501Y-63881455D01*
X105091500Y-63881471D01*
X92250500Y-63881471D01*
X92250500Y-61415350D01*
X100724500Y-61415350D01*
X100724500Y-61584649D01*
X100750981Y-61751847D01*
X100803296Y-61912853D01*
X100847701Y-62000000D01*
X100877454Y-62058394D01*
X100880152Y-62063688D01*
X100979648Y-62200634D01*
X100979652Y-62200639D01*
X101099360Y-62320347D01*
X101099365Y-62320351D01*
X101208402Y-62399570D01*
X101236315Y-62419850D01*
X101301505Y-62453066D01*
X101387146Y-62496703D01*
X101387148Y-62496703D01*
X101387151Y-62496705D01*
X101473450Y-62524745D01*
X101548152Y-62549018D01*
X101715351Y-62575500D01*
X101715356Y-62575500D01*
X101884649Y-62575500D01*
X102051847Y-62549018D01*
X102060591Y-62546177D01*
X102212849Y-62496705D01*
X102363685Y-62419850D01*
X102500641Y-62320346D01*
X102620346Y-62200641D01*
X102719850Y-62063685D01*
X102796705Y-61912849D01*
X102849018Y-61751847D01*
X102849019Y-61751841D01*
X102875500Y-61584649D01*
X102875500Y-61415358D01*
X102873482Y-61402616D01*
X102866019Y-61355498D01*
X102874973Y-61286209D01*
X102900808Y-61248425D01*
X103388416Y-60760819D01*
X103449739Y-60727334D01*
X103476097Y-60724500D01*
X109275500Y-60724500D01*
X109342539Y-60744185D01*
X109388294Y-60796989D01*
X109399500Y-60848500D01*
X109399500Y-87163330D01*
X109399499Y-87163348D01*
X109399499Y-87329054D01*
X109399498Y-87329054D01*
X109440423Y-87481785D01*
X109469358Y-87531900D01*
X109469359Y-87531904D01*
X109469360Y-87531904D01*
X109519479Y-87618714D01*
X109519481Y-87618717D01*
X109638349Y-87737585D01*
X109638355Y-87737590D01*
X112265139Y-90364374D01*
X112265149Y-90364385D01*
X112269479Y-90368715D01*
X112269480Y-90368716D01*
X112381284Y-90480520D01*
X112468095Y-90530639D01*
X112468097Y-90530641D01*
X112518213Y-90559576D01*
X112518215Y-90559577D01*
X112670942Y-90600500D01*
X112670943Y-90600500D01*
X125418435Y-90600500D01*
X125485474Y-90620185D01*
X125528918Y-90668204D01*
X125531876Y-90674008D01*
X125558766Y-90726785D01*
X125558770Y-90726792D01*
X125585209Y-90763181D01*
X125660586Y-90866928D01*
X125783072Y-90989414D01*
X125923212Y-91091232D01*
X126077555Y-91169873D01*
X126242299Y-91223402D01*
X126413389Y-91250500D01*
X126413390Y-91250500D01*
X126586610Y-91250500D01*
X126586611Y-91250500D01*
X126757701Y-91223402D01*
X126922445Y-91169873D01*
X127076788Y-91091232D01*
X127216928Y-90989414D01*
X127339414Y-90866928D01*
X127441232Y-90726788D01*
X127519873Y-90572445D01*
X127573402Y-90407701D01*
X127600500Y-90236611D01*
X127600500Y-89763389D01*
X127573402Y-89592299D01*
X127519873Y-89427555D01*
X127441232Y-89273212D01*
X127339414Y-89133072D01*
X127216928Y-89010586D01*
X127076788Y-88908768D01*
X126922445Y-88830127D01*
X126757701Y-88776598D01*
X126757699Y-88776597D01*
X126757698Y-88776597D01*
X126626271Y-88755781D01*
X126586611Y-88749500D01*
X126413389Y-88749500D01*
X126373728Y-88755781D01*
X126242302Y-88776597D01*
X126077552Y-88830128D01*
X125923211Y-88908768D01*
X125843256Y-88966859D01*
X125783072Y-89010586D01*
X125783070Y-89010588D01*
X125783069Y-89010588D01*
X125660588Y-89133069D01*
X125660588Y-89133070D01*
X125660586Y-89133072D01*
X125635040Y-89168232D01*
X125558770Y-89273207D01*
X125558766Y-89273214D01*
X125540000Y-89310046D01*
X125528918Y-89331795D01*
X125480947Y-89382590D01*
X125418435Y-89399500D01*
X113050097Y-89399500D01*
X112983058Y-89379815D01*
X112962416Y-89363181D01*
X110636819Y-87037584D01*
X110603334Y-86976261D01*
X110600500Y-86949903D01*
X110600500Y-79159448D01*
X134349500Y-79159448D01*
X134349500Y-79340551D01*
X134377829Y-79519410D01*
X134433787Y-79691636D01*
X134433788Y-79691639D01*
X134516006Y-79852997D01*
X134622441Y-79999494D01*
X134622445Y-79999499D01*
X134750500Y-80127554D01*
X134750505Y-80127558D01*
X134878287Y-80220396D01*
X134897006Y-80233996D01*
X135002484Y-80287740D01*
X135058360Y-80316211D01*
X135058363Y-80316212D01*
X135144476Y-80344191D01*
X135230591Y-80372171D01*
X135313429Y-80385291D01*
X135409449Y-80400500D01*
X135409454Y-80400500D01*
X135590551Y-80400500D01*
X135677259Y-80386765D01*
X135769409Y-80372171D01*
X135941639Y-80316211D01*
X136102994Y-80233996D01*
X136249501Y-80127553D01*
X136377553Y-79999501D01*
X136483996Y-79852994D01*
X136566211Y-79691639D01*
X136622171Y-79519409D01*
X136636765Y-79427259D01*
X136650500Y-79340551D01*
X136650500Y-79159448D01*
X136626460Y-79007671D01*
X136622171Y-78980591D01*
X136566211Y-78808361D01*
X136566211Y-78808360D01*
X136536220Y-78749500D01*
X136483996Y-78647006D01*
X136470396Y-78628287D01*
X136377558Y-78500505D01*
X136377554Y-78500500D01*
X136249499Y-78372445D01*
X136249494Y-78372441D01*
X136102997Y-78266006D01*
X136102996Y-78266005D01*
X136102994Y-78266004D01*
X136051300Y-78239664D01*
X135941639Y-78183788D01*
X135941636Y-78183787D01*
X135769410Y-78127829D01*
X135590551Y-78099500D01*
X135590546Y-78099500D01*
X135409454Y-78099500D01*
X135409449Y-78099500D01*
X135230589Y-78127829D01*
X135058363Y-78183787D01*
X135058360Y-78183788D01*
X134897002Y-78266006D01*
X134750505Y-78372441D01*
X134750500Y-78372445D01*
X134622445Y-78500500D01*
X134622441Y-78500505D01*
X134516006Y-78647002D01*
X134433788Y-78808360D01*
X134433787Y-78808363D01*
X134377829Y-78980589D01*
X134349500Y-79159448D01*
X110600500Y-79159448D01*
X110600500Y-74743753D01*
X125150000Y-74743753D01*
X125150000Y-74750000D01*
X126066988Y-74750000D01*
X126034075Y-74807007D01*
X126000000Y-74934174D01*
X126000000Y-75065826D01*
X126034075Y-75192993D01*
X126066988Y-75250000D01*
X125150000Y-75250000D01*
X125150000Y-75256246D01*
X125183242Y-75466127D01*
X125183242Y-75466130D01*
X125248904Y-75668217D01*
X125345379Y-75857557D01*
X125470272Y-76029459D01*
X125470276Y-76029464D01*
X125620535Y-76179723D01*
X125620540Y-76179727D01*
X125792442Y-76304620D01*
X125981782Y-76401095D01*
X126183871Y-76466757D01*
X126250000Y-76477231D01*
X126250000Y-75433012D01*
X126307007Y-75465925D01*
X126434174Y-75500000D01*
X126565826Y-75500000D01*
X126692993Y-75465925D01*
X126750000Y-75433012D01*
X126750000Y-76477230D01*
X126816126Y-76466757D01*
X126816129Y-76466757D01*
X127018217Y-76401095D01*
X127207557Y-76304620D01*
X127379459Y-76179727D01*
X127379464Y-76179723D01*
X127529723Y-76029464D01*
X127529727Y-76029459D01*
X127654620Y-75857557D01*
X127751095Y-75668217D01*
X127816757Y-75466130D01*
X127816757Y-75466127D01*
X127850000Y-75256246D01*
X127850000Y-75250000D01*
X126933012Y-75250000D01*
X126965925Y-75192993D01*
X127000000Y-75065826D01*
X127000000Y-74934174D01*
X126965925Y-74807007D01*
X126933012Y-74750000D01*
X127850000Y-74750000D01*
X127850000Y-74743753D01*
X127816757Y-74533872D01*
X127816757Y-74533869D01*
X127751095Y-74331782D01*
X127654620Y-74142442D01*
X127529727Y-73970540D01*
X127529723Y-73970535D01*
X127379464Y-73820276D01*
X127379459Y-73820272D01*
X127207557Y-73695379D01*
X127018215Y-73598903D01*
X126816124Y-73533241D01*
X126750000Y-73522768D01*
X126750000Y-74566988D01*
X126692993Y-74534075D01*
X126565826Y-74500000D01*
X126434174Y-74500000D01*
X126307007Y-74534075D01*
X126250000Y-74566988D01*
X126250000Y-73522768D01*
X126249999Y-73522768D01*
X126183875Y-73533241D01*
X125981784Y-73598903D01*
X125792442Y-73695379D01*
X125620540Y-73820272D01*
X125620535Y-73820276D01*
X125470276Y-73970535D01*
X125470272Y-73970540D01*
X125345379Y-74142442D01*
X125248904Y-74331782D01*
X125183242Y-74533869D01*
X125183242Y-74533872D01*
X125150000Y-74743753D01*
X110600500Y-74743753D01*
X110600500Y-71639818D01*
X138100000Y-71639818D01*
X138100000Y-71860181D01*
X138134473Y-72077835D01*
X138202567Y-72287410D01*
X138302611Y-72483756D01*
X138348932Y-72547513D01*
X139100000Y-71796445D01*
X139100000Y-71802661D01*
X139127259Y-71904394D01*
X139179920Y-71995606D01*
X139254394Y-72070080D01*
X139345606Y-72122741D01*
X139447339Y-72150000D01*
X139453553Y-72150000D01*
X138702485Y-72901065D01*
X138702485Y-72901066D01*
X138766243Y-72947388D01*
X138962589Y-73047432D01*
X139172164Y-73115526D01*
X139389819Y-73150000D01*
X139610181Y-73150000D01*
X139827835Y-73115526D01*
X140037410Y-73047432D01*
X140233760Y-72947386D01*
X140297513Y-72901066D01*
X140297514Y-72901066D01*
X139546447Y-72150000D01*
X139552661Y-72150000D01*
X139654394Y-72122741D01*
X139745606Y-72070080D01*
X139820080Y-71995606D01*
X139872741Y-71904394D01*
X139900000Y-71802661D01*
X139900000Y-71796448D01*
X140651066Y-72547514D01*
X140651066Y-72547513D01*
X140697386Y-72483760D01*
X140797432Y-72287410D01*
X140865526Y-72077835D01*
X140900000Y-71860181D01*
X140900000Y-71639818D01*
X140865526Y-71422164D01*
X140797432Y-71212589D01*
X140697388Y-71016243D01*
X140651066Y-70952485D01*
X140651065Y-70952485D01*
X139900000Y-71703551D01*
X139900000Y-71697339D01*
X139872741Y-71595606D01*
X139820080Y-71504394D01*
X139745606Y-71429920D01*
X139654394Y-71377259D01*
X139552661Y-71350000D01*
X139546445Y-71350000D01*
X140297513Y-70598932D01*
X140233756Y-70552611D01*
X140037410Y-70452567D01*
X139827835Y-70384473D01*
X139610181Y-70350000D01*
X139389819Y-70350000D01*
X139172164Y-70384473D01*
X138962589Y-70452567D01*
X138766233Y-70552616D01*
X138702485Y-70598931D01*
X138702485Y-70598932D01*
X139453553Y-71350000D01*
X139447339Y-71350000D01*
X139345606Y-71377259D01*
X139254394Y-71429920D01*
X139179920Y-71504394D01*
X139127259Y-71595606D01*
X139100000Y-71697339D01*
X139100000Y-71703553D01*
X138348932Y-70952485D01*
X138348931Y-70952485D01*
X138302616Y-71016233D01*
X138202567Y-71212589D01*
X138134473Y-71422164D01*
X138100000Y-71639818D01*
X110600500Y-71639818D01*
X110600500Y-60848500D01*
X110620185Y-60781461D01*
X110672989Y-60735706D01*
X110724500Y-60724500D01*
X110990678Y-60724500D01*
X111057717Y-60744185D01*
X111103472Y-60796989D01*
X111113416Y-60866147D01*
X111090998Y-60921383D01*
X111080151Y-60936313D01*
X111003296Y-61087146D01*
X110950981Y-61248152D01*
X110924500Y-61415350D01*
X110924500Y-61584649D01*
X110950981Y-61751847D01*
X111003296Y-61912853D01*
X111047701Y-62000000D01*
X111077454Y-62058394D01*
X111080152Y-62063688D01*
X111179648Y-62200634D01*
X111179652Y-62200639D01*
X111299360Y-62320347D01*
X111299365Y-62320351D01*
X111408402Y-62399570D01*
X111436315Y-62419850D01*
X111501505Y-62453066D01*
X111587146Y-62496703D01*
X111587148Y-62496703D01*
X111587151Y-62496705D01*
X111673450Y-62524745D01*
X111748152Y-62549018D01*
X111915351Y-62575500D01*
X111915356Y-62575500D01*
X112084649Y-62575500D01*
X112160645Y-62563462D01*
X112251847Y-62549018D01*
X112300394Y-62533243D01*
X112370232Y-62531249D01*
X112426391Y-62563494D01*
X115723386Y-65860489D01*
X115826113Y-65919799D01*
X115850321Y-65926284D01*
X115850324Y-65926286D01*
X115850325Y-65926286D01*
X115880447Y-65934357D01*
X115940691Y-65950500D01*
X123225501Y-65950500D01*
X123292540Y-65970185D01*
X123338295Y-66022989D01*
X123349501Y-66074500D01*
X123349501Y-66547876D01*
X123355908Y-66607483D01*
X123406202Y-66742328D01*
X123406206Y-66742335D01*
X123492452Y-66857544D01*
X123492455Y-66857547D01*
X123607664Y-66943793D01*
X123607671Y-66943797D01*
X123742517Y-66994091D01*
X123742516Y-66994091D01*
X123749444Y-66994835D01*
X123802127Y-67000500D01*
X125197872Y-67000499D01*
X125257483Y-66994091D01*
X125392331Y-66943796D01*
X125507546Y-66857546D01*
X125593796Y-66742331D01*
X125644091Y-66607483D01*
X125650500Y-66547873D01*
X125650500Y-66074500D01*
X125670185Y-66007461D01*
X125722989Y-65961706D01*
X125774500Y-65950500D01*
X127059308Y-65950500D01*
X127059309Y-65950500D01*
X127149673Y-65926286D01*
X127173887Y-65919799D01*
X127276614Y-65860489D01*
X128828490Y-64308613D01*
X128887799Y-64205886D01*
X128887800Y-64205883D01*
X128895894Y-64175676D01*
X128895894Y-64175674D01*
X128911202Y-64118544D01*
X128918500Y-64091309D01*
X128918500Y-63550033D01*
X128938185Y-63482994D01*
X128990989Y-63437239D01*
X129018303Y-63428416D01*
X129051740Y-63421766D01*
X129134601Y-63366401D01*
X129189966Y-63283540D01*
X129204500Y-63210474D01*
X129204500Y-62359126D01*
X129204500Y-62359123D01*
X129204499Y-62359121D01*
X129189967Y-62286064D01*
X129189966Y-62286060D01*
X129178654Y-62269130D01*
X129134601Y-62203199D01*
X129051740Y-62147834D01*
X129051739Y-62147833D01*
X129051735Y-62147832D01*
X128978677Y-62133300D01*
X128978674Y-62133300D01*
X127957326Y-62133300D01*
X127957323Y-62133300D01*
X127884264Y-62147832D01*
X127884260Y-62147833D01*
X127801399Y-62203199D01*
X127746033Y-62286060D01*
X127746032Y-62286064D01*
X127731500Y-62359121D01*
X127731500Y-63210478D01*
X127746032Y-63283535D01*
X127746033Y-63283539D01*
X127746034Y-63283540D01*
X127801399Y-63366401D01*
X127884260Y-63421766D01*
X127917692Y-63428416D01*
X127945821Y-63443130D01*
X127974703Y-63456320D01*
X127976559Y-63459209D01*
X127979601Y-63460800D01*
X127995309Y-63488383D01*
X128012477Y-63515098D01*
X128013137Y-63519691D01*
X128014176Y-63521515D01*
X128017500Y-63550033D01*
X128017500Y-63794035D01*
X127997815Y-63861074D01*
X127981181Y-63881716D01*
X126849716Y-65013181D01*
X126788393Y-65046666D01*
X126762035Y-65049500D01*
X125774499Y-65049500D01*
X125707460Y-65029815D01*
X125661705Y-64977011D01*
X125650499Y-64925500D01*
X125650499Y-64452129D01*
X125650498Y-64452123D01*
X125650497Y-64452116D01*
X125644091Y-64392517D01*
X125629566Y-64353574D01*
X125593797Y-64257671D01*
X125593793Y-64257664D01*
X125507547Y-64142455D01*
X125507544Y-64142452D01*
X125392335Y-64056206D01*
X125392328Y-64056202D01*
X125257482Y-64005908D01*
X125257483Y-64005908D01*
X125197883Y-63999501D01*
X125197881Y-63999500D01*
X125197873Y-63999500D01*
X125197864Y-63999500D01*
X123802129Y-63999500D01*
X123802123Y-63999501D01*
X123742516Y-64005908D01*
X123607671Y-64056202D01*
X123607664Y-64056206D01*
X123492455Y-64142452D01*
X123492452Y-64142455D01*
X123406206Y-64257664D01*
X123406202Y-64257671D01*
X123355908Y-64392517D01*
X123349501Y-64452116D01*
X123349501Y-64452123D01*
X123349500Y-64452135D01*
X123349500Y-64925500D01*
X123329815Y-64992539D01*
X123277011Y-65038294D01*
X123225500Y-65049500D01*
X116237965Y-65049500D01*
X116170926Y-65029815D01*
X116150284Y-65013181D01*
X113063494Y-61926391D01*
X113030009Y-61865068D01*
X113033243Y-61800394D01*
X113049018Y-61751847D01*
X113064857Y-61651845D01*
X113075500Y-61584649D01*
X113075500Y-61415350D01*
X113049018Y-61248152D01*
X112996703Y-61087146D01*
X112969168Y-61033108D01*
X112919850Y-60936315D01*
X112915067Y-60929732D01*
X112909002Y-60921383D01*
X112885524Y-60855577D01*
X112901351Y-60787523D01*
X112951457Y-60738829D01*
X113009322Y-60724500D01*
X122823903Y-60724500D01*
X122890942Y-60744185D01*
X122911584Y-60760819D01*
X123313181Y-61162416D01*
X123346666Y-61223739D01*
X123349500Y-61250097D01*
X123349500Y-62547870D01*
X123349501Y-62547876D01*
X123355908Y-62607483D01*
X123406202Y-62742328D01*
X123406206Y-62742335D01*
X123492452Y-62857544D01*
X123492455Y-62857547D01*
X123607664Y-62943793D01*
X123607671Y-62943797D01*
X123742517Y-62994091D01*
X123742516Y-62994091D01*
X123749444Y-62994835D01*
X123802127Y-63000500D01*
X125197872Y-63000499D01*
X125257483Y-62994091D01*
X125392331Y-62943796D01*
X125507546Y-62857546D01*
X125593796Y-62742331D01*
X125644091Y-62607483D01*
X125650500Y-62547873D01*
X125650499Y-61370755D01*
X129514000Y-61370755D01*
X129514000Y-61569600D01*
X130250000Y-61569600D01*
X130250000Y-60918600D01*
X129966155Y-60918600D01*
X129906627Y-60925001D01*
X129906620Y-60925003D01*
X129771913Y-60975245D01*
X129771906Y-60975249D01*
X129656812Y-61061409D01*
X129656809Y-61061412D01*
X129570649Y-61176506D01*
X129570645Y-61176513D01*
X129520403Y-61311220D01*
X129520401Y-61311227D01*
X129514000Y-61370755D01*
X125650499Y-61370755D01*
X125650499Y-61250095D01*
X125670184Y-61183057D01*
X125686813Y-61162420D01*
X129368713Y-57480521D01*
X129368716Y-57480520D01*
X129480520Y-57368716D01*
X129530639Y-57281904D01*
X129559577Y-57231785D01*
X129600501Y-57079057D01*
X129600501Y-56920943D01*
X129600501Y-56913348D01*
X129600500Y-56913330D01*
X129600500Y-56187045D01*
X129620185Y-56120006D01*
X129672989Y-56074251D01*
X129700307Y-56065428D01*
X129722740Y-56060966D01*
X129805601Y-56005601D01*
X129860966Y-55922740D01*
X129875500Y-55849674D01*
X129875500Y-55384125D01*
X129895185Y-55317086D01*
X129925189Y-55284858D01*
X129982189Y-55242187D01*
X129982190Y-55242186D01*
X130068352Y-55127088D01*
X130068354Y-55127086D01*
X130118596Y-54992379D01*
X130118598Y-54992372D01*
X130124999Y-54932844D01*
X130125000Y-54932827D01*
X130125000Y-54810000D01*
X127875000Y-54810000D01*
X127875000Y-54932844D01*
X127881401Y-54992372D01*
X127881403Y-54992379D01*
X127931645Y-55127086D01*
X127931647Y-55127088D01*
X128017809Y-55242186D01*
X128017810Y-55242187D01*
X128074811Y-55284858D01*
X128116682Y-55340792D01*
X128124500Y-55384125D01*
X128124500Y-55849678D01*
X128139032Y-55922735D01*
X128139033Y-55922739D01*
X128157405Y-55950235D01*
X128194399Y-56005601D01*
X128277260Y-56060966D01*
X128299690Y-56065427D01*
X128361601Y-56097811D01*
X128396176Y-56158526D01*
X128399500Y-56187045D01*
X128399500Y-56699902D01*
X128379815Y-56766941D01*
X128363181Y-56787583D01*
X125312181Y-59838583D01*
X125250858Y-59872068D01*
X125181166Y-59867084D01*
X125125233Y-59825212D01*
X125100816Y-59759748D01*
X125100500Y-59750902D01*
X125100500Y-56658658D01*
X125120185Y-56591619D01*
X125172989Y-56545864D01*
X125242147Y-56535920D01*
X125263505Y-56540952D01*
X125372305Y-56577005D01*
X125372309Y-56577006D01*
X125475019Y-56587499D01*
X125749999Y-56587499D01*
X126250000Y-56587499D01*
X126524972Y-56587499D01*
X126524986Y-56587498D01*
X126627697Y-56577005D01*
X126794119Y-56521858D01*
X126794124Y-56521856D01*
X126943345Y-56429815D01*
X127067315Y-56305845D01*
X127159356Y-56156624D01*
X127159358Y-56156619D01*
X127214505Y-55990197D01*
X127214506Y-55990190D01*
X127224999Y-55887486D01*
X127225000Y-55887473D01*
X127225000Y-55750000D01*
X126250000Y-55750000D01*
X126250000Y-56587499D01*
X125749999Y-56587499D01*
X125750000Y-56587498D01*
X125750000Y-55624000D01*
X125769685Y-55556961D01*
X125822489Y-55511206D01*
X125874000Y-55500000D01*
X126000000Y-55500000D01*
X126000000Y-55374000D01*
X126019685Y-55306961D01*
X126072489Y-55261206D01*
X126124000Y-55250000D01*
X127224999Y-55250000D01*
X127224999Y-55112528D01*
X127224998Y-55112513D01*
X127214505Y-55009802D01*
X127159358Y-54843380D01*
X127159356Y-54843375D01*
X127067315Y-54694154D01*
X126943345Y-54570184D01*
X126794124Y-54478143D01*
X126794119Y-54478141D01*
X126701859Y-54447569D01*
X126644414Y-54407796D01*
X126617591Y-54343280D01*
X126629906Y-54274504D01*
X126677449Y-54223304D01*
X126697533Y-54213680D01*
X126717328Y-54206297D01*
X126717327Y-54206297D01*
X126717331Y-54206296D01*
X126832546Y-54120046D01*
X126866127Y-54075188D01*
X126922061Y-54033318D01*
X126965393Y-54025500D01*
X127754335Y-54025500D01*
X127821374Y-54045185D01*
X127867129Y-54097989D01*
X127877625Y-54162755D01*
X127875000Y-54187171D01*
X127875000Y-54310000D01*
X130125000Y-54310000D01*
X130125000Y-54187172D01*
X130124999Y-54187155D01*
X130118598Y-54127627D01*
X130118596Y-54127620D01*
X130068354Y-53992913D01*
X130068350Y-53992906D01*
X129982191Y-53877814D01*
X129982185Y-53877807D01*
X129925188Y-53835139D01*
X129883318Y-53779205D01*
X129875500Y-53735873D01*
X129875500Y-53270323D01*
X129875499Y-53270321D01*
X129860967Y-53197264D01*
X129860966Y-53197260D01*
X129805601Y-53114399D01*
X129735436Y-53067517D01*
X129722739Y-53059033D01*
X129722735Y-53059032D01*
X129649677Y-53044500D01*
X129649674Y-53044500D01*
X129325098Y-53044500D01*
X129258059Y-53024815D01*
X129251010Y-53019933D01*
X129243787Y-53014551D01*
X129173716Y-52944480D01*
X129073518Y-52886631D01*
X129067238Y-52883005D01*
X129036790Y-52865425D01*
X129036789Y-52865424D01*
X129024263Y-52862067D01*
X128884057Y-52824499D01*
X128725943Y-52824499D01*
X128718347Y-52824499D01*
X128718331Y-52824500D01*
X126965393Y-52824500D01*
X126898354Y-52804815D01*
X126866127Y-52774812D01*
X126833483Y-52731206D01*
X126832546Y-52729954D01*
X126832544Y-52729953D01*
X126832544Y-52729952D01*
X126717335Y-52643706D01*
X126717328Y-52643702D01*
X126582482Y-52593408D01*
X126582483Y-52593408D01*
X126522883Y-52587001D01*
X126522881Y-52587000D01*
X126522873Y-52587000D01*
X126522864Y-52587000D01*
X125477129Y-52587000D01*
X125477123Y-52587001D01*
X125417516Y-52593408D01*
X125282671Y-52643702D01*
X125282664Y-52643706D01*
X125167455Y-52729952D01*
X125167452Y-52729955D01*
X125081206Y-52845164D01*
X125081202Y-52845171D01*
X125030908Y-52980017D01*
X125024501Y-53039616D01*
X125024500Y-53039635D01*
X125024500Y-53499902D01*
X125004815Y-53566941D01*
X124988181Y-53587583D01*
X124019481Y-54556282D01*
X124019480Y-54556284D01*
X123983435Y-54618716D01*
X123940423Y-54693215D01*
X123899499Y-54845943D01*
X123899499Y-54845945D01*
X123899499Y-55014046D01*
X123899500Y-55014059D01*
X123899500Y-59750903D01*
X123893261Y-59772148D01*
X123891682Y-59794237D01*
X123883609Y-59805020D01*
X123879815Y-59817942D01*
X123863081Y-59832441D01*
X123849810Y-59850170D01*
X123837189Y-59854877D01*
X123827011Y-59863697D01*
X123805093Y-59866848D01*
X123784346Y-59874587D01*
X123771185Y-59871724D01*
X123757853Y-59873641D01*
X123737709Y-59864441D01*
X123716073Y-59859735D01*
X123698347Y-59846466D01*
X123694297Y-59844616D01*
X123687819Y-59838584D01*
X123611590Y-59762355D01*
X123611588Y-59762352D01*
X123492717Y-59643481D01*
X123492716Y-59643480D01*
X123405904Y-59593360D01*
X123405904Y-59593359D01*
X123405900Y-59593358D01*
X123355785Y-59564423D01*
X123203057Y-59523499D01*
X123044943Y-59523499D01*
X123037347Y-59523499D01*
X123037331Y-59523500D01*
X103262669Y-59523500D01*
X103262653Y-59523499D01*
X103255057Y-59523499D01*
X103096943Y-59523499D01*
X102997680Y-59550097D01*
X102944210Y-59564424D01*
X102944209Y-59564425D01*
X102894096Y-59593359D01*
X102894095Y-59593360D01*
X102850689Y-59618420D01*
X102807285Y-59643479D01*
X102807282Y-59643481D01*
X102695478Y-59755286D01*
X102051576Y-60399187D01*
X101990253Y-60432672D01*
X101944497Y-60433979D01*
X101884648Y-60424500D01*
X101884644Y-60424500D01*
X101715356Y-60424500D01*
X101715351Y-60424500D01*
X101548152Y-60450981D01*
X101387146Y-60503296D01*
X101236311Y-60580152D01*
X101099365Y-60679648D01*
X101099360Y-60679652D01*
X100979652Y-60799360D01*
X100979648Y-60799365D01*
X100880152Y-60936311D01*
X100803296Y-61087146D01*
X100750981Y-61248152D01*
X100724500Y-61415350D01*
X92250500Y-61415350D01*
X92250500Y-52465781D01*
X92270185Y-52398742D01*
X92286814Y-52378105D01*
X95979819Y-48685099D01*
X96041142Y-48651615D01*
X96110834Y-48656599D01*
X96166767Y-48698471D01*
X96191184Y-48763935D01*
X96191500Y-48772781D01*
X96191500Y-48918528D01*
X96191501Y-48918544D01*
X96222443Y-49153574D01*
X96283803Y-49382570D01*
X96374520Y-49601583D01*
X96374526Y-49601595D01*
X96493061Y-49806904D01*
X96493063Y-49806907D01*
X96493064Y-49806908D01*
X96637379Y-49994983D01*
X96637385Y-49994990D01*
X96805009Y-50162614D01*
X96805015Y-50162619D01*
X96993096Y-50306939D01*
X97198405Y-50425474D01*
X97198410Y-50425476D01*
X97198416Y-50425479D01*
X97234502Y-50440426D01*
X97417430Y-50516197D01*
X97646422Y-50577556D01*
X97881465Y-50608500D01*
X97881472Y-50608500D01*
X98118528Y-50608500D01*
X98118535Y-50608500D01*
X98353578Y-50577556D01*
X98582570Y-50516197D01*
X98801595Y-50425474D01*
X99006904Y-50306939D01*
X99194985Y-50162619D01*
X99362619Y-49994985D01*
X99506939Y-49806904D01*
X99625474Y-49601595D01*
X99716197Y-49382570D01*
X99730537Y-49329054D01*
X124149498Y-49329054D01*
X124190424Y-49481789D01*
X124190425Y-49481790D01*
X124205492Y-49507886D01*
X124205493Y-49507887D01*
X124269477Y-49618712D01*
X124269481Y-49618717D01*
X124388349Y-49737585D01*
X124388355Y-49737590D01*
X126265139Y-51614374D01*
X126265149Y-51614385D01*
X126269479Y-51618715D01*
X126269480Y-51618716D01*
X126381284Y-51730520D01*
X126468095Y-51780639D01*
X126468097Y-51780641D01*
X126506151Y-51802611D01*
X126518215Y-51809577D01*
X126670943Y-51850500D01*
X126829057Y-51850500D01*
X129449903Y-51850500D01*
X129516942Y-51870185D01*
X129537584Y-51886819D01*
X130019481Y-52368716D01*
X130650786Y-53000021D01*
X130684270Y-53061343D01*
X130679286Y-53131035D01*
X130666208Y-53156590D01*
X130639033Y-53197261D01*
X130639032Y-53197264D01*
X130624500Y-53270321D01*
X130624500Y-53969678D01*
X130639032Y-54042735D01*
X130639033Y-54042739D01*
X130645024Y-54051705D01*
X130694399Y-54125601D01*
X130762264Y-54170946D01*
X130777260Y-54180966D01*
X130777264Y-54180967D01*
X130850321Y-54195499D01*
X130850324Y-54195500D01*
X130850326Y-54195500D01*
X131311316Y-54195500D01*
X131343409Y-54199725D01*
X131358052Y-54203648D01*
X131420943Y-54220500D01*
X131420945Y-54220500D01*
X131579055Y-54220500D01*
X131579057Y-54220500D01*
X131644561Y-54202948D01*
X131656591Y-54199725D01*
X131688684Y-54195500D01*
X132149676Y-54195500D01*
X132149677Y-54195499D01*
X132222740Y-54180966D01*
X132230609Y-54175707D01*
X132297286Y-54154830D01*
X132364667Y-54173314D01*
X132411357Y-54225293D01*
X132423500Y-54278810D01*
X132423500Y-54841189D01*
X132403815Y-54908228D01*
X132351011Y-54953983D01*
X132281853Y-54963927D01*
X132230613Y-54944294D01*
X132222741Y-54939034D01*
X132222735Y-54939032D01*
X132149677Y-54924500D01*
X132149674Y-54924500D01*
X130850326Y-54924500D01*
X130850323Y-54924500D01*
X130777264Y-54939032D01*
X130777260Y-54939033D01*
X130694399Y-54994399D01*
X130639033Y-55077260D01*
X130639032Y-55077264D01*
X130624500Y-55150321D01*
X130624500Y-55849678D01*
X130639032Y-55922735D01*
X130639033Y-55922739D01*
X130657405Y-55950235D01*
X130694399Y-56005601D01*
X130765808Y-56053314D01*
X130777260Y-56060966D01*
X130777264Y-56060967D01*
X130850321Y-56075499D01*
X130850324Y-56075500D01*
X130850326Y-56075500D01*
X132149676Y-56075500D01*
X132149677Y-56075499D01*
X132222740Y-56060966D01*
X132230609Y-56055707D01*
X132297286Y-56034830D01*
X132364667Y-56053314D01*
X132411357Y-56105293D01*
X132423500Y-56158810D01*
X132423500Y-60888035D01*
X132403815Y-60955074D01*
X132387181Y-60975716D01*
X131697681Y-61665216D01*
X131636358Y-61698701D01*
X131566666Y-61693717D01*
X131510733Y-61651845D01*
X131486316Y-61586381D01*
X131486000Y-61577535D01*
X131486000Y-61370772D01*
X131485999Y-61370755D01*
X131479598Y-61311227D01*
X131479596Y-61311220D01*
X131429354Y-61176513D01*
X131429350Y-61176506D01*
X131343190Y-61061412D01*
X131343187Y-61061409D01*
X131228093Y-60975249D01*
X131228086Y-60975245D01*
X131093379Y-60925003D01*
X131093372Y-60925001D01*
X131033844Y-60918600D01*
X130750000Y-60918600D01*
X130750000Y-61695600D01*
X130730315Y-61762639D01*
X130677511Y-61808394D01*
X130626000Y-61819600D01*
X130500000Y-61819600D01*
X130500000Y-61945600D01*
X130480315Y-62012639D01*
X130427511Y-62058394D01*
X130376000Y-62069600D01*
X129514000Y-62069600D01*
X129514000Y-62268444D01*
X129520401Y-62327972D01*
X129520403Y-62327979D01*
X129570645Y-62462686D01*
X129570649Y-62462693D01*
X129656809Y-62577787D01*
X129656812Y-62577790D01*
X129771906Y-62663950D01*
X129771913Y-62663954D01*
X129906620Y-62714196D01*
X129906627Y-62714198D01*
X129966155Y-62720599D01*
X129966172Y-62720600D01*
X130342935Y-62720600D01*
X130364180Y-62726838D01*
X130386269Y-62728418D01*
X130397052Y-62736490D01*
X130409974Y-62740285D01*
X130424473Y-62757018D01*
X130442202Y-62770290D01*
X130446909Y-62782910D01*
X130455729Y-62793089D01*
X130458880Y-62815006D01*
X130466619Y-62835754D01*
X130463756Y-62848914D01*
X130465673Y-62862247D01*
X130456473Y-62882390D01*
X130451767Y-62904027D01*
X130438498Y-62921752D01*
X130436648Y-62925803D01*
X130430616Y-62932281D01*
X130300716Y-63062181D01*
X130239393Y-63095666D01*
X130213035Y-63098500D01*
X129989323Y-63098500D01*
X129916264Y-63113032D01*
X129916260Y-63113033D01*
X129833399Y-63168399D01*
X129778033Y-63251260D01*
X129778032Y-63251264D01*
X129763500Y-63324321D01*
X129763500Y-64175676D01*
X129778032Y-64248735D01*
X129778033Y-64248739D01*
X129784000Y-64257669D01*
X129833399Y-64331601D01*
X129916260Y-64386966D01*
X129916264Y-64386967D01*
X129989321Y-64401499D01*
X129989324Y-64401500D01*
X129989326Y-64401500D01*
X131010676Y-64401500D01*
X131010677Y-64401499D01*
X131083740Y-64386966D01*
X131166601Y-64331601D01*
X131221966Y-64248740D01*
X131230490Y-64205888D01*
X131236500Y-64175676D01*
X131236500Y-63451965D01*
X131256185Y-63384926D01*
X131272819Y-63364284D01*
X131387103Y-63250000D01*
X131519132Y-63117970D01*
X131580453Y-63084487D01*
X131650144Y-63089471D01*
X131706078Y-63131342D01*
X131726584Y-63173555D01*
X131733243Y-63198405D01*
X131737017Y-63212489D01*
X131809488Y-63338011D01*
X131809490Y-63338013D01*
X131809491Y-63338015D01*
X131911985Y-63440509D01*
X131911986Y-63440510D01*
X131911988Y-63440511D01*
X132037511Y-63512982D01*
X132037512Y-63512982D01*
X132037515Y-63512984D01*
X132177525Y-63550500D01*
X132177528Y-63550500D01*
X132322472Y-63550500D01*
X132322475Y-63550500D01*
X132462485Y-63512984D01*
X132541936Y-63467112D01*
X132603936Y-63450500D01*
X133632981Y-63450500D01*
X133700020Y-63470185D01*
X133745775Y-63522989D01*
X133754598Y-63550308D01*
X133764032Y-63597736D01*
X133764033Y-63597739D01*
X133764034Y-63597740D01*
X133819399Y-63680601D01*
X133875526Y-63718103D01*
X133902260Y-63735966D01*
X133902264Y-63735967D01*
X133975321Y-63750499D01*
X133975324Y-63750500D01*
X133975326Y-63750500D01*
X135274676Y-63750500D01*
X135274677Y-63750499D01*
X135347740Y-63735966D01*
X135430601Y-63680601D01*
X135485966Y-63597740D01*
X135495891Y-63547844D01*
X141250000Y-63547844D01*
X141256401Y-63607372D01*
X141256403Y-63607379D01*
X141306645Y-63742086D01*
X141306649Y-63742093D01*
X141392809Y-63857187D01*
X141392812Y-63857190D01*
X141507906Y-63943350D01*
X141507913Y-63943354D01*
X141642620Y-63993596D01*
X141642627Y-63993598D01*
X141702155Y-63999999D01*
X141702172Y-64000000D01*
X142125000Y-64000000D01*
X142125000Y-63250000D01*
X141250000Y-63250000D01*
X141250000Y-63547844D01*
X135495891Y-63547844D01*
X135500500Y-63524674D01*
X135500500Y-62475326D01*
X135500047Y-62473048D01*
X135500047Y-62473045D01*
X135500046Y-62473042D01*
X135495891Y-62452155D01*
X141250000Y-62452155D01*
X141250000Y-62750000D01*
X142125000Y-62750000D01*
X142125000Y-62000000D01*
X141702155Y-62000000D01*
X141642627Y-62006401D01*
X141642620Y-62006403D01*
X141507913Y-62056645D01*
X141507906Y-62056649D01*
X141392812Y-62142809D01*
X141392809Y-62142812D01*
X141306649Y-62257906D01*
X141306645Y-62257913D01*
X141256403Y-62392620D01*
X141256401Y-62392627D01*
X141250000Y-62452155D01*
X135495891Y-62452155D01*
X135485967Y-62402264D01*
X135485966Y-62402260D01*
X135484169Y-62399570D01*
X135430601Y-62319399D01*
X135355367Y-62269130D01*
X135347739Y-62264033D01*
X135347735Y-62264032D01*
X135274677Y-62249500D01*
X135274674Y-62249500D01*
X133975326Y-62249500D01*
X133975323Y-62249500D01*
X133902264Y-62264032D01*
X133902260Y-62264033D01*
X133819399Y-62319399D01*
X133764033Y-62402260D01*
X133764032Y-62402263D01*
X133754598Y-62449692D01*
X133722212Y-62511603D01*
X133661496Y-62546177D01*
X133632981Y-62549500D01*
X132603936Y-62549500D01*
X132593087Y-62547109D01*
X132585626Y-62548141D01*
X132564842Y-62540884D01*
X132551816Y-62538014D01*
X132546755Y-62535669D01*
X132462485Y-62487016D01*
X132413235Y-62473819D01*
X132403533Y-62469325D01*
X132384972Y-62453066D01*
X132363898Y-62440220D01*
X132359150Y-62430445D01*
X132350977Y-62423286D01*
X132344152Y-62399570D01*
X132333370Y-62377373D01*
X132334660Y-62366583D01*
X132331655Y-62356141D01*
X132338735Y-62332500D01*
X132341665Y-62307997D01*
X132349573Y-62296312D01*
X132351701Y-62289209D01*
X132358085Y-62283737D01*
X132367969Y-62269133D01*
X133234489Y-61402614D01*
X133293799Y-61299887D01*
X133314297Y-61223386D01*
X133324500Y-61185309D01*
X133324500Y-56709436D01*
X133344185Y-56642397D01*
X133396989Y-56596642D01*
X133461104Y-56586078D01*
X133475021Y-56587499D01*
X133749999Y-56587499D01*
X134250000Y-56587499D01*
X134524972Y-56587499D01*
X134524986Y-56587498D01*
X134627697Y-56577005D01*
X134794119Y-56521858D01*
X134794124Y-56521856D01*
X134943345Y-56429815D01*
X135067315Y-56305845D01*
X135159356Y-56156624D01*
X135159358Y-56156619D01*
X135214505Y-55990197D01*
X135214506Y-55990190D01*
X135224999Y-55887486D01*
X135225000Y-55887473D01*
X135225000Y-55750000D01*
X134250000Y-55750000D01*
X134250000Y-56587499D01*
X133749999Y-56587499D01*
X133750000Y-56587498D01*
X133750000Y-55624000D01*
X133769685Y-55556961D01*
X133822489Y-55511206D01*
X133874000Y-55500000D01*
X134000000Y-55500000D01*
X134000000Y-55374000D01*
X134019685Y-55306961D01*
X134072489Y-55261206D01*
X134124000Y-55250000D01*
X135224999Y-55250000D01*
X135224999Y-55112528D01*
X135224998Y-55112513D01*
X135214505Y-55009802D01*
X135159358Y-54843380D01*
X135159356Y-54843375D01*
X135067315Y-54694154D01*
X134943345Y-54570184D01*
X134794124Y-54478143D01*
X134794119Y-54478141D01*
X134701859Y-54447569D01*
X134644414Y-54407796D01*
X134617591Y-54343280D01*
X134629906Y-54274504D01*
X134677449Y-54223304D01*
X134697533Y-54213680D01*
X134717328Y-54206297D01*
X134717327Y-54206297D01*
X134717331Y-54206296D01*
X134832546Y-54120046D01*
X134866127Y-54075188D01*
X134869782Y-54072451D01*
X134871680Y-54068297D01*
X134897497Y-54051705D01*
X134922061Y-54033318D01*
X134927688Y-54032302D01*
X134930458Y-54030523D01*
X134965393Y-54025500D01*
X135124903Y-54025500D01*
X135191942Y-54045185D01*
X135212584Y-54061819D01*
X135613181Y-54462416D01*
X135646666Y-54523739D01*
X135649500Y-54550097D01*
X135649500Y-56913330D01*
X135649499Y-56913348D01*
X135649499Y-57079054D01*
X135649498Y-57079054D01*
X135690423Y-57231785D01*
X135719358Y-57281900D01*
X135719359Y-57281904D01*
X135719360Y-57281904D01*
X135769479Y-57368714D01*
X135769481Y-57368717D01*
X135888349Y-57487585D01*
X135888355Y-57487590D01*
X137015139Y-58614374D01*
X137015149Y-58614385D01*
X137019479Y-58618715D01*
X137019480Y-58618716D01*
X137131284Y-58730520D01*
X137218095Y-58780639D01*
X137218097Y-58780641D01*
X137256151Y-58802611D01*
X137268215Y-58809577D01*
X137420943Y-58850501D01*
X137420946Y-58850501D01*
X137586653Y-58850501D01*
X137586669Y-58850500D01*
X142949903Y-58850500D01*
X143016942Y-58870185D01*
X143037584Y-58886819D01*
X143613181Y-59462416D01*
X143646666Y-59523739D01*
X143649500Y-59550097D01*
X143649500Y-62160730D01*
X143629815Y-62227769D01*
X143577011Y-62273524D01*
X143507853Y-62283468D01*
X143444297Y-62254443D01*
X143426234Y-62235042D01*
X143357187Y-62142809D01*
X143242093Y-62056649D01*
X143242086Y-62056645D01*
X143107379Y-62006403D01*
X143107372Y-62006401D01*
X143047844Y-62000000D01*
X142625000Y-62000000D01*
X142625000Y-64000000D01*
X143047828Y-64000000D01*
X143047844Y-63999999D01*
X143107372Y-63993598D01*
X143107379Y-63993596D01*
X143242086Y-63943354D01*
X143242093Y-63943350D01*
X143357187Y-63857190D01*
X143357190Y-63857187D01*
X143426234Y-63764958D01*
X143482168Y-63723087D01*
X143551859Y-63718103D01*
X143613182Y-63751589D01*
X143646666Y-63812912D01*
X143649500Y-63839269D01*
X143649500Y-80649902D01*
X143629815Y-80716941D01*
X143613181Y-80737583D01*
X139103563Y-85247200D01*
X139042240Y-85280685D01*
X138977564Y-85277450D01*
X138851370Y-85236447D01*
X138618097Y-85199500D01*
X138618092Y-85199500D01*
X138381908Y-85199500D01*
X138381903Y-85199500D01*
X138148631Y-85236446D01*
X137924003Y-85309433D01*
X137713566Y-85416657D01*
X137604550Y-85495862D01*
X137522490Y-85555483D01*
X137522488Y-85555485D01*
X137522487Y-85555485D01*
X137355485Y-85722487D01*
X137355485Y-85722488D01*
X137355483Y-85722490D01*
X137295862Y-85804550D01*
X137216657Y-85913566D01*
X137109433Y-86124003D01*
X137036446Y-86348631D01*
X136999500Y-86581902D01*
X136999500Y-86818097D01*
X137036446Y-87051368D01*
X137109433Y-87275996D01*
X137146494Y-87348731D01*
X137216657Y-87486433D01*
X137355483Y-87677510D01*
X137522490Y-87844517D01*
X137713567Y-87983343D01*
X137812991Y-88034002D01*
X137924003Y-88090566D01*
X137924005Y-88090566D01*
X137924008Y-88090568D01*
X138044412Y-88129689D01*
X138148631Y-88163553D01*
X138381903Y-88200500D01*
X138381908Y-88200500D01*
X138618097Y-88200500D01*
X138851368Y-88163553D01*
X139075992Y-88090568D01*
X139286433Y-87983343D01*
X139477510Y-87844517D01*
X139644517Y-87677510D01*
X139783343Y-87486433D01*
X139890568Y-87275992D01*
X139963553Y-87051368D01*
X139965736Y-87037584D01*
X140000500Y-86818097D01*
X140000500Y-86581902D01*
X139963553Y-86348635D01*
X139963553Y-86348632D01*
X139922547Y-86222433D01*
X139920553Y-86152593D01*
X139952796Y-86096437D01*
X144608506Y-81440728D01*
X144608511Y-81440724D01*
X144618714Y-81430520D01*
X144618716Y-81430520D01*
X144730520Y-81318716D01*
X144802642Y-81193796D01*
X144809577Y-81181785D01*
X144850501Y-81029057D01*
X144850501Y-80870943D01*
X144850501Y-80863348D01*
X144850500Y-80863330D01*
X144850500Y-59339060D01*
X144850501Y-59339047D01*
X144850501Y-59170944D01*
X144809576Y-59018214D01*
X144809573Y-59018209D01*
X144730524Y-58881290D01*
X144730518Y-58881282D01*
X143737590Y-57888355D01*
X143737588Y-57888352D01*
X143618717Y-57769481D01*
X143618716Y-57769480D01*
X143531904Y-57719360D01*
X143531904Y-57719359D01*
X143531900Y-57719358D01*
X143481785Y-57690423D01*
X143329057Y-57649499D01*
X143170943Y-57649499D01*
X143163347Y-57649499D01*
X143163331Y-57649500D01*
X137800097Y-57649500D01*
X137733058Y-57629815D01*
X137712416Y-57613181D01*
X136886819Y-56787584D01*
X136853334Y-56726261D01*
X136850500Y-56699903D01*
X136850500Y-55924986D01*
X137300001Y-55924986D01*
X137310494Y-56027697D01*
X137365641Y-56194119D01*
X137365643Y-56194124D01*
X137457684Y-56343345D01*
X137581654Y-56467315D01*
X137730875Y-56559356D01*
X137730880Y-56559358D01*
X137897302Y-56614505D01*
X137897309Y-56614506D01*
X138000019Y-56624999D01*
X138249999Y-56624999D01*
X138750000Y-56624999D01*
X138999972Y-56624999D01*
X138999986Y-56624998D01*
X139102697Y-56614505D01*
X139269119Y-56559358D01*
X139269124Y-56559356D01*
X139418345Y-56467315D01*
X139542315Y-56343345D01*
X139634356Y-56194124D01*
X139634358Y-56194119D01*
X139689505Y-56027697D01*
X139689506Y-56027690D01*
X139699999Y-55924986D01*
X139700000Y-55924973D01*
X139700000Y-55800000D01*
X138750000Y-55800000D01*
X138750000Y-56624999D01*
X138249999Y-56624999D01*
X138250000Y-56624998D01*
X138250000Y-55800000D01*
X137300001Y-55800000D01*
X137300001Y-55924986D01*
X136850500Y-55924986D01*
X136850500Y-54170946D01*
X136850499Y-54170939D01*
X136831631Y-54100520D01*
X136809577Y-54018215D01*
X136780639Y-53968095D01*
X136730520Y-53881284D01*
X136618716Y-53769480D01*
X136618715Y-53769479D01*
X136614385Y-53765149D01*
X136614374Y-53765139D01*
X135912590Y-53063355D01*
X135912588Y-53063352D01*
X135793717Y-52944481D01*
X135793709Y-52944475D01*
X135693519Y-52886631D01*
X135693517Y-52886630D01*
X135656790Y-52865425D01*
X135656789Y-52865424D01*
X135644263Y-52862067D01*
X135504057Y-52824499D01*
X135345943Y-52824499D01*
X135338347Y-52824499D01*
X135338331Y-52824500D01*
X134965393Y-52824500D01*
X134898354Y-52804815D01*
X134866127Y-52774812D01*
X134833483Y-52731206D01*
X134832546Y-52729954D01*
X134832544Y-52729953D01*
X134832544Y-52729952D01*
X134717334Y-52643705D01*
X134681164Y-52630214D01*
X134625231Y-52588341D01*
X134600816Y-52522876D01*
X134600500Y-52514033D01*
X134600500Y-51170943D01*
X134596117Y-51154588D01*
X134596116Y-51154584D01*
X134575879Y-51079057D01*
X134559577Y-51018216D01*
X134559575Y-51018212D01*
X134559574Y-51018209D01*
X134480524Y-50881290D01*
X134480521Y-50881286D01*
X134480520Y-50881284D01*
X134368716Y-50769480D01*
X134368715Y-50769479D01*
X134364385Y-50765149D01*
X134364374Y-50765139D01*
X134118718Y-50519483D01*
X134118716Y-50519481D01*
X133981785Y-50440423D01*
X133829057Y-50399499D01*
X133670943Y-50399499D01*
X133594579Y-50419961D01*
X133518212Y-50440423D01*
X133518207Y-50440425D01*
X133510496Y-50444878D01*
X133442596Y-50461348D01*
X133376570Y-50438494D01*
X133333381Y-50383571D01*
X133324500Y-50337489D01*
X133324500Y-49514000D01*
X133344185Y-49446961D01*
X133396989Y-49401206D01*
X133448500Y-49390000D01*
X133870000Y-49390000D01*
X133870000Y-48473012D01*
X133927007Y-48505925D01*
X134054174Y-48540000D01*
X134185826Y-48540000D01*
X134312993Y-48505925D01*
X134370000Y-48473012D01*
X134370000Y-49390000D01*
X135017828Y-49390000D01*
X135017844Y-49389999D01*
X135077372Y-49383598D01*
X135077379Y-49383596D01*
X135212086Y-49333354D01*
X135212093Y-49333350D01*
X135327187Y-49247190D01*
X135327190Y-49247187D01*
X135413350Y-49132093D01*
X135413354Y-49132086D01*
X135463596Y-48997379D01*
X135463598Y-48997372D01*
X135469999Y-48937844D01*
X135470000Y-48937827D01*
X135470000Y-48290000D01*
X134553012Y-48290000D01*
X134585925Y-48232993D01*
X134620000Y-48105826D01*
X134620000Y-47974174D01*
X134585925Y-47847007D01*
X134553012Y-47790000D01*
X135470000Y-47790000D01*
X135470000Y-47142172D01*
X135469999Y-47142155D01*
X135463598Y-47082627D01*
X135463596Y-47082620D01*
X135413354Y-46947913D01*
X135413350Y-46947906D01*
X135327190Y-46832812D01*
X135327187Y-46832809D01*
X135212093Y-46746649D01*
X135212086Y-46746645D01*
X135077379Y-46696403D01*
X135077372Y-46696401D01*
X135017844Y-46690000D01*
X134725051Y-46690000D01*
X134658012Y-46670315D01*
X134612257Y-46617511D01*
X134602313Y-46548353D01*
X134631338Y-46484797D01*
X134668756Y-46455515D01*
X134671471Y-46454131D01*
X134696788Y-46441232D01*
X134836928Y-46339414D01*
X134959414Y-46216928D01*
X135061232Y-46076788D01*
X135139873Y-45922445D01*
X135193402Y-45757701D01*
X135220500Y-45586611D01*
X135220500Y-45413389D01*
X135193402Y-45242299D01*
X135139873Y-45077555D01*
X135061232Y-44923212D01*
X134959414Y-44783072D01*
X134836928Y-44660586D01*
X134696788Y-44558768D01*
X134542445Y-44480127D01*
X134377701Y-44426598D01*
X134377699Y-44426597D01*
X134377698Y-44426597D01*
X134246271Y-44405781D01*
X134206611Y-44399500D01*
X134033389Y-44399500D01*
X133993728Y-44405781D01*
X133862302Y-44426597D01*
X133697552Y-44480128D01*
X133543211Y-44558768D01*
X133487994Y-44598886D01*
X133403072Y-44660586D01*
X133403070Y-44660588D01*
X133403069Y-44660588D01*
X133280588Y-44783069D01*
X133280588Y-44783070D01*
X133280586Y-44783072D01*
X133236859Y-44843256D01*
X133178768Y-44923211D01*
X133100128Y-45077552D01*
X133046597Y-45242302D01*
X133019500Y-45413389D01*
X133019500Y-45586610D01*
X133042012Y-45728751D01*
X133046598Y-45757701D01*
X133100127Y-45922445D01*
X133178768Y-46076788D01*
X133280586Y-46216928D01*
X133403072Y-46339414D01*
X133543212Y-46441232D01*
X133561064Y-46450328D01*
X133571244Y-46455515D01*
X133622040Y-46503490D01*
X133638835Y-46571311D01*
X133616297Y-46637446D01*
X133561582Y-46680897D01*
X133514949Y-46690000D01*
X133222155Y-46690000D01*
X133162627Y-46696401D01*
X133162620Y-46696403D01*
X133027913Y-46746645D01*
X133027906Y-46746649D01*
X132912812Y-46832809D01*
X132912809Y-46832812D01*
X132826649Y-46947906D01*
X132826645Y-46947913D01*
X132776403Y-47082620D01*
X132776401Y-47082627D01*
X132770000Y-47142155D01*
X132770000Y-47434949D01*
X132750315Y-47501988D01*
X132697511Y-47547743D01*
X132628353Y-47557687D01*
X132564797Y-47528662D01*
X132535515Y-47491244D01*
X132521231Y-47463211D01*
X132520483Y-47462181D01*
X132419414Y-47323072D01*
X132296928Y-47200586D01*
X132156788Y-47098768D01*
X132002445Y-47020127D01*
X131837701Y-46966598D01*
X131837699Y-46966597D01*
X131837698Y-46966597D01*
X131671630Y-46940295D01*
X131666611Y-46939500D01*
X131493389Y-46939500D01*
X131488370Y-46940295D01*
X131322302Y-46966597D01*
X131322299Y-46966598D01*
X131163440Y-47018215D01*
X131157552Y-47020128D01*
X131003208Y-47098770D01*
X130870973Y-47194844D01*
X130870967Y-47194849D01*
X130863072Y-47200586D01*
X130740586Y-47323072D01*
X130729762Y-47337969D01*
X130729753Y-47337979D01*
X130638770Y-47463207D01*
X130560128Y-47617552D01*
X130506597Y-47782302D01*
X130479500Y-47953389D01*
X130479500Y-48126611D01*
X130506598Y-48297701D01*
X130560127Y-48462445D01*
X130638768Y-48616788D01*
X130740586Y-48756928D01*
X130863072Y-48879414D01*
X131003212Y-48981232D01*
X131157555Y-49059873D01*
X131322299Y-49113402D01*
X131493389Y-49140500D01*
X131493390Y-49140500D01*
X131666610Y-49140500D01*
X131666611Y-49140500D01*
X131837701Y-49113402D01*
X131900231Y-49093083D01*
X131970070Y-49091087D01*
X132026230Y-49123333D01*
X132387181Y-49484284D01*
X132420666Y-49545607D01*
X132423500Y-49571965D01*
X132423500Y-50524902D01*
X132403815Y-50591941D01*
X132351011Y-50637696D01*
X132281853Y-50647640D01*
X132218297Y-50618615D01*
X132211819Y-50612583D01*
X132118717Y-50519481D01*
X132118709Y-50519475D01*
X131981790Y-50440426D01*
X131981786Y-50440424D01*
X131981784Y-50440423D01*
X131829057Y-50399500D01*
X131829056Y-50399500D01*
X131586670Y-50399500D01*
X131586654Y-50399499D01*
X131579058Y-50399499D01*
X131420943Y-50399499D01*
X131344579Y-50419961D01*
X131268214Y-50440423D01*
X131268209Y-50440426D01*
X131131290Y-50519475D01*
X131131282Y-50519481D01*
X130587680Y-51063083D01*
X130579734Y-51067421D01*
X130574309Y-51074669D01*
X130549549Y-51083903D01*
X130526357Y-51096568D01*
X130517327Y-51095922D01*
X130508845Y-51099086D01*
X130483024Y-51093469D01*
X130456665Y-51091584D01*
X130447611Y-51085765D01*
X130440572Y-51084234D01*
X130412318Y-51063083D01*
X130237590Y-50888355D01*
X130237588Y-50888352D01*
X130118717Y-50769481D01*
X130118716Y-50769480D01*
X130031904Y-50719360D01*
X130031904Y-50719359D01*
X130031900Y-50719358D01*
X129981785Y-50690423D01*
X129829057Y-50649499D01*
X129670943Y-50649499D01*
X129663347Y-50649499D01*
X129663331Y-50649500D01*
X127050097Y-50649500D01*
X126983058Y-50629815D01*
X126962416Y-50613181D01*
X125386819Y-49037584D01*
X125353334Y-48976261D01*
X125350500Y-48949903D01*
X125350500Y-48711764D01*
X125370185Y-48644725D01*
X125422989Y-48598970D01*
X125492147Y-48589026D01*
X125555703Y-48618051D01*
X125574815Y-48638874D01*
X125660586Y-48756928D01*
X125783072Y-48879414D01*
X125923212Y-48981232D01*
X126077555Y-49059873D01*
X126242299Y-49113402D01*
X126413389Y-49140500D01*
X126413390Y-49140500D01*
X126586610Y-49140500D01*
X126586611Y-49140500D01*
X126757701Y-49113402D01*
X126922445Y-49059873D01*
X127076788Y-48981232D01*
X127216928Y-48879414D01*
X127339414Y-48756928D01*
X127441232Y-48616788D01*
X127519873Y-48462445D01*
X127573402Y-48297701D01*
X127600500Y-48126611D01*
X127600500Y-47953389D01*
X127573402Y-47782299D01*
X127519873Y-47617555D01*
X127441232Y-47463212D01*
X127339414Y-47323072D01*
X127216928Y-47200586D01*
X127076788Y-47098768D01*
X126922445Y-47020127D01*
X126757701Y-46966598D01*
X126757699Y-46966597D01*
X126757698Y-46966597D01*
X126591630Y-46940295D01*
X126586611Y-46939500D01*
X126413389Y-46939500D01*
X126408370Y-46940295D01*
X126242303Y-46966597D01*
X126242300Y-46966597D01*
X126242299Y-46966598D01*
X126214378Y-46975669D01*
X126200744Y-46980100D01*
X126194375Y-46980281D01*
X126188786Y-46983334D01*
X126159878Y-46981266D01*
X126130903Y-46982094D01*
X126125448Y-46978804D01*
X126119094Y-46978350D01*
X126095889Y-46960979D01*
X126071071Y-46946012D01*
X126068260Y-46940295D01*
X126063161Y-46936478D01*
X126053032Y-46909321D01*
X126040244Y-46883311D01*
X126040970Y-46876982D01*
X126038744Y-46871014D01*
X126044904Y-46842694D01*
X126048209Y-46813897D01*
X126052581Y-46807403D01*
X126053596Y-46802741D01*
X126074744Y-46774490D01*
X126226574Y-46622660D01*
X126287895Y-46589177D01*
X126333647Y-46587870D01*
X126413389Y-46600500D01*
X126413391Y-46600500D01*
X126586610Y-46600500D01*
X126586611Y-46600500D01*
X126757701Y-46573402D01*
X126922445Y-46519873D01*
X127076788Y-46441232D01*
X127216928Y-46339414D01*
X127339414Y-46216928D01*
X127441232Y-46076788D01*
X127519873Y-45922445D01*
X127573402Y-45757701D01*
X127600500Y-45586611D01*
X127600500Y-45413389D01*
X127573402Y-45242299D01*
X127519873Y-45077555D01*
X127441232Y-44923212D01*
X127339414Y-44783072D01*
X127216928Y-44660586D01*
X127158786Y-44618343D01*
X127151613Y-44613131D01*
X127108948Y-44557801D01*
X127100500Y-44512814D01*
X127100500Y-42800096D01*
X127120185Y-42733057D01*
X127136815Y-42712419D01*
X127337822Y-42511412D01*
X127399142Y-42477929D01*
X127468833Y-42482913D01*
X127524767Y-42524784D01*
X127549184Y-42590249D01*
X127549500Y-42599095D01*
X127549500Y-42897869D01*
X127549501Y-42897876D01*
X127555908Y-42957483D01*
X127606202Y-43092328D01*
X127606206Y-43092335D01*
X127692452Y-43207544D01*
X127692455Y-43207547D01*
X127807664Y-43293793D01*
X127807671Y-43293797D01*
X127942517Y-43344091D01*
X127950062Y-43345874D01*
X127949523Y-43348151D01*
X128003287Y-43370408D01*
X128043147Y-43427793D01*
X128049500Y-43466975D01*
X128049500Y-44990136D01*
X128035986Y-45046428D01*
X128020126Y-45077556D01*
X128020125Y-45077559D01*
X127966597Y-45242301D01*
X127939500Y-45413389D01*
X127939500Y-45586610D01*
X127962012Y-45728751D01*
X127966598Y-45757701D01*
X128020127Y-45922445D01*
X128098768Y-46076788D01*
X128200586Y-46216928D01*
X128323072Y-46339414D01*
X128463212Y-46441232D01*
X128617555Y-46519873D01*
X128782299Y-46573402D01*
X128953389Y-46600500D01*
X128953390Y-46600500D01*
X129126610Y-46600500D01*
X129126611Y-46600500D01*
X129297701Y-46573402D01*
X129462445Y-46519873D01*
X129616788Y-46441232D01*
X129681614Y-46394132D01*
X129693473Y-46389901D01*
X129702989Y-46381656D01*
X129725754Y-46378382D01*
X129747420Y-46370652D01*
X129759684Y-46373503D01*
X129772147Y-46371712D01*
X129793070Y-46381267D01*
X129815474Y-46386477D01*
X129824249Y-46395506D01*
X129835703Y-46400737D01*
X129848138Y-46420087D01*
X129864169Y-46436582D01*
X129867573Y-46450328D01*
X129873477Y-46459515D01*
X129878500Y-46494450D01*
X129878500Y-46513034D01*
X129858815Y-46580073D01*
X129842181Y-46600715D01*
X129486230Y-46956665D01*
X129424907Y-46990150D01*
X129360232Y-46986915D01*
X129297702Y-46966598D01*
X129297698Y-46966597D01*
X129131630Y-46940295D01*
X129126611Y-46939500D01*
X128953389Y-46939500D01*
X128948370Y-46940295D01*
X128782302Y-46966597D01*
X128782299Y-46966598D01*
X128623440Y-47018215D01*
X128617552Y-47020128D01*
X128463211Y-47098768D01*
X128383256Y-47156859D01*
X128323072Y-47200586D01*
X128323070Y-47200588D01*
X128323069Y-47200588D01*
X128200588Y-47323069D01*
X128200588Y-47323070D01*
X128200586Y-47323072D01*
X128188975Y-47339053D01*
X128098768Y-47463211D01*
X128020128Y-47617552D01*
X127966597Y-47782302D01*
X127939500Y-47953389D01*
X127939500Y-48126611D01*
X127966598Y-48297701D01*
X128020127Y-48462445D01*
X128098768Y-48616788D01*
X128200586Y-48756928D01*
X128323072Y-48879414D01*
X128463212Y-48981232D01*
X128617555Y-49059873D01*
X128782299Y-49113402D01*
X128953389Y-49140500D01*
X128953390Y-49140500D01*
X129126610Y-49140500D01*
X129126611Y-49140500D01*
X129297701Y-49113402D01*
X129462445Y-49059873D01*
X129616788Y-48981232D01*
X129756928Y-48879414D01*
X129879414Y-48756928D01*
X129981232Y-48616788D01*
X130059873Y-48462445D01*
X130113402Y-48297701D01*
X130140500Y-48126611D01*
X130140500Y-47953389D01*
X130113402Y-47782299D01*
X130093082Y-47719764D01*
X130091087Y-47649927D01*
X130123331Y-47593770D01*
X130689489Y-47027614D01*
X130699429Y-47010397D01*
X130724716Y-46966599D01*
X130735508Y-46947906D01*
X130748799Y-46924886D01*
X130779500Y-46810309D01*
X130779500Y-46522059D01*
X130799185Y-46455020D01*
X130851989Y-46409265D01*
X130921147Y-46399321D01*
X130976385Y-46421741D01*
X130989502Y-46431271D01*
X131003210Y-46441231D01*
X131003212Y-46441232D01*
X131157555Y-46519873D01*
X131322299Y-46573402D01*
X131493389Y-46600500D01*
X131493390Y-46600500D01*
X131666610Y-46600500D01*
X131666611Y-46600500D01*
X131837701Y-46573402D01*
X132002445Y-46519873D01*
X132156788Y-46441232D01*
X132296928Y-46339414D01*
X132419414Y-46216928D01*
X132521232Y-46076788D01*
X132599873Y-45922445D01*
X132653402Y-45757701D01*
X132680500Y-45586611D01*
X132680500Y-45413389D01*
X132653402Y-45242299D01*
X132599873Y-45077555D01*
X132521232Y-44923212D01*
X132419414Y-44783072D01*
X132296928Y-44660586D01*
X132156788Y-44558768D01*
X132002445Y-44480127D01*
X131837701Y-44426598D01*
X131837699Y-44426597D01*
X131837698Y-44426597D01*
X131706271Y-44405781D01*
X131666611Y-44399500D01*
X131493389Y-44399500D01*
X131453728Y-44405781D01*
X131322302Y-44426597D01*
X131157552Y-44480128D01*
X131003212Y-44558767D01*
X130976385Y-44578259D01*
X130964524Y-44582490D01*
X130955011Y-44590734D01*
X130932245Y-44594007D01*
X130910578Y-44601738D01*
X130898314Y-44598886D01*
X130885853Y-44600678D01*
X130864928Y-44591121D01*
X130842525Y-44585912D01*
X130833751Y-44576883D01*
X130822297Y-44571653D01*
X130809860Y-44552300D01*
X130793830Y-44535806D01*
X130790426Y-44522060D01*
X130784523Y-44512875D01*
X130779500Y-44477940D01*
X130779500Y-44408964D01*
X130799185Y-44341925D01*
X130815814Y-44321287D01*
X131750284Y-43386817D01*
X131811607Y-43353333D01*
X131837965Y-43350499D01*
X132497871Y-43350499D01*
X132497872Y-43350499D01*
X132557483Y-43344091D01*
X132692331Y-43293796D01*
X132807546Y-43207546D01*
X132893796Y-43092331D01*
X132944091Y-42957483D01*
X132950500Y-42897873D01*
X132950499Y-42102128D01*
X132944091Y-42042517D01*
X132923744Y-41987965D01*
X132893797Y-41907671D01*
X132893793Y-41907664D01*
X132807547Y-41792455D01*
X132807544Y-41792452D01*
X132692335Y-41706206D01*
X132692328Y-41706202D01*
X132557482Y-41655908D01*
X132557483Y-41655908D01*
X132497883Y-41649501D01*
X132497881Y-41649500D01*
X132497873Y-41649500D01*
X132497864Y-41649500D01*
X131502129Y-41649500D01*
X131502123Y-41649501D01*
X131442516Y-41655908D01*
X131307671Y-41706202D01*
X131307664Y-41706206D01*
X131192455Y-41792452D01*
X131192452Y-41792455D01*
X131106206Y-41907664D01*
X131106202Y-41907671D01*
X131055908Y-42042517D01*
X131049501Y-42102116D01*
X131049501Y-42102123D01*
X131049500Y-42102135D01*
X131049500Y-42762034D01*
X131029815Y-42829073D01*
X131013181Y-42849715D01*
X129968513Y-43894383D01*
X129968509Y-43894389D01*
X129909201Y-43997112D01*
X129909200Y-43997117D01*
X129878500Y-44111691D01*
X129878500Y-44505549D01*
X129858815Y-44572588D01*
X129806011Y-44618343D01*
X129736853Y-44628287D01*
X129681615Y-44605867D01*
X129616791Y-44558770D01*
X129616790Y-44558769D01*
X129616788Y-44558768D01*
X129462445Y-44480127D01*
X129297701Y-44426598D01*
X129297699Y-44426597D01*
X129297698Y-44426597D01*
X129166271Y-44405781D01*
X129126611Y-44399500D01*
X129074500Y-44399500D01*
X129007461Y-44379815D01*
X128961706Y-44327011D01*
X128950500Y-44275500D01*
X128950500Y-43466976D01*
X128970185Y-43399937D01*
X129022989Y-43354182D01*
X129050135Y-43346736D01*
X129049932Y-43345876D01*
X129057479Y-43344092D01*
X129057481Y-43344091D01*
X129057483Y-43344091D01*
X129192331Y-43293796D01*
X129307546Y-43207546D01*
X129393796Y-43092331D01*
X129444091Y-42957483D01*
X129450500Y-42897873D01*
X129450499Y-42102128D01*
X129444091Y-42042517D01*
X129423744Y-41987965D01*
X129393797Y-41907671D01*
X129393793Y-41907664D01*
X129307547Y-41792455D01*
X129307544Y-41792452D01*
X129192335Y-41706206D01*
X129192328Y-41706202D01*
X129057482Y-41655908D01*
X129057483Y-41655908D01*
X128997883Y-41649501D01*
X128997881Y-41649500D01*
X128997873Y-41649500D01*
X128997865Y-41649500D01*
X128499096Y-41649500D01*
X128477850Y-41643261D01*
X128455762Y-41641682D01*
X128444978Y-41633609D01*
X128432057Y-41629815D01*
X128417557Y-41613081D01*
X128399829Y-41599810D01*
X128395121Y-41587189D01*
X128386302Y-41577011D01*
X128383150Y-41555093D01*
X128375412Y-41534346D01*
X128378274Y-41521185D01*
X128376358Y-41507853D01*
X128385557Y-41487709D01*
X128390264Y-41466073D01*
X128403532Y-41448347D01*
X128405383Y-41444297D01*
X128411415Y-41437819D01*
X128462416Y-41386818D01*
X128523739Y-41353333D01*
X128550097Y-41350499D01*
X128997871Y-41350499D01*
X128997872Y-41350499D01*
X129057483Y-41344091D01*
X129192331Y-41293796D01*
X129307546Y-41207546D01*
X129393796Y-41092331D01*
X129444091Y-40957483D01*
X129450500Y-40897873D01*
X129450499Y-40102135D01*
X131049500Y-40102135D01*
X131049500Y-40897870D01*
X131049501Y-40897876D01*
X131055908Y-40957483D01*
X131106202Y-41092328D01*
X131106206Y-41092335D01*
X131192452Y-41207544D01*
X131192455Y-41207547D01*
X131307664Y-41293793D01*
X131307671Y-41293797D01*
X131442517Y-41344091D01*
X131442516Y-41344091D01*
X131449444Y-41344835D01*
X131502127Y-41350500D01*
X132497872Y-41350499D01*
X132557483Y-41344091D01*
X132692331Y-41293796D01*
X132807546Y-41207546D01*
X132893796Y-41092331D01*
X132916609Y-41031167D01*
X132958480Y-40975233D01*
X133023944Y-40950816D01*
X133032791Y-40950500D01*
X137012035Y-40950500D01*
X137079074Y-40970185D01*
X137099716Y-40986819D01*
X138013181Y-41900284D01*
X138046666Y-41961607D01*
X138049500Y-41987965D01*
X138049500Y-52558023D01*
X138029815Y-52625062D01*
X137977011Y-52670817D01*
X137949865Y-52678266D01*
X137950068Y-52679124D01*
X137942520Y-52680907D01*
X137807671Y-52731202D01*
X137807664Y-52731206D01*
X137692455Y-52817452D01*
X137692452Y-52817455D01*
X137606206Y-52932664D01*
X137606202Y-52932671D01*
X137557462Y-53063352D01*
X137555909Y-53067517D01*
X137549500Y-53127127D01*
X137549500Y-53127134D01*
X137549500Y-53127135D01*
X137549500Y-53872870D01*
X137549501Y-53872876D01*
X137555908Y-53932483D01*
X137606202Y-54067328D01*
X137606206Y-54067335D01*
X137692452Y-54182544D01*
X137692455Y-54182547D01*
X137807664Y-54268793D01*
X137807673Y-54268798D01*
X137827468Y-54276181D01*
X137883402Y-54318051D01*
X137907820Y-54383515D01*
X137892969Y-54451788D01*
X137843565Y-54501194D01*
X137823141Y-54510069D01*
X137730878Y-54540642D01*
X137730875Y-54540643D01*
X137581654Y-54632684D01*
X137457684Y-54756654D01*
X137365643Y-54905875D01*
X137365641Y-54905880D01*
X137310494Y-55072302D01*
X137310493Y-55072309D01*
X137300000Y-55175013D01*
X137300000Y-55300000D01*
X139699999Y-55300000D01*
X139699999Y-55175028D01*
X139699998Y-55175013D01*
X139689505Y-55072302D01*
X139634358Y-54905880D01*
X139634356Y-54905875D01*
X139542315Y-54756654D01*
X139418345Y-54632684D01*
X139269124Y-54540643D01*
X139269119Y-54540641D01*
X139176859Y-54510069D01*
X139119414Y-54470296D01*
X139092591Y-54405780D01*
X139104906Y-54337004D01*
X139152449Y-54285804D01*
X139172533Y-54276180D01*
X139192326Y-54268798D01*
X139192331Y-54268796D01*
X139307546Y-54182546D01*
X139393796Y-54067331D01*
X139444091Y-53932483D01*
X139450500Y-53872873D01*
X139450499Y-53127128D01*
X139444091Y-53067517D01*
X139441788Y-53061343D01*
X139393797Y-52932671D01*
X139393793Y-52932664D01*
X139307547Y-52817455D01*
X139307544Y-52817452D01*
X139192335Y-52731206D01*
X139192328Y-52731202D01*
X139057482Y-52680908D01*
X139049938Y-52679126D01*
X139050474Y-52676853D01*
X138996688Y-52654571D01*
X138956843Y-52597177D01*
X138950500Y-52558024D01*
X138950500Y-44311145D01*
X138970185Y-44244106D01*
X139022989Y-44198351D01*
X139092147Y-44188407D01*
X139100168Y-44189831D01*
X139109204Y-44191742D01*
X139112591Y-44192459D01*
X139204749Y-44187544D01*
X139292494Y-44158944D01*
X139369846Y-44108608D01*
X139431535Y-44039966D01*
X139473356Y-43957697D01*
X139492460Y-43867409D01*
X139487544Y-43775251D01*
X139458944Y-43687506D01*
X139142286Y-43200890D01*
X139142285Y-43200889D01*
X139142283Y-43200886D01*
X139073647Y-43139202D01*
X139073641Y-43139198D01*
X139018310Y-43111072D01*
X138967468Y-43063146D01*
X138950500Y-43000534D01*
X138950500Y-42479526D01*
X141956814Y-42479526D01*
X141956814Y-42479528D01*
X141956814Y-42479530D01*
X141964845Y-42571469D01*
X141996398Y-42658196D01*
X142049321Y-42733801D01*
X142120010Y-42793133D01*
X142120011Y-42793133D01*
X142120012Y-42793134D01*
X142203645Y-42832147D01*
X142303197Y-42849715D01*
X142804530Y-42938186D01*
X142896468Y-42930155D01*
X142983196Y-42898602D01*
X143058800Y-42845679D01*
X143118133Y-42774990D01*
X143157147Y-42691354D01*
X143163562Y-42655000D01*
X143173185Y-42600473D01*
X143166574Y-42524784D01*
X143165155Y-42508531D01*
X143133602Y-42421804D01*
X143080678Y-42346199D01*
X143080676Y-42346197D01*
X143080674Y-42346195D01*
X143009991Y-42286868D01*
X143009990Y-42286867D01*
X142970001Y-42268213D01*
X142926353Y-42247852D01*
X142926351Y-42247851D01*
X142926350Y-42247851D01*
X142325471Y-42141813D01*
X142233531Y-42149845D01*
X142146803Y-42181398D01*
X142106092Y-42209895D01*
X142071199Y-42234321D01*
X142071197Y-42234322D01*
X142071197Y-42234323D01*
X142011868Y-42305008D01*
X142011865Y-42305012D01*
X141972852Y-42388646D01*
X141956814Y-42479526D01*
X138950500Y-42479526D01*
X138950500Y-41690693D01*
X138950500Y-41690691D01*
X138922767Y-41587189D01*
X138919800Y-41576117D01*
X138919799Y-41576114D01*
X138919799Y-41576113D01*
X138860489Y-41473386D01*
X137526614Y-40139511D01*
X137475250Y-40109856D01*
X137423888Y-40080201D01*
X137411780Y-40076957D01*
X137399673Y-40073713D01*
X137399670Y-40073712D01*
X137358251Y-40062614D01*
X137309309Y-40049500D01*
X137309308Y-40049500D01*
X133032791Y-40049500D01*
X132965752Y-40029815D01*
X132919997Y-39977011D01*
X132916609Y-39968833D01*
X132893797Y-39907671D01*
X132893793Y-39907664D01*
X132807547Y-39792455D01*
X132807544Y-39792452D01*
X132692335Y-39706206D01*
X132692328Y-39706202D01*
X132557482Y-39655908D01*
X132557483Y-39655908D01*
X132497883Y-39649501D01*
X132497881Y-39649500D01*
X132497873Y-39649500D01*
X132497864Y-39649500D01*
X131502129Y-39649500D01*
X131502123Y-39649501D01*
X131442516Y-39655908D01*
X131307671Y-39706202D01*
X131307664Y-39706206D01*
X131192455Y-39792452D01*
X131192452Y-39792455D01*
X131106206Y-39907664D01*
X131106202Y-39907671D01*
X131055908Y-40042517D01*
X131049501Y-40102116D01*
X131049500Y-40102135D01*
X129450499Y-40102135D01*
X129450499Y-40102128D01*
X129444091Y-40042517D01*
X129439353Y-40029815D01*
X129393797Y-39907671D01*
X129393793Y-39907664D01*
X129307547Y-39792455D01*
X129307544Y-39792452D01*
X129192335Y-39706206D01*
X129192328Y-39706202D01*
X129057482Y-39655908D01*
X129057483Y-39655908D01*
X128997883Y-39649501D01*
X128997881Y-39649500D01*
X128997873Y-39649500D01*
X128997864Y-39649500D01*
X128002129Y-39649500D01*
X128002123Y-39649501D01*
X127942516Y-39655908D01*
X127807671Y-39706202D01*
X127807664Y-39706206D01*
X127692455Y-39792452D01*
X127692452Y-39792455D01*
X127606206Y-39907664D01*
X127606202Y-39907671D01*
X127555908Y-40042517D01*
X127549501Y-40102116D01*
X127549500Y-40102135D01*
X127549500Y-40549902D01*
X127529815Y-40616941D01*
X127513181Y-40637583D01*
X126019481Y-42131282D01*
X126019477Y-42131287D01*
X125997245Y-42169797D01*
X125997244Y-42169799D01*
X125940423Y-42268215D01*
X125899499Y-42420943D01*
X125899499Y-42420945D01*
X125899499Y-42589046D01*
X125899500Y-42589059D01*
X125899500Y-44512814D01*
X125879815Y-44579853D01*
X125848387Y-44613131D01*
X125783072Y-44660585D01*
X125660588Y-44783069D01*
X125660588Y-44783070D01*
X125660586Y-44783072D01*
X125616859Y-44843256D01*
X125558768Y-44923211D01*
X125480128Y-45077552D01*
X125426597Y-45242302D01*
X125399500Y-45413389D01*
X125399500Y-45586615D01*
X125412128Y-45666347D01*
X125403173Y-45735641D01*
X125377336Y-45773426D01*
X124381286Y-46769478D01*
X124269481Y-46881282D01*
X124220224Y-46966598D01*
X124190424Y-47018212D01*
X124190423Y-47018213D01*
X124169961Y-47094579D01*
X124149499Y-47170943D01*
X124149499Y-47329057D01*
X124149499Y-47329059D01*
X124149500Y-47339053D01*
X124149500Y-49163330D01*
X124149499Y-49163348D01*
X124149499Y-49329054D01*
X124149498Y-49329054D01*
X99730537Y-49329054D01*
X99777556Y-49153578D01*
X99808500Y-48918535D01*
X99808500Y-48681465D01*
X99777556Y-48446422D01*
X99716197Y-48217430D01*
X99632844Y-48016197D01*
X99625479Y-47998416D01*
X99625476Y-47998410D01*
X99625474Y-47998405D01*
X99506939Y-47793096D01*
X99389388Y-47639901D01*
X99362620Y-47605016D01*
X99362614Y-47605009D01*
X99219786Y-47462181D01*
X99186301Y-47400858D01*
X99191285Y-47331166D01*
X99233157Y-47275233D01*
X99298621Y-47250816D01*
X99307467Y-47250500D01*
X114189094Y-47250500D01*
X114256133Y-47270185D01*
X114290390Y-47303837D01*
X114290590Y-47303684D01*
X114291678Y-47305103D01*
X114292200Y-47305615D01*
X114293063Y-47306907D01*
X114437379Y-47494983D01*
X114437385Y-47494990D01*
X114605009Y-47662614D01*
X114605015Y-47662619D01*
X114793096Y-47806939D01*
X114998405Y-47925474D01*
X114998410Y-47925476D01*
X114998416Y-47925479D01*
X115065798Y-47953389D01*
X115217430Y-48016197D01*
X115446422Y-48077556D01*
X115681465Y-48108500D01*
X115681472Y-48108500D01*
X115918528Y-48108500D01*
X115918535Y-48108500D01*
X116153578Y-48077556D01*
X116382570Y-48016197D01*
X116601595Y-47925474D01*
X116806904Y-47806939D01*
X116994985Y-47662619D01*
X117162619Y-47494985D01*
X117306939Y-47306904D01*
X117425474Y-47101595D01*
X117516197Y-46882570D01*
X117577556Y-46653578D01*
X117608500Y-46418535D01*
X117608500Y-46181465D01*
X117577556Y-45946422D01*
X117516197Y-45717430D01*
X117425474Y-45498405D01*
X117306939Y-45293096D01*
X117162619Y-45105015D01*
X117162618Y-45105014D01*
X117162614Y-45105009D01*
X116994990Y-44937385D01*
X116994983Y-44937379D01*
X116806908Y-44793064D01*
X116806907Y-44793063D01*
X116806904Y-44793061D01*
X116601595Y-44674526D01*
X116601583Y-44674520D01*
X116382570Y-44583803D01*
X116356745Y-44576883D01*
X116153578Y-44522444D01*
X116153577Y-44522443D01*
X116153574Y-44522443D01*
X115918544Y-44491501D01*
X115918541Y-44491500D01*
X115918535Y-44491500D01*
X115681465Y-44491500D01*
X115681459Y-44491500D01*
X115681455Y-44491501D01*
X115446425Y-44522443D01*
X115217429Y-44583803D01*
X114998416Y-44674520D01*
X114998402Y-44674527D01*
X114820598Y-44777182D01*
X114810398Y-44783072D01*
X114793091Y-44793064D01*
X114605016Y-44937379D01*
X114605009Y-44937385D01*
X114437389Y-45105006D01*
X114437381Y-45105014D01*
X114363738Y-45200987D01*
X114307310Y-45242190D01*
X114265363Y-45249500D01*
X96901457Y-45249500D01*
X96811707Y-45267352D01*
X96811694Y-45267355D01*
X96807373Y-45268215D01*
X96708164Y-45287949D01*
X96659675Y-45308034D01*
X96652508Y-45311002D01*
X96652499Y-45311005D01*
X96526092Y-45363364D01*
X96526079Y-45363371D01*
X96362219Y-45472859D01*
X96292540Y-45542538D01*
X96222861Y-45612218D01*
X96222858Y-45612221D01*
X90612221Y-51222858D01*
X90612218Y-51222861D01*
X90542538Y-51292540D01*
X90472859Y-51362219D01*
X90363371Y-51526079D01*
X90363364Y-51526092D01*
X90287950Y-51708160D01*
X90287947Y-51708170D01*
X90249500Y-51901456D01*
X90249500Y-51901459D01*
X90249500Y-100598541D01*
X90249500Y-100598543D01*
X90249499Y-100598543D01*
X88000500Y-100598543D01*
X88000500Y-38581471D01*
X113991500Y-38581471D01*
X113991500Y-38818528D01*
X113991501Y-38818544D01*
X114022443Y-39053574D01*
X114083803Y-39282570D01*
X114174520Y-39501583D01*
X114174526Y-39501595D01*
X114293061Y-39706904D01*
X114293063Y-39706907D01*
X114293064Y-39706908D01*
X114437379Y-39894983D01*
X114437385Y-39894990D01*
X114605009Y-40062614D01*
X114605016Y-40062620D01*
X114656513Y-40102135D01*
X114793096Y-40206939D01*
X114998405Y-40325474D01*
X114998410Y-40325476D01*
X114998416Y-40325479D01*
X115092803Y-40364575D01*
X115217430Y-40416197D01*
X115446422Y-40477556D01*
X115681465Y-40508500D01*
X115681472Y-40508500D01*
X115918528Y-40508500D01*
X115918535Y-40508500D01*
X116153578Y-40477556D01*
X116382570Y-40416197D01*
X116601595Y-40325474D01*
X116806904Y-40206939D01*
X116994985Y-40062619D01*
X117162619Y-39894985D01*
X117306939Y-39706904D01*
X117425474Y-39501595D01*
X117516197Y-39282570D01*
X117577556Y-39053578D01*
X117608500Y-38818535D01*
X117608500Y-38581465D01*
X117577556Y-38346422D01*
X117516197Y-38117430D01*
X117425474Y-37898405D01*
X117306939Y-37693096D01*
X117162619Y-37505015D01*
X117162614Y-37505009D01*
X116994990Y-37337385D01*
X116994983Y-37337379D01*
X116964327Y-37313856D01*
X142149500Y-37313856D01*
X142149500Y-37406143D01*
X142173387Y-37495290D01*
X142173388Y-37495293D01*
X142219526Y-37575205D01*
X142219529Y-37575209D01*
X142219531Y-37575212D01*
X142284788Y-37640469D01*
X142284791Y-37640470D01*
X142284794Y-37640473D01*
X142364706Y-37686611D01*
X142364707Y-37686611D01*
X142364712Y-37686614D01*
X142453856Y-37710500D01*
X142453858Y-37710500D01*
X142856142Y-37710500D01*
X142856144Y-37710500D01*
X142945288Y-37686614D01*
X143025212Y-37640469D01*
X143090469Y-37575212D01*
X143136614Y-37495288D01*
X143160500Y-37406144D01*
X143160500Y-37313856D01*
X143136614Y-37224712D01*
X143118340Y-37193061D01*
X143090473Y-37144794D01*
X143090470Y-37144791D01*
X143090469Y-37144788D01*
X143025212Y-37079531D01*
X143025209Y-37079529D01*
X143025205Y-37079526D01*
X142945293Y-37033388D01*
X142945290Y-37033387D01*
X142945289Y-37033386D01*
X142945288Y-37033386D01*
X142856144Y-37009500D01*
X142453856Y-37009500D01*
X142364712Y-37033386D01*
X142364711Y-37033386D01*
X142364709Y-37033387D01*
X142364706Y-37033388D01*
X142284794Y-37079526D01*
X142284785Y-37079533D01*
X142219533Y-37144785D01*
X142219526Y-37144794D01*
X142173388Y-37224706D01*
X142173387Y-37224709D01*
X142149500Y-37313856D01*
X116964327Y-37313856D01*
X116806908Y-37193064D01*
X116806907Y-37193063D01*
X116806904Y-37193061D01*
X116639170Y-37096220D01*
X116601597Y-37074527D01*
X116601583Y-37074520D01*
X116382570Y-36983803D01*
X116153574Y-36922443D01*
X115918544Y-36891501D01*
X115918541Y-36891500D01*
X115918535Y-36891500D01*
X115681465Y-36891500D01*
X115681459Y-36891500D01*
X115681455Y-36891501D01*
X115446425Y-36922443D01*
X115217429Y-36983803D01*
X114998416Y-37074520D01*
X114998402Y-37074527D01*
X114793091Y-37193064D01*
X114605016Y-37337379D01*
X114605009Y-37337385D01*
X114437385Y-37505009D01*
X114437379Y-37505016D01*
X114293064Y-37693091D01*
X114174527Y-37898402D01*
X114174520Y-37898416D01*
X114083803Y-38117429D01*
X114022443Y-38346425D01*
X113991501Y-38581455D01*
X113991500Y-38581471D01*
X88000500Y-38581471D01*
X88000500Y-32502706D01*
X88000618Y-32497297D01*
X88003377Y-32434108D01*
X88017386Y-32113226D01*
X88018326Y-32102495D01*
X88040971Y-31930491D01*
X88799500Y-31930491D01*
X88799500Y-32269508D01*
X88832729Y-32606901D01*
X88898870Y-32939410D01*
X88997284Y-33263841D01*
X89127024Y-33577060D01*
X89127026Y-33577065D01*
X89286831Y-33876039D01*
X89286842Y-33876057D01*
X89475184Y-34157930D01*
X89475194Y-34157944D01*
X89690269Y-34420014D01*
X89929985Y-34659730D01*
X89929990Y-34659734D01*
X89929991Y-34659735D01*
X90192061Y-34874810D01*
X90473949Y-35063162D01*
X90473958Y-35063167D01*
X90473960Y-35063168D01*
X90772934Y-35222973D01*
X90772936Y-35222973D01*
X90772942Y-35222977D01*
X91086160Y-35352716D01*
X91410586Y-35451129D01*
X91743096Y-35517270D01*
X92080488Y-35550500D01*
X92080491Y-35550500D01*
X92419509Y-35550500D01*
X92419512Y-35550500D01*
X92756904Y-35517270D01*
X93089414Y-35451129D01*
X93413840Y-35352716D01*
X93727058Y-35222977D01*
X94026051Y-35063162D01*
X94307939Y-34874810D01*
X94570009Y-34659735D01*
X94809735Y-34420009D01*
X95024810Y-34157939D01*
X95213162Y-33876051D01*
X95372977Y-33577058D01*
X95502716Y-33263840D01*
X95601129Y-32939414D01*
X95602904Y-32930491D01*
X138299500Y-32930491D01*
X138299500Y-33269508D01*
X138332729Y-33606901D01*
X138398870Y-33939410D01*
X138497284Y-34263841D01*
X138627024Y-34577060D01*
X138627026Y-34577065D01*
X138786831Y-34876039D01*
X138786842Y-34876057D01*
X138975184Y-35157930D01*
X138975194Y-35157944D01*
X139190269Y-35420014D01*
X139429985Y-35659730D01*
X139429990Y-35659734D01*
X139429991Y-35659735D01*
X139692061Y-35874810D01*
X139973949Y-36063162D01*
X139973958Y-36063167D01*
X139973960Y-36063168D01*
X140272934Y-36222973D01*
X140272936Y-36222973D01*
X140272942Y-36222977D01*
X140586160Y-36352716D01*
X140910586Y-36451129D01*
X141243096Y-36517270D01*
X141580488Y-36550500D01*
X141580491Y-36550500D01*
X141919509Y-36550500D01*
X141919512Y-36550500D01*
X142256904Y-36517270D01*
X142589414Y-36451129D01*
X142913840Y-36352716D01*
X143227058Y-36222977D01*
X143526051Y-36063162D01*
X143807939Y-35874810D01*
X144070009Y-35659735D01*
X144309735Y-35420009D01*
X144524810Y-35157939D01*
X144713162Y-34876051D01*
X144872977Y-34577058D01*
X145002716Y-34263840D01*
X145101129Y-33939414D01*
X145167270Y-33606904D01*
X145200500Y-33269512D01*
X145200500Y-32930488D01*
X145167270Y-32593096D01*
X145101129Y-32260586D01*
X145002716Y-31936160D01*
X144872977Y-31622942D01*
X144713162Y-31323949D01*
X144524810Y-31042061D01*
X144309735Y-30779991D01*
X144309734Y-30779990D01*
X144309730Y-30779985D01*
X144070014Y-30540269D01*
X143807944Y-30325194D01*
X143807943Y-30325193D01*
X143807939Y-30325190D01*
X143526051Y-30136838D01*
X143526046Y-30136835D01*
X143526039Y-30136831D01*
X143227065Y-29977026D01*
X143227060Y-29977024D01*
X142913841Y-29847284D01*
X142691984Y-29779985D01*
X142589414Y-29748871D01*
X142589411Y-29748870D01*
X142589410Y-29748870D01*
X142256901Y-29682729D01*
X142019199Y-29659318D01*
X141919512Y-29649500D01*
X141580488Y-29649500D01*
X141489738Y-29658437D01*
X141243098Y-29682729D01*
X140910589Y-29748870D01*
X140586158Y-29847284D01*
X140272939Y-29977024D01*
X140272934Y-29977026D01*
X139973960Y-30136831D01*
X139973942Y-30136842D01*
X139692069Y-30325184D01*
X139692055Y-30325194D01*
X139429985Y-30540269D01*
X139190269Y-30779985D01*
X138975194Y-31042055D01*
X138975184Y-31042069D01*
X138786842Y-31323942D01*
X138786831Y-31323960D01*
X138627026Y-31622934D01*
X138627024Y-31622939D01*
X138497284Y-31936158D01*
X138398870Y-32260589D01*
X138332729Y-32593098D01*
X138308437Y-32839738D01*
X138302183Y-32903252D01*
X138299500Y-32930491D01*
X95602904Y-32930491D01*
X95667270Y-32606904D01*
X95700500Y-32269512D01*
X95700500Y-31930488D01*
X95667270Y-31593096D01*
X95601129Y-31260586D01*
X95502716Y-30936160D01*
X95372977Y-30622942D01*
X95328787Y-30540269D01*
X95213168Y-30323960D01*
X95213167Y-30323958D01*
X95213162Y-30323949D01*
X95024810Y-30042061D01*
X94809735Y-29779991D01*
X94809734Y-29779990D01*
X94809730Y-29779985D01*
X94570014Y-29540269D01*
X94307944Y-29325194D01*
X94307943Y-29325193D01*
X94307939Y-29325190D01*
X94026051Y-29136838D01*
X94026046Y-29136835D01*
X94026039Y-29136831D01*
X93727065Y-28977026D01*
X93727060Y-28977024D01*
X93413841Y-28847284D01*
X93223382Y-28789509D01*
X93089414Y-28748871D01*
X93089411Y-28748870D01*
X93089410Y-28748870D01*
X92756901Y-28682729D01*
X92519199Y-28659318D01*
X92419512Y-28649500D01*
X92080488Y-28649500D01*
X91989738Y-28658437D01*
X91743098Y-28682729D01*
X91410589Y-28748870D01*
X91086158Y-28847284D01*
X90772939Y-28977024D01*
X90772934Y-28977026D01*
X90473960Y-29136831D01*
X90473942Y-29136842D01*
X90192069Y-29325184D01*
X90192055Y-29325194D01*
X89929985Y-29540269D01*
X89690269Y-29779985D01*
X89475194Y-30042055D01*
X89475184Y-30042069D01*
X89286842Y-30323942D01*
X89286831Y-30323960D01*
X89127026Y-30622934D01*
X89127024Y-30622939D01*
X88997284Y-30936158D01*
X88898870Y-31260589D01*
X88832729Y-31593098D01*
X88799500Y-31930491D01*
X88040971Y-31930491D01*
X88068153Y-31724021D01*
X88070025Y-31713405D01*
X88152649Y-31340709D01*
X88155440Y-31330295D01*
X88270230Y-30966227D01*
X88273917Y-30956095D01*
X88420003Y-30603412D01*
X88424561Y-30593638D01*
X88600822Y-30255045D01*
X88606217Y-30245700D01*
X88811325Y-29923744D01*
X88817515Y-29914905D01*
X89049896Y-29612060D01*
X89056834Y-29603791D01*
X89314726Y-29322352D01*
X89322352Y-29314726D01*
X89603791Y-29056834D01*
X89612060Y-29049896D01*
X89914905Y-28817515D01*
X89923744Y-28811325D01*
X90245700Y-28606217D01*
X90255045Y-28600822D01*
X90593638Y-28424561D01*
X90603412Y-28420003D01*
X90956095Y-28273917D01*
X90966227Y-28270230D01*
X91330295Y-28155440D01*
X91340709Y-28152649D01*
X91713405Y-28070025D01*
X91724025Y-28068152D01*
X92102495Y-28018326D01*
X92113226Y-28017386D01*
X92497297Y-28000617D01*
X92502706Y-28000500D01*
X92565892Y-28000500D01*
X142434108Y-28000500D01*
X142497294Y-28000500D01*
X142502702Y-28000617D01*
G37*
%TD.AperFunction*%
%TD*%
M02*
