%TF.GenerationSoftware,KiCad,Pcbnew,9.0.6-9.0.6~ubuntu22.04.1*%
%TF.CreationDate,2026-01-04T01:52:07+05:30*%
%TF.ProjectId,WLM_NODE1,574c4d5f-4e4f-4444-9531-2e6b69636164,rev?*%
%TF.SameCoordinates,Original*%
%TF.FileFunction,Legend,Top*%
%TF.FilePolarity,Positive*%
%FSLAX46Y46*%
G04 Gerber Fmt 4.6, Leading zero omitted, Abs format (unit mm)*
G04 Created by KiCad (PCBNEW 9.0.6-9.0.6~ubuntu22.04.1) date 2026-01-04 01:52:07*
%MOMM*%
%LPD*%
G01*
G04 APERTURE LIST*
%ADD10C,0.200000*%
%ADD11C,0.160000*%
%ADD12C,0.175000*%
%ADD13C,0.120000*%
%ADD14C,0.127000*%
%ADD15C,0.000000*%
G04 APERTURE END LIST*
D10*
X131514912Y-59367219D02*
X132086340Y-59367219D01*
X131800626Y-60367219D02*
X131800626Y-59367219D01*
X132324436Y-59367219D02*
X132562531Y-60367219D01*
X132562531Y-60367219D02*
X132753007Y-59652933D01*
X132753007Y-59652933D02*
X132943483Y-60367219D01*
X132943483Y-60367219D02*
X133181579Y-59367219D01*
X133562531Y-60367219D02*
X133562531Y-59367219D01*
X134038721Y-60367219D02*
X134038721Y-59367219D01*
X134038721Y-59367219D02*
X134610149Y-60367219D01*
X134610149Y-60367219D02*
X134610149Y-59367219D01*
X135086340Y-59986266D02*
X135848245Y-59986266D01*
X136324435Y-60367219D02*
X136324435Y-59367219D01*
X136324435Y-59367219D02*
X136895863Y-60367219D01*
X136895863Y-60367219D02*
X136895863Y-59367219D01*
X137562530Y-59367219D02*
X137753006Y-59367219D01*
X137753006Y-59367219D02*
X137848244Y-59414838D01*
X137848244Y-59414838D02*
X137943482Y-59510076D01*
X137943482Y-59510076D02*
X137991101Y-59700552D01*
X137991101Y-59700552D02*
X137991101Y-60033885D01*
X137991101Y-60033885D02*
X137943482Y-60224361D01*
X137943482Y-60224361D02*
X137848244Y-60319600D01*
X137848244Y-60319600D02*
X137753006Y-60367219D01*
X137753006Y-60367219D02*
X137562530Y-60367219D01*
X137562530Y-60367219D02*
X137467292Y-60319600D01*
X137467292Y-60319600D02*
X137372054Y-60224361D01*
X137372054Y-60224361D02*
X137324435Y-60033885D01*
X137324435Y-60033885D02*
X137324435Y-59700552D01*
X137324435Y-59700552D02*
X137372054Y-59510076D01*
X137372054Y-59510076D02*
X137467292Y-59414838D01*
X137467292Y-59414838D02*
X137562530Y-59367219D01*
X138419673Y-60367219D02*
X138419673Y-59367219D01*
X138419673Y-59367219D02*
X138657768Y-59367219D01*
X138657768Y-59367219D02*
X138800625Y-59414838D01*
X138800625Y-59414838D02*
X138895863Y-59510076D01*
X138895863Y-59510076D02*
X138943482Y-59605314D01*
X138943482Y-59605314D02*
X138991101Y-59795790D01*
X138991101Y-59795790D02*
X138991101Y-59938647D01*
X138991101Y-59938647D02*
X138943482Y-60129123D01*
X138943482Y-60129123D02*
X138895863Y-60224361D01*
X138895863Y-60224361D02*
X138800625Y-60319600D01*
X138800625Y-60319600D02*
X138657768Y-60367219D01*
X138657768Y-60367219D02*
X138419673Y-60367219D01*
X139419673Y-59843409D02*
X139753006Y-59843409D01*
X139895863Y-60367219D02*
X139419673Y-60367219D01*
X139419673Y-60367219D02*
X139419673Y-59367219D01*
X139419673Y-59367219D02*
X139895863Y-59367219D01*
X140943483Y-59367219D02*
X141276816Y-60367219D01*
X141276816Y-60367219D02*
X141610149Y-59367219D01*
X142467292Y-60367219D02*
X141895864Y-60367219D01*
X142181578Y-60367219D02*
X142181578Y-59367219D01*
X142181578Y-59367219D02*
X142086340Y-59510076D01*
X142086340Y-59510076D02*
X141991102Y-59605314D01*
X141991102Y-59605314D02*
X141895864Y-59652933D01*
X142895864Y-60271980D02*
X142943483Y-60319600D01*
X142943483Y-60319600D02*
X142895864Y-60367219D01*
X142895864Y-60367219D02*
X142848245Y-60319600D01*
X142848245Y-60319600D02*
X142895864Y-60271980D01*
X142895864Y-60271980D02*
X142895864Y-60367219D01*
X143562530Y-59367219D02*
X143657768Y-59367219D01*
X143657768Y-59367219D02*
X143753006Y-59414838D01*
X143753006Y-59414838D02*
X143800625Y-59462457D01*
X143800625Y-59462457D02*
X143848244Y-59557695D01*
X143848244Y-59557695D02*
X143895863Y-59748171D01*
X143895863Y-59748171D02*
X143895863Y-59986266D01*
X143895863Y-59986266D02*
X143848244Y-60176742D01*
X143848244Y-60176742D02*
X143800625Y-60271980D01*
X143800625Y-60271980D02*
X143753006Y-60319600D01*
X143753006Y-60319600D02*
X143657768Y-60367219D01*
X143657768Y-60367219D02*
X143562530Y-60367219D01*
X143562530Y-60367219D02*
X143467292Y-60319600D01*
X143467292Y-60319600D02*
X143419673Y-60271980D01*
X143419673Y-60271980D02*
X143372054Y-60176742D01*
X143372054Y-60176742D02*
X143324435Y-59986266D01*
X143324435Y-59986266D02*
X143324435Y-59748171D01*
X143324435Y-59748171D02*
X143372054Y-59557695D01*
X143372054Y-59557695D02*
X143419673Y-59462457D01*
X143419673Y-59462457D02*
X143467292Y-59414838D01*
X143467292Y-59414838D02*
X143562530Y-59367219D01*
D11*
X127331929Y-87569346D02*
X127865263Y-87569346D01*
X128098596Y-87136013D02*
X128331930Y-87836013D01*
X128331930Y-87836013D02*
X128565263Y-87136013D01*
X128798596Y-87469346D02*
X129031930Y-87469346D01*
X129131930Y-87836013D02*
X128798596Y-87836013D01*
X128798596Y-87836013D02*
X128798596Y-87136013D01*
X128798596Y-87136013D02*
X129131930Y-87136013D01*
X135165644Y-87749052D02*
X135165644Y-87049052D01*
X135165644Y-87049052D02*
X135332311Y-87049052D01*
X135332311Y-87049052D02*
X135432311Y-87082385D01*
X135432311Y-87082385D02*
X135498978Y-87149052D01*
X135498978Y-87149052D02*
X135532311Y-87215719D01*
X135532311Y-87215719D02*
X135565644Y-87349052D01*
X135565644Y-87349052D02*
X135565644Y-87449052D01*
X135565644Y-87449052D02*
X135532311Y-87582385D01*
X135532311Y-87582385D02*
X135498978Y-87649052D01*
X135498978Y-87649052D02*
X135432311Y-87715719D01*
X135432311Y-87715719D02*
X135332311Y-87749052D01*
X135332311Y-87749052D02*
X135165644Y-87749052D01*
X135798978Y-87049052D02*
X136232311Y-87049052D01*
X136232311Y-87049052D02*
X135998978Y-87315719D01*
X135998978Y-87315719D02*
X136098978Y-87315719D01*
X136098978Y-87315719D02*
X136165644Y-87349052D01*
X136165644Y-87349052D02*
X136198978Y-87382385D01*
X136198978Y-87382385D02*
X136232311Y-87449052D01*
X136232311Y-87449052D02*
X136232311Y-87615719D01*
X136232311Y-87615719D02*
X136198978Y-87682385D01*
X136198978Y-87682385D02*
X136165644Y-87715719D01*
X136165644Y-87715719D02*
X136098978Y-87749052D01*
X136098978Y-87749052D02*
X135898978Y-87749052D01*
X135898978Y-87749052D02*
X135832311Y-87715719D01*
X135832311Y-87715719D02*
X135798978Y-87682385D01*
X161058596Y-87229346D02*
X160991929Y-87196013D01*
X160991929Y-87196013D02*
X160891929Y-87196013D01*
X160891929Y-87196013D02*
X160791929Y-87229346D01*
X160791929Y-87229346D02*
X160725263Y-87296013D01*
X160725263Y-87296013D02*
X160691929Y-87362680D01*
X160691929Y-87362680D02*
X160658596Y-87496013D01*
X160658596Y-87496013D02*
X160658596Y-87596013D01*
X160658596Y-87596013D02*
X160691929Y-87729346D01*
X160691929Y-87729346D02*
X160725263Y-87796013D01*
X160725263Y-87796013D02*
X160791929Y-87862680D01*
X160791929Y-87862680D02*
X160891929Y-87896013D01*
X160891929Y-87896013D02*
X160958596Y-87896013D01*
X160958596Y-87896013D02*
X161058596Y-87862680D01*
X161058596Y-87862680D02*
X161091929Y-87829346D01*
X161091929Y-87829346D02*
X161091929Y-87596013D01*
X161091929Y-87596013D02*
X160958596Y-87596013D01*
X161391929Y-87896013D02*
X161391929Y-87196013D01*
X161391929Y-87196013D02*
X161791929Y-87896013D01*
X161791929Y-87896013D02*
X161791929Y-87196013D01*
X162125262Y-87896013D02*
X162125262Y-87196013D01*
X162125262Y-87196013D02*
X162291929Y-87196013D01*
X162291929Y-87196013D02*
X162391929Y-87229346D01*
X162391929Y-87229346D02*
X162458596Y-87296013D01*
X162458596Y-87296013D02*
X162491929Y-87362680D01*
X162491929Y-87362680D02*
X162525262Y-87496013D01*
X162525262Y-87496013D02*
X162525262Y-87596013D01*
X162525262Y-87596013D02*
X162491929Y-87729346D01*
X162491929Y-87729346D02*
X162458596Y-87796013D01*
X162458596Y-87796013D02*
X162391929Y-87862680D01*
X162391929Y-87862680D02*
X162291929Y-87896013D01*
X162291929Y-87896013D02*
X162125262Y-87896013D01*
X133574977Y-87749052D02*
X133574977Y-87049052D01*
X133574977Y-87049052D02*
X133741644Y-87049052D01*
X133741644Y-87049052D02*
X133841644Y-87082385D01*
X133841644Y-87082385D02*
X133908311Y-87149052D01*
X133908311Y-87149052D02*
X133941644Y-87215719D01*
X133941644Y-87215719D02*
X133974977Y-87349052D01*
X133974977Y-87349052D02*
X133974977Y-87449052D01*
X133974977Y-87449052D02*
X133941644Y-87582385D01*
X133941644Y-87582385D02*
X133908311Y-87649052D01*
X133908311Y-87649052D02*
X133841644Y-87715719D01*
X133841644Y-87715719D02*
X133741644Y-87749052D01*
X133741644Y-87749052D02*
X133574977Y-87749052D01*
X134241644Y-87115719D02*
X134274977Y-87082385D01*
X134274977Y-87082385D02*
X134341644Y-87049052D01*
X134341644Y-87049052D02*
X134508311Y-87049052D01*
X134508311Y-87049052D02*
X134574977Y-87082385D01*
X134574977Y-87082385D02*
X134608311Y-87115719D01*
X134608311Y-87115719D02*
X134641644Y-87182385D01*
X134641644Y-87182385D02*
X134641644Y-87249052D01*
X134641644Y-87249052D02*
X134608311Y-87349052D01*
X134608311Y-87349052D02*
X134208311Y-87749052D01*
X134208311Y-87749052D02*
X134641644Y-87749052D01*
X162185738Y-79956013D02*
X162119071Y-79922680D01*
X162119071Y-79922680D02*
X162019071Y-79922680D01*
X162019071Y-79922680D02*
X161919071Y-79956013D01*
X161919071Y-79956013D02*
X161852405Y-80022680D01*
X161852405Y-80022680D02*
X161819071Y-80089347D01*
X161819071Y-80089347D02*
X161785738Y-80222680D01*
X161785738Y-80222680D02*
X161785738Y-80322680D01*
X161785738Y-80322680D02*
X161819071Y-80456013D01*
X161819071Y-80456013D02*
X161852405Y-80522680D01*
X161852405Y-80522680D02*
X161919071Y-80589347D01*
X161919071Y-80589347D02*
X162019071Y-80622680D01*
X162019071Y-80622680D02*
X162085738Y-80622680D01*
X162085738Y-80622680D02*
X162185738Y-80589347D01*
X162185738Y-80589347D02*
X162219071Y-80556013D01*
X162219071Y-80556013D02*
X162219071Y-80322680D01*
X162219071Y-80322680D02*
X162085738Y-80322680D01*
X162519071Y-80622680D02*
X162519071Y-79922680D01*
X162519071Y-79922680D02*
X162919071Y-80622680D01*
X162919071Y-80622680D02*
X162919071Y-79922680D01*
X163252404Y-80622680D02*
X163252404Y-79922680D01*
X163252404Y-79922680D02*
X163419071Y-79922680D01*
X163419071Y-79922680D02*
X163519071Y-79956013D01*
X163519071Y-79956013D02*
X163585738Y-80022680D01*
X163585738Y-80022680D02*
X163619071Y-80089347D01*
X163619071Y-80089347D02*
X163652404Y-80222680D01*
X163652404Y-80222680D02*
X163652404Y-80322680D01*
X163652404Y-80322680D02*
X163619071Y-80456013D01*
X163619071Y-80456013D02*
X163585738Y-80522680D01*
X163585738Y-80522680D02*
X163519071Y-80589347D01*
X163519071Y-80589347D02*
X163419071Y-80622680D01*
X163419071Y-80622680D02*
X163252404Y-80622680D01*
X120138596Y-61139346D02*
X120071929Y-61106013D01*
X120071929Y-61106013D02*
X119971929Y-61106013D01*
X119971929Y-61106013D02*
X119871929Y-61139346D01*
X119871929Y-61139346D02*
X119805263Y-61206013D01*
X119805263Y-61206013D02*
X119771929Y-61272680D01*
X119771929Y-61272680D02*
X119738596Y-61406013D01*
X119738596Y-61406013D02*
X119738596Y-61506013D01*
X119738596Y-61506013D02*
X119771929Y-61639346D01*
X119771929Y-61639346D02*
X119805263Y-61706013D01*
X119805263Y-61706013D02*
X119871929Y-61772680D01*
X119871929Y-61772680D02*
X119971929Y-61806013D01*
X119971929Y-61806013D02*
X120038596Y-61806013D01*
X120038596Y-61806013D02*
X120138596Y-61772680D01*
X120138596Y-61772680D02*
X120171929Y-61739346D01*
X120171929Y-61739346D02*
X120171929Y-61506013D01*
X120171929Y-61506013D02*
X120038596Y-61506013D01*
X120471929Y-61806013D02*
X120471929Y-61106013D01*
X120471929Y-61106013D02*
X120871929Y-61806013D01*
X120871929Y-61806013D02*
X120871929Y-61106013D01*
X121205262Y-61806013D02*
X121205262Y-61106013D01*
X121205262Y-61106013D02*
X121371929Y-61106013D01*
X121371929Y-61106013D02*
X121471929Y-61139346D01*
X121471929Y-61139346D02*
X121538596Y-61206013D01*
X121538596Y-61206013D02*
X121571929Y-61272680D01*
X121571929Y-61272680D02*
X121605262Y-61406013D01*
X121605262Y-61406013D02*
X121605262Y-61506013D01*
X121605262Y-61506013D02*
X121571929Y-61639346D01*
X121571929Y-61639346D02*
X121538596Y-61706013D01*
X121538596Y-61706013D02*
X121471929Y-61772680D01*
X121471929Y-61772680D02*
X121371929Y-61806013D01*
X121371929Y-61806013D02*
X121205262Y-61806013D01*
X131984310Y-87749052D02*
X131984310Y-87049052D01*
X131984310Y-87049052D02*
X132150977Y-87049052D01*
X132150977Y-87049052D02*
X132250977Y-87082385D01*
X132250977Y-87082385D02*
X132317644Y-87149052D01*
X132317644Y-87149052D02*
X132350977Y-87215719D01*
X132350977Y-87215719D02*
X132384310Y-87349052D01*
X132384310Y-87349052D02*
X132384310Y-87449052D01*
X132384310Y-87449052D02*
X132350977Y-87582385D01*
X132350977Y-87582385D02*
X132317644Y-87649052D01*
X132317644Y-87649052D02*
X132250977Y-87715719D01*
X132250977Y-87715719D02*
X132150977Y-87749052D01*
X132150977Y-87749052D02*
X131984310Y-87749052D01*
X133050977Y-87749052D02*
X132650977Y-87749052D01*
X132850977Y-87749052D02*
X132850977Y-87049052D01*
X132850977Y-87049052D02*
X132784310Y-87149052D01*
X132784310Y-87149052D02*
X132717644Y-87215719D01*
X132717644Y-87215719D02*
X132650977Y-87249052D01*
X123185025Y-61806013D02*
X122951692Y-61472680D01*
X122785025Y-61806013D02*
X122785025Y-61106013D01*
X122785025Y-61106013D02*
X123051692Y-61106013D01*
X123051692Y-61106013D02*
X123118359Y-61139346D01*
X123118359Y-61139346D02*
X123151692Y-61172680D01*
X123151692Y-61172680D02*
X123185025Y-61239346D01*
X123185025Y-61239346D02*
X123185025Y-61339346D01*
X123185025Y-61339346D02*
X123151692Y-61406013D01*
X123151692Y-61406013D02*
X123118359Y-61439346D01*
X123118359Y-61439346D02*
X123051692Y-61472680D01*
X123051692Y-61472680D02*
X122785025Y-61472680D01*
X123418359Y-61106013D02*
X123885025Y-61806013D01*
X123885025Y-61106013D02*
X123418359Y-61806013D01*
X156318596Y-87196013D02*
X156718596Y-87196013D01*
X156518596Y-87896013D02*
X156518596Y-87196013D01*
X157351929Y-87896013D02*
X157118596Y-87562680D01*
X156951929Y-87896013D02*
X156951929Y-87196013D01*
X156951929Y-87196013D02*
X157218596Y-87196013D01*
X157218596Y-87196013D02*
X157285263Y-87229346D01*
X157285263Y-87229346D02*
X157318596Y-87262680D01*
X157318596Y-87262680D02*
X157351929Y-87329346D01*
X157351929Y-87329346D02*
X157351929Y-87429346D01*
X157351929Y-87429346D02*
X157318596Y-87496013D01*
X157318596Y-87496013D02*
X157285263Y-87529346D01*
X157285263Y-87529346D02*
X157218596Y-87562680D01*
X157218596Y-87562680D02*
X156951929Y-87562680D01*
X158018596Y-87229346D02*
X157951929Y-87196013D01*
X157951929Y-87196013D02*
X157851929Y-87196013D01*
X157851929Y-87196013D02*
X157751929Y-87229346D01*
X157751929Y-87229346D02*
X157685263Y-87296013D01*
X157685263Y-87296013D02*
X157651929Y-87362680D01*
X157651929Y-87362680D02*
X157618596Y-87496013D01*
X157618596Y-87496013D02*
X157618596Y-87596013D01*
X157618596Y-87596013D02*
X157651929Y-87729346D01*
X157651929Y-87729346D02*
X157685263Y-87796013D01*
X157685263Y-87796013D02*
X157751929Y-87862680D01*
X157751929Y-87862680D02*
X157851929Y-87896013D01*
X157851929Y-87896013D02*
X157918596Y-87896013D01*
X157918596Y-87896013D02*
X158018596Y-87862680D01*
X158018596Y-87862680D02*
X158051929Y-87829346D01*
X158051929Y-87829346D02*
X158051929Y-87596013D01*
X158051929Y-87596013D02*
X157918596Y-87596013D01*
X154515263Y-87196013D02*
X154948596Y-87196013D01*
X154948596Y-87196013D02*
X154715263Y-87462680D01*
X154715263Y-87462680D02*
X154815263Y-87462680D01*
X154815263Y-87462680D02*
X154881929Y-87496013D01*
X154881929Y-87496013D02*
X154915263Y-87529346D01*
X154915263Y-87529346D02*
X154948596Y-87596013D01*
X154948596Y-87596013D02*
X154948596Y-87762680D01*
X154948596Y-87762680D02*
X154915263Y-87829346D01*
X154915263Y-87829346D02*
X154881929Y-87862680D01*
X154881929Y-87862680D02*
X154815263Y-87896013D01*
X154815263Y-87896013D02*
X154615263Y-87896013D01*
X154615263Y-87896013D02*
X154548596Y-87862680D01*
X154548596Y-87862680D02*
X154515263Y-87829346D01*
X155248596Y-87829346D02*
X155281930Y-87862680D01*
X155281930Y-87862680D02*
X155248596Y-87896013D01*
X155248596Y-87896013D02*
X155215263Y-87862680D01*
X155215263Y-87862680D02*
X155248596Y-87829346D01*
X155248596Y-87829346D02*
X155248596Y-87896013D01*
X155515263Y-87196013D02*
X155948596Y-87196013D01*
X155948596Y-87196013D02*
X155715263Y-87462680D01*
X155715263Y-87462680D02*
X155815263Y-87462680D01*
X155815263Y-87462680D02*
X155881929Y-87496013D01*
X155881929Y-87496013D02*
X155915263Y-87529346D01*
X155915263Y-87529346D02*
X155948596Y-87596013D01*
X155948596Y-87596013D02*
X155948596Y-87762680D01*
X155948596Y-87762680D02*
X155915263Y-87829346D01*
X155915263Y-87829346D02*
X155881929Y-87862680D01*
X155881929Y-87862680D02*
X155815263Y-87896013D01*
X155815263Y-87896013D02*
X155615263Y-87896013D01*
X155615263Y-87896013D02*
X155548596Y-87862680D01*
X155548596Y-87862680D02*
X155515263Y-87829346D01*
X162085740Y-77346013D02*
X162519073Y-77346013D01*
X162519073Y-77346013D02*
X162285740Y-77612680D01*
X162285740Y-77612680D02*
X162385740Y-77612680D01*
X162385740Y-77612680D02*
X162452406Y-77646013D01*
X162452406Y-77646013D02*
X162485740Y-77679346D01*
X162485740Y-77679346D02*
X162519073Y-77746013D01*
X162519073Y-77746013D02*
X162519073Y-77912680D01*
X162519073Y-77912680D02*
X162485740Y-77979346D01*
X162485740Y-77979346D02*
X162452406Y-78012680D01*
X162452406Y-78012680D02*
X162385740Y-78046013D01*
X162385740Y-78046013D02*
X162185740Y-78046013D01*
X162185740Y-78046013D02*
X162119073Y-78012680D01*
X162119073Y-78012680D02*
X162085740Y-77979346D01*
X162819073Y-77979346D02*
X162852407Y-78012680D01*
X162852407Y-78012680D02*
X162819073Y-78046013D01*
X162819073Y-78046013D02*
X162785740Y-78012680D01*
X162785740Y-78012680D02*
X162819073Y-77979346D01*
X162819073Y-77979346D02*
X162819073Y-78046013D01*
X163085740Y-77346013D02*
X163519073Y-77346013D01*
X163519073Y-77346013D02*
X163285740Y-77612680D01*
X163285740Y-77612680D02*
X163385740Y-77612680D01*
X163385740Y-77612680D02*
X163452406Y-77646013D01*
X163452406Y-77646013D02*
X163485740Y-77679346D01*
X163485740Y-77679346D02*
X163519073Y-77746013D01*
X163519073Y-77746013D02*
X163519073Y-77912680D01*
X163519073Y-77912680D02*
X163485740Y-77979346D01*
X163485740Y-77979346D02*
X163452406Y-78012680D01*
X163452406Y-78012680D02*
X163385740Y-78046013D01*
X163385740Y-78046013D02*
X163185740Y-78046013D01*
X163185740Y-78046013D02*
X163119073Y-78012680D01*
X163119073Y-78012680D02*
X163085740Y-77979346D01*
X161904787Y-83166013D02*
X162004787Y-83199346D01*
X162004787Y-83199346D02*
X162171454Y-83199346D01*
X162171454Y-83199346D02*
X162238120Y-83166013D01*
X162238120Y-83166013D02*
X162271454Y-83132679D01*
X162271454Y-83132679D02*
X162304787Y-83066013D01*
X162304787Y-83066013D02*
X162304787Y-82999346D01*
X162304787Y-82999346D02*
X162271454Y-82932679D01*
X162271454Y-82932679D02*
X162238120Y-82899346D01*
X162238120Y-82899346D02*
X162171454Y-82866013D01*
X162171454Y-82866013D02*
X162038120Y-82832679D01*
X162038120Y-82832679D02*
X161971454Y-82799346D01*
X161971454Y-82799346D02*
X161938120Y-82766013D01*
X161938120Y-82766013D02*
X161904787Y-82699346D01*
X161904787Y-82699346D02*
X161904787Y-82632679D01*
X161904787Y-82632679D02*
X161938120Y-82566013D01*
X161938120Y-82566013D02*
X161971454Y-82532679D01*
X161971454Y-82532679D02*
X162038120Y-82499346D01*
X162038120Y-82499346D02*
X162204787Y-82499346D01*
X162204787Y-82499346D02*
X162304787Y-82532679D01*
X162604787Y-83199346D02*
X162604787Y-82499346D01*
X162604787Y-82499346D02*
X162771454Y-82499346D01*
X162771454Y-82499346D02*
X162871454Y-82532679D01*
X162871454Y-82532679D02*
X162938121Y-82599346D01*
X162938121Y-82599346D02*
X162971454Y-82666013D01*
X162971454Y-82666013D02*
X163004787Y-82799346D01*
X163004787Y-82799346D02*
X163004787Y-82899346D01*
X163004787Y-82899346D02*
X162971454Y-83032679D01*
X162971454Y-83032679D02*
X162938121Y-83099346D01*
X162938121Y-83099346D02*
X162871454Y-83166013D01*
X162871454Y-83166013D02*
X162771454Y-83199346D01*
X162771454Y-83199346D02*
X162604787Y-83199346D01*
X163271454Y-82999346D02*
X163604787Y-82999346D01*
X163204787Y-83199346D02*
X163438121Y-82499346D01*
X163438121Y-82499346D02*
X163671454Y-83199346D01*
X119441929Y-87479346D02*
X119975263Y-87479346D01*
X120208596Y-87046013D02*
X120441930Y-87746013D01*
X120441930Y-87746013D02*
X120675263Y-87046013D01*
X120908596Y-87379346D02*
X121141930Y-87379346D01*
X121241930Y-87746013D02*
X120908596Y-87746013D01*
X120908596Y-87746013D02*
X120908596Y-87046013D01*
X120908596Y-87046013D02*
X121241930Y-87046013D01*
X140670977Y-87082385D02*
X140604310Y-87049052D01*
X140604310Y-87049052D02*
X140504310Y-87049052D01*
X140504310Y-87049052D02*
X140404310Y-87082385D01*
X140404310Y-87082385D02*
X140337644Y-87149052D01*
X140337644Y-87149052D02*
X140304310Y-87215719D01*
X140304310Y-87215719D02*
X140270977Y-87349052D01*
X140270977Y-87349052D02*
X140270977Y-87449052D01*
X140270977Y-87449052D02*
X140304310Y-87582385D01*
X140304310Y-87582385D02*
X140337644Y-87649052D01*
X140337644Y-87649052D02*
X140404310Y-87715719D01*
X140404310Y-87715719D02*
X140504310Y-87749052D01*
X140504310Y-87749052D02*
X140570977Y-87749052D01*
X140570977Y-87749052D02*
X140670977Y-87715719D01*
X140670977Y-87715719D02*
X140704310Y-87682385D01*
X140704310Y-87682385D02*
X140704310Y-87449052D01*
X140704310Y-87449052D02*
X140570977Y-87449052D01*
X141004310Y-87749052D02*
X141004310Y-87049052D01*
X141004310Y-87049052D02*
X141404310Y-87749052D01*
X141404310Y-87749052D02*
X141404310Y-87049052D01*
X141737643Y-87749052D02*
X141737643Y-87049052D01*
X141737643Y-87049052D02*
X141904310Y-87049052D01*
X141904310Y-87049052D02*
X142004310Y-87082385D01*
X142004310Y-87082385D02*
X142070977Y-87149052D01*
X142070977Y-87149052D02*
X142104310Y-87215719D01*
X142104310Y-87215719D02*
X142137643Y-87349052D01*
X142137643Y-87349052D02*
X142137643Y-87449052D01*
X142137643Y-87449052D02*
X142104310Y-87582385D01*
X142104310Y-87582385D02*
X142070977Y-87649052D01*
X142070977Y-87649052D02*
X142004310Y-87715719D01*
X142004310Y-87715719D02*
X141904310Y-87749052D01*
X141904310Y-87749052D02*
X141737643Y-87749052D01*
X124531929Y-87569346D02*
X125065263Y-87569346D01*
X124798596Y-87836013D02*
X124798596Y-87302680D01*
X125298596Y-87136013D02*
X125531930Y-87836013D01*
X125531930Y-87836013D02*
X125765263Y-87136013D01*
X125998596Y-87469346D02*
X126231930Y-87469346D01*
X126331930Y-87836013D02*
X125998596Y-87836013D01*
X125998596Y-87836013D02*
X125998596Y-87136013D01*
X125998596Y-87136013D02*
X126331930Y-87136013D01*
X116951929Y-87499346D02*
X117485263Y-87499346D01*
X117218596Y-87766013D02*
X117218596Y-87232680D01*
X117718596Y-87066013D02*
X117951930Y-87766013D01*
X117951930Y-87766013D02*
X118185263Y-87066013D01*
X118418596Y-87399346D02*
X118651930Y-87399346D01*
X118751930Y-87766013D02*
X118418596Y-87766013D01*
X118418596Y-87766013D02*
X118418596Y-87066013D01*
X118418596Y-87066013D02*
X118751930Y-87066013D01*
X161928596Y-85742680D02*
X162028596Y-85776013D01*
X162028596Y-85776013D02*
X162195263Y-85776013D01*
X162195263Y-85776013D02*
X162261929Y-85742680D01*
X162261929Y-85742680D02*
X162295263Y-85709346D01*
X162295263Y-85709346D02*
X162328596Y-85642680D01*
X162328596Y-85642680D02*
X162328596Y-85576013D01*
X162328596Y-85576013D02*
X162295263Y-85509346D01*
X162295263Y-85509346D02*
X162261929Y-85476013D01*
X162261929Y-85476013D02*
X162195263Y-85442680D01*
X162195263Y-85442680D02*
X162061929Y-85409346D01*
X162061929Y-85409346D02*
X161995263Y-85376013D01*
X161995263Y-85376013D02*
X161961929Y-85342680D01*
X161961929Y-85342680D02*
X161928596Y-85276013D01*
X161928596Y-85276013D02*
X161928596Y-85209346D01*
X161928596Y-85209346D02*
X161961929Y-85142680D01*
X161961929Y-85142680D02*
X161995263Y-85109346D01*
X161995263Y-85109346D02*
X162061929Y-85076013D01*
X162061929Y-85076013D02*
X162228596Y-85076013D01*
X162228596Y-85076013D02*
X162328596Y-85109346D01*
X163028596Y-85709346D02*
X162995263Y-85742680D01*
X162995263Y-85742680D02*
X162895263Y-85776013D01*
X162895263Y-85776013D02*
X162828596Y-85776013D01*
X162828596Y-85776013D02*
X162728596Y-85742680D01*
X162728596Y-85742680D02*
X162661930Y-85676013D01*
X162661930Y-85676013D02*
X162628596Y-85609346D01*
X162628596Y-85609346D02*
X162595263Y-85476013D01*
X162595263Y-85476013D02*
X162595263Y-85376013D01*
X162595263Y-85376013D02*
X162628596Y-85242680D01*
X162628596Y-85242680D02*
X162661930Y-85176013D01*
X162661930Y-85176013D02*
X162728596Y-85109346D01*
X162728596Y-85109346D02*
X162828596Y-85076013D01*
X162828596Y-85076013D02*
X162895263Y-85076013D01*
X162895263Y-85076013D02*
X162995263Y-85109346D01*
X162995263Y-85109346D02*
X163028596Y-85142680D01*
X163661930Y-85776013D02*
X163328596Y-85776013D01*
X163328596Y-85776013D02*
X163328596Y-85076013D01*
X158521929Y-87896013D02*
X158521929Y-87196013D01*
X158521929Y-87196013D02*
X158788596Y-87196013D01*
X158788596Y-87196013D02*
X158855263Y-87229346D01*
X158855263Y-87229346D02*
X158888596Y-87262680D01*
X158888596Y-87262680D02*
X158921929Y-87329346D01*
X158921929Y-87329346D02*
X158921929Y-87429346D01*
X158921929Y-87429346D02*
X158888596Y-87496013D01*
X158888596Y-87496013D02*
X158855263Y-87529346D01*
X158855263Y-87529346D02*
X158788596Y-87562680D01*
X158788596Y-87562680D02*
X158521929Y-87562680D01*
X159221929Y-87196013D02*
X159221929Y-87762680D01*
X159221929Y-87762680D02*
X159255263Y-87829346D01*
X159255263Y-87829346D02*
X159288596Y-87862680D01*
X159288596Y-87862680D02*
X159355263Y-87896013D01*
X159355263Y-87896013D02*
X159488596Y-87896013D01*
X159488596Y-87896013D02*
X159555263Y-87862680D01*
X159555263Y-87862680D02*
X159588596Y-87829346D01*
X159588596Y-87829346D02*
X159621929Y-87762680D01*
X159621929Y-87762680D02*
X159621929Y-87196013D01*
X160288596Y-87896013D02*
X159955262Y-87896013D01*
X159955262Y-87896013D02*
X159955262Y-87196013D01*
X125150501Y-61106013D02*
X125550501Y-61106013D01*
X125350501Y-61806013D02*
X125350501Y-61106013D01*
X125717168Y-61106013D02*
X126183834Y-61806013D01*
X126183834Y-61106013D02*
X125717168Y-61806013D01*
X136756310Y-87749052D02*
X136756310Y-87049052D01*
X136756310Y-87049052D02*
X136922977Y-87049052D01*
X136922977Y-87049052D02*
X137022977Y-87082385D01*
X137022977Y-87082385D02*
X137089644Y-87149052D01*
X137089644Y-87149052D02*
X137122977Y-87215719D01*
X137122977Y-87215719D02*
X137156310Y-87349052D01*
X137156310Y-87349052D02*
X137156310Y-87449052D01*
X137156310Y-87449052D02*
X137122977Y-87582385D01*
X137122977Y-87582385D02*
X137089644Y-87649052D01*
X137089644Y-87649052D02*
X137022977Y-87715719D01*
X137022977Y-87715719D02*
X136922977Y-87749052D01*
X136922977Y-87749052D02*
X136756310Y-87749052D01*
X137756310Y-87282385D02*
X137756310Y-87749052D01*
X137589644Y-87015719D02*
X137422977Y-87515719D01*
X137422977Y-87515719D02*
X137856310Y-87515719D01*
X138346977Y-87749052D02*
X138346977Y-87049052D01*
X138680310Y-87749052D02*
X138680310Y-87049052D01*
X138680310Y-87049052D02*
X139080310Y-87749052D01*
X139080310Y-87749052D02*
X139080310Y-87049052D01*
X139780310Y-87749052D02*
X139380310Y-87749052D01*
X139580310Y-87749052D02*
X139580310Y-87049052D01*
X139580310Y-87049052D02*
X139513643Y-87149052D01*
X139513643Y-87149052D02*
X139446977Y-87215719D01*
X139446977Y-87215719D02*
X139380310Y-87249052D01*
X127530263Y-61106013D02*
X127963596Y-61106013D01*
X127963596Y-61106013D02*
X127730263Y-61372680D01*
X127730263Y-61372680D02*
X127830263Y-61372680D01*
X127830263Y-61372680D02*
X127896929Y-61406013D01*
X127896929Y-61406013D02*
X127930263Y-61439346D01*
X127930263Y-61439346D02*
X127963596Y-61506013D01*
X127963596Y-61506013D02*
X127963596Y-61672680D01*
X127963596Y-61672680D02*
X127930263Y-61739346D01*
X127930263Y-61739346D02*
X127896929Y-61772680D01*
X127896929Y-61772680D02*
X127830263Y-61806013D01*
X127830263Y-61806013D02*
X127630263Y-61806013D01*
X127630263Y-61806013D02*
X127563596Y-61772680D01*
X127563596Y-61772680D02*
X127530263Y-61739346D01*
X128263596Y-61739346D02*
X128296930Y-61772680D01*
X128296930Y-61772680D02*
X128263596Y-61806013D01*
X128263596Y-61806013D02*
X128230263Y-61772680D01*
X128230263Y-61772680D02*
X128263596Y-61739346D01*
X128263596Y-61739346D02*
X128263596Y-61806013D01*
X128530263Y-61106013D02*
X128963596Y-61106013D01*
X128963596Y-61106013D02*
X128730263Y-61372680D01*
X128730263Y-61372680D02*
X128830263Y-61372680D01*
X128830263Y-61372680D02*
X128896929Y-61406013D01*
X128896929Y-61406013D02*
X128930263Y-61439346D01*
X128930263Y-61439346D02*
X128963596Y-61506013D01*
X128963596Y-61506013D02*
X128963596Y-61672680D01*
X128963596Y-61672680D02*
X128930263Y-61739346D01*
X128930263Y-61739346D02*
X128896929Y-61772680D01*
X128896929Y-61772680D02*
X128830263Y-61806013D01*
X128830263Y-61806013D02*
X128630263Y-61806013D01*
X128630263Y-61806013D02*
X128563596Y-61772680D01*
X128563596Y-61772680D02*
X128530263Y-61739346D01*
X172283333Y-71390513D02*
X172050000Y-71057180D01*
X171883333Y-71390513D02*
X171883333Y-70690513D01*
X171883333Y-70690513D02*
X172150000Y-70690513D01*
X172150000Y-70690513D02*
X172216667Y-70723846D01*
X172216667Y-70723846D02*
X172250000Y-70757180D01*
X172250000Y-70757180D02*
X172283333Y-70823846D01*
X172283333Y-70823846D02*
X172283333Y-70923846D01*
X172283333Y-70923846D02*
X172250000Y-70990513D01*
X172250000Y-70990513D02*
X172216667Y-71023846D01*
X172216667Y-71023846D02*
X172150000Y-71057180D01*
X172150000Y-71057180D02*
X171883333Y-71057180D01*
X172916667Y-70690513D02*
X172583333Y-70690513D01*
X172583333Y-70690513D02*
X172550000Y-71023846D01*
X172550000Y-71023846D02*
X172583333Y-70990513D01*
X172583333Y-70990513D02*
X172650000Y-70957180D01*
X172650000Y-70957180D02*
X172816667Y-70957180D01*
X172816667Y-70957180D02*
X172883333Y-70990513D01*
X172883333Y-70990513D02*
X172916667Y-71023846D01*
X172916667Y-71023846D02*
X172950000Y-71090513D01*
X172950000Y-71090513D02*
X172950000Y-71257180D01*
X172950000Y-71257180D02*
X172916667Y-71323846D01*
X172916667Y-71323846D02*
X172883333Y-71357180D01*
X172883333Y-71357180D02*
X172816667Y-71390513D01*
X172816667Y-71390513D02*
X172650000Y-71390513D01*
X172650000Y-71390513D02*
X172583333Y-71357180D01*
X172583333Y-71357180D02*
X172550000Y-71323846D01*
X138458333Y-68223846D02*
X138425000Y-68257180D01*
X138425000Y-68257180D02*
X138325000Y-68290513D01*
X138325000Y-68290513D02*
X138258333Y-68290513D01*
X138258333Y-68290513D02*
X138158333Y-68257180D01*
X138158333Y-68257180D02*
X138091667Y-68190513D01*
X138091667Y-68190513D02*
X138058333Y-68123846D01*
X138058333Y-68123846D02*
X138025000Y-67990513D01*
X138025000Y-67990513D02*
X138025000Y-67890513D01*
X138025000Y-67890513D02*
X138058333Y-67757180D01*
X138058333Y-67757180D02*
X138091667Y-67690513D01*
X138091667Y-67690513D02*
X138158333Y-67623846D01*
X138158333Y-67623846D02*
X138258333Y-67590513D01*
X138258333Y-67590513D02*
X138325000Y-67590513D01*
X138325000Y-67590513D02*
X138425000Y-67623846D01*
X138425000Y-67623846D02*
X138458333Y-67657180D01*
X139125000Y-68290513D02*
X138725000Y-68290513D01*
X138925000Y-68290513D02*
X138925000Y-67590513D01*
X138925000Y-67590513D02*
X138858333Y-67690513D01*
X138858333Y-67690513D02*
X138791667Y-67757180D01*
X138791667Y-67757180D02*
X138725000Y-67790513D01*
X148308333Y-63915513D02*
X148075000Y-63582180D01*
X147908333Y-63915513D02*
X147908333Y-63215513D01*
X147908333Y-63215513D02*
X148175000Y-63215513D01*
X148175000Y-63215513D02*
X148241667Y-63248846D01*
X148241667Y-63248846D02*
X148275000Y-63282180D01*
X148275000Y-63282180D02*
X148308333Y-63348846D01*
X148308333Y-63348846D02*
X148308333Y-63448846D01*
X148308333Y-63448846D02*
X148275000Y-63515513D01*
X148275000Y-63515513D02*
X148241667Y-63548846D01*
X148241667Y-63548846D02*
X148175000Y-63582180D01*
X148175000Y-63582180D02*
X147908333Y-63582180D01*
X148908333Y-63215513D02*
X148775000Y-63215513D01*
X148775000Y-63215513D02*
X148708333Y-63248846D01*
X148708333Y-63248846D02*
X148675000Y-63282180D01*
X148675000Y-63282180D02*
X148608333Y-63382180D01*
X148608333Y-63382180D02*
X148575000Y-63515513D01*
X148575000Y-63515513D02*
X148575000Y-63782180D01*
X148575000Y-63782180D02*
X148608333Y-63848846D01*
X148608333Y-63848846D02*
X148641667Y-63882180D01*
X148641667Y-63882180D02*
X148708333Y-63915513D01*
X148708333Y-63915513D02*
X148841667Y-63915513D01*
X148841667Y-63915513D02*
X148908333Y-63882180D01*
X148908333Y-63882180D02*
X148941667Y-63848846D01*
X148941667Y-63848846D02*
X148975000Y-63782180D01*
X148975000Y-63782180D02*
X148975000Y-63615513D01*
X148975000Y-63615513D02*
X148941667Y-63548846D01*
X148941667Y-63548846D02*
X148908333Y-63515513D01*
X148908333Y-63515513D02*
X148841667Y-63482180D01*
X148841667Y-63482180D02*
X148708333Y-63482180D01*
X148708333Y-63482180D02*
X148641667Y-63515513D01*
X148641667Y-63515513D02*
X148608333Y-63548846D01*
X148608333Y-63548846D02*
X148575000Y-63615513D01*
D12*
X135466666Y-79814733D02*
X135466666Y-80314733D01*
X135466666Y-80314733D02*
X135433333Y-80414733D01*
X135433333Y-80414733D02*
X135366666Y-80481400D01*
X135366666Y-80481400D02*
X135266666Y-80514733D01*
X135266666Y-80514733D02*
X135200000Y-80514733D01*
X136166666Y-80514733D02*
X135766666Y-80514733D01*
X135966666Y-80514733D02*
X135966666Y-79814733D01*
X135966666Y-79814733D02*
X135899999Y-79914733D01*
X135899999Y-79914733D02*
X135833333Y-79981400D01*
X135833333Y-79981400D02*
X135766666Y-80014733D01*
D11*
X138433333Y-71065513D02*
X138200000Y-70732180D01*
X138033333Y-71065513D02*
X138033333Y-70365513D01*
X138033333Y-70365513D02*
X138300000Y-70365513D01*
X138300000Y-70365513D02*
X138366667Y-70398846D01*
X138366667Y-70398846D02*
X138400000Y-70432180D01*
X138400000Y-70432180D02*
X138433333Y-70498846D01*
X138433333Y-70498846D02*
X138433333Y-70598846D01*
X138433333Y-70598846D02*
X138400000Y-70665513D01*
X138400000Y-70665513D02*
X138366667Y-70698846D01*
X138366667Y-70698846D02*
X138300000Y-70732180D01*
X138300000Y-70732180D02*
X138033333Y-70732180D01*
X139100000Y-71065513D02*
X138700000Y-71065513D01*
X138900000Y-71065513D02*
X138900000Y-70365513D01*
X138900000Y-70365513D02*
X138833333Y-70465513D01*
X138833333Y-70465513D02*
X138766667Y-70532180D01*
X138766667Y-70532180D02*
X138700000Y-70565513D01*
X124683333Y-65090513D02*
X124450000Y-64757180D01*
X124283333Y-65090513D02*
X124283333Y-64390513D01*
X124283333Y-64390513D02*
X124550000Y-64390513D01*
X124550000Y-64390513D02*
X124616667Y-64423846D01*
X124616667Y-64423846D02*
X124650000Y-64457180D01*
X124650000Y-64457180D02*
X124683333Y-64523846D01*
X124683333Y-64523846D02*
X124683333Y-64623846D01*
X124683333Y-64623846D02*
X124650000Y-64690513D01*
X124650000Y-64690513D02*
X124616667Y-64723846D01*
X124616667Y-64723846D02*
X124550000Y-64757180D01*
X124550000Y-64757180D02*
X124283333Y-64757180D01*
X124950000Y-64457180D02*
X124983333Y-64423846D01*
X124983333Y-64423846D02*
X125050000Y-64390513D01*
X125050000Y-64390513D02*
X125216667Y-64390513D01*
X125216667Y-64390513D02*
X125283333Y-64423846D01*
X125283333Y-64423846D02*
X125316667Y-64457180D01*
X125316667Y-64457180D02*
X125350000Y-64523846D01*
X125350000Y-64523846D02*
X125350000Y-64590513D01*
X125350000Y-64590513D02*
X125316667Y-64690513D01*
X125316667Y-64690513D02*
X124916667Y-65090513D01*
X124916667Y-65090513D02*
X125350000Y-65090513D01*
X124374999Y-76840513D02*
X124141666Y-76507180D01*
X123974999Y-76840513D02*
X123974999Y-76140513D01*
X123974999Y-76140513D02*
X124241666Y-76140513D01*
X124241666Y-76140513D02*
X124308333Y-76173846D01*
X124308333Y-76173846D02*
X124341666Y-76207180D01*
X124341666Y-76207180D02*
X124374999Y-76273846D01*
X124374999Y-76273846D02*
X124374999Y-76373846D01*
X124374999Y-76373846D02*
X124341666Y-76440513D01*
X124341666Y-76440513D02*
X124308333Y-76473846D01*
X124308333Y-76473846D02*
X124241666Y-76507180D01*
X124241666Y-76507180D02*
X123974999Y-76507180D01*
X125041666Y-76840513D02*
X124641666Y-76840513D01*
X124841666Y-76840513D02*
X124841666Y-76140513D01*
X124841666Y-76140513D02*
X124774999Y-76240513D01*
X124774999Y-76240513D02*
X124708333Y-76307180D01*
X124708333Y-76307180D02*
X124641666Y-76340513D01*
X125475000Y-76140513D02*
X125541666Y-76140513D01*
X125541666Y-76140513D02*
X125608333Y-76173846D01*
X125608333Y-76173846D02*
X125641666Y-76207180D01*
X125641666Y-76207180D02*
X125675000Y-76273846D01*
X125675000Y-76273846D02*
X125708333Y-76407180D01*
X125708333Y-76407180D02*
X125708333Y-76573846D01*
X125708333Y-76573846D02*
X125675000Y-76707180D01*
X125675000Y-76707180D02*
X125641666Y-76773846D01*
X125641666Y-76773846D02*
X125608333Y-76807180D01*
X125608333Y-76807180D02*
X125541666Y-76840513D01*
X125541666Y-76840513D02*
X125475000Y-76840513D01*
X125475000Y-76840513D02*
X125408333Y-76807180D01*
X125408333Y-76807180D02*
X125375000Y-76773846D01*
X125375000Y-76773846D02*
X125341666Y-76707180D01*
X125341666Y-76707180D02*
X125308333Y-76573846D01*
X125308333Y-76573846D02*
X125308333Y-76407180D01*
X125308333Y-76407180D02*
X125341666Y-76273846D01*
X125341666Y-76273846D02*
X125375000Y-76207180D01*
X125375000Y-76207180D02*
X125408333Y-76173846D01*
X125408333Y-76173846D02*
X125475000Y-76140513D01*
D12*
X142616666Y-74614733D02*
X142616666Y-73914733D01*
X143349999Y-74548066D02*
X143316666Y-74581400D01*
X143316666Y-74581400D02*
X143216666Y-74614733D01*
X143216666Y-74614733D02*
X143149999Y-74614733D01*
X143149999Y-74614733D02*
X143049999Y-74581400D01*
X143049999Y-74581400D02*
X142983333Y-74514733D01*
X142983333Y-74514733D02*
X142949999Y-74448066D01*
X142949999Y-74448066D02*
X142916666Y-74314733D01*
X142916666Y-74314733D02*
X142916666Y-74214733D01*
X142916666Y-74214733D02*
X142949999Y-74081400D01*
X142949999Y-74081400D02*
X142983333Y-74014733D01*
X142983333Y-74014733D02*
X143049999Y-73948066D01*
X143049999Y-73948066D02*
X143149999Y-73914733D01*
X143149999Y-73914733D02*
X143216666Y-73914733D01*
X143216666Y-73914733D02*
X143316666Y-73948066D01*
X143316666Y-73948066D02*
X143349999Y-73981400D01*
X144016666Y-74614733D02*
X143616666Y-74614733D01*
X143816666Y-74614733D02*
X143816666Y-73914733D01*
X143816666Y-73914733D02*
X143749999Y-74014733D01*
X143749999Y-74014733D02*
X143683333Y-74081400D01*
X143683333Y-74081400D02*
X143616666Y-74114733D01*
D11*
X148390513Y-58816666D02*
X148057180Y-59049999D01*
X148390513Y-59216666D02*
X147690513Y-59216666D01*
X147690513Y-59216666D02*
X147690513Y-58949999D01*
X147690513Y-58949999D02*
X147723846Y-58883333D01*
X147723846Y-58883333D02*
X147757180Y-58849999D01*
X147757180Y-58849999D02*
X147823846Y-58816666D01*
X147823846Y-58816666D02*
X147923846Y-58816666D01*
X147923846Y-58816666D02*
X147990513Y-58849999D01*
X147990513Y-58849999D02*
X148023846Y-58883333D01*
X148023846Y-58883333D02*
X148057180Y-58949999D01*
X148057180Y-58949999D02*
X148057180Y-59216666D01*
X147690513Y-58583333D02*
X147690513Y-58116666D01*
X147690513Y-58116666D02*
X148390513Y-58416666D01*
D12*
X144939733Y-81650000D02*
X144606400Y-81883333D01*
X144939733Y-82050000D02*
X144239733Y-82050000D01*
X144239733Y-82050000D02*
X144239733Y-81783333D01*
X144239733Y-81783333D02*
X144273066Y-81716667D01*
X144273066Y-81716667D02*
X144306400Y-81683333D01*
X144306400Y-81683333D02*
X144373066Y-81650000D01*
X144373066Y-81650000D02*
X144473066Y-81650000D01*
X144473066Y-81650000D02*
X144539733Y-81683333D01*
X144539733Y-81683333D02*
X144573066Y-81716667D01*
X144573066Y-81716667D02*
X144606400Y-81783333D01*
X144606400Y-81783333D02*
X144606400Y-82050000D01*
X144939733Y-80983333D02*
X144939733Y-81383333D01*
X144939733Y-81183333D02*
X144239733Y-81183333D01*
X144239733Y-81183333D02*
X144339733Y-81250000D01*
X144339733Y-81250000D02*
X144406400Y-81316667D01*
X144406400Y-81316667D02*
X144439733Y-81383333D01*
X144939733Y-80316666D02*
X144939733Y-80716666D01*
X144939733Y-80516666D02*
X144239733Y-80516666D01*
X144239733Y-80516666D02*
X144339733Y-80583333D01*
X144339733Y-80583333D02*
X144406400Y-80650000D01*
X144406400Y-80650000D02*
X144439733Y-80716666D01*
X147408333Y-87414733D02*
X147408333Y-86714733D01*
X147408333Y-86714733D02*
X147575000Y-86714733D01*
X147575000Y-86714733D02*
X147675000Y-86748066D01*
X147675000Y-86748066D02*
X147741667Y-86814733D01*
X147741667Y-86814733D02*
X147775000Y-86881400D01*
X147775000Y-86881400D02*
X147808333Y-87014733D01*
X147808333Y-87014733D02*
X147808333Y-87114733D01*
X147808333Y-87114733D02*
X147775000Y-87248066D01*
X147775000Y-87248066D02*
X147741667Y-87314733D01*
X147741667Y-87314733D02*
X147675000Y-87381400D01*
X147675000Y-87381400D02*
X147575000Y-87414733D01*
X147575000Y-87414733D02*
X147408333Y-87414733D01*
X148475000Y-87414733D02*
X148075000Y-87414733D01*
X148275000Y-87414733D02*
X148275000Y-86714733D01*
X148275000Y-86714733D02*
X148208333Y-86814733D01*
X148208333Y-86814733D02*
X148141667Y-86881400D01*
X148141667Y-86881400D02*
X148075000Y-86914733D01*
D11*
X150873846Y-58854166D02*
X150907180Y-58887499D01*
X150907180Y-58887499D02*
X150940513Y-58987499D01*
X150940513Y-58987499D02*
X150940513Y-59054166D01*
X150940513Y-59054166D02*
X150907180Y-59154166D01*
X150907180Y-59154166D02*
X150840513Y-59220833D01*
X150840513Y-59220833D02*
X150773846Y-59254166D01*
X150773846Y-59254166D02*
X150640513Y-59287499D01*
X150640513Y-59287499D02*
X150540513Y-59287499D01*
X150540513Y-59287499D02*
X150407180Y-59254166D01*
X150407180Y-59254166D02*
X150340513Y-59220833D01*
X150340513Y-59220833D02*
X150273846Y-59154166D01*
X150273846Y-59154166D02*
X150240513Y-59054166D01*
X150240513Y-59054166D02*
X150240513Y-58987499D01*
X150240513Y-58987499D02*
X150273846Y-58887499D01*
X150273846Y-58887499D02*
X150307180Y-58854166D01*
X150240513Y-58220833D02*
X150240513Y-58554166D01*
X150240513Y-58554166D02*
X150573846Y-58587499D01*
X150573846Y-58587499D02*
X150540513Y-58554166D01*
X150540513Y-58554166D02*
X150507180Y-58487499D01*
X150507180Y-58487499D02*
X150507180Y-58320833D01*
X150507180Y-58320833D02*
X150540513Y-58254166D01*
X150540513Y-58254166D02*
X150573846Y-58220833D01*
X150573846Y-58220833D02*
X150640513Y-58187499D01*
X150640513Y-58187499D02*
X150807180Y-58187499D01*
X150807180Y-58187499D02*
X150873846Y-58220833D01*
X150873846Y-58220833D02*
X150907180Y-58254166D01*
X150907180Y-58254166D02*
X150940513Y-58320833D01*
X150940513Y-58320833D02*
X150940513Y-58487499D01*
X150940513Y-58487499D02*
X150907180Y-58554166D01*
X150907180Y-58554166D02*
X150873846Y-58587499D01*
D12*
X147614733Y-81733333D02*
X147614733Y-81333333D01*
X148314733Y-81533333D02*
X147614733Y-81533333D01*
X148314733Y-80733333D02*
X148314733Y-81133333D01*
X148314733Y-80933333D02*
X147614733Y-80933333D01*
X147614733Y-80933333D02*
X147714733Y-81000000D01*
X147714733Y-81000000D02*
X147781400Y-81066667D01*
X147781400Y-81066667D02*
X147814733Y-81133333D01*
X143083333Y-77223066D02*
X143050000Y-77256400D01*
X143050000Y-77256400D02*
X142950000Y-77289733D01*
X142950000Y-77289733D02*
X142883333Y-77289733D01*
X142883333Y-77289733D02*
X142783333Y-77256400D01*
X142783333Y-77256400D02*
X142716667Y-77189733D01*
X142716667Y-77189733D02*
X142683333Y-77123066D01*
X142683333Y-77123066D02*
X142650000Y-76989733D01*
X142650000Y-76989733D02*
X142650000Y-76889733D01*
X142650000Y-76889733D02*
X142683333Y-76756400D01*
X142683333Y-76756400D02*
X142716667Y-76689733D01*
X142716667Y-76689733D02*
X142783333Y-76623066D01*
X142783333Y-76623066D02*
X142883333Y-76589733D01*
X142883333Y-76589733D02*
X142950000Y-76589733D01*
X142950000Y-76589733D02*
X143050000Y-76623066D01*
X143050000Y-76623066D02*
X143083333Y-76656400D01*
X143683333Y-76589733D02*
X143550000Y-76589733D01*
X143550000Y-76589733D02*
X143483333Y-76623066D01*
X143483333Y-76623066D02*
X143450000Y-76656400D01*
X143450000Y-76656400D02*
X143383333Y-76756400D01*
X143383333Y-76756400D02*
X143350000Y-76889733D01*
X143350000Y-76889733D02*
X143350000Y-77156400D01*
X143350000Y-77156400D02*
X143383333Y-77223066D01*
X143383333Y-77223066D02*
X143416667Y-77256400D01*
X143416667Y-77256400D02*
X143483333Y-77289733D01*
X143483333Y-77289733D02*
X143616667Y-77289733D01*
X143616667Y-77289733D02*
X143683333Y-77256400D01*
X143683333Y-77256400D02*
X143716667Y-77223066D01*
X143716667Y-77223066D02*
X143750000Y-77156400D01*
X143750000Y-77156400D02*
X143750000Y-76989733D01*
X143750000Y-76989733D02*
X143716667Y-76923066D01*
X143716667Y-76923066D02*
X143683333Y-76889733D01*
X143683333Y-76889733D02*
X143616667Y-76856400D01*
X143616667Y-76856400D02*
X143483333Y-76856400D01*
X143483333Y-76856400D02*
X143416667Y-76889733D01*
X143416667Y-76889733D02*
X143383333Y-76923066D01*
X143383333Y-76923066D02*
X143350000Y-76989733D01*
X143070833Y-69623066D02*
X143037500Y-69656400D01*
X143037500Y-69656400D02*
X142937500Y-69689733D01*
X142937500Y-69689733D02*
X142870833Y-69689733D01*
X142870833Y-69689733D02*
X142770833Y-69656400D01*
X142770833Y-69656400D02*
X142704167Y-69589733D01*
X142704167Y-69589733D02*
X142670833Y-69523066D01*
X142670833Y-69523066D02*
X142637500Y-69389733D01*
X142637500Y-69389733D02*
X142637500Y-69289733D01*
X142637500Y-69289733D02*
X142670833Y-69156400D01*
X142670833Y-69156400D02*
X142704167Y-69089733D01*
X142704167Y-69089733D02*
X142770833Y-69023066D01*
X142770833Y-69023066D02*
X142870833Y-68989733D01*
X142870833Y-68989733D02*
X142937500Y-68989733D01*
X142937500Y-68989733D02*
X143037500Y-69023066D01*
X143037500Y-69023066D02*
X143070833Y-69056400D01*
X143304167Y-68989733D02*
X143770833Y-68989733D01*
X143770833Y-68989733D02*
X143470833Y-69689733D01*
D11*
X124818333Y-69332180D02*
X124751666Y-69298846D01*
X124751666Y-69298846D02*
X124685000Y-69232180D01*
X124685000Y-69232180D02*
X124585000Y-69132180D01*
X124585000Y-69132180D02*
X124518333Y-69098846D01*
X124518333Y-69098846D02*
X124451666Y-69098846D01*
X124485000Y-69265513D02*
X124418333Y-69232180D01*
X124418333Y-69232180D02*
X124351666Y-69165513D01*
X124351666Y-69165513D02*
X124318333Y-69032180D01*
X124318333Y-69032180D02*
X124318333Y-68798846D01*
X124318333Y-68798846D02*
X124351666Y-68665513D01*
X124351666Y-68665513D02*
X124418333Y-68598846D01*
X124418333Y-68598846D02*
X124485000Y-68565513D01*
X124485000Y-68565513D02*
X124618333Y-68565513D01*
X124618333Y-68565513D02*
X124685000Y-68598846D01*
X124685000Y-68598846D02*
X124751666Y-68665513D01*
X124751666Y-68665513D02*
X124785000Y-68798846D01*
X124785000Y-68798846D02*
X124785000Y-69032180D01*
X124785000Y-69032180D02*
X124751666Y-69165513D01*
X124751666Y-69165513D02*
X124685000Y-69232180D01*
X124685000Y-69232180D02*
X124618333Y-69265513D01*
X124618333Y-69265513D02*
X124485000Y-69265513D01*
X125451666Y-69265513D02*
X125051666Y-69265513D01*
X125251666Y-69265513D02*
X125251666Y-68565513D01*
X125251666Y-68565513D02*
X125184999Y-68665513D01*
X125184999Y-68665513D02*
X125118333Y-68732180D01*
X125118333Y-68732180D02*
X125051666Y-68765513D01*
X150898846Y-73029166D02*
X150932180Y-73062499D01*
X150932180Y-73062499D02*
X150965513Y-73162499D01*
X150965513Y-73162499D02*
X150965513Y-73229166D01*
X150965513Y-73229166D02*
X150932180Y-73329166D01*
X150932180Y-73329166D02*
X150865513Y-73395833D01*
X150865513Y-73395833D02*
X150798846Y-73429166D01*
X150798846Y-73429166D02*
X150665513Y-73462499D01*
X150665513Y-73462499D02*
X150565513Y-73462499D01*
X150565513Y-73462499D02*
X150432180Y-73429166D01*
X150432180Y-73429166D02*
X150365513Y-73395833D01*
X150365513Y-73395833D02*
X150298846Y-73329166D01*
X150298846Y-73329166D02*
X150265513Y-73229166D01*
X150265513Y-73229166D02*
X150265513Y-73162499D01*
X150265513Y-73162499D02*
X150298846Y-73062499D01*
X150298846Y-73062499D02*
X150332180Y-73029166D01*
X150265513Y-72795833D02*
X150265513Y-72362499D01*
X150265513Y-72362499D02*
X150532180Y-72595833D01*
X150532180Y-72595833D02*
X150532180Y-72495833D01*
X150532180Y-72495833D02*
X150565513Y-72429166D01*
X150565513Y-72429166D02*
X150598846Y-72395833D01*
X150598846Y-72395833D02*
X150665513Y-72362499D01*
X150665513Y-72362499D02*
X150832180Y-72362499D01*
X150832180Y-72362499D02*
X150898846Y-72395833D01*
X150898846Y-72395833D02*
X150932180Y-72429166D01*
X150932180Y-72429166D02*
X150965513Y-72495833D01*
X150965513Y-72495833D02*
X150965513Y-72695833D01*
X150965513Y-72695833D02*
X150932180Y-72762499D01*
X150932180Y-72762499D02*
X150898846Y-72795833D01*
X130966666Y-62215513D02*
X130966666Y-62782180D01*
X130966666Y-62782180D02*
X131000000Y-62848846D01*
X131000000Y-62848846D02*
X131033333Y-62882180D01*
X131033333Y-62882180D02*
X131100000Y-62915513D01*
X131100000Y-62915513D02*
X131233333Y-62915513D01*
X131233333Y-62915513D02*
X131300000Y-62882180D01*
X131300000Y-62882180D02*
X131333333Y-62848846D01*
X131333333Y-62848846D02*
X131366666Y-62782180D01*
X131366666Y-62782180D02*
X131366666Y-62215513D01*
X131666666Y-62282180D02*
X131699999Y-62248846D01*
X131699999Y-62248846D02*
X131766666Y-62215513D01*
X131766666Y-62215513D02*
X131933333Y-62215513D01*
X131933333Y-62215513D02*
X131999999Y-62248846D01*
X131999999Y-62248846D02*
X132033333Y-62282180D01*
X132033333Y-62282180D02*
X132066666Y-62348846D01*
X132066666Y-62348846D02*
X132066666Y-62415513D01*
X132066666Y-62415513D02*
X132033333Y-62515513D01*
X132033333Y-62515513D02*
X131633333Y-62915513D01*
X131633333Y-62915513D02*
X132066666Y-62915513D01*
D12*
X118608334Y-80023066D02*
X118708334Y-80056400D01*
X118708334Y-80056400D02*
X118741667Y-80089733D01*
X118741667Y-80089733D02*
X118775000Y-80156400D01*
X118775000Y-80156400D02*
X118775000Y-80256400D01*
X118775000Y-80256400D02*
X118741667Y-80323066D01*
X118741667Y-80323066D02*
X118708334Y-80356400D01*
X118708334Y-80356400D02*
X118641667Y-80389733D01*
X118641667Y-80389733D02*
X118375000Y-80389733D01*
X118375000Y-80389733D02*
X118375000Y-79689733D01*
X118375000Y-79689733D02*
X118608334Y-79689733D01*
X118608334Y-79689733D02*
X118675000Y-79723066D01*
X118675000Y-79723066D02*
X118708334Y-79756400D01*
X118708334Y-79756400D02*
X118741667Y-79823066D01*
X118741667Y-79823066D02*
X118741667Y-79889733D01*
X118741667Y-79889733D02*
X118708334Y-79956400D01*
X118708334Y-79956400D02*
X118675000Y-79989733D01*
X118675000Y-79989733D02*
X118608334Y-80023066D01*
X118608334Y-80023066D02*
X118375000Y-80023066D01*
X119041667Y-80189733D02*
X119375000Y-80189733D01*
X118975000Y-80389733D02*
X119208334Y-79689733D01*
X119208334Y-79689733D02*
X119441667Y-80389733D01*
X119575000Y-79689733D02*
X119975000Y-79689733D01*
X119775000Y-80389733D02*
X119775000Y-79689733D01*
X117166666Y-58814733D02*
X117166666Y-59314733D01*
X117166666Y-59314733D02*
X117133333Y-59414733D01*
X117133333Y-59414733D02*
X117066666Y-59481400D01*
X117066666Y-59481400D02*
X116966666Y-59514733D01*
X116966666Y-59514733D02*
X116900000Y-59514733D01*
X117833333Y-58814733D02*
X117499999Y-58814733D01*
X117499999Y-58814733D02*
X117466666Y-59148066D01*
X117466666Y-59148066D02*
X117499999Y-59114733D01*
X117499999Y-59114733D02*
X117566666Y-59081400D01*
X117566666Y-59081400D02*
X117733333Y-59081400D01*
X117733333Y-59081400D02*
X117799999Y-59114733D01*
X117799999Y-59114733D02*
X117833333Y-59148066D01*
X117833333Y-59148066D02*
X117866666Y-59214733D01*
X117866666Y-59214733D02*
X117866666Y-59381400D01*
X117866666Y-59381400D02*
X117833333Y-59448066D01*
X117833333Y-59448066D02*
X117799999Y-59481400D01*
X117799999Y-59481400D02*
X117733333Y-59514733D01*
X117733333Y-59514733D02*
X117566666Y-59514733D01*
X117566666Y-59514733D02*
X117499999Y-59481400D01*
X117499999Y-59481400D02*
X117466666Y-59448066D01*
D11*
X172283333Y-73940513D02*
X172050000Y-73607180D01*
X171883333Y-73940513D02*
X171883333Y-73240513D01*
X171883333Y-73240513D02*
X172150000Y-73240513D01*
X172150000Y-73240513D02*
X172216667Y-73273846D01*
X172216667Y-73273846D02*
X172250000Y-73307180D01*
X172250000Y-73307180D02*
X172283333Y-73373846D01*
X172283333Y-73373846D02*
X172283333Y-73473846D01*
X172283333Y-73473846D02*
X172250000Y-73540513D01*
X172250000Y-73540513D02*
X172216667Y-73573846D01*
X172216667Y-73573846D02*
X172150000Y-73607180D01*
X172150000Y-73607180D02*
X171883333Y-73607180D01*
X172516667Y-73240513D02*
X172950000Y-73240513D01*
X172950000Y-73240513D02*
X172716667Y-73507180D01*
X172716667Y-73507180D02*
X172816667Y-73507180D01*
X172816667Y-73507180D02*
X172883333Y-73540513D01*
X172883333Y-73540513D02*
X172916667Y-73573846D01*
X172916667Y-73573846D02*
X172950000Y-73640513D01*
X172950000Y-73640513D02*
X172950000Y-73807180D01*
X172950000Y-73807180D02*
X172916667Y-73873846D01*
X172916667Y-73873846D02*
X172883333Y-73907180D01*
X172883333Y-73907180D02*
X172816667Y-73940513D01*
X172816667Y-73940513D02*
X172616667Y-73940513D01*
X172616667Y-73940513D02*
X172550000Y-73907180D01*
X172550000Y-73907180D02*
X172516667Y-73873846D01*
X165741666Y-75490513D02*
X165741666Y-75990513D01*
X165741666Y-75990513D02*
X165708333Y-76090513D01*
X165708333Y-76090513D02*
X165641666Y-76157180D01*
X165641666Y-76157180D02*
X165541666Y-76190513D01*
X165541666Y-76190513D02*
X165475000Y-76190513D01*
X166008333Y-75490513D02*
X166441666Y-75490513D01*
X166441666Y-75490513D02*
X166208333Y-75757180D01*
X166208333Y-75757180D02*
X166308333Y-75757180D01*
X166308333Y-75757180D02*
X166374999Y-75790513D01*
X166374999Y-75790513D02*
X166408333Y-75823846D01*
X166408333Y-75823846D02*
X166441666Y-75890513D01*
X166441666Y-75890513D02*
X166441666Y-76057180D01*
X166441666Y-76057180D02*
X166408333Y-76123846D01*
X166408333Y-76123846D02*
X166374999Y-76157180D01*
X166374999Y-76157180D02*
X166308333Y-76190513D01*
X166308333Y-76190513D02*
X166108333Y-76190513D01*
X166108333Y-76190513D02*
X166041666Y-76157180D01*
X166041666Y-76157180D02*
X166008333Y-76123846D01*
X135498846Y-74846666D02*
X135532180Y-74879999D01*
X135532180Y-74879999D02*
X135565513Y-74979999D01*
X135565513Y-74979999D02*
X135565513Y-75046666D01*
X135565513Y-75046666D02*
X135532180Y-75146666D01*
X135532180Y-75146666D02*
X135465513Y-75213333D01*
X135465513Y-75213333D02*
X135398846Y-75246666D01*
X135398846Y-75246666D02*
X135265513Y-75279999D01*
X135265513Y-75279999D02*
X135165513Y-75279999D01*
X135165513Y-75279999D02*
X135032180Y-75246666D01*
X135032180Y-75246666D02*
X134965513Y-75213333D01*
X134965513Y-75213333D02*
X134898846Y-75146666D01*
X134898846Y-75146666D02*
X134865513Y-75046666D01*
X134865513Y-75046666D02*
X134865513Y-74979999D01*
X134865513Y-74979999D02*
X134898846Y-74879999D01*
X134898846Y-74879999D02*
X134932180Y-74846666D01*
X135098846Y-74246666D02*
X135565513Y-74246666D01*
X134832180Y-74413333D02*
X135332180Y-74579999D01*
X135332180Y-74579999D02*
X135332180Y-74146666D01*
X129204166Y-72040513D02*
X129204166Y-72607180D01*
X129204166Y-72607180D02*
X129237500Y-72673846D01*
X129237500Y-72673846D02*
X129270833Y-72707180D01*
X129270833Y-72707180D02*
X129337500Y-72740513D01*
X129337500Y-72740513D02*
X129470833Y-72740513D01*
X129470833Y-72740513D02*
X129537500Y-72707180D01*
X129537500Y-72707180D02*
X129570833Y-72673846D01*
X129570833Y-72673846D02*
X129604166Y-72607180D01*
X129604166Y-72607180D02*
X129604166Y-72040513D01*
X129870833Y-72040513D02*
X130304166Y-72040513D01*
X130304166Y-72040513D02*
X130070833Y-72307180D01*
X130070833Y-72307180D02*
X130170833Y-72307180D01*
X130170833Y-72307180D02*
X130237499Y-72340513D01*
X130237499Y-72340513D02*
X130270833Y-72373846D01*
X130270833Y-72373846D02*
X130304166Y-72440513D01*
X130304166Y-72440513D02*
X130304166Y-72607180D01*
X130304166Y-72607180D02*
X130270833Y-72673846D01*
X130270833Y-72673846D02*
X130237499Y-72707180D01*
X130237499Y-72707180D02*
X130170833Y-72740513D01*
X130170833Y-72740513D02*
X129970833Y-72740513D01*
X129970833Y-72740513D02*
X129904166Y-72707180D01*
X129904166Y-72707180D02*
X129870833Y-72673846D01*
X138665513Y-74816666D02*
X138332180Y-75049999D01*
X138665513Y-75216666D02*
X137965513Y-75216666D01*
X137965513Y-75216666D02*
X137965513Y-74949999D01*
X137965513Y-74949999D02*
X137998846Y-74883333D01*
X137998846Y-74883333D02*
X138032180Y-74849999D01*
X138032180Y-74849999D02*
X138098846Y-74816666D01*
X138098846Y-74816666D02*
X138198846Y-74816666D01*
X138198846Y-74816666D02*
X138265513Y-74849999D01*
X138265513Y-74849999D02*
X138298846Y-74883333D01*
X138298846Y-74883333D02*
X138332180Y-74949999D01*
X138332180Y-74949999D02*
X138332180Y-75216666D01*
X138198846Y-74216666D02*
X138665513Y-74216666D01*
X137932180Y-74383333D02*
X138432180Y-74549999D01*
X138432180Y-74549999D02*
X138432180Y-74116666D01*
X133145833Y-72598846D02*
X133112500Y-72632180D01*
X133112500Y-72632180D02*
X133012500Y-72665513D01*
X133012500Y-72665513D02*
X132945833Y-72665513D01*
X132945833Y-72665513D02*
X132845833Y-72632180D01*
X132845833Y-72632180D02*
X132779167Y-72565513D01*
X132779167Y-72565513D02*
X132745833Y-72498846D01*
X132745833Y-72498846D02*
X132712500Y-72365513D01*
X132712500Y-72365513D02*
X132712500Y-72265513D01*
X132712500Y-72265513D02*
X132745833Y-72132180D01*
X132745833Y-72132180D02*
X132779167Y-72065513D01*
X132779167Y-72065513D02*
X132845833Y-71998846D01*
X132845833Y-71998846D02*
X132945833Y-71965513D01*
X132945833Y-71965513D02*
X133012500Y-71965513D01*
X133012500Y-71965513D02*
X133112500Y-71998846D01*
X133112500Y-71998846D02*
X133145833Y-72032180D01*
X133412500Y-72032180D02*
X133445833Y-71998846D01*
X133445833Y-71998846D02*
X133512500Y-71965513D01*
X133512500Y-71965513D02*
X133679167Y-71965513D01*
X133679167Y-71965513D02*
X133745833Y-71998846D01*
X133745833Y-71998846D02*
X133779167Y-72032180D01*
X133779167Y-72032180D02*
X133812500Y-72098846D01*
X133812500Y-72098846D02*
X133812500Y-72165513D01*
X133812500Y-72165513D02*
X133779167Y-72265513D01*
X133779167Y-72265513D02*
X133379167Y-72665513D01*
X133379167Y-72665513D02*
X133812500Y-72665513D01*
X171241666Y-78232180D02*
X171341666Y-78265513D01*
X171341666Y-78265513D02*
X171508333Y-78265513D01*
X171508333Y-78265513D02*
X171574999Y-78232180D01*
X171574999Y-78232180D02*
X171608333Y-78198846D01*
X171608333Y-78198846D02*
X171641666Y-78132180D01*
X171641666Y-78132180D02*
X171641666Y-78065513D01*
X171641666Y-78065513D02*
X171608333Y-77998846D01*
X171608333Y-77998846D02*
X171574999Y-77965513D01*
X171574999Y-77965513D02*
X171508333Y-77932180D01*
X171508333Y-77932180D02*
X171374999Y-77898846D01*
X171374999Y-77898846D02*
X171308333Y-77865513D01*
X171308333Y-77865513D02*
X171274999Y-77832180D01*
X171274999Y-77832180D02*
X171241666Y-77765513D01*
X171241666Y-77765513D02*
X171241666Y-77698846D01*
X171241666Y-77698846D02*
X171274999Y-77632180D01*
X171274999Y-77632180D02*
X171308333Y-77598846D01*
X171308333Y-77598846D02*
X171374999Y-77565513D01*
X171374999Y-77565513D02*
X171541666Y-77565513D01*
X171541666Y-77565513D02*
X171641666Y-77598846D01*
X171875000Y-77565513D02*
X172041666Y-78265513D01*
X172041666Y-78265513D02*
X172175000Y-77765513D01*
X172175000Y-77765513D02*
X172308333Y-78265513D01*
X172308333Y-78265513D02*
X172475000Y-77565513D01*
X173108333Y-78265513D02*
X172708333Y-78265513D01*
X172908333Y-78265513D02*
X172908333Y-77565513D01*
X172908333Y-77565513D02*
X172841666Y-77665513D01*
X172841666Y-77665513D02*
X172775000Y-77732180D01*
X172775000Y-77732180D02*
X172708333Y-77765513D01*
X175715513Y-66816666D02*
X175382180Y-67049999D01*
X175715513Y-67216666D02*
X175015513Y-67216666D01*
X175015513Y-67216666D02*
X175015513Y-66949999D01*
X175015513Y-66949999D02*
X175048846Y-66883333D01*
X175048846Y-66883333D02*
X175082180Y-66849999D01*
X175082180Y-66849999D02*
X175148846Y-66816666D01*
X175148846Y-66816666D02*
X175248846Y-66816666D01*
X175248846Y-66816666D02*
X175315513Y-66849999D01*
X175315513Y-66849999D02*
X175348846Y-66883333D01*
X175348846Y-66883333D02*
X175382180Y-66949999D01*
X175382180Y-66949999D02*
X175382180Y-67216666D01*
X175715513Y-66483333D02*
X175715513Y-66349999D01*
X175715513Y-66349999D02*
X175682180Y-66283333D01*
X175682180Y-66283333D02*
X175648846Y-66249999D01*
X175648846Y-66249999D02*
X175548846Y-66183333D01*
X175548846Y-66183333D02*
X175415513Y-66149999D01*
X175415513Y-66149999D02*
X175148846Y-66149999D01*
X175148846Y-66149999D02*
X175082180Y-66183333D01*
X175082180Y-66183333D02*
X175048846Y-66216666D01*
X175048846Y-66216666D02*
X175015513Y-66283333D01*
X175015513Y-66283333D02*
X175015513Y-66416666D01*
X175015513Y-66416666D02*
X175048846Y-66483333D01*
X175048846Y-66483333D02*
X175082180Y-66516666D01*
X175082180Y-66516666D02*
X175148846Y-66549999D01*
X175148846Y-66549999D02*
X175315513Y-66549999D01*
X175315513Y-66549999D02*
X175382180Y-66516666D01*
X175382180Y-66516666D02*
X175415513Y-66483333D01*
X175415513Y-66483333D02*
X175448846Y-66416666D01*
X175448846Y-66416666D02*
X175448846Y-66283333D01*
X175448846Y-66283333D02*
X175415513Y-66216666D01*
X175415513Y-66216666D02*
X175382180Y-66183333D01*
X175382180Y-66183333D02*
X175315513Y-66149999D01*
D12*
X159766666Y-60794733D02*
X159766666Y-61361400D01*
X159766666Y-61361400D02*
X159800000Y-61428066D01*
X159800000Y-61428066D02*
X159833333Y-61461400D01*
X159833333Y-61461400D02*
X159900000Y-61494733D01*
X159900000Y-61494733D02*
X160033333Y-61494733D01*
X160033333Y-61494733D02*
X160100000Y-61461400D01*
X160100000Y-61461400D02*
X160133333Y-61428066D01*
X160133333Y-61428066D02*
X160166666Y-61361400D01*
X160166666Y-61361400D02*
X160166666Y-60794733D01*
X160866666Y-61494733D02*
X160466666Y-61494733D01*
X160666666Y-61494733D02*
X160666666Y-60794733D01*
X160666666Y-60794733D02*
X160599999Y-60894733D01*
X160599999Y-60894733D02*
X160533333Y-60961400D01*
X160533333Y-60961400D02*
X160466666Y-60994733D01*
X126350000Y-80356400D02*
X126450000Y-80389733D01*
X126450000Y-80389733D02*
X126616667Y-80389733D01*
X126616667Y-80389733D02*
X126683333Y-80356400D01*
X126683333Y-80356400D02*
X126716667Y-80323066D01*
X126716667Y-80323066D02*
X126750000Y-80256400D01*
X126750000Y-80256400D02*
X126750000Y-80189733D01*
X126750000Y-80189733D02*
X126716667Y-80123066D01*
X126716667Y-80123066D02*
X126683333Y-80089733D01*
X126683333Y-80089733D02*
X126616667Y-80056400D01*
X126616667Y-80056400D02*
X126483333Y-80023066D01*
X126483333Y-80023066D02*
X126416667Y-79989733D01*
X126416667Y-79989733D02*
X126383333Y-79956400D01*
X126383333Y-79956400D02*
X126350000Y-79889733D01*
X126350000Y-79889733D02*
X126350000Y-79823066D01*
X126350000Y-79823066D02*
X126383333Y-79756400D01*
X126383333Y-79756400D02*
X126416667Y-79723066D01*
X126416667Y-79723066D02*
X126483333Y-79689733D01*
X126483333Y-79689733D02*
X126650000Y-79689733D01*
X126650000Y-79689733D02*
X126750000Y-79723066D01*
X127050000Y-80389733D02*
X127050000Y-79689733D01*
X127050000Y-79689733D02*
X127316667Y-79689733D01*
X127316667Y-79689733D02*
X127383334Y-79723066D01*
X127383334Y-79723066D02*
X127416667Y-79756400D01*
X127416667Y-79756400D02*
X127450000Y-79823066D01*
X127450000Y-79823066D02*
X127450000Y-79923066D01*
X127450000Y-79923066D02*
X127416667Y-79989733D01*
X127416667Y-79989733D02*
X127383334Y-80023066D01*
X127383334Y-80023066D02*
X127316667Y-80056400D01*
X127316667Y-80056400D02*
X127050000Y-80056400D01*
X156866667Y-80356400D02*
X156966667Y-80389733D01*
X156966667Y-80389733D02*
X157133334Y-80389733D01*
X157133334Y-80389733D02*
X157200000Y-80356400D01*
X157200000Y-80356400D02*
X157233334Y-80323066D01*
X157233334Y-80323066D02*
X157266667Y-80256400D01*
X157266667Y-80256400D02*
X157266667Y-80189733D01*
X157266667Y-80189733D02*
X157233334Y-80123066D01*
X157233334Y-80123066D02*
X157200000Y-80089733D01*
X157200000Y-80089733D02*
X157133334Y-80056400D01*
X157133334Y-80056400D02*
X157000000Y-80023066D01*
X157000000Y-80023066D02*
X156933334Y-79989733D01*
X156933334Y-79989733D02*
X156900000Y-79956400D01*
X156900000Y-79956400D02*
X156866667Y-79889733D01*
X156866667Y-79889733D02*
X156866667Y-79823066D01*
X156866667Y-79823066D02*
X156900000Y-79756400D01*
X156900000Y-79756400D02*
X156933334Y-79723066D01*
X156933334Y-79723066D02*
X157000000Y-79689733D01*
X157000000Y-79689733D02*
X157166667Y-79689733D01*
X157166667Y-79689733D02*
X157266667Y-79723066D01*
X157566667Y-80023066D02*
X157800001Y-80023066D01*
X157900001Y-80389733D02*
X157566667Y-80389733D01*
X157566667Y-80389733D02*
X157566667Y-79689733D01*
X157566667Y-79689733D02*
X157900001Y-79689733D01*
X158200000Y-80389733D02*
X158200000Y-79689733D01*
X158200000Y-79689733D02*
X158600000Y-80389733D01*
X158600000Y-80389733D02*
X158600000Y-79689733D01*
X158900000Y-80356400D02*
X159000000Y-80389733D01*
X159000000Y-80389733D02*
X159166667Y-80389733D01*
X159166667Y-80389733D02*
X159233333Y-80356400D01*
X159233333Y-80356400D02*
X159266667Y-80323066D01*
X159266667Y-80323066D02*
X159300000Y-80256400D01*
X159300000Y-80256400D02*
X159300000Y-80189733D01*
X159300000Y-80189733D02*
X159266667Y-80123066D01*
X159266667Y-80123066D02*
X159233333Y-80089733D01*
X159233333Y-80089733D02*
X159166667Y-80056400D01*
X159166667Y-80056400D02*
X159033333Y-80023066D01*
X159033333Y-80023066D02*
X158966667Y-79989733D01*
X158966667Y-79989733D02*
X158933333Y-79956400D01*
X158933333Y-79956400D02*
X158900000Y-79889733D01*
X158900000Y-79889733D02*
X158900000Y-79823066D01*
X158900000Y-79823066D02*
X158933333Y-79756400D01*
X158933333Y-79756400D02*
X158966667Y-79723066D01*
X158966667Y-79723066D02*
X159033333Y-79689733D01*
X159033333Y-79689733D02*
X159200000Y-79689733D01*
X159200000Y-79689733D02*
X159300000Y-79723066D01*
X159733334Y-79689733D02*
X159866667Y-79689733D01*
X159866667Y-79689733D02*
X159933334Y-79723066D01*
X159933334Y-79723066D02*
X160000000Y-79789733D01*
X160000000Y-79789733D02*
X160033334Y-79923066D01*
X160033334Y-79923066D02*
X160033334Y-80156400D01*
X160033334Y-80156400D02*
X160000000Y-80289733D01*
X160000000Y-80289733D02*
X159933334Y-80356400D01*
X159933334Y-80356400D02*
X159866667Y-80389733D01*
X159866667Y-80389733D02*
X159733334Y-80389733D01*
X159733334Y-80389733D02*
X159666667Y-80356400D01*
X159666667Y-80356400D02*
X159600000Y-80289733D01*
X159600000Y-80289733D02*
X159566667Y-80156400D01*
X159566667Y-80156400D02*
X159566667Y-79923066D01*
X159566667Y-79923066D02*
X159600000Y-79789733D01*
X159600000Y-79789733D02*
X159666667Y-79723066D01*
X159666667Y-79723066D02*
X159733334Y-79689733D01*
X160733333Y-80389733D02*
X160500000Y-80056400D01*
X160333333Y-80389733D02*
X160333333Y-79689733D01*
X160333333Y-79689733D02*
X160600000Y-79689733D01*
X160600000Y-79689733D02*
X160666667Y-79723066D01*
X160666667Y-79723066D02*
X160700000Y-79756400D01*
X160700000Y-79756400D02*
X160733333Y-79823066D01*
X160733333Y-79823066D02*
X160733333Y-79923066D01*
X160733333Y-79923066D02*
X160700000Y-79989733D01*
X160700000Y-79989733D02*
X160666667Y-80023066D01*
X160666667Y-80023066D02*
X160600000Y-80056400D01*
X160600000Y-80056400D02*
X160333333Y-80056400D01*
D11*
X173140513Y-66791666D02*
X172807180Y-67024999D01*
X173140513Y-67191666D02*
X172440513Y-67191666D01*
X172440513Y-67191666D02*
X172440513Y-66924999D01*
X172440513Y-66924999D02*
X172473846Y-66858333D01*
X172473846Y-66858333D02*
X172507180Y-66824999D01*
X172507180Y-66824999D02*
X172573846Y-66791666D01*
X172573846Y-66791666D02*
X172673846Y-66791666D01*
X172673846Y-66791666D02*
X172740513Y-66824999D01*
X172740513Y-66824999D02*
X172773846Y-66858333D01*
X172773846Y-66858333D02*
X172807180Y-66924999D01*
X172807180Y-66924999D02*
X172807180Y-67191666D01*
X172740513Y-66391666D02*
X172707180Y-66458333D01*
X172707180Y-66458333D02*
X172673846Y-66491666D01*
X172673846Y-66491666D02*
X172607180Y-66524999D01*
X172607180Y-66524999D02*
X172573846Y-66524999D01*
X172573846Y-66524999D02*
X172507180Y-66491666D01*
X172507180Y-66491666D02*
X172473846Y-66458333D01*
X172473846Y-66458333D02*
X172440513Y-66391666D01*
X172440513Y-66391666D02*
X172440513Y-66258333D01*
X172440513Y-66258333D02*
X172473846Y-66191666D01*
X172473846Y-66191666D02*
X172507180Y-66158333D01*
X172507180Y-66158333D02*
X172573846Y-66124999D01*
X172573846Y-66124999D02*
X172607180Y-66124999D01*
X172607180Y-66124999D02*
X172673846Y-66158333D01*
X172673846Y-66158333D02*
X172707180Y-66191666D01*
X172707180Y-66191666D02*
X172740513Y-66258333D01*
X172740513Y-66258333D02*
X172740513Y-66391666D01*
X172740513Y-66391666D02*
X172773846Y-66458333D01*
X172773846Y-66458333D02*
X172807180Y-66491666D01*
X172807180Y-66491666D02*
X172873846Y-66524999D01*
X172873846Y-66524999D02*
X173007180Y-66524999D01*
X173007180Y-66524999D02*
X173073846Y-66491666D01*
X173073846Y-66491666D02*
X173107180Y-66458333D01*
X173107180Y-66458333D02*
X173140513Y-66391666D01*
X173140513Y-66391666D02*
X173140513Y-66258333D01*
X173140513Y-66258333D02*
X173107180Y-66191666D01*
X173107180Y-66191666D02*
X173073846Y-66158333D01*
X173073846Y-66158333D02*
X173007180Y-66124999D01*
X173007180Y-66124999D02*
X172873846Y-66124999D01*
X172873846Y-66124999D02*
X172807180Y-66158333D01*
X172807180Y-66158333D02*
X172773846Y-66191666D01*
X172773846Y-66191666D02*
X172740513Y-66258333D01*
D13*
%TO.C,R5*%
X172172936Y-69065000D02*
X172627064Y-69065000D01*
X172172936Y-70535000D02*
X172627064Y-70535000D01*
%TO.C,C1*%
X138318748Y-65965000D02*
X138841252Y-65965000D01*
X138318748Y-67435000D02*
X138841252Y-67435000D01*
%TO.C,R6*%
X148657064Y-61465000D02*
X148202936Y-61465000D01*
X148657064Y-62935000D02*
X148202936Y-62935000D01*
%TO.C,J1*%
X132565000Y-82065000D02*
X133615000Y-82065000D01*
X132565000Y-84565000D02*
X132565000Y-82065000D01*
X133615000Y-82065000D02*
X133615000Y-81075000D01*
X133735000Y-86535000D02*
X139615000Y-86535000D01*
X140785000Y-82065000D02*
X139735000Y-82065000D01*
X140785000Y-84565000D02*
X140785000Y-82065000D01*
%TO.C,R1*%
X138322936Y-68465000D02*
X138777064Y-68465000D01*
X138322936Y-69935000D02*
X138777064Y-69935000D01*
%TO.C,R2*%
X125027064Y-62715000D02*
X124572936Y-62715000D01*
X125027064Y-64185000D02*
X124572936Y-64185000D01*
%TO.C,R10*%
X125052064Y-74140000D02*
X124597936Y-74140000D01*
X125052064Y-75610000D02*
X124597936Y-75610000D01*
D10*
%TO.C,IC1*%
X141819500Y-71550000D02*
X144715500Y-71550000D01*
X141819500Y-72100000D02*
X141819500Y-71550000D01*
X144715500Y-71550000D02*
X144715500Y-72100000D01*
X144715500Y-72100000D02*
X141819500Y-72100000D01*
X144781500Y-69950000D02*
X144781500Y-71200000D01*
D13*
%TO.C,R7*%
X146065000Y-58480436D02*
X146065000Y-58934564D01*
X147535000Y-58480436D02*
X147535000Y-58934564D01*
%TO.C,R11*%
X145315000Y-80972936D02*
X145315000Y-81427064D01*
X146785000Y-80972936D02*
X146785000Y-81427064D01*
%TO.C,D1*%
X146925000Y-86410000D02*
X149785000Y-86410000D01*
X149785000Y-84490000D02*
X146925000Y-84490000D01*
X149785000Y-86410000D02*
X149785000Y-84490000D01*
%TO.C,C5*%
X148565000Y-58476248D02*
X148565000Y-58998752D01*
X150035000Y-58476248D02*
X150035000Y-58998752D01*
%TO.C,C6*%
X143448752Y-74840000D02*
X142926248Y-74840000D01*
X143448752Y-76310000D02*
X142926248Y-76310000D01*
%TO.C,C7*%
X143448752Y-67340000D02*
X142926248Y-67340000D01*
X143448752Y-68810000D02*
X142926248Y-68810000D01*
D14*
%TO.C,Q1*%
X123370000Y-71200000D02*
X123370000Y-66700000D01*
X126400000Y-71200000D02*
X126400000Y-66700000D01*
D10*
X123610000Y-73390000D02*
G75*
G02*
X123410000Y-73390000I-100000J0D01*
G01*
X123410000Y-73390000D02*
G75*
G02*
X123610000Y-73390000I100000J0D01*
G01*
D13*
%TO.C,C3*%
X148565000Y-72651248D02*
X148565000Y-73173752D01*
X150035000Y-72651248D02*
X150035000Y-73173752D01*
%TO.C,U2*%
X129440000Y-63440000D02*
X133560000Y-63440000D01*
X129440000Y-63535000D02*
X129440000Y-63440000D01*
X129440000Y-68560000D02*
X129440000Y-68465000D01*
X133560000Y-63440000D02*
X133560000Y-63535000D01*
X133560000Y-68465000D02*
X133560000Y-68560000D01*
X133560000Y-68560000D02*
X129440000Y-68560000D01*
X128900000Y-63530000D02*
X128660000Y-63200000D01*
X129140000Y-63200000D01*
X128900000Y-63530000D01*
G36*
X128900000Y-63530000D02*
G01*
X128660000Y-63200000D01*
X129140000Y-63200000D01*
X128900000Y-63530000D01*
G37*
%TO.C,BAT*%
X117015000Y-82065000D02*
X118065000Y-82065000D01*
X117015000Y-84565000D02*
X117015000Y-82065000D01*
X118065000Y-82065000D02*
X118065000Y-81075000D01*
X118185000Y-86535000D02*
X120065000Y-86535000D01*
X121235000Y-82065000D02*
X120185000Y-82065000D01*
X121235000Y-84565000D02*
X121235000Y-82065000D01*
%TO.C,J5*%
X118970000Y-57870000D02*
X118970000Y-60530000D01*
X126650000Y-57870000D02*
X118970000Y-57870000D01*
X126650000Y-57870000D02*
X126650000Y-60530000D01*
X126650000Y-60530000D02*
X118970000Y-60530000D01*
X129250000Y-59200000D02*
X129250000Y-60530000D01*
X129250000Y-60530000D02*
X127920000Y-60530000D01*
%TO.C,R3*%
X172172936Y-71565000D02*
X172627064Y-71565000D01*
X172172936Y-73035000D02*
X172627064Y-73035000D01*
%TO.C,J3*%
X163970000Y-79000000D02*
X163970000Y-86680000D01*
X163970000Y-79000000D02*
X166630000Y-79000000D01*
X163970000Y-86680000D02*
X166630000Y-86680000D01*
X165300000Y-76400000D02*
X166630000Y-76400000D01*
X166630000Y-76400000D02*
X166630000Y-77730000D01*
X166630000Y-79000000D02*
X166630000Y-86680000D01*
%TO.C,C4*%
X132965000Y-74991252D02*
X132965000Y-74468748D01*
X134435000Y-74991252D02*
X134435000Y-74468748D01*
%TO.C,U3*%
X128827500Y-73265000D02*
X130647500Y-73265000D01*
X128827500Y-73315000D02*
X128827500Y-73265000D01*
X128827500Y-76385000D02*
X128827500Y-76335000D01*
X130647500Y-73265000D02*
X130647500Y-73315000D01*
X130647500Y-76335000D02*
X130647500Y-76385000D01*
X130647500Y-76385000D02*
X128827500Y-76385000D01*
X128287500Y-73315000D02*
X128047500Y-72985000D01*
X128527500Y-72985000D01*
X128287500Y-73315000D01*
G36*
X128287500Y-73315000D02*
G01*
X128047500Y-72985000D01*
X128527500Y-72985000D01*
X128287500Y-73315000D01*
G37*
%TO.C,R4*%
X135965000Y-74472936D02*
X135965000Y-74927064D01*
X137435000Y-74472936D02*
X137435000Y-74927064D01*
%TO.C,C2*%
X133523752Y-70215000D02*
X133001248Y-70215000D01*
X133523752Y-71685000D02*
X133001248Y-71685000D01*
%TO.C,SW1*%
X168975000Y-75950000D02*
X168975000Y-77150000D01*
X168975000Y-78750000D02*
X168975000Y-79950000D01*
X168975000Y-79950000D02*
X175375000Y-79950000D01*
X175375000Y-75950000D02*
X168975000Y-75950000D01*
X175375000Y-77150000D02*
X175375000Y-75950000D01*
X175375000Y-79950000D02*
X175375000Y-78750000D01*
%TO.C,R9*%
X173315000Y-66472936D02*
X173315000Y-66927064D01*
X174785000Y-66472936D02*
X174785000Y-66927064D01*
D10*
%TO.C,U1*%
X151800000Y-72680000D02*
X151800000Y-73680000D01*
X151800000Y-73680000D02*
X154300000Y-73680000D01*
X168800000Y-73680000D02*
X166300000Y-73680000D01*
X168800000Y-73680000D02*
X168800000Y-72680000D01*
D15*
%TO.C,G\u002A\u002A\u002A*%
G36*
X138013096Y-61582545D02*
G01*
X138063864Y-61633312D01*
X137956487Y-61732028D01*
X137879565Y-61802836D01*
X137826837Y-61850374D01*
X137792661Y-61878020D01*
X137771398Y-61889149D01*
X137757407Y-61887138D01*
X137745047Y-61875363D01*
X137735452Y-61864332D01*
X137709759Y-61828965D01*
X137702206Y-61808592D01*
X137715570Y-61786981D01*
X137751369Y-61745013D01*
X137803163Y-61690011D01*
X137832267Y-61660683D01*
X137962329Y-61531777D01*
X138013096Y-61582545D01*
G37*
G36*
X136687206Y-62944790D02*
G01*
X136812206Y-62950745D01*
X136817412Y-63115745D01*
X136819526Y-63196567D01*
X136818130Y-63245445D01*
X136811034Y-63270411D01*
X136796046Y-63279500D01*
X136772412Y-63280745D01*
X136738258Y-63275429D01*
X136724432Y-63251590D01*
X136722206Y-63211925D01*
X136716906Y-63162109D01*
X136703970Y-63132102D01*
X136702206Y-63130745D01*
X136689075Y-63139746D01*
X136682580Y-63181996D01*
X136682206Y-63199564D01*
X136679925Y-63251349D01*
X136667472Y-63274560D01*
X136636429Y-63280586D01*
X136622206Y-63280745D01*
X136562206Y-63280745D01*
X136562206Y-63109790D01*
X136562206Y-63031925D01*
X136682206Y-63031925D01*
X136691901Y-63052626D01*
X136702206Y-63050745D01*
X136721443Y-63025175D01*
X136722206Y-63019564D01*
X136706951Y-63001283D01*
X136702206Y-63000745D01*
X136684653Y-63017024D01*
X136682206Y-63031925D01*
X136562206Y-63031925D01*
X136562206Y-62938836D01*
X136687206Y-62944790D01*
G37*
G36*
X137718014Y-63105745D02*
G01*
X137712206Y-63270745D01*
X137652206Y-63270745D01*
X137592206Y-63270745D01*
X137586292Y-63135745D01*
X137580468Y-63058740D01*
X137570417Y-63015758D01*
X137554652Y-63000915D01*
X137552206Y-63000745D01*
X137535622Y-63012485D01*
X137524937Y-63051628D01*
X137518667Y-63124057D01*
X137518119Y-63135745D01*
X137513975Y-63207543D01*
X137506965Y-63248614D01*
X137493365Y-63268224D01*
X137469449Y-63275634D01*
X137461457Y-63276663D01*
X137417770Y-63276129D01*
X137396457Y-63268329D01*
X137389034Y-63242241D01*
X137383879Y-63188455D01*
X137382206Y-63127411D01*
X137380110Y-63055561D01*
X137372642Y-63016059D01*
X137358026Y-63001412D01*
X137352206Y-63000745D01*
X137325690Y-62984735D01*
X137322206Y-62970745D01*
X137328800Y-62956779D01*
X137352963Y-62947803D01*
X137401264Y-62942835D01*
X137480271Y-62940894D01*
X137523014Y-62940745D01*
X137723823Y-62940745D01*
X137718014Y-63105745D01*
G37*
G36*
X135697196Y-62941605D02*
G01*
X135725884Y-62949070D01*
X135744794Y-62970463D01*
X135758867Y-63013107D01*
X135773045Y-63084327D01*
X135781090Y-63129418D01*
X135794403Y-63205789D01*
X135799218Y-63250890D01*
X135793425Y-63272938D01*
X135774911Y-63280151D01*
X135742206Y-63280745D01*
X135694571Y-63271800D01*
X135682206Y-63250745D01*
X135671406Y-63224129D01*
X135662206Y-63220745D01*
X135644462Y-63236944D01*
X135642206Y-63250745D01*
X135624317Y-63274562D01*
X135582206Y-63280745D01*
X135535329Y-63272322D01*
X135522206Y-63249597D01*
X135525335Y-63214988D01*
X135533542Y-63154106D01*
X135538731Y-63120745D01*
X135642206Y-63120745D01*
X135649523Y-63137207D01*
X135655539Y-63134078D01*
X135657932Y-63110343D01*
X135655539Y-63107411D01*
X135643649Y-63110157D01*
X135642206Y-63120745D01*
X135538731Y-63120745D01*
X135545055Y-63080090D01*
X135545137Y-63079597D01*
X135568068Y-62940745D01*
X135653789Y-62940745D01*
X135697196Y-62941605D01*
G37*
G36*
X137927622Y-62929098D02*
G01*
X137984447Y-62962986D01*
X138008447Y-62993555D01*
X138019451Y-63031277D01*
X138020222Y-63089432D01*
X138018056Y-63124575D01*
X138007691Y-63201826D01*
X137990844Y-63250726D01*
X137980814Y-63262028D01*
X137936938Y-63275747D01*
X137875873Y-63279890D01*
X137815043Y-63274884D01*
X137771873Y-63261158D01*
X137766206Y-63256745D01*
X137753122Y-63224289D01*
X137744502Y-63164721D01*
X137742369Y-63111925D01*
X137862206Y-63111925D01*
X137865391Y-63176612D01*
X137874330Y-63208906D01*
X137882206Y-63210745D01*
X137893810Y-63185114D01*
X137901027Y-63133641D01*
X137902206Y-63099564D01*
X137898568Y-63042908D01*
X137889276Y-63007160D01*
X137882206Y-63000745D01*
X137871303Y-63018838D01*
X137864039Y-63065557D01*
X137862206Y-63111925D01*
X137742369Y-63111925D01*
X137742206Y-63107879D01*
X137744340Y-63035703D01*
X137752972Y-62991675D01*
X137771443Y-62964067D01*
X137786656Y-62951879D01*
X137855990Y-62924073D01*
X137927622Y-62929098D01*
G37*
G36*
X138135423Y-62952036D02*
G01*
X138166041Y-62992039D01*
X138172388Y-63005745D01*
X138200640Y-63070745D01*
X138201423Y-63005745D01*
X138206513Y-62960545D01*
X138226498Y-62942994D01*
X138252206Y-62940745D01*
X138276418Y-62942305D01*
X138291195Y-62952268D01*
X138298866Y-62978550D01*
X138301759Y-63029073D01*
X138302206Y-63110745D01*
X138301642Y-63193125D01*
X138298530Y-63243411D01*
X138290738Y-63269505D01*
X138276132Y-63279312D01*
X138256339Y-63280745D01*
X138222492Y-63271153D01*
X138195640Y-63236564D01*
X138177811Y-63195745D01*
X138145151Y-63110745D01*
X138143678Y-63195745D01*
X138140299Y-63249360D01*
X138128223Y-63273996D01*
X138100807Y-63280616D01*
X138092206Y-63280745D01*
X138067993Y-63279184D01*
X138053216Y-63269221D01*
X138045545Y-63242939D01*
X138042652Y-63192416D01*
X138042206Y-63110745D01*
X138042642Y-63028427D01*
X138045535Y-62978189D01*
X138053258Y-62952110D01*
X138068187Y-62942268D01*
X138092696Y-62940745D01*
X138093171Y-62940745D01*
X138135423Y-62952036D01*
G37*
G36*
X136070619Y-62945957D02*
G01*
X136076096Y-62966186D01*
X136072945Y-62975745D01*
X136049381Y-63070237D01*
X136058598Y-63156501D01*
X136070428Y-63189575D01*
X136092760Y-63244115D01*
X136098019Y-63271003D01*
X136083363Y-63279970D01*
X136045949Y-63280746D01*
X136043795Y-63280745D01*
X136001390Y-63274305D01*
X135979236Y-63247013D01*
X135970040Y-63215745D01*
X135954696Y-63150745D01*
X135943356Y-63210745D01*
X135926451Y-63255997D01*
X135890314Y-63274899D01*
X135874262Y-63277348D01*
X135838762Y-63279569D01*
X135824097Y-63268614D01*
X135824762Y-63234432D01*
X135830428Y-63197348D01*
X135840491Y-63131710D01*
X135844168Y-63089461D01*
X135841561Y-63054520D01*
X135832773Y-63010805D01*
X135831650Y-63005745D01*
X135824547Y-62961594D01*
X135836552Y-62943982D01*
X135876657Y-62940747D01*
X135879706Y-62940745D01*
X135924406Y-62946184D01*
X135941596Y-62967985D01*
X135943473Y-62985745D01*
X135944741Y-63030745D01*
X135962829Y-62985745D01*
X135995347Y-62948391D01*
X136033701Y-62940745D01*
X136070619Y-62945957D01*
G37*
G36*
X136477991Y-62940275D02*
G01*
X136523020Y-62976363D01*
X136542133Y-63028236D01*
X136542206Y-63031879D01*
X136535513Y-63066859D01*
X136507437Y-63079632D01*
X136482206Y-63080745D01*
X136438287Y-63074459D01*
X136422824Y-63051070D01*
X136422206Y-63040745D01*
X136413830Y-63008245D01*
X136402206Y-63000745D01*
X136390739Y-63018720D01*
X136383504Y-63064627D01*
X136382206Y-63099564D01*
X136385941Y-63159210D01*
X136395456Y-63200748D01*
X136402206Y-63210745D01*
X136417036Y-63203664D01*
X136422206Y-63171925D01*
X136428436Y-63135404D01*
X136455281Y-63122022D01*
X136482206Y-63120745D01*
X136525176Y-63126214D01*
X136540858Y-63149079D01*
X136542206Y-63169316D01*
X136525416Y-63229841D01*
X136477174Y-63267829D01*
X136402206Y-63280745D01*
X136341600Y-63272607D01*
X136296918Y-63252281D01*
X136293634Y-63249316D01*
X136270260Y-63202784D01*
X136260717Y-63134439D01*
X136264542Y-63059826D01*
X136281275Y-62994493D01*
X136302206Y-62960745D01*
X136356104Y-62929063D01*
X136418526Y-62923374D01*
X136477991Y-62940275D01*
G37*
G36*
X135498034Y-63104554D02*
G01*
X135494394Y-63186196D01*
X135488882Y-63236126D01*
X135479057Y-63262629D01*
X135462480Y-63273988D01*
X135447206Y-63277136D01*
X135421035Y-63277428D01*
X135407239Y-63262547D01*
X135401446Y-63223264D01*
X135399830Y-63177136D01*
X135397454Y-63070745D01*
X135373840Y-63170745D01*
X135354723Y-63234365D01*
X135332440Y-63267000D01*
X135307927Y-63276911D01*
X135282280Y-63275350D01*
X135265577Y-63255492D01*
X135252396Y-63208545D01*
X135246293Y-63176911D01*
X135226957Y-63070745D01*
X135224581Y-63175745D01*
X135221674Y-63236982D01*
X135213230Y-63268216D01*
X135194264Y-63279441D01*
X135172206Y-63280745D01*
X135147993Y-63279184D01*
X135133216Y-63269221D01*
X135125545Y-63242939D01*
X135122652Y-63192416D01*
X135122206Y-63110745D01*
X135122206Y-62940745D01*
X135200616Y-62940745D01*
X135252450Y-62944024D01*
X135278510Y-62960376D01*
X135292886Y-62999569D01*
X135294371Y-63005745D01*
X135309715Y-63070745D01*
X135321056Y-63010745D01*
X135332503Y-62972473D01*
X135356063Y-62953646D01*
X135404415Y-62945621D01*
X135418130Y-62944554D01*
X135503862Y-62938364D01*
X135498034Y-63104554D01*
G37*
G36*
X138976644Y-62931158D02*
G01*
X139022913Y-62955974D01*
X139055568Y-62985551D01*
X139062206Y-63001879D01*
X139046173Y-63017138D01*
X139009360Y-63019793D01*
X138968688Y-63010595D01*
X138946206Y-62996745D01*
X138927465Y-62985876D01*
X138922214Y-63010418D01*
X138922206Y-63012533D01*
X138932731Y-63042652D01*
X138970537Y-63051549D01*
X138976094Y-63051533D01*
X139027164Y-63065395D01*
X139061094Y-63105745D01*
X139080801Y-63149205D01*
X139077094Y-63184549D01*
X139061569Y-63215745D01*
X139030865Y-63254302D01*
X138985625Y-63272403D01*
X138949027Y-63276774D01*
X138873976Y-63271960D01*
X138834664Y-63250346D01*
X138812638Y-63208410D01*
X138807594Y-63170745D01*
X138922206Y-63170745D01*
X138929052Y-63208331D01*
X138942206Y-63220745D01*
X138957240Y-63203629D01*
X138962206Y-63170745D01*
X138955359Y-63133158D01*
X138942206Y-63120745D01*
X138927171Y-63137860D01*
X138922206Y-63170745D01*
X138807594Y-63170745D01*
X138802930Y-63135912D01*
X138802206Y-63100450D01*
X138804701Y-63030229D01*
X138814628Y-62987595D01*
X138835646Y-62960314D01*
X138846656Y-62951879D01*
X138895775Y-62927924D01*
X138932206Y-62920745D01*
X138976644Y-62931158D01*
G37*
G36*
X138679964Y-62932047D02*
G01*
X138717755Y-62951879D01*
X138744510Y-62977926D01*
X138757962Y-63015913D01*
X138762131Y-63078614D01*
X138762206Y-63093193D01*
X138757899Y-63182281D01*
X138741969Y-63238687D01*
X138709901Y-63269094D01*
X138657182Y-63280184D01*
X138635502Y-63280745D01*
X138576772Y-63275423D01*
X138533767Y-63262128D01*
X138526206Y-63256745D01*
X138504875Y-63221294D01*
X138502206Y-63206745D01*
X138518553Y-63188303D01*
X138556139Y-63181122D01*
X138597781Y-63185339D01*
X138626298Y-63201088D01*
X138628960Y-63205745D01*
X138637765Y-63212760D01*
X138640627Y-63195745D01*
X138629826Y-63169295D01*
X138589171Y-63160788D01*
X138584345Y-63160745D01*
X138537023Y-63151079D01*
X138511215Y-63117614D01*
X138502355Y-63053649D01*
X138502354Y-63053581D01*
X138607605Y-63053581D01*
X138613161Y-63075745D01*
X138626078Y-63100266D01*
X138633797Y-63087668D01*
X138636767Y-63075745D01*
X138639589Y-63024713D01*
X138636767Y-63005745D01*
X138628658Y-62981223D01*
X138618469Y-62993821D01*
X138613161Y-63005745D01*
X138607605Y-63053581D01*
X138502354Y-63053581D01*
X138502206Y-63040243D01*
X138520168Y-62981998D01*
X138566365Y-62938642D01*
X138629264Y-62920779D01*
X138632206Y-62920745D01*
X138679964Y-62932047D01*
G37*
G36*
X137018542Y-62943438D02*
G01*
X137052695Y-62952889D01*
X137062206Y-62970745D01*
X137045532Y-62995176D01*
X137022206Y-63000745D01*
X136989630Y-63013250D01*
X136982206Y-63030745D01*
X136998215Y-63057260D01*
X137012206Y-63060745D01*
X137036637Y-63077418D01*
X137042206Y-63100745D01*
X137029700Y-63133320D01*
X137012206Y-63140745D01*
X136985690Y-63156754D01*
X136982206Y-63170745D01*
X136998758Y-63195395D01*
X137020539Y-63200745D01*
X137057306Y-63212176D01*
X137068960Y-63225745D01*
X137076531Y-63227575D01*
X137080620Y-63196965D01*
X137080627Y-63196729D01*
X137085802Y-63144950D01*
X137091372Y-63110745D01*
X137206104Y-63110745D01*
X137208266Y-63144901D01*
X137214527Y-63147908D01*
X137215324Y-63146125D01*
X137219281Y-63106421D01*
X137216065Y-63086125D01*
X137209699Y-63077969D01*
X137206236Y-63104534D01*
X137206104Y-63110745D01*
X137091372Y-63110745D01*
X137097114Y-63075478D01*
X137103863Y-63041729D01*
X137125520Y-62940745D01*
X137210660Y-62940745D01*
X137295799Y-62940745D01*
X137321635Y-63085745D01*
X137335544Y-63160135D01*
X137348002Y-63220383D01*
X137356494Y-63254386D01*
X137356978Y-63255745D01*
X137347886Y-63274819D01*
X137304345Y-63280745D01*
X137255786Y-63272420D01*
X137242206Y-63250745D01*
X137226196Y-63224229D01*
X137212206Y-63220745D01*
X137185668Y-63235788D01*
X137182206Y-63248864D01*
X137172577Y-63263792D01*
X137139427Y-63272965D01*
X137076359Y-63277596D01*
X137025337Y-63278662D01*
X136949659Y-63277887D01*
X136890273Y-63274323D01*
X136857831Y-63268686D01*
X136855337Y-63267210D01*
X136849129Y-63242265D01*
X136844504Y-63187990D01*
X136842288Y-63115048D01*
X136842206Y-63097411D01*
X136842206Y-62940745D01*
X136952206Y-62940745D01*
X137018542Y-62943438D01*
G37*
G36*
X139486826Y-61781916D02*
G01*
X139487795Y-62030300D01*
X139487742Y-62243706D01*
X139486680Y-62421307D01*
X139484620Y-62562278D01*
X139481575Y-62665793D01*
X139477558Y-62731027D01*
X139472581Y-62757155D01*
X139472206Y-62757492D01*
X139465463Y-62760175D01*
X139452686Y-62762552D01*
X139431867Y-62764626D01*
X139400997Y-62766400D01*
X139358069Y-62767878D01*
X139301076Y-62769063D01*
X139228011Y-62769957D01*
X139136865Y-62770565D01*
X139025630Y-62770890D01*
X138892300Y-62770934D01*
X138734867Y-62770701D01*
X138551322Y-62770194D01*
X138339659Y-62769417D01*
X138097870Y-62768372D01*
X137823947Y-62767064D01*
X137515883Y-62765494D01*
X137171670Y-62763667D01*
X136822206Y-62761766D01*
X134812206Y-62750745D01*
X134812206Y-61796221D01*
X134812206Y-61160745D01*
X135162206Y-61160745D01*
X135162206Y-61360745D01*
X135162206Y-61560745D01*
X135261160Y-61560745D01*
X135360115Y-61560745D01*
X135366160Y-61455745D01*
X135372206Y-61350745D01*
X135539144Y-61344904D01*
X135636984Y-61344656D01*
X135704406Y-61351415D01*
X135734144Y-61362353D01*
X135743225Y-61376908D01*
X135750211Y-61406558D01*
X135755343Y-61455699D01*
X135758864Y-61528727D01*
X135761013Y-61630038D01*
X135762033Y-61764027D01*
X135762206Y-61873193D01*
X135762206Y-62360745D01*
X135562206Y-62360745D01*
X135362206Y-62360745D01*
X135362206Y-62460745D01*
X135362206Y-62560745D01*
X135692206Y-62560745D01*
X136022206Y-62560745D01*
X136022871Y-62325745D01*
X136023536Y-62090745D01*
X136064689Y-62140745D01*
X136106710Y-62190627D01*
X136154349Y-62245648D01*
X136159024Y-62250952D01*
X136198113Y-62295667D01*
X136252368Y-62358307D01*
X136310975Y-62426381D01*
X136319184Y-62435952D01*
X136426163Y-62560745D01*
X136585428Y-62560745D01*
X136744692Y-62560745D01*
X136635068Y-62435745D01*
X136501829Y-62282450D01*
X136395469Y-62157009D01*
X136315181Y-62058406D01*
X136260158Y-61985624D01*
X136229592Y-61937647D01*
X136222206Y-61916484D01*
X136233354Y-61882947D01*
X136262687Y-61828946D01*
X136304033Y-61765748D01*
X136307206Y-61761288D01*
X136364088Y-61681085D01*
X136379725Y-61658793D01*
X136687294Y-61658793D01*
X136695361Y-61678588D01*
X136722249Y-61707044D01*
X136772047Y-61750015D01*
X136840106Y-61806160D01*
X136896913Y-61852136D01*
X136932083Y-61875742D01*
X136954857Y-61880037D01*
X136974478Y-61868075D01*
X136987907Y-61855043D01*
X137014862Y-61825105D01*
X137013303Y-61805864D01*
X136987053Y-61782943D01*
X136950295Y-61752968D01*
X136896109Y-61707733D01*
X136846975Y-61666161D01*
X136793237Y-61621291D01*
X136760478Y-61599358D01*
X136739291Y-61597287D01*
X136720270Y-61612002D01*
X136711265Y-61621784D01*
X136693958Y-61641809D01*
X136687294Y-61658793D01*
X136379725Y-61658793D01*
X136428729Y-61588934D01*
X136482206Y-61511911D01*
X136572206Y-61381361D01*
X136697032Y-61381053D01*
X136772053Y-61383539D01*
X136824866Y-61395078D01*
X136873103Y-61421109D01*
X136907032Y-61445830D01*
X136968412Y-61493632D01*
X137048906Y-61557541D01*
X137137893Y-61628997D01*
X137224751Y-61699438D01*
X137298859Y-61760303D01*
X137340277Y-61795025D01*
X137379526Y-61825269D01*
X137405812Y-61839820D01*
X137407206Y-61840025D01*
X137414111Y-61821941D01*
X137419338Y-61773187D01*
X137422023Y-61703085D01*
X137422206Y-61677774D01*
X137422206Y-61514804D01*
X137602213Y-61337519D01*
X137782220Y-61160233D01*
X138487213Y-61165489D01*
X139192206Y-61170745D01*
X139192206Y-61390745D01*
X139192206Y-61610745D01*
X139087206Y-61616790D01*
X139026193Y-61619296D01*
X138995056Y-61614277D01*
X138983744Y-61596625D01*
X138982206Y-61563425D01*
X138979649Y-61505522D01*
X138966914Y-61469419D01*
X138936406Y-61450000D01*
X138880528Y-61442149D01*
X138800066Y-61440745D01*
X138642206Y-61440745D01*
X138642206Y-62010745D01*
X138642206Y-62580745D01*
X138502206Y-62580745D01*
X138362206Y-62580745D01*
X138362206Y-62010745D01*
X138362206Y-61440745D01*
X138160360Y-61440745D01*
X138082552Y-61440609D01*
X138023844Y-61442616D01*
X137976822Y-61450388D01*
X137934073Y-61467548D01*
X137888182Y-61497719D01*
X137831735Y-61544522D01*
X137757320Y-61611579D01*
X137695844Y-61667707D01*
X137623747Y-61732903D01*
X137557598Y-61791865D01*
X137505981Y-61836989D01*
X137482206Y-61856985D01*
X137466585Y-61869188D01*
X137454517Y-61880844D01*
X137445625Y-61896801D01*
X137439534Y-61921907D01*
X137435869Y-61961010D01*
X137434254Y-62018958D01*
X137434315Y-62100598D01*
X137435676Y-62210778D01*
X137437962Y-62354346D01*
X137438948Y-62415745D01*
X137442206Y-62620745D01*
X138372206Y-62620745D01*
X139302206Y-62620745D01*
X139302124Y-62055745D01*
X139301613Y-61892931D01*
X139300217Y-61728499D01*
X139298072Y-61571016D01*
X139295316Y-61429050D01*
X139292084Y-61311167D01*
X139289038Y-61235745D01*
X139276033Y-60980745D01*
X138349700Y-60980745D01*
X137423367Y-60980745D01*
X137417786Y-61239626D01*
X137412206Y-61498508D01*
X137207780Y-61329626D01*
X137003354Y-61160745D01*
X136707780Y-61160903D01*
X136412206Y-61161061D01*
X136305509Y-61320841D01*
X136246628Y-61404967D01*
X136183259Y-61489081D01*
X136126495Y-61558628D01*
X136111303Y-61575683D01*
X136023794Y-61670745D01*
X136023000Y-61415745D01*
X136022206Y-61160745D01*
X135592206Y-61160745D01*
X135162206Y-61160745D01*
X134812206Y-61160745D01*
X134812206Y-60841697D01*
X137146826Y-60830475D01*
X139481446Y-60819254D01*
X139486826Y-61781916D01*
G37*
D13*
%TO.C,SP*%
X124790000Y-82065000D02*
X125840000Y-82065000D01*
X124790000Y-84565000D02*
X124790000Y-82065000D01*
X125840000Y-82065000D02*
X125840000Y-81075000D01*
X125960000Y-86535000D02*
X127840000Y-86535000D01*
X129010000Y-82065000D02*
X127960000Y-82065000D01*
X129010000Y-84565000D02*
X129010000Y-82065000D01*
%TO.C,SENSOR*%
X155265000Y-82065000D02*
X156315000Y-82065000D01*
X155265000Y-84565000D02*
X155265000Y-82065000D01*
X156315000Y-82065000D02*
X156315000Y-81075000D01*
X156435000Y-86535000D02*
X160315000Y-86535000D01*
X161485000Y-82065000D02*
X160435000Y-82065000D01*
X161485000Y-84565000D02*
X161485000Y-82065000D01*
%TO.C,R8*%
X170815000Y-66472936D02*
X170815000Y-66927064D01*
X172285000Y-66472936D02*
X172285000Y-66927064D01*
%TD*%
M02*
