%TF.GenerationSoftware,KiCad,Pcbnew,9.0.6-9.0.6~ubuntu22.04.1*%
%TF.CreationDate,2026-01-04T01:52:07+05:30*%
%TF.ProjectId,WLM_NODE1,574c4d5f-4e4f-4444-9531-2e6b69636164,rev?*%
%TF.SameCoordinates,Original*%
%TF.FileFunction,Copper,L2,Bot*%
%TF.FilePolarity,Positive*%
%FSLAX46Y46*%
G04 Gerber Fmt 4.6, Leading zero omitted, Abs format (unit mm)*
G04 Created by KiCad (PCBNEW 9.0.6-9.0.6~ubuntu22.04.1) date 2026-01-04 01:52:07*
%MOMM*%
%LPD*%
G01*
G04 APERTURE LIST*
%TA.AperFunction,ComponentPad*%
%ADD10C,0.800000*%
%TD*%
%TA.AperFunction,ComponentPad*%
%ADD11C,6.400000*%
%TD*%
%TA.AperFunction,HeatsinkPad*%
%ADD12C,0.800000*%
%TD*%
%TA.AperFunction,HeatsinkPad*%
%ADD13R,1.900000X2.900000*%
%TD*%
%TA.AperFunction,ComponentPad*%
%ADD14R,1.700000X1.700000*%
%TD*%
%TA.AperFunction,ComponentPad*%
%ADD15C,1.700000*%
%TD*%
%TA.AperFunction,ViaPad*%
%ADD16C,0.800000*%
%TD*%
%TA.AperFunction,Conductor*%
%ADD17C,0.300000*%
%TD*%
%TA.AperFunction,Conductor*%
%ADD18C,0.400000*%
%TD*%
%TA.AperFunction,Conductor*%
%ADD19C,0.250000*%
%TD*%
%TA.AperFunction,Conductor*%
%ADD20C,0.500000*%
%TD*%
G04 APERTURE END LIST*
D10*
%TO.P,H2,1,1*%
%TO.N,GND*%
X115400000Y-70700000D03*
X116102944Y-69002944D03*
X116102944Y-72397056D03*
X117800000Y-68300000D03*
D11*
X117800000Y-70700000D03*
D10*
X117800000Y-73100000D03*
X119497056Y-69002944D03*
X119497056Y-72397056D03*
X120200000Y-70700000D03*
%TD*%
D12*
%TO.P,U2,9,EPAD*%
%TO.N,GND*%
X130800000Y-64800000D03*
X130800000Y-66000000D03*
X130800000Y-67200000D03*
D13*
X131500000Y-66000000D03*
D12*
X132200000Y-64800000D03*
X132200000Y-66000000D03*
X132200000Y-67200000D03*
%TD*%
D10*
%TO.P,H1,1,1*%
%TO.N,GND*%
X170700000Y-84200000D03*
X171402944Y-82502944D03*
X171402944Y-85897056D03*
X173100000Y-81800000D03*
D11*
X173100000Y-84200000D03*
D10*
X173100000Y-86600000D03*
X174797056Y-82502944D03*
X174797056Y-85897056D03*
X175500000Y-84200000D03*
%TD*%
D14*
%TO.P,J5,1,Pin_1*%
%TO.N,/3.3V*%
X127920000Y-59200000D03*
D15*
%TO.P,J5,2,Pin_2*%
%TO.N,/TX*%
X125380000Y-59200000D03*
%TO.P,J5,3,Pin_3*%
%TO.N,/RX*%
X122840000Y-59200000D03*
%TO.P,J5,4,Pin_4*%
%TO.N,GND*%
X120300000Y-59200000D03*
%TD*%
D14*
%TO.P,J3,1,Pin_1*%
%TO.N,/3.3V*%
X165300000Y-77730000D03*
D15*
%TO.P,J3,2,Pin_2*%
%TO.N,GND*%
X165300000Y-80270000D03*
%TO.P,J3,3,Pin_3*%
%TO.N,/D1{slash}SDA*%
X165300000Y-82810000D03*
%TO.P,J3,4,Pin_4*%
%TO.N,/D2{slash}SCL*%
X165300000Y-85350000D03*
%TD*%
D10*
%TO.P,H3,1,1*%
%TO.N,GND*%
X170702944Y-60647056D03*
X171405888Y-58950000D03*
X171405888Y-62344112D03*
X173102944Y-58247056D03*
D11*
X173102944Y-60647056D03*
D10*
X173102944Y-63047056D03*
X174800000Y-58950000D03*
X174800000Y-62344112D03*
X175502944Y-60647056D03*
%TD*%
D16*
%TO.N,/SOLAR_PANNEL*%
X128300000Y-69100000D03*
X126900000Y-79700000D03*
X136400000Y-67900000D03*
%TO.N,GND*%
X137200000Y-85350000D03*
X163000000Y-84350000D03*
X136100000Y-65200000D03*
X139077298Y-84977298D03*
%TO.N,/BAT*%
X138000000Y-74000000D03*
X138300000Y-78300000D03*
X141000000Y-71300000D03*
%TO.N,/D2{slash}SCL*%
X169959559Y-62870038D03*
X135400000Y-85500000D03*
%TO.N,/D3{slash}TRIG*%
X150400000Y-67900000D03*
X136800000Y-80100000D03*
%TO.N,/D1{slash}SDA*%
X134600000Y-83900000D03*
X169425001Y-64462131D03*
%TO.N,/D4*%
X141706370Y-79074999D03*
X150300000Y-66600000D03*
X139000000Y-80100000D03*
X141600000Y-77525000D03*
%TO.N,/IN1{slash}ECHO*%
X158800000Y-83700000D03*
X156636198Y-86930186D03*
X154263603Y-76036397D03*
X154000000Y-64300000D03*
%TO.N,/TX*%
X126290000Y-58093975D03*
X165005025Y-58094975D03*
%TO.N,/RX*%
X123400000Y-57504745D03*
X166200000Y-58300000D03*
%TO.N,/MOS*%
X150200000Y-79100000D03*
X150600000Y-70100000D03*
%TO.N,GND*%
X141000000Y-72900000D03*
X145400000Y-73100000D03*
%TD*%
D17*
%TO.N,/TX*%
X126290000Y-58093975D02*
X126539000Y-57844975D01*
X126539000Y-57844975D02*
X164755025Y-57844975D01*
X164755025Y-57844975D02*
X165005025Y-58094975D01*
X126321433Y-58125408D02*
X126419998Y-58125408D01*
X126290000Y-58093975D02*
X126321433Y-58125408D01*
X126419998Y-58125408D02*
X126596406Y-57949000D01*
%TO.N,/RX*%
X123400000Y-57504745D02*
X123610770Y-57293975D01*
X123610770Y-57293975D02*
X165336811Y-57293975D01*
X165336811Y-57293975D02*
X166200000Y-58157164D01*
X166200000Y-58157164D02*
X166200000Y-58300000D01*
D18*
%TO.N,/SOLAR_PANNEL*%
X128300000Y-69100000D02*
X126900000Y-70500000D01*
X135200000Y-69100000D02*
X136400000Y-67900000D01*
X126900000Y-70500000D02*
X126900000Y-79700000D01*
X128300000Y-69100000D02*
X135200000Y-69100000D01*
D19*
%TO.N,GND*%
X139077298Y-84977298D02*
X138201591Y-85853005D01*
X138201591Y-85853005D02*
X137653004Y-85853005D01*
X137200000Y-85350000D02*
X137200000Y-85400001D01*
X137200000Y-85400001D02*
X137653004Y-85853005D01*
D20*
%TO.N,/BAT*%
X138300000Y-74300000D02*
X138000000Y-74000000D01*
X138300000Y-75500000D02*
X138300000Y-74300000D01*
X138300000Y-74000000D02*
X141000000Y-71300000D01*
X138300000Y-78300000D02*
X138300000Y-75500000D01*
X138300000Y-75500000D02*
X138300000Y-74000000D01*
D19*
%TO.N,/D2{slash}SCL*%
X135400000Y-85500000D02*
X137000000Y-87100000D01*
X170200000Y-63110479D02*
X170200000Y-81700000D01*
X168350000Y-85350000D02*
X165300000Y-85350000D01*
X170200000Y-81700000D02*
X169000000Y-82900000D01*
X155600000Y-87100000D02*
X156206186Y-87706186D01*
X158600000Y-86900000D02*
X163750000Y-86900000D01*
X169959559Y-62870038D02*
X170200000Y-63110479D01*
X137000000Y-87100000D02*
X155600000Y-87100000D01*
X157793814Y-87706186D02*
X158600000Y-86900000D01*
X169000000Y-82900000D02*
X169000000Y-84700000D01*
X163750000Y-86900000D02*
X165300000Y-85350000D01*
X169000000Y-84700000D02*
X168350000Y-85350000D01*
X156206186Y-87706186D02*
X157793814Y-87706186D01*
%TO.N,/D3{slash}TRIG*%
X139600000Y-78300000D02*
X137800000Y-80100000D01*
X150400000Y-67900000D02*
X149800000Y-68500000D01*
X147200000Y-78300000D02*
X139600000Y-78300000D01*
X149800000Y-75700000D02*
X147200000Y-78300000D01*
X137800000Y-80100000D02*
X136800000Y-80100000D01*
X149800000Y-68500000D02*
X149800000Y-75700000D01*
%TO.N,/D1{slash}SDA*%
X169699000Y-81492480D02*
X169699000Y-80900000D01*
X135200000Y-84500000D02*
X138200000Y-84500000D01*
X134600000Y-83900000D02*
X135200000Y-84500000D01*
X168381479Y-82810000D02*
X168945740Y-82245740D01*
X139890000Y-82810000D02*
X165300000Y-82810000D01*
X168945740Y-82245740D02*
X169699000Y-81492480D01*
X138200000Y-84500000D02*
X139890000Y-82810000D01*
X169699000Y-80900000D02*
X169699000Y-64736130D01*
X165300000Y-82810000D02*
X168381479Y-82810000D01*
X169699000Y-64736130D02*
X169425001Y-64462131D01*
%TO.N,/D4*%
X141200000Y-80100000D02*
X139000000Y-80100000D01*
X146992480Y-77799000D02*
X149299000Y-75492480D01*
X141706370Y-79074999D02*
X141800000Y-79168629D01*
X141400000Y-80100000D02*
X141200000Y-80100000D01*
X141800000Y-79700000D02*
X141400000Y-80100000D01*
X149299000Y-67601000D02*
X150300000Y-66600000D01*
X141874000Y-77799000D02*
X146992480Y-77799000D01*
X141800000Y-79168629D02*
X141800000Y-79700000D01*
X141600000Y-77525000D02*
X141874000Y-77799000D01*
X149299000Y-75492480D02*
X149299000Y-67601000D01*
%TO.N,/IN1{slash}ECHO*%
X154000000Y-75772794D02*
X154263603Y-76036397D01*
X157569814Y-86930186D02*
X158200000Y-86300000D01*
X156636198Y-86930186D02*
X157569814Y-86930186D01*
X158800000Y-84100000D02*
X158800000Y-83700000D01*
X158200000Y-86300000D02*
X158200000Y-84700000D01*
X154000000Y-64300000D02*
X154000000Y-75772794D01*
X158200000Y-84700000D02*
X158800000Y-84100000D01*
%TO.N,/MOS*%
X150600000Y-70100000D02*
X150600000Y-78700000D01*
X150600000Y-78700000D02*
X150200000Y-79100000D01*
%TD*%
%TA.AperFunction,Conductor*%
%TO.N,GND*%
G36*
X122726822Y-56994190D02*
G01*
X122793857Y-57013883D01*
X122839605Y-57066693D01*
X122849540Y-57135852D01*
X122829909Y-57187077D01*
X122823538Y-57196612D01*
X122823533Y-57196620D01*
X122774499Y-57315000D01*
X122774497Y-57315006D01*
X122749500Y-57440673D01*
X122749500Y-57440676D01*
X122749500Y-57568814D01*
X122749500Y-57568816D01*
X122749499Y-57568816D01*
X122774497Y-57694483D01*
X122774499Y-57694489D01*
X122823533Y-57812869D01*
X122823538Y-57812878D01*
X122886168Y-57906609D01*
X122907046Y-57973286D01*
X122888562Y-58040666D01*
X122836583Y-58087357D01*
X122783066Y-58099500D01*
X122753389Y-58099500D01*
X122727181Y-58103651D01*
X122582302Y-58126597D01*
X122417552Y-58180128D01*
X122263211Y-58258768D01*
X122211720Y-58296179D01*
X122123072Y-58360586D01*
X122123070Y-58360588D01*
X122123069Y-58360588D01*
X122000588Y-58483069D01*
X122000588Y-58483070D01*
X122000586Y-58483072D01*
X121981278Y-58509647D01*
X121898768Y-58623211D01*
X121820128Y-58777552D01*
X121766597Y-58942302D01*
X121739500Y-59113389D01*
X121739500Y-59286610D01*
X121759380Y-59412132D01*
X121766598Y-59457701D01*
X121820127Y-59622445D01*
X121898768Y-59776788D01*
X122000586Y-59916928D01*
X122123072Y-60039414D01*
X122263212Y-60141232D01*
X122417555Y-60219873D01*
X122582299Y-60273402D01*
X122753389Y-60300500D01*
X122753390Y-60300500D01*
X122926610Y-60300500D01*
X122926611Y-60300500D01*
X123097701Y-60273402D01*
X123262445Y-60219873D01*
X123416788Y-60141232D01*
X123556928Y-60039414D01*
X123679414Y-59916928D01*
X123781232Y-59776788D01*
X123859873Y-59622445D01*
X123913402Y-59457701D01*
X123940500Y-59286611D01*
X123940500Y-59113389D01*
X123913402Y-58942299D01*
X123859873Y-58777555D01*
X123781232Y-58623212D01*
X123679414Y-58483072D01*
X123556928Y-58360586D01*
X123544430Y-58351506D01*
X123501767Y-58296179D01*
X123495788Y-58226566D01*
X123528393Y-58164770D01*
X123584275Y-58133212D01*
X123583912Y-58132015D01*
X123589734Y-58130247D01*
X123589744Y-58130246D01*
X123708127Y-58081210D01*
X123814669Y-58010021D01*
X123905276Y-57919414D01*
X123976465Y-57812872D01*
X123993800Y-57771022D01*
X124037641Y-57716619D01*
X124103935Y-57694554D01*
X124108361Y-57694475D01*
X125565804Y-57694475D01*
X125589575Y-57701455D01*
X125614184Y-57704303D01*
X125622512Y-57711126D01*
X125632843Y-57714160D01*
X125649064Y-57732880D01*
X125668230Y-57748583D01*
X125671547Y-57758827D01*
X125678598Y-57766964D01*
X125682123Y-57791483D01*
X125689757Y-57815054D01*
X125687371Y-57827978D01*
X125688542Y-57836122D01*
X125685700Y-57850114D01*
X125683566Y-57858196D01*
X125664499Y-57904231D01*
X125643312Y-58010738D01*
X125642337Y-58014436D01*
X125626165Y-58041194D01*
X125611673Y-58068900D01*
X125608240Y-58070854D01*
X125606198Y-58074234D01*
X125578135Y-58087997D01*
X125550957Y-58103474D01*
X125546218Y-58103651D01*
X125543467Y-58105001D01*
X125535334Y-58104059D01*
X125503046Y-58105270D01*
X125466611Y-58099500D01*
X125293389Y-58099500D01*
X125267181Y-58103651D01*
X125122302Y-58126597D01*
X124957552Y-58180128D01*
X124803211Y-58258768D01*
X124751720Y-58296179D01*
X124663072Y-58360586D01*
X124663070Y-58360588D01*
X124663069Y-58360588D01*
X124540588Y-58483069D01*
X124540588Y-58483070D01*
X124540586Y-58483072D01*
X124521278Y-58509647D01*
X124438768Y-58623211D01*
X124360128Y-58777552D01*
X124306597Y-58942302D01*
X124279500Y-59113389D01*
X124279500Y-59286610D01*
X124299380Y-59412132D01*
X124306598Y-59457701D01*
X124360127Y-59622445D01*
X124438768Y-59776788D01*
X124540586Y-59916928D01*
X124663072Y-60039414D01*
X124803212Y-60141232D01*
X124957555Y-60219873D01*
X125122299Y-60273402D01*
X125293389Y-60300500D01*
X125293390Y-60300500D01*
X125466610Y-60300500D01*
X125466611Y-60300500D01*
X125637701Y-60273402D01*
X125802445Y-60219873D01*
X125956788Y-60141232D01*
X126096928Y-60039414D01*
X126219414Y-59916928D01*
X126321232Y-59776788D01*
X126399873Y-59622445D01*
X126453402Y-59457701D01*
X126480500Y-59286611D01*
X126480500Y-59113389D01*
X126453402Y-58942299D01*
X126428134Y-58864535D01*
X126428117Y-58863922D01*
X126427775Y-58863411D01*
X126427121Y-58829053D01*
X126426140Y-58794698D01*
X126426457Y-58794171D01*
X126426446Y-58793554D01*
X126444499Y-58764252D01*
X126462220Y-58734865D01*
X126462880Y-58734418D01*
X126463096Y-58734068D01*
X126467546Y-58731259D01*
X126492419Y-58714426D01*
X126495467Y-58712962D01*
X126598127Y-58670440D01*
X126633920Y-58646523D01*
X126641853Y-58642717D01*
X126668000Y-58638448D01*
X126693285Y-58630531D01*
X126701946Y-58632906D01*
X126710810Y-58631460D01*
X126735114Y-58642005D01*
X126760666Y-58649015D01*
X126766667Y-58655696D01*
X126774906Y-58659271D01*
X126789650Y-58681282D01*
X126807356Y-58700993D01*
X126809662Y-58711156D01*
X126813791Y-58717320D01*
X126814040Y-58730452D01*
X126819500Y-58754511D01*
X126819500Y-60074678D01*
X126834032Y-60147735D01*
X126834033Y-60147739D01*
X126834034Y-60147740D01*
X126889399Y-60230601D01*
X126971359Y-60285364D01*
X126972260Y-60285966D01*
X126972264Y-60285967D01*
X127045321Y-60300499D01*
X127045324Y-60300500D01*
X127045326Y-60300500D01*
X128794676Y-60300500D01*
X128794677Y-60300499D01*
X128867740Y-60285966D01*
X128950601Y-60230601D01*
X129005966Y-60147740D01*
X129020500Y-60074674D01*
X129020500Y-58369475D01*
X129040185Y-58302436D01*
X129092989Y-58256681D01*
X129144500Y-58245475D01*
X164280415Y-58245475D01*
X164347454Y-58265160D01*
X164393209Y-58317964D01*
X164394976Y-58322023D01*
X164428556Y-58403095D01*
X164428563Y-58403108D01*
X164499748Y-58509643D01*
X164499751Y-58509647D01*
X164590352Y-58600248D01*
X164590356Y-58600251D01*
X164696891Y-58671436D01*
X164696897Y-58671439D01*
X164696898Y-58671440D01*
X164815281Y-58720476D01*
X164815285Y-58720476D01*
X164815286Y-58720477D01*
X164940953Y-58745475D01*
X164940956Y-58745475D01*
X165069096Y-58745475D01*
X165153640Y-58728657D01*
X165194769Y-58720476D01*
X165313152Y-58671440D01*
X165419694Y-58600251D01*
X165431892Y-58588052D01*
X165493212Y-58554568D01*
X165562904Y-58559550D01*
X165618839Y-58601420D01*
X165622676Y-58606842D01*
X165694723Y-58714668D01*
X165694726Y-58714672D01*
X165785327Y-58805273D01*
X165785331Y-58805276D01*
X165891866Y-58876461D01*
X165891872Y-58876464D01*
X165891873Y-58876465D01*
X166010256Y-58925501D01*
X166010260Y-58925501D01*
X166010261Y-58925502D01*
X166135928Y-58950500D01*
X166135931Y-58950500D01*
X166264071Y-58950500D01*
X166368946Y-58929638D01*
X166389744Y-58925501D01*
X166508127Y-58876465D01*
X166614669Y-58805276D01*
X166705276Y-58714669D01*
X166776465Y-58608127D01*
X166825501Y-58489744D01*
X166837178Y-58431040D01*
X166850500Y-58364071D01*
X166850500Y-58235928D01*
X166825502Y-58110261D01*
X166825501Y-58110260D01*
X166825501Y-58110256D01*
X166776465Y-57991873D01*
X166776464Y-57991872D01*
X166776461Y-57991866D01*
X166705276Y-57885331D01*
X166705273Y-57885327D01*
X166614672Y-57794726D01*
X166614668Y-57794723D01*
X166508133Y-57723538D01*
X166508124Y-57723533D01*
X166389744Y-57674499D01*
X166389738Y-57674497D01*
X166294292Y-57655511D01*
X166232381Y-57623125D01*
X166230803Y-57621575D01*
X165820508Y-57211279D01*
X165787023Y-57149956D01*
X165792007Y-57080264D01*
X165833879Y-57024331D01*
X165899343Y-56999914D01*
X165908190Y-56999598D01*
X173052386Y-57000494D01*
X173052405Y-57000500D01*
X173096969Y-57000500D01*
X173103034Y-57000649D01*
X173451632Y-57017774D01*
X173463740Y-57018966D01*
X173805966Y-57069731D01*
X173817880Y-57072101D01*
X174153494Y-57156168D01*
X174165132Y-57159699D01*
X174490862Y-57276248D01*
X174502103Y-57280904D01*
X174689521Y-57369545D01*
X174814863Y-57428827D01*
X174825580Y-57434555D01*
X175116034Y-57608647D01*
X175122324Y-57612417D01*
X175132439Y-57619175D01*
X175393618Y-57812878D01*
X175410329Y-57825272D01*
X175419735Y-57832992D01*
X175676079Y-58065329D01*
X175684670Y-58073920D01*
X175758379Y-58155245D01*
X175917007Y-58330264D01*
X175924727Y-58339670D01*
X176130822Y-58617557D01*
X176137582Y-58627675D01*
X176169713Y-58681282D01*
X176314427Y-58922723D01*
X176315437Y-58924407D01*
X176321174Y-58935140D01*
X176469095Y-59247896D01*
X176473751Y-59259137D01*
X176590300Y-59584867D01*
X176593833Y-59596512D01*
X176677895Y-59932106D01*
X176680269Y-59944041D01*
X176731032Y-60286257D01*
X176732225Y-60298368D01*
X176749343Y-60646822D01*
X176749492Y-60653169D01*
X176699622Y-84142169D01*
X176699622Y-84142181D01*
X176699600Y-84152096D01*
X176699500Y-84152405D01*
X176699500Y-84197224D01*
X176699492Y-84197248D01*
X176699351Y-84203034D01*
X176682225Y-84551631D01*
X176681032Y-84563741D01*
X176630269Y-84905958D01*
X176627895Y-84917893D01*
X176543833Y-85253487D01*
X176540300Y-85265132D01*
X176423751Y-85590862D01*
X176419095Y-85602103D01*
X176271174Y-85914859D01*
X176265437Y-85925592D01*
X176087582Y-86222324D01*
X176080822Y-86232442D01*
X175874727Y-86510329D01*
X175867007Y-86519735D01*
X175634677Y-86776072D01*
X175626072Y-86784677D01*
X175369735Y-87017007D01*
X175360329Y-87024727D01*
X175082442Y-87230822D01*
X175072324Y-87237582D01*
X174775592Y-87415437D01*
X174764859Y-87421174D01*
X174452103Y-87569095D01*
X174440862Y-87573751D01*
X174115132Y-87690300D01*
X174103487Y-87693833D01*
X173767893Y-87777895D01*
X173755958Y-87780269D01*
X173413741Y-87831032D01*
X173401630Y-87832225D01*
X173053058Y-87849349D01*
X173046907Y-87849498D01*
X158488737Y-87841593D01*
X158421708Y-87821872D01*
X158375982Y-87769043D01*
X158366076Y-87699879D01*
X158395135Y-87636339D01*
X158401090Y-87629945D01*
X158719220Y-87311816D01*
X158780541Y-87278334D01*
X158806899Y-87275500D01*
X163799435Y-87275500D01*
X163799436Y-87275500D01*
X163847186Y-87262705D01*
X163894938Y-87249910D01*
X163980562Y-87200475D01*
X164050475Y-87130562D01*
X164773715Y-86407320D01*
X164835036Y-86373837D01*
X164899710Y-86377071D01*
X165042299Y-86423402D01*
X165213389Y-86450500D01*
X165213390Y-86450500D01*
X165386610Y-86450500D01*
X165386611Y-86450500D01*
X165557701Y-86423402D01*
X165722445Y-86369873D01*
X165876788Y-86291232D01*
X166016928Y-86189414D01*
X166139414Y-86066928D01*
X166241232Y-85926788D01*
X166309295Y-85793206D01*
X166357269Y-85742409D01*
X166419780Y-85725500D01*
X168399435Y-85725500D01*
X168399436Y-85725500D01*
X168447186Y-85712705D01*
X168494938Y-85699910D01*
X168580562Y-85650475D01*
X168650475Y-85580562D01*
X168650474Y-85580562D01*
X168709043Y-85521993D01*
X169300475Y-84930563D01*
X169349911Y-84844937D01*
X169375500Y-84749436D01*
X169375500Y-84650564D01*
X169375500Y-83106899D01*
X169395185Y-83039860D01*
X169411819Y-83019218D01*
X169921512Y-82509525D01*
X170500474Y-81930563D01*
X170500475Y-81930562D01*
X170549910Y-81844938D01*
X170575500Y-81749435D01*
X170575500Y-63107527D01*
X170583807Y-63065766D01*
X170583292Y-63065610D01*
X170584880Y-63060373D01*
X170584941Y-63060070D01*
X170585059Y-63059784D01*
X170585061Y-63059777D01*
X170610059Y-62934109D01*
X170610059Y-62805966D01*
X170585061Y-62680299D01*
X170585060Y-62680298D01*
X170585060Y-62680294D01*
X170536024Y-62561911D01*
X170536023Y-62561910D01*
X170536020Y-62561904D01*
X170464835Y-62455369D01*
X170464832Y-62455365D01*
X170374231Y-62364764D01*
X170374227Y-62364761D01*
X170267692Y-62293576D01*
X170267683Y-62293571D01*
X170149303Y-62244537D01*
X170149297Y-62244535D01*
X170023630Y-62219538D01*
X170023628Y-62219538D01*
X169895490Y-62219538D01*
X169895488Y-62219538D01*
X169769820Y-62244535D01*
X169769814Y-62244537D01*
X169651434Y-62293571D01*
X169651425Y-62293576D01*
X169544890Y-62364761D01*
X169544886Y-62364764D01*
X169454285Y-62455365D01*
X169454282Y-62455369D01*
X169383097Y-62561904D01*
X169383092Y-62561913D01*
X169334058Y-62680293D01*
X169334056Y-62680299D01*
X169309059Y-62805966D01*
X169309059Y-62805969D01*
X169309059Y-62934107D01*
X169309059Y-62934109D01*
X169309058Y-62934109D01*
X169334056Y-63059776D01*
X169334058Y-63059782D01*
X169383092Y-63178162D01*
X169383097Y-63178171D01*
X169454282Y-63284706D01*
X169454285Y-63284710D01*
X169544886Y-63375311D01*
X169544890Y-63375314D01*
X169651425Y-63446499D01*
X169651438Y-63446506D01*
X169747952Y-63486483D01*
X169763516Y-63499025D01*
X169781703Y-63507331D01*
X169790167Y-63520501D01*
X169802356Y-63530324D01*
X169808668Y-63549291D01*
X169819477Y-63566109D01*
X169823439Y-63593669D01*
X169824421Y-63596618D01*
X169824500Y-63601044D01*
X169824500Y-63737934D01*
X169804815Y-63804973D01*
X169752011Y-63850728D01*
X169682853Y-63860672D01*
X169653048Y-63852495D01*
X169614749Y-63836631D01*
X169614739Y-63836628D01*
X169489072Y-63811631D01*
X169489070Y-63811631D01*
X169360932Y-63811631D01*
X169360930Y-63811631D01*
X169235262Y-63836628D01*
X169235256Y-63836630D01*
X169116876Y-63885664D01*
X169116867Y-63885669D01*
X169010332Y-63956854D01*
X169010328Y-63956857D01*
X168919727Y-64047458D01*
X168919724Y-64047462D01*
X168848539Y-64153997D01*
X168848534Y-64154006D01*
X168799500Y-64272386D01*
X168799498Y-64272392D01*
X168774501Y-64398059D01*
X168774501Y-64398062D01*
X168774501Y-64526200D01*
X168774501Y-64526202D01*
X168774500Y-64526202D01*
X168799498Y-64651869D01*
X168799500Y-64651875D01*
X168848534Y-64770255D01*
X168848539Y-64770264D01*
X168919724Y-64876799D01*
X168919727Y-64876803D01*
X169010328Y-64967404D01*
X169010332Y-64967407D01*
X169116867Y-65038592D01*
X169116873Y-65038595D01*
X169116874Y-65038596D01*
X169235257Y-65087632D01*
X169235264Y-65087633D01*
X169235483Y-65087700D01*
X169235588Y-65087769D01*
X169240885Y-65089963D01*
X169240469Y-65090966D01*
X169293925Y-65125991D01*
X169322389Y-65189800D01*
X169323500Y-65206364D01*
X169323500Y-81285581D01*
X169303815Y-81352620D01*
X169287181Y-81373262D01*
X168715178Y-81945265D01*
X168262261Y-82398181D01*
X168200938Y-82431666D01*
X168174580Y-82434500D01*
X166419780Y-82434500D01*
X166352741Y-82414815D01*
X166309295Y-82366794D01*
X166241233Y-82233213D01*
X166225937Y-82212160D01*
X166139414Y-82093072D01*
X166016928Y-81970586D01*
X165876788Y-81868768D01*
X165722445Y-81790127D01*
X165557701Y-81736598D01*
X165557699Y-81736597D01*
X165557698Y-81736597D01*
X165426271Y-81715781D01*
X165386611Y-81709500D01*
X165213389Y-81709500D01*
X165173728Y-81715781D01*
X165042302Y-81736597D01*
X164877552Y-81790128D01*
X164723211Y-81868768D01*
X164643256Y-81926859D01*
X164583072Y-81970586D01*
X164583070Y-81970588D01*
X164583069Y-81970588D01*
X164460588Y-82093069D01*
X164460588Y-82093070D01*
X164460586Y-82093072D01*
X164429996Y-82135174D01*
X164358766Y-82233213D01*
X164290705Y-82366794D01*
X164242731Y-82417591D01*
X164180220Y-82434500D01*
X139840564Y-82434500D01*
X139792812Y-82447295D01*
X139792811Y-82447294D01*
X139745063Y-82460089D01*
X139745062Y-82460089D01*
X139659435Y-82509527D01*
X138080782Y-84088181D01*
X138019459Y-84121666D01*
X137993101Y-84124500D01*
X135406899Y-84124500D01*
X135377458Y-84115855D01*
X135347472Y-84109332D01*
X135342456Y-84105577D01*
X135339860Y-84104815D01*
X135319218Y-84088181D01*
X135286819Y-84055782D01*
X135253334Y-83994459D01*
X135250500Y-83968101D01*
X135250500Y-83835928D01*
X135225502Y-83710261D01*
X135225501Y-83710260D01*
X135225501Y-83710256D01*
X135176465Y-83591873D01*
X135176464Y-83591872D01*
X135176461Y-83591866D01*
X135105276Y-83485331D01*
X135105273Y-83485327D01*
X135014672Y-83394726D01*
X135014668Y-83394723D01*
X134908133Y-83323538D01*
X134908124Y-83323533D01*
X134789744Y-83274499D01*
X134789738Y-83274497D01*
X134664071Y-83249500D01*
X134664069Y-83249500D01*
X134535931Y-83249500D01*
X134535929Y-83249500D01*
X134410261Y-83274497D01*
X134410255Y-83274499D01*
X134291875Y-83323533D01*
X134291866Y-83323538D01*
X134185331Y-83394723D01*
X134185327Y-83394726D01*
X134094726Y-83485327D01*
X134094723Y-83485331D01*
X134023538Y-83591866D01*
X134023533Y-83591875D01*
X133974499Y-83710255D01*
X133974497Y-83710261D01*
X133949500Y-83835928D01*
X133949500Y-83835931D01*
X133949500Y-83964069D01*
X133949500Y-83964071D01*
X133949499Y-83964071D01*
X133974497Y-84089738D01*
X133974499Y-84089744D01*
X134023533Y-84208124D01*
X134023538Y-84208133D01*
X134094723Y-84314668D01*
X134094726Y-84314672D01*
X134185327Y-84405273D01*
X134185331Y-84405276D01*
X134291866Y-84476461D01*
X134291872Y-84476464D01*
X134291873Y-84476465D01*
X134410256Y-84525501D01*
X134410260Y-84525501D01*
X134410261Y-84525502D01*
X134535928Y-84550500D01*
X134668101Y-84550500D01*
X134735140Y-84570185D01*
X134755782Y-84586819D01*
X134969438Y-84800475D01*
X134975884Y-84805421D01*
X134973745Y-84808207D01*
X135010832Y-84846970D01*
X135024171Y-84915555D01*
X134998314Y-84980463D01*
X134988395Y-84991659D01*
X134894723Y-85085331D01*
X134823538Y-85191866D01*
X134823533Y-85191875D01*
X134774499Y-85310255D01*
X134774497Y-85310261D01*
X134749500Y-85435928D01*
X134749500Y-85435931D01*
X134749500Y-85564069D01*
X134749500Y-85564071D01*
X134749499Y-85564071D01*
X134774497Y-85689738D01*
X134774499Y-85689744D01*
X134823533Y-85808124D01*
X134823538Y-85808133D01*
X134894723Y-85914668D01*
X134894726Y-85914672D01*
X134985327Y-86005273D01*
X134985331Y-86005276D01*
X135091866Y-86076461D01*
X135091872Y-86076464D01*
X135091873Y-86076465D01*
X135210256Y-86125501D01*
X135210260Y-86125501D01*
X135210261Y-86125502D01*
X135335928Y-86150500D01*
X135468101Y-86150500D01*
X135535140Y-86170185D01*
X135555781Y-86186818D01*
X136769437Y-87400475D01*
X136855063Y-87449911D01*
X136950564Y-87475500D01*
X136950565Y-87475500D01*
X155393101Y-87475500D01*
X155422541Y-87484144D01*
X155452528Y-87490668D01*
X155457543Y-87494422D01*
X155460140Y-87495185D01*
X155480782Y-87511819D01*
X155597257Y-87628294D01*
X155630742Y-87689617D01*
X155625758Y-87759309D01*
X155583886Y-87815242D01*
X155518422Y-87839659D01*
X155509509Y-87839975D01*
X117857476Y-87819530D01*
X117857093Y-87819500D01*
X117847600Y-87819500D01*
X117803064Y-87819500D01*
X117796980Y-87819351D01*
X117448373Y-87802225D01*
X117436263Y-87801032D01*
X117094048Y-87750270D01*
X117082113Y-87747896D01*
X116746514Y-87663833D01*
X116734869Y-87660301D01*
X116409131Y-87543750D01*
X116397902Y-87539099D01*
X116148570Y-87421174D01*
X116085138Y-87391173D01*
X116074415Y-87385440D01*
X115777678Y-87207584D01*
X115767560Y-87200824D01*
X115489672Y-86994729D01*
X115480266Y-86987009D01*
X115404478Y-86918319D01*
X115223922Y-86754672D01*
X115215331Y-86746081D01*
X114982994Y-86489737D01*
X114975274Y-86480331D01*
X114769176Y-86202440D01*
X114762418Y-86192325D01*
X114760671Y-86189411D01*
X114584561Y-85895590D01*
X114578826Y-85884861D01*
X114430899Y-85572095D01*
X114426246Y-85560859D01*
X114309698Y-85235127D01*
X114306171Y-85223504D01*
X114226839Y-84906794D01*
X114222104Y-84887891D01*
X114219730Y-84875956D01*
X114198163Y-84730562D01*
X114168966Y-84533738D01*
X114167774Y-84521632D01*
X114150652Y-84173114D01*
X114150504Y-84167108D01*
X114150503Y-79764071D01*
X126249499Y-79764071D01*
X126274497Y-79889738D01*
X126274499Y-79889744D01*
X126323533Y-80008124D01*
X126323538Y-80008133D01*
X126394723Y-80114668D01*
X126394726Y-80114672D01*
X126485327Y-80205273D01*
X126485331Y-80205276D01*
X126591866Y-80276461D01*
X126591872Y-80276464D01*
X126591873Y-80276465D01*
X126710256Y-80325501D01*
X126710260Y-80325501D01*
X126710261Y-80325502D01*
X126835928Y-80350500D01*
X126835931Y-80350500D01*
X126964071Y-80350500D01*
X127064301Y-80330562D01*
X127089744Y-80325501D01*
X127208127Y-80276465D01*
X127314669Y-80205276D01*
X127355874Y-80164071D01*
X136149499Y-80164071D01*
X136174497Y-80289738D01*
X136174499Y-80289744D01*
X136223533Y-80408124D01*
X136223538Y-80408133D01*
X136294723Y-80514668D01*
X136294726Y-80514672D01*
X136385327Y-80605273D01*
X136385331Y-80605276D01*
X136491866Y-80676461D01*
X136491872Y-80676464D01*
X136491873Y-80676465D01*
X136610256Y-80725501D01*
X136610260Y-80725501D01*
X136610261Y-80725502D01*
X136735928Y-80750500D01*
X136735931Y-80750500D01*
X136864071Y-80750500D01*
X136948615Y-80733682D01*
X136989744Y-80725501D01*
X137108127Y-80676465D01*
X137214669Y-80605276D01*
X137242938Y-80577007D01*
X137308127Y-80511819D01*
X137369450Y-80478334D01*
X137395808Y-80475500D01*
X137849435Y-80475500D01*
X137849436Y-80475500D01*
X137897186Y-80462705D01*
X137944938Y-80449910D01*
X138030562Y-80400475D01*
X138100475Y-80330562D01*
X138174973Y-80256063D01*
X138236292Y-80222581D01*
X138305984Y-80227565D01*
X138361918Y-80269436D01*
X138377212Y-80296294D01*
X138423533Y-80408124D01*
X138423538Y-80408133D01*
X138494723Y-80514668D01*
X138494726Y-80514672D01*
X138585327Y-80605273D01*
X138585331Y-80605276D01*
X138691866Y-80676461D01*
X138691872Y-80676464D01*
X138691873Y-80676465D01*
X138810256Y-80725501D01*
X138810260Y-80725501D01*
X138810261Y-80725502D01*
X138935928Y-80750500D01*
X138935931Y-80750500D01*
X139064071Y-80750500D01*
X139148615Y-80733682D01*
X139189744Y-80725501D01*
X139308127Y-80676465D01*
X139414669Y-80605276D01*
X139442938Y-80577007D01*
X139508127Y-80511819D01*
X139569450Y-80478334D01*
X139595808Y-80475500D01*
X141449435Y-80475500D01*
X141449436Y-80475500D01*
X141497186Y-80462705D01*
X141544938Y-80449910D01*
X141630562Y-80400475D01*
X141700475Y-80330562D01*
X141847609Y-80183428D01*
X164200000Y-80183428D01*
X164200000Y-80356571D01*
X164227085Y-80527584D01*
X164280591Y-80692257D01*
X164359198Y-80846528D01*
X164423219Y-80934646D01*
X164423220Y-80934647D01*
X164856329Y-80501538D01*
X164899901Y-80577007D01*
X164992993Y-80670099D01*
X165068460Y-80713670D01*
X164635351Y-81146778D01*
X164635352Y-81146780D01*
X164723471Y-81210801D01*
X164877742Y-81289408D01*
X165042415Y-81342914D01*
X165213429Y-81370000D01*
X165386571Y-81370000D01*
X165557584Y-81342914D01*
X165722257Y-81289408D01*
X165876525Y-81210803D01*
X165964646Y-81146778D01*
X165964647Y-81146778D01*
X165531539Y-80713670D01*
X165607007Y-80670099D01*
X165700099Y-80577007D01*
X165743670Y-80501538D01*
X166176778Y-80934647D01*
X166176778Y-80934646D01*
X166240803Y-80846525D01*
X166319408Y-80692257D01*
X166372914Y-80527584D01*
X166400000Y-80356571D01*
X166400000Y-80183428D01*
X166372914Y-80012415D01*
X166319408Y-79847742D01*
X166240801Y-79693471D01*
X166176780Y-79605352D01*
X166176778Y-79605351D01*
X165743670Y-80038460D01*
X165700099Y-79962993D01*
X165607007Y-79869901D01*
X165531538Y-79826329D01*
X165964647Y-79393220D01*
X165964646Y-79393219D01*
X165876528Y-79329198D01*
X165722257Y-79250591D01*
X165557584Y-79197085D01*
X165386571Y-79170000D01*
X165213429Y-79170000D01*
X165042415Y-79197085D01*
X164877742Y-79250591D01*
X164723478Y-79329194D01*
X164635352Y-79393220D01*
X165068461Y-79826329D01*
X164992993Y-79869901D01*
X164899901Y-79962993D01*
X164856329Y-80038461D01*
X164423220Y-79605352D01*
X164359194Y-79693478D01*
X164280591Y-79847742D01*
X164227085Y-80012415D01*
X164200000Y-80183428D01*
X141847609Y-80183428D01*
X142100474Y-79930563D01*
X142100475Y-79930562D01*
X142149910Y-79844938D01*
X142175215Y-79750500D01*
X142175500Y-79749436D01*
X142175500Y-79650564D01*
X142175500Y-79577176D01*
X142195185Y-79510137D01*
X142207843Y-79494429D01*
X142207781Y-79494378D01*
X142211643Y-79489671D01*
X142211646Y-79489668D01*
X142282835Y-79383126D01*
X142331871Y-79264743D01*
X142343646Y-79205550D01*
X142356870Y-79139070D01*
X142356870Y-79010927D01*
X142331872Y-78885260D01*
X142331871Y-78885259D01*
X142331871Y-78885255D01*
X142331869Y-78885250D01*
X142316006Y-78846952D01*
X142308537Y-78777482D01*
X142339813Y-78715003D01*
X142399902Y-78679352D01*
X142430567Y-78675500D01*
X147249435Y-78675500D01*
X147249436Y-78675500D01*
X147294086Y-78663535D01*
X147306051Y-78660330D01*
X147323195Y-78655735D01*
X147344938Y-78649910D01*
X147430562Y-78600475D01*
X147500475Y-78530562D01*
X150012819Y-76018218D01*
X150074142Y-75984733D01*
X150143834Y-75989717D01*
X150199767Y-76031589D01*
X150224184Y-76097053D01*
X150224500Y-76105899D01*
X150224500Y-78330118D01*
X150204815Y-78397157D01*
X150152011Y-78442912D01*
X150124692Y-78451735D01*
X150010261Y-78474497D01*
X150010255Y-78474499D01*
X149891875Y-78523533D01*
X149891866Y-78523538D01*
X149785331Y-78594723D01*
X149785327Y-78594726D01*
X149694726Y-78685327D01*
X149694723Y-78685331D01*
X149623538Y-78791866D01*
X149623533Y-78791875D01*
X149574499Y-78910255D01*
X149574497Y-78910261D01*
X149549500Y-79035928D01*
X149549500Y-79035931D01*
X149549500Y-79164069D01*
X149549500Y-79164071D01*
X149549499Y-79164071D01*
X149574497Y-79289738D01*
X149574499Y-79289744D01*
X149623533Y-79408124D01*
X149623538Y-79408133D01*
X149694723Y-79514668D01*
X149694726Y-79514672D01*
X149785327Y-79605273D01*
X149785331Y-79605276D01*
X149891866Y-79676461D01*
X149891872Y-79676464D01*
X149891873Y-79676465D01*
X150010256Y-79725501D01*
X150010260Y-79725501D01*
X150010261Y-79725502D01*
X150135928Y-79750500D01*
X150135931Y-79750500D01*
X150264071Y-79750500D01*
X150348615Y-79733682D01*
X150389744Y-79725501D01*
X150508127Y-79676465D01*
X150614669Y-79605276D01*
X150705276Y-79514669D01*
X150776465Y-79408127D01*
X150825501Y-79289744D01*
X150847492Y-79179192D01*
X150850500Y-79164071D01*
X150850500Y-79031899D01*
X150870185Y-78964860D01*
X150886822Y-78944215D01*
X150900466Y-78930571D01*
X150900466Y-78930570D01*
X150900474Y-78930563D01*
X150900475Y-78930562D01*
X150949910Y-78844938D01*
X150970828Y-78766872D01*
X150975500Y-78749436D01*
X150975500Y-78650564D01*
X150975500Y-76855321D01*
X164199500Y-76855321D01*
X164199500Y-78604678D01*
X164214032Y-78677735D01*
X164214033Y-78677739D01*
X164214034Y-78677740D01*
X164269399Y-78760601D01*
X164316202Y-78791873D01*
X164352260Y-78815966D01*
X164352264Y-78815967D01*
X164425321Y-78830499D01*
X164425324Y-78830500D01*
X164425326Y-78830500D01*
X166174676Y-78830500D01*
X166174677Y-78830499D01*
X166247740Y-78815966D01*
X166330601Y-78760601D01*
X166385966Y-78677740D01*
X166400500Y-78604674D01*
X166400500Y-76855326D01*
X166400500Y-76855323D01*
X166400499Y-76855321D01*
X166385967Y-76782264D01*
X166385966Y-76782260D01*
X166330601Y-76699399D01*
X166247740Y-76644034D01*
X166247739Y-76644033D01*
X166247735Y-76644032D01*
X166174677Y-76629500D01*
X166174674Y-76629500D01*
X164425326Y-76629500D01*
X164425323Y-76629500D01*
X164352264Y-76644032D01*
X164352260Y-76644033D01*
X164269399Y-76699399D01*
X164214033Y-76782260D01*
X164214032Y-76782264D01*
X164199500Y-76855321D01*
X150975500Y-76855321D01*
X150975500Y-70695807D01*
X150995185Y-70628768D01*
X151011819Y-70608125D01*
X151014665Y-70605278D01*
X151014669Y-70605276D01*
X151105276Y-70514669D01*
X151176465Y-70408127D01*
X151225501Y-70289744D01*
X151238701Y-70223386D01*
X151250500Y-70164071D01*
X151250500Y-70035928D01*
X151225502Y-69910261D01*
X151225501Y-69910260D01*
X151225501Y-69910256D01*
X151176465Y-69791873D01*
X151176464Y-69791872D01*
X151176461Y-69791866D01*
X151105276Y-69685331D01*
X151105273Y-69685327D01*
X151014672Y-69594726D01*
X151014668Y-69594723D01*
X150908133Y-69523538D01*
X150908124Y-69523533D01*
X150789744Y-69474499D01*
X150789738Y-69474497D01*
X150664071Y-69449500D01*
X150664069Y-69449500D01*
X150535931Y-69449500D01*
X150535929Y-69449500D01*
X150410261Y-69474497D01*
X150410255Y-69474499D01*
X150346953Y-69500720D01*
X150277483Y-69508189D01*
X150215004Y-69476914D01*
X150179352Y-69416825D01*
X150175500Y-69386159D01*
X150175500Y-68706899D01*
X150184144Y-68677458D01*
X150190668Y-68647472D01*
X150194422Y-68642456D01*
X150195185Y-68639860D01*
X150211819Y-68619218D01*
X150244218Y-68586819D01*
X150305541Y-68553334D01*
X150331899Y-68550500D01*
X150464071Y-68550500D01*
X150548615Y-68533682D01*
X150589744Y-68525501D01*
X150708127Y-68476465D01*
X150814669Y-68405276D01*
X150905276Y-68314669D01*
X150976465Y-68208127D01*
X151025501Y-68089744D01*
X151033682Y-68048615D01*
X151050500Y-67964071D01*
X151050500Y-67835928D01*
X151025502Y-67710261D01*
X151025501Y-67710260D01*
X151025501Y-67710256D01*
X150976465Y-67591873D01*
X150976464Y-67591872D01*
X150976461Y-67591866D01*
X150905276Y-67485331D01*
X150905273Y-67485327D01*
X150814672Y-67394726D01*
X150814668Y-67394723D01*
X150703062Y-67320150D01*
X150704533Y-67317947D01*
X150662880Y-67277011D01*
X150647436Y-67208869D01*
X150671283Y-67143195D01*
X150702303Y-67113538D01*
X150714669Y-67105276D01*
X150805276Y-67014669D01*
X150876465Y-66908127D01*
X150925501Y-66789744D01*
X150941310Y-66710271D01*
X150950500Y-66664071D01*
X150950500Y-66535928D01*
X150925502Y-66410261D01*
X150925501Y-66410260D01*
X150925501Y-66410256D01*
X150876465Y-66291873D01*
X150876464Y-66291872D01*
X150876461Y-66291866D01*
X150805276Y-66185331D01*
X150805273Y-66185327D01*
X150714672Y-66094726D01*
X150714668Y-66094723D01*
X150608133Y-66023538D01*
X150608124Y-66023533D01*
X150489744Y-65974499D01*
X150489738Y-65974497D01*
X150364071Y-65949500D01*
X150364069Y-65949500D01*
X150235931Y-65949500D01*
X150235929Y-65949500D01*
X150110261Y-65974497D01*
X150110255Y-65974499D01*
X149991875Y-66023533D01*
X149991866Y-66023538D01*
X149885331Y-66094723D01*
X149885327Y-66094726D01*
X149794726Y-66185327D01*
X149794723Y-66185331D01*
X149723538Y-66291866D01*
X149723533Y-66291875D01*
X149674499Y-66410255D01*
X149674497Y-66410261D01*
X149649500Y-66535928D01*
X149649500Y-66668099D01*
X149629815Y-66735138D01*
X149613181Y-66755780D01*
X149068438Y-67300525D01*
X148998526Y-67370436D01*
X148949091Y-67456059D01*
X148949091Y-67456060D01*
X148949090Y-67456062D01*
X148923500Y-67551565D01*
X148923500Y-67551567D01*
X148923500Y-75285580D01*
X148903815Y-75352619D01*
X148887181Y-75373261D01*
X146873262Y-77387181D01*
X146811939Y-77420666D01*
X146785581Y-77423500D01*
X142344234Y-77423500D01*
X142277195Y-77403815D01*
X142231440Y-77351011D01*
X142225573Y-77335495D01*
X142225503Y-77335266D01*
X142225501Y-77335256D01*
X142176465Y-77216873D01*
X142176464Y-77216872D01*
X142176461Y-77216866D01*
X142105276Y-77110331D01*
X142105273Y-77110327D01*
X142014672Y-77019726D01*
X142014668Y-77019723D01*
X141908133Y-76948538D01*
X141908124Y-76948533D01*
X141789744Y-76899499D01*
X141789738Y-76899497D01*
X141664071Y-76874500D01*
X141664069Y-76874500D01*
X141535931Y-76874500D01*
X141535929Y-76874500D01*
X141410261Y-76899497D01*
X141410255Y-76899499D01*
X141291875Y-76948533D01*
X141291866Y-76948538D01*
X141185331Y-77019723D01*
X141185327Y-77019726D01*
X141094726Y-77110327D01*
X141094723Y-77110331D01*
X141023538Y-77216866D01*
X141023533Y-77216875D01*
X140974499Y-77335255D01*
X140974497Y-77335261D01*
X140949500Y-77460928D01*
X140949500Y-77460931D01*
X140949500Y-77589069D01*
X140949500Y-77589071D01*
X140949499Y-77589071D01*
X140974497Y-77714738D01*
X140974499Y-77714744D01*
X140990365Y-77753047D01*
X140997834Y-77822516D01*
X140966559Y-77884996D01*
X140906470Y-77920648D01*
X140875804Y-77924500D01*
X139550564Y-77924500D01*
X139502812Y-77937295D01*
X139502811Y-77937294D01*
X139455063Y-77950089D01*
X139455062Y-77950089D01*
X139394875Y-77984838D01*
X139369438Y-77999525D01*
X139369437Y-77999526D01*
X139258708Y-78110255D01*
X139144823Y-78224139D01*
X139083500Y-78257623D01*
X139013808Y-78252639D01*
X138957875Y-78210767D01*
X138935525Y-78160648D01*
X138925502Y-78110263D01*
X138925502Y-78110261D01*
X138925501Y-78110256D01*
X138887574Y-78018692D01*
X138876466Y-77991875D01*
X138876458Y-77991861D01*
X138821398Y-77909457D01*
X138800520Y-77842780D01*
X138800500Y-77840567D01*
X138800500Y-74258676D01*
X138820185Y-74191637D01*
X138836819Y-74170995D01*
X139675547Y-73332267D01*
X141029040Y-71978773D01*
X141090361Y-71945290D01*
X141092528Y-71944839D01*
X141093004Y-71944744D01*
X141189744Y-71925501D01*
X141308127Y-71876465D01*
X141414669Y-71805276D01*
X141505276Y-71714669D01*
X141576465Y-71608127D01*
X141625501Y-71489744D01*
X141650500Y-71364069D01*
X141650500Y-71235931D01*
X141650500Y-71235928D01*
X141625502Y-71110261D01*
X141625501Y-71110260D01*
X141625501Y-71110256D01*
X141576465Y-70991873D01*
X141576464Y-70991872D01*
X141576461Y-70991866D01*
X141505276Y-70885331D01*
X141505273Y-70885327D01*
X141414672Y-70794726D01*
X141414668Y-70794723D01*
X141308133Y-70723538D01*
X141308124Y-70723533D01*
X141189744Y-70674499D01*
X141189738Y-70674497D01*
X141064071Y-70649500D01*
X141064069Y-70649500D01*
X140935931Y-70649500D01*
X140935929Y-70649500D01*
X140810261Y-70674497D01*
X140810255Y-70674499D01*
X140691875Y-70723533D01*
X140691866Y-70723538D01*
X140585331Y-70794723D01*
X140585327Y-70794726D01*
X140494726Y-70885327D01*
X140494723Y-70885331D01*
X140423538Y-70991866D01*
X140423533Y-70991875D01*
X140374499Y-71110255D01*
X140374497Y-71110260D01*
X140355160Y-71207473D01*
X140322774Y-71269383D01*
X140321224Y-71270961D01*
X138259917Y-73332267D01*
X138198594Y-73365752D01*
X138148045Y-73366203D01*
X138064073Y-73349500D01*
X138064069Y-73349500D01*
X137935931Y-73349500D01*
X137935929Y-73349500D01*
X137810261Y-73374497D01*
X137810255Y-73374499D01*
X137691875Y-73423533D01*
X137691866Y-73423538D01*
X137585331Y-73494723D01*
X137585327Y-73494726D01*
X137494726Y-73585327D01*
X137494723Y-73585331D01*
X137423538Y-73691866D01*
X137423533Y-73691875D01*
X137374499Y-73810255D01*
X137374497Y-73810261D01*
X137349500Y-73935928D01*
X137349500Y-73935931D01*
X137349500Y-74064069D01*
X137349500Y-74064071D01*
X137349499Y-74064071D01*
X137374497Y-74189738D01*
X137374499Y-74189744D01*
X137423533Y-74308124D01*
X137423538Y-74308133D01*
X137494723Y-74414668D01*
X137494726Y-74414672D01*
X137585327Y-74505273D01*
X137585335Y-74505279D01*
X137691862Y-74576458D01*
X137691866Y-74576460D01*
X137691873Y-74576465D01*
X137722952Y-74589338D01*
X137777355Y-74633178D01*
X137799421Y-74699472D01*
X137799500Y-74703899D01*
X137799500Y-77840567D01*
X137779815Y-77907606D01*
X137778602Y-77909457D01*
X137723541Y-77991861D01*
X137723533Y-77991875D01*
X137674499Y-78110255D01*
X137674497Y-78110261D01*
X137649500Y-78235928D01*
X137649500Y-78235931D01*
X137649500Y-78364069D01*
X137649500Y-78364071D01*
X137649499Y-78364071D01*
X137674497Y-78489738D01*
X137674499Y-78489744D01*
X137723533Y-78608124D01*
X137723538Y-78608133D01*
X137794723Y-78714668D01*
X137794726Y-78714672D01*
X137885327Y-78805273D01*
X137885331Y-78805276D01*
X137991866Y-78876461D01*
X137991872Y-78876464D01*
X137991873Y-78876465D01*
X138110256Y-78925501D01*
X138147964Y-78933001D01*
X138160648Y-78935525D01*
X138222559Y-78967910D01*
X138257133Y-79028625D01*
X138253394Y-79098395D01*
X138224138Y-79144823D01*
X137680782Y-79688181D01*
X137653854Y-79702884D01*
X137628036Y-79719477D01*
X137621835Y-79720368D01*
X137619459Y-79721666D01*
X137593101Y-79724500D01*
X137395808Y-79724500D01*
X137328769Y-79704815D01*
X137308127Y-79688181D01*
X137214672Y-79594726D01*
X137214668Y-79594723D01*
X137108133Y-79523538D01*
X137108124Y-79523533D01*
X136989744Y-79474499D01*
X136989738Y-79474497D01*
X136864071Y-79449500D01*
X136864069Y-79449500D01*
X136735931Y-79449500D01*
X136735929Y-79449500D01*
X136610261Y-79474497D01*
X136610255Y-79474499D01*
X136491875Y-79523533D01*
X136491866Y-79523538D01*
X136385331Y-79594723D01*
X136385327Y-79594726D01*
X136294726Y-79685327D01*
X136294723Y-79685331D01*
X136223538Y-79791866D01*
X136223533Y-79791875D01*
X136174499Y-79910255D01*
X136174497Y-79910261D01*
X136149500Y-80035928D01*
X136149500Y-80035931D01*
X136149500Y-80164069D01*
X136149500Y-80164071D01*
X136149499Y-80164071D01*
X127355874Y-80164071D01*
X127405276Y-80114669D01*
X127476465Y-80008127D01*
X127525501Y-79889744D01*
X127544969Y-79791875D01*
X127550500Y-79764071D01*
X127550500Y-79635928D01*
X127525502Y-79510261D01*
X127525501Y-79510260D01*
X127525501Y-79510256D01*
X127483200Y-79408133D01*
X127476466Y-79391875D01*
X127476461Y-79391866D01*
X127405276Y-79285331D01*
X127405273Y-79285327D01*
X127386819Y-79266873D01*
X127353334Y-79205550D01*
X127350500Y-79179192D01*
X127350500Y-70737965D01*
X127370185Y-70670926D01*
X127386819Y-70650284D01*
X128250284Y-69786819D01*
X128311607Y-69753334D01*
X128337965Y-69750500D01*
X128364071Y-69750500D01*
X128448615Y-69733682D01*
X128489744Y-69725501D01*
X128608127Y-69676465D01*
X128714669Y-69605276D01*
X128715390Y-69604555D01*
X128733127Y-69586819D01*
X128794450Y-69553334D01*
X128820808Y-69550500D01*
X135259307Y-69550500D01*
X135259309Y-69550500D01*
X135352610Y-69525500D01*
X135373887Y-69519799D01*
X135476614Y-69460489D01*
X136350284Y-68586819D01*
X136411607Y-68553334D01*
X136437965Y-68550500D01*
X136464071Y-68550500D01*
X136548615Y-68533682D01*
X136589744Y-68525501D01*
X136708127Y-68476465D01*
X136814669Y-68405276D01*
X136905276Y-68314669D01*
X136976465Y-68208127D01*
X137025501Y-68089744D01*
X137033682Y-68048615D01*
X137050500Y-67964071D01*
X137050500Y-67835928D01*
X137025502Y-67710261D01*
X137025501Y-67710260D01*
X137025501Y-67710256D01*
X136976465Y-67591873D01*
X136976464Y-67591872D01*
X136976461Y-67591866D01*
X136905276Y-67485331D01*
X136905273Y-67485327D01*
X136814672Y-67394726D01*
X136814668Y-67394723D01*
X136708133Y-67323538D01*
X136708124Y-67323533D01*
X136589744Y-67274499D01*
X136589738Y-67274497D01*
X136464071Y-67249500D01*
X136464069Y-67249500D01*
X136335931Y-67249500D01*
X136335929Y-67249500D01*
X136210261Y-67274497D01*
X136210255Y-67274499D01*
X136091875Y-67323533D01*
X136091866Y-67323538D01*
X135985331Y-67394723D01*
X135985327Y-67394726D01*
X135894726Y-67485327D01*
X135894723Y-67485331D01*
X135823538Y-67591866D01*
X135823533Y-67591875D01*
X135774499Y-67710255D01*
X135774497Y-67710261D01*
X135749500Y-67835928D01*
X135749500Y-67862035D01*
X135729815Y-67929074D01*
X135713181Y-67949716D01*
X135049716Y-68613181D01*
X134988393Y-68646666D01*
X134962035Y-68649500D01*
X128820808Y-68649500D01*
X128753769Y-68629815D01*
X128733127Y-68613181D01*
X128714672Y-68594726D01*
X128714668Y-68594723D01*
X128608133Y-68523538D01*
X128608124Y-68523533D01*
X128489744Y-68474499D01*
X128489738Y-68474497D01*
X128364071Y-68449500D01*
X128364069Y-68449500D01*
X128235931Y-68449500D01*
X128235929Y-68449500D01*
X128110261Y-68474497D01*
X128110255Y-68474499D01*
X127991875Y-68523533D01*
X127991866Y-68523538D01*
X127885331Y-68594723D01*
X127885327Y-68594726D01*
X127794726Y-68685327D01*
X127794723Y-68685331D01*
X127723538Y-68791866D01*
X127723533Y-68791875D01*
X127674499Y-68910255D01*
X127674497Y-68910261D01*
X127649500Y-69035928D01*
X127649500Y-69062035D01*
X127629815Y-69129074D01*
X127613181Y-69149716D01*
X126539513Y-70223383D01*
X126539509Y-70223389D01*
X126480201Y-70326112D01*
X126480200Y-70326117D01*
X126449500Y-70440691D01*
X126449500Y-79179192D01*
X126429815Y-79246231D01*
X126413181Y-79266873D01*
X126394726Y-79285327D01*
X126394723Y-79285331D01*
X126323538Y-79391866D01*
X126323533Y-79391875D01*
X126274499Y-79510255D01*
X126274497Y-79510261D01*
X126249500Y-79635928D01*
X126249500Y-79635931D01*
X126249500Y-79764069D01*
X126249500Y-79764071D01*
X126249499Y-79764071D01*
X114150503Y-79764071D01*
X114150500Y-67753591D01*
X130458540Y-67753591D01*
X130492112Y-67776023D01*
X130610401Y-67825020D01*
X130610409Y-67825022D01*
X130735976Y-67849999D01*
X130735980Y-67850000D01*
X130864020Y-67850000D01*
X130864023Y-67849999D01*
X130989590Y-67825022D01*
X130989594Y-67825021D01*
X131107891Y-67776020D01*
X131107898Y-67776016D01*
X131141458Y-67753591D01*
X131858540Y-67753591D01*
X131892112Y-67776023D01*
X132010401Y-67825020D01*
X132010409Y-67825022D01*
X132135976Y-67849999D01*
X132135980Y-67850000D01*
X132264020Y-67850000D01*
X132264023Y-67849999D01*
X132389590Y-67825022D01*
X132389594Y-67825021D01*
X132507891Y-67776020D01*
X132507898Y-67776016D01*
X132541458Y-67753591D01*
X132541459Y-67753590D01*
X132200001Y-67412132D01*
X132200000Y-67412132D01*
X131858540Y-67753591D01*
X131141458Y-67753591D01*
X131141459Y-67753590D01*
X130800001Y-67412132D01*
X130800000Y-67412132D01*
X130458540Y-67753591D01*
X114150500Y-67753591D01*
X114150500Y-67135976D01*
X130150000Y-67135976D01*
X130150000Y-67264023D01*
X130174977Y-67389590D01*
X130174979Y-67389598D01*
X130223976Y-67507886D01*
X130223981Y-67507896D01*
X130246407Y-67541458D01*
X130246408Y-67541458D01*
X130587868Y-67200000D01*
X130587868Y-67199999D01*
X130553059Y-67165190D01*
X130625000Y-67165190D01*
X130625000Y-67234810D01*
X130651643Y-67299129D01*
X130700871Y-67348357D01*
X130765190Y-67375000D01*
X130834810Y-67375000D01*
X130899129Y-67348357D01*
X130948357Y-67299129D01*
X130975000Y-67234810D01*
X130975000Y-67199999D01*
X131012132Y-67199999D01*
X131012132Y-67200001D01*
X131353590Y-67541459D01*
X131353591Y-67541458D01*
X131376016Y-67507898D01*
X131376022Y-67507887D01*
X131385437Y-67485158D01*
X131429277Y-67430753D01*
X131495570Y-67408687D01*
X131563270Y-67425965D01*
X131610882Y-67477101D01*
X131614559Y-67485153D01*
X131623975Y-67507884D01*
X131623981Y-67507896D01*
X131646407Y-67541458D01*
X131646408Y-67541458D01*
X131987868Y-67200000D01*
X131987868Y-67199999D01*
X131953059Y-67165190D01*
X132025000Y-67165190D01*
X132025000Y-67234810D01*
X132051643Y-67299129D01*
X132100871Y-67348357D01*
X132165190Y-67375000D01*
X132234810Y-67375000D01*
X132299129Y-67348357D01*
X132348357Y-67299129D01*
X132375000Y-67234810D01*
X132375000Y-67199999D01*
X132412132Y-67199999D01*
X132412132Y-67200001D01*
X132753590Y-67541459D01*
X132753591Y-67541458D01*
X132776016Y-67507898D01*
X132776020Y-67507891D01*
X132825021Y-67389594D01*
X132825022Y-67389590D01*
X132849999Y-67264023D01*
X132850000Y-67264020D01*
X132850000Y-67135980D01*
X132849999Y-67135976D01*
X132825022Y-67010409D01*
X132825020Y-67010401D01*
X132776023Y-66892112D01*
X132753591Y-66858540D01*
X132412132Y-67199999D01*
X132375000Y-67199999D01*
X132375000Y-67165190D01*
X132348357Y-67100871D01*
X132299129Y-67051643D01*
X132234810Y-67025000D01*
X132165190Y-67025000D01*
X132100871Y-67051643D01*
X132051643Y-67100871D01*
X132025000Y-67165190D01*
X131953059Y-67165190D01*
X131646408Y-66858539D01*
X131646407Y-66858540D01*
X131623977Y-66892109D01*
X131623975Y-66892113D01*
X131614560Y-66914844D01*
X131570719Y-66969247D01*
X131504424Y-66991311D01*
X131436725Y-66974031D01*
X131389115Y-66922893D01*
X131385440Y-66914844D01*
X131376025Y-66892116D01*
X131376023Y-66892112D01*
X131353591Y-66858540D01*
X131012132Y-67199999D01*
X130975000Y-67199999D01*
X130975000Y-67165190D01*
X130948357Y-67100871D01*
X130899129Y-67051643D01*
X130834810Y-67025000D01*
X130765190Y-67025000D01*
X130700871Y-67051643D01*
X130651643Y-67100871D01*
X130625000Y-67165190D01*
X130553059Y-67165190D01*
X130246408Y-66858539D01*
X130246407Y-66858540D01*
X130223978Y-66892109D01*
X130174979Y-67010401D01*
X130174977Y-67010409D01*
X130150000Y-67135976D01*
X114150500Y-67135976D01*
X114150500Y-66646408D01*
X130458539Y-66646408D01*
X130800000Y-66987868D01*
X130800001Y-66987868D01*
X131141458Y-66646408D01*
X131858539Y-66646408D01*
X132200000Y-66987868D01*
X132200001Y-66987868D01*
X132541458Y-66646408D01*
X132538085Y-66612154D01*
X132538085Y-66587846D01*
X132541458Y-66553589D01*
X132200001Y-66212132D01*
X132200000Y-66212132D01*
X131858540Y-66553590D01*
X131861914Y-66587846D01*
X131861914Y-66612155D01*
X131858539Y-66646408D01*
X131141458Y-66646408D01*
X131138085Y-66612154D01*
X131138085Y-66587846D01*
X131141458Y-66553589D01*
X130800001Y-66212132D01*
X130800000Y-66212132D01*
X130458540Y-66553590D01*
X130461914Y-66587846D01*
X130461914Y-66612155D01*
X130458539Y-66646408D01*
X114150500Y-66646408D01*
X114150500Y-65935976D01*
X130150000Y-65935976D01*
X130150000Y-66064023D01*
X130174977Y-66189590D01*
X130174979Y-66189598D01*
X130223976Y-66307886D01*
X130223981Y-66307896D01*
X130246407Y-66341458D01*
X130246408Y-66341458D01*
X130587868Y-66000000D01*
X130587868Y-65999999D01*
X130553059Y-65965190D01*
X130625000Y-65965190D01*
X130625000Y-66034810D01*
X130651643Y-66099129D01*
X130700871Y-66148357D01*
X130765190Y-66175000D01*
X130834810Y-66175000D01*
X130899129Y-66148357D01*
X130948357Y-66099129D01*
X130975000Y-66034810D01*
X130975000Y-65999999D01*
X131012132Y-65999999D01*
X131012132Y-66000001D01*
X131353590Y-66341459D01*
X131353591Y-66341458D01*
X131376016Y-66307898D01*
X131376022Y-66307887D01*
X131385437Y-66285158D01*
X131429277Y-66230753D01*
X131495570Y-66208687D01*
X131563270Y-66225965D01*
X131610882Y-66277101D01*
X131614559Y-66285153D01*
X131623975Y-66307884D01*
X131623981Y-66307896D01*
X131646407Y-66341458D01*
X131646408Y-66341458D01*
X131987868Y-66000000D01*
X131987868Y-65999999D01*
X131953059Y-65965190D01*
X132025000Y-65965190D01*
X132025000Y-66034810D01*
X132051643Y-66099129D01*
X132100871Y-66148357D01*
X132165190Y-66175000D01*
X132234810Y-66175000D01*
X132299129Y-66148357D01*
X132348357Y-66099129D01*
X132375000Y-66034810D01*
X132375000Y-65999999D01*
X132412132Y-65999999D01*
X132412132Y-66000001D01*
X132753590Y-66341459D01*
X132753591Y-66341458D01*
X132776016Y-66307898D01*
X132776020Y-66307891D01*
X132825021Y-66189594D01*
X132825022Y-66189590D01*
X132849999Y-66064023D01*
X132850000Y-66064020D01*
X132850000Y-65935980D01*
X132849999Y-65935976D01*
X132825022Y-65810409D01*
X132825020Y-65810401D01*
X132776023Y-65692112D01*
X132753591Y-65658540D01*
X132412132Y-65999999D01*
X132375000Y-65999999D01*
X132375000Y-65965190D01*
X132348357Y-65900871D01*
X132299129Y-65851643D01*
X132234810Y-65825000D01*
X132165190Y-65825000D01*
X132100871Y-65851643D01*
X132051643Y-65900871D01*
X132025000Y-65965190D01*
X131953059Y-65965190D01*
X131646408Y-65658539D01*
X131646407Y-65658540D01*
X131623977Y-65692109D01*
X131623975Y-65692113D01*
X131614560Y-65714844D01*
X131570719Y-65769247D01*
X131504424Y-65791311D01*
X131436725Y-65774031D01*
X131389115Y-65722893D01*
X131385440Y-65714844D01*
X131376025Y-65692116D01*
X131376023Y-65692112D01*
X131353591Y-65658540D01*
X131012132Y-65999999D01*
X130975000Y-65999999D01*
X130975000Y-65965190D01*
X130948357Y-65900871D01*
X130899129Y-65851643D01*
X130834810Y-65825000D01*
X130765190Y-65825000D01*
X130700871Y-65851643D01*
X130651643Y-65900871D01*
X130625000Y-65965190D01*
X130553059Y-65965190D01*
X130246408Y-65658539D01*
X130246407Y-65658540D01*
X130223978Y-65692109D01*
X130174979Y-65810401D01*
X130174977Y-65810409D01*
X130150000Y-65935976D01*
X114150500Y-65935976D01*
X114150500Y-65446408D01*
X130458539Y-65446408D01*
X130800000Y-65787868D01*
X130800001Y-65787868D01*
X131141458Y-65446408D01*
X131858539Y-65446408D01*
X132200000Y-65787868D01*
X132200001Y-65787868D01*
X132541458Y-65446408D01*
X132538085Y-65412154D01*
X132538085Y-65387846D01*
X132541458Y-65353589D01*
X132200001Y-65012132D01*
X132200000Y-65012132D01*
X131858540Y-65353590D01*
X131861914Y-65387846D01*
X131861914Y-65412155D01*
X131858539Y-65446408D01*
X131141458Y-65446408D01*
X131138085Y-65412154D01*
X131138085Y-65387846D01*
X131141458Y-65353589D01*
X130800001Y-65012132D01*
X130800000Y-65012132D01*
X130458540Y-65353590D01*
X130461914Y-65387846D01*
X130461914Y-65412155D01*
X130458539Y-65446408D01*
X114150500Y-65446408D01*
X114150500Y-64735976D01*
X130150000Y-64735976D01*
X130150000Y-64864023D01*
X130174977Y-64989590D01*
X130174979Y-64989598D01*
X130223976Y-65107886D01*
X130223981Y-65107896D01*
X130246407Y-65141458D01*
X130246408Y-65141458D01*
X130587868Y-64800000D01*
X130587868Y-64799999D01*
X130553059Y-64765190D01*
X130625000Y-64765190D01*
X130625000Y-64834810D01*
X130651643Y-64899129D01*
X130700871Y-64948357D01*
X130765190Y-64975000D01*
X130834810Y-64975000D01*
X130899129Y-64948357D01*
X130948357Y-64899129D01*
X130975000Y-64834810D01*
X130975000Y-64799999D01*
X131012132Y-64799999D01*
X131012132Y-64800001D01*
X131353590Y-65141459D01*
X131353591Y-65141458D01*
X131376016Y-65107898D01*
X131376022Y-65107887D01*
X131385437Y-65085158D01*
X131429277Y-65030753D01*
X131495570Y-65008687D01*
X131563270Y-65025965D01*
X131610882Y-65077101D01*
X131614559Y-65085153D01*
X131623975Y-65107884D01*
X131623981Y-65107896D01*
X131646407Y-65141458D01*
X131646408Y-65141458D01*
X131987868Y-64800000D01*
X131987868Y-64799999D01*
X131953059Y-64765190D01*
X132025000Y-64765190D01*
X132025000Y-64834810D01*
X132051643Y-64899129D01*
X132100871Y-64948357D01*
X132165190Y-64975000D01*
X132234810Y-64975000D01*
X132299129Y-64948357D01*
X132348357Y-64899129D01*
X132375000Y-64834810D01*
X132375000Y-64799999D01*
X132412132Y-64799999D01*
X132412132Y-64800001D01*
X132753590Y-65141459D01*
X132753591Y-65141458D01*
X132776016Y-65107898D01*
X132776020Y-65107891D01*
X132825021Y-64989594D01*
X132825022Y-64989590D01*
X132849999Y-64864023D01*
X132850000Y-64864020D01*
X132850000Y-64735980D01*
X132849999Y-64735976D01*
X132825022Y-64610409D01*
X132825020Y-64610401D01*
X132776023Y-64492112D01*
X132753591Y-64458540D01*
X132412132Y-64799999D01*
X132375000Y-64799999D01*
X132375000Y-64765190D01*
X132348357Y-64700871D01*
X132299129Y-64651643D01*
X132234810Y-64625000D01*
X132165190Y-64625000D01*
X132100871Y-64651643D01*
X132051643Y-64700871D01*
X132025000Y-64765190D01*
X131953059Y-64765190D01*
X131646408Y-64458539D01*
X131646407Y-64458540D01*
X131623977Y-64492109D01*
X131623975Y-64492113D01*
X131614560Y-64514844D01*
X131570719Y-64569247D01*
X131504424Y-64591311D01*
X131436725Y-64574031D01*
X131389115Y-64522893D01*
X131385440Y-64514844D01*
X131376025Y-64492116D01*
X131376023Y-64492112D01*
X131353591Y-64458540D01*
X131012132Y-64799999D01*
X130975000Y-64799999D01*
X130975000Y-64765190D01*
X130948357Y-64700871D01*
X130899129Y-64651643D01*
X130834810Y-64625000D01*
X130765190Y-64625000D01*
X130700871Y-64651643D01*
X130651643Y-64700871D01*
X130625000Y-64765190D01*
X130553059Y-64765190D01*
X130246408Y-64458539D01*
X130246407Y-64458540D01*
X130223978Y-64492109D01*
X130174979Y-64610401D01*
X130174977Y-64610409D01*
X130150000Y-64735976D01*
X114150500Y-64735976D01*
X114150500Y-64246408D01*
X130458539Y-64246408D01*
X130800000Y-64587868D01*
X130800001Y-64587868D01*
X131141458Y-64246408D01*
X131858539Y-64246408D01*
X132200000Y-64587868D01*
X132200001Y-64587868D01*
X132423796Y-64364071D01*
X153349499Y-64364071D01*
X153374497Y-64489738D01*
X153374499Y-64489744D01*
X153423533Y-64608124D01*
X153423538Y-64608133D01*
X153494722Y-64714667D01*
X153494723Y-64714668D01*
X153494724Y-64714669D01*
X153585331Y-64805276D01*
X153585333Y-64805277D01*
X153588181Y-64808125D01*
X153621666Y-64869448D01*
X153624500Y-64895807D01*
X153624500Y-75822230D01*
X153627611Y-75833841D01*
X153629453Y-75890123D01*
X153613103Y-75972328D01*
X153613103Y-76100466D01*
X153613103Y-76100468D01*
X153613102Y-76100468D01*
X153638100Y-76226135D01*
X153638102Y-76226141D01*
X153687136Y-76344521D01*
X153687141Y-76344530D01*
X153758326Y-76451065D01*
X153758329Y-76451069D01*
X153848930Y-76541670D01*
X153848934Y-76541673D01*
X153955469Y-76612858D01*
X153955475Y-76612861D01*
X153955476Y-76612862D01*
X154073859Y-76661898D01*
X154073863Y-76661898D01*
X154073864Y-76661899D01*
X154199531Y-76686897D01*
X154199534Y-76686897D01*
X154327674Y-76686897D01*
X154412218Y-76670079D01*
X154453347Y-76661898D01*
X154571730Y-76612862D01*
X154678272Y-76541673D01*
X154768879Y-76451066D01*
X154840068Y-76344524D01*
X154889104Y-76226141D01*
X154897285Y-76185012D01*
X154914103Y-76100468D01*
X154914103Y-75972325D01*
X154889105Y-75846658D01*
X154889104Y-75846657D01*
X154889104Y-75846653D01*
X154840068Y-75728270D01*
X154840067Y-75728269D01*
X154840064Y-75728263D01*
X154768879Y-75621728D01*
X154768876Y-75621724D01*
X154678275Y-75531123D01*
X154678271Y-75531120D01*
X154571736Y-75459935D01*
X154571726Y-75459930D01*
X154452047Y-75410357D01*
X154397644Y-75366516D01*
X154375579Y-75300221D01*
X154375500Y-75295796D01*
X154375500Y-64895807D01*
X154395185Y-64828768D01*
X154411819Y-64808125D01*
X154414665Y-64805278D01*
X154414669Y-64805276D01*
X154505276Y-64714669D01*
X154576465Y-64608127D01*
X154625501Y-64489744D01*
X154650500Y-64364069D01*
X154650500Y-64235931D01*
X154650500Y-64235928D01*
X154625502Y-64110261D01*
X154625501Y-64110260D01*
X154625501Y-64110256D01*
X154576465Y-63991873D01*
X154576464Y-63991872D01*
X154576461Y-63991866D01*
X154505276Y-63885331D01*
X154505273Y-63885327D01*
X154414672Y-63794726D01*
X154414668Y-63794723D01*
X154308133Y-63723538D01*
X154308124Y-63723533D01*
X154189744Y-63674499D01*
X154189738Y-63674497D01*
X154064071Y-63649500D01*
X154064069Y-63649500D01*
X153935931Y-63649500D01*
X153935929Y-63649500D01*
X153810261Y-63674497D01*
X153810255Y-63674499D01*
X153691875Y-63723533D01*
X153691866Y-63723538D01*
X153585331Y-63794723D01*
X153585327Y-63794726D01*
X153494726Y-63885327D01*
X153494723Y-63885331D01*
X153423538Y-63991866D01*
X153423533Y-63991875D01*
X153374499Y-64110255D01*
X153374497Y-64110261D01*
X153349500Y-64235928D01*
X153349500Y-64235931D01*
X153349500Y-64364069D01*
X153349500Y-64364071D01*
X153349499Y-64364071D01*
X132423796Y-64364071D01*
X132541458Y-64246408D01*
X132541458Y-64246407D01*
X132507896Y-64223981D01*
X132507886Y-64223976D01*
X132389598Y-64174979D01*
X132389590Y-64174977D01*
X132264023Y-64150000D01*
X132135976Y-64150000D01*
X132010409Y-64174977D01*
X132010401Y-64174979D01*
X131892109Y-64223978D01*
X131858540Y-64246407D01*
X131858539Y-64246408D01*
X131141458Y-64246408D01*
X131141458Y-64246407D01*
X131107896Y-64223981D01*
X131107886Y-64223976D01*
X130989598Y-64174979D01*
X130989590Y-64174977D01*
X130864023Y-64150000D01*
X130735976Y-64150000D01*
X130610409Y-64174977D01*
X130610401Y-64174979D01*
X130492109Y-64223978D01*
X130458540Y-64246407D01*
X130458539Y-64246408D01*
X114150500Y-64246408D01*
X114150500Y-62934109D01*
X114150500Y-60646124D01*
X114150649Y-60640039D01*
X114152072Y-60611076D01*
X114167777Y-60291442D01*
X114168970Y-60279336D01*
X114176200Y-60230601D01*
X114219734Y-59937120D01*
X114222108Y-59925188D01*
X114237273Y-59864647D01*
X114306176Y-59589576D01*
X114309700Y-59577962D01*
X114426264Y-59252193D01*
X114430898Y-59241005D01*
X114491238Y-59113428D01*
X119200000Y-59113428D01*
X119200000Y-59286571D01*
X119227085Y-59457584D01*
X119280591Y-59622257D01*
X119359198Y-59776528D01*
X119423219Y-59864646D01*
X119423220Y-59864647D01*
X119856329Y-59431538D01*
X119899901Y-59507007D01*
X119992993Y-59600099D01*
X120068460Y-59643670D01*
X119635351Y-60076778D01*
X119635352Y-60076780D01*
X119723471Y-60140801D01*
X119877742Y-60219408D01*
X120042415Y-60272914D01*
X120213429Y-60300000D01*
X120386571Y-60300000D01*
X120557584Y-60272914D01*
X120722257Y-60219408D01*
X120876525Y-60140803D01*
X120964646Y-60076778D01*
X120964647Y-60076778D01*
X120531539Y-59643670D01*
X120607007Y-59600099D01*
X120700099Y-59507007D01*
X120743670Y-59431539D01*
X121176778Y-59864647D01*
X121176778Y-59864646D01*
X121240803Y-59776525D01*
X121319408Y-59622257D01*
X121372914Y-59457584D01*
X121400000Y-59286571D01*
X121400000Y-59113428D01*
X121372914Y-58942415D01*
X121319408Y-58777742D01*
X121240801Y-58623471D01*
X121176780Y-58535352D01*
X121176778Y-58535351D01*
X120743670Y-58968460D01*
X120700099Y-58892993D01*
X120607007Y-58799901D01*
X120531538Y-58756329D01*
X120964647Y-58323220D01*
X120964646Y-58323219D01*
X120876528Y-58259198D01*
X120722257Y-58180591D01*
X120557584Y-58127085D01*
X120386571Y-58100000D01*
X120213429Y-58100000D01*
X120042415Y-58127085D01*
X119877742Y-58180591D01*
X119723478Y-58259194D01*
X119635352Y-58323220D01*
X120068461Y-58756329D01*
X119992993Y-58799901D01*
X119899901Y-58892993D01*
X119856329Y-58968461D01*
X119423220Y-58535352D01*
X119359194Y-58623478D01*
X119280591Y-58777742D01*
X119227085Y-58942415D01*
X119200000Y-59113428D01*
X114491238Y-59113428D01*
X114578837Y-58928217D01*
X114584556Y-58917516D01*
X114762438Y-58620741D01*
X114769179Y-58610653D01*
X114975281Y-58332759D01*
X114982992Y-58323364D01*
X115015765Y-58287205D01*
X115135367Y-58155245D01*
X115215337Y-58067011D01*
X115223927Y-58058421D01*
X115480290Y-57826070D01*
X115489668Y-57818373D01*
X115767572Y-57612267D01*
X115777665Y-57605523D01*
X116074433Y-57427648D01*
X116085125Y-57421932D01*
X116397912Y-57273995D01*
X116409119Y-57269353D01*
X116734894Y-57152789D01*
X116746506Y-57149268D01*
X117082121Y-57065201D01*
X117094032Y-57062832D01*
X117436263Y-57012066D01*
X117448365Y-57010874D01*
X117797520Y-56993721D01*
X117803556Y-56993574D01*
X122726822Y-56994190D01*
G37*
%TD.AperFunction*%
%TA.AperFunction,Conductor*%
G36*
X158196480Y-83205185D02*
G01*
X158242235Y-83257989D01*
X158252179Y-83327147D01*
X158232542Y-83378392D01*
X158223539Y-83391864D01*
X158223533Y-83391875D01*
X158174499Y-83510255D01*
X158174497Y-83510261D01*
X158149500Y-83635928D01*
X158149500Y-83635931D01*
X158149500Y-83764069D01*
X158149500Y-83764071D01*
X158149499Y-83764071D01*
X158174497Y-83889738D01*
X158174499Y-83889744D01*
X158223534Y-84008125D01*
X158226404Y-84013494D01*
X158224686Y-84014412D01*
X158242871Y-84072511D01*
X158224377Y-84139889D01*
X158206572Y-84162390D01*
X157969438Y-84399525D01*
X157899526Y-84469436D01*
X157850091Y-84555059D01*
X157850091Y-84555060D01*
X157850090Y-84555062D01*
X157824500Y-84650565D01*
X157824500Y-84650567D01*
X157824500Y-86093101D01*
X157804815Y-86160140D01*
X157788181Y-86180782D01*
X157450596Y-86518367D01*
X157423668Y-86533070D01*
X157397850Y-86549663D01*
X157391649Y-86550554D01*
X157389273Y-86551852D01*
X157362915Y-86554686D01*
X157232006Y-86554686D01*
X157164967Y-86535001D01*
X157144325Y-86518367D01*
X157050870Y-86424912D01*
X157050866Y-86424909D01*
X156944331Y-86353724D01*
X156944322Y-86353719D01*
X156825942Y-86304685D01*
X156825936Y-86304683D01*
X156700269Y-86279686D01*
X156700267Y-86279686D01*
X156572129Y-86279686D01*
X156572127Y-86279686D01*
X156446459Y-86304683D01*
X156446453Y-86304685D01*
X156328073Y-86353719D01*
X156328064Y-86353724D01*
X156221529Y-86424909D01*
X156221525Y-86424912D01*
X156130924Y-86515513D01*
X156130921Y-86515517D01*
X156059736Y-86622052D01*
X156059731Y-86622062D01*
X156010291Y-86741421D01*
X156003136Y-86750298D01*
X155999901Y-86761232D01*
X155981607Y-86777014D01*
X155966450Y-86795824D01*
X155955632Y-86799424D01*
X155946999Y-86806873D01*
X155923076Y-86810260D01*
X155900155Y-86817889D01*
X155887323Y-86815322D01*
X155877819Y-86816668D01*
X155855771Y-86809010D01*
X155843976Y-86806651D01*
X155832346Y-86801309D01*
X155830563Y-86799526D01*
X155830562Y-86799525D01*
X155744938Y-86750090D01*
X155697186Y-86737295D01*
X155687061Y-86734582D01*
X155687057Y-86734580D01*
X155649436Y-86724500D01*
X155649435Y-86724500D01*
X137206900Y-86724500D01*
X137139861Y-86704815D01*
X137119219Y-86688181D01*
X136086819Y-85655781D01*
X136053334Y-85594458D01*
X136050500Y-85568100D01*
X136050500Y-85435928D01*
X136025502Y-85310261D01*
X136025501Y-85310260D01*
X136025501Y-85310256D01*
X135976465Y-85191873D01*
X135976464Y-85191872D01*
X135976461Y-85191866D01*
X135905276Y-85085331D01*
X135901411Y-85080621D01*
X135902884Y-85079411D01*
X135873642Y-85025858D01*
X135878626Y-84956166D01*
X135920498Y-84900233D01*
X135985962Y-84875816D01*
X135994808Y-84875500D01*
X138249435Y-84875500D01*
X138249436Y-84875500D01*
X138297186Y-84862705D01*
X138344938Y-84849910D01*
X138430562Y-84800475D01*
X138500475Y-84730562D01*
X140009218Y-83221819D01*
X140070541Y-83188334D01*
X140096899Y-83185500D01*
X158129441Y-83185500D01*
X158196480Y-83205185D01*
G37*
%TD.AperFunction*%
%TA.AperFunction,Conductor*%
G36*
X168538255Y-83177115D02*
G01*
X168596118Y-83216277D01*
X168623623Y-83280505D01*
X168624500Y-83295228D01*
X168624500Y-84493100D01*
X168604815Y-84560139D01*
X168588181Y-84580781D01*
X168230782Y-84938181D01*
X168169459Y-84971666D01*
X168143101Y-84974500D01*
X166419780Y-84974500D01*
X166352741Y-84954815D01*
X166309295Y-84906794D01*
X166241233Y-84773213D01*
X166210245Y-84730562D01*
X166139414Y-84633072D01*
X166016928Y-84510586D01*
X165876788Y-84408768D01*
X165722445Y-84330127D01*
X165557701Y-84276598D01*
X165557699Y-84276597D01*
X165557698Y-84276597D01*
X165426271Y-84255781D01*
X165386611Y-84249500D01*
X165213389Y-84249500D01*
X165173728Y-84255781D01*
X165042302Y-84276597D01*
X164877552Y-84330128D01*
X164723211Y-84408768D01*
X164643256Y-84466859D01*
X164583072Y-84510586D01*
X164583070Y-84510588D01*
X164583069Y-84510588D01*
X164460588Y-84633069D01*
X164460588Y-84633070D01*
X164460586Y-84633072D01*
X164447877Y-84650565D01*
X164358768Y-84773211D01*
X164280128Y-84927552D01*
X164226597Y-85092302D01*
X164199500Y-85263389D01*
X164199500Y-85436610D01*
X164224500Y-85594458D01*
X164226598Y-85607701D01*
X164264873Y-85725499D01*
X164272927Y-85750285D01*
X164274922Y-85820126D01*
X164242677Y-85876284D01*
X163630782Y-86488181D01*
X163569459Y-86521666D01*
X163543101Y-86524500D01*
X158690191Y-86524500D01*
X158623152Y-86504815D01*
X158577397Y-86452011D01*
X158567453Y-86382853D01*
X158570417Y-86368405D01*
X158575500Y-86349436D01*
X158575500Y-86250564D01*
X158575500Y-84906899D01*
X158595185Y-84839860D01*
X158611819Y-84819218D01*
X159100471Y-84330566D01*
X159100474Y-84330563D01*
X159103397Y-84325501D01*
X159132062Y-84275850D01*
X159170554Y-84234751D01*
X159214669Y-84205276D01*
X159305276Y-84114669D01*
X159376465Y-84008127D01*
X159425501Y-83889744D01*
X159450500Y-83764069D01*
X159450500Y-83635931D01*
X159450500Y-83635928D01*
X159425502Y-83510261D01*
X159425501Y-83510260D01*
X159425501Y-83510256D01*
X159376465Y-83391873D01*
X159376464Y-83391872D01*
X159376460Y-83391864D01*
X159367458Y-83378392D01*
X159346579Y-83311715D01*
X159365063Y-83244334D01*
X159417041Y-83197644D01*
X159470559Y-83185500D01*
X164180220Y-83185500D01*
X164247259Y-83205185D01*
X164290705Y-83253206D01*
X164358766Y-83386786D01*
X164364535Y-83394726D01*
X164460586Y-83526928D01*
X164583072Y-83649414D01*
X164723212Y-83751232D01*
X164877555Y-83829873D01*
X165042299Y-83883402D01*
X165213389Y-83910500D01*
X165213390Y-83910500D01*
X165386610Y-83910500D01*
X165386611Y-83910500D01*
X165557701Y-83883402D01*
X165722445Y-83829873D01*
X165876788Y-83751232D01*
X166016928Y-83649414D01*
X166139414Y-83526928D01*
X166241232Y-83386788D01*
X166287884Y-83295228D01*
X166309295Y-83253206D01*
X166357269Y-83202409D01*
X166419780Y-83185500D01*
X168430913Y-83185500D01*
X168430915Y-83185500D01*
X168468407Y-83175454D01*
X168538255Y-83177115D01*
G37*
%TD.AperFunction*%
%TD*%
M02*
