M48
; DRILL file {KiCad 9.0.6-9.0.6~ubuntu22.04.1} date 2026-01-04T01:52:14+0530
; FORMAT={-:-/ absolute / metric / decimal}
; #@! TF.CreationDate,2026-01-04T01:52:14+05:30
; #@! TF.GenerationSoftware,Kicad,Pcbnew,9.0.6-9.0.6~ubuntu22.04.1
; #@! TF.FileFunction,Plated,1,2,PTH
FMAT,2
METRIC
; #@! TA.AperFunction,Plated,PTH,ViaDrill
T1C0.350
; #@! TA.AperFunction,Plated,PTH,ComponentDrill
T2C0.350
; #@! TA.AperFunction,Plated,PTH,ComponentDrill
T3C0.500
; #@! TA.AperFunction,Plated,PTH,ComponentDrill
T4C1.000
; #@! TA.AperFunction,Plated,PTH,ComponentDrill
T5C3.200
%
G90
G05
T1
X123.4Y-57.505
X126.29Y-58.094
X126.9Y-79.7
X128.3Y-69.1
X134.6Y-83.9
X135.4Y-85.5
X136.1Y-65.2
X136.4Y-67.9
X136.8Y-80.1
X137.2Y-85.35
X138.0Y-74.0
X138.3Y-78.3
X139.0Y-80.1
X139.077Y-84.977
X141.0Y-71.3
X141.0Y-72.9
X141.6Y-77.525
X141.706Y-79.075
X145.4Y-73.1
X150.2Y-79.1
X150.3Y-66.6
X150.4Y-67.9
X150.6Y-70.1
X154.0Y-64.3
X154.264Y-76.036
X156.636Y-86.93
X158.8Y-83.7
X163.0Y-84.35
X165.005Y-58.095
X166.2Y-58.3
X169.425Y-64.462
X169.96Y-62.87
T2
X130.8Y-64.8
X130.8Y-66.0
X130.8Y-67.2
X132.2Y-64.8
X132.2Y-66.0
X132.2Y-67.2
T3
X115.4Y-70.7
X116.103Y-69.003
X116.103Y-72.397
X117.8Y-68.3
X117.8Y-73.1
X119.497Y-69.003
X119.497Y-72.397
X120.2Y-70.7
X170.7Y-84.2
X170.703Y-60.647
X171.403Y-82.503
X171.403Y-85.897
X171.406Y-58.95
X171.406Y-62.344
X173.1Y-81.8
X173.1Y-86.6
X173.103Y-58.247
X173.103Y-63.047
X174.797Y-82.503
X174.797Y-85.897
X174.8Y-58.95
X174.8Y-62.344
X175.5Y-84.2
X175.503Y-60.647
T4
X120.3Y-59.2
X122.84Y-59.2
X125.38Y-59.2
X127.92Y-59.2
X165.3Y-77.73
X165.3Y-80.27
X165.3Y-82.81
X165.3Y-85.35
T5
X117.8Y-70.7
X173.1Y-84.2
X173.103Y-60.647
M30
