%TF.GenerationSoftware,KiCad,Pcbnew,9.0.7-9.0.7~ubuntu22.04.1*%
%TF.CreationDate,2026-01-23T00:01:14+05:30*%
%TF.ProjectId,TWIN_NODE2,5457494e-5f4e-44f4-9445-322e6b696361,rev?*%
%TF.SameCoordinates,Original*%
%TF.FileFunction,Legend,Bot*%
%TF.FilePolarity,Positive*%
%FSLAX46Y46*%
G04 Gerber Fmt 4.6, Leading zero omitted, Abs format (unit mm)*
G04 Created by KiCad (PCBNEW 9.0.7-9.0.7~ubuntu22.04.1) date 2026-01-23 00:01:14*
%MOMM*%
%LPD*%
G01*
G04 APERTURE LIST*
%ADD10C,0.200000*%
%ADD11C,0.000000*%
G04 APERTURE END LIST*
D10*
X115575000Y-71300000D02*
X149575000Y-71300000D01*
X149575000Y-85050000D01*
X115575000Y-85050000D01*
X115575000Y-71300000D01*
X148879612Y-74471140D02*
X148879612Y-74661616D01*
X148831993Y-74661616D02*
X148831993Y-74471140D01*
X148784374Y-74423521D02*
X148784374Y-74709235D01*
X148736755Y-74661616D02*
X148736755Y-74471140D01*
X148689136Y-74471140D02*
X148689136Y-74661616D01*
X148879612Y-74613997D02*
X148784374Y-74709235D01*
X148784374Y-74709235D02*
X148689136Y-74613997D01*
X148879612Y-74518759D02*
X148784374Y-74423521D01*
X148784374Y-74423521D02*
X148689136Y-74518759D01*
X148879612Y-74471140D02*
X148784374Y-74423521D01*
X148784374Y-74423521D02*
X148689136Y-74471140D01*
X148689136Y-74471140D02*
X148641517Y-74566378D01*
X148641517Y-74566378D02*
X148689136Y-74661616D01*
X148689136Y-74661616D02*
X148784374Y-74709235D01*
X148784374Y-74709235D02*
X148879612Y-74661616D01*
X148879612Y-74661616D02*
X148927231Y-74566378D01*
X148927231Y-74566378D02*
X148879612Y-74471140D01*
X147165326Y-73947331D02*
X147165326Y-74756854D01*
X147165326Y-74756854D02*
X147117707Y-74852092D01*
X147117707Y-74852092D02*
X147070088Y-74899712D01*
X147070088Y-74899712D02*
X146974850Y-74947331D01*
X146974850Y-74947331D02*
X146784374Y-74947331D01*
X146784374Y-74947331D02*
X146689136Y-74899712D01*
X146689136Y-74899712D02*
X146641517Y-74852092D01*
X146641517Y-74852092D02*
X146593898Y-74756854D01*
X146593898Y-74756854D02*
X146593898Y-73947331D01*
X145641517Y-74947331D02*
X146117707Y-74947331D01*
X146117707Y-74947331D02*
X146117707Y-73947331D01*
X145451040Y-73947331D02*
X144879612Y-73947331D01*
X145165326Y-74947331D02*
X145165326Y-73947331D01*
X143974850Y-74947331D02*
X144308183Y-74471140D01*
X144546278Y-74947331D02*
X144546278Y-73947331D01*
X144546278Y-73947331D02*
X144165326Y-73947331D01*
X144165326Y-73947331D02*
X144070088Y-73994950D01*
X144070088Y-73994950D02*
X144022469Y-74042569D01*
X144022469Y-74042569D02*
X143974850Y-74137807D01*
X143974850Y-74137807D02*
X143974850Y-74280664D01*
X143974850Y-74280664D02*
X144022469Y-74375902D01*
X144022469Y-74375902D02*
X144070088Y-74423521D01*
X144070088Y-74423521D02*
X144165326Y-74471140D01*
X144165326Y-74471140D02*
X144546278Y-74471140D01*
X143593897Y-74661616D02*
X143117707Y-74661616D01*
X143689135Y-74947331D02*
X143355802Y-73947331D01*
X143355802Y-73947331D02*
X143022469Y-74947331D01*
X141451040Y-74947331D02*
X141927230Y-74947331D01*
X141927230Y-74947331D02*
X141927230Y-73947331D01*
X140927230Y-73947331D02*
X140736754Y-73947331D01*
X140736754Y-73947331D02*
X140641516Y-73994950D01*
X140641516Y-73994950D02*
X140546278Y-74090188D01*
X140546278Y-74090188D02*
X140498659Y-74280664D01*
X140498659Y-74280664D02*
X140498659Y-74613997D01*
X140498659Y-74613997D02*
X140546278Y-74804473D01*
X140546278Y-74804473D02*
X140641516Y-74899712D01*
X140641516Y-74899712D02*
X140736754Y-74947331D01*
X140736754Y-74947331D02*
X140927230Y-74947331D01*
X140927230Y-74947331D02*
X141022468Y-74899712D01*
X141022468Y-74899712D02*
X141117706Y-74804473D01*
X141117706Y-74804473D02*
X141165325Y-74613997D01*
X141165325Y-74613997D02*
X141165325Y-74280664D01*
X141165325Y-74280664D02*
X141117706Y-74090188D01*
X141117706Y-74090188D02*
X141022468Y-73994950D01*
X141022468Y-73994950D02*
X140927230Y-73947331D01*
X140165325Y-73947331D02*
X139927230Y-74947331D01*
X139927230Y-74947331D02*
X139736754Y-74233045D01*
X139736754Y-74233045D02*
X139546278Y-74947331D01*
X139546278Y-74947331D02*
X139308183Y-73947331D01*
X138165325Y-74947331D02*
X138165325Y-73947331D01*
X138165325Y-73947331D02*
X137784373Y-73947331D01*
X137784373Y-73947331D02*
X137689135Y-73994950D01*
X137689135Y-73994950D02*
X137641516Y-74042569D01*
X137641516Y-74042569D02*
X137593897Y-74137807D01*
X137593897Y-74137807D02*
X137593897Y-74280664D01*
X137593897Y-74280664D02*
X137641516Y-74375902D01*
X137641516Y-74375902D02*
X137689135Y-74423521D01*
X137689135Y-74423521D02*
X137784373Y-74471140D01*
X137784373Y-74471140D02*
X138165325Y-74471140D01*
X136974849Y-73947331D02*
X136784373Y-73947331D01*
X136784373Y-73947331D02*
X136689135Y-73994950D01*
X136689135Y-73994950D02*
X136593897Y-74090188D01*
X136593897Y-74090188D02*
X136546278Y-74280664D01*
X136546278Y-74280664D02*
X136546278Y-74613997D01*
X136546278Y-74613997D02*
X136593897Y-74804473D01*
X136593897Y-74804473D02*
X136689135Y-74899712D01*
X136689135Y-74899712D02*
X136784373Y-74947331D01*
X136784373Y-74947331D02*
X136974849Y-74947331D01*
X136974849Y-74947331D02*
X137070087Y-74899712D01*
X137070087Y-74899712D02*
X137165325Y-74804473D01*
X137165325Y-74804473D02*
X137212944Y-74613997D01*
X137212944Y-74613997D02*
X137212944Y-74280664D01*
X137212944Y-74280664D02*
X137165325Y-74090188D01*
X137165325Y-74090188D02*
X137070087Y-73994950D01*
X137070087Y-73994950D02*
X136974849Y-73947331D01*
X136212944Y-73947331D02*
X135974849Y-74947331D01*
X135974849Y-74947331D02*
X135784373Y-74233045D01*
X135784373Y-74233045D02*
X135593897Y-74947331D01*
X135593897Y-74947331D02*
X135355802Y-73947331D01*
X134974849Y-74423521D02*
X134641516Y-74423521D01*
X134498659Y-74947331D02*
X134974849Y-74947331D01*
X134974849Y-74947331D02*
X134974849Y-73947331D01*
X134974849Y-73947331D02*
X134498659Y-73947331D01*
X133498659Y-74947331D02*
X133831992Y-74471140D01*
X134070087Y-74947331D02*
X134070087Y-73947331D01*
X134070087Y-73947331D02*
X133689135Y-73947331D01*
X133689135Y-73947331D02*
X133593897Y-73994950D01*
X133593897Y-73994950D02*
X133546278Y-74042569D01*
X133546278Y-74042569D02*
X133498659Y-74137807D01*
X133498659Y-74137807D02*
X133498659Y-74280664D01*
X133498659Y-74280664D02*
X133546278Y-74375902D01*
X133546278Y-74375902D02*
X133593897Y-74423521D01*
X133593897Y-74423521D02*
X133689135Y-74471140D01*
X133689135Y-74471140D02*
X134070087Y-74471140D01*
X132308182Y-74947331D02*
X132308182Y-73947331D01*
X131831992Y-74947331D02*
X131831992Y-73947331D01*
X131831992Y-73947331D02*
X131260564Y-74947331D01*
X131260564Y-74947331D02*
X131260564Y-73947331D01*
X130784373Y-74947331D02*
X130784373Y-73947331D01*
X130784373Y-73947331D02*
X130546278Y-73947331D01*
X130546278Y-73947331D02*
X130403421Y-73994950D01*
X130403421Y-73994950D02*
X130308183Y-74090188D01*
X130308183Y-74090188D02*
X130260564Y-74185426D01*
X130260564Y-74185426D02*
X130212945Y-74375902D01*
X130212945Y-74375902D02*
X130212945Y-74518759D01*
X130212945Y-74518759D02*
X130260564Y-74709235D01*
X130260564Y-74709235D02*
X130308183Y-74804473D01*
X130308183Y-74804473D02*
X130403421Y-74899712D01*
X130403421Y-74899712D02*
X130546278Y-74947331D01*
X130546278Y-74947331D02*
X130784373Y-74947331D01*
X129593897Y-73947331D02*
X129403421Y-73947331D01*
X129403421Y-73947331D02*
X129308183Y-73994950D01*
X129308183Y-73994950D02*
X129212945Y-74090188D01*
X129212945Y-74090188D02*
X129165326Y-74280664D01*
X129165326Y-74280664D02*
X129165326Y-74613997D01*
X129165326Y-74613997D02*
X129212945Y-74804473D01*
X129212945Y-74804473D02*
X129308183Y-74899712D01*
X129308183Y-74899712D02*
X129403421Y-74947331D01*
X129403421Y-74947331D02*
X129593897Y-74947331D01*
X129593897Y-74947331D02*
X129689135Y-74899712D01*
X129689135Y-74899712D02*
X129784373Y-74804473D01*
X129784373Y-74804473D02*
X129831992Y-74613997D01*
X129831992Y-74613997D02*
X129831992Y-74280664D01*
X129831992Y-74280664D02*
X129784373Y-74090188D01*
X129784373Y-74090188D02*
X129689135Y-73994950D01*
X129689135Y-73994950D02*
X129593897Y-73947331D01*
X128546278Y-73947331D02*
X128355802Y-73947331D01*
X128355802Y-73947331D02*
X128260564Y-73994950D01*
X128260564Y-73994950D02*
X128165326Y-74090188D01*
X128165326Y-74090188D02*
X128117707Y-74280664D01*
X128117707Y-74280664D02*
X128117707Y-74613997D01*
X128117707Y-74613997D02*
X128165326Y-74804473D01*
X128165326Y-74804473D02*
X128260564Y-74899712D01*
X128260564Y-74899712D02*
X128355802Y-74947331D01*
X128355802Y-74947331D02*
X128546278Y-74947331D01*
X128546278Y-74947331D02*
X128641516Y-74899712D01*
X128641516Y-74899712D02*
X128736754Y-74804473D01*
X128736754Y-74804473D02*
X128784373Y-74613997D01*
X128784373Y-74613997D02*
X128784373Y-74280664D01*
X128784373Y-74280664D02*
X128736754Y-74090188D01*
X128736754Y-74090188D02*
X128641516Y-73994950D01*
X128641516Y-73994950D02*
X128546278Y-73947331D01*
X127117707Y-74947331D02*
X127451040Y-74471140D01*
X127689135Y-74947331D02*
X127689135Y-73947331D01*
X127689135Y-73947331D02*
X127308183Y-73947331D01*
X127308183Y-73947331D02*
X127212945Y-73994950D01*
X127212945Y-73994950D02*
X127165326Y-74042569D01*
X127165326Y-74042569D02*
X127117707Y-74137807D01*
X127117707Y-74137807D02*
X127117707Y-74280664D01*
X127117707Y-74280664D02*
X127165326Y-74375902D01*
X127165326Y-74375902D02*
X127212945Y-74423521D01*
X127212945Y-74423521D02*
X127308183Y-74471140D01*
X127308183Y-74471140D02*
X127689135Y-74471140D01*
X125927230Y-74947331D02*
X125927230Y-73947331D01*
X125927230Y-73947331D02*
X125355802Y-74947331D01*
X125355802Y-74947331D02*
X125355802Y-73947331D01*
X124689135Y-73947331D02*
X124498659Y-73947331D01*
X124498659Y-73947331D02*
X124403421Y-73994950D01*
X124403421Y-73994950D02*
X124308183Y-74090188D01*
X124308183Y-74090188D02*
X124260564Y-74280664D01*
X124260564Y-74280664D02*
X124260564Y-74613997D01*
X124260564Y-74613997D02*
X124308183Y-74804473D01*
X124308183Y-74804473D02*
X124403421Y-74899712D01*
X124403421Y-74899712D02*
X124498659Y-74947331D01*
X124498659Y-74947331D02*
X124689135Y-74947331D01*
X124689135Y-74947331D02*
X124784373Y-74899712D01*
X124784373Y-74899712D02*
X124879611Y-74804473D01*
X124879611Y-74804473D02*
X124927230Y-74613997D01*
X124927230Y-74613997D02*
X124927230Y-74280664D01*
X124927230Y-74280664D02*
X124879611Y-74090188D01*
X124879611Y-74090188D02*
X124784373Y-73994950D01*
X124784373Y-73994950D02*
X124689135Y-73947331D01*
X123831992Y-74947331D02*
X123831992Y-73947331D01*
X123831992Y-73947331D02*
X123593897Y-73947331D01*
X123593897Y-73947331D02*
X123451040Y-73994950D01*
X123451040Y-73994950D02*
X123355802Y-74090188D01*
X123355802Y-74090188D02*
X123308183Y-74185426D01*
X123308183Y-74185426D02*
X123260564Y-74375902D01*
X123260564Y-74375902D02*
X123260564Y-74518759D01*
X123260564Y-74518759D02*
X123308183Y-74709235D01*
X123308183Y-74709235D02*
X123355802Y-74804473D01*
X123355802Y-74804473D02*
X123451040Y-74899712D01*
X123451040Y-74899712D02*
X123593897Y-74947331D01*
X123593897Y-74947331D02*
X123831992Y-74947331D01*
X122831992Y-74423521D02*
X122498659Y-74423521D01*
X122355802Y-74947331D02*
X122831992Y-74947331D01*
X122831992Y-74947331D02*
X122831992Y-73947331D01*
X122831992Y-73947331D02*
X122355802Y-73947331D01*
X148879612Y-76081084D02*
X148879612Y-76271560D01*
X148831993Y-76271560D02*
X148831993Y-76081084D01*
X148784374Y-76033465D02*
X148784374Y-76319179D01*
X148736755Y-76271560D02*
X148736755Y-76081084D01*
X148689136Y-76081084D02*
X148689136Y-76271560D01*
X148879612Y-76223941D02*
X148784374Y-76319179D01*
X148784374Y-76319179D02*
X148689136Y-76223941D01*
X148879612Y-76128703D02*
X148784374Y-76033465D01*
X148784374Y-76033465D02*
X148689136Y-76128703D01*
X148879612Y-76081084D02*
X148784374Y-76033465D01*
X148784374Y-76033465D02*
X148689136Y-76081084D01*
X148689136Y-76081084D02*
X148641517Y-76176322D01*
X148641517Y-76176322D02*
X148689136Y-76271560D01*
X148689136Y-76271560D02*
X148784374Y-76319179D01*
X148784374Y-76319179D02*
X148879612Y-76271560D01*
X148879612Y-76271560D02*
X148927231Y-76176322D01*
X148927231Y-76176322D02*
X148879612Y-76081084D01*
X146689136Y-76557275D02*
X147165326Y-76557275D01*
X147165326Y-76557275D02*
X147165326Y-75557275D01*
X146165326Y-75557275D02*
X145974850Y-75557275D01*
X145974850Y-75557275D02*
X145879612Y-75604894D01*
X145879612Y-75604894D02*
X145784374Y-75700132D01*
X145784374Y-75700132D02*
X145736755Y-75890608D01*
X145736755Y-75890608D02*
X145736755Y-76223941D01*
X145736755Y-76223941D02*
X145784374Y-76414417D01*
X145784374Y-76414417D02*
X145879612Y-76509656D01*
X145879612Y-76509656D02*
X145974850Y-76557275D01*
X145974850Y-76557275D02*
X146165326Y-76557275D01*
X146165326Y-76557275D02*
X146260564Y-76509656D01*
X146260564Y-76509656D02*
X146355802Y-76414417D01*
X146355802Y-76414417D02*
X146403421Y-76223941D01*
X146403421Y-76223941D02*
X146403421Y-75890608D01*
X146403421Y-75890608D02*
X146355802Y-75700132D01*
X146355802Y-75700132D02*
X146260564Y-75604894D01*
X146260564Y-75604894D02*
X146165326Y-75557275D01*
X145403421Y-75557275D02*
X145165326Y-76557275D01*
X145165326Y-76557275D02*
X144974850Y-75842989D01*
X144974850Y-75842989D02*
X144784374Y-76557275D01*
X144784374Y-76557275D02*
X144546279Y-75557275D01*
X143403421Y-76557275D02*
X143403421Y-75557275D01*
X143403421Y-75557275D02*
X143022469Y-75557275D01*
X143022469Y-75557275D02*
X142927231Y-75604894D01*
X142927231Y-75604894D02*
X142879612Y-75652513D01*
X142879612Y-75652513D02*
X142831993Y-75747751D01*
X142831993Y-75747751D02*
X142831993Y-75890608D01*
X142831993Y-75890608D02*
X142879612Y-75985846D01*
X142879612Y-75985846D02*
X142927231Y-76033465D01*
X142927231Y-76033465D02*
X143022469Y-76081084D01*
X143022469Y-76081084D02*
X143403421Y-76081084D01*
X142212945Y-75557275D02*
X142022469Y-75557275D01*
X142022469Y-75557275D02*
X141927231Y-75604894D01*
X141927231Y-75604894D02*
X141831993Y-75700132D01*
X141831993Y-75700132D02*
X141784374Y-75890608D01*
X141784374Y-75890608D02*
X141784374Y-76223941D01*
X141784374Y-76223941D02*
X141831993Y-76414417D01*
X141831993Y-76414417D02*
X141927231Y-76509656D01*
X141927231Y-76509656D02*
X142022469Y-76557275D01*
X142022469Y-76557275D02*
X142212945Y-76557275D01*
X142212945Y-76557275D02*
X142308183Y-76509656D01*
X142308183Y-76509656D02*
X142403421Y-76414417D01*
X142403421Y-76414417D02*
X142451040Y-76223941D01*
X142451040Y-76223941D02*
X142451040Y-75890608D01*
X142451040Y-75890608D02*
X142403421Y-75700132D01*
X142403421Y-75700132D02*
X142308183Y-75604894D01*
X142308183Y-75604894D02*
X142212945Y-75557275D01*
X141451040Y-75557275D02*
X141212945Y-76557275D01*
X141212945Y-76557275D02*
X141022469Y-75842989D01*
X141022469Y-75842989D02*
X140831993Y-76557275D01*
X140831993Y-76557275D02*
X140593898Y-75557275D01*
X140212945Y-76033465D02*
X139879612Y-76033465D01*
X139736755Y-76557275D02*
X140212945Y-76557275D01*
X140212945Y-76557275D02*
X140212945Y-75557275D01*
X140212945Y-75557275D02*
X139736755Y-75557275D01*
X138736755Y-76557275D02*
X139070088Y-76081084D01*
X139308183Y-76557275D02*
X139308183Y-75557275D01*
X139308183Y-75557275D02*
X138927231Y-75557275D01*
X138927231Y-75557275D02*
X138831993Y-75604894D01*
X138831993Y-75604894D02*
X138784374Y-75652513D01*
X138784374Y-75652513D02*
X138736755Y-75747751D01*
X138736755Y-75747751D02*
X138736755Y-75890608D01*
X138736755Y-75890608D02*
X138784374Y-75985846D01*
X138784374Y-75985846D02*
X138831993Y-76033465D01*
X138831993Y-76033465D02*
X138927231Y-76081084D01*
X138927231Y-76081084D02*
X139308183Y-76081084D01*
X148879612Y-77691028D02*
X148879612Y-77881504D01*
X148831993Y-77881504D02*
X148831993Y-77691028D01*
X148784374Y-77643409D02*
X148784374Y-77929123D01*
X148736755Y-77881504D02*
X148736755Y-77691028D01*
X148689136Y-77691028D02*
X148689136Y-77881504D01*
X148879612Y-77833885D02*
X148784374Y-77929123D01*
X148784374Y-77929123D02*
X148689136Y-77833885D01*
X148879612Y-77738647D02*
X148784374Y-77643409D01*
X148784374Y-77643409D02*
X148689136Y-77738647D01*
X148879612Y-77691028D02*
X148784374Y-77643409D01*
X148784374Y-77643409D02*
X148689136Y-77691028D01*
X148689136Y-77691028D02*
X148641517Y-77786266D01*
X148641517Y-77786266D02*
X148689136Y-77881504D01*
X148689136Y-77881504D02*
X148784374Y-77929123D01*
X148784374Y-77929123D02*
X148879612Y-77881504D01*
X148879612Y-77881504D02*
X148927231Y-77786266D01*
X148927231Y-77786266D02*
X148879612Y-77691028D01*
X147165326Y-78167219D02*
X147165326Y-77167219D01*
X147165326Y-77167219D02*
X146593898Y-78167219D01*
X146593898Y-78167219D02*
X146593898Y-77167219D01*
X145927231Y-77167219D02*
X145736755Y-77167219D01*
X145736755Y-77167219D02*
X145641517Y-77214838D01*
X145641517Y-77214838D02*
X145546279Y-77310076D01*
X145546279Y-77310076D02*
X145498660Y-77500552D01*
X145498660Y-77500552D02*
X145498660Y-77833885D01*
X145498660Y-77833885D02*
X145546279Y-78024361D01*
X145546279Y-78024361D02*
X145641517Y-78119600D01*
X145641517Y-78119600D02*
X145736755Y-78167219D01*
X145736755Y-78167219D02*
X145927231Y-78167219D01*
X145927231Y-78167219D02*
X146022469Y-78119600D01*
X146022469Y-78119600D02*
X146117707Y-78024361D01*
X146117707Y-78024361D02*
X146165326Y-77833885D01*
X146165326Y-77833885D02*
X146165326Y-77500552D01*
X146165326Y-77500552D02*
X146117707Y-77310076D01*
X146117707Y-77310076D02*
X146022469Y-77214838D01*
X146022469Y-77214838D02*
X145927231Y-77167219D01*
X144308183Y-78167219D02*
X144308183Y-77167219D01*
X143831993Y-78167219D02*
X143831993Y-77167219D01*
X143831993Y-77167219D02*
X143260565Y-78167219D01*
X143260565Y-78167219D02*
X143260565Y-77167219D01*
X142927231Y-77167219D02*
X142355803Y-77167219D01*
X142641517Y-78167219D02*
X142641517Y-77167219D01*
X142022469Y-77643409D02*
X141689136Y-77643409D01*
X141546279Y-78167219D02*
X142022469Y-78167219D01*
X142022469Y-78167219D02*
X142022469Y-77167219D01*
X142022469Y-77167219D02*
X141546279Y-77167219D01*
X140546279Y-78167219D02*
X140879612Y-77691028D01*
X141117707Y-78167219D02*
X141117707Y-77167219D01*
X141117707Y-77167219D02*
X140736755Y-77167219D01*
X140736755Y-77167219D02*
X140641517Y-77214838D01*
X140641517Y-77214838D02*
X140593898Y-77262457D01*
X140593898Y-77262457D02*
X140546279Y-77357695D01*
X140546279Y-77357695D02*
X140546279Y-77500552D01*
X140546279Y-77500552D02*
X140593898Y-77595790D01*
X140593898Y-77595790D02*
X140641517Y-77643409D01*
X140641517Y-77643409D02*
X140736755Y-77691028D01*
X140736755Y-77691028D02*
X141117707Y-77691028D01*
X140117707Y-78167219D02*
X140117707Y-77167219D01*
X140117707Y-77167219D02*
X139546279Y-78167219D01*
X139546279Y-78167219D02*
X139546279Y-77167219D01*
X139070088Y-77643409D02*
X138736755Y-77643409D01*
X138593898Y-78167219D02*
X139070088Y-78167219D01*
X139070088Y-78167219D02*
X139070088Y-77167219D01*
X139070088Y-77167219D02*
X138593898Y-77167219D01*
X138308183Y-77167219D02*
X137736755Y-77167219D01*
X138022469Y-78167219D02*
X138022469Y-77167219D01*
X136138183Y-66012219D02*
X135566755Y-66012219D01*
X135852469Y-67012219D02*
X135852469Y-66012219D01*
X135328659Y-66012219D02*
X135090564Y-67012219D01*
X135090564Y-67012219D02*
X134900088Y-66297933D01*
X134900088Y-66297933D02*
X134709612Y-67012219D01*
X134709612Y-67012219D02*
X134471517Y-66012219D01*
X134090564Y-67012219D02*
X134090564Y-66012219D01*
X133614374Y-67012219D02*
X133614374Y-66012219D01*
X133614374Y-66012219D02*
X133042946Y-67012219D01*
X133042946Y-67012219D02*
X133042946Y-66012219D01*
X132566755Y-66631266D02*
X131804851Y-66631266D01*
X131328660Y-67012219D02*
X131328660Y-66012219D01*
X131328660Y-66012219D02*
X130757232Y-67012219D01*
X130757232Y-67012219D02*
X130757232Y-66012219D01*
X130090565Y-66012219D02*
X129900089Y-66012219D01*
X129900089Y-66012219D02*
X129804851Y-66059838D01*
X129804851Y-66059838D02*
X129709613Y-66155076D01*
X129709613Y-66155076D02*
X129661994Y-66345552D01*
X129661994Y-66345552D02*
X129661994Y-66678885D01*
X129661994Y-66678885D02*
X129709613Y-66869361D01*
X129709613Y-66869361D02*
X129804851Y-66964600D01*
X129804851Y-66964600D02*
X129900089Y-67012219D01*
X129900089Y-67012219D02*
X130090565Y-67012219D01*
X130090565Y-67012219D02*
X130185803Y-66964600D01*
X130185803Y-66964600D02*
X130281041Y-66869361D01*
X130281041Y-66869361D02*
X130328660Y-66678885D01*
X130328660Y-66678885D02*
X130328660Y-66345552D01*
X130328660Y-66345552D02*
X130281041Y-66155076D01*
X130281041Y-66155076D02*
X130185803Y-66059838D01*
X130185803Y-66059838D02*
X130090565Y-66012219D01*
X129233422Y-67012219D02*
X129233422Y-66012219D01*
X129233422Y-66012219D02*
X128995327Y-66012219D01*
X128995327Y-66012219D02*
X128852470Y-66059838D01*
X128852470Y-66059838D02*
X128757232Y-66155076D01*
X128757232Y-66155076D02*
X128709613Y-66250314D01*
X128709613Y-66250314D02*
X128661994Y-66440790D01*
X128661994Y-66440790D02*
X128661994Y-66583647D01*
X128661994Y-66583647D02*
X128709613Y-66774123D01*
X128709613Y-66774123D02*
X128757232Y-66869361D01*
X128757232Y-66869361D02*
X128852470Y-66964600D01*
X128852470Y-66964600D02*
X128995327Y-67012219D01*
X128995327Y-67012219D02*
X129233422Y-67012219D01*
X128233422Y-66488409D02*
X127900089Y-66488409D01*
X127757232Y-67012219D02*
X128233422Y-67012219D01*
X128233422Y-67012219D02*
X128233422Y-66012219D01*
X128233422Y-66012219D02*
X127757232Y-66012219D01*
X126709612Y-66012219D02*
X126376279Y-67012219D01*
X126376279Y-67012219D02*
X126042946Y-66012219D01*
X125185803Y-67012219D02*
X125757231Y-67012219D01*
X125471517Y-67012219D02*
X125471517Y-66012219D01*
X125471517Y-66012219D02*
X125566755Y-66155076D01*
X125566755Y-66155076D02*
X125661993Y-66250314D01*
X125661993Y-66250314D02*
X125757231Y-66297933D01*
X124757231Y-66916980D02*
X124709612Y-66964600D01*
X124709612Y-66964600D02*
X124757231Y-67012219D01*
X124757231Y-67012219D02*
X124804850Y-66964600D01*
X124804850Y-66964600D02*
X124757231Y-66916980D01*
X124757231Y-66916980D02*
X124757231Y-67012219D01*
X124090565Y-66012219D02*
X123995327Y-66012219D01*
X123995327Y-66012219D02*
X123900089Y-66059838D01*
X123900089Y-66059838D02*
X123852470Y-66107457D01*
X123852470Y-66107457D02*
X123804851Y-66202695D01*
X123804851Y-66202695D02*
X123757232Y-66393171D01*
X123757232Y-66393171D02*
X123757232Y-66631266D01*
X123757232Y-66631266D02*
X123804851Y-66821742D01*
X123804851Y-66821742D02*
X123852470Y-66916980D01*
X123852470Y-66916980D02*
X123900089Y-66964600D01*
X123900089Y-66964600D02*
X123995327Y-67012219D01*
X123995327Y-67012219D02*
X124090565Y-67012219D01*
X124090565Y-67012219D02*
X124185803Y-66964600D01*
X124185803Y-66964600D02*
X124233422Y-66916980D01*
X124233422Y-66916980D02*
X124281041Y-66821742D01*
X124281041Y-66821742D02*
X124328660Y-66631266D01*
X124328660Y-66631266D02*
X124328660Y-66393171D01*
X124328660Y-66393171D02*
X124281041Y-66202695D01*
X124281041Y-66202695D02*
X124233422Y-66107457D01*
X124233422Y-66107457D02*
X124185803Y-66059838D01*
X124185803Y-66059838D02*
X124090565Y-66012219D01*
D11*
%TO.C,G\u002A\u002A\u002A*%
G36*
X121410467Y-80146367D02*
G01*
X121468675Y-80205023D01*
X121572263Y-80315026D01*
X121643862Y-80398963D01*
X121670590Y-80442184D01*
X121655483Y-80482930D01*
X121604098Y-80553664D01*
X121584907Y-80575727D01*
X121560188Y-80599277D01*
X121532206Y-80603299D01*
X121489679Y-80581041D01*
X121421328Y-80525749D01*
X121315871Y-80430672D01*
X121162028Y-80289057D01*
X120947274Y-80091624D01*
X121048809Y-79990090D01*
X121150343Y-79888555D01*
X121410467Y-80146367D01*
G37*
G36*
X122114460Y-82706788D02*
G01*
X122272474Y-82710671D01*
X122369075Y-82720607D01*
X122417401Y-82738559D01*
X122430590Y-82766490D01*
X122423621Y-82794471D01*
X122370590Y-82826490D01*
X122358949Y-82827825D01*
X122329718Y-82857118D01*
X122314781Y-82936123D01*
X122310590Y-83079823D01*
X122307244Y-83201910D01*
X122296934Y-83309483D01*
X122282087Y-83361659D01*
X122239462Y-83377259D01*
X122152087Y-83378326D01*
X122136103Y-83376269D01*
X122088272Y-83361448D01*
X122061071Y-83322229D01*
X122047052Y-83240086D01*
X122038763Y-83096490D01*
X122037668Y-83073115D01*
X122025127Y-82928256D01*
X122003758Y-82849970D01*
X121970590Y-82826490D01*
X121965698Y-82826830D01*
X121934167Y-82856517D01*
X121914065Y-82942481D01*
X121902418Y-83096490D01*
X121890590Y-83366490D01*
X121770590Y-83366490D01*
X121650590Y-83366490D01*
X121638973Y-83036490D01*
X121627355Y-82706490D01*
X122028973Y-82706490D01*
X122114460Y-82706788D01*
G37*
G36*
X123950590Y-83044581D02*
G01*
X123950590Y-83386490D01*
X123830590Y-83386490D01*
X123802143Y-83386172D01*
X123740058Y-83374121D01*
X123715152Y-83327699D01*
X123710590Y-83224129D01*
X123709842Y-83188993D01*
X123696851Y-83104493D01*
X123670590Y-83086490D01*
X123667062Y-83089205D01*
X123641190Y-83149218D01*
X123630590Y-83248850D01*
X123626137Y-83328180D01*
X123598486Y-83375858D01*
X123530178Y-83386490D01*
X123482910Y-83384001D01*
X123452934Y-83365823D01*
X123438742Y-83315890D01*
X123435950Y-83218135D01*
X123440178Y-83056490D01*
X123446247Y-82864129D01*
X123630590Y-82864129D01*
X123632116Y-82875351D01*
X123670590Y-82926490D01*
X123691199Y-82930252D01*
X123710590Y-82888850D01*
X123705695Y-82859048D01*
X123670590Y-82826490D01*
X123661100Y-82827567D01*
X123630590Y-82864129D01*
X123446247Y-82864129D01*
X123450590Y-82726490D01*
X123700590Y-82714581D01*
X123950590Y-82702672D01*
X123950590Y-82888850D01*
X123950590Y-83044581D01*
G37*
G36*
X126007917Y-83133213D02*
G01*
X126024331Y-83254976D01*
X126030590Y-83324195D01*
X126004343Y-83369645D01*
X125910590Y-83386490D01*
X125826368Y-83374124D01*
X125790590Y-83326490D01*
X125786078Y-83298888D01*
X125750590Y-83266490D01*
X125732189Y-83273259D01*
X125710590Y-83326490D01*
X125685859Y-83368601D01*
X125590590Y-83386490D01*
X125525180Y-83385302D01*
X125488152Y-83370877D01*
X125476565Y-83326780D01*
X125486195Y-83236578D01*
X125512821Y-83083836D01*
X125519628Y-83045686D01*
X125759137Y-83045686D01*
X125763924Y-83093156D01*
X125775955Y-83099414D01*
X125790590Y-83066490D01*
X125787704Y-83045314D01*
X125763924Y-83039823D01*
X125759137Y-83045686D01*
X125519628Y-83045686D01*
X125528912Y-82993654D01*
X125557268Y-82851214D01*
X125585414Y-82765926D01*
X125623234Y-82723140D01*
X125680609Y-82708211D01*
X125767424Y-82706490D01*
X125938866Y-82706490D01*
X125984728Y-82984195D01*
X125984891Y-82985180D01*
X125997538Y-83066490D01*
X126007917Y-83133213D01*
G37*
G36*
X121585998Y-83154442D02*
G01*
X121568758Y-83273579D01*
X121542590Y-83338490D01*
X121531255Y-83347317D01*
X121444915Y-83374768D01*
X121323256Y-83384780D01*
X121201125Y-83376495D01*
X121113373Y-83349056D01*
X121093313Y-83326453D01*
X121059619Y-83228653D01*
X121038889Y-83074151D01*
X121035806Y-83024129D01*
X121270590Y-83024129D01*
X121272948Y-83092283D01*
X121287382Y-83195228D01*
X121310590Y-83246490D01*
X121326341Y-83242813D01*
X121344219Y-83178224D01*
X121350590Y-83048850D01*
X121346924Y-82956114D01*
X121332395Y-82862677D01*
X121310590Y-82826490D01*
X121296449Y-82839320D01*
X121277866Y-82910817D01*
X121270590Y-83024129D01*
X121035806Y-83024129D01*
X121034557Y-83003865D01*
X121036099Y-82887554D01*
X121058108Y-82812110D01*
X121106107Y-82750973D01*
X121219758Y-82683196D01*
X121363021Y-82673146D01*
X121501690Y-82728758D01*
X121532115Y-82753135D01*
X121569057Y-82808350D01*
X121586321Y-82896406D01*
X121590590Y-83040758D01*
X121590263Y-83048850D01*
X121585998Y-83154442D01*
G37*
G36*
X120938627Y-82709537D02*
G01*
X120968485Y-82729220D01*
X120983932Y-82781379D01*
X120989717Y-82881855D01*
X120990590Y-83046490D01*
X120989698Y-83209832D01*
X120983911Y-83310878D01*
X120968569Y-83363443D01*
X120939015Y-83383368D01*
X120890590Y-83386490D01*
X120873387Y-83386233D01*
X120818556Y-83372992D01*
X120794403Y-83323721D01*
X120787645Y-83216490D01*
X120784700Y-83046490D01*
X120719379Y-83216490D01*
X120683722Y-83298129D01*
X120630018Y-83367307D01*
X120562324Y-83386490D01*
X120522738Y-83383624D01*
X120493526Y-83364011D01*
X120477941Y-83311822D01*
X120471717Y-83211250D01*
X120470590Y-83046490D01*
X120471483Y-82883147D01*
X120477270Y-82782101D01*
X120492612Y-82729536D01*
X120522166Y-82709611D01*
X120570590Y-82706490D01*
X120622005Y-82710989D01*
X120661976Y-82746091D01*
X120672156Y-82836490D01*
X120673722Y-82966490D01*
X120730225Y-82836490D01*
X120742920Y-82809079D01*
X120804156Y-82729072D01*
X120888660Y-82706490D01*
X120889610Y-82706490D01*
X120938627Y-82709537D01*
G37*
G36*
X124362793Y-82683127D02*
G01*
X124470590Y-82746490D01*
X124512452Y-82813987D01*
X124545917Y-82944653D01*
X124553568Y-83093878D01*
X124534481Y-83230569D01*
X124487733Y-83323632D01*
X124481166Y-83329562D01*
X124391802Y-83370214D01*
X124270590Y-83386490D01*
X124120653Y-83360658D01*
X124024170Y-83284682D01*
X123990590Y-83163632D01*
X123993285Y-83123159D01*
X124024650Y-83077429D01*
X124110590Y-83066490D01*
X124164439Y-83069044D01*
X124218129Y-83095808D01*
X124230590Y-83168850D01*
X124240930Y-83232328D01*
X124270590Y-83246490D01*
X124284089Y-83226496D01*
X124303119Y-83143420D01*
X124310590Y-83024129D01*
X124307994Y-82954254D01*
X124293524Y-82862440D01*
X124270590Y-82826490D01*
X124247341Y-82841491D01*
X124230590Y-82906490D01*
X124229353Y-82927141D01*
X124198427Y-82973918D01*
X124110590Y-82986490D01*
X124060127Y-82984265D01*
X124003976Y-82958719D01*
X123990590Y-82888758D01*
X123990735Y-82881473D01*
X124028962Y-82777727D01*
X124119020Y-82705551D01*
X124237950Y-82671749D01*
X124362793Y-82683127D01*
G37*
G36*
X125321688Y-82706494D02*
G01*
X125401898Y-82712964D01*
X125425908Y-82748188D01*
X125411702Y-82836490D01*
X125409455Y-82846611D01*
X125391879Y-82934040D01*
X125386665Y-83003922D01*
X125394019Y-83088420D01*
X125414146Y-83219696D01*
X125425478Y-83293865D01*
X125426807Y-83362228D01*
X125397478Y-83384139D01*
X125326477Y-83379696D01*
X125294374Y-83374798D01*
X125222100Y-83336994D01*
X125188290Y-83246490D01*
X125165609Y-83126490D01*
X125134922Y-83256490D01*
X125116529Y-83319026D01*
X125072221Y-83373611D01*
X124987412Y-83386490D01*
X124983104Y-83386493D01*
X124908276Y-83384940D01*
X124878964Y-83367007D01*
X124889482Y-83313231D01*
X124934146Y-83204150D01*
X124957805Y-83138003D01*
X124976240Y-82965474D01*
X124929112Y-82776490D01*
X124922810Y-82757373D01*
X124933764Y-82716914D01*
X125007600Y-82706490D01*
X125084307Y-82721782D01*
X125149344Y-82796490D01*
X125185520Y-82886490D01*
X125188055Y-82796490D01*
X125191810Y-82760970D01*
X125226190Y-82717369D01*
X125315590Y-82706490D01*
X125321688Y-82706494D01*
G37*
G36*
X126238742Y-82714109D02*
G01*
X126266172Y-82716242D01*
X126362875Y-82732293D01*
X126409995Y-82769946D01*
X126432889Y-82846490D01*
X126455572Y-82966490D01*
X126486259Y-82836490D01*
X126489229Y-82824138D01*
X126517981Y-82745753D01*
X126570101Y-82713049D01*
X126673769Y-82706490D01*
X126830590Y-82706490D01*
X126830590Y-83046490D01*
X126829698Y-83209832D01*
X126823911Y-83310878D01*
X126808569Y-83363443D01*
X126779015Y-83383368D01*
X126730590Y-83386490D01*
X126686474Y-83383883D01*
X126648542Y-83361433D01*
X126631653Y-83298964D01*
X126625839Y-83176490D01*
X126621087Y-82966490D01*
X126582416Y-83178823D01*
X126570209Y-83242090D01*
X126543847Y-83335985D01*
X126510441Y-83375700D01*
X126459148Y-83378823D01*
X126410121Y-83359001D01*
X126365556Y-83293731D01*
X126327322Y-83166490D01*
X126280094Y-82966490D01*
X126275342Y-83179272D01*
X126272109Y-83271528D01*
X126260523Y-83350094D01*
X126232932Y-83379856D01*
X126180590Y-83379272D01*
X126150042Y-83372977D01*
X126116887Y-83350259D01*
X126097237Y-83297253D01*
X126086213Y-83197393D01*
X126078934Y-83034109D01*
X126067278Y-82701728D01*
X126238742Y-82714109D01*
G37*
G36*
X119449725Y-83241821D02*
G01*
X119405674Y-83325692D01*
X119327049Y-83368921D01*
X119176948Y-83378549D01*
X119103752Y-83369806D01*
X119013272Y-83333604D01*
X118951864Y-83256490D01*
X118920814Y-83194099D01*
X118917918Y-83166490D01*
X119150590Y-83166490D01*
X119160522Y-83232258D01*
X119190590Y-83266490D01*
X119216898Y-83241662D01*
X119230590Y-83166490D01*
X119220659Y-83100721D01*
X119190590Y-83066490D01*
X119164283Y-83091317D01*
X119150590Y-83166490D01*
X118917918Y-83166490D01*
X118913399Y-83123411D01*
X118952814Y-83036490D01*
X119020673Y-82955791D01*
X119122814Y-82928066D01*
X119133927Y-82928098D01*
X119209540Y-82910304D01*
X119230590Y-82850066D01*
X119230573Y-82845837D01*
X119220071Y-82796752D01*
X119182590Y-82818490D01*
X119137625Y-82846191D01*
X119056282Y-82864587D01*
X118982655Y-82859276D01*
X118950590Y-82828758D01*
X118963865Y-82796103D01*
X119029176Y-82736948D01*
X119121714Y-82687317D01*
X119210590Y-82666490D01*
X119283451Y-82680849D01*
X119381690Y-82728758D01*
X119403709Y-82745628D01*
X119445746Y-82800190D01*
X119465599Y-82885458D01*
X119470590Y-83025901D01*
X119469142Y-83096825D01*
X119459813Y-83166490D01*
X119449725Y-83241821D01*
G37*
G36*
X120070291Y-82932299D02*
G01*
X120052571Y-83060228D01*
X120000956Y-83127158D01*
X119906311Y-83146490D01*
X119896660Y-83146576D01*
X119815349Y-83163590D01*
X119793748Y-83216490D01*
X119799472Y-83250520D01*
X119817082Y-83236490D01*
X119822405Y-83227176D01*
X119879439Y-83195678D01*
X119962724Y-83187245D01*
X120037896Y-83201606D01*
X120070590Y-83238490D01*
X120065252Y-83267589D01*
X120022590Y-83338490D01*
X120007468Y-83349256D01*
X119921458Y-83375846D01*
X119803998Y-83386490D01*
X119760638Y-83385368D01*
X119655199Y-83363188D01*
X119591064Y-83302374D01*
X119559204Y-83189562D01*
X119550590Y-83011387D01*
X119550740Y-82982228D01*
X119557907Y-82874426D01*
X119795823Y-82874426D01*
X119801467Y-82976490D01*
X119807407Y-83000336D01*
X119822845Y-83025532D01*
X119848680Y-82976490D01*
X119859792Y-82932163D01*
X119848680Y-82836490D01*
X119838063Y-82812643D01*
X119817685Y-82787447D01*
X119801467Y-82836490D01*
X119795823Y-82874426D01*
X119557907Y-82874426D01*
X119559077Y-82856827D01*
X119585982Y-82780853D01*
X119639491Y-82728758D01*
X119715074Y-82689094D01*
X119810590Y-82666490D01*
X119816474Y-82666559D01*
X119942271Y-82702285D01*
X120034666Y-82788996D01*
X120070590Y-82905486D01*
X120070293Y-82932163D01*
X120070291Y-82932299D01*
G37*
G36*
X122903397Y-83114901D02*
G01*
X122913748Y-83218458D01*
X122913762Y-83218930D01*
X122921939Y-83280151D01*
X122937082Y-83276490D01*
X122960390Y-83249352D01*
X123033924Y-83226490D01*
X123077486Y-83215790D01*
X123110590Y-83166490D01*
X123103621Y-83138508D01*
X123050590Y-83106490D01*
X123015601Y-83091641D01*
X122990590Y-83026490D01*
X123001727Y-82979837D01*
X123050590Y-82946490D01*
X123078572Y-82939520D01*
X123110590Y-82886490D01*
X123095742Y-82851500D01*
X123030590Y-82826490D01*
X122983938Y-82815353D01*
X122950590Y-82766490D01*
X122969612Y-82730778D01*
X123037917Y-82711876D01*
X123170590Y-82706490D01*
X123390590Y-82706490D01*
X123390590Y-83019823D01*
X123390425Y-83055096D01*
X123385993Y-83200981D01*
X123376744Y-83309530D01*
X123364327Y-83359420D01*
X123359340Y-83362372D01*
X123294455Y-83373646D01*
X123175684Y-83380775D01*
X123024327Y-83382325D01*
X122922284Y-83380193D01*
X122796148Y-83370930D01*
X122729848Y-83352585D01*
X122710590Y-83322728D01*
X122703665Y-83296577D01*
X122650590Y-83266490D01*
X122622609Y-83273459D01*
X122590590Y-83326490D01*
X122563429Y-83369840D01*
X122466311Y-83386490D01*
X122379229Y-83374638D01*
X122361046Y-83336490D01*
X122362013Y-83333772D01*
X122378997Y-83265766D01*
X122403913Y-83145271D01*
X122424000Y-83037843D01*
X122636440Y-83037843D01*
X122644353Y-83117251D01*
X122645947Y-83120817D01*
X122658469Y-83114802D01*
X122662793Y-83046490D01*
X122662529Y-83034068D01*
X122655604Y-82980939D01*
X122642871Y-82997251D01*
X122636440Y-83037843D01*
X122424000Y-83037843D01*
X122431732Y-82996490D01*
X122483403Y-82706490D01*
X122653682Y-82706490D01*
X122823961Y-82706490D01*
X122867276Y-82908458D01*
X122880774Y-82975957D01*
X122892258Y-83046490D01*
X122903397Y-83114901D01*
G37*
G36*
X127450590Y-80417442D02*
G01*
X127450590Y-82326490D01*
X123430590Y-82348533D01*
X122731661Y-82352335D01*
X122043235Y-82355989D01*
X121427107Y-82359128D01*
X120879261Y-82361745D01*
X120395683Y-82363834D01*
X119972357Y-82365389D01*
X119605268Y-82366402D01*
X119290401Y-82366868D01*
X119023741Y-82366780D01*
X118801272Y-82366131D01*
X118618980Y-82364915D01*
X118472849Y-82363126D01*
X118358863Y-82360757D01*
X118273008Y-82357801D01*
X118211268Y-82354253D01*
X118169629Y-82350105D01*
X118144075Y-82345351D01*
X118130590Y-82339985D01*
X118129839Y-82339310D01*
X118119885Y-82287055D01*
X118111851Y-82156587D01*
X118109201Y-82066490D01*
X118470590Y-82066490D01*
X120330590Y-82066490D01*
X122190590Y-82066490D01*
X122197105Y-81656490D01*
X122199078Y-81533693D01*
X122203649Y-81246556D01*
X122206371Y-81026196D01*
X122206493Y-80862916D01*
X122203264Y-80747021D01*
X122195934Y-80668815D01*
X122183752Y-80618602D01*
X122165968Y-80586688D01*
X122141831Y-80563376D01*
X122110590Y-80538970D01*
X122063040Y-80498979D01*
X121959805Y-80408731D01*
X121827508Y-80290807D01*
X121683314Y-80160414D01*
X121560361Y-80048159D01*
X121411531Y-79914044D01*
X121298638Y-79820438D01*
X121206856Y-79760097D01*
X121121357Y-79725777D01*
X121027313Y-79710232D01*
X120909897Y-79706218D01*
X120754281Y-79706490D01*
X120350590Y-79706490D01*
X120350590Y-80846490D01*
X120350590Y-81986490D01*
X120070590Y-81986490D01*
X119790590Y-81986490D01*
X119790590Y-80846490D01*
X119790590Y-79706490D01*
X119474870Y-79706490D01*
X119313945Y-79709298D01*
X119202190Y-79725000D01*
X119141173Y-79763838D01*
X119115704Y-79836044D01*
X119110590Y-79951851D01*
X119107514Y-80018251D01*
X119084890Y-80053554D01*
X119022616Y-80063592D01*
X118900590Y-80058580D01*
X118690590Y-80046490D01*
X118690590Y-79606490D01*
X118690590Y-79166490D01*
X120100576Y-79155978D01*
X121510561Y-79145466D01*
X121870576Y-79500038D01*
X122230590Y-79854609D01*
X122230590Y-80180549D01*
X122230955Y-80231171D01*
X122236326Y-80371374D01*
X122246779Y-80468882D01*
X122260590Y-80505051D01*
X122263377Y-80504641D01*
X122315949Y-80475538D01*
X122316375Y-80475210D01*
X123045278Y-80475210D01*
X123099187Y-80535086D01*
X123126045Y-80561151D01*
X123165287Y-80585074D01*
X123210836Y-80576485D01*
X123281176Y-80529272D01*
X123394790Y-80437320D01*
X123530907Y-80325031D01*
X123630503Y-80239089D01*
X123684279Y-80182176D01*
X123700413Y-80142587D01*
X123687085Y-80108619D01*
X123652472Y-80068569D01*
X123634461Y-80049004D01*
X123596419Y-80019575D01*
X123554045Y-80023717D01*
X123488527Y-80067582D01*
X123381052Y-80157323D01*
X123282784Y-80240466D01*
X123174412Y-80330936D01*
X123100895Y-80390887D01*
X123048396Y-80436728D01*
X123045278Y-80475210D01*
X122316375Y-80475210D01*
X122394448Y-80415051D01*
X122477284Y-80345607D01*
X122625499Y-80223877D01*
X122799215Y-80082995D01*
X122977189Y-79940083D01*
X123138177Y-79812265D01*
X123260937Y-79716660D01*
X123328795Y-79667218D01*
X123425269Y-79615157D01*
X123530896Y-79592079D01*
X123680937Y-79587106D01*
X123930590Y-79587723D01*
X124110590Y-79848823D01*
X124217544Y-80002869D01*
X124315552Y-80142587D01*
X124346825Y-80187170D01*
X124460590Y-80347576D01*
X124466935Y-80356496D01*
X124549627Y-80482893D01*
X124608293Y-80590895D01*
X124630590Y-80657969D01*
X124615817Y-80700295D01*
X124554685Y-80796248D01*
X124444639Y-80941812D01*
X124284064Y-81139019D01*
X124071344Y-81389901D01*
X123804865Y-81696490D01*
X123585617Y-81946490D01*
X123904146Y-81946490D01*
X124222675Y-81946490D01*
X124436633Y-81696905D01*
X124453052Y-81677762D01*
X124570265Y-81541614D01*
X124678775Y-81416334D01*
X124756954Y-81326905D01*
X124766303Y-81316296D01*
X124861581Y-81206255D01*
X124945623Y-81106490D01*
X125027929Y-81006490D01*
X125029260Y-81476490D01*
X125030590Y-81946490D01*
X125690590Y-81946490D01*
X126350590Y-81946490D01*
X126350590Y-81746490D01*
X126350590Y-81546490D01*
X125950590Y-81546490D01*
X125550590Y-81546490D01*
X125550590Y-80571387D01*
X125550935Y-80353055D01*
X125552975Y-80085076D01*
X125557274Y-79882455D01*
X125564315Y-79736399D01*
X125574579Y-79638117D01*
X125588551Y-79578817D01*
X125606714Y-79549707D01*
X125666189Y-79527830D01*
X125801033Y-79514313D01*
X125996714Y-79514809D01*
X126330590Y-79526490D01*
X126342681Y-79736490D01*
X126354771Y-79946490D01*
X126552681Y-79946490D01*
X126750590Y-79946490D01*
X126750590Y-79546490D01*
X126750590Y-79146490D01*
X125890590Y-79146490D01*
X125030590Y-79146490D01*
X125029002Y-79656490D01*
X125027414Y-80166490D01*
X124852395Y-79976367D01*
X124822012Y-79942256D01*
X124708483Y-79803162D01*
X124581746Y-79634935D01*
X124463983Y-79466683D01*
X124250590Y-79147123D01*
X123659442Y-79146806D01*
X123068294Y-79146490D01*
X122659442Y-79484253D01*
X122250590Y-79822017D01*
X122239429Y-79304253D01*
X122228268Y-78786490D01*
X120375602Y-78786490D01*
X118522936Y-78786490D01*
X118496926Y-79296490D01*
X118490833Y-79447334D01*
X118484370Y-79683100D01*
X118478857Y-79967033D01*
X118474567Y-80281999D01*
X118471775Y-80610862D01*
X118470753Y-80936490D01*
X118470590Y-82066490D01*
X118109201Y-82066490D01*
X118105762Y-81949556D01*
X118101642Y-81667615D01*
X118099517Y-81312413D01*
X118099411Y-80885601D01*
X118101350Y-80388832D01*
X118112109Y-78463508D01*
X122781350Y-78485951D01*
X127450590Y-78508394D01*
X127450590Y-79146490D01*
X127450590Y-80417442D01*
G37*
G36*
X136138911Y-77706133D02*
G01*
X136152744Y-77711051D01*
X136173227Y-77719848D01*
X136197910Y-77731362D01*
X136224344Y-77744431D01*
X136250076Y-77757895D01*
X136272658Y-77770591D01*
X136297173Y-77785813D01*
X136331095Y-77808994D01*
X136364252Y-77833786D01*
X136394787Y-77858661D01*
X136420844Y-77882088D01*
X136440567Y-77902537D01*
X136452099Y-77918478D01*
X136460034Y-77940396D01*
X136464594Y-77966612D01*
X136465192Y-77992020D01*
X136461340Y-78011709D01*
X136458299Y-78017291D01*
X136452509Y-78021965D01*
X136452216Y-78021850D01*
X136445888Y-78016540D01*
X136432384Y-78003965D01*
X136412634Y-77985030D01*
X136387565Y-77960636D01*
X136358106Y-77931686D01*
X136325186Y-77899083D01*
X136289733Y-77863728D01*
X136282937Y-77856925D01*
X136248275Y-77822117D01*
X136216683Y-77790209D01*
X136189033Y-77762096D01*
X136166198Y-77738674D01*
X136149052Y-77720835D01*
X136138468Y-77709476D01*
X136135318Y-77705491D01*
X136138911Y-77706133D01*
G37*
G36*
X135124752Y-77109042D02*
G01*
X135209828Y-77194118D01*
X135152033Y-77231496D01*
X135131884Y-77244801D01*
X135064243Y-77293013D01*
X134996762Y-77346105D01*
X134934373Y-77400250D01*
X134917783Y-77415073D01*
X134897521Y-77432135D01*
X134880726Y-77445137D01*
X134869906Y-77452065D01*
X134860390Y-77454929D01*
X134839574Y-77457517D01*
X134814648Y-77457753D01*
X134800942Y-77456959D01*
X134782019Y-77454180D01*
X134767628Y-77448457D01*
X134753111Y-77438319D01*
X134746160Y-77432461D01*
X134721963Y-77403840D01*
X134708707Y-77371052D01*
X134706435Y-77334193D01*
X134706904Y-77329133D01*
X134709794Y-77311279D01*
X134715316Y-77295339D01*
X134724754Y-77279443D01*
X134739393Y-77261717D01*
X134760516Y-77240292D01*
X134789410Y-77213294D01*
X134805253Y-77199229D01*
X134833513Y-77175402D01*
X134866121Y-77148977D01*
X134900870Y-77121660D01*
X134935550Y-77095154D01*
X134967954Y-77071164D01*
X134995875Y-77051393D01*
X135017104Y-77037547D01*
X135039676Y-77023966D01*
X135124752Y-77109042D01*
G37*
G36*
X135451886Y-77436707D02*
G01*
X135461667Y-77446628D01*
X135486025Y-77471884D01*
X135506431Y-77493848D01*
X135521788Y-77511286D01*
X135530995Y-77522964D01*
X135532952Y-77527649D01*
X135529187Y-77529346D01*
X135516248Y-77535664D01*
X135497103Y-77545273D01*
X135474346Y-77556877D01*
X135456543Y-77566273D01*
X135388982Y-77606010D01*
X135319445Y-77652847D01*
X135251276Y-77704571D01*
X135249411Y-77706069D01*
X135225175Y-77724952D01*
X135202586Y-77741582D01*
X135184097Y-77754207D01*
X135172157Y-77761077D01*
X135152538Y-77767404D01*
X135120410Y-77769193D01*
X135089699Y-77761539D01*
X135062049Y-77745817D01*
X135039106Y-77723401D01*
X135022515Y-77695666D01*
X135013920Y-77663986D01*
X135014965Y-77629735D01*
X135015552Y-77626801D01*
X135021364Y-77607395D01*
X135028815Y-77591730D01*
X135038420Y-77579506D01*
X135059253Y-77558426D01*
X135087423Y-77533542D01*
X135121314Y-77506071D01*
X135159310Y-77477228D01*
X135199794Y-77448232D01*
X135241152Y-77420298D01*
X135281766Y-77394643D01*
X135320022Y-77372484D01*
X135364201Y-77348295D01*
X135451886Y-77436707D01*
G37*
G36*
X135946158Y-78123981D02*
G01*
X135957649Y-78126640D01*
X136007068Y-78144942D01*
X136049784Y-78172762D01*
X136085243Y-78209665D01*
X136112892Y-78255215D01*
X136120344Y-78271596D01*
X136126337Y-78288082D01*
X136129699Y-78304554D01*
X136131170Y-78324920D01*
X136131496Y-78353091D01*
X136131289Y-78377003D01*
X136130072Y-78398454D01*
X136127095Y-78415325D01*
X136121616Y-78431527D01*
X136112892Y-78450968D01*
X136108276Y-78460220D01*
X136079378Y-78503555D01*
X136042824Y-78538885D01*
X135999871Y-78565191D01*
X135951775Y-78581458D01*
X135931874Y-78585623D01*
X135911964Y-78588737D01*
X135895041Y-78589117D01*
X135876311Y-78586774D01*
X135850985Y-78581721D01*
X135840996Y-78579389D01*
X135792487Y-78561186D01*
X135750081Y-78533245D01*
X135714661Y-78496271D01*
X135687109Y-78450968D01*
X135679657Y-78434587D01*
X135673664Y-78418100D01*
X135670302Y-78401629D01*
X135668831Y-78381262D01*
X135668505Y-78353091D01*
X135668719Y-78328787D01*
X135669954Y-78307468D01*
X135672965Y-78290642D01*
X135678501Y-78274385D01*
X135687314Y-78254778D01*
X135692436Y-78244574D01*
X135721261Y-78201876D01*
X135757401Y-78167243D01*
X135799408Y-78141406D01*
X135845834Y-78125095D01*
X135895233Y-78119043D01*
X135946158Y-78123981D01*
G37*
G36*
X135702673Y-77695864D02*
G01*
X135713988Y-77704961D01*
X135731045Y-77719994D01*
X135752408Y-77739578D01*
X135776638Y-77762324D01*
X135802300Y-77786847D01*
X135827957Y-77811757D01*
X135852170Y-77835669D01*
X135873505Y-77857195D01*
X135890523Y-77874948D01*
X135901787Y-77887541D01*
X135905861Y-77893586D01*
X135905761Y-77893843D01*
X135899073Y-77896092D01*
X135883975Y-77898524D01*
X135863371Y-77900657D01*
X135848328Y-77902077D01*
X135809133Y-77908136D01*
X135771417Y-77918120D01*
X135731597Y-77933109D01*
X135686087Y-77954187D01*
X135634666Y-77982631D01*
X135563014Y-78033398D01*
X135561560Y-78034571D01*
X135537805Y-78052998D01*
X135515838Y-78068811D01*
X135498049Y-78080360D01*
X135486826Y-78085996D01*
X135462811Y-78090459D01*
X135427510Y-78087994D01*
X135394494Y-78075661D01*
X135366169Y-78054484D01*
X135344939Y-78025491D01*
X135338073Y-78005151D01*
X135335351Y-77975726D01*
X135338497Y-77945474D01*
X135347394Y-77919404D01*
X135357747Y-77904380D01*
X135378133Y-77882392D01*
X135405526Y-77857427D01*
X135438140Y-77830923D01*
X135474187Y-77804322D01*
X135511880Y-77779064D01*
X135549432Y-77756588D01*
X135562196Y-77749738D01*
X135587750Y-77737111D01*
X135615600Y-77724372D01*
X135643193Y-77712594D01*
X135667974Y-77702852D01*
X135687387Y-77696219D01*
X135698879Y-77693770D01*
X135702673Y-77695864D01*
G37*
G36*
X135972140Y-77216336D02*
G01*
X136082735Y-77229377D01*
X136193256Y-77254127D01*
X136303678Y-77290581D01*
X136413972Y-77338733D01*
X136423893Y-77343653D01*
X136473270Y-77369799D01*
X136522762Y-77398538D01*
X136571198Y-77428990D01*
X136617405Y-77460270D01*
X136660212Y-77491498D01*
X136698447Y-77521791D01*
X136730938Y-77550267D01*
X136756514Y-77576043D01*
X136774002Y-77598238D01*
X136782231Y-77615969D01*
X136784932Y-77628947D01*
X136787602Y-77642148D01*
X136787537Y-77665789D01*
X136778933Y-77693274D01*
X136763264Y-77719973D01*
X136742341Y-77742848D01*
X136717974Y-77758865D01*
X136697375Y-77766039D01*
X136662590Y-77769160D01*
X136629164Y-77761342D01*
X136628542Y-77761072D01*
X136615560Y-77753642D01*
X136596270Y-77740580D01*
X136573172Y-77723651D01*
X136548769Y-77704619D01*
X136505888Y-77671203D01*
X136441775Y-77625940D01*
X136376959Y-77586346D01*
X136307315Y-77549776D01*
X136290132Y-77541489D01*
X136223380Y-77512107D01*
X136160176Y-77489538D01*
X136096780Y-77472749D01*
X136029453Y-77460708D01*
X135954455Y-77452384D01*
X135871184Y-77445303D01*
X135770120Y-77344115D01*
X135749273Y-77323115D01*
X135723679Y-77296953D01*
X135702061Y-77274407D01*
X135685507Y-77256633D01*
X135675109Y-77244787D01*
X135671957Y-77240026D01*
X135672778Y-77239410D01*
X135683359Y-77235845D01*
X135702980Y-77231818D01*
X135729420Y-77227627D01*
X135760460Y-77223565D01*
X135793879Y-77219928D01*
X135827458Y-77217014D01*
X135858976Y-77215116D01*
X135861499Y-77215010D01*
X135972140Y-77216336D01*
G37*
G36*
X135989017Y-76773028D02*
G01*
X136121866Y-76786087D01*
X136253432Y-76810552D01*
X136383301Y-76846372D01*
X136511059Y-76893498D01*
X136636292Y-76951880D01*
X136758584Y-77021469D01*
X136771984Y-77030006D01*
X136807357Y-77053943D01*
X136846025Y-77081735D01*
X136886365Y-77112076D01*
X136926755Y-77143659D01*
X136965571Y-77175177D01*
X137001192Y-77205322D01*
X137031995Y-77232788D01*
X137056357Y-77256267D01*
X137072655Y-77274453D01*
X137073457Y-77275498D01*
X137089436Y-77305521D01*
X137095275Y-77338062D01*
X137091519Y-77370957D01*
X137078719Y-77402042D01*
X137057421Y-77429154D01*
X137028173Y-77450128D01*
X137024389Y-77451846D01*
X137002996Y-77457037D01*
X136976732Y-77458809D01*
X136950749Y-77457077D01*
X136930200Y-77451754D01*
X136923790Y-77448032D01*
X136908655Y-77437005D01*
X136889397Y-77421366D01*
X136868663Y-77403203D01*
X136839268Y-77377010D01*
X136733782Y-77291742D01*
X136625623Y-77217780D01*
X136514519Y-77154980D01*
X136400196Y-77103198D01*
X136282380Y-77062291D01*
X136160799Y-77032116D01*
X136088537Y-77020045D01*
X135980943Y-77010065D01*
X135870260Y-77008427D01*
X135759408Y-77015032D01*
X135651307Y-77029783D01*
X135548875Y-77052583D01*
X135493711Y-77067568D01*
X135403824Y-76977821D01*
X135393058Y-76967047D01*
X135367775Y-76941535D01*
X135346022Y-76919290D01*
X135328997Y-76901556D01*
X135317902Y-76889578D01*
X135313937Y-76884602D01*
X135314097Y-76884315D01*
X135321015Y-76880721D01*
X135336646Y-76874432D01*
X135358910Y-76866249D01*
X135385730Y-76856972D01*
X135453089Y-76835836D01*
X135586922Y-76802778D01*
X135721131Y-76781324D01*
X135855301Y-76771424D01*
X135989017Y-76773028D01*
G37*
G36*
X134937900Y-76612297D02*
G01*
X134939022Y-76612587D01*
X134942675Y-76614300D01*
X134947852Y-76617688D01*
X134954873Y-76623065D01*
X134964061Y-76630748D01*
X134975737Y-76641051D01*
X134990223Y-76654290D01*
X135007841Y-76670780D01*
X135028912Y-76690836D01*
X135053758Y-76714774D01*
X135082701Y-76742910D01*
X135116063Y-76775558D01*
X135154165Y-76813034D01*
X135197329Y-76855654D01*
X135245877Y-76903732D01*
X135300130Y-76957585D01*
X135360411Y-77017527D01*
X135427040Y-77083873D01*
X135500341Y-77156940D01*
X135580633Y-77237043D01*
X135668240Y-77324496D01*
X135763483Y-77419616D01*
X135866683Y-77522717D01*
X135880885Y-77536908D01*
X135966838Y-77622834D01*
X136050577Y-77706612D01*
X136131722Y-77787860D01*
X136209893Y-77866195D01*
X136284710Y-77941233D01*
X136355791Y-78012591D01*
X136422758Y-78079887D01*
X136485229Y-78142737D01*
X136542824Y-78200758D01*
X136595163Y-78253567D01*
X136641865Y-78300780D01*
X136682550Y-78342015D01*
X136716838Y-78376889D01*
X136744348Y-78405018D01*
X136764700Y-78426019D01*
X136777513Y-78439509D01*
X136782408Y-78445105D01*
X136785869Y-78452720D01*
X136790676Y-78479797D01*
X136786130Y-78507501D01*
X136773454Y-78533075D01*
X136753864Y-78553761D01*
X136728581Y-78566803D01*
X136726456Y-78567477D01*
X136721377Y-78569325D01*
X136716716Y-78571048D01*
X136712137Y-78572333D01*
X136707304Y-78572867D01*
X136701882Y-78572336D01*
X136695536Y-78570427D01*
X136687930Y-78566827D01*
X136678729Y-78561222D01*
X136667597Y-78553300D01*
X136654198Y-78542746D01*
X136638197Y-78529247D01*
X136619260Y-78512491D01*
X136597049Y-78492163D01*
X136571230Y-78467951D01*
X136541467Y-78439541D01*
X136507424Y-78406620D01*
X136468767Y-78368874D01*
X136425160Y-78325990D01*
X136376267Y-78277655D01*
X136321753Y-78223555D01*
X136261281Y-78163378D01*
X136194518Y-78096809D01*
X136121127Y-78023536D01*
X136040773Y-77943245D01*
X135953119Y-77855622D01*
X135857832Y-77760356D01*
X135754575Y-77657131D01*
X135742669Y-77645229D01*
X135656813Y-77559367D01*
X135573160Y-77475643D01*
X135492092Y-77394440D01*
X135413989Y-77316143D01*
X135339232Y-77241135D01*
X135268202Y-77169801D01*
X135201280Y-77102523D01*
X135138847Y-77039685D01*
X135081283Y-76981673D01*
X135028969Y-76928868D01*
X134982287Y-76881656D01*
X134941617Y-76840420D01*
X134907340Y-76805544D01*
X134879837Y-76777411D01*
X134859489Y-76756405D01*
X134846677Y-76742911D01*
X134841781Y-76737312D01*
X134833596Y-76713246D01*
X134833922Y-76685821D01*
X134843037Y-76660081D01*
X134859466Y-76637942D01*
X134881735Y-76621320D01*
X134908371Y-76612133D01*
X134937900Y-76612297D01*
G37*
%TD*%
M02*
