%TF.GenerationSoftware,KiCad,Pcbnew,9.0.7-9.0.7~ubuntu22.04.1*%
%TF.CreationDate,2026-01-23T00:01:14+05:30*%
%TF.ProjectId,TWIN_NODE2,5457494e-5f4e-44f4-9445-322e6b696361,rev?*%
%TF.SameCoordinates,Original*%
%TF.FileFunction,Copper,L2,Bot*%
%TF.FilePolarity,Positive*%
%FSLAX46Y46*%
G04 Gerber Fmt 4.6, Leading zero omitted, Abs format (unit mm)*
G04 Created by KiCad (PCBNEW 9.0.7-9.0.7~ubuntu22.04.1) date 2026-01-23 00:01:14*
%MOMM*%
%LPD*%
G01*
G04 APERTURE LIST*
G04 Aperture macros list*
%AMRoundRect*
0 Rectangle with rounded corners*
0 $1 Rounding radius*
0 $2 $3 $4 $5 $6 $7 $8 $9 X,Y pos of 4 corners*
0 Add a 4 corners polygon primitive as box body*
4,1,4,$2,$3,$4,$5,$6,$7,$8,$9,$2,$3,0*
0 Add four circle primitives for the rounded corners*
1,1,$1+$1,$2,$3*
1,1,$1+$1,$4,$5*
1,1,$1+$1,$6,$7*
1,1,$1+$1,$8,$9*
0 Add four rect primitives between the rounded corners*
20,1,$1+$1,$2,$3,$4,$5,0*
20,1,$1+$1,$4,$5,$6,$7,0*
20,1,$1+$1,$6,$7,$8,$9,0*
20,1,$1+$1,$8,$9,$2,$3,0*%
G04 Aperture macros list end*
%TA.AperFunction,ComponentPad*%
%ADD10C,0.800000*%
%TD*%
%TA.AperFunction,ComponentPad*%
%ADD11C,6.400000*%
%TD*%
%TA.AperFunction,ComponentPad*%
%ADD12RoundRect,0.250000X0.550000X0.550000X-0.550000X0.550000X-0.550000X-0.550000X0.550000X-0.550000X0*%
%TD*%
%TA.AperFunction,ComponentPad*%
%ADD13C,1.600000*%
%TD*%
%TA.AperFunction,ComponentPad*%
%ADD14RoundRect,0.250000X0.550000X-0.550000X0.550000X0.550000X-0.550000X0.550000X-0.550000X-0.550000X0*%
%TD*%
%TA.AperFunction,HeatsinkPad*%
%ADD15C,0.800000*%
%TD*%
%TA.AperFunction,HeatsinkPad*%
%ADD16R,1.900000X2.900000*%
%TD*%
%TA.AperFunction,ViaPad*%
%ADD17C,0.800000*%
%TD*%
%TA.AperFunction,Conductor*%
%ADD18C,0.400000*%
%TD*%
%TA.AperFunction,Conductor*%
%ADD19C,0.500000*%
%TD*%
%TA.AperFunction,Conductor*%
%ADD20C,0.300000*%
%TD*%
%TA.AperFunction,Conductor*%
%ADD21C,0.700000*%
%TD*%
G04 APERTURE END LIST*
D10*
%TO.P,H2,1,1*%
%TO.N,GND*%
X148200000Y-93500000D03*
X148902944Y-91802944D03*
X148902944Y-95197056D03*
X150600000Y-91100000D03*
D11*
X150600000Y-93500000D03*
D10*
X150600000Y-95900000D03*
X152297056Y-91802944D03*
X152297056Y-95197056D03*
X153000000Y-93500000D03*
%TD*%
D12*
%TO.P,J1,1,Pin_1*%
%TO.N,/3V3*%
X134500000Y-82500000D03*
D13*
%TO.P,J1,2,Pin_2*%
%TO.N,/NEG_BUZZ*%
X130900000Y-82500000D03*
%TD*%
D12*
%TO.P,D4,1,K*%
%TO.N,GND*%
X146100000Y-86500000D03*
D13*
%TO.P,D4,2,A*%
%TO.N,Net-(D4-A)*%
X142500000Y-86500000D03*
%TD*%
D14*
%TO.P,D1,1,K*%
%TO.N,Net-(D1-K)*%
X134400000Y-95500000D03*
D13*
%TO.P,D1,2,A*%
%TO.N,Net-(D1-A)*%
X134400000Y-91900000D03*
%TD*%
D12*
%TO.P,D5,1,K*%
%TO.N,GND*%
X146100000Y-89500000D03*
D13*
%TO.P,D5,2,A*%
%TO.N,Net-(D5-A)*%
X142500000Y-89500000D03*
%TD*%
D12*
%TO.P,D3,1,K*%
%TO.N,GND*%
X146100000Y-83500000D03*
D13*
%TO.P,D3,2,A*%
%TO.N,Net-(D3-A)*%
X142500000Y-83500000D03*
%TD*%
D12*
%TO.P,D2,1,K*%
%TO.N,GND*%
X146100000Y-80500000D03*
D13*
%TO.P,D2,2,A*%
%TO.N,Net-(D2-A)*%
X142500000Y-80500000D03*
%TD*%
D10*
%TO.P,H3,1,1*%
%TO.N,GND*%
X109427944Y-80997056D03*
X110130888Y-79300000D03*
X110130888Y-82694112D03*
X111827944Y-78597056D03*
D11*
X111827944Y-80997056D03*
D10*
X111827944Y-83397056D03*
X113525000Y-79300000D03*
X113525000Y-82694112D03*
X114227944Y-80997056D03*
%TD*%
%TO.P,H1,1,1*%
%TO.N,GND*%
X148000000Y-66000000D03*
X148702944Y-64302944D03*
X148702944Y-67697056D03*
X150400000Y-63600000D03*
D11*
X150400000Y-66000000D03*
D10*
X150400000Y-68400000D03*
X152097056Y-64302944D03*
X152097056Y-67697056D03*
X152800000Y-66000000D03*
%TD*%
D15*
%TO.P,U2,9,EPAD*%
%TO.N,GND*%
X122225000Y-92395000D03*
X122225000Y-93595000D03*
X122225000Y-94795000D03*
D16*
X122925000Y-93595000D03*
D15*
X123625000Y-92395000D03*
X123625000Y-93595000D03*
X123625000Y-94795000D03*
%TD*%
D17*
%TO.N,Net-(C6-Pad1)*%
X118600000Y-63400000D03*
%TO.N,/USB*%
X119500000Y-90500000D03*
X119000000Y-95500000D03*
%TO.N,GND*%
X147500000Y-70500000D03*
X127000000Y-87500000D03*
X129500000Y-94000000D03*
X118000000Y-90500000D03*
%TO.N,/BAT*%
X123000000Y-85000000D03*
X132500000Y-94500000D03*
%TO.N,Net-(U3-VCC)*%
X130419616Y-88756001D03*
X134000000Y-93500000D03*
%TO.N,/3V3*%
X128500000Y-76000000D03*
X146500000Y-75800000D03*
X135500000Y-84500000D03*
%TO.N,/RX*%
X141000000Y-66500000D03*
X147000000Y-73671752D03*
%TO.N,/TX*%
X141000000Y-65000000D03*
X150000000Y-74000000D03*
%TO.N,/BUZZ*%
X126000000Y-80500000D03*
X126000000Y-72500000D03*
%TO.N,/LED2*%
X136500000Y-82500000D03*
X136500000Y-76500000D03*
%TO.N,/LED3*%
X127500000Y-72500000D03*
X135500000Y-86000000D03*
%TO.N,/LED4*%
X126800000Y-75000000D03*
X135500000Y-88500000D03*
%TO.N,Net-(C6-Pad1)*%
X115225000Y-67000000D03*
%TD*%
D18*
%TO.N,Net-(C6-Pad1)*%
X118600000Y-63400000D02*
X115225000Y-66775000D01*
X115225000Y-66775000D02*
X115225000Y-67000000D01*
D19*
%TO.N,/USB*%
X119000000Y-91000000D02*
X119000000Y-95500000D01*
X119500000Y-90500000D02*
X119000000Y-91000000D01*
D20*
%TO.N,GND*%
X150400000Y-67600000D02*
X147500000Y-70500000D01*
X150400000Y-66000000D02*
X150400000Y-67600000D01*
D21*
%TO.N,/BAT*%
X129000000Y-91000000D02*
X131500000Y-91000000D01*
X131500000Y-91000000D02*
X132500000Y-92000000D01*
X132500000Y-94500000D02*
X132500000Y-92000000D01*
X123000000Y-85000000D02*
X129000000Y-91000000D01*
D18*
%TO.N,Net-(U3-VCC)*%
X136000000Y-93000000D02*
X135500000Y-93500000D01*
X136000000Y-91500000D02*
X136000000Y-93000000D01*
X130419616Y-88756001D02*
X132163615Y-90500000D01*
X132163615Y-90500000D02*
X135000000Y-90500000D01*
X135000000Y-90500000D02*
X136000000Y-91500000D01*
X135500000Y-93500000D02*
X134000000Y-93500000D01*
D21*
%TO.N,/3V3*%
X134500000Y-80000000D02*
X134500000Y-82500000D01*
X130500000Y-76000000D02*
X134500000Y-80000000D01*
X145000000Y-79000000D02*
X146500000Y-77500000D01*
X135500000Y-84500000D02*
X136000000Y-84500000D01*
X141500000Y-79000000D02*
X145000000Y-79000000D01*
X128500000Y-76000000D02*
X130500000Y-76000000D01*
X146500000Y-77500000D02*
X146500000Y-75800000D01*
X136000000Y-84500000D02*
X141500000Y-79000000D01*
D18*
%TO.N,/RX*%
X141000000Y-68000000D02*
X141000000Y-66500000D01*
X146671752Y-73671752D02*
X141000000Y-68000000D01*
X147000000Y-73671752D02*
X146671752Y-73671752D01*
%TO.N,/TX*%
X150500000Y-71500000D02*
X150699000Y-71699000D01*
X150699000Y-73301000D02*
X150000000Y-74000000D01*
X142000000Y-68150058D02*
X145349942Y-71500000D01*
X142000000Y-66000000D02*
X142000000Y-68150058D01*
X145349942Y-71500000D02*
X150500000Y-71500000D01*
X150699000Y-71699000D02*
X150699000Y-73301000D01*
X141000000Y-65000000D02*
X142000000Y-66000000D01*
%TO.N,/BUZZ*%
X126000000Y-72500000D02*
X126000000Y-80500000D01*
%TO.N,/LED2*%
X136500000Y-76500000D02*
X136500000Y-82500000D01*
%TO.N,/LED3*%
X131000000Y-86000000D02*
X135500000Y-86000000D01*
X127699000Y-82699000D02*
X131000000Y-86000000D01*
X127699000Y-72699000D02*
X127699000Y-82699000D01*
X127500000Y-72500000D02*
X127699000Y-72699000D01*
%TO.N,/LED4*%
X127000000Y-83000000D02*
X132000000Y-88000000D01*
X126800000Y-75000000D02*
X127000000Y-75200000D01*
X127000000Y-75200000D02*
X127000000Y-80500000D01*
X132000000Y-88000000D02*
X132500000Y-88500000D01*
X132500000Y-88500000D02*
X135500000Y-88500000D01*
X127000000Y-80500000D02*
X127000000Y-83000000D01*
%TD*%
%TA.AperFunction,Conductor*%
%TO.N,GND*%
G36*
X150503032Y-62500648D02*
G01*
X150836929Y-62517052D01*
X150849037Y-62518245D01*
X150952146Y-62533539D01*
X151176699Y-62566849D01*
X151188617Y-62569219D01*
X151509951Y-62649709D01*
X151521588Y-62653240D01*
X151592806Y-62678722D01*
X151833467Y-62764832D01*
X151844688Y-62769479D01*
X152144163Y-62911120D01*
X152154871Y-62916844D01*
X152438988Y-63087137D01*
X152449103Y-63093895D01*
X152606004Y-63210261D01*
X152715170Y-63291224D01*
X152724576Y-63298944D01*
X152970013Y-63521395D01*
X152978604Y-63529986D01*
X153068709Y-63629401D01*
X153201055Y-63775423D01*
X153208775Y-63784829D01*
X153406102Y-64050893D01*
X153412862Y-64061011D01*
X153541776Y-64276092D01*
X153583148Y-64345116D01*
X153588883Y-64355844D01*
X153697422Y-64585331D01*
X153730514Y-64655297D01*
X153735170Y-64666540D01*
X153846759Y-64978411D01*
X153850292Y-64990055D01*
X153930777Y-65311369D01*
X153933151Y-65323305D01*
X153981754Y-65650962D01*
X153982947Y-65663071D01*
X153999351Y-65996966D01*
X153999500Y-66003051D01*
X153999500Y-93496948D01*
X153999351Y-93503033D01*
X153982947Y-93836928D01*
X153981754Y-93849037D01*
X153933151Y-94176694D01*
X153930777Y-94188630D01*
X153850292Y-94509944D01*
X153846759Y-94521588D01*
X153735170Y-94833459D01*
X153730514Y-94844702D01*
X153588885Y-95144151D01*
X153583148Y-95154883D01*
X153412862Y-95438988D01*
X153406102Y-95449106D01*
X153208775Y-95715170D01*
X153201055Y-95724576D01*
X152978611Y-95970006D01*
X152970006Y-95978611D01*
X152724576Y-96201055D01*
X152715170Y-96208775D01*
X152449106Y-96406102D01*
X152438988Y-96412862D01*
X152154883Y-96583148D01*
X152144151Y-96588885D01*
X151844702Y-96730514D01*
X151833459Y-96735170D01*
X151521588Y-96846759D01*
X151509944Y-96850292D01*
X151188630Y-96930777D01*
X151176695Y-96933151D01*
X150849039Y-96981754D01*
X150836928Y-96982947D01*
X150503048Y-96999349D01*
X150496939Y-96999498D01*
X109824030Y-96991366D01*
X109815938Y-96991364D01*
X109815892Y-96991352D01*
X109754850Y-96991352D01*
X109754846Y-96991350D01*
X109745147Y-96990970D01*
X109712176Y-96988375D01*
X109548623Y-96975502D01*
X109529406Y-96972458D01*
X109342479Y-96927581D01*
X109323976Y-96921569D01*
X109146369Y-96848001D01*
X109129032Y-96839167D01*
X108965120Y-96738719D01*
X108949378Y-96727281D01*
X108803199Y-96602429D01*
X108789441Y-96588671D01*
X108751367Y-96544091D01*
X108664591Y-96442486D01*
X108653163Y-96426756D01*
X108552711Y-96262828D01*
X108543886Y-96245508D01*
X108470322Y-96067897D01*
X108464309Y-96049392D01*
X108419434Y-95862456D01*
X108416391Y-95843237D01*
X108413629Y-95808127D01*
X108400881Y-95646105D01*
X108400500Y-95636389D01*
X108400502Y-95575973D01*
X108400500Y-95575965D01*
X108400500Y-95564071D01*
X118349499Y-95564071D01*
X118374497Y-95689738D01*
X118374499Y-95689744D01*
X118423533Y-95808124D01*
X118423538Y-95808133D01*
X118494723Y-95914668D01*
X118494726Y-95914672D01*
X118585327Y-96005273D01*
X118585331Y-96005276D01*
X118691866Y-96076461D01*
X118691872Y-96076464D01*
X118691873Y-96076465D01*
X118810256Y-96125501D01*
X118810260Y-96125501D01*
X118810261Y-96125502D01*
X118935928Y-96150500D01*
X118935931Y-96150500D01*
X119064071Y-96150500D01*
X119148615Y-96133682D01*
X119189744Y-96125501D01*
X119308127Y-96076465D01*
X119414669Y-96005276D01*
X119505276Y-95914669D01*
X119576465Y-95808127D01*
X119625501Y-95689744D01*
X119636114Y-95636389D01*
X119646242Y-95585476D01*
X121788075Y-95585476D01*
X121788075Y-95585477D01*
X121798684Y-95592567D01*
X121798689Y-95592569D01*
X121962479Y-95660413D01*
X121962487Y-95660415D01*
X122136353Y-95694999D01*
X122136357Y-95695000D01*
X122313643Y-95695000D01*
X122313646Y-95694999D01*
X122487512Y-95660415D01*
X122487524Y-95660412D01*
X122651306Y-95592572D01*
X122661923Y-95585476D01*
X123188075Y-95585476D01*
X123188075Y-95585477D01*
X123198684Y-95592567D01*
X123198689Y-95592569D01*
X123362479Y-95660413D01*
X123362487Y-95660415D01*
X123536353Y-95694999D01*
X123536357Y-95695000D01*
X123713643Y-95695000D01*
X123713646Y-95694999D01*
X123887512Y-95660415D01*
X123887524Y-95660412D01*
X124051306Y-95592572D01*
X124061922Y-95585476D01*
X124061923Y-95585476D01*
X123625001Y-95148554D01*
X123625000Y-95148554D01*
X123188075Y-95585476D01*
X122661923Y-95585476D01*
X122225001Y-95148554D01*
X122225000Y-95148554D01*
X121788075Y-95585476D01*
X119646242Y-95585476D01*
X119650500Y-95564071D01*
X119650500Y-95435928D01*
X119625502Y-95310261D01*
X119625501Y-95310260D01*
X119625501Y-95310256D01*
X119576465Y-95191873D01*
X119576464Y-95191871D01*
X119576458Y-95191861D01*
X119521398Y-95109457D01*
X119500520Y-95042780D01*
X119500500Y-95040567D01*
X119500500Y-94706353D01*
X121325000Y-94706353D01*
X121325000Y-94883646D01*
X121359584Y-95057512D01*
X121359586Y-95057520D01*
X121427430Y-95221311D01*
X121434522Y-95231923D01*
X121871446Y-94795000D01*
X121836636Y-94760190D01*
X122050000Y-94760190D01*
X122050000Y-94829810D01*
X122076643Y-94894129D01*
X122125871Y-94943357D01*
X122190190Y-94970000D01*
X122259810Y-94970000D01*
X122324129Y-94943357D01*
X122373357Y-94894129D01*
X122400000Y-94829810D01*
X122400000Y-94795000D01*
X122578554Y-94795000D01*
X122925000Y-95141446D01*
X123271446Y-94795000D01*
X123236636Y-94760190D01*
X123450000Y-94760190D01*
X123450000Y-94829810D01*
X123476643Y-94894129D01*
X123525871Y-94943357D01*
X123590190Y-94970000D01*
X123659810Y-94970000D01*
X123724129Y-94943357D01*
X123773357Y-94894129D01*
X123800000Y-94829810D01*
X123800000Y-94794999D01*
X123978554Y-94794999D01*
X123978554Y-94795001D01*
X124415476Y-95231923D01*
X124415476Y-95231922D01*
X124422572Y-95221306D01*
X124490412Y-95057524D01*
X124490415Y-95057512D01*
X124524999Y-94883646D01*
X124525000Y-94883643D01*
X124525000Y-94706357D01*
X124524999Y-94706353D01*
X124490415Y-94532487D01*
X124490413Y-94532479D01*
X124422569Y-94368689D01*
X124422567Y-94368684D01*
X124415477Y-94358075D01*
X123978554Y-94794999D01*
X123800000Y-94794999D01*
X123800000Y-94760190D01*
X123773357Y-94695871D01*
X123724129Y-94646643D01*
X123659810Y-94620000D01*
X123590190Y-94620000D01*
X123525871Y-94646643D01*
X123476643Y-94695871D01*
X123450000Y-94760190D01*
X123236636Y-94760190D01*
X122925000Y-94448554D01*
X122578554Y-94795000D01*
X122400000Y-94795000D01*
X122400000Y-94760190D01*
X122373357Y-94695871D01*
X122324129Y-94646643D01*
X122259810Y-94620000D01*
X122190190Y-94620000D01*
X122125871Y-94646643D01*
X122076643Y-94695871D01*
X122050000Y-94760190D01*
X121836636Y-94760190D01*
X121434522Y-94358076D01*
X121434521Y-94358076D01*
X121427429Y-94368691D01*
X121359586Y-94532479D01*
X121359584Y-94532487D01*
X121325000Y-94706353D01*
X119500500Y-94706353D01*
X119500500Y-94195000D01*
X121978554Y-94195000D01*
X122225000Y-94441446D01*
X122471446Y-94195000D01*
X123378554Y-94195000D01*
X123625000Y-94441446D01*
X123871446Y-94195000D01*
X123625000Y-93948554D01*
X123378554Y-94195000D01*
X122471446Y-94195000D01*
X122225000Y-93948554D01*
X121978554Y-94195000D01*
X119500500Y-94195000D01*
X119500500Y-93506353D01*
X121325000Y-93506353D01*
X121325000Y-93683646D01*
X121359584Y-93857512D01*
X121359586Y-93857520D01*
X121427430Y-94021311D01*
X121434522Y-94031922D01*
X121871446Y-93595000D01*
X121836636Y-93560190D01*
X122050000Y-93560190D01*
X122050000Y-93629810D01*
X122076643Y-93694129D01*
X122125871Y-93743357D01*
X122190190Y-93770000D01*
X122259810Y-93770000D01*
X122324129Y-93743357D01*
X122373357Y-93694129D01*
X122400000Y-93629810D01*
X122400000Y-93595000D01*
X122578554Y-93595000D01*
X122925000Y-93941446D01*
X123271446Y-93595000D01*
X123236636Y-93560190D01*
X123450000Y-93560190D01*
X123450000Y-93629810D01*
X123476643Y-93694129D01*
X123525871Y-93743357D01*
X123590190Y-93770000D01*
X123659810Y-93770000D01*
X123724129Y-93743357D01*
X123773357Y-93694129D01*
X123800000Y-93629810D01*
X123800000Y-93594999D01*
X123978554Y-93594999D01*
X123978554Y-93595001D01*
X124415476Y-94031923D01*
X124415476Y-94031922D01*
X124422572Y-94021306D01*
X124490412Y-93857524D01*
X124490415Y-93857512D01*
X124524999Y-93683646D01*
X124525000Y-93683643D01*
X124525000Y-93506357D01*
X124524999Y-93506353D01*
X124490415Y-93332487D01*
X124490413Y-93332479D01*
X124422569Y-93168689D01*
X124422567Y-93168684D01*
X124415477Y-93158075D01*
X123978554Y-93594999D01*
X123800000Y-93594999D01*
X123800000Y-93560190D01*
X123773357Y-93495871D01*
X123724129Y-93446643D01*
X123659810Y-93420000D01*
X123590190Y-93420000D01*
X123525871Y-93446643D01*
X123476643Y-93495871D01*
X123450000Y-93560190D01*
X123236636Y-93560190D01*
X122925000Y-93248554D01*
X122578554Y-93595000D01*
X122400000Y-93595000D01*
X122400000Y-93560190D01*
X122373357Y-93495871D01*
X122324129Y-93446643D01*
X122259810Y-93420000D01*
X122190190Y-93420000D01*
X122125871Y-93446643D01*
X122076643Y-93495871D01*
X122050000Y-93560190D01*
X121836636Y-93560190D01*
X121434522Y-93158076D01*
X121434521Y-93158076D01*
X121427429Y-93168691D01*
X121359586Y-93332479D01*
X121359584Y-93332487D01*
X121325000Y-93506353D01*
X119500500Y-93506353D01*
X119500500Y-92995000D01*
X121978554Y-92995000D01*
X122225000Y-93241446D01*
X122471446Y-92995000D01*
X123378554Y-92995000D01*
X123625000Y-93241446D01*
X123871446Y-92995000D01*
X123625000Y-92748554D01*
X123378554Y-92995000D01*
X122471446Y-92995000D01*
X122225000Y-92748554D01*
X121978554Y-92995000D01*
X119500500Y-92995000D01*
X119500500Y-92306353D01*
X121325000Y-92306353D01*
X121325000Y-92483646D01*
X121359584Y-92657512D01*
X121359586Y-92657520D01*
X121427430Y-92821311D01*
X121434522Y-92831922D01*
X121871446Y-92395000D01*
X121836636Y-92360190D01*
X122050000Y-92360190D01*
X122050000Y-92429810D01*
X122076643Y-92494129D01*
X122125871Y-92543357D01*
X122190190Y-92570000D01*
X122259810Y-92570000D01*
X122324129Y-92543357D01*
X122373357Y-92494129D01*
X122400000Y-92429810D01*
X122400000Y-92395000D01*
X122578554Y-92395000D01*
X122925000Y-92741446D01*
X123271446Y-92395000D01*
X123236636Y-92360190D01*
X123450000Y-92360190D01*
X123450000Y-92429810D01*
X123476643Y-92494129D01*
X123525871Y-92543357D01*
X123590190Y-92570000D01*
X123659810Y-92570000D01*
X123724129Y-92543357D01*
X123773357Y-92494129D01*
X123800000Y-92429810D01*
X123800000Y-92394999D01*
X123978554Y-92394999D01*
X123978554Y-92395001D01*
X124415476Y-92831923D01*
X124415476Y-92831922D01*
X124422572Y-92821306D01*
X124490412Y-92657524D01*
X124490415Y-92657512D01*
X124524999Y-92483646D01*
X124525000Y-92483643D01*
X124525000Y-92306357D01*
X124524999Y-92306353D01*
X124490415Y-92132487D01*
X124490413Y-92132479D01*
X124422569Y-91968689D01*
X124422567Y-91968684D01*
X124415477Y-91958075D01*
X123978554Y-92394999D01*
X123800000Y-92394999D01*
X123800000Y-92360190D01*
X123773357Y-92295871D01*
X123724129Y-92246643D01*
X123659810Y-92220000D01*
X123590190Y-92220000D01*
X123525871Y-92246643D01*
X123476643Y-92295871D01*
X123450000Y-92360190D01*
X123236636Y-92360190D01*
X122925000Y-92048554D01*
X122578554Y-92395000D01*
X122400000Y-92395000D01*
X122400000Y-92360190D01*
X122373357Y-92295871D01*
X122324129Y-92246643D01*
X122259810Y-92220000D01*
X122190190Y-92220000D01*
X122125871Y-92246643D01*
X122076643Y-92295871D01*
X122050000Y-92360190D01*
X121836636Y-92360190D01*
X121434522Y-91958076D01*
X121434521Y-91958076D01*
X121427429Y-91968691D01*
X121359586Y-92132479D01*
X121359584Y-92132487D01*
X121325000Y-92306353D01*
X119500500Y-92306353D01*
X119500500Y-91604521D01*
X121788076Y-91604521D01*
X121788076Y-91604522D01*
X122225000Y-92041446D01*
X122225001Y-92041446D01*
X122661923Y-91604522D01*
X122661922Y-91604521D01*
X123188076Y-91604521D01*
X123188076Y-91604522D01*
X123625000Y-92041446D01*
X123625001Y-92041446D01*
X124061923Y-91604522D01*
X124051311Y-91597430D01*
X123887520Y-91529586D01*
X123887512Y-91529584D01*
X123713646Y-91495000D01*
X123536353Y-91495000D01*
X123362487Y-91529584D01*
X123362479Y-91529586D01*
X123198691Y-91597429D01*
X123188076Y-91604521D01*
X122661922Y-91604521D01*
X122651311Y-91597430D01*
X122487520Y-91529586D01*
X122487512Y-91529584D01*
X122313646Y-91495000D01*
X122136353Y-91495000D01*
X121962487Y-91529584D01*
X121962479Y-91529586D01*
X121798691Y-91597429D01*
X121788076Y-91604521D01*
X119500500Y-91604521D01*
X119500500Y-91264908D01*
X119520185Y-91197869D01*
X119572989Y-91152114D01*
X119600307Y-91143291D01*
X119689744Y-91125501D01*
X119808127Y-91076465D01*
X119914669Y-91005276D01*
X120005276Y-90914669D01*
X120076465Y-90808127D01*
X120125501Y-90689744D01*
X120133682Y-90648615D01*
X120150500Y-90564071D01*
X120150500Y-90435928D01*
X120125502Y-90310261D01*
X120125501Y-90310260D01*
X120125501Y-90310256D01*
X120087574Y-90218692D01*
X120076466Y-90191875D01*
X120076461Y-90191866D01*
X120005276Y-90085331D01*
X120005273Y-90085327D01*
X119914672Y-89994726D01*
X119914668Y-89994723D01*
X119808133Y-89923538D01*
X119808124Y-89923533D01*
X119689744Y-89874499D01*
X119689738Y-89874497D01*
X119564071Y-89849500D01*
X119564069Y-89849500D01*
X119435931Y-89849500D01*
X119435929Y-89849500D01*
X119310261Y-89874497D01*
X119310255Y-89874499D01*
X119191875Y-89923533D01*
X119191866Y-89923538D01*
X119085331Y-89994723D01*
X119085327Y-89994726D01*
X118994726Y-90085327D01*
X118994723Y-90085331D01*
X118923538Y-90191866D01*
X118923533Y-90191875D01*
X118874499Y-90310255D01*
X118874497Y-90310260D01*
X118855160Y-90407473D01*
X118846394Y-90424229D01*
X118842375Y-90442706D01*
X118823627Y-90467751D01*
X118822774Y-90469383D01*
X118821225Y-90470961D01*
X118692686Y-90599500D01*
X118692685Y-90599500D01*
X118692684Y-90599501D01*
X118599502Y-90692683D01*
X118599500Y-90692686D01*
X118533608Y-90806812D01*
X118499500Y-90934108D01*
X118499500Y-95040567D01*
X118479815Y-95107606D01*
X118478602Y-95109457D01*
X118423541Y-95191861D01*
X118423533Y-95191875D01*
X118374499Y-95310255D01*
X118374497Y-95310261D01*
X118349500Y-95435928D01*
X118349500Y-95435931D01*
X118349500Y-95564069D01*
X118349500Y-95564071D01*
X118349499Y-95564071D01*
X108400500Y-95564071D01*
X108400500Y-85064071D01*
X122349499Y-85064071D01*
X122374497Y-85189738D01*
X122374499Y-85189744D01*
X122423533Y-85308124D01*
X122423538Y-85308133D01*
X122494723Y-85414668D01*
X122494726Y-85414672D01*
X122585327Y-85505273D01*
X122585331Y-85505276D01*
X122691866Y-85576461D01*
X122691873Y-85576465D01*
X122729444Y-85592027D01*
X122769672Y-85618907D01*
X128515139Y-91364374D01*
X128515149Y-91364385D01*
X128519479Y-91368715D01*
X128519480Y-91368716D01*
X128631284Y-91480520D01*
X128631286Y-91480521D01*
X128631290Y-91480524D01*
X128768209Y-91559573D01*
X128768216Y-91559577D01*
X128880019Y-91589534D01*
X128920942Y-91600500D01*
X128920943Y-91600500D01*
X131199903Y-91600500D01*
X131266942Y-91620185D01*
X131287584Y-91636819D01*
X131863181Y-92212416D01*
X131896666Y-92273739D01*
X131899500Y-92300097D01*
X131899500Y-94225233D01*
X131890061Y-94272685D01*
X131874500Y-94310251D01*
X131874497Y-94310261D01*
X131849500Y-94435928D01*
X131849500Y-94435931D01*
X131849500Y-94564069D01*
X131849500Y-94564071D01*
X131849499Y-94564071D01*
X131874497Y-94689738D01*
X131874499Y-94689744D01*
X131923533Y-94808124D01*
X131923538Y-94808133D01*
X131994723Y-94914668D01*
X131994726Y-94914672D01*
X132085327Y-95005273D01*
X132085331Y-95005276D01*
X132191866Y-95076461D01*
X132191872Y-95076464D01*
X132191873Y-95076465D01*
X132310256Y-95125501D01*
X132310260Y-95125501D01*
X132310261Y-95125502D01*
X132435928Y-95150500D01*
X132435931Y-95150500D01*
X132564071Y-95150500D01*
X132648615Y-95133682D01*
X132689744Y-95125501D01*
X132808127Y-95076465D01*
X132914669Y-95005276D01*
X133005276Y-94914669D01*
X133013651Y-94902135D01*
X133349500Y-94902135D01*
X133349500Y-96097870D01*
X133349501Y-96097876D01*
X133355908Y-96157483D01*
X133406202Y-96292328D01*
X133406206Y-96292335D01*
X133492452Y-96407544D01*
X133492455Y-96407547D01*
X133607664Y-96493793D01*
X133607671Y-96493797D01*
X133742517Y-96544091D01*
X133742516Y-96544091D01*
X133749444Y-96544835D01*
X133802127Y-96550500D01*
X134997872Y-96550499D01*
X135057483Y-96544091D01*
X135192331Y-96493796D01*
X135307546Y-96407546D01*
X135393796Y-96292331D01*
X135444091Y-96157483D01*
X135450500Y-96097873D01*
X135450499Y-94902128D01*
X135444091Y-94842517D01*
X135442854Y-94839201D01*
X135393797Y-94707671D01*
X135393793Y-94707664D01*
X135307547Y-94592455D01*
X135307544Y-94592452D01*
X135192335Y-94506206D01*
X135192328Y-94506202D01*
X135057482Y-94455908D01*
X135057483Y-94455908D01*
X134997883Y-94449501D01*
X134997881Y-94449500D01*
X134997873Y-94449500D01*
X134997864Y-94449500D01*
X133802129Y-94449500D01*
X133802123Y-94449501D01*
X133742516Y-94455908D01*
X133607671Y-94506202D01*
X133607664Y-94506206D01*
X133492455Y-94592452D01*
X133492452Y-94592455D01*
X133406206Y-94707664D01*
X133406202Y-94707671D01*
X133355908Y-94842517D01*
X133351487Y-94883643D01*
X133349501Y-94902123D01*
X133349500Y-94902135D01*
X133013651Y-94902135D01*
X133045402Y-94854616D01*
X133061907Y-94829915D01*
X133061907Y-94829914D01*
X133076465Y-94808127D01*
X133125501Y-94689744D01*
X133150500Y-94564069D01*
X133150500Y-94435931D01*
X133150500Y-94435928D01*
X133125502Y-94310261D01*
X133125501Y-94310260D01*
X133125501Y-94310256D01*
X133109939Y-94272685D01*
X133100500Y-94225233D01*
X133100500Y-92089060D01*
X133100501Y-92089047D01*
X133100501Y-91920944D01*
X133067165Y-91796535D01*
X133059577Y-91768216D01*
X132983716Y-91636819D01*
X132980524Y-91631290D01*
X132980518Y-91631282D01*
X132751638Y-91402402D01*
X132511415Y-91162180D01*
X132477931Y-91100858D01*
X132482915Y-91031167D01*
X132524786Y-90975233D01*
X132590251Y-90950816D01*
X132599097Y-90950500D01*
X133564505Y-90950500D01*
X133631544Y-90970185D01*
X133677299Y-91022989D01*
X133687243Y-91092147D01*
X133658218Y-91155703D01*
X133652186Y-91162181D01*
X133584025Y-91230341D01*
X133584024Y-91230342D01*
X133469058Y-91402403D01*
X133389870Y-91593579D01*
X133389868Y-91593587D01*
X133349500Y-91796530D01*
X133349500Y-92003469D01*
X133389868Y-92206412D01*
X133389870Y-92206420D01*
X133431265Y-92306357D01*
X133469059Y-92397598D01*
X133490582Y-92429810D01*
X133584024Y-92569657D01*
X133734617Y-92720250D01*
X133768102Y-92781573D01*
X133763118Y-92851265D01*
X133721246Y-92907198D01*
X133694396Y-92922489D01*
X133691880Y-92923531D01*
X133691866Y-92923538D01*
X133585331Y-92994723D01*
X133585327Y-92994726D01*
X133494726Y-93085327D01*
X133494723Y-93085331D01*
X133423538Y-93191866D01*
X133423533Y-93191875D01*
X133374499Y-93310255D01*
X133374497Y-93310261D01*
X133349500Y-93435928D01*
X133349500Y-93435931D01*
X133349500Y-93564069D01*
X133349500Y-93564071D01*
X133349499Y-93564071D01*
X133374497Y-93689738D01*
X133374499Y-93689744D01*
X133423533Y-93808124D01*
X133423538Y-93808133D01*
X133494723Y-93914668D01*
X133494726Y-93914672D01*
X133585327Y-94005273D01*
X133585331Y-94005276D01*
X133691866Y-94076461D01*
X133691872Y-94076464D01*
X133691873Y-94076465D01*
X133810256Y-94125501D01*
X133810260Y-94125501D01*
X133810261Y-94125502D01*
X133935928Y-94150500D01*
X133935931Y-94150500D01*
X134064071Y-94150500D01*
X134148615Y-94133682D01*
X134189744Y-94125501D01*
X134308127Y-94076465D01*
X134414669Y-94005276D01*
X134414672Y-94005273D01*
X134433127Y-93986819D01*
X134494450Y-93953334D01*
X134520808Y-93950500D01*
X135559307Y-93950500D01*
X135559309Y-93950500D01*
X135652610Y-93925500D01*
X135673887Y-93919799D01*
X135776614Y-93860489D01*
X136360490Y-93276614D01*
X136419799Y-93173887D01*
X136429010Y-93139511D01*
X136450500Y-93059309D01*
X136450500Y-91440691D01*
X136419799Y-91326114D01*
X136408945Y-91307314D01*
X136360490Y-91223387D01*
X135276614Y-90139511D01*
X135225250Y-90109856D01*
X135173888Y-90080201D01*
X135161780Y-90076957D01*
X135149673Y-90073713D01*
X135149670Y-90073712D01*
X135111478Y-90063478D01*
X135059309Y-90049500D01*
X135059308Y-90049500D01*
X132401580Y-90049500D01*
X132334541Y-90029815D01*
X132313899Y-90013181D01*
X131697248Y-89396530D01*
X141449500Y-89396530D01*
X141449500Y-89603469D01*
X141489868Y-89806412D01*
X141489870Y-89806420D01*
X141569058Y-89997596D01*
X141684024Y-90169657D01*
X141830342Y-90315975D01*
X141830345Y-90315977D01*
X142002402Y-90430941D01*
X142193580Y-90510130D01*
X142396530Y-90550499D01*
X142396534Y-90550500D01*
X142396535Y-90550500D01*
X142603466Y-90550500D01*
X142603467Y-90550499D01*
X142806420Y-90510130D01*
X142997598Y-90430941D01*
X143169655Y-90315977D01*
X143315977Y-90169655D01*
X143362528Y-90099986D01*
X144800001Y-90099986D01*
X144810494Y-90202697D01*
X144865641Y-90369119D01*
X144865643Y-90369124D01*
X144957684Y-90518345D01*
X145081654Y-90642315D01*
X145230875Y-90734356D01*
X145230880Y-90734358D01*
X145397302Y-90789505D01*
X145397309Y-90789506D01*
X145500019Y-90799999D01*
X145849999Y-90799999D01*
X146350000Y-90799999D01*
X146699972Y-90799999D01*
X146699986Y-90799998D01*
X146802697Y-90789505D01*
X146969119Y-90734358D01*
X146969124Y-90734356D01*
X147118345Y-90642315D01*
X147242315Y-90518345D01*
X147334356Y-90369124D01*
X147334358Y-90369119D01*
X147389505Y-90202697D01*
X147389506Y-90202690D01*
X147399999Y-90099986D01*
X147400000Y-90099973D01*
X147400000Y-89750000D01*
X146350000Y-89750000D01*
X146350000Y-90799999D01*
X145849999Y-90799999D01*
X145850000Y-90799998D01*
X145850000Y-89750000D01*
X144800001Y-89750000D01*
X144800001Y-90099986D01*
X143362528Y-90099986D01*
X143430941Y-89997598D01*
X143510130Y-89806420D01*
X143550500Y-89603465D01*
X143550500Y-89460504D01*
X145800000Y-89460504D01*
X145800000Y-89539496D01*
X145820444Y-89615796D01*
X145859940Y-89684205D01*
X145915795Y-89740060D01*
X145984204Y-89779556D01*
X146060504Y-89800000D01*
X146139496Y-89800000D01*
X146215796Y-89779556D01*
X146284205Y-89740060D01*
X146340060Y-89684205D01*
X146379556Y-89615796D01*
X146400000Y-89539496D01*
X146400000Y-89460504D01*
X146379556Y-89384204D01*
X146340060Y-89315795D01*
X146284205Y-89259940D01*
X146266988Y-89250000D01*
X146350000Y-89250000D01*
X147399999Y-89250000D01*
X147399999Y-88900028D01*
X147399998Y-88900013D01*
X147389505Y-88797302D01*
X147334358Y-88630880D01*
X147334356Y-88630875D01*
X147242315Y-88481654D01*
X147118345Y-88357684D01*
X146969124Y-88265643D01*
X146969119Y-88265641D01*
X146802697Y-88210494D01*
X146802690Y-88210493D01*
X146699986Y-88200000D01*
X146350000Y-88200000D01*
X146350000Y-89250000D01*
X146266988Y-89250000D01*
X146215796Y-89220444D01*
X146139496Y-89200000D01*
X146060504Y-89200000D01*
X145984204Y-89220444D01*
X145915795Y-89259940D01*
X145859940Y-89315795D01*
X145820444Y-89384204D01*
X145800000Y-89460504D01*
X143550500Y-89460504D01*
X143550500Y-89396535D01*
X143510130Y-89193580D01*
X143430941Y-89002402D01*
X143420529Y-88986819D01*
X143406454Y-88965753D01*
X143362528Y-88900013D01*
X144800000Y-88900013D01*
X144800000Y-89250000D01*
X145850000Y-89250000D01*
X145850000Y-88200000D01*
X145500028Y-88200000D01*
X145500012Y-88200001D01*
X145397302Y-88210494D01*
X145230880Y-88265641D01*
X145230875Y-88265643D01*
X145081654Y-88357684D01*
X144957684Y-88481654D01*
X144865643Y-88630875D01*
X144865641Y-88630880D01*
X144810494Y-88797302D01*
X144810493Y-88797309D01*
X144800000Y-88900013D01*
X143362528Y-88900013D01*
X143315977Y-88830344D01*
X143169657Y-88684024D01*
X143083626Y-88626541D01*
X142997598Y-88569059D01*
X142990845Y-88566262D01*
X142806420Y-88489870D01*
X142806412Y-88489868D01*
X142603469Y-88449500D01*
X142603465Y-88449500D01*
X142396535Y-88449500D01*
X142396530Y-88449500D01*
X142193587Y-88489868D01*
X142193579Y-88489870D01*
X142002403Y-88569058D01*
X141830342Y-88684024D01*
X141684024Y-88830342D01*
X141569058Y-89002403D01*
X141489870Y-89193579D01*
X141489868Y-89193587D01*
X141449500Y-89396530D01*
X131697248Y-89396530D01*
X131106435Y-88805717D01*
X131072950Y-88744394D01*
X131070116Y-88718036D01*
X131070116Y-88691929D01*
X131045118Y-88566262D01*
X131045117Y-88566261D01*
X131045117Y-88566257D01*
X130996081Y-88447874D01*
X130996080Y-88447873D01*
X130996077Y-88447867D01*
X130924892Y-88341332D01*
X130924889Y-88341328D01*
X130834288Y-88250727D01*
X130834284Y-88250724D01*
X130727749Y-88179539D01*
X130727740Y-88179534D01*
X130609360Y-88130500D01*
X130609354Y-88130498D01*
X130483687Y-88105501D01*
X130483685Y-88105501D01*
X130355547Y-88105501D01*
X130355545Y-88105501D01*
X130229877Y-88130498D01*
X130229871Y-88130500D01*
X130111491Y-88179534D01*
X130111482Y-88179539D01*
X130004947Y-88250724D01*
X130004943Y-88250727D01*
X129914342Y-88341328D01*
X129914339Y-88341332D01*
X129843154Y-88447867D01*
X129843149Y-88447876D01*
X129794115Y-88566256D01*
X129794113Y-88566262D01*
X129769116Y-88691929D01*
X129769116Y-88691932D01*
X129769116Y-88820070D01*
X129769116Y-88820072D01*
X129769115Y-88820072D01*
X129794113Y-88945739D01*
X129794115Y-88945745D01*
X129843149Y-89064125D01*
X129843154Y-89064134D01*
X129914339Y-89170669D01*
X129914342Y-89170673D01*
X130004943Y-89261274D01*
X130004947Y-89261277D01*
X130111482Y-89332462D01*
X130111488Y-89332465D01*
X130111489Y-89332466D01*
X130229872Y-89381502D01*
X130229876Y-89381502D01*
X130229877Y-89381503D01*
X130355544Y-89406501D01*
X130355547Y-89406501D01*
X130381651Y-89406501D01*
X130448690Y-89426186D01*
X130469332Y-89442820D01*
X131214331Y-90187819D01*
X131247816Y-90249142D01*
X131242832Y-90318834D01*
X131200960Y-90374767D01*
X131135496Y-90399184D01*
X131126650Y-90399500D01*
X129300097Y-90399500D01*
X129233058Y-90379815D01*
X129212416Y-90363181D01*
X123618907Y-84769672D01*
X123592027Y-84729444D01*
X123576465Y-84691873D01*
X123576461Y-84691866D01*
X123505276Y-84585331D01*
X123505273Y-84585327D01*
X123414672Y-84494726D01*
X123414668Y-84494723D01*
X123308133Y-84423538D01*
X123308124Y-84423533D01*
X123189744Y-84374499D01*
X123189738Y-84374497D01*
X123064071Y-84349500D01*
X123064069Y-84349500D01*
X122935931Y-84349500D01*
X122935929Y-84349500D01*
X122810261Y-84374497D01*
X122810255Y-84374499D01*
X122691875Y-84423533D01*
X122691866Y-84423538D01*
X122585331Y-84494723D01*
X122585327Y-84494726D01*
X122494726Y-84585327D01*
X122494723Y-84585331D01*
X122423538Y-84691866D01*
X122423533Y-84691875D01*
X122374499Y-84810255D01*
X122374497Y-84810261D01*
X122349500Y-84935928D01*
X122349500Y-84935931D01*
X122349500Y-85064069D01*
X122349500Y-85064071D01*
X122349499Y-85064071D01*
X108400500Y-85064071D01*
X108400500Y-72564071D01*
X125349499Y-72564071D01*
X125374497Y-72689738D01*
X125374499Y-72689744D01*
X125423533Y-72808124D01*
X125423538Y-72808133D01*
X125494723Y-72914668D01*
X125494725Y-72914671D01*
X125513179Y-72933124D01*
X125546666Y-72994446D01*
X125549500Y-73020807D01*
X125549500Y-79979192D01*
X125529815Y-80046231D01*
X125513181Y-80066873D01*
X125494726Y-80085327D01*
X125494723Y-80085331D01*
X125423538Y-80191866D01*
X125423533Y-80191875D01*
X125374499Y-80310255D01*
X125374497Y-80310261D01*
X125349500Y-80435928D01*
X125349500Y-80435931D01*
X125349500Y-80564069D01*
X125349500Y-80564071D01*
X125349499Y-80564071D01*
X125374497Y-80689738D01*
X125374499Y-80689744D01*
X125423533Y-80808124D01*
X125423538Y-80808133D01*
X125494723Y-80914668D01*
X125494726Y-80914672D01*
X125585327Y-81005273D01*
X125585331Y-81005276D01*
X125691866Y-81076461D01*
X125691872Y-81076464D01*
X125691873Y-81076465D01*
X125810256Y-81125501D01*
X125810260Y-81125501D01*
X125810261Y-81125502D01*
X125935928Y-81150500D01*
X125935931Y-81150500D01*
X126064071Y-81150500D01*
X126148615Y-81133682D01*
X126189744Y-81125501D01*
X126308127Y-81076465D01*
X126308132Y-81076461D01*
X126308135Y-81076460D01*
X126356608Y-81044071D01*
X126423285Y-81023192D01*
X126490665Y-81041676D01*
X126537356Y-81093654D01*
X126549500Y-81147172D01*
X126549500Y-83059309D01*
X126559833Y-83097870D01*
X126567236Y-83125500D01*
X126580201Y-83173888D01*
X126591570Y-83193579D01*
X126639511Y-83276614D01*
X126639513Y-83276616D01*
X131730451Y-88367555D01*
X131730456Y-88367559D01*
X132223386Y-88860490D01*
X132223388Y-88860491D01*
X132223392Y-88860494D01*
X132326111Y-88919798D01*
X132326113Y-88919799D01*
X132347386Y-88925499D01*
X132347388Y-88925500D01*
X132347389Y-88925500D01*
X132367106Y-88930782D01*
X132440691Y-88950500D01*
X134979192Y-88950500D01*
X135046231Y-88970185D01*
X135066873Y-88986819D01*
X135085327Y-89005273D01*
X135085331Y-89005276D01*
X135191866Y-89076461D01*
X135191872Y-89076464D01*
X135191873Y-89076465D01*
X135310256Y-89125501D01*
X135310260Y-89125501D01*
X135310261Y-89125502D01*
X135435928Y-89150500D01*
X135435931Y-89150500D01*
X135564071Y-89150500D01*
X135648615Y-89133682D01*
X135689744Y-89125501D01*
X135808127Y-89076465D01*
X135914669Y-89005276D01*
X136005276Y-88914669D01*
X136076465Y-88808127D01*
X136125501Y-88689744D01*
X136137211Y-88630875D01*
X136150500Y-88564071D01*
X136150500Y-88435928D01*
X136125502Y-88310261D01*
X136125501Y-88310260D01*
X136125501Y-88310256D01*
X136076465Y-88191873D01*
X136076464Y-88191872D01*
X136076461Y-88191866D01*
X136005276Y-88085331D01*
X136005273Y-88085327D01*
X135914672Y-87994726D01*
X135914668Y-87994723D01*
X135808133Y-87923538D01*
X135808124Y-87923533D01*
X135689744Y-87874499D01*
X135689738Y-87874497D01*
X135564071Y-87849500D01*
X135564069Y-87849500D01*
X135435931Y-87849500D01*
X135435929Y-87849500D01*
X135310261Y-87874497D01*
X135310255Y-87874499D01*
X135191875Y-87923533D01*
X135191866Y-87923538D01*
X135085331Y-87994723D01*
X135085327Y-87994726D01*
X135066873Y-88013181D01*
X135005550Y-88046666D01*
X134979192Y-88049500D01*
X132737966Y-88049500D01*
X132670927Y-88029815D01*
X132650285Y-88013181D01*
X132367560Y-87730457D01*
X132367558Y-87730454D01*
X131299285Y-86662181D01*
X131265800Y-86600858D01*
X131270784Y-86531166D01*
X131312656Y-86475233D01*
X131378120Y-86450816D01*
X131386966Y-86450500D01*
X134979192Y-86450500D01*
X135046231Y-86470185D01*
X135066873Y-86486819D01*
X135085327Y-86505273D01*
X135085331Y-86505276D01*
X135191866Y-86576461D01*
X135191872Y-86576464D01*
X135191873Y-86576465D01*
X135310256Y-86625501D01*
X135310260Y-86625501D01*
X135310261Y-86625502D01*
X135435928Y-86650500D01*
X135435931Y-86650500D01*
X135564071Y-86650500D01*
X135648615Y-86633682D01*
X135689744Y-86625501D01*
X135808127Y-86576465D01*
X135914669Y-86505276D01*
X136005276Y-86414669D01*
X136017396Y-86396530D01*
X141449500Y-86396530D01*
X141449500Y-86603469D01*
X141489868Y-86806412D01*
X141489870Y-86806420D01*
X141569058Y-86997596D01*
X141684024Y-87169657D01*
X141830342Y-87315975D01*
X141830345Y-87315977D01*
X142002402Y-87430941D01*
X142193580Y-87510130D01*
X142396530Y-87550499D01*
X142396534Y-87550500D01*
X142396535Y-87550500D01*
X142603466Y-87550500D01*
X142603467Y-87550499D01*
X142806420Y-87510130D01*
X142997598Y-87430941D01*
X143169655Y-87315977D01*
X143315977Y-87169655D01*
X143362528Y-87099986D01*
X144800001Y-87099986D01*
X144810494Y-87202697D01*
X144865641Y-87369119D01*
X144865643Y-87369124D01*
X144957684Y-87518345D01*
X145081654Y-87642315D01*
X145230875Y-87734356D01*
X145230880Y-87734358D01*
X145397302Y-87789505D01*
X145397309Y-87789506D01*
X145500019Y-87799999D01*
X145849999Y-87799999D01*
X146350000Y-87799999D01*
X146699972Y-87799999D01*
X146699986Y-87799998D01*
X146802697Y-87789505D01*
X146969119Y-87734358D01*
X146969124Y-87734356D01*
X147118345Y-87642315D01*
X147242315Y-87518345D01*
X147334356Y-87369124D01*
X147334358Y-87369119D01*
X147389505Y-87202697D01*
X147389506Y-87202690D01*
X147399999Y-87099986D01*
X147400000Y-87099973D01*
X147400000Y-86750000D01*
X146350000Y-86750000D01*
X146350000Y-87799999D01*
X145849999Y-87799999D01*
X145850000Y-87799998D01*
X145850000Y-86750000D01*
X144800001Y-86750000D01*
X144800001Y-87099986D01*
X143362528Y-87099986D01*
X143430941Y-86997598D01*
X143510130Y-86806420D01*
X143550500Y-86603465D01*
X143550500Y-86460504D01*
X145800000Y-86460504D01*
X145800000Y-86539496D01*
X145820444Y-86615796D01*
X145859940Y-86684205D01*
X145915795Y-86740060D01*
X145984204Y-86779556D01*
X146060504Y-86800000D01*
X146139496Y-86800000D01*
X146215796Y-86779556D01*
X146284205Y-86740060D01*
X146340060Y-86684205D01*
X146379556Y-86615796D01*
X146400000Y-86539496D01*
X146400000Y-86460504D01*
X146379556Y-86384204D01*
X146340060Y-86315795D01*
X146284205Y-86259940D01*
X146266988Y-86250000D01*
X146350000Y-86250000D01*
X147399999Y-86250000D01*
X147399999Y-85900028D01*
X147399998Y-85900013D01*
X147389505Y-85797302D01*
X147334358Y-85630880D01*
X147334356Y-85630875D01*
X147242315Y-85481654D01*
X147118345Y-85357684D01*
X146969124Y-85265643D01*
X146969119Y-85265641D01*
X146802697Y-85210494D01*
X146802690Y-85210493D01*
X146699986Y-85200000D01*
X146350000Y-85200000D01*
X146350000Y-86250000D01*
X146266988Y-86250000D01*
X146215796Y-86220444D01*
X146139496Y-86200000D01*
X146060504Y-86200000D01*
X145984204Y-86220444D01*
X145915795Y-86259940D01*
X145859940Y-86315795D01*
X145820444Y-86384204D01*
X145800000Y-86460504D01*
X143550500Y-86460504D01*
X143550500Y-86396535D01*
X143510130Y-86193580D01*
X143430941Y-86002402D01*
X143424375Y-85992576D01*
X143406454Y-85965753D01*
X143362528Y-85900013D01*
X144800000Y-85900013D01*
X144800000Y-86250000D01*
X145850000Y-86250000D01*
X145850000Y-85200000D01*
X145500028Y-85200000D01*
X145500012Y-85200001D01*
X145397302Y-85210494D01*
X145230880Y-85265641D01*
X145230875Y-85265643D01*
X145081654Y-85357684D01*
X144957684Y-85481654D01*
X144865643Y-85630875D01*
X144865641Y-85630880D01*
X144810494Y-85797302D01*
X144810493Y-85797309D01*
X144800000Y-85900013D01*
X143362528Y-85900013D01*
X143315977Y-85830344D01*
X143169657Y-85684024D01*
X143046099Y-85601466D01*
X142997598Y-85569059D01*
X142862697Y-85513181D01*
X142806420Y-85489870D01*
X142806412Y-85489868D01*
X142603469Y-85449500D01*
X142603465Y-85449500D01*
X142396535Y-85449500D01*
X142396530Y-85449500D01*
X142193587Y-85489868D01*
X142193579Y-85489870D01*
X142002403Y-85569058D01*
X141830342Y-85684024D01*
X141684024Y-85830342D01*
X141569058Y-86002403D01*
X141489870Y-86193579D01*
X141489868Y-86193587D01*
X141449500Y-86396530D01*
X136017396Y-86396530D01*
X136076465Y-86308127D01*
X136125501Y-86189744D01*
X136150500Y-86064069D01*
X136150500Y-85935931D01*
X136150500Y-85935928D01*
X136125502Y-85810261D01*
X136125501Y-85810260D01*
X136125501Y-85810256D01*
X136076465Y-85691873D01*
X136076464Y-85691872D01*
X136076461Y-85691866D01*
X136005276Y-85585331D01*
X136005273Y-85585327D01*
X135914672Y-85494726D01*
X135914668Y-85494723D01*
X135808133Y-85423538D01*
X135808124Y-85423533D01*
X135689744Y-85374499D01*
X135689738Y-85374497D01*
X135675257Y-85371617D01*
X135672506Y-85370178D01*
X135669402Y-85370305D01*
X135641745Y-85354087D01*
X135613347Y-85339232D01*
X135611810Y-85336532D01*
X135609131Y-85334962D01*
X135594635Y-85306373D01*
X135578772Y-85278516D01*
X135578938Y-85275414D01*
X135577534Y-85272645D01*
X135580795Y-85240762D01*
X135582512Y-85208747D01*
X135584328Y-85206227D01*
X135584645Y-85203138D01*
X135604629Y-85178075D01*
X135623379Y-85152075D01*
X135626851Y-85150207D01*
X135628205Y-85148510D01*
X135637012Y-85144742D01*
X135659684Y-85132549D01*
X135667335Y-85129958D01*
X135689744Y-85125501D01*
X135731110Y-85108366D01*
X135735002Y-85107049D01*
X135743613Y-85106696D01*
X135774767Y-85100500D01*
X135913331Y-85100500D01*
X135913347Y-85100501D01*
X135920943Y-85100501D01*
X136079054Y-85100501D01*
X136079057Y-85100501D01*
X136231785Y-85059577D01*
X136281904Y-85030639D01*
X136368716Y-84980520D01*
X136480520Y-84868716D01*
X136480520Y-84868714D01*
X136490728Y-84858507D01*
X136490729Y-84858504D01*
X137952704Y-83396530D01*
X141449500Y-83396530D01*
X141449500Y-83603469D01*
X141489868Y-83806412D01*
X141489870Y-83806420D01*
X141569058Y-83997596D01*
X141684024Y-84169657D01*
X141830342Y-84315975D01*
X141830345Y-84315977D01*
X142002402Y-84430941D01*
X142193580Y-84510130D01*
X142396530Y-84550499D01*
X142396534Y-84550500D01*
X142396535Y-84550500D01*
X142603466Y-84550500D01*
X142603467Y-84550499D01*
X142806420Y-84510130D01*
X142997598Y-84430941D01*
X143169655Y-84315977D01*
X143315977Y-84169655D01*
X143362528Y-84099986D01*
X144800001Y-84099986D01*
X144810494Y-84202697D01*
X144865641Y-84369119D01*
X144865643Y-84369124D01*
X144957684Y-84518345D01*
X145081654Y-84642315D01*
X145230875Y-84734356D01*
X145230880Y-84734358D01*
X145397302Y-84789505D01*
X145397309Y-84789506D01*
X145500019Y-84799999D01*
X145849999Y-84799999D01*
X146350000Y-84799999D01*
X146699972Y-84799999D01*
X146699986Y-84799998D01*
X146802697Y-84789505D01*
X146969119Y-84734358D01*
X146969124Y-84734356D01*
X147118345Y-84642315D01*
X147242315Y-84518345D01*
X147334356Y-84369124D01*
X147334358Y-84369119D01*
X147389505Y-84202697D01*
X147389506Y-84202690D01*
X147399999Y-84099986D01*
X147400000Y-84099973D01*
X147400000Y-83750000D01*
X146350000Y-83750000D01*
X146350000Y-84799999D01*
X145849999Y-84799999D01*
X145850000Y-84799998D01*
X145850000Y-83750000D01*
X144800001Y-83750000D01*
X144800001Y-84099986D01*
X143362528Y-84099986D01*
X143430941Y-83997598D01*
X143510130Y-83806420D01*
X143550500Y-83603465D01*
X143550500Y-83460504D01*
X145800000Y-83460504D01*
X145800000Y-83539496D01*
X145820444Y-83615796D01*
X145859940Y-83684205D01*
X145915795Y-83740060D01*
X145984204Y-83779556D01*
X146060504Y-83800000D01*
X146139496Y-83800000D01*
X146215796Y-83779556D01*
X146284205Y-83740060D01*
X146340060Y-83684205D01*
X146379556Y-83615796D01*
X146400000Y-83539496D01*
X146400000Y-83460504D01*
X146379556Y-83384204D01*
X146340060Y-83315795D01*
X146284205Y-83259940D01*
X146266988Y-83250000D01*
X146350000Y-83250000D01*
X147399999Y-83250000D01*
X147399999Y-82900028D01*
X147399998Y-82900013D01*
X147389505Y-82797302D01*
X147334358Y-82630880D01*
X147334356Y-82630875D01*
X147242315Y-82481654D01*
X147118345Y-82357684D01*
X146969124Y-82265643D01*
X146969119Y-82265641D01*
X146802697Y-82210494D01*
X146802690Y-82210493D01*
X146699986Y-82200000D01*
X146350000Y-82200000D01*
X146350000Y-83250000D01*
X146266988Y-83250000D01*
X146215796Y-83220444D01*
X146139496Y-83200000D01*
X146060504Y-83200000D01*
X145984204Y-83220444D01*
X145915795Y-83259940D01*
X145859940Y-83315795D01*
X145820444Y-83384204D01*
X145800000Y-83460504D01*
X143550500Y-83460504D01*
X143550500Y-83396535D01*
X143510130Y-83193580D01*
X143430941Y-83002402D01*
X143424375Y-82992576D01*
X143406454Y-82965753D01*
X143362528Y-82900013D01*
X144800000Y-82900013D01*
X144800000Y-83250000D01*
X145850000Y-83250000D01*
X145850000Y-82200000D01*
X145500028Y-82200000D01*
X145500012Y-82200001D01*
X145397302Y-82210494D01*
X145230880Y-82265641D01*
X145230875Y-82265643D01*
X145081654Y-82357684D01*
X144957684Y-82481654D01*
X144865643Y-82630875D01*
X144865641Y-82630880D01*
X144810494Y-82797302D01*
X144810493Y-82797309D01*
X144800000Y-82900013D01*
X143362528Y-82900013D01*
X143315977Y-82830344D01*
X143169657Y-82684024D01*
X143083626Y-82626541D01*
X142997598Y-82569059D01*
X142985551Y-82564069D01*
X142806420Y-82489870D01*
X142806412Y-82489868D01*
X142603469Y-82449500D01*
X142603465Y-82449500D01*
X142396535Y-82449500D01*
X142396530Y-82449500D01*
X142193587Y-82489868D01*
X142193579Y-82489870D01*
X142002403Y-82569058D01*
X141830342Y-82684024D01*
X141684024Y-82830342D01*
X141569058Y-83002403D01*
X141489870Y-83193579D01*
X141489868Y-83193587D01*
X141449500Y-83396530D01*
X137952704Y-83396530D01*
X141285393Y-80063842D01*
X141346715Y-80030358D01*
X141416407Y-80035342D01*
X141472340Y-80077214D01*
X141496757Y-80142678D01*
X141489610Y-80187137D01*
X141491638Y-80187753D01*
X141489868Y-80193587D01*
X141449500Y-80396530D01*
X141449500Y-80603469D01*
X141476670Y-80740060D01*
X141489870Y-80806420D01*
X141569059Y-80997598D01*
X141586160Y-81023192D01*
X141684024Y-81169657D01*
X141830342Y-81315975D01*
X141830345Y-81315977D01*
X142002402Y-81430941D01*
X142193580Y-81510130D01*
X142396530Y-81550499D01*
X142396534Y-81550500D01*
X142396535Y-81550500D01*
X142603466Y-81550500D01*
X142603467Y-81550499D01*
X142806420Y-81510130D01*
X142997598Y-81430941D01*
X143169655Y-81315977D01*
X143315977Y-81169655D01*
X143362528Y-81099986D01*
X144800001Y-81099986D01*
X144810494Y-81202697D01*
X144865641Y-81369119D01*
X144865643Y-81369124D01*
X144957684Y-81518345D01*
X145081654Y-81642315D01*
X145230875Y-81734356D01*
X145230880Y-81734358D01*
X145397302Y-81789505D01*
X145397309Y-81789506D01*
X145500019Y-81799999D01*
X145849999Y-81799999D01*
X146350000Y-81799999D01*
X146699972Y-81799999D01*
X146699986Y-81799998D01*
X146802697Y-81789505D01*
X146969119Y-81734358D01*
X146969124Y-81734356D01*
X147118345Y-81642315D01*
X147242315Y-81518345D01*
X147334356Y-81369124D01*
X147334358Y-81369119D01*
X147389505Y-81202697D01*
X147389506Y-81202690D01*
X147399999Y-81099986D01*
X147400000Y-81099973D01*
X147400000Y-80750000D01*
X146350000Y-80750000D01*
X146350000Y-81799999D01*
X145849999Y-81799999D01*
X145850000Y-81799998D01*
X145850000Y-80750000D01*
X144800001Y-80750000D01*
X144800001Y-81099986D01*
X143362528Y-81099986D01*
X143430941Y-80997598D01*
X143510130Y-80806420D01*
X143550500Y-80603465D01*
X143550500Y-80460504D01*
X145800000Y-80460504D01*
X145800000Y-80539496D01*
X145820444Y-80615796D01*
X145859940Y-80684205D01*
X145915795Y-80740060D01*
X145984204Y-80779556D01*
X146060504Y-80800000D01*
X146139496Y-80800000D01*
X146215796Y-80779556D01*
X146284205Y-80740060D01*
X146340060Y-80684205D01*
X146379556Y-80615796D01*
X146400000Y-80539496D01*
X146400000Y-80460504D01*
X146379556Y-80384204D01*
X146340060Y-80315795D01*
X146284205Y-80259940D01*
X146266988Y-80250000D01*
X146350000Y-80250000D01*
X147399999Y-80250000D01*
X147399999Y-79900028D01*
X147399998Y-79900013D01*
X147389505Y-79797302D01*
X147334358Y-79630880D01*
X147334356Y-79630875D01*
X147242315Y-79481654D01*
X147118345Y-79357684D01*
X146969124Y-79265643D01*
X146969119Y-79265641D01*
X146802697Y-79210494D01*
X146802690Y-79210493D01*
X146699986Y-79200000D01*
X146350000Y-79200000D01*
X146350000Y-80250000D01*
X146266988Y-80250000D01*
X146215796Y-80220444D01*
X146139496Y-80200000D01*
X146060504Y-80200000D01*
X145984204Y-80220444D01*
X145915795Y-80259940D01*
X145859940Y-80315795D01*
X145820444Y-80384204D01*
X145800000Y-80460504D01*
X143550500Y-80460504D01*
X143550500Y-80396535D01*
X143510130Y-80193580D01*
X143430941Y-80002402D01*
X143315977Y-79830345D01*
X143315975Y-79830342D01*
X143297814Y-79812181D01*
X143264329Y-79750858D01*
X143269313Y-79681166D01*
X143311185Y-79625233D01*
X143376649Y-79600816D01*
X143385495Y-79600500D01*
X144703989Y-79600500D01*
X144771028Y-79620185D01*
X144816783Y-79672989D01*
X144826727Y-79742147D01*
X144821695Y-79763505D01*
X144810494Y-79797305D01*
X144810493Y-79797309D01*
X144800000Y-79900013D01*
X144800000Y-80250000D01*
X145850000Y-80250000D01*
X145850000Y-79200000D01*
X145837297Y-79187297D01*
X145803812Y-79125974D01*
X145808796Y-79056282D01*
X145837293Y-79011940D01*
X146858506Y-77990728D01*
X146858511Y-77990724D01*
X146868714Y-77980520D01*
X146868716Y-77980520D01*
X146980520Y-77868716D01*
X147059577Y-77731784D01*
X147100500Y-77579057D01*
X147100500Y-76074766D01*
X147109939Y-76027313D01*
X147125501Y-75989744D01*
X147138672Y-75923533D01*
X147150500Y-75864071D01*
X147150500Y-75735928D01*
X147125502Y-75610261D01*
X147125501Y-75610260D01*
X147125501Y-75610256D01*
X147076465Y-75491873D01*
X147076464Y-75491872D01*
X147076461Y-75491866D01*
X147005276Y-75385331D01*
X147005273Y-75385327D01*
X146914672Y-75294726D01*
X146914668Y-75294723D01*
X146808133Y-75223538D01*
X146808124Y-75223533D01*
X146689744Y-75174499D01*
X146689738Y-75174497D01*
X146564071Y-75149500D01*
X146564069Y-75149500D01*
X146435931Y-75149500D01*
X146435929Y-75149500D01*
X146310261Y-75174497D01*
X146310255Y-75174499D01*
X146191875Y-75223533D01*
X146191866Y-75223538D01*
X146085331Y-75294723D01*
X146085327Y-75294726D01*
X145994726Y-75385327D01*
X145994723Y-75385331D01*
X145923538Y-75491866D01*
X145923533Y-75491875D01*
X145874499Y-75610255D01*
X145874497Y-75610261D01*
X145849500Y-75735928D01*
X145849500Y-75735931D01*
X145849500Y-75864069D01*
X145849500Y-75864071D01*
X145849499Y-75864071D01*
X145874497Y-75989738D01*
X145874499Y-75989744D01*
X145890061Y-76027313D01*
X145899500Y-76074766D01*
X145899500Y-77199903D01*
X145879815Y-77266942D01*
X145863181Y-77287584D01*
X144787584Y-78363181D01*
X144726261Y-78396666D01*
X144699903Y-78399500D01*
X141586670Y-78399500D01*
X141586654Y-78399499D01*
X141579058Y-78399499D01*
X141420943Y-78399499D01*
X141344579Y-78419961D01*
X141268214Y-78440423D01*
X141268209Y-78440426D01*
X141131290Y-78519475D01*
X141131282Y-78519481D01*
X137319699Y-82331064D01*
X137258376Y-82364549D01*
X137188684Y-82359565D01*
X137132751Y-82317693D01*
X137117457Y-82290836D01*
X137076466Y-82191875D01*
X137076461Y-82191866D01*
X137005276Y-82085331D01*
X137005273Y-82085327D01*
X136986819Y-82066873D01*
X136953334Y-82005550D01*
X136950500Y-81979192D01*
X136950500Y-77020807D01*
X136970185Y-76953768D01*
X136986821Y-76933124D01*
X137005274Y-76914671D01*
X137005276Y-76914669D01*
X137076465Y-76808127D01*
X137125501Y-76689744D01*
X137138280Y-76625501D01*
X137150500Y-76564071D01*
X137150500Y-76435928D01*
X137125502Y-76310261D01*
X137125501Y-76310260D01*
X137125501Y-76310256D01*
X137076465Y-76191873D01*
X137076464Y-76191872D01*
X137076461Y-76191866D01*
X137005276Y-76085331D01*
X137005273Y-76085327D01*
X136914672Y-75994726D01*
X136914668Y-75994723D01*
X136808133Y-75923538D01*
X136808124Y-75923533D01*
X136689744Y-75874499D01*
X136689738Y-75874497D01*
X136564071Y-75849500D01*
X136564069Y-75849500D01*
X136435931Y-75849500D01*
X136435929Y-75849500D01*
X136310261Y-75874497D01*
X136310255Y-75874499D01*
X136191875Y-75923533D01*
X136191866Y-75923538D01*
X136085331Y-75994723D01*
X136085327Y-75994726D01*
X135994726Y-76085327D01*
X135994723Y-76085331D01*
X135923538Y-76191866D01*
X135923533Y-76191875D01*
X135874499Y-76310255D01*
X135874497Y-76310261D01*
X135849500Y-76435928D01*
X135849500Y-76435931D01*
X135849500Y-76564069D01*
X135849500Y-76564071D01*
X135849499Y-76564071D01*
X135874497Y-76689738D01*
X135874499Y-76689744D01*
X135923533Y-76808124D01*
X135923538Y-76808133D01*
X135994723Y-76914668D01*
X135994725Y-76914671D01*
X136013179Y-76933124D01*
X136046666Y-76994446D01*
X136049500Y-77020807D01*
X136049500Y-81979192D01*
X136029815Y-82046231D01*
X136013181Y-82066873D01*
X135994726Y-82085327D01*
X135994723Y-82085331D01*
X135923538Y-82191866D01*
X135923533Y-82191875D01*
X135874499Y-82310255D01*
X135874497Y-82310261D01*
X135849500Y-82435928D01*
X135849500Y-82435931D01*
X135849500Y-82564069D01*
X135849500Y-82564071D01*
X135849499Y-82564071D01*
X135874497Y-82689738D01*
X135874499Y-82689744D01*
X135923533Y-82808124D01*
X135923538Y-82808133D01*
X135994723Y-82914668D01*
X135994726Y-82914672D01*
X136085327Y-83005273D01*
X136085331Y-83005276D01*
X136191866Y-83076461D01*
X136191879Y-83076468D01*
X136290836Y-83117457D01*
X136345240Y-83161298D01*
X136367305Y-83227592D01*
X136350026Y-83295291D01*
X136331065Y-83319699D01*
X135808682Y-83842082D01*
X135747359Y-83875567D01*
X135696151Y-83873508D01*
X135695718Y-83875687D01*
X135564071Y-83849500D01*
X135564069Y-83849500D01*
X135435931Y-83849500D01*
X135435929Y-83849500D01*
X135310261Y-83874497D01*
X135310255Y-83874499D01*
X135191875Y-83923533D01*
X135191866Y-83923538D01*
X135085331Y-83994723D01*
X135085327Y-83994726D01*
X134994726Y-84085327D01*
X134994723Y-84085331D01*
X134923538Y-84191866D01*
X134923533Y-84191875D01*
X134874499Y-84310255D01*
X134874497Y-84310261D01*
X134849500Y-84435928D01*
X134849500Y-84435931D01*
X134849500Y-84564069D01*
X134849500Y-84564071D01*
X134849499Y-84564071D01*
X134874497Y-84689738D01*
X134874499Y-84689744D01*
X134923533Y-84808124D01*
X134923538Y-84808133D01*
X134994723Y-84914668D01*
X134994726Y-84914672D01*
X135085327Y-85005273D01*
X135085331Y-85005276D01*
X135191866Y-85076461D01*
X135191872Y-85076464D01*
X135191873Y-85076465D01*
X135310256Y-85125501D01*
X135310258Y-85125501D01*
X135310260Y-85125502D01*
X135324743Y-85128383D01*
X135386653Y-85160769D01*
X135421227Y-85221485D01*
X135417486Y-85291254D01*
X135376619Y-85347926D01*
X135324743Y-85371617D01*
X135310260Y-85374497D01*
X135310255Y-85374499D01*
X135191875Y-85423533D01*
X135191866Y-85423538D01*
X135085331Y-85494723D01*
X135085327Y-85494726D01*
X135066873Y-85513181D01*
X135005550Y-85546666D01*
X134979192Y-85549500D01*
X131237965Y-85549500D01*
X131170926Y-85529815D01*
X131150284Y-85513181D01*
X128185819Y-82548716D01*
X128171115Y-82521788D01*
X128154523Y-82495970D01*
X128153631Y-82489769D01*
X128152334Y-82487393D01*
X128149500Y-82461035D01*
X128149500Y-82396530D01*
X129849500Y-82396530D01*
X129849500Y-82603469D01*
X129889868Y-82806412D01*
X129889870Y-82806420D01*
X129969059Y-82997598D01*
X130010292Y-83059308D01*
X130084024Y-83169657D01*
X130230342Y-83315975D01*
X130230345Y-83315977D01*
X130402402Y-83430941D01*
X130593580Y-83510130D01*
X130741214Y-83539496D01*
X130796530Y-83550499D01*
X130796534Y-83550500D01*
X130796535Y-83550500D01*
X131003466Y-83550500D01*
X131003467Y-83550499D01*
X131206420Y-83510130D01*
X131397598Y-83430941D01*
X131569655Y-83315977D01*
X131715977Y-83169655D01*
X131830941Y-82997598D01*
X131910130Y-82806420D01*
X131950500Y-82603465D01*
X131950500Y-82396535D01*
X131910130Y-82193580D01*
X131830941Y-82002402D01*
X131715977Y-81830345D01*
X131715975Y-81830342D01*
X131569657Y-81684024D01*
X131432608Y-81592452D01*
X131397598Y-81569059D01*
X131352790Y-81550499D01*
X131206420Y-81489870D01*
X131206412Y-81489868D01*
X131003469Y-81449500D01*
X131003465Y-81449500D01*
X130796535Y-81449500D01*
X130796530Y-81449500D01*
X130593587Y-81489868D01*
X130593579Y-81489870D01*
X130402403Y-81569058D01*
X130230342Y-81684024D01*
X130084024Y-81830342D01*
X129969058Y-82002403D01*
X129889870Y-82193579D01*
X129889868Y-82193587D01*
X129849500Y-82396530D01*
X128149500Y-82396530D01*
X128149500Y-76743930D01*
X128169185Y-76676891D01*
X128221989Y-76631136D01*
X128291147Y-76621192D01*
X128309511Y-76625274D01*
X128310244Y-76625496D01*
X128310256Y-76625501D01*
X128338584Y-76631136D01*
X128435928Y-76650500D01*
X128435931Y-76650500D01*
X128564071Y-76650500D01*
X128648615Y-76633682D01*
X128689744Y-76625501D01*
X128708235Y-76617841D01*
X128727315Y-76609939D01*
X128774767Y-76600500D01*
X130199903Y-76600500D01*
X130266942Y-76620185D01*
X130287584Y-76636819D01*
X133863181Y-80212416D01*
X133896666Y-80273739D01*
X133899500Y-80300097D01*
X133899500Y-81348560D01*
X133879815Y-81415599D01*
X133827011Y-81461354D01*
X133818833Y-81464742D01*
X133707671Y-81506202D01*
X133707664Y-81506206D01*
X133592455Y-81592452D01*
X133592452Y-81592455D01*
X133506206Y-81707664D01*
X133506202Y-81707671D01*
X133455908Y-81842517D01*
X133449501Y-81902116D01*
X133449501Y-81902123D01*
X133449500Y-81902135D01*
X133449500Y-83097870D01*
X133449501Y-83097876D01*
X133455908Y-83157483D01*
X133506202Y-83292328D01*
X133506206Y-83292335D01*
X133592452Y-83407544D01*
X133592455Y-83407547D01*
X133707664Y-83493793D01*
X133707671Y-83493797D01*
X133842517Y-83544091D01*
X133842516Y-83544091D01*
X133849444Y-83544835D01*
X133902127Y-83550500D01*
X135097872Y-83550499D01*
X135157483Y-83544091D01*
X135292331Y-83493796D01*
X135407546Y-83407546D01*
X135493796Y-83292331D01*
X135544091Y-83157483D01*
X135550500Y-83097873D01*
X135550499Y-81902128D01*
X135544091Y-81842517D01*
X135539551Y-81830345D01*
X135493797Y-81707671D01*
X135493793Y-81707664D01*
X135407547Y-81592455D01*
X135407544Y-81592452D01*
X135292335Y-81506206D01*
X135292329Y-81506203D01*
X135181166Y-81464741D01*
X135125233Y-81422869D01*
X135100816Y-81357405D01*
X135100500Y-81348559D01*
X135100500Y-79920943D01*
X135100499Y-79920939D01*
X135088056Y-79874500D01*
X135088056Y-79874499D01*
X135059577Y-79768215D01*
X135030639Y-79718095D01*
X134980520Y-79631284D01*
X134868716Y-79519480D01*
X134868715Y-79519479D01*
X134864385Y-79515149D01*
X134864374Y-79515139D01*
X130987590Y-75638355D01*
X130987588Y-75638352D01*
X130868717Y-75519481D01*
X130868709Y-75519475D01*
X130764854Y-75459515D01*
X130764851Y-75459514D01*
X130731787Y-75440424D01*
X130731786Y-75440423D01*
X130731785Y-75440423D01*
X130579057Y-75399499D01*
X130420943Y-75399499D01*
X130413347Y-75399499D01*
X130413331Y-75399500D01*
X128774767Y-75399500D01*
X128727315Y-75390061D01*
X128689748Y-75374500D01*
X128689738Y-75374497D01*
X128564071Y-75349500D01*
X128564069Y-75349500D01*
X128435931Y-75349500D01*
X128435929Y-75349500D01*
X128310257Y-75374498D01*
X128309494Y-75374730D01*
X128309074Y-75374733D01*
X128304282Y-75375687D01*
X128304101Y-75374778D01*
X128239628Y-75375353D01*
X128180515Y-75338104D01*
X128150924Y-75274810D01*
X128149500Y-75256069D01*
X128149500Y-72639692D01*
X128149500Y-72639691D01*
X128148924Y-72637545D01*
X128148828Y-72634590D01*
X128148439Y-72631634D01*
X128148730Y-72631595D01*
X128147082Y-72581250D01*
X128150500Y-72564070D01*
X128150500Y-72435928D01*
X128125502Y-72310261D01*
X128125501Y-72310260D01*
X128125501Y-72310256D01*
X128076465Y-72191873D01*
X128076464Y-72191872D01*
X128076461Y-72191866D01*
X128005276Y-72085331D01*
X128005273Y-72085327D01*
X127914672Y-71994726D01*
X127914668Y-71994723D01*
X127808133Y-71923538D01*
X127808124Y-71923533D01*
X127689744Y-71874499D01*
X127689738Y-71874497D01*
X127564071Y-71849500D01*
X127564069Y-71849500D01*
X127435931Y-71849500D01*
X127435929Y-71849500D01*
X127310261Y-71874497D01*
X127310255Y-71874499D01*
X127191875Y-71923533D01*
X127191866Y-71923538D01*
X127085331Y-71994723D01*
X127085327Y-71994726D01*
X126994726Y-72085327D01*
X126994723Y-72085331D01*
X126923538Y-72191866D01*
X126923533Y-72191875D01*
X126874499Y-72310255D01*
X126874497Y-72310260D01*
X126871617Y-72324743D01*
X126839231Y-72386653D01*
X126778515Y-72421227D01*
X126708746Y-72417486D01*
X126652074Y-72376619D01*
X126628383Y-72324743D01*
X126625502Y-72310260D01*
X126625501Y-72310258D01*
X126625501Y-72310256D01*
X126576465Y-72191873D01*
X126576464Y-72191872D01*
X126576461Y-72191866D01*
X126505276Y-72085331D01*
X126505273Y-72085327D01*
X126414672Y-71994726D01*
X126414668Y-71994723D01*
X126308133Y-71923538D01*
X126308124Y-71923533D01*
X126189744Y-71874499D01*
X126189738Y-71874497D01*
X126064071Y-71849500D01*
X126064069Y-71849500D01*
X125935931Y-71849500D01*
X125935929Y-71849500D01*
X125810261Y-71874497D01*
X125810255Y-71874499D01*
X125691875Y-71923533D01*
X125691866Y-71923538D01*
X125585331Y-71994723D01*
X125585327Y-71994726D01*
X125494726Y-72085327D01*
X125494723Y-72085331D01*
X125423538Y-72191866D01*
X125423533Y-72191875D01*
X125374499Y-72310255D01*
X125374497Y-72310261D01*
X125349500Y-72435928D01*
X125349500Y-72435931D01*
X125349500Y-72564069D01*
X125349500Y-72564071D01*
X125349499Y-72564071D01*
X108400500Y-72564071D01*
X108400500Y-67064071D01*
X114574499Y-67064071D01*
X114599497Y-67189738D01*
X114599499Y-67189744D01*
X114648533Y-67308124D01*
X114648538Y-67308133D01*
X114719723Y-67414668D01*
X114719726Y-67414672D01*
X114810327Y-67505273D01*
X114810331Y-67505276D01*
X114916866Y-67576461D01*
X114916872Y-67576464D01*
X114916873Y-67576465D01*
X115035256Y-67625501D01*
X115035260Y-67625501D01*
X115035261Y-67625502D01*
X115160928Y-67650500D01*
X115160931Y-67650500D01*
X115289071Y-67650500D01*
X115373615Y-67633682D01*
X115414744Y-67625501D01*
X115533127Y-67576465D01*
X115639669Y-67505276D01*
X115730276Y-67414669D01*
X115801465Y-67308127D01*
X115850501Y-67189744D01*
X115875500Y-67064069D01*
X115875500Y-66935931D01*
X115875500Y-66935928D01*
X115859507Y-66855531D01*
X115865734Y-66785940D01*
X115893441Y-66743661D01*
X117573032Y-65064071D01*
X140349499Y-65064071D01*
X140374497Y-65189738D01*
X140374499Y-65189744D01*
X140423533Y-65308124D01*
X140423538Y-65308133D01*
X140494723Y-65414668D01*
X140494726Y-65414672D01*
X140585327Y-65505273D01*
X140585331Y-65505276D01*
X140691866Y-65576461D01*
X140691872Y-65576464D01*
X140691873Y-65576465D01*
X140810256Y-65625501D01*
X140810258Y-65625501D01*
X140810260Y-65625502D01*
X140824743Y-65628383D01*
X140886653Y-65660769D01*
X140921227Y-65721485D01*
X140917486Y-65791254D01*
X140876619Y-65847926D01*
X140824743Y-65871617D01*
X140810260Y-65874497D01*
X140810255Y-65874499D01*
X140691875Y-65923533D01*
X140691866Y-65923538D01*
X140585331Y-65994723D01*
X140585327Y-65994726D01*
X140494726Y-66085327D01*
X140494723Y-66085331D01*
X140423538Y-66191866D01*
X140423533Y-66191875D01*
X140374499Y-66310255D01*
X140374497Y-66310261D01*
X140349500Y-66435928D01*
X140349500Y-66435931D01*
X140349500Y-66564069D01*
X140349500Y-66564071D01*
X140349499Y-66564071D01*
X140374497Y-66689738D01*
X140374499Y-66689744D01*
X140423533Y-66808124D01*
X140423538Y-66808133D01*
X140494723Y-66914668D01*
X140494725Y-66914671D01*
X140513179Y-66933124D01*
X140546666Y-66994446D01*
X140549500Y-67020807D01*
X140549500Y-68059308D01*
X140573712Y-68149672D01*
X140580200Y-68173885D01*
X140580200Y-68173886D01*
X140580201Y-68173887D01*
X140639511Y-68276614D01*
X146395138Y-74032242D01*
X146488433Y-74086105D01*
X146514110Y-74105807D01*
X146585328Y-74177025D01*
X146585332Y-74177029D01*
X146691866Y-74248213D01*
X146691872Y-74248216D01*
X146691873Y-74248217D01*
X146810256Y-74297253D01*
X146810260Y-74297253D01*
X146810261Y-74297254D01*
X146935928Y-74322252D01*
X146935931Y-74322252D01*
X147064071Y-74322252D01*
X147148615Y-74305434D01*
X147189744Y-74297253D01*
X147308127Y-74248217D01*
X147414669Y-74177028D01*
X147505276Y-74086421D01*
X147576465Y-73979879D01*
X147625501Y-73861496D01*
X147650500Y-73735821D01*
X147650500Y-73607683D01*
X147650500Y-73607680D01*
X147625502Y-73482013D01*
X147625501Y-73482012D01*
X147625501Y-73482008D01*
X147576465Y-73363625D01*
X147576464Y-73363624D01*
X147576461Y-73363618D01*
X147505276Y-73257083D01*
X147505273Y-73257079D01*
X147414672Y-73166478D01*
X147414668Y-73166475D01*
X147308133Y-73095290D01*
X147308124Y-73095285D01*
X147189744Y-73046251D01*
X147189738Y-73046249D01*
X147064071Y-73021252D01*
X147064069Y-73021252D01*
X146935931Y-73021252D01*
X146935929Y-73021252D01*
X146810262Y-73046249D01*
X146810251Y-73046252D01*
X146797062Y-73051715D01*
X146727592Y-73059179D01*
X146665115Y-73027900D01*
X146661936Y-73024832D01*
X145799285Y-72162181D01*
X145765800Y-72100858D01*
X145770784Y-72031166D01*
X145812656Y-71975233D01*
X145878120Y-71950816D01*
X145886966Y-71950500D01*
X150124500Y-71950500D01*
X150191539Y-71970185D01*
X150237294Y-72022989D01*
X150248500Y-72074500D01*
X150248500Y-73063035D01*
X150239855Y-73092475D01*
X150233332Y-73122462D01*
X150229577Y-73127477D01*
X150228815Y-73130074D01*
X150212181Y-73150716D01*
X150049716Y-73313181D01*
X149988393Y-73346666D01*
X149962035Y-73349500D01*
X149935929Y-73349500D01*
X149810261Y-73374497D01*
X149810255Y-73374499D01*
X149691875Y-73423533D01*
X149691866Y-73423538D01*
X149585331Y-73494723D01*
X149585327Y-73494726D01*
X149494726Y-73585327D01*
X149494723Y-73585331D01*
X149423538Y-73691866D01*
X149423533Y-73691875D01*
X149374499Y-73810255D01*
X149374497Y-73810261D01*
X149349500Y-73935928D01*
X149349500Y-73935931D01*
X149349500Y-74064069D01*
X149349500Y-74064071D01*
X149349499Y-74064071D01*
X149374497Y-74189738D01*
X149374499Y-74189744D01*
X149423533Y-74308124D01*
X149423538Y-74308133D01*
X149494723Y-74414668D01*
X149494726Y-74414672D01*
X149585327Y-74505273D01*
X149585331Y-74505276D01*
X149691866Y-74576461D01*
X149691872Y-74576464D01*
X149691873Y-74576465D01*
X149810256Y-74625501D01*
X149810260Y-74625501D01*
X149810261Y-74625502D01*
X149935928Y-74650500D01*
X149935931Y-74650500D01*
X150064071Y-74650500D01*
X150148615Y-74633682D01*
X150189744Y-74625501D01*
X150308127Y-74576465D01*
X150414669Y-74505276D01*
X150505276Y-74414669D01*
X150576465Y-74308127D01*
X150625501Y-74189744D01*
X150644889Y-74092278D01*
X150650500Y-74064071D01*
X150650500Y-74037965D01*
X150670185Y-73970926D01*
X150686819Y-73950284D01*
X150826848Y-73810255D01*
X151059489Y-73577614D01*
X151118798Y-73474887D01*
X151118799Y-73474886D01*
X151149500Y-73360309D01*
X151149500Y-71639691D01*
X151118799Y-71525114D01*
X151070057Y-71440691D01*
X151059489Y-71422386D01*
X151059487Y-71422384D01*
X151059486Y-71422382D01*
X151059485Y-71422381D01*
X150776616Y-71139513D01*
X150776614Y-71139511D01*
X150725250Y-71109856D01*
X150673888Y-71080201D01*
X150661780Y-71076957D01*
X150649673Y-71073713D01*
X150649670Y-71073712D01*
X150611478Y-71063478D01*
X150559309Y-71049500D01*
X150559308Y-71049500D01*
X145587907Y-71049500D01*
X145520868Y-71029815D01*
X145500226Y-71013181D01*
X142486819Y-67999774D01*
X142453334Y-67938451D01*
X142450500Y-67912093D01*
X142450500Y-65940693D01*
X142450500Y-65940691D01*
X142419799Y-65826114D01*
X142406745Y-65803504D01*
X142360490Y-65723387D01*
X141686819Y-65049716D01*
X141653334Y-64988393D01*
X141650500Y-64962035D01*
X141650500Y-64935928D01*
X141625502Y-64810261D01*
X141625501Y-64810260D01*
X141625501Y-64810256D01*
X141576465Y-64691873D01*
X141576464Y-64691872D01*
X141576461Y-64691866D01*
X141505276Y-64585331D01*
X141505273Y-64585327D01*
X141414672Y-64494726D01*
X141414668Y-64494723D01*
X141308133Y-64423538D01*
X141308124Y-64423533D01*
X141189744Y-64374499D01*
X141189738Y-64374497D01*
X141064071Y-64349500D01*
X141064069Y-64349500D01*
X140935931Y-64349500D01*
X140935929Y-64349500D01*
X140810261Y-64374497D01*
X140810255Y-64374499D01*
X140691875Y-64423533D01*
X140691866Y-64423538D01*
X140585331Y-64494723D01*
X140585327Y-64494726D01*
X140494726Y-64585327D01*
X140494723Y-64585331D01*
X140423538Y-64691866D01*
X140423533Y-64691875D01*
X140374499Y-64810255D01*
X140374497Y-64810261D01*
X140349500Y-64935928D01*
X140349500Y-64935931D01*
X140349500Y-65064069D01*
X140349500Y-65064071D01*
X140349499Y-65064071D01*
X117573032Y-65064071D01*
X118550285Y-64086819D01*
X118611608Y-64053334D01*
X118637966Y-64050500D01*
X118664071Y-64050500D01*
X118748615Y-64033682D01*
X118789744Y-64025501D01*
X118908127Y-63976465D01*
X119014669Y-63905276D01*
X119105276Y-63814669D01*
X119176465Y-63708127D01*
X119225501Y-63589744D01*
X119250500Y-63464069D01*
X119250500Y-63335931D01*
X119250500Y-63335928D01*
X119225502Y-63210261D01*
X119225501Y-63210260D01*
X119225501Y-63210256D01*
X119187574Y-63118692D01*
X119176466Y-63091875D01*
X119176461Y-63091866D01*
X119105276Y-62985331D01*
X119105273Y-62985327D01*
X119014672Y-62894726D01*
X119014668Y-62894723D01*
X118908133Y-62823538D01*
X118908124Y-62823533D01*
X118789744Y-62774499D01*
X118789738Y-62774497D01*
X118664071Y-62749500D01*
X118664069Y-62749500D01*
X118535931Y-62749500D01*
X118535929Y-62749500D01*
X118410261Y-62774497D01*
X118410255Y-62774499D01*
X118291875Y-62823533D01*
X118291866Y-62823538D01*
X118185331Y-62894723D01*
X118185327Y-62894726D01*
X118094726Y-62985327D01*
X118094723Y-62985331D01*
X118023538Y-63091866D01*
X118023533Y-63091875D01*
X117974499Y-63210255D01*
X117974497Y-63210261D01*
X117949500Y-63335928D01*
X117949500Y-63362034D01*
X117929815Y-63429073D01*
X117913181Y-63449715D01*
X114972704Y-66390191D01*
X114932482Y-66417068D01*
X114916877Y-66423532D01*
X114810328Y-66494725D01*
X114719726Y-66585327D01*
X114719723Y-66585331D01*
X114648538Y-66691866D01*
X114648533Y-66691875D01*
X114599499Y-66810255D01*
X114599497Y-66810261D01*
X114574500Y-66935928D01*
X114574500Y-66935931D01*
X114574500Y-67064069D01*
X114574500Y-67064071D01*
X114574499Y-67064071D01*
X108400500Y-67064071D01*
X108400500Y-63854875D01*
X108400882Y-63845146D01*
X108416349Y-63648619D01*
X108419391Y-63629407D01*
X108464273Y-63442460D01*
X108470279Y-63423976D01*
X108543854Y-63246351D01*
X108552687Y-63229017D01*
X108564185Y-63210255D01*
X108653133Y-63065103D01*
X108664568Y-63049365D01*
X108789426Y-62903173D01*
X108803173Y-62889426D01*
X108949367Y-62764565D01*
X108965106Y-62753132D01*
X109128115Y-62653240D01*
X109129020Y-62652685D01*
X109146351Y-62643854D01*
X109323976Y-62570279D01*
X109342460Y-62564273D01*
X109529407Y-62519391D01*
X109548613Y-62516349D01*
X109745146Y-62500881D01*
X109754875Y-62500500D01*
X109815892Y-62500500D01*
X150434108Y-62500500D01*
X150496949Y-62500500D01*
X150503032Y-62500648D01*
G37*
%TD.AperFunction*%
%TD*%
M02*
