%TF.GenerationSoftware,KiCad,Pcbnew,9.0.7-9.0.7~ubuntu22.04.1*%
%TF.CreationDate,2026-01-23T00:01:14+05:30*%
%TF.ProjectId,TWIN_NODE2,5457494e-5f4e-44f4-9445-322e6b696361,rev?*%
%TF.SameCoordinates,Original*%
%TF.FileFunction,Legend,Top*%
%TF.FilePolarity,Positive*%
%FSLAX46Y46*%
G04 Gerber Fmt 4.6, Leading zero omitted, Abs format (unit mm)*
G04 Created by KiCad (PCBNEW 9.0.7-9.0.7~ubuntu22.04.1) date 2026-01-23 00:01:14*
%MOMM*%
%LPD*%
G01*
G04 APERTURE LIST*
%ADD10C,0.150000*%
%ADD11C,0.200000*%
%ADD12C,0.120000*%
%ADD13C,0.127000*%
G04 APERTURE END LIST*
D10*
X114294295Y-70203696D02*
X113913342Y-70470363D01*
X114294295Y-70660839D02*
X113494295Y-70660839D01*
X113494295Y-70660839D02*
X113494295Y-70356077D01*
X113494295Y-70356077D02*
X113532390Y-70279887D01*
X113532390Y-70279887D02*
X113570485Y-70241792D01*
X113570485Y-70241792D02*
X113646676Y-70203696D01*
X113646676Y-70203696D02*
X113760961Y-70203696D01*
X113760961Y-70203696D02*
X113837152Y-70241792D01*
X113837152Y-70241792D02*
X113875247Y-70279887D01*
X113875247Y-70279887D02*
X113913342Y-70356077D01*
X113913342Y-70356077D02*
X113913342Y-70660839D01*
X114256200Y-69898935D02*
X114294295Y-69784649D01*
X114294295Y-69784649D02*
X114294295Y-69594173D01*
X114294295Y-69594173D02*
X114256200Y-69517982D01*
X114256200Y-69517982D02*
X114218104Y-69479887D01*
X114218104Y-69479887D02*
X114141914Y-69441792D01*
X114141914Y-69441792D02*
X114065723Y-69441792D01*
X114065723Y-69441792D02*
X113989533Y-69479887D01*
X113989533Y-69479887D02*
X113951438Y-69517982D01*
X113951438Y-69517982D02*
X113913342Y-69594173D01*
X113913342Y-69594173D02*
X113875247Y-69746554D01*
X113875247Y-69746554D02*
X113837152Y-69822744D01*
X113837152Y-69822744D02*
X113799057Y-69860839D01*
X113799057Y-69860839D02*
X113722866Y-69898935D01*
X113722866Y-69898935D02*
X113646676Y-69898935D01*
X113646676Y-69898935D02*
X113570485Y-69860839D01*
X113570485Y-69860839D02*
X113532390Y-69822744D01*
X113532390Y-69822744D02*
X113494295Y-69746554D01*
X113494295Y-69746554D02*
X113494295Y-69556077D01*
X113494295Y-69556077D02*
X113532390Y-69441792D01*
X113494295Y-69213220D02*
X113494295Y-68756077D01*
X114294295Y-68984649D02*
X113494295Y-68984649D01*
X144170112Y-89794295D02*
X143789160Y-89794295D01*
X143789160Y-89794295D02*
X143789160Y-88994295D01*
X144779636Y-89260961D02*
X144779636Y-89794295D01*
X144589160Y-88956200D02*
X144398683Y-89527628D01*
X144398683Y-89527628D02*
X144893922Y-89527628D01*
X144170112Y-86894295D02*
X143789160Y-86894295D01*
X143789160Y-86894295D02*
X143789160Y-86094295D01*
X144360588Y-86094295D02*
X144855826Y-86094295D01*
X144855826Y-86094295D02*
X144589160Y-86399057D01*
X144589160Y-86399057D02*
X144703445Y-86399057D01*
X144703445Y-86399057D02*
X144779636Y-86437152D01*
X144779636Y-86437152D02*
X144817731Y-86475247D01*
X144817731Y-86475247D02*
X144855826Y-86551438D01*
X144855826Y-86551438D02*
X144855826Y-86741914D01*
X144855826Y-86741914D02*
X144817731Y-86818104D01*
X144817731Y-86818104D02*
X144779636Y-86856200D01*
X144779636Y-86856200D02*
X144703445Y-86894295D01*
X144703445Y-86894295D02*
X144474874Y-86894295D01*
X144474874Y-86894295D02*
X144398683Y-86856200D01*
X144398683Y-86856200D02*
X144360588Y-86818104D01*
X144170112Y-83894295D02*
X143789160Y-83894295D01*
X143789160Y-83894295D02*
X143789160Y-83094295D01*
X144398683Y-83170485D02*
X144436779Y-83132390D01*
X144436779Y-83132390D02*
X144512969Y-83094295D01*
X144512969Y-83094295D02*
X144703445Y-83094295D01*
X144703445Y-83094295D02*
X144779636Y-83132390D01*
X144779636Y-83132390D02*
X144817731Y-83170485D01*
X144817731Y-83170485D02*
X144855826Y-83246676D01*
X144855826Y-83246676D02*
X144855826Y-83322866D01*
X144855826Y-83322866D02*
X144817731Y-83437152D01*
X144817731Y-83437152D02*
X144360588Y-83894295D01*
X144360588Y-83894295D02*
X144855826Y-83894295D01*
X133855826Y-93575247D02*
X133970112Y-93613342D01*
X133970112Y-93613342D02*
X134008207Y-93651438D01*
X134008207Y-93651438D02*
X134046303Y-93727628D01*
X134046303Y-93727628D02*
X134046303Y-93841914D01*
X134046303Y-93841914D02*
X134008207Y-93918104D01*
X134008207Y-93918104D02*
X133970112Y-93956200D01*
X133970112Y-93956200D02*
X133893922Y-93994295D01*
X133893922Y-93994295D02*
X133589160Y-93994295D01*
X133589160Y-93994295D02*
X133589160Y-93194295D01*
X133589160Y-93194295D02*
X133855826Y-93194295D01*
X133855826Y-93194295D02*
X133932017Y-93232390D01*
X133932017Y-93232390D02*
X133970112Y-93270485D01*
X133970112Y-93270485D02*
X134008207Y-93346676D01*
X134008207Y-93346676D02*
X134008207Y-93422866D01*
X134008207Y-93422866D02*
X133970112Y-93499057D01*
X133970112Y-93499057D02*
X133932017Y-93537152D01*
X133932017Y-93537152D02*
X133855826Y-93575247D01*
X133855826Y-93575247D02*
X133589160Y-93575247D01*
X134351064Y-93765723D02*
X134732017Y-93765723D01*
X134274874Y-93994295D02*
X134541541Y-93194295D01*
X134541541Y-93194295D02*
X134808207Y-93994295D01*
X134960588Y-93194295D02*
X135417731Y-93194295D01*
X135189159Y-93994295D02*
X135189159Y-93194295D01*
X144170112Y-80894295D02*
X143789160Y-80894295D01*
X143789160Y-80894295D02*
X143789160Y-80094295D01*
X144855826Y-80894295D02*
X144398683Y-80894295D01*
X144627255Y-80894295D02*
X144627255Y-80094295D01*
X144627255Y-80094295D02*
X144551064Y-80208580D01*
X144551064Y-80208580D02*
X144474874Y-80284771D01*
X144474874Y-80284771D02*
X144398683Y-80322866D01*
X132355826Y-82487292D02*
X132470112Y-82525387D01*
X132470112Y-82525387D02*
X132508207Y-82563483D01*
X132508207Y-82563483D02*
X132546303Y-82639673D01*
X132546303Y-82639673D02*
X132546303Y-82753959D01*
X132546303Y-82753959D02*
X132508207Y-82830149D01*
X132508207Y-82830149D02*
X132470112Y-82868245D01*
X132470112Y-82868245D02*
X132393922Y-82906340D01*
X132393922Y-82906340D02*
X132089160Y-82906340D01*
X132089160Y-82906340D02*
X132089160Y-82106340D01*
X132089160Y-82106340D02*
X132355826Y-82106340D01*
X132355826Y-82106340D02*
X132432017Y-82144435D01*
X132432017Y-82144435D02*
X132470112Y-82182530D01*
X132470112Y-82182530D02*
X132508207Y-82258721D01*
X132508207Y-82258721D02*
X132508207Y-82334911D01*
X132508207Y-82334911D02*
X132470112Y-82411102D01*
X132470112Y-82411102D02*
X132432017Y-82449197D01*
X132432017Y-82449197D02*
X132355826Y-82487292D01*
X132355826Y-82487292D02*
X132089160Y-82487292D01*
X132812969Y-82106340D02*
X133346303Y-82106340D01*
X133346303Y-82106340D02*
X132812969Y-82906340D01*
X132812969Y-82906340D02*
X133346303Y-82906340D01*
X115962295Y-64633332D02*
X115581342Y-64899999D01*
X115962295Y-65090475D02*
X115162295Y-65090475D01*
X115162295Y-65090475D02*
X115162295Y-64785713D01*
X115162295Y-64785713D02*
X115200390Y-64709523D01*
X115200390Y-64709523D02*
X115238485Y-64671428D01*
X115238485Y-64671428D02*
X115314676Y-64633332D01*
X115314676Y-64633332D02*
X115428961Y-64633332D01*
X115428961Y-64633332D02*
X115505152Y-64671428D01*
X115505152Y-64671428D02*
X115543247Y-64709523D01*
X115543247Y-64709523D02*
X115581342Y-64785713D01*
X115581342Y-64785713D02*
X115581342Y-65090475D01*
X115162295Y-63947618D02*
X115162295Y-64099999D01*
X115162295Y-64099999D02*
X115200390Y-64176190D01*
X115200390Y-64176190D02*
X115238485Y-64214285D01*
X115238485Y-64214285D02*
X115352771Y-64290475D01*
X115352771Y-64290475D02*
X115505152Y-64328571D01*
X115505152Y-64328571D02*
X115809914Y-64328571D01*
X115809914Y-64328571D02*
X115886104Y-64290475D01*
X115886104Y-64290475D02*
X115924200Y-64252380D01*
X115924200Y-64252380D02*
X115962295Y-64176190D01*
X115962295Y-64176190D02*
X115962295Y-64023809D01*
X115962295Y-64023809D02*
X115924200Y-63947618D01*
X115924200Y-63947618D02*
X115886104Y-63909523D01*
X115886104Y-63909523D02*
X115809914Y-63871428D01*
X115809914Y-63871428D02*
X115619438Y-63871428D01*
X115619438Y-63871428D02*
X115543247Y-63909523D01*
X115543247Y-63909523D02*
X115505152Y-63947618D01*
X115505152Y-63947618D02*
X115467057Y-64023809D01*
X115467057Y-64023809D02*
X115467057Y-64176190D01*
X115467057Y-64176190D02*
X115505152Y-64252380D01*
X115505152Y-64252380D02*
X115543247Y-64290475D01*
X115543247Y-64290475D02*
X115619438Y-64328571D01*
X140891666Y-90954819D02*
X140891666Y-91669104D01*
X140891666Y-91669104D02*
X140844047Y-91811961D01*
X140844047Y-91811961D02*
X140748809Y-91907200D01*
X140748809Y-91907200D02*
X140605952Y-91954819D01*
X140605952Y-91954819D02*
X140510714Y-91954819D01*
X141320238Y-91050057D02*
X141367857Y-91002438D01*
X141367857Y-91002438D02*
X141463095Y-90954819D01*
X141463095Y-90954819D02*
X141701190Y-90954819D01*
X141701190Y-90954819D02*
X141796428Y-91002438D01*
X141796428Y-91002438D02*
X141844047Y-91050057D01*
X141844047Y-91050057D02*
X141891666Y-91145295D01*
X141891666Y-91145295D02*
X141891666Y-91240533D01*
X141891666Y-91240533D02*
X141844047Y-91383390D01*
X141844047Y-91383390D02*
X141272619Y-91954819D01*
X141272619Y-91954819D02*
X141891666Y-91954819D01*
X115866667Y-79286104D02*
X115828571Y-79324200D01*
X115828571Y-79324200D02*
X115714286Y-79362295D01*
X115714286Y-79362295D02*
X115638095Y-79362295D01*
X115638095Y-79362295D02*
X115523809Y-79324200D01*
X115523809Y-79324200D02*
X115447619Y-79248009D01*
X115447619Y-79248009D02*
X115409524Y-79171819D01*
X115409524Y-79171819D02*
X115371428Y-79019438D01*
X115371428Y-79019438D02*
X115371428Y-78905152D01*
X115371428Y-78905152D02*
X115409524Y-78752771D01*
X115409524Y-78752771D02*
X115447619Y-78676580D01*
X115447619Y-78676580D02*
X115523809Y-78600390D01*
X115523809Y-78600390D02*
X115638095Y-78562295D01*
X115638095Y-78562295D02*
X115714286Y-78562295D01*
X115714286Y-78562295D02*
X115828571Y-78600390D01*
X115828571Y-78600390D02*
X115866667Y-78638485D01*
X116552381Y-78828961D02*
X116552381Y-79362295D01*
X116361905Y-78524200D02*
X116171428Y-79095628D01*
X116171428Y-79095628D02*
X116666667Y-79095628D01*
D11*
X137985714Y-90359695D02*
X137719047Y-89978742D01*
X137528571Y-90359695D02*
X137528571Y-89559695D01*
X137528571Y-89559695D02*
X137833333Y-89559695D01*
X137833333Y-89559695D02*
X137909523Y-89597790D01*
X137909523Y-89597790D02*
X137947618Y-89635885D01*
X137947618Y-89635885D02*
X137985714Y-89712076D01*
X137985714Y-89712076D02*
X137985714Y-89826361D01*
X137985714Y-89826361D02*
X137947618Y-89902552D01*
X137947618Y-89902552D02*
X137909523Y-89940647D01*
X137909523Y-89940647D02*
X137833333Y-89978742D01*
X137833333Y-89978742D02*
X137528571Y-89978742D01*
X138747618Y-90359695D02*
X138290475Y-90359695D01*
X138519047Y-90359695D02*
X138519047Y-89559695D01*
X138519047Y-89559695D02*
X138442856Y-89673980D01*
X138442856Y-89673980D02*
X138366666Y-89750171D01*
X138366666Y-89750171D02*
X138290475Y-89788266D01*
X139471428Y-89559695D02*
X139090476Y-89559695D01*
X139090476Y-89559695D02*
X139052380Y-89940647D01*
X139052380Y-89940647D02*
X139090476Y-89902552D01*
X139090476Y-89902552D02*
X139166666Y-89864457D01*
X139166666Y-89864457D02*
X139357142Y-89864457D01*
X139357142Y-89864457D02*
X139433333Y-89902552D01*
X139433333Y-89902552D02*
X139471428Y-89940647D01*
X139471428Y-89940647D02*
X139509523Y-90016838D01*
X139509523Y-90016838D02*
X139509523Y-90207314D01*
X139509523Y-90207314D02*
X139471428Y-90283504D01*
X139471428Y-90283504D02*
X139433333Y-90321600D01*
X139433333Y-90321600D02*
X139357142Y-90359695D01*
X139357142Y-90359695D02*
X139166666Y-90359695D01*
X139166666Y-90359695D02*
X139090476Y-90321600D01*
X139090476Y-90321600D02*
X139052380Y-90283504D01*
X144383504Y-65300832D02*
X144421600Y-65338928D01*
X144421600Y-65338928D02*
X144459695Y-65453213D01*
X144459695Y-65453213D02*
X144459695Y-65529404D01*
X144459695Y-65529404D02*
X144421600Y-65643690D01*
X144421600Y-65643690D02*
X144345409Y-65719880D01*
X144345409Y-65719880D02*
X144269219Y-65757975D01*
X144269219Y-65757975D02*
X144116838Y-65796071D01*
X144116838Y-65796071D02*
X144002552Y-65796071D01*
X144002552Y-65796071D02*
X143850171Y-65757975D01*
X143850171Y-65757975D02*
X143773980Y-65719880D01*
X143773980Y-65719880D02*
X143697790Y-65643690D01*
X143697790Y-65643690D02*
X143659695Y-65529404D01*
X143659695Y-65529404D02*
X143659695Y-65453213D01*
X143659695Y-65453213D02*
X143697790Y-65338928D01*
X143697790Y-65338928D02*
X143735885Y-65300832D01*
X143659695Y-65034166D02*
X143659695Y-64500832D01*
X143659695Y-64500832D02*
X144459695Y-64843690D01*
X144509695Y-76763332D02*
X144128742Y-77029999D01*
X144509695Y-77220475D02*
X143709695Y-77220475D01*
X143709695Y-77220475D02*
X143709695Y-76915713D01*
X143709695Y-76915713D02*
X143747790Y-76839523D01*
X143747790Y-76839523D02*
X143785885Y-76801428D01*
X143785885Y-76801428D02*
X143862076Y-76763332D01*
X143862076Y-76763332D02*
X143976361Y-76763332D01*
X143976361Y-76763332D02*
X144052552Y-76801428D01*
X144052552Y-76801428D02*
X144090647Y-76839523D01*
X144090647Y-76839523D02*
X144128742Y-76915713D01*
X144128742Y-76915713D02*
X144128742Y-77220475D01*
X143976361Y-76077618D02*
X144509695Y-76077618D01*
X143671600Y-76268094D02*
X144243028Y-76458571D01*
X144243028Y-76458571D02*
X144243028Y-75963332D01*
X130463504Y-87663332D02*
X130501600Y-87701428D01*
X130501600Y-87701428D02*
X130539695Y-87815713D01*
X130539695Y-87815713D02*
X130539695Y-87891904D01*
X130539695Y-87891904D02*
X130501600Y-88006190D01*
X130501600Y-88006190D02*
X130425409Y-88082380D01*
X130425409Y-88082380D02*
X130349219Y-88120475D01*
X130349219Y-88120475D02*
X130196838Y-88158571D01*
X130196838Y-88158571D02*
X130082552Y-88158571D01*
X130082552Y-88158571D02*
X129930171Y-88120475D01*
X129930171Y-88120475D02*
X129853980Y-88082380D01*
X129853980Y-88082380D02*
X129777790Y-88006190D01*
X129777790Y-88006190D02*
X129739695Y-87891904D01*
X129739695Y-87891904D02*
X129739695Y-87815713D01*
X129739695Y-87815713D02*
X129777790Y-87701428D01*
X129777790Y-87701428D02*
X129815885Y-87663332D01*
X129739695Y-87396666D02*
X129739695Y-86901428D01*
X129739695Y-86901428D02*
X130044457Y-87168094D01*
X130044457Y-87168094D02*
X130044457Y-87053809D01*
X130044457Y-87053809D02*
X130082552Y-86977618D01*
X130082552Y-86977618D02*
X130120647Y-86939523D01*
X130120647Y-86939523D02*
X130196838Y-86901428D01*
X130196838Y-86901428D02*
X130387314Y-86901428D01*
X130387314Y-86901428D02*
X130463504Y-86939523D01*
X130463504Y-86939523D02*
X130501600Y-86977618D01*
X130501600Y-86977618D02*
X130539695Y-87053809D01*
X130539695Y-87053809D02*
X130539695Y-87282380D01*
X130539695Y-87282380D02*
X130501600Y-87358571D01*
X130501600Y-87358571D02*
X130463504Y-87396666D01*
X116366667Y-85283504D02*
X116328571Y-85321600D01*
X116328571Y-85321600D02*
X116214286Y-85359695D01*
X116214286Y-85359695D02*
X116138095Y-85359695D01*
X116138095Y-85359695D02*
X116023809Y-85321600D01*
X116023809Y-85321600D02*
X115947619Y-85245409D01*
X115947619Y-85245409D02*
X115909524Y-85169219D01*
X115909524Y-85169219D02*
X115871428Y-85016838D01*
X115871428Y-85016838D02*
X115871428Y-84902552D01*
X115871428Y-84902552D02*
X115909524Y-84750171D01*
X115909524Y-84750171D02*
X115947619Y-84673980D01*
X115947619Y-84673980D02*
X116023809Y-84597790D01*
X116023809Y-84597790D02*
X116138095Y-84559695D01*
X116138095Y-84559695D02*
X116214286Y-84559695D01*
X116214286Y-84559695D02*
X116328571Y-84597790D01*
X116328571Y-84597790D02*
X116366667Y-84635885D01*
X116823809Y-84902552D02*
X116747619Y-84864457D01*
X116747619Y-84864457D02*
X116709524Y-84826361D01*
X116709524Y-84826361D02*
X116671428Y-84750171D01*
X116671428Y-84750171D02*
X116671428Y-84712076D01*
X116671428Y-84712076D02*
X116709524Y-84635885D01*
X116709524Y-84635885D02*
X116747619Y-84597790D01*
X116747619Y-84597790D02*
X116823809Y-84559695D01*
X116823809Y-84559695D02*
X116976190Y-84559695D01*
X116976190Y-84559695D02*
X117052381Y-84597790D01*
X117052381Y-84597790D02*
X117090476Y-84635885D01*
X117090476Y-84635885D02*
X117128571Y-84712076D01*
X117128571Y-84712076D02*
X117128571Y-84750171D01*
X117128571Y-84750171D02*
X117090476Y-84826361D01*
X117090476Y-84826361D02*
X117052381Y-84864457D01*
X117052381Y-84864457D02*
X116976190Y-84902552D01*
X116976190Y-84902552D02*
X116823809Y-84902552D01*
X116823809Y-84902552D02*
X116747619Y-84940647D01*
X116747619Y-84940647D02*
X116709524Y-84978742D01*
X116709524Y-84978742D02*
X116671428Y-85054933D01*
X116671428Y-85054933D02*
X116671428Y-85207314D01*
X116671428Y-85207314D02*
X116709524Y-85283504D01*
X116709524Y-85283504D02*
X116747619Y-85321600D01*
X116747619Y-85321600D02*
X116823809Y-85359695D01*
X116823809Y-85359695D02*
X116976190Y-85359695D01*
X116976190Y-85359695D02*
X117052381Y-85321600D01*
X117052381Y-85321600D02*
X117090476Y-85283504D01*
X117090476Y-85283504D02*
X117128571Y-85207314D01*
X117128571Y-85207314D02*
X117128571Y-85054933D01*
X117128571Y-85054933D02*
X117090476Y-84978742D01*
X117090476Y-84978742D02*
X117052381Y-84940647D01*
X117052381Y-84940647D02*
X116976190Y-84902552D01*
X130866667Y-96759695D02*
X130600000Y-96378742D01*
X130409524Y-96759695D02*
X130409524Y-95959695D01*
X130409524Y-95959695D02*
X130714286Y-95959695D01*
X130714286Y-95959695D02*
X130790476Y-95997790D01*
X130790476Y-95997790D02*
X130828571Y-96035885D01*
X130828571Y-96035885D02*
X130866667Y-96112076D01*
X130866667Y-96112076D02*
X130866667Y-96226361D01*
X130866667Y-96226361D02*
X130828571Y-96302552D01*
X130828571Y-96302552D02*
X130790476Y-96340647D01*
X130790476Y-96340647D02*
X130714286Y-96378742D01*
X130714286Y-96378742D02*
X130409524Y-96378742D01*
X131133333Y-95959695D02*
X131628571Y-95959695D01*
X131628571Y-95959695D02*
X131361905Y-96264457D01*
X131361905Y-96264457D02*
X131476190Y-96264457D01*
X131476190Y-96264457D02*
X131552381Y-96302552D01*
X131552381Y-96302552D02*
X131590476Y-96340647D01*
X131590476Y-96340647D02*
X131628571Y-96416838D01*
X131628571Y-96416838D02*
X131628571Y-96607314D01*
X131628571Y-96607314D02*
X131590476Y-96683504D01*
X131590476Y-96683504D02*
X131552381Y-96721600D01*
X131552381Y-96721600D02*
X131476190Y-96759695D01*
X131476190Y-96759695D02*
X131247619Y-96759695D01*
X131247619Y-96759695D02*
X131171428Y-96721600D01*
X131171428Y-96721600D02*
X131133333Y-96683504D01*
X114766667Y-97159695D02*
X114500000Y-96778742D01*
X114309524Y-97159695D02*
X114309524Y-96359695D01*
X114309524Y-96359695D02*
X114614286Y-96359695D01*
X114614286Y-96359695D02*
X114690476Y-96397790D01*
X114690476Y-96397790D02*
X114728571Y-96435885D01*
X114728571Y-96435885D02*
X114766667Y-96512076D01*
X114766667Y-96512076D02*
X114766667Y-96626361D01*
X114766667Y-96626361D02*
X114728571Y-96702552D01*
X114728571Y-96702552D02*
X114690476Y-96740647D01*
X114690476Y-96740647D02*
X114614286Y-96778742D01*
X114614286Y-96778742D02*
X114309524Y-96778742D01*
X115528571Y-97159695D02*
X115071428Y-97159695D01*
X115300000Y-97159695D02*
X115300000Y-96359695D01*
X115300000Y-96359695D02*
X115223809Y-96473980D01*
X115223809Y-96473980D02*
X115147619Y-96550171D01*
X115147619Y-96550171D02*
X115071428Y-96588266D01*
X122366667Y-85283504D02*
X122328571Y-85321600D01*
X122328571Y-85321600D02*
X122214286Y-85359695D01*
X122214286Y-85359695D02*
X122138095Y-85359695D01*
X122138095Y-85359695D02*
X122023809Y-85321600D01*
X122023809Y-85321600D02*
X121947619Y-85245409D01*
X121947619Y-85245409D02*
X121909524Y-85169219D01*
X121909524Y-85169219D02*
X121871428Y-85016838D01*
X121871428Y-85016838D02*
X121871428Y-84902552D01*
X121871428Y-84902552D02*
X121909524Y-84750171D01*
X121909524Y-84750171D02*
X121947619Y-84673980D01*
X121947619Y-84673980D02*
X122023809Y-84597790D01*
X122023809Y-84597790D02*
X122138095Y-84559695D01*
X122138095Y-84559695D02*
X122214286Y-84559695D01*
X122214286Y-84559695D02*
X122328571Y-84597790D01*
X122328571Y-84597790D02*
X122366667Y-84635885D01*
X122747619Y-85359695D02*
X122900000Y-85359695D01*
X122900000Y-85359695D02*
X122976190Y-85321600D01*
X122976190Y-85321600D02*
X123014286Y-85283504D01*
X123014286Y-85283504D02*
X123090476Y-85169219D01*
X123090476Y-85169219D02*
X123128571Y-85016838D01*
X123128571Y-85016838D02*
X123128571Y-84712076D01*
X123128571Y-84712076D02*
X123090476Y-84635885D01*
X123090476Y-84635885D02*
X123052381Y-84597790D01*
X123052381Y-84597790D02*
X122976190Y-84559695D01*
X122976190Y-84559695D02*
X122823809Y-84559695D01*
X122823809Y-84559695D02*
X122747619Y-84597790D01*
X122747619Y-84597790D02*
X122709524Y-84635885D01*
X122709524Y-84635885D02*
X122671428Y-84712076D01*
X122671428Y-84712076D02*
X122671428Y-84902552D01*
X122671428Y-84902552D02*
X122709524Y-84978742D01*
X122709524Y-84978742D02*
X122747619Y-85016838D01*
X122747619Y-85016838D02*
X122823809Y-85054933D01*
X122823809Y-85054933D02*
X122976190Y-85054933D01*
X122976190Y-85054933D02*
X123052381Y-85016838D01*
X123052381Y-85016838D02*
X123090476Y-84978742D01*
X123090476Y-84978742D02*
X123128571Y-84902552D01*
X128266667Y-96683504D02*
X128228571Y-96721600D01*
X128228571Y-96721600D02*
X128114286Y-96759695D01*
X128114286Y-96759695D02*
X128038095Y-96759695D01*
X128038095Y-96759695D02*
X127923809Y-96721600D01*
X127923809Y-96721600D02*
X127847619Y-96645409D01*
X127847619Y-96645409D02*
X127809524Y-96569219D01*
X127809524Y-96569219D02*
X127771428Y-96416838D01*
X127771428Y-96416838D02*
X127771428Y-96302552D01*
X127771428Y-96302552D02*
X127809524Y-96150171D01*
X127809524Y-96150171D02*
X127847619Y-96073980D01*
X127847619Y-96073980D02*
X127923809Y-95997790D01*
X127923809Y-95997790D02*
X128038095Y-95959695D01*
X128038095Y-95959695D02*
X128114286Y-95959695D01*
X128114286Y-95959695D02*
X128228571Y-95997790D01*
X128228571Y-95997790D02*
X128266667Y-96035885D01*
X128571428Y-96035885D02*
X128609524Y-95997790D01*
X128609524Y-95997790D02*
X128685714Y-95959695D01*
X128685714Y-95959695D02*
X128876190Y-95959695D01*
X128876190Y-95959695D02*
X128952381Y-95997790D01*
X128952381Y-95997790D02*
X128990476Y-96035885D01*
X128990476Y-96035885D02*
X129028571Y-96112076D01*
X129028571Y-96112076D02*
X129028571Y-96188266D01*
X129028571Y-96188266D02*
X128990476Y-96302552D01*
X128990476Y-96302552D02*
X128533333Y-96759695D01*
X128533333Y-96759695D02*
X129028571Y-96759695D01*
X119288809Y-84183885D02*
X119212619Y-84145790D01*
X119212619Y-84145790D02*
X119136428Y-84069600D01*
X119136428Y-84069600D02*
X119022142Y-83955314D01*
X119022142Y-83955314D02*
X118945952Y-83917219D01*
X118945952Y-83917219D02*
X118869761Y-83917219D01*
X118907857Y-84107695D02*
X118831666Y-84069600D01*
X118831666Y-84069600D02*
X118755476Y-83993409D01*
X118755476Y-83993409D02*
X118717380Y-83841028D01*
X118717380Y-83841028D02*
X118717380Y-83574361D01*
X118717380Y-83574361D02*
X118755476Y-83421980D01*
X118755476Y-83421980D02*
X118831666Y-83345790D01*
X118831666Y-83345790D02*
X118907857Y-83307695D01*
X118907857Y-83307695D02*
X119060238Y-83307695D01*
X119060238Y-83307695D02*
X119136428Y-83345790D01*
X119136428Y-83345790D02*
X119212619Y-83421980D01*
X119212619Y-83421980D02*
X119250714Y-83574361D01*
X119250714Y-83574361D02*
X119250714Y-83841028D01*
X119250714Y-83841028D02*
X119212619Y-83993409D01*
X119212619Y-83993409D02*
X119136428Y-84069600D01*
X119136428Y-84069600D02*
X119060238Y-84107695D01*
X119060238Y-84107695D02*
X118907857Y-84107695D01*
X120012618Y-84107695D02*
X119555475Y-84107695D01*
X119784047Y-84107695D02*
X119784047Y-83307695D01*
X119784047Y-83307695D02*
X119707856Y-83421980D01*
X119707856Y-83421980D02*
X119631666Y-83498171D01*
X119631666Y-83498171D02*
X119555475Y-83536266D01*
X137985714Y-85159695D02*
X137719047Y-84778742D01*
X137528571Y-85159695D02*
X137528571Y-84359695D01*
X137528571Y-84359695D02*
X137833333Y-84359695D01*
X137833333Y-84359695D02*
X137909523Y-84397790D01*
X137909523Y-84397790D02*
X137947618Y-84435885D01*
X137947618Y-84435885D02*
X137985714Y-84512076D01*
X137985714Y-84512076D02*
X137985714Y-84626361D01*
X137985714Y-84626361D02*
X137947618Y-84702552D01*
X137947618Y-84702552D02*
X137909523Y-84740647D01*
X137909523Y-84740647D02*
X137833333Y-84778742D01*
X137833333Y-84778742D02*
X137528571Y-84778742D01*
X138747618Y-85159695D02*
X138290475Y-85159695D01*
X138519047Y-85159695D02*
X138519047Y-84359695D01*
X138519047Y-84359695D02*
X138442856Y-84473980D01*
X138442856Y-84473980D02*
X138366666Y-84550171D01*
X138366666Y-84550171D02*
X138290475Y-84588266D01*
X139014285Y-84359695D02*
X139509523Y-84359695D01*
X139509523Y-84359695D02*
X139242857Y-84664457D01*
X139242857Y-84664457D02*
X139357142Y-84664457D01*
X139357142Y-84664457D02*
X139433333Y-84702552D01*
X139433333Y-84702552D02*
X139471428Y-84740647D01*
X139471428Y-84740647D02*
X139509523Y-84816838D01*
X139509523Y-84816838D02*
X139509523Y-85007314D01*
X139509523Y-85007314D02*
X139471428Y-85083504D01*
X139471428Y-85083504D02*
X139433333Y-85121600D01*
X139433333Y-85121600D02*
X139357142Y-85159695D01*
X139357142Y-85159695D02*
X139128571Y-85159695D01*
X139128571Y-85159695D02*
X139052380Y-85121600D01*
X139052380Y-85121600D02*
X139014285Y-85083504D01*
X121883504Y-76225832D02*
X121921600Y-76263928D01*
X121921600Y-76263928D02*
X121959695Y-76378213D01*
X121959695Y-76378213D02*
X121959695Y-76454404D01*
X121959695Y-76454404D02*
X121921600Y-76568690D01*
X121921600Y-76568690D02*
X121845409Y-76644880D01*
X121845409Y-76644880D02*
X121769219Y-76682975D01*
X121769219Y-76682975D02*
X121616838Y-76721071D01*
X121616838Y-76721071D02*
X121502552Y-76721071D01*
X121502552Y-76721071D02*
X121350171Y-76682975D01*
X121350171Y-76682975D02*
X121273980Y-76644880D01*
X121273980Y-76644880D02*
X121197790Y-76568690D01*
X121197790Y-76568690D02*
X121159695Y-76454404D01*
X121159695Y-76454404D02*
X121159695Y-76378213D01*
X121159695Y-76378213D02*
X121197790Y-76263928D01*
X121197790Y-76263928D02*
X121235885Y-76225832D01*
X121159695Y-75502023D02*
X121159695Y-75882975D01*
X121159695Y-75882975D02*
X121540647Y-75921071D01*
X121540647Y-75921071D02*
X121502552Y-75882975D01*
X121502552Y-75882975D02*
X121464457Y-75806785D01*
X121464457Y-75806785D02*
X121464457Y-75616309D01*
X121464457Y-75616309D02*
X121502552Y-75540118D01*
X121502552Y-75540118D02*
X121540647Y-75502023D01*
X121540647Y-75502023D02*
X121616838Y-75463928D01*
X121616838Y-75463928D02*
X121807314Y-75463928D01*
X121807314Y-75463928D02*
X121883504Y-75502023D01*
X121883504Y-75502023D02*
X121921600Y-75540118D01*
X121921600Y-75540118D02*
X121959695Y-75616309D01*
X121959695Y-75616309D02*
X121959695Y-75806785D01*
X121959695Y-75806785D02*
X121921600Y-75882975D01*
X121921600Y-75882975D02*
X121883504Y-75921071D01*
X121783504Y-64633332D02*
X121821600Y-64671428D01*
X121821600Y-64671428D02*
X121859695Y-64785713D01*
X121859695Y-64785713D02*
X121859695Y-64861904D01*
X121859695Y-64861904D02*
X121821600Y-64976190D01*
X121821600Y-64976190D02*
X121745409Y-65052380D01*
X121745409Y-65052380D02*
X121669219Y-65090475D01*
X121669219Y-65090475D02*
X121516838Y-65128571D01*
X121516838Y-65128571D02*
X121402552Y-65128571D01*
X121402552Y-65128571D02*
X121250171Y-65090475D01*
X121250171Y-65090475D02*
X121173980Y-65052380D01*
X121173980Y-65052380D02*
X121097790Y-64976190D01*
X121097790Y-64976190D02*
X121059695Y-64861904D01*
X121059695Y-64861904D02*
X121059695Y-64785713D01*
X121059695Y-64785713D02*
X121097790Y-64671428D01*
X121097790Y-64671428D02*
X121135885Y-64633332D01*
X121059695Y-63947618D02*
X121059695Y-64099999D01*
X121059695Y-64099999D02*
X121097790Y-64176190D01*
X121097790Y-64176190D02*
X121135885Y-64214285D01*
X121135885Y-64214285D02*
X121250171Y-64290475D01*
X121250171Y-64290475D02*
X121402552Y-64328571D01*
X121402552Y-64328571D02*
X121707314Y-64328571D01*
X121707314Y-64328571D02*
X121783504Y-64290475D01*
X121783504Y-64290475D02*
X121821600Y-64252380D01*
X121821600Y-64252380D02*
X121859695Y-64176190D01*
X121859695Y-64176190D02*
X121859695Y-64023809D01*
X121859695Y-64023809D02*
X121821600Y-63947618D01*
X121821600Y-63947618D02*
X121783504Y-63909523D01*
X121783504Y-63909523D02*
X121707314Y-63871428D01*
X121707314Y-63871428D02*
X121516838Y-63871428D01*
X121516838Y-63871428D02*
X121440647Y-63909523D01*
X121440647Y-63909523D02*
X121402552Y-63947618D01*
X121402552Y-63947618D02*
X121364457Y-64023809D01*
X121364457Y-64023809D02*
X121364457Y-64176190D01*
X121364457Y-64176190D02*
X121402552Y-64252380D01*
X121402552Y-64252380D02*
X121440647Y-64290475D01*
X121440647Y-64290475D02*
X121516838Y-64328571D01*
X146959695Y-70144285D02*
X146578742Y-70410952D01*
X146959695Y-70601428D02*
X146159695Y-70601428D01*
X146159695Y-70601428D02*
X146159695Y-70296666D01*
X146159695Y-70296666D02*
X146197790Y-70220476D01*
X146197790Y-70220476D02*
X146235885Y-70182381D01*
X146235885Y-70182381D02*
X146312076Y-70144285D01*
X146312076Y-70144285D02*
X146426361Y-70144285D01*
X146426361Y-70144285D02*
X146502552Y-70182381D01*
X146502552Y-70182381D02*
X146540647Y-70220476D01*
X146540647Y-70220476D02*
X146578742Y-70296666D01*
X146578742Y-70296666D02*
X146578742Y-70601428D01*
X146959695Y-69382381D02*
X146959695Y-69839524D01*
X146959695Y-69610952D02*
X146159695Y-69610952D01*
X146159695Y-69610952D02*
X146273980Y-69687143D01*
X146273980Y-69687143D02*
X146350171Y-69763333D01*
X146350171Y-69763333D02*
X146388266Y-69839524D01*
X146159695Y-68887142D02*
X146159695Y-68810952D01*
X146159695Y-68810952D02*
X146197790Y-68734761D01*
X146197790Y-68734761D02*
X146235885Y-68696666D01*
X146235885Y-68696666D02*
X146312076Y-68658571D01*
X146312076Y-68658571D02*
X146464457Y-68620476D01*
X146464457Y-68620476D02*
X146654933Y-68620476D01*
X146654933Y-68620476D02*
X146807314Y-68658571D01*
X146807314Y-68658571D02*
X146883504Y-68696666D01*
X146883504Y-68696666D02*
X146921600Y-68734761D01*
X146921600Y-68734761D02*
X146959695Y-68810952D01*
X146959695Y-68810952D02*
X146959695Y-68887142D01*
X146959695Y-68887142D02*
X146921600Y-68963333D01*
X146921600Y-68963333D02*
X146883504Y-69001428D01*
X146883504Y-69001428D02*
X146807314Y-69039523D01*
X146807314Y-69039523D02*
X146654933Y-69077619D01*
X146654933Y-69077619D02*
X146464457Y-69077619D01*
X146464457Y-69077619D02*
X146312076Y-69039523D01*
X146312076Y-69039523D02*
X146235885Y-69001428D01*
X146235885Y-69001428D02*
X146197790Y-68963333D01*
X146197790Y-68963333D02*
X146159695Y-68887142D01*
X118859695Y-64633332D02*
X118478742Y-64899999D01*
X118859695Y-65090475D02*
X118059695Y-65090475D01*
X118059695Y-65090475D02*
X118059695Y-64785713D01*
X118059695Y-64785713D02*
X118097790Y-64709523D01*
X118097790Y-64709523D02*
X118135885Y-64671428D01*
X118135885Y-64671428D02*
X118212076Y-64633332D01*
X118212076Y-64633332D02*
X118326361Y-64633332D01*
X118326361Y-64633332D02*
X118402552Y-64671428D01*
X118402552Y-64671428D02*
X118440647Y-64709523D01*
X118440647Y-64709523D02*
X118478742Y-64785713D01*
X118478742Y-64785713D02*
X118478742Y-65090475D01*
X118402552Y-64176190D02*
X118364457Y-64252380D01*
X118364457Y-64252380D02*
X118326361Y-64290475D01*
X118326361Y-64290475D02*
X118250171Y-64328571D01*
X118250171Y-64328571D02*
X118212076Y-64328571D01*
X118212076Y-64328571D02*
X118135885Y-64290475D01*
X118135885Y-64290475D02*
X118097790Y-64252380D01*
X118097790Y-64252380D02*
X118059695Y-64176190D01*
X118059695Y-64176190D02*
X118059695Y-64023809D01*
X118059695Y-64023809D02*
X118097790Y-63947618D01*
X118097790Y-63947618D02*
X118135885Y-63909523D01*
X118135885Y-63909523D02*
X118212076Y-63871428D01*
X118212076Y-63871428D02*
X118250171Y-63871428D01*
X118250171Y-63871428D02*
X118326361Y-63909523D01*
X118326361Y-63909523D02*
X118364457Y-63947618D01*
X118364457Y-63947618D02*
X118402552Y-64023809D01*
X118402552Y-64023809D02*
X118402552Y-64176190D01*
X118402552Y-64176190D02*
X118440647Y-64252380D01*
X118440647Y-64252380D02*
X118478742Y-64290475D01*
X118478742Y-64290475D02*
X118554933Y-64328571D01*
X118554933Y-64328571D02*
X118707314Y-64328571D01*
X118707314Y-64328571D02*
X118783504Y-64290475D01*
X118783504Y-64290475D02*
X118821600Y-64252380D01*
X118821600Y-64252380D02*
X118859695Y-64176190D01*
X118859695Y-64176190D02*
X118859695Y-64023809D01*
X118859695Y-64023809D02*
X118821600Y-63947618D01*
X118821600Y-63947618D02*
X118783504Y-63909523D01*
X118783504Y-63909523D02*
X118707314Y-63871428D01*
X118707314Y-63871428D02*
X118554933Y-63871428D01*
X118554933Y-63871428D02*
X118478742Y-63909523D01*
X118478742Y-63909523D02*
X118440647Y-63947618D01*
X118440647Y-63947618D02*
X118402552Y-64023809D01*
X137985714Y-87659695D02*
X137719047Y-87278742D01*
X137528571Y-87659695D02*
X137528571Y-86859695D01*
X137528571Y-86859695D02*
X137833333Y-86859695D01*
X137833333Y-86859695D02*
X137909523Y-86897790D01*
X137909523Y-86897790D02*
X137947618Y-86935885D01*
X137947618Y-86935885D02*
X137985714Y-87012076D01*
X137985714Y-87012076D02*
X137985714Y-87126361D01*
X137985714Y-87126361D02*
X137947618Y-87202552D01*
X137947618Y-87202552D02*
X137909523Y-87240647D01*
X137909523Y-87240647D02*
X137833333Y-87278742D01*
X137833333Y-87278742D02*
X137528571Y-87278742D01*
X138747618Y-87659695D02*
X138290475Y-87659695D01*
X138519047Y-87659695D02*
X138519047Y-86859695D01*
X138519047Y-86859695D02*
X138442856Y-86973980D01*
X138442856Y-86973980D02*
X138366666Y-87050171D01*
X138366666Y-87050171D02*
X138290475Y-87088266D01*
X139433333Y-87126361D02*
X139433333Y-87659695D01*
X139242857Y-86821600D02*
X139052380Y-87393028D01*
X139052380Y-87393028D02*
X139547619Y-87393028D01*
X144259695Y-70144285D02*
X143878742Y-70410952D01*
X144259695Y-70601428D02*
X143459695Y-70601428D01*
X143459695Y-70601428D02*
X143459695Y-70296666D01*
X143459695Y-70296666D02*
X143497790Y-70220476D01*
X143497790Y-70220476D02*
X143535885Y-70182381D01*
X143535885Y-70182381D02*
X143612076Y-70144285D01*
X143612076Y-70144285D02*
X143726361Y-70144285D01*
X143726361Y-70144285D02*
X143802552Y-70182381D01*
X143802552Y-70182381D02*
X143840647Y-70220476D01*
X143840647Y-70220476D02*
X143878742Y-70296666D01*
X143878742Y-70296666D02*
X143878742Y-70601428D01*
X144259695Y-69382381D02*
X144259695Y-69839524D01*
X144259695Y-69610952D02*
X143459695Y-69610952D01*
X143459695Y-69610952D02*
X143573980Y-69687143D01*
X143573980Y-69687143D02*
X143650171Y-69763333D01*
X143650171Y-69763333D02*
X143688266Y-69839524D01*
X144259695Y-68620476D02*
X144259695Y-69077619D01*
X144259695Y-68849047D02*
X143459695Y-68849047D01*
X143459695Y-68849047D02*
X143573980Y-68925238D01*
X143573980Y-68925238D02*
X143650171Y-69001428D01*
X143650171Y-69001428D02*
X143688266Y-69077619D01*
X146259695Y-73233332D02*
X145878742Y-73499999D01*
X146259695Y-73690475D02*
X145459695Y-73690475D01*
X145459695Y-73690475D02*
X145459695Y-73385713D01*
X145459695Y-73385713D02*
X145497790Y-73309523D01*
X145497790Y-73309523D02*
X145535885Y-73271428D01*
X145535885Y-73271428D02*
X145612076Y-73233332D01*
X145612076Y-73233332D02*
X145726361Y-73233332D01*
X145726361Y-73233332D02*
X145802552Y-73271428D01*
X145802552Y-73271428D02*
X145840647Y-73309523D01*
X145840647Y-73309523D02*
X145878742Y-73385713D01*
X145878742Y-73385713D02*
X145878742Y-73690475D01*
X145459695Y-72509523D02*
X145459695Y-72890475D01*
X145459695Y-72890475D02*
X145840647Y-72928571D01*
X145840647Y-72928571D02*
X145802552Y-72890475D01*
X145802552Y-72890475D02*
X145764457Y-72814285D01*
X145764457Y-72814285D02*
X145764457Y-72623809D01*
X145764457Y-72623809D02*
X145802552Y-72547618D01*
X145802552Y-72547618D02*
X145840647Y-72509523D01*
X145840647Y-72509523D02*
X145916838Y-72471428D01*
X145916838Y-72471428D02*
X146107314Y-72471428D01*
X146107314Y-72471428D02*
X146183504Y-72509523D01*
X146183504Y-72509523D02*
X146221600Y-72547618D01*
X146221600Y-72547618D02*
X146259695Y-72623809D01*
X146259695Y-72623809D02*
X146259695Y-72814285D01*
X146259695Y-72814285D02*
X146221600Y-72890475D01*
X146221600Y-72890475D02*
X146183504Y-72928571D01*
X137985714Y-82659695D02*
X137719047Y-82278742D01*
X137528571Y-82659695D02*
X137528571Y-81859695D01*
X137528571Y-81859695D02*
X137833333Y-81859695D01*
X137833333Y-81859695D02*
X137909523Y-81897790D01*
X137909523Y-81897790D02*
X137947618Y-81935885D01*
X137947618Y-81935885D02*
X137985714Y-82012076D01*
X137985714Y-82012076D02*
X137985714Y-82126361D01*
X137985714Y-82126361D02*
X137947618Y-82202552D01*
X137947618Y-82202552D02*
X137909523Y-82240647D01*
X137909523Y-82240647D02*
X137833333Y-82278742D01*
X137833333Y-82278742D02*
X137528571Y-82278742D01*
X138747618Y-82659695D02*
X138290475Y-82659695D01*
X138519047Y-82659695D02*
X138519047Y-81859695D01*
X138519047Y-81859695D02*
X138442856Y-81973980D01*
X138442856Y-81973980D02*
X138366666Y-82050171D01*
X138366666Y-82050171D02*
X138290475Y-82088266D01*
X139052380Y-81935885D02*
X139090476Y-81897790D01*
X139090476Y-81897790D02*
X139166666Y-81859695D01*
X139166666Y-81859695D02*
X139357142Y-81859695D01*
X139357142Y-81859695D02*
X139433333Y-81897790D01*
X139433333Y-81897790D02*
X139471428Y-81935885D01*
X139471428Y-81935885D02*
X139509523Y-82012076D01*
X139509523Y-82012076D02*
X139509523Y-82088266D01*
X139509523Y-82088266D02*
X139471428Y-82202552D01*
X139471428Y-82202552D02*
X139014285Y-82659695D01*
X139014285Y-82659695D02*
X139509523Y-82659695D01*
X115366667Y-92759695D02*
X115100000Y-92378742D01*
X114909524Y-92759695D02*
X114909524Y-91959695D01*
X114909524Y-91959695D02*
X115214286Y-91959695D01*
X115214286Y-91959695D02*
X115290476Y-91997790D01*
X115290476Y-91997790D02*
X115328571Y-92035885D01*
X115328571Y-92035885D02*
X115366667Y-92112076D01*
X115366667Y-92112076D02*
X115366667Y-92226361D01*
X115366667Y-92226361D02*
X115328571Y-92302552D01*
X115328571Y-92302552D02*
X115290476Y-92340647D01*
X115290476Y-92340647D02*
X115214286Y-92378742D01*
X115214286Y-92378742D02*
X114909524Y-92378742D01*
X115671428Y-92035885D02*
X115709524Y-91997790D01*
X115709524Y-91997790D02*
X115785714Y-91959695D01*
X115785714Y-91959695D02*
X115976190Y-91959695D01*
X115976190Y-91959695D02*
X116052381Y-91997790D01*
X116052381Y-91997790D02*
X116090476Y-92035885D01*
X116090476Y-92035885D02*
X116128571Y-92112076D01*
X116128571Y-92112076D02*
X116128571Y-92188266D01*
X116128571Y-92188266D02*
X116090476Y-92302552D01*
X116090476Y-92302552D02*
X115633333Y-92759695D01*
X115633333Y-92759695D02*
X116128571Y-92759695D01*
X127509695Y-87633332D02*
X127128742Y-87899999D01*
X127509695Y-88090475D02*
X126709695Y-88090475D01*
X126709695Y-88090475D02*
X126709695Y-87785713D01*
X126709695Y-87785713D02*
X126747790Y-87709523D01*
X126747790Y-87709523D02*
X126785885Y-87671428D01*
X126785885Y-87671428D02*
X126862076Y-87633332D01*
X126862076Y-87633332D02*
X126976361Y-87633332D01*
X126976361Y-87633332D02*
X127052552Y-87671428D01*
X127052552Y-87671428D02*
X127090647Y-87709523D01*
X127090647Y-87709523D02*
X127128742Y-87785713D01*
X127128742Y-87785713D02*
X127128742Y-88090475D01*
X127509695Y-87252380D02*
X127509695Y-87099999D01*
X127509695Y-87099999D02*
X127471600Y-87023809D01*
X127471600Y-87023809D02*
X127433504Y-86985713D01*
X127433504Y-86985713D02*
X127319219Y-86909523D01*
X127319219Y-86909523D02*
X127166838Y-86871428D01*
X127166838Y-86871428D02*
X126862076Y-86871428D01*
X126862076Y-86871428D02*
X126785885Y-86909523D01*
X126785885Y-86909523D02*
X126747790Y-86947618D01*
X126747790Y-86947618D02*
X126709695Y-87023809D01*
X126709695Y-87023809D02*
X126709695Y-87176190D01*
X126709695Y-87176190D02*
X126747790Y-87252380D01*
X126747790Y-87252380D02*
X126785885Y-87290475D01*
X126785885Y-87290475D02*
X126862076Y-87328571D01*
X126862076Y-87328571D02*
X127052552Y-87328571D01*
X127052552Y-87328571D02*
X127128742Y-87290475D01*
X127128742Y-87290475D02*
X127166838Y-87252380D01*
X127166838Y-87252380D02*
X127204933Y-87176190D01*
X127204933Y-87176190D02*
X127204933Y-87023809D01*
X127204933Y-87023809D02*
X127166838Y-86947618D01*
X127166838Y-86947618D02*
X127128742Y-86909523D01*
X127128742Y-86909523D02*
X127052552Y-86871428D01*
X117266667Y-97083504D02*
X117228571Y-97121600D01*
X117228571Y-97121600D02*
X117114286Y-97159695D01*
X117114286Y-97159695D02*
X117038095Y-97159695D01*
X117038095Y-97159695D02*
X116923809Y-97121600D01*
X116923809Y-97121600D02*
X116847619Y-97045409D01*
X116847619Y-97045409D02*
X116809524Y-96969219D01*
X116809524Y-96969219D02*
X116771428Y-96816838D01*
X116771428Y-96816838D02*
X116771428Y-96702552D01*
X116771428Y-96702552D02*
X116809524Y-96550171D01*
X116809524Y-96550171D02*
X116847619Y-96473980D01*
X116847619Y-96473980D02*
X116923809Y-96397790D01*
X116923809Y-96397790D02*
X117038095Y-96359695D01*
X117038095Y-96359695D02*
X117114286Y-96359695D01*
X117114286Y-96359695D02*
X117228571Y-96397790D01*
X117228571Y-96397790D02*
X117266667Y-96435885D01*
X118028571Y-97159695D02*
X117571428Y-97159695D01*
X117800000Y-97159695D02*
X117800000Y-96359695D01*
X117800000Y-96359695D02*
X117723809Y-96473980D01*
X117723809Y-96473980D02*
X117647619Y-96550171D01*
X117647619Y-96550171D02*
X117571428Y-96588266D01*
X122009695Y-68633332D02*
X121628742Y-68899999D01*
X122009695Y-69090475D02*
X121209695Y-69090475D01*
X121209695Y-69090475D02*
X121209695Y-68785713D01*
X121209695Y-68785713D02*
X121247790Y-68709523D01*
X121247790Y-68709523D02*
X121285885Y-68671428D01*
X121285885Y-68671428D02*
X121362076Y-68633332D01*
X121362076Y-68633332D02*
X121476361Y-68633332D01*
X121476361Y-68633332D02*
X121552552Y-68671428D01*
X121552552Y-68671428D02*
X121590647Y-68709523D01*
X121590647Y-68709523D02*
X121628742Y-68785713D01*
X121628742Y-68785713D02*
X121628742Y-69090475D01*
X121209695Y-68366666D02*
X121209695Y-67833332D01*
X121209695Y-67833332D02*
X122009695Y-68176190D01*
D12*
%TO.C,SW1*%
X109000000Y-73200000D02*
X110200000Y-73200000D01*
X111800000Y-73200000D02*
X113000000Y-73200000D01*
X113000000Y-73200000D02*
X113000000Y-66800000D01*
X109000000Y-66800000D02*
X109000000Y-73200000D01*
X110200000Y-66800000D02*
X109000000Y-66800000D01*
X113000000Y-66800000D02*
X111800000Y-66800000D01*
%TO.C,J3*%
X113485000Y-89560000D02*
X113485000Y-88510000D01*
X113485000Y-86390000D02*
X114475000Y-86390000D01*
X113485000Y-85340000D02*
X113485000Y-86390000D01*
X110985000Y-89560000D02*
X113485000Y-89560000D01*
X110985000Y-85340000D02*
X113485000Y-85340000D01*
X109015000Y-86510000D02*
X109015000Y-88390000D01*
%TO.C,SW2*%
X153000000Y-80800000D02*
X151800000Y-80800000D01*
X150200000Y-80800000D02*
X149000000Y-80800000D01*
X149000000Y-80800000D02*
X149000000Y-87200000D01*
X153000000Y-87200000D02*
X153000000Y-80800000D01*
X151800000Y-87200000D02*
X153000000Y-87200000D01*
X149000000Y-87200000D02*
X150200000Y-87200000D01*
%TO.C,R6*%
X114935000Y-64272936D02*
X114935000Y-64727064D01*
X113465000Y-64272936D02*
X113465000Y-64727064D01*
%TO.C,J2*%
X137415000Y-93090000D02*
X137795000Y-93090000D01*
X137415000Y-94860000D02*
X137415000Y-93090000D01*
X137415000Y-97400000D02*
X137415000Y-97140000D01*
X145035000Y-93090000D02*
X144655000Y-93090000D01*
X145035000Y-93090000D02*
X145035000Y-94860000D01*
X145035000Y-97140000D02*
X145035000Y-97400000D01*
%TO.C,C4*%
X114315000Y-78125000D02*
X114315000Y-77500000D01*
X114002500Y-77812500D02*
X114627500Y-77812500D01*
X114304437Y-77260000D02*
X114940000Y-77260000D01*
X114304437Y-77260000D02*
X113240000Y-76195563D01*
X117695563Y-77260000D02*
X117060000Y-77260000D01*
X117695563Y-77260000D02*
X118760000Y-76195563D01*
X113240000Y-76195563D02*
X113240000Y-71740000D01*
X118760000Y-76195563D02*
X118760000Y-71740000D01*
X113240000Y-71740000D02*
X114940000Y-71740000D01*
X118760000Y-71740000D02*
X117060000Y-71740000D01*
%TO.C,C7*%
X141795000Y-65428752D02*
X141795000Y-64906248D01*
X143265000Y-65428752D02*
X143265000Y-64906248D01*
%TO.C,R4*%
X141765000Y-76402936D02*
X141765000Y-76857064D01*
X143235000Y-76402936D02*
X143235000Y-76857064D01*
%TO.C,C3*%
X127765000Y-87268748D02*
X127765000Y-87791252D01*
X129235000Y-87268748D02*
X129235000Y-87791252D01*
%TO.C,C8*%
X117235000Y-82276248D02*
X117235000Y-82798752D01*
X115765000Y-82276248D02*
X115765000Y-82798752D01*
%TO.C,R3*%
X130165000Y-94227064D02*
X130165000Y-93772936D01*
X131635000Y-94227064D02*
X131635000Y-93772936D01*
%TO.C,R1*%
X114165000Y-94697064D02*
X114165000Y-94242936D01*
X115635000Y-94697064D02*
X115635000Y-94242936D01*
%TO.C,C9*%
X123235000Y-82841252D02*
X123235000Y-82318748D01*
X121765000Y-82841252D02*
X121765000Y-82318748D01*
%TO.C,C2*%
X127665000Y-94223752D02*
X127665000Y-93701248D01*
X129135000Y-94223752D02*
X129135000Y-93701248D01*
D13*
%TO.C,Q1*%
X117250000Y-85985000D02*
X121750000Y-85985000D01*
X117250000Y-89015000D02*
X121750000Y-89015000D01*
D11*
X115160000Y-86125000D02*
G75*
G02*
X114960000Y-86125000I-100000J0D01*
G01*
X114960000Y-86125000D02*
G75*
G02*
X115160000Y-86125000I100000J0D01*
G01*
D12*
%TO.C,C5*%
X120735000Y-76353752D02*
X120735000Y-75831248D01*
X119265000Y-76353752D02*
X119265000Y-75831248D01*
%TO.C,C6*%
X119235000Y-64208748D02*
X119235000Y-64731252D01*
X120705000Y-64208748D02*
X120705000Y-64731252D01*
%TO.C,R10*%
X145935000Y-69857064D02*
X145935000Y-69402936D01*
X144465000Y-69857064D02*
X144465000Y-69402936D01*
%TO.C,R8*%
X116235000Y-64272936D02*
X116235000Y-64727064D01*
X117705000Y-64272936D02*
X117705000Y-64727064D01*
D11*
%TO.C,IC1*%
X121008000Y-83100000D02*
X118112000Y-83100000D01*
X121008000Y-82550000D02*
X121008000Y-83100000D01*
X118112000Y-83100000D02*
X118112000Y-82550000D01*
X118112000Y-82550000D02*
X121008000Y-82550000D01*
X118046000Y-84700000D02*
X118046000Y-83450000D01*
%TO.C,U1*%
X122690000Y-78180000D02*
X122690000Y-79180000D01*
X122690000Y-79180000D02*
X125190000Y-79180000D01*
X139690000Y-79180000D02*
X137190000Y-79180000D01*
X139690000Y-79180000D02*
X139690000Y-78180000D01*
D12*
%TO.C,Q2*%
X125802500Y-80940000D02*
X127322500Y-80940000D01*
X125802500Y-80990000D02*
X125802500Y-80940000D01*
X125802500Y-82890000D02*
X125802500Y-82110000D01*
X125802500Y-84060000D02*
X125802500Y-84010000D01*
X127322500Y-80940000D02*
X127322500Y-81940000D01*
X127322500Y-83060000D02*
X127322500Y-84060000D01*
X127322500Y-84060000D02*
X125802500Y-84060000D01*
X125502500Y-82450000D02*
X125022500Y-82450000D01*
X125262500Y-82120000D01*
X125502500Y-82450000D01*
G36*
X125502500Y-82450000D02*
G01*
X125022500Y-82450000D01*
X125262500Y-82120000D01*
X125502500Y-82450000D01*
G37*
%TO.C,U3*%
X131847500Y-85790000D02*
X133667500Y-85790000D01*
X131847500Y-85840000D02*
X131847500Y-85790000D01*
X131847500Y-88910000D02*
X131847500Y-88860000D01*
X133667500Y-85790000D02*
X133667500Y-85840000D01*
X133667500Y-88860000D02*
X133667500Y-88910000D01*
X133667500Y-88910000D02*
X131847500Y-88910000D01*
X134447500Y-89190000D02*
X133967500Y-89190000D01*
X134207500Y-88860000D01*
X134447500Y-89190000D01*
G36*
X134447500Y-89190000D02*
G01*
X133967500Y-89190000D01*
X134207500Y-88860000D01*
X134447500Y-89190000D01*
G37*
%TO.C,R11*%
X141765000Y-69857064D02*
X141765000Y-69402936D01*
X143235000Y-69857064D02*
X143235000Y-69402936D01*
%TO.C,R5*%
X143172936Y-72395000D02*
X143627064Y-72395000D01*
X143172936Y-73865000D02*
X143627064Y-73865000D01*
%TO.C,R2*%
X115727064Y-90265000D02*
X115272936Y-90265000D01*
X115727064Y-91735000D02*
X115272936Y-91735000D01*
%TO.C,R9*%
X124765000Y-87272936D02*
X124765000Y-87727064D01*
X126235000Y-87272936D02*
X126235000Y-87727064D01*
%TO.C,C1*%
X116665000Y-94761252D02*
X116665000Y-94238748D01*
X118135000Y-94761252D02*
X118135000Y-94238748D01*
%TO.C,R7*%
X119265000Y-68272936D02*
X119265000Y-68727064D01*
X120735000Y-68272936D02*
X120735000Y-68727064D01*
%TO.C,J4*%
X148840000Y-71190000D02*
X148840000Y-72240000D01*
X148840000Y-76360000D02*
X147850000Y-76360000D01*
X148840000Y-77410000D02*
X148840000Y-76360000D01*
X151340000Y-71190000D02*
X148840000Y-71190000D01*
X151340000Y-77410000D02*
X148840000Y-77410000D01*
X153310000Y-76240000D02*
X153310000Y-72360000D01*
%TO.C,U2*%
X120865000Y-91035000D02*
X124985000Y-91035000D01*
X120865000Y-91130000D02*
X120865000Y-91035000D01*
X120865000Y-96155000D02*
X120865000Y-96060000D01*
X124985000Y-91035000D02*
X124985000Y-91130000D01*
X124985000Y-96060000D02*
X124985000Y-96155000D01*
X124985000Y-96155000D02*
X120865000Y-96155000D01*
X120325000Y-91125000D02*
X120085000Y-90795000D01*
X120565000Y-90795000D01*
X120325000Y-91125000D01*
G36*
X120325000Y-91125000D02*
G01*
X120085000Y-90795000D01*
X120565000Y-90795000D01*
X120325000Y-91125000D01*
G37*
%TD*%
M02*
