%TF.GenerationSoftware,KiCad,Pcbnew,9.0.7-9.0.7~ubuntu22.04.1*%
%TF.CreationDate,2026-01-23T00:01:14+05:30*%
%TF.ProjectId,TWIN_NODE2,5457494e-5f4e-44f4-9445-322e6b696361,rev?*%
%TF.SameCoordinates,Original*%
%TF.FileFunction,Copper,L1,Top*%
%TF.FilePolarity,Positive*%
%FSLAX46Y46*%
G04 Gerber Fmt 4.6, Leading zero omitted, Abs format (unit mm)*
G04 Created by KiCad (PCBNEW 9.0.7-9.0.7~ubuntu22.04.1) date 2026-01-23 00:01:14*
%MOMM*%
%LPD*%
G01*
G04 APERTURE LIST*
G04 Aperture macros list*
%AMRoundRect*
0 Rectangle with rounded corners*
0 $1 Rounding radius*
0 $2 $3 $4 $5 $6 $7 $8 $9 X,Y pos of 4 corners*
0 Add a 4 corners polygon primitive as box body*
4,1,4,$2,$3,$4,$5,$6,$7,$8,$9,$2,$3,0*
0 Add four circle primitives for the rounded corners*
1,1,$1+$1,$2,$3*
1,1,$1+$1,$4,$5*
1,1,$1+$1,$6,$7*
1,1,$1+$1,$8,$9*
0 Add four rect primitives between the rounded corners*
20,1,$1+$1,$2,$3,$4,$5,0*
20,1,$1+$1,$4,$5,$6,$7,0*
20,1,$1+$1,$6,$7,$8,$9,0*
20,1,$1+$1,$8,$9,$2,$3,0*%
G04 Aperture macros list end*
%TA.AperFunction,SMDPad,CuDef*%
%ADD10R,1.000000X1.250000*%
%TD*%
%TA.AperFunction,ComponentPad*%
%ADD11C,0.800000*%
%TD*%
%TA.AperFunction,ComponentPad*%
%ADD12C,6.400000*%
%TD*%
%TA.AperFunction,SMDPad,CuDef*%
%ADD13RoundRect,0.250000X-0.650000X0.350000X-0.650000X-0.350000X0.650000X-0.350000X0.650000X0.350000X0*%
%TD*%
%TA.AperFunction,SMDPad,CuDef*%
%ADD14RoundRect,0.150000X-0.625000X0.150000X-0.625000X-0.150000X0.625000X-0.150000X0.625000X0.150000X0*%
%TD*%
%TA.AperFunction,SMDPad,CuDef*%
%ADD15RoundRect,0.250000X-0.450000X0.350000X-0.450000X-0.350000X0.450000X-0.350000X0.450000X0.350000X0*%
%TD*%
%TA.AperFunction,SMDPad,CuDef*%
%ADD16R,0.450000X1.380000*%
%TD*%
%TA.AperFunction,SMDPad,CuDef*%
%ADD17R,1.650000X1.300000*%
%TD*%
%TA.AperFunction,SMDPad,CuDef*%
%ADD18R,1.425000X1.550000*%
%TD*%
%TA.AperFunction,SMDPad,CuDef*%
%ADD19R,1.800000X1.900000*%
%TD*%
%TA.AperFunction,SMDPad,CuDef*%
%ADD20R,1.000000X1.900000*%
%TD*%
%TA.AperFunction,SMDPad,CuDef*%
%ADD21RoundRect,0.250000X0.550000X-1.250000X0.550000X1.250000X-0.550000X1.250000X-0.550000X-1.250000X0*%
%TD*%
%TA.AperFunction,SMDPad,CuDef*%
%ADD22RoundRect,0.250000X0.350000X0.450000X-0.350000X0.450000X-0.350000X-0.450000X0.350000X-0.450000X0*%
%TD*%
%TA.AperFunction,SMDPad,CuDef*%
%ADD23RoundRect,0.250000X0.475000X-0.337500X0.475000X0.337500X-0.475000X0.337500X-0.475000X-0.337500X0*%
%TD*%
%TA.AperFunction,SMDPad,CuDef*%
%ADD24RoundRect,0.250000X-0.475000X0.337500X-0.475000X-0.337500X0.475000X-0.337500X0.475000X0.337500X0*%
%TD*%
%TA.AperFunction,SMDPad,CuDef*%
%ADD25RoundRect,0.250000X0.450000X-0.350000X0.450000X0.350000X-0.450000X0.350000X-0.450000X-0.350000X0*%
%TD*%
%TA.AperFunction,ComponentPad*%
%ADD26RoundRect,0.250000X0.550000X0.550000X-0.550000X0.550000X-0.550000X-0.550000X0.550000X-0.550000X0*%
%TD*%
%TA.AperFunction,ComponentPad*%
%ADD27C,1.600000*%
%TD*%
%TA.AperFunction,SMDPad,CuDef*%
%ADD28RoundRect,0.050000X-0.730000X-0.150000X0.730000X-0.150000X0.730000X0.150000X-0.730000X0.150000X0*%
%TD*%
%TA.AperFunction,ComponentPad*%
%ADD29RoundRect,0.250000X0.550000X-0.550000X0.550000X0.550000X-0.550000X0.550000X-0.550000X-0.550000X0*%
%TD*%
%TA.AperFunction,SMDPad,CuDef*%
%ADD30R,0.650000X1.250000*%
%TD*%
%TA.AperFunction,SMDPad,CuDef*%
%ADD31R,2.000000X1.200000*%
%TD*%
%TA.AperFunction,SMDPad,CuDef*%
%ADD32R,1.200000X2.000000*%
%TD*%
%TA.AperFunction,SMDPad,CuDef*%
%ADD33RoundRect,0.150000X-0.587500X-0.150000X0.587500X-0.150000X0.587500X0.150000X-0.587500X0.150000X0*%
%TD*%
%TA.AperFunction,SMDPad,CuDef*%
%ADD34RoundRect,0.150000X0.512500X0.150000X-0.512500X0.150000X-0.512500X-0.150000X0.512500X-0.150000X0*%
%TD*%
%TA.AperFunction,SMDPad,CuDef*%
%ADD35RoundRect,0.250000X-0.350000X-0.450000X0.350000X-0.450000X0.350000X0.450000X-0.350000X0.450000X0*%
%TD*%
%TA.AperFunction,SMDPad,CuDef*%
%ADD36RoundRect,0.150000X0.625000X-0.150000X0.625000X0.150000X-0.625000X0.150000X-0.625000X-0.150000X0*%
%TD*%
%TA.AperFunction,SMDPad,CuDef*%
%ADD37RoundRect,0.250000X0.650000X-0.350000X0.650000X0.350000X-0.650000X0.350000X-0.650000X-0.350000X0*%
%TD*%
%TA.AperFunction,SMDPad,CuDef*%
%ADD38RoundRect,0.150000X-0.825000X-0.150000X0.825000X-0.150000X0.825000X0.150000X-0.825000X0.150000X0*%
%TD*%
%TA.AperFunction,HeatsinkPad*%
%ADD39C,0.800000*%
%TD*%
%TA.AperFunction,HeatsinkPad*%
%ADD40R,2.410000X3.300000*%
%TD*%
%TA.AperFunction,ViaPad*%
%ADD41C,0.800000*%
%TD*%
%TA.AperFunction,Conductor*%
%ADD42C,0.400000*%
%TD*%
%TA.AperFunction,Conductor*%
%ADD43C,0.700000*%
%TD*%
%TA.AperFunction,Conductor*%
%ADD44C,0.500000*%
%TD*%
%TA.AperFunction,Conductor*%
%ADD45C,0.300000*%
%TD*%
G04 APERTURE END LIST*
D10*
%TO.P,SW1,2,2*%
%TO.N,GND*%
X111000000Y-73875000D03*
%TO.P,SW1,1,1*%
%TO.N,Net-(C6-Pad1)*%
X111000000Y-66125000D03*
%TD*%
D11*
%TO.P,H2,1,1*%
%TO.N,GND*%
X148200000Y-93500000D03*
X148902944Y-91802944D03*
X148902944Y-95197056D03*
X150600000Y-91100000D03*
D12*
X150600000Y-93500000D03*
D11*
X150600000Y-95900000D03*
X152297056Y-91802944D03*
X152297056Y-95197056D03*
X153000000Y-93500000D03*
%TD*%
D13*
%TO.P,J3,MP*%
%TO.N,N/C*%
X109825000Y-89250000D03*
X109825000Y-85650000D03*
D14*
%TO.P,J3,2,Pin_2*%
%TO.N,GND*%
X113700000Y-87950000D03*
%TO.P,J3,1,Pin_1*%
%TO.N,/BAT*%
X113700000Y-86950000D03*
%TD*%
D10*
%TO.P,SW2,1,1*%
%TO.N,Net-(C7-Pad1)*%
X151000000Y-80125000D03*
%TO.P,SW2,2,2*%
%TO.N,GND*%
X151000000Y-87875000D03*
%TD*%
D15*
%TO.P,R6,1*%
%TO.N,/RST*%
X114200000Y-63500000D03*
%TO.P,R6,2*%
%TO.N,Net-(C6-Pad1)*%
X114200000Y-65500000D03*
%TD*%
D16*
%TO.P,J2,1,VBUS*%
%TO.N,/USB*%
X139925000Y-93340000D03*
%TO.P,J2,2,D-*%
%TO.N,unconnected-(J2-D--Pad2)*%
X140575000Y-93340000D03*
%TO.P,J2,3,D+*%
%TO.N,unconnected-(J2-D+-Pad3)*%
X141225000Y-93340000D03*
%TO.P,J2,4,ID*%
%TO.N,unconnected-(J2-ID-Pad4)*%
X141875000Y-93340000D03*
%TO.P,J2,5,GND*%
%TO.N,GND*%
X142525000Y-93340000D03*
D17*
%TO.P,J2,6,Shield*%
X137850000Y-96000000D03*
D18*
X138737500Y-93425000D03*
D19*
X140075000Y-96000000D03*
D20*
X142775000Y-96000000D03*
D18*
X143712500Y-93425000D03*
D17*
X144600000Y-96000000D03*
%TD*%
D21*
%TO.P,C4,1*%
%TO.N,/3V3*%
X116000000Y-76700000D03*
%TO.P,C4,2*%
%TO.N,GND*%
X116000000Y-72300000D03*
%TD*%
D22*
%TO.P,R15,1*%
%TO.N,Net-(D5-A)*%
X139500000Y-88500000D03*
%TO.P,R15,2*%
%TO.N,/LED4*%
X137500000Y-88500000D03*
%TD*%
D23*
%TO.P,C7,1*%
%TO.N,Net-(C7-Pad1)*%
X142530000Y-66205000D03*
%TO.P,C7,2*%
%TO.N,GND*%
X142530000Y-64130000D03*
%TD*%
D15*
%TO.P,R4,1*%
%TO.N,/GPIO15*%
X142500000Y-75630000D03*
%TO.P,R4,2*%
%TO.N,GND*%
X142500000Y-77630000D03*
%TD*%
D24*
%TO.P,C3,1*%
%TO.N,Net-(U3-VCC)*%
X128500000Y-86492500D03*
%TO.P,C3,2*%
%TO.N,GND*%
X128500000Y-88567500D03*
%TD*%
%TO.P,C8,2*%
%TO.N,GND*%
X116500000Y-83575000D03*
%TO.P,C8,1*%
%TO.N,/3V3*%
X116500000Y-81500000D03*
%TD*%
D25*
%TO.P,R3,1*%
%TO.N,/BAT*%
X130900000Y-95000000D03*
%TO.P,R3,2*%
%TO.N,Net-(U3-VCC)*%
X130900000Y-93000000D03*
%TD*%
%TO.P,R1,1*%
%TO.N,/USB*%
X114900000Y-95470000D03*
%TO.P,R1,2*%
%TO.N,Net-(D1-K)*%
X114900000Y-93470000D03*
%TD*%
D26*
%TO.P,J1,1,Pin_1*%
%TO.N,/3V3*%
X134500000Y-82500000D03*
D27*
%TO.P,J1,2,Pin_2*%
%TO.N,/NEG_BUZZ*%
X130900000Y-82500000D03*
%TD*%
D23*
%TO.P,C9,2*%
%TO.N,GND*%
X122500000Y-81542500D03*
%TO.P,C9,1*%
%TO.N,/BAT*%
X122500000Y-83617500D03*
%TD*%
%TO.P,C2,1*%
%TO.N,/BAT*%
X128400000Y-95000000D03*
%TO.P,C2,2*%
%TO.N,GND*%
X128400000Y-92925000D03*
%TD*%
D28*
%TO.P,Q1,1*%
%TO.N,unconnected-(Q1-Pad1)*%
X116620000Y-86525000D03*
%TO.P,Q1,2*%
%TO.N,Net-(U3-OD)*%
X116620000Y-87175000D03*
%TO.P,Q1,3*%
X116620000Y-87825000D03*
%TO.P,Q1,4*%
%TO.N,GND*%
X116620000Y-88475000D03*
%TO.P,Q1,5*%
%TO.N,Net-(Q1-Pad5)*%
X122380000Y-88475000D03*
%TO.P,Q1,6*%
%TO.N,Net-(U3-OC)*%
X122380000Y-87825000D03*
%TO.P,Q1,7*%
X122380000Y-87175000D03*
%TO.P,Q1,8*%
%TO.N,unconnected-(Q1-Pad1)_1*%
X122380000Y-86525000D03*
%TD*%
D22*
%TO.P,R13,1*%
%TO.N,Net-(D3-A)*%
X139500000Y-83500000D03*
%TO.P,R13,2*%
%TO.N,/LED2*%
X137500000Y-83500000D03*
%TD*%
D23*
%TO.P,C5,2*%
%TO.N,GND*%
X120000000Y-75055000D03*
%TO.P,C5,1*%
%TO.N,/3V3*%
X120000000Y-77130000D03*
%TD*%
D26*
%TO.P,D4,1,K*%
%TO.N,GND*%
X146100000Y-86500000D03*
D27*
%TO.P,D4,2,A*%
%TO.N,Net-(D4-A)*%
X142500000Y-86500000D03*
%TD*%
D24*
%TO.P,C6,1*%
%TO.N,Net-(C6-Pad1)*%
X119970000Y-63432500D03*
%TO.P,C6,2*%
%TO.N,GND*%
X119970000Y-65507500D03*
%TD*%
D25*
%TO.P,R10,2*%
%TO.N,/3V3*%
X145200000Y-68630000D03*
%TO.P,R10,1*%
%TO.N,/GPIO0*%
X145200000Y-70630000D03*
%TD*%
D15*
%TO.P,R8,1*%
%TO.N,/RST*%
X116970000Y-63500000D03*
%TO.P,R8,2*%
%TO.N,/3V3*%
X116970000Y-65500000D03*
%TD*%
D29*
%TO.P,D1,1,K*%
%TO.N,Net-(D1-K)*%
X134400000Y-95500000D03*
D27*
%TO.P,D1,2,A*%
%TO.N,Net-(D1-A)*%
X134400000Y-91900000D03*
%TD*%
D26*
%TO.P,D5,1,K*%
%TO.N,GND*%
X146100000Y-89500000D03*
D27*
%TO.P,D5,2,A*%
%TO.N,Net-(D5-A)*%
X142500000Y-89500000D03*
%TD*%
D26*
%TO.P,D3,1,K*%
%TO.N,GND*%
X146100000Y-83500000D03*
D27*
%TO.P,D3,2,A*%
%TO.N,Net-(D3-A)*%
X142500000Y-83500000D03*
%TD*%
D22*
%TO.P,R14,1*%
%TO.N,Net-(D4-A)*%
X139500000Y-86000000D03*
%TO.P,R14,2*%
%TO.N,/LED3*%
X137500000Y-86000000D03*
%TD*%
D30*
%TO.P,IC1,5,VOUT*%
%TO.N,/3V3*%
X118620000Y-81575000D03*
%TO.P,IC1,4,SNS*%
%TO.N,unconnected-(IC1-SNS-Pad4)*%
X120500000Y-81575000D03*
%TO.P,IC1,3,EN*%
%TO.N,/BAT*%
X120500000Y-84075000D03*
%TO.P,IC1,2,GND*%
%TO.N,GND*%
X119560000Y-84075000D03*
%TO.P,IC1,1,VIN*%
%TO.N,/BAT*%
X118620000Y-84075000D03*
%TD*%
D31*
%TO.P,U1,1,RST*%
%TO.N,/RST*%
X123190000Y-63200000D03*
%TO.P,U1,2,ADC*%
%TO.N,unconnected-(U1-ADC-Pad2)*%
X123190000Y-65200000D03*
%TO.P,U1,3,EN*%
%TO.N,/EN*%
X123190000Y-67200000D03*
%TO.P,U1,4,GPIO16*%
%TO.N,/LED3*%
X123190000Y-69200000D03*
%TO.P,U1,5,GPIO14*%
%TO.N,/BUZZ*%
X123190000Y-71200000D03*
%TO.P,U1,6,GPIO12*%
%TO.N,/LED4*%
X123190000Y-73200000D03*
%TO.P,U1,7,GPIO13*%
%TO.N,unconnected-(U1-GPIO13-Pad7)*%
X123190000Y-75200000D03*
%TO.P,U1,8,VCC*%
%TO.N,/3V3*%
X123190000Y-77200000D03*
D32*
%TO.P,U1,9,CS0*%
%TO.N,unconnected-(U1-CS0-Pad9)*%
X126190000Y-78680000D03*
%TO.P,U1,10,MISO*%
%TO.N,unconnected-(U1-MISO-Pad10)*%
X128190000Y-78680000D03*
%TO.P,U1,11,IO9*%
%TO.N,unconnected-(U1-IO9-Pad11)*%
X130190000Y-78680000D03*
%TO.P,U1,12,IO10*%
%TO.N,unconnected-(U1-IO10-Pad12)*%
X132190000Y-78680000D03*
%TO.P,U1,13,MOSI*%
%TO.N,unconnected-(U1-MOSI-Pad13)*%
X134190000Y-78680000D03*
%TO.P,U1,14,SCLK*%
%TO.N,unconnected-(U1-SCLK-Pad14)*%
X136190000Y-78680000D03*
D31*
%TO.P,U1,15,GND*%
%TO.N,GND*%
X139190000Y-77200000D03*
%TO.P,U1,16,GPIO15*%
%TO.N,/GPIO15*%
X139190000Y-75200000D03*
%TO.P,U1,17,GPIO2*%
%TO.N,/GPIO2*%
X139190000Y-73200000D03*
%TO.P,U1,18,GPIO0*%
%TO.N,/GPIO0*%
X139190000Y-71200000D03*
%TO.P,U1,19,GPIO4*%
%TO.N,/LED1*%
X139190000Y-69200000D03*
%TO.P,U1,20,GPIO5*%
%TO.N,/LED2*%
X139190000Y-67200000D03*
%TO.P,U1,21,RXD*%
%TO.N,/RX*%
X139190000Y-65200000D03*
%TO.P,U1,22,TXD*%
%TO.N,/TX*%
X139190000Y-63200000D03*
%TD*%
D33*
%TO.P,Q2,1,G*%
%TO.N,/BUZZ*%
X125625000Y-81550000D03*
%TO.P,Q2,2,S*%
%TO.N,GND*%
X125625000Y-83450000D03*
%TO.P,Q2,3,D*%
%TO.N,/NEG_BUZZ*%
X127500000Y-82500000D03*
%TD*%
D34*
%TO.P,U3,1,OD*%
%TO.N,Net-(U3-OD)*%
X133895000Y-88300000D03*
%TO.P,U3,2,CS*%
%TO.N,Net-(U3-CS)*%
X133895000Y-87350000D03*
%TO.P,U3,3,OC*%
%TO.N,Net-(U3-OC)*%
X133895000Y-86400000D03*
%TO.P,U3,4,TD*%
%TO.N,unconnected-(U3-TD-Pad4)*%
X131620000Y-86400000D03*
%TO.P,U3,5,VCC*%
%TO.N,Net-(U3-VCC)*%
X131620000Y-87350000D03*
%TO.P,U3,6,GND*%
%TO.N,GND*%
X131620000Y-88300000D03*
%TD*%
D25*
%TO.P,R11,1*%
%TO.N,/GPIO0*%
X142500000Y-70630000D03*
%TO.P,R11,2*%
%TO.N,Net-(C7-Pad1)*%
X142500000Y-68630000D03*
%TD*%
D26*
%TO.P,D2,1,K*%
%TO.N,GND*%
X146100000Y-80500000D03*
D27*
%TO.P,D2,2,A*%
%TO.N,Net-(D2-A)*%
X142500000Y-80500000D03*
%TD*%
D35*
%TO.P,R5,1*%
%TO.N,/GPIO2*%
X142400000Y-73130000D03*
%TO.P,R5,2*%
%TO.N,/3V3*%
X144400000Y-73130000D03*
%TD*%
D22*
%TO.P,R12,1*%
%TO.N,Net-(D2-A)*%
X139500000Y-81000000D03*
%TO.P,R12,2*%
%TO.N,/LED1*%
X137500000Y-81000000D03*
%TD*%
D11*
%TO.P,H3,1,1*%
%TO.N,GND*%
X109427944Y-80997056D03*
X110130888Y-79300000D03*
X110130888Y-82694112D03*
X111827944Y-78597056D03*
D12*
X111827944Y-80997056D03*
D11*
X111827944Y-83397056D03*
X113525000Y-79300000D03*
X113525000Y-82694112D03*
X114227944Y-80997056D03*
%TD*%
D22*
%TO.P,R2,1*%
%TO.N,Net-(U2-PROG)*%
X116500000Y-91000000D03*
%TO.P,R2,2*%
%TO.N,GND*%
X114500000Y-91000000D03*
%TD*%
D15*
%TO.P,R9,1*%
%TO.N,Net-(U3-CS)*%
X125500000Y-86500000D03*
%TO.P,R9,2*%
%TO.N,Net-(Q1-Pad5)*%
X125500000Y-88500000D03*
%TD*%
D23*
%TO.P,C1,1*%
%TO.N,/USB*%
X117400000Y-95537500D03*
%TO.P,C1,2*%
%TO.N,GND*%
X117400000Y-93462500D03*
%TD*%
D15*
%TO.P,R7,1*%
%TO.N,/EN*%
X120000000Y-67500000D03*
%TO.P,R7,2*%
%TO.N,/3V3*%
X120000000Y-69500000D03*
%TD*%
D36*
%TO.P,J4,1,Pin_1*%
%TO.N,/3V3*%
X148625000Y-75800000D03*
%TO.P,J4,2,Pin_2*%
%TO.N,/TX*%
X148625000Y-74800000D03*
%TO.P,J4,3,Pin_3*%
%TO.N,/RX*%
X148625000Y-73800000D03*
%TO.P,J4,4,Pin_4*%
%TO.N,GND*%
X148625000Y-72800000D03*
D37*
%TO.P,J4,MP*%
%TO.N,N/C*%
X152500000Y-77100000D03*
X152500000Y-71500000D03*
%TD*%
D11*
%TO.P,H1,1,1*%
%TO.N,GND*%
X148000000Y-66000000D03*
X148702944Y-64302944D03*
X148702944Y-67697056D03*
X150400000Y-63600000D03*
D12*
X150400000Y-66000000D03*
D11*
X150400000Y-68400000D03*
X152097056Y-64302944D03*
X152097056Y-67697056D03*
X152800000Y-66000000D03*
%TD*%
D38*
%TO.P,U2,1,TEMP*%
%TO.N,GND*%
X120450000Y-91690000D03*
%TO.P,U2,2,PROG*%
%TO.N,Net-(U2-PROG)*%
X120450000Y-92960000D03*
%TO.P,U2,3,GND*%
%TO.N,GND*%
X120450000Y-94230000D03*
%TO.P,U2,4,V_{CC}*%
%TO.N,/USB*%
X120450000Y-95500000D03*
%TO.P,U2,5,BAT*%
%TO.N,/BAT*%
X125400000Y-95500000D03*
%TO.P,U2,6,~{STDBY}*%
%TO.N,unconnected-(U2-~{STDBY}-Pad6)*%
X125400000Y-94230000D03*
%TO.P,U2,7,~{CHRG}*%
%TO.N,Net-(D1-A)*%
X125400000Y-92960000D03*
%TO.P,U2,8,CE*%
%TO.N,/USB*%
X125400000Y-91690000D03*
D39*
%TO.P,U2,9,EPAD*%
%TO.N,GND*%
X122225000Y-92395000D03*
X122225000Y-93595000D03*
X122225000Y-94795000D03*
D40*
X122925000Y-93595000D03*
D39*
X123625000Y-92395000D03*
X123625000Y-93595000D03*
X123625000Y-94795000D03*
%TD*%
D41*
%TO.N,Net-(C6-Pad1)*%
X118600000Y-63400000D03*
%TO.N,/USB*%
X119500000Y-90500000D03*
X119000000Y-95500000D03*
%TO.N,GND*%
X147500000Y-70500000D03*
X127000000Y-87500000D03*
X129500000Y-94000000D03*
X118000000Y-90500000D03*
%TO.N,/BAT*%
X123000000Y-85000000D03*
X132500000Y-94500000D03*
%TO.N,Net-(U3-VCC)*%
X130419616Y-88756001D03*
X134000000Y-93500000D03*
%TO.N,/3V3*%
X128500000Y-76000000D03*
X146500000Y-75800000D03*
X135500000Y-84500000D03*
%TO.N,/RX*%
X141000000Y-66500000D03*
X147000000Y-73671752D03*
%TO.N,/TX*%
X141000000Y-65000000D03*
X150000000Y-74000000D03*
%TO.N,/BUZZ*%
X126000000Y-80500000D03*
X126000000Y-72500000D03*
%TO.N,/LED2*%
X136500000Y-82500000D03*
X136500000Y-76500000D03*
%TO.N,/LED3*%
X127500000Y-72500000D03*
X135500000Y-86000000D03*
%TO.N,/LED4*%
X126800000Y-75000000D03*
X135500000Y-88500000D03*
%TO.N,Net-(C6-Pad1)*%
X115225000Y-67000000D03*
%TD*%
D42*
%TO.N,Net-(D1-K)*%
X134400000Y-95500000D02*
X133374000Y-96526000D01*
X133374000Y-96526000D02*
X114228420Y-96526000D01*
X114228420Y-96526000D02*
X113799000Y-96096580D01*
X113799000Y-96096580D02*
X113799000Y-94571000D01*
X113799000Y-94571000D02*
X114900000Y-93470000D01*
D43*
%TO.N,/3V3*%
X116000000Y-76700000D02*
X118000000Y-74700000D01*
X118000000Y-74700000D02*
X118000000Y-69500000D01*
X116000000Y-76700000D02*
X116000000Y-81000000D01*
X116000000Y-81000000D02*
X116500000Y-81500000D01*
X120000000Y-77130000D02*
X116430000Y-77130000D01*
X116430000Y-77130000D02*
X116000000Y-76700000D01*
D42*
%TO.N,Net-(C6-Pad1)*%
X114200000Y-65500000D02*
X111625000Y-65500000D01*
X111625000Y-65500000D02*
X111000000Y-66125000D01*
D44*
%TO.N,/BAT*%
X118620000Y-84075000D02*
X116821000Y-85874000D01*
X116821000Y-85874000D02*
X114776000Y-85874000D01*
X114776000Y-85874000D02*
X113700000Y-86950000D01*
D45*
%TO.N,Net-(U3-OD)*%
X125000000Y-89500000D02*
X116196514Y-89500000D01*
X116196514Y-89500000D02*
X115325000Y-88628486D01*
X115325000Y-88628486D02*
X115325000Y-87825000D01*
D43*
%TO.N,/3V3*%
X144400000Y-73130000D02*
X144639712Y-73130000D01*
X144639712Y-73130000D02*
X146451000Y-71318712D01*
X146451000Y-71318712D02*
X146451000Y-69881000D01*
X146451000Y-69881000D02*
X145200000Y-68630000D01*
D45*
%TO.N,GND*%
X142525000Y-93340000D02*
X143627500Y-93340000D01*
X143627500Y-93340000D02*
X143712500Y-93425000D01*
D43*
X138737500Y-93425000D02*
X138737500Y-95112500D01*
X138737500Y-95112500D02*
X137850000Y-96000000D01*
X143712500Y-93425000D02*
X143712500Y-95112500D01*
X143712500Y-95112500D02*
X144600000Y-96000000D01*
X142775000Y-96000000D02*
X144600000Y-96000000D01*
X140075000Y-96000000D02*
X142775000Y-96000000D01*
X137850000Y-96000000D02*
X140075000Y-96000000D01*
D42*
%TO.N,/USB*%
X139925000Y-93340000D02*
X139925000Y-92250000D01*
X139925000Y-92250000D02*
X138374000Y-90699000D01*
X138374000Y-90699000D02*
X126391000Y-90699000D01*
X126391000Y-90699000D02*
X125400000Y-91690000D01*
%TO.N,Net-(C6-Pad1)*%
X118632500Y-63432500D02*
X118600000Y-63400000D01*
X119970000Y-63432500D02*
X118632500Y-63432500D01*
%TO.N,/RST*%
X116970000Y-63500000D02*
X117891000Y-64421000D01*
X117891000Y-64421000D02*
X121569000Y-64421000D01*
X121569000Y-64421000D02*
X122790000Y-63200000D01*
X122790000Y-63200000D02*
X123190000Y-63200000D01*
%TO.N,Net-(C6-Pad1)*%
X115225000Y-67000000D02*
X115225000Y-66525000D01*
%TO.N,Net-(C7-Pad1)*%
X142530000Y-66205000D02*
X145512416Y-66205000D01*
X145512416Y-66205000D02*
X151000000Y-71692584D01*
X151000000Y-71692584D02*
X151000000Y-80125000D01*
%TO.N,Net-(C6-Pad1)*%
X115225000Y-66525000D02*
X114200000Y-65500000D01*
%TO.N,/RST*%
X116970000Y-63500000D02*
X114200000Y-63500000D01*
D44*
%TO.N,/USB*%
X124210000Y-90500000D02*
X119500000Y-90500000D01*
D43*
X120450000Y-95500000D02*
X119000000Y-95500000D01*
X114900000Y-95470000D02*
X117332500Y-95470000D01*
X117332500Y-95470000D02*
X117400000Y-95537500D01*
D44*
X125400000Y-91690000D02*
X124210000Y-90500000D01*
D43*
X119000000Y-95500000D02*
X117437500Y-95500000D01*
X117437500Y-95500000D02*
X117400000Y-95537500D01*
D45*
%TO.N,GND*%
X130730691Y-89507001D02*
X131620000Y-88617692D01*
X116620000Y-88475000D02*
X118981514Y-88475000D01*
X128500000Y-88567500D02*
X129439501Y-89507001D01*
X120372000Y-82551000D02*
X121491500Y-82551000D01*
X129439501Y-89507001D02*
X130730691Y-89507001D01*
X121491500Y-82551000D02*
X122500000Y-81542500D01*
X120450000Y-91690000D02*
X119190000Y-91690000D01*
X118981514Y-88475000D02*
X121705514Y-85751000D01*
X147500000Y-70500000D02*
X147500000Y-71675000D01*
X119560000Y-84075000D02*
X119560000Y-83363000D01*
X129475000Y-94000000D02*
X128400000Y-92925000D01*
X129500000Y-94000000D02*
X129475000Y-94000000D01*
X147500000Y-71675000D02*
X148625000Y-72800000D01*
X128067500Y-88567500D02*
X127000000Y-87500000D01*
X119190000Y-91690000D02*
X118000000Y-90500000D01*
X123324000Y-85751000D02*
X125625000Y-83450000D01*
X131620000Y-88617692D02*
X131620000Y-88300000D01*
X120450000Y-91690000D02*
X121520000Y-91690000D01*
X121705514Y-85751000D02*
X123324000Y-85751000D01*
X121520000Y-91690000D02*
X122225000Y-92395000D01*
X128500000Y-88567500D02*
X128067500Y-88567500D01*
X119560000Y-83363000D02*
X120372000Y-82551000D01*
D43*
%TO.N,/BAT*%
X120957500Y-83617500D02*
X120500000Y-84075000D01*
X122500000Y-84500000D02*
X123000000Y-85000000D01*
D44*
X119000000Y-85500000D02*
X118620000Y-85120000D01*
D43*
X132000000Y-95000000D02*
X132500000Y-94500000D01*
X130900000Y-95000000D02*
X128400000Y-95000000D01*
X130900000Y-95000000D02*
X132000000Y-95000000D01*
X122500000Y-83617500D02*
X120957500Y-83617500D01*
D44*
X120500000Y-85000000D02*
X120000000Y-85500000D01*
D43*
X127900000Y-95500000D02*
X125400000Y-95500000D01*
X122500000Y-83617500D02*
X122500000Y-84500000D01*
D44*
X118620000Y-85120000D02*
X118620000Y-84075000D01*
X120500000Y-84075000D02*
X120500000Y-85000000D01*
X120000000Y-85500000D02*
X119000000Y-85500000D01*
D43*
X128400000Y-95000000D02*
X127900000Y-95500000D01*
D42*
%TO.N,Net-(U3-VCC)*%
X131400000Y-93500000D02*
X130900000Y-93000000D01*
X129357500Y-87350000D02*
X128500000Y-86492500D01*
X131620000Y-87350000D02*
X130000000Y-87350000D01*
X130000000Y-87350000D02*
X129357500Y-87350000D01*
X130000000Y-88336385D02*
X130419616Y-88756001D01*
X130000000Y-87350000D02*
X130000000Y-88336385D01*
X134000000Y-93500000D02*
X131400000Y-93500000D01*
D43*
%TO.N,/3V3*%
X134500000Y-82500000D02*
X134500000Y-83500000D01*
X118500000Y-69500000D02*
X118000000Y-69500000D01*
X146500000Y-75800000D02*
X148625000Y-75800000D01*
X123120000Y-77130000D02*
X123190000Y-77200000D01*
X124890000Y-77200000D02*
X126090000Y-76000000D01*
X144400000Y-73130000D02*
X144400000Y-74400000D01*
X134500000Y-83500000D02*
X135500000Y-84500000D01*
X116970000Y-68470000D02*
X116970000Y-65500000D01*
X118620000Y-81575000D02*
X116575000Y-81575000D01*
X120000000Y-69500000D02*
X118500000Y-69500000D01*
X120000000Y-77130000D02*
X123120000Y-77130000D01*
X118000000Y-69500000D02*
X116970000Y-68470000D01*
X144400000Y-74400000D02*
X145800000Y-75800000D01*
X123190000Y-77200000D02*
X124890000Y-77200000D01*
X145800000Y-75800000D02*
X146500000Y-75800000D01*
X126090000Y-76000000D02*
X128500000Y-76000000D01*
X116575000Y-81575000D02*
X116500000Y-81500000D01*
D42*
%TO.N,Net-(C6-Pad1)*%
X119902500Y-63500000D02*
X119970000Y-63432500D01*
X120202500Y-63200000D02*
X119970000Y-63432500D01*
%TO.N,Net-(C7-Pad1)*%
X142530000Y-68600000D02*
X142500000Y-68630000D01*
X142530000Y-66205000D02*
X142530000Y-68600000D01*
%TO.N,Net-(D1-A)*%
X125400000Y-92960000D02*
X126624920Y-92960000D01*
X126624920Y-92960000D02*
X127684920Y-91900000D01*
X127684920Y-91900000D02*
X134400000Y-91900000D01*
%TO.N,Net-(D2-A)*%
X140000000Y-80500000D02*
X139500000Y-81000000D01*
X142500000Y-80500000D02*
X140000000Y-80500000D01*
%TO.N,Net-(D3-A)*%
X142500000Y-83500000D02*
X139500000Y-83500000D01*
%TO.N,Net-(D4-A)*%
X142500000Y-86500000D02*
X140000000Y-86500000D01*
X140000000Y-86500000D02*
X139500000Y-86000000D01*
%TO.N,Net-(D5-A)*%
X140500000Y-89500000D02*
X139500000Y-88500000D01*
X142500000Y-89500000D02*
X140500000Y-89500000D01*
%TO.N,/NEG_BUZZ*%
X130900000Y-82500000D02*
X127500000Y-82500000D01*
%TO.N,/RX*%
X141000000Y-66500000D02*
X139700000Y-65200000D01*
X147128248Y-73800000D02*
X147000000Y-73671752D01*
X139700000Y-65200000D02*
X139190000Y-65200000D01*
X148625000Y-73800000D02*
X147128248Y-73800000D01*
%TO.N,/TX*%
X149200000Y-74800000D02*
X148625000Y-74800000D01*
X150000000Y-74000000D02*
X149200000Y-74800000D01*
X141000000Y-64610000D02*
X141000000Y-65000000D01*
X139590000Y-63200000D02*
X141000000Y-64610000D01*
X139190000Y-63200000D02*
X139590000Y-63200000D01*
%TO.N,Net-(Q1-Pad5)*%
X122405000Y-88500000D02*
X122380000Y-88475000D01*
X125500000Y-88500000D02*
X122405000Y-88500000D01*
D45*
%TO.N,Net-(U3-OC)*%
X124000000Y-87500000D02*
X123675000Y-87825000D01*
X125000000Y-85000000D02*
X132495000Y-85000000D01*
X123675000Y-87825000D02*
X122380000Y-87825000D01*
X132495000Y-85000000D02*
X133895000Y-86400000D01*
X123675000Y-87175000D02*
X124000000Y-87500000D01*
X123675000Y-86325000D02*
X125000000Y-85000000D01*
X123675000Y-87175000D02*
X123675000Y-86325000D01*
X122380000Y-87175000D02*
X123675000Y-87175000D01*
%TO.N,Net-(U3-OD)*%
X125548000Y-90048000D02*
X125000000Y-89500000D01*
X133895000Y-88300000D02*
X132147000Y-90048000D01*
X132147000Y-90048000D02*
X125548000Y-90048000D01*
X116620000Y-87175000D02*
X115325000Y-87175000D01*
X115325000Y-87825000D02*
X116620000Y-87825000D01*
X115000000Y-87500000D02*
X115325000Y-87825000D01*
X115325000Y-87175000D02*
X115000000Y-87500000D01*
D42*
%TO.N,/BUZZ*%
X124700000Y-71200000D02*
X126000000Y-72500000D01*
X126000000Y-80500000D02*
X126000000Y-81175000D01*
X126000000Y-81175000D02*
X125625000Y-81550000D01*
X123190000Y-71200000D02*
X124700000Y-71200000D01*
D45*
%TO.N,Net-(U2-PROG)*%
X117100000Y-91000000D02*
X119060000Y-92960000D01*
X116500000Y-91000000D02*
X117100000Y-91000000D01*
X119060000Y-92960000D02*
X120450000Y-92960000D01*
D42*
%TO.N,/GPIO15*%
X142500000Y-75630000D02*
X139620000Y-75630000D01*
X139620000Y-75630000D02*
X139190000Y-75200000D01*
%TO.N,/GPIO2*%
X139260000Y-73130000D02*
X139190000Y-73200000D01*
X142400000Y-73130000D02*
X139260000Y-73130000D01*
%TO.N,/EN*%
X122890000Y-67500000D02*
X123190000Y-67200000D01*
X120000000Y-67500000D02*
X122890000Y-67500000D01*
D45*
%TO.N,Net-(U3-CS)*%
X132633500Y-86038322D02*
X132149178Y-85554000D01*
X132149178Y-85554000D02*
X126446000Y-85554000D01*
X132633500Y-86750999D02*
X132633500Y-86038322D01*
X133232501Y-87350000D02*
X132633500Y-86750999D01*
X133895000Y-87350000D02*
X133232501Y-87350000D01*
X126446000Y-85554000D02*
X125500000Y-86500000D01*
D42*
%TO.N,/GPIO0*%
X139760000Y-70630000D02*
X139190000Y-71200000D01*
X142500000Y-70630000D02*
X139760000Y-70630000D01*
X142500000Y-70630000D02*
X145000000Y-70630000D01*
%TO.N,/LED1*%
X137500000Y-81000000D02*
X137500000Y-69490000D01*
X137500000Y-69490000D02*
X137790000Y-69200000D01*
X137790000Y-69200000D02*
X139190000Y-69200000D01*
%TO.N,/LED2*%
X138790000Y-67200000D02*
X136500000Y-69490000D01*
X136500000Y-69490000D02*
X136500000Y-76500000D01*
X139190000Y-67200000D02*
X138790000Y-67200000D01*
X137500000Y-83500000D02*
X136500000Y-82500000D01*
%TO.N,/LED3*%
X123190000Y-69200000D02*
X124200000Y-69200000D01*
X124200000Y-69200000D02*
X127500000Y-72500000D01*
X135500000Y-86000000D02*
X137500000Y-86000000D01*
%TO.N,/LED4*%
X135500000Y-88500000D02*
X137500000Y-88500000D01*
X125500000Y-73500000D02*
X126800000Y-74800000D01*
X123190000Y-73200000D02*
X125200000Y-73200000D01*
X125200000Y-73200000D02*
X125500000Y-73500000D01*
X126800000Y-74800000D02*
X126800000Y-75000000D01*
%TD*%
%TA.AperFunction,Conductor*%
%TO.N,GND*%
G36*
X113476936Y-62520185D02*
G01*
X113522691Y-62572989D01*
X113532635Y-62642147D01*
X113503610Y-62705703D01*
X113484208Y-62723766D01*
X113392455Y-62792452D01*
X113392452Y-62792455D01*
X113306206Y-62907664D01*
X113306202Y-62907671D01*
X113255908Y-63042517D01*
X113249501Y-63102116D01*
X113249500Y-63102135D01*
X113249500Y-63897870D01*
X113249501Y-63897876D01*
X113255908Y-63957483D01*
X113306202Y-64092328D01*
X113306206Y-64092335D01*
X113392452Y-64207544D01*
X113392455Y-64207547D01*
X113507664Y-64293793D01*
X113507671Y-64293797D01*
X113642517Y-64344091D01*
X113642516Y-64344091D01*
X113649444Y-64344835D01*
X113702127Y-64350500D01*
X114697872Y-64350499D01*
X114757483Y-64344091D01*
X114892331Y-64293796D01*
X115007546Y-64207546D01*
X115093796Y-64092331D01*
X115102056Y-64070185D01*
X115116609Y-64031167D01*
X115158480Y-63975233D01*
X115223944Y-63950816D01*
X115232791Y-63950500D01*
X115937209Y-63950500D01*
X116004248Y-63970185D01*
X116050003Y-64022989D01*
X116053391Y-64031167D01*
X116076202Y-64092328D01*
X116076206Y-64092335D01*
X116162452Y-64207544D01*
X116162455Y-64207547D01*
X116277664Y-64293793D01*
X116277671Y-64293797D01*
X116293793Y-64299810D01*
X116412517Y-64344091D01*
X116472127Y-64350500D01*
X117132033Y-64350499D01*
X117161479Y-64359145D01*
X117191460Y-64365667D01*
X117196473Y-64369419D01*
X117199072Y-64370183D01*
X117219714Y-64386818D01*
X117270715Y-64437819D01*
X117304200Y-64499142D01*
X117299216Y-64568834D01*
X117257344Y-64624767D01*
X117191880Y-64649184D01*
X117183034Y-64649500D01*
X116472129Y-64649500D01*
X116472123Y-64649501D01*
X116412516Y-64655908D01*
X116277671Y-64706202D01*
X116277664Y-64706206D01*
X116162455Y-64792452D01*
X116162452Y-64792455D01*
X116076206Y-64907664D01*
X116076202Y-64907671D01*
X116025908Y-65042517D01*
X116019501Y-65102116D01*
X116019500Y-65102127D01*
X116019500Y-65897870D01*
X116019501Y-65897876D01*
X116025908Y-65957483D01*
X116076202Y-66092328D01*
X116076206Y-66092335D01*
X116162452Y-66207544D01*
X116162455Y-66207547D01*
X116277665Y-66293794D01*
X116277667Y-66293794D01*
X116277669Y-66293796D01*
X116288830Y-66297958D01*
X116344764Y-66339826D01*
X116369184Y-66405289D01*
X116369500Y-66414141D01*
X116369500Y-68383330D01*
X116369499Y-68383348D01*
X116369499Y-68549054D01*
X116369498Y-68549054D01*
X116410423Y-68701785D01*
X116410424Y-68701788D01*
X116414622Y-68709058D01*
X116414625Y-68709063D01*
X116489477Y-68838712D01*
X116489481Y-68838717D01*
X116608349Y-68957585D01*
X116608355Y-68957590D01*
X117363181Y-69712416D01*
X117396666Y-69773739D01*
X117399500Y-69800097D01*
X117399500Y-70561377D01*
X117379815Y-70628416D01*
X117327011Y-70674171D01*
X117257853Y-70684115D01*
X117194297Y-70655090D01*
X117169962Y-70626475D01*
X117142317Y-70581656D01*
X117018345Y-70457684D01*
X116869124Y-70365643D01*
X116869119Y-70365641D01*
X116702697Y-70310494D01*
X116702690Y-70310493D01*
X116599986Y-70300000D01*
X116250000Y-70300000D01*
X116250000Y-74299999D01*
X116599972Y-74299999D01*
X116599986Y-74299998D01*
X116702697Y-74289505D01*
X116869119Y-74234358D01*
X116869124Y-74234356D01*
X117018345Y-74142315D01*
X117142315Y-74018345D01*
X117169961Y-73973525D01*
X117221909Y-73926801D01*
X117290872Y-73915578D01*
X117354954Y-73943422D01*
X117393810Y-74001490D01*
X117399500Y-74038622D01*
X117399500Y-74399902D01*
X117379815Y-74466941D01*
X117363181Y-74487583D01*
X116886721Y-74964042D01*
X116825398Y-74997527D01*
X116755708Y-74992543D01*
X116657485Y-74955909D01*
X116657483Y-74955908D01*
X116597883Y-74949501D01*
X116597881Y-74949500D01*
X116597873Y-74949500D01*
X116597864Y-74949500D01*
X115402129Y-74949500D01*
X115402123Y-74949501D01*
X115342516Y-74955908D01*
X115207671Y-75006202D01*
X115207664Y-75006206D01*
X115092455Y-75092452D01*
X115092452Y-75092455D01*
X115006206Y-75207664D01*
X115006202Y-75207671D01*
X114955908Y-75342517D01*
X114949501Y-75402116D01*
X114949500Y-75402135D01*
X114949500Y-77997870D01*
X114949501Y-77997876D01*
X114955908Y-78057483D01*
X115006202Y-78192328D01*
X115006206Y-78192335D01*
X115092452Y-78307544D01*
X115092455Y-78307547D01*
X115207664Y-78393793D01*
X115207673Y-78393798D01*
X115318832Y-78435257D01*
X115374766Y-78477127D01*
X115399184Y-78542592D01*
X115399500Y-78551439D01*
X115399500Y-80913330D01*
X115399499Y-80913348D01*
X115399499Y-81079054D01*
X115399498Y-81079054D01*
X115440424Y-81231789D01*
X115440425Y-81231790D01*
X115461454Y-81268212D01*
X115461456Y-81268215D01*
X115507887Y-81348636D01*
X115524500Y-81410636D01*
X115524500Y-81885370D01*
X115524501Y-81885376D01*
X115530908Y-81944983D01*
X115581202Y-82079828D01*
X115581206Y-82079835D01*
X115667452Y-82195044D01*
X115667455Y-82195047D01*
X115782664Y-82281293D01*
X115782673Y-82281298D01*
X115802468Y-82288681D01*
X115858402Y-82330551D01*
X115882820Y-82396015D01*
X115867969Y-82464288D01*
X115818565Y-82513694D01*
X115798141Y-82522569D01*
X115705878Y-82553142D01*
X115705875Y-82553143D01*
X115556654Y-82645184D01*
X115432684Y-82769154D01*
X115340643Y-82918375D01*
X115340641Y-82918380D01*
X115285494Y-83084802D01*
X115285493Y-83084809D01*
X115275000Y-83187513D01*
X115275000Y-83325000D01*
X117724999Y-83325000D01*
X117724999Y-83187528D01*
X117724998Y-83187513D01*
X117714505Y-83084802D01*
X117659358Y-82918380D01*
X117659356Y-82918375D01*
X117567315Y-82769154D01*
X117443345Y-82645184D01*
X117294124Y-82553143D01*
X117294119Y-82553141D01*
X117201859Y-82522569D01*
X117144414Y-82482796D01*
X117117591Y-82418280D01*
X117129906Y-82349504D01*
X117172387Y-82301485D01*
X117184224Y-82293643D01*
X117217331Y-82281296D01*
X117328470Y-82198096D01*
X117331452Y-82196122D01*
X117361555Y-82186828D01*
X117391081Y-82175816D01*
X117398031Y-82175567D01*
X117398212Y-82175512D01*
X117398368Y-82175555D01*
X117399928Y-82175500D01*
X117932954Y-82175500D01*
X117999993Y-82195185D01*
X118045748Y-82247989D01*
X118054571Y-82275307D01*
X118059032Y-82297737D01*
X118059033Y-82297739D01*
X118059034Y-82297740D01*
X118114399Y-82380601D01*
X118170791Y-82418280D01*
X118197260Y-82435966D01*
X118197264Y-82435967D01*
X118270321Y-82450499D01*
X118270324Y-82450500D01*
X118270326Y-82450500D01*
X118969676Y-82450500D01*
X118969677Y-82450499D01*
X119042740Y-82435966D01*
X119125601Y-82380601D01*
X119180966Y-82297740D01*
X119195500Y-82224674D01*
X119195500Y-81763683D01*
X119199725Y-81731590D01*
X119199745Y-81731517D01*
X119220500Y-81654057D01*
X119220500Y-81495943D01*
X119199725Y-81418409D01*
X119195500Y-81386316D01*
X119195500Y-80925323D01*
X119195499Y-80925321D01*
X119180967Y-80852264D01*
X119180966Y-80852260D01*
X119177945Y-80847739D01*
X119125601Y-80769399D01*
X119070235Y-80732405D01*
X119042739Y-80714033D01*
X119042735Y-80714032D01*
X118969677Y-80699500D01*
X118969674Y-80699500D01*
X118270326Y-80699500D01*
X118270323Y-80699500D01*
X118197264Y-80714032D01*
X118197260Y-80714033D01*
X118114399Y-80769399D01*
X118059033Y-80852260D01*
X118059032Y-80852262D01*
X118054571Y-80874693D01*
X118022185Y-80936603D01*
X117961469Y-80971177D01*
X117932954Y-80974500D01*
X117521538Y-80974500D01*
X117454499Y-80954815D01*
X117422272Y-80924811D01*
X117332547Y-80804955D01*
X117332544Y-80804952D01*
X117217335Y-80718706D01*
X117217328Y-80718702D01*
X117082482Y-80668408D01*
X117082483Y-80668408D01*
X117022883Y-80662001D01*
X117022881Y-80662000D01*
X117022873Y-80662000D01*
X117022865Y-80662000D01*
X116724500Y-80662000D01*
X116657461Y-80642315D01*
X116611706Y-80589511D01*
X116600500Y-80538000D01*
X116600500Y-78551439D01*
X116620185Y-78484400D01*
X116672989Y-78438645D01*
X116681168Y-78435257D01*
X116792326Y-78393798D01*
X116792326Y-78393797D01*
X116792331Y-78393796D01*
X116907546Y-78307546D01*
X116993796Y-78192331D01*
X117044091Y-78057483D01*
X117050500Y-77997873D01*
X117050500Y-77854500D01*
X117070185Y-77787461D01*
X117122989Y-77741706D01*
X117174500Y-77730500D01*
X119034607Y-77730500D01*
X119101646Y-77750185D01*
X119133873Y-77780188D01*
X119167455Y-77825047D01*
X119282664Y-77911293D01*
X119282671Y-77911297D01*
X119417517Y-77961591D01*
X119417516Y-77961591D01*
X119424444Y-77962335D01*
X119477127Y-77968000D01*
X120522872Y-77967999D01*
X120582483Y-77961591D01*
X120717331Y-77911296D01*
X120832546Y-77825046D01*
X120866127Y-77780188D01*
X120922061Y-77738318D01*
X120965393Y-77730500D01*
X121819003Y-77730500D01*
X121886042Y-77750185D01*
X121931797Y-77802989D01*
X121940620Y-77830308D01*
X121954032Y-77897736D01*
X121954033Y-77897739D01*
X121960470Y-77907372D01*
X122009399Y-77980601D01*
X122083291Y-78029973D01*
X122092260Y-78035966D01*
X122092264Y-78035967D01*
X122165321Y-78050499D01*
X122165324Y-78050500D01*
X122165326Y-78050500D01*
X124214676Y-78050500D01*
X124214677Y-78050499D01*
X124287740Y-78035966D01*
X124370601Y-77980601D01*
X124425966Y-77897740D01*
X124425967Y-77897736D01*
X124430640Y-77886456D01*
X124432334Y-77887157D01*
X124457843Y-77838396D01*
X124518559Y-77803823D01*
X124547073Y-77800500D01*
X124803331Y-77800500D01*
X124803347Y-77800501D01*
X124810943Y-77800501D01*
X124969054Y-77800501D01*
X124969057Y-77800501D01*
X125121785Y-77759577D01*
X125153499Y-77741266D01*
X125221398Y-77724793D01*
X125287425Y-77747644D01*
X125330617Y-77802565D01*
X125339500Y-77848653D01*
X125339500Y-79704678D01*
X125354032Y-79777735D01*
X125354033Y-79777739D01*
X125354034Y-79777740D01*
X125409399Y-79860601D01*
X125469865Y-79901002D01*
X125514668Y-79954612D01*
X125523377Y-80023937D01*
X125497993Y-80080189D01*
X125498108Y-80080266D01*
X125497647Y-80080955D01*
X125496833Y-80082760D01*
X125494724Y-80085329D01*
X125423538Y-80191866D01*
X125423533Y-80191875D01*
X125374499Y-80310255D01*
X125374497Y-80310261D01*
X125349500Y-80435928D01*
X125349500Y-80435931D01*
X125349500Y-80564069D01*
X125349500Y-80564071D01*
X125349499Y-80564071D01*
X125374497Y-80689738D01*
X125374499Y-80689744D01*
X125423533Y-80808124D01*
X125426408Y-80813502D01*
X125424926Y-80814293D01*
X125443398Y-80873287D01*
X125424913Y-80940667D01*
X125372934Y-80987357D01*
X125319418Y-80999500D01*
X125005982Y-80999500D01*
X124925019Y-81012323D01*
X124912196Y-81014354D01*
X124799158Y-81071950D01*
X124799157Y-81071951D01*
X124799152Y-81071954D01*
X124709454Y-81161652D01*
X124709451Y-81161657D01*
X124709450Y-81161658D01*
X124690251Y-81199337D01*
X124651852Y-81274698D01*
X124637000Y-81368475D01*
X124637000Y-81731517D01*
X124642095Y-81763683D01*
X124651854Y-81825304D01*
X124709450Y-81938342D01*
X124709452Y-81938344D01*
X124709454Y-81938347D01*
X124799152Y-82028045D01*
X124799154Y-82028046D01*
X124799158Y-82028050D01*
X124911570Y-82085327D01*
X124912198Y-82085647D01*
X124999616Y-82099491D01*
X125005103Y-82100361D01*
X125005975Y-82100499D01*
X125005981Y-82100500D01*
X126244018Y-82100499D01*
X126337804Y-82085646D01*
X126351773Y-82078528D01*
X126420438Y-82065632D01*
X126485179Y-82091907D01*
X126525437Y-82149012D01*
X126528268Y-82215039D01*
X126528380Y-82215057D01*
X126528293Y-82215605D01*
X126528431Y-82218818D01*
X126526981Y-82223888D01*
X126512000Y-82318475D01*
X126512000Y-82544984D01*
X126492315Y-82612023D01*
X126439511Y-82657778D01*
X126370353Y-82667722D01*
X126353405Y-82664060D01*
X126314995Y-82652900D01*
X126314989Y-82652899D01*
X126278149Y-82650000D01*
X125875000Y-82650000D01*
X125875000Y-83200000D01*
X126859795Y-83200000D01*
X126859795Y-83199998D01*
X126859600Y-83197515D01*
X126859468Y-83196790D01*
X126859511Y-83196379D01*
X126859103Y-83191191D01*
X126860065Y-83191115D01*
X126866780Y-83127304D01*
X126910499Y-83072802D01*
X126976743Y-83050588D01*
X126981399Y-83050499D01*
X128119018Y-83050499D01*
X128212804Y-83035646D01*
X128325842Y-82978050D01*
X128325846Y-82978046D01*
X128331171Y-82974179D01*
X128396978Y-82950702D01*
X128404052Y-82950500D01*
X129871309Y-82950500D01*
X129938348Y-82970185D01*
X129974411Y-83005609D01*
X130084022Y-83169655D01*
X130230342Y-83315975D01*
X130230345Y-83315977D01*
X130402402Y-83430941D01*
X130593580Y-83510130D01*
X130764315Y-83544091D01*
X130796530Y-83550499D01*
X130796534Y-83550500D01*
X130796535Y-83550500D01*
X131003466Y-83550500D01*
X131003467Y-83550499D01*
X131206420Y-83510130D01*
X131397598Y-83430941D01*
X131569655Y-83315977D01*
X131715977Y-83169655D01*
X131830941Y-82997598D01*
X131910130Y-82806420D01*
X131950500Y-82603465D01*
X131950500Y-82396535D01*
X131910130Y-82193580D01*
X131830941Y-82002402D01*
X131715977Y-81830345D01*
X131715976Y-81830344D01*
X131715975Y-81830342D01*
X131569657Y-81684024D01*
X131432608Y-81592452D01*
X131397598Y-81569059D01*
X131369658Y-81557486D01*
X131206420Y-81489870D01*
X131206412Y-81489868D01*
X131003469Y-81449500D01*
X131003465Y-81449500D01*
X130796535Y-81449500D01*
X130796530Y-81449500D01*
X130593587Y-81489868D01*
X130593579Y-81489870D01*
X130402403Y-81569058D01*
X130230342Y-81684024D01*
X130084022Y-81830344D01*
X129974411Y-81994391D01*
X129920799Y-82039196D01*
X129871309Y-82049500D01*
X128404052Y-82049500D01*
X128337013Y-82029815D01*
X128331171Y-82025821D01*
X128325846Y-82021953D01*
X128325843Y-82021951D01*
X128325842Y-82021950D01*
X128226776Y-81971473D01*
X128212801Y-81964352D01*
X128119024Y-81949500D01*
X126880982Y-81949500D01*
X126787196Y-81964354D01*
X126773224Y-81971473D01*
X126704555Y-81984367D01*
X126639815Y-81958088D01*
X126599560Y-81900981D01*
X126596732Y-81834960D01*
X126596620Y-81834943D01*
X126596707Y-81834389D01*
X126596570Y-81831175D01*
X126598019Y-81826105D01*
X126600958Y-81807547D01*
X126613000Y-81731519D01*
X126612999Y-81368482D01*
X126598146Y-81274696D01*
X126540550Y-81161658D01*
X126540546Y-81161654D01*
X126540545Y-81161652D01*
X126487100Y-81108207D01*
X126453615Y-81046884D01*
X126458599Y-80977192D01*
X126487102Y-80932843D01*
X126505274Y-80914671D01*
X126505276Y-80914669D01*
X126576465Y-80808127D01*
X126625501Y-80689744D01*
X126633682Y-80648615D01*
X126650500Y-80564071D01*
X126650500Y-80435928D01*
X126625502Y-80310261D01*
X126625501Y-80310260D01*
X126625501Y-80310256D01*
X126577172Y-80193579D01*
X126576466Y-80191875D01*
X126576461Y-80191866D01*
X126530707Y-80123391D01*
X126509829Y-80056714D01*
X126528313Y-79989334D01*
X126580292Y-79942643D01*
X126633809Y-79930500D01*
X126814676Y-79930500D01*
X126814677Y-79930499D01*
X126887740Y-79915966D01*
X126970601Y-79860601D01*
X127025966Y-79777740D01*
X127040500Y-79704674D01*
X127040500Y-77655326D01*
X127040500Y-77655323D01*
X127040499Y-77655321D01*
X127339500Y-77655321D01*
X127339500Y-79704678D01*
X127354032Y-79777735D01*
X127354033Y-79777739D01*
X127354034Y-79777740D01*
X127409399Y-79860601D01*
X127492260Y-79915966D01*
X127492264Y-79915967D01*
X127565321Y-79930499D01*
X127565324Y-79930500D01*
X127565326Y-79930500D01*
X128814676Y-79930500D01*
X128814677Y-79930499D01*
X128887740Y-79915966D01*
X128970601Y-79860601D01*
X129025966Y-79777740D01*
X129040500Y-79704674D01*
X129040500Y-77655326D01*
X129040500Y-77655323D01*
X129040499Y-77655321D01*
X129339500Y-77655321D01*
X129339500Y-79704678D01*
X129354032Y-79777735D01*
X129354033Y-79777739D01*
X129354034Y-79777740D01*
X129409399Y-79860601D01*
X129492260Y-79915966D01*
X129492264Y-79915967D01*
X129565321Y-79930499D01*
X129565324Y-79930500D01*
X129565326Y-79930500D01*
X130814676Y-79930500D01*
X130814677Y-79930499D01*
X130887740Y-79915966D01*
X130970601Y-79860601D01*
X131025966Y-79777740D01*
X131040500Y-79704674D01*
X131040500Y-77655326D01*
X131040500Y-77655323D01*
X131040499Y-77655321D01*
X131339500Y-77655321D01*
X131339500Y-79704678D01*
X131354032Y-79777735D01*
X131354033Y-79777739D01*
X131354034Y-79777740D01*
X131409399Y-79860601D01*
X131492260Y-79915966D01*
X131492264Y-79915967D01*
X131565321Y-79930499D01*
X131565324Y-79930500D01*
X131565326Y-79930500D01*
X132814676Y-79930500D01*
X132814677Y-79930499D01*
X132887740Y-79915966D01*
X132970601Y-79860601D01*
X133025966Y-79777740D01*
X133040500Y-79704674D01*
X133040500Y-77655326D01*
X133040500Y-77655323D01*
X133040499Y-77655321D01*
X133339500Y-77655321D01*
X133339500Y-79704678D01*
X133354032Y-79777735D01*
X133354033Y-79777739D01*
X133354034Y-79777740D01*
X133409399Y-79860601D01*
X133492260Y-79915966D01*
X133492264Y-79915967D01*
X133565321Y-79930499D01*
X133565324Y-79930500D01*
X133565326Y-79930500D01*
X134814676Y-79930500D01*
X134814677Y-79930499D01*
X134887740Y-79915966D01*
X134970601Y-79860601D01*
X135025966Y-79777740D01*
X135040500Y-79704674D01*
X135040500Y-77655326D01*
X135040500Y-77655323D01*
X135040499Y-77655321D01*
X135025967Y-77582264D01*
X135025966Y-77582260D01*
X135009410Y-77557482D01*
X134970601Y-77499399D01*
X134896669Y-77450000D01*
X134887739Y-77444033D01*
X134887735Y-77444032D01*
X134814677Y-77429500D01*
X134814674Y-77429500D01*
X133565326Y-77429500D01*
X133565323Y-77429500D01*
X133492264Y-77444032D01*
X133492260Y-77444033D01*
X133409399Y-77499399D01*
X133354033Y-77582260D01*
X133354032Y-77582264D01*
X133339500Y-77655321D01*
X133040499Y-77655321D01*
X133025967Y-77582264D01*
X133025966Y-77582260D01*
X133009410Y-77557482D01*
X132970601Y-77499399D01*
X132896669Y-77450000D01*
X132887739Y-77444033D01*
X132887735Y-77444032D01*
X132814677Y-77429500D01*
X132814674Y-77429500D01*
X131565326Y-77429500D01*
X131565323Y-77429500D01*
X131492264Y-77444032D01*
X131492260Y-77444033D01*
X131409399Y-77499399D01*
X131354033Y-77582260D01*
X131354032Y-77582264D01*
X131339500Y-77655321D01*
X131040499Y-77655321D01*
X131025967Y-77582264D01*
X131025966Y-77582260D01*
X131009410Y-77557482D01*
X130970601Y-77499399D01*
X130896669Y-77450000D01*
X130887739Y-77444033D01*
X130887735Y-77444032D01*
X130814677Y-77429500D01*
X130814674Y-77429500D01*
X129565326Y-77429500D01*
X129565323Y-77429500D01*
X129492264Y-77444032D01*
X129492260Y-77444033D01*
X129409399Y-77499399D01*
X129354033Y-77582260D01*
X129354032Y-77582264D01*
X129339500Y-77655321D01*
X129040499Y-77655321D01*
X129025967Y-77582264D01*
X129025966Y-77582260D01*
X129009410Y-77557482D01*
X128970601Y-77499399D01*
X128896669Y-77450000D01*
X128887739Y-77444033D01*
X128887735Y-77444032D01*
X128814677Y-77429500D01*
X128814674Y-77429500D01*
X127565326Y-77429500D01*
X127565323Y-77429500D01*
X127492264Y-77444032D01*
X127492260Y-77444033D01*
X127409399Y-77499399D01*
X127354033Y-77582260D01*
X127354032Y-77582264D01*
X127339500Y-77655321D01*
X127040499Y-77655321D01*
X127025967Y-77582264D01*
X127025966Y-77582260D01*
X127009410Y-77557482D01*
X126970601Y-77499399D01*
X126896669Y-77450000D01*
X126887739Y-77444033D01*
X126887735Y-77444032D01*
X126814677Y-77429500D01*
X126814674Y-77429500D01*
X125809096Y-77429500D01*
X125742057Y-77409815D01*
X125696302Y-77357011D01*
X125686358Y-77287853D01*
X125715383Y-77224297D01*
X125721415Y-77217819D01*
X125932274Y-77006961D01*
X126302416Y-76636819D01*
X126363739Y-76603334D01*
X126390097Y-76600500D01*
X128225233Y-76600500D01*
X128272685Y-76609939D01*
X128310251Y-76625499D01*
X128310256Y-76625501D01*
X128310260Y-76625501D01*
X128310261Y-76625502D01*
X128435928Y-76650500D01*
X128435931Y-76650500D01*
X128564071Y-76650500D01*
X128648615Y-76633682D01*
X128689744Y-76625501D01*
X128808127Y-76576465D01*
X128914669Y-76505276D01*
X129005276Y-76414669D01*
X129076465Y-76308127D01*
X129125501Y-76189744D01*
X129143316Y-76100185D01*
X129150500Y-76064071D01*
X129150500Y-75935928D01*
X129125502Y-75810261D01*
X129125501Y-75810260D01*
X129125501Y-75810256D01*
X129076465Y-75691873D01*
X129076464Y-75691872D01*
X129076461Y-75691866D01*
X129005276Y-75585331D01*
X129005273Y-75585327D01*
X128914672Y-75494726D01*
X128914668Y-75494723D01*
X128808133Y-75423538D01*
X128808124Y-75423533D01*
X128689744Y-75374499D01*
X128689738Y-75374497D01*
X128564071Y-75349500D01*
X128564069Y-75349500D01*
X128435931Y-75349500D01*
X128435929Y-75349500D01*
X128310261Y-75374497D01*
X128310251Y-75374500D01*
X128272685Y-75390061D01*
X128225233Y-75399500D01*
X127524196Y-75399500D01*
X127457157Y-75379815D01*
X127411402Y-75327011D01*
X127401458Y-75257853D01*
X127409635Y-75228047D01*
X127425501Y-75189744D01*
X127444854Y-75092452D01*
X127450500Y-75064071D01*
X127450500Y-74935928D01*
X127425502Y-74810261D01*
X127425501Y-74810260D01*
X127425501Y-74810256D01*
X127376465Y-74691873D01*
X127376464Y-74691872D01*
X127376461Y-74691866D01*
X127305276Y-74585331D01*
X127305273Y-74585327D01*
X127214672Y-74494726D01*
X127214668Y-74494723D01*
X127108133Y-74423538D01*
X127108127Y-74423535D01*
X127049844Y-74399393D01*
X127009617Y-74372513D01*
X126506223Y-73869119D01*
X125997510Y-73360407D01*
X125964026Y-73299085D01*
X125969010Y-73229393D01*
X126010882Y-73173460D01*
X126061001Y-73151110D01*
X126064068Y-73150500D01*
X126064069Y-73150500D01*
X126189744Y-73125501D01*
X126308127Y-73076465D01*
X126414669Y-73005276D01*
X126505276Y-72914669D01*
X126576465Y-72808127D01*
X126625501Y-72689744D01*
X126628383Y-72675257D01*
X126660768Y-72613347D01*
X126721484Y-72578772D01*
X126791253Y-72582512D01*
X126847925Y-72623379D01*
X126871617Y-72675257D01*
X126874497Y-72689738D01*
X126874499Y-72689744D01*
X126923533Y-72808124D01*
X126923538Y-72808133D01*
X126994723Y-72914668D01*
X126994726Y-72914672D01*
X127085327Y-73005273D01*
X127085331Y-73005276D01*
X127191866Y-73076461D01*
X127191872Y-73076464D01*
X127191873Y-73076465D01*
X127310256Y-73125501D01*
X127310260Y-73125501D01*
X127310261Y-73125502D01*
X127435928Y-73150500D01*
X127435931Y-73150500D01*
X127564071Y-73150500D01*
X127648615Y-73133682D01*
X127689744Y-73125501D01*
X127808127Y-73076465D01*
X127914669Y-73005276D01*
X128005276Y-72914669D01*
X128076465Y-72808127D01*
X128125501Y-72689744D01*
X128136726Y-72633312D01*
X128150500Y-72564071D01*
X128150500Y-72435928D01*
X128125502Y-72310261D01*
X128125501Y-72310260D01*
X128125501Y-72310256D01*
X128076465Y-72191873D01*
X128076464Y-72191872D01*
X128076461Y-72191866D01*
X128005276Y-72085331D01*
X128005273Y-72085327D01*
X127914672Y-71994726D01*
X127914668Y-71994723D01*
X127808133Y-71923538D01*
X127808124Y-71923533D01*
X127689744Y-71874499D01*
X127689738Y-71874497D01*
X127564071Y-71849500D01*
X127564069Y-71849500D01*
X127537966Y-71849500D01*
X127470927Y-71829815D01*
X127450285Y-71813181D01*
X124476819Y-68839715D01*
X124443334Y-68778392D01*
X124440500Y-68752034D01*
X124440500Y-68575323D01*
X124440499Y-68575321D01*
X124425967Y-68502264D01*
X124425966Y-68502260D01*
X124370601Y-68419399D01*
X124287740Y-68364034D01*
X124287739Y-68364033D01*
X124287735Y-68364032D01*
X124214677Y-68349500D01*
X124214674Y-68349500D01*
X122165326Y-68349500D01*
X122165323Y-68349500D01*
X122092264Y-68364032D01*
X122092260Y-68364033D01*
X122009399Y-68419399D01*
X121954033Y-68502260D01*
X121954032Y-68502264D01*
X121939500Y-68575321D01*
X121939500Y-69824678D01*
X121954032Y-69897735D01*
X121954033Y-69897739D01*
X121970546Y-69922452D01*
X122009399Y-69980601D01*
X122079820Y-70027654D01*
X122092260Y-70035966D01*
X122092264Y-70035967D01*
X122165321Y-70050499D01*
X122165324Y-70050500D01*
X122165326Y-70050500D01*
X124214676Y-70050500D01*
X124214677Y-70050499D01*
X124239029Y-70045655D01*
X124287732Y-70035968D01*
X124287733Y-70035967D01*
X124287740Y-70035966D01*
X124287745Y-70035962D01*
X124289758Y-70035129D01*
X124294537Y-70034614D01*
X124299719Y-70033584D01*
X124299811Y-70034047D01*
X124359227Y-70027654D01*
X124421709Y-70058923D01*
X124424902Y-70062005D01*
X124914405Y-70551508D01*
X124947890Y-70612831D01*
X124942906Y-70682523D01*
X124901034Y-70738456D01*
X124835570Y-70762873D01*
X124794633Y-70758964D01*
X124759313Y-70749500D01*
X124759309Y-70749500D01*
X124564500Y-70749500D01*
X124497461Y-70729815D01*
X124451706Y-70677011D01*
X124440500Y-70625500D01*
X124440500Y-70575323D01*
X124440499Y-70575321D01*
X124425967Y-70502264D01*
X124425966Y-70502260D01*
X124370601Y-70419399D01*
X124315235Y-70382405D01*
X124287739Y-70364033D01*
X124287735Y-70364032D01*
X124214677Y-70349500D01*
X124214674Y-70349500D01*
X122165326Y-70349500D01*
X122165323Y-70349500D01*
X122092264Y-70364032D01*
X122092260Y-70364033D01*
X122009399Y-70419399D01*
X121954033Y-70502260D01*
X121954032Y-70502264D01*
X121939500Y-70575321D01*
X121939500Y-71824678D01*
X121954032Y-71897735D01*
X121954033Y-71897739D01*
X121958344Y-71904191D01*
X122009399Y-71980601D01*
X122092260Y-72035966D01*
X122092264Y-72035967D01*
X122165321Y-72050499D01*
X122165324Y-72050500D01*
X122165326Y-72050500D01*
X124214676Y-72050500D01*
X124214677Y-72050499D01*
X124287740Y-72035966D01*
X124370601Y-71980601D01*
X124425966Y-71897740D01*
X124436233Y-71846121D01*
X124468617Y-71784214D01*
X124529332Y-71749639D01*
X124599101Y-71753378D01*
X124645531Y-71782634D01*
X125313181Y-72450284D01*
X125324697Y-72471374D01*
X125339857Y-72490023D01*
X125342759Y-72504452D01*
X125346666Y-72511607D01*
X125348732Y-72524183D01*
X125349500Y-72531049D01*
X125349500Y-72564069D01*
X125357936Y-72606478D01*
X125358522Y-72611718D01*
X125353342Y-72641144D01*
X125350680Y-72670900D01*
X125347350Y-72675185D01*
X125346410Y-72680530D01*
X125326144Y-72702483D01*
X125307817Y-72726077D01*
X125302700Y-72727882D01*
X125299019Y-72731870D01*
X125270100Y-72739383D01*
X125241928Y-72749322D01*
X125235290Y-72749500D01*
X124564500Y-72749500D01*
X124497461Y-72729815D01*
X124451706Y-72677011D01*
X124440500Y-72625500D01*
X124440500Y-72575323D01*
X124440499Y-72575321D01*
X124425967Y-72502264D01*
X124425966Y-72502260D01*
X124370601Y-72419399D01*
X124287740Y-72364034D01*
X124287739Y-72364033D01*
X124287735Y-72364032D01*
X124214677Y-72349500D01*
X124214674Y-72349500D01*
X122165326Y-72349500D01*
X122165323Y-72349500D01*
X122092264Y-72364032D01*
X122092260Y-72364033D01*
X122009399Y-72419399D01*
X121954033Y-72502260D01*
X121954032Y-72502264D01*
X121939500Y-72575321D01*
X121939500Y-73824678D01*
X121954032Y-73897735D01*
X121954033Y-73897739D01*
X121954034Y-73897740D01*
X122009399Y-73980601D01*
X122088032Y-74033141D01*
X122092260Y-74035966D01*
X122092264Y-74035967D01*
X122165321Y-74050499D01*
X122165324Y-74050500D01*
X122165326Y-74050500D01*
X124214676Y-74050500D01*
X124214677Y-74050499D01*
X124287740Y-74035966D01*
X124370601Y-73980601D01*
X124425966Y-73897740D01*
X124440500Y-73824674D01*
X124440500Y-73774500D01*
X124460185Y-73707461D01*
X124512989Y-73661706D01*
X124564500Y-73650500D01*
X124962035Y-73650500D01*
X124991475Y-73659144D01*
X125021462Y-73665668D01*
X125026477Y-73669422D01*
X125029074Y-73670185D01*
X125049716Y-73686819D01*
X125139511Y-73776614D01*
X126127408Y-74764512D01*
X126160893Y-74825835D01*
X126161344Y-74876384D01*
X126149500Y-74935926D01*
X126149500Y-74935931D01*
X126149500Y-75064069D01*
X126149500Y-75064071D01*
X126149499Y-75064071D01*
X126174497Y-75189738D01*
X126174499Y-75189744D01*
X126176459Y-75194477D01*
X126190365Y-75228047D01*
X126197834Y-75297516D01*
X126166559Y-75359996D01*
X126106470Y-75395648D01*
X126075804Y-75399500D01*
X126010942Y-75399500D01*
X125858215Y-75440423D01*
X125836780Y-75452798D01*
X125831036Y-75456115D01*
X125831035Y-75456114D01*
X125721287Y-75519477D01*
X125721282Y-75519481D01*
X125655437Y-75585327D01*
X125609480Y-75631284D01*
X125609478Y-75631286D01*
X125133335Y-76107430D01*
X124677584Y-76563181D01*
X124650656Y-76577884D01*
X124624838Y-76594477D01*
X124618637Y-76595368D01*
X124616261Y-76596666D01*
X124589903Y-76599500D01*
X124547073Y-76599500D01*
X124480034Y-76579815D01*
X124434279Y-76527011D01*
X124427413Y-76505755D01*
X124425966Y-76502260D01*
X124423611Y-76498735D01*
X124370601Y-76419399D01*
X124287740Y-76364034D01*
X124287739Y-76364033D01*
X124287735Y-76364032D01*
X124214677Y-76349500D01*
X124214674Y-76349500D01*
X122165326Y-76349500D01*
X122165323Y-76349500D01*
X122092264Y-76364032D01*
X122092260Y-76364033D01*
X122009398Y-76419399D01*
X121972655Y-76474391D01*
X121919043Y-76519196D01*
X121869553Y-76529500D01*
X120965393Y-76529500D01*
X120898354Y-76509815D01*
X120866127Y-76479812D01*
X120833275Y-76435928D01*
X120832546Y-76434954D01*
X120832544Y-76434953D01*
X120832544Y-76434952D01*
X120717335Y-76348706D01*
X120717329Y-76348703D01*
X120697529Y-76341318D01*
X120641596Y-76299446D01*
X120617179Y-76233982D01*
X120632031Y-76165709D01*
X120681437Y-76116304D01*
X120701860Y-76107430D01*
X120794117Y-76076859D01*
X120794124Y-76076856D01*
X120943345Y-75984815D01*
X121067315Y-75860845D01*
X121159356Y-75711624D01*
X121159358Y-75711619D01*
X121214505Y-75545197D01*
X121214506Y-75545190D01*
X121224999Y-75442486D01*
X121225000Y-75442473D01*
X121225000Y-75305000D01*
X118775001Y-75305000D01*
X118775001Y-75442486D01*
X118785494Y-75545197D01*
X118840641Y-75711619D01*
X118840643Y-75711624D01*
X118932684Y-75860845D01*
X119056654Y-75984815D01*
X119205875Y-76076856D01*
X119205880Y-76076858D01*
X119298140Y-76107430D01*
X119355585Y-76147202D01*
X119382408Y-76211718D01*
X119370093Y-76280494D01*
X119322550Y-76331694D01*
X119302471Y-76341317D01*
X119282674Y-76348701D01*
X119282664Y-76348706D01*
X119167455Y-76434952D01*
X119133873Y-76479812D01*
X119077939Y-76521682D01*
X119034607Y-76529500D01*
X117319096Y-76529500D01*
X117252057Y-76509815D01*
X117206302Y-76457011D01*
X117196358Y-76387853D01*
X117225383Y-76324297D01*
X117231415Y-76317819D01*
X117738979Y-75810255D01*
X118358506Y-75190728D01*
X118358511Y-75190724D01*
X118368714Y-75180520D01*
X118368716Y-75180520D01*
X118480520Y-75068716D01*
X118545649Y-74955909D01*
X118559577Y-74931785D01*
X118577791Y-74863805D01*
X118579769Y-74858456D01*
X118597346Y-74834828D01*
X118612668Y-74809690D01*
X118617960Y-74807119D01*
X118621473Y-74802397D01*
X118649033Y-74792023D01*
X118675515Y-74779159D01*
X118681357Y-74779857D01*
X118686864Y-74777785D01*
X118715651Y-74783957D01*
X118744891Y-74787453D01*
X118750889Y-74791512D01*
X118755181Y-74792433D01*
X118761437Y-74798651D01*
X118770817Y-74805000D01*
X119750000Y-74805000D01*
X120250000Y-74805000D01*
X121224999Y-74805000D01*
X121224999Y-74667528D01*
X121224998Y-74667511D01*
X121216246Y-74581835D01*
X121215580Y-74575321D01*
X121939500Y-74575321D01*
X121939500Y-75824678D01*
X121954032Y-75897735D01*
X121954033Y-75897739D01*
X121954034Y-75897740D01*
X122009399Y-75980601D01*
X122080148Y-76027873D01*
X122092260Y-76035966D01*
X122092264Y-76035967D01*
X122165321Y-76050499D01*
X122165324Y-76050500D01*
X122165326Y-76050500D01*
X124214676Y-76050500D01*
X124214677Y-76050499D01*
X124287740Y-76035966D01*
X124370601Y-75980601D01*
X124425966Y-75897740D01*
X124440500Y-75824674D01*
X124440500Y-74575326D01*
X124440500Y-74575323D01*
X124440499Y-74575321D01*
X124425967Y-74502264D01*
X124425966Y-74502260D01*
X124416159Y-74487583D01*
X124370601Y-74419399D01*
X124287740Y-74364034D01*
X124287739Y-74364033D01*
X124287735Y-74364032D01*
X124214677Y-74349500D01*
X124214674Y-74349500D01*
X122165326Y-74349500D01*
X122165323Y-74349500D01*
X122092264Y-74364032D01*
X122092260Y-74364033D01*
X122009399Y-74419399D01*
X121954033Y-74502260D01*
X121954032Y-74502264D01*
X121939500Y-74575321D01*
X121215580Y-74575321D01*
X121214505Y-74564802D01*
X121159358Y-74398380D01*
X121159356Y-74398375D01*
X121067315Y-74249154D01*
X120943345Y-74125184D01*
X120794124Y-74033143D01*
X120794119Y-74033141D01*
X120627697Y-73977994D01*
X120627690Y-73977993D01*
X120524986Y-73967500D01*
X120250000Y-73967500D01*
X120250000Y-74805000D01*
X119750000Y-74805000D01*
X119750000Y-73967500D01*
X119475029Y-73967500D01*
X119475012Y-73967501D01*
X119372302Y-73977994D01*
X119205880Y-74033141D01*
X119205875Y-74033143D01*
X119056654Y-74125184D01*
X118932684Y-74249154D01*
X118840643Y-74398375D01*
X118837592Y-74404921D01*
X118835187Y-74403799D01*
X118802425Y-74451110D01*
X118737907Y-74477928D01*
X118669132Y-74465607D01*
X118617936Y-74418060D01*
X118600500Y-74354655D01*
X118600500Y-70224500D01*
X118620185Y-70157461D01*
X118672989Y-70111706D01*
X118724500Y-70100500D01*
X119050249Y-70100500D01*
X119117288Y-70120185D01*
X119149515Y-70150188D01*
X119180926Y-70192147D01*
X119192454Y-70207546D01*
X119192457Y-70207548D01*
X119307664Y-70293793D01*
X119307671Y-70293797D01*
X119442517Y-70344091D01*
X119442516Y-70344091D01*
X119449444Y-70344835D01*
X119502127Y-70350500D01*
X120497872Y-70350499D01*
X120557483Y-70344091D01*
X120692331Y-70293796D01*
X120807546Y-70207546D01*
X120893796Y-70092331D01*
X120944091Y-69957483D01*
X120950500Y-69897873D01*
X120950499Y-69102128D01*
X120944091Y-69042517D01*
X120938630Y-69027876D01*
X120893797Y-68907671D01*
X120893793Y-68907664D01*
X120807547Y-68792455D01*
X120807544Y-68792452D01*
X120692335Y-68706206D01*
X120692328Y-68706202D01*
X120557482Y-68655908D01*
X120557483Y-68655908D01*
X120497883Y-68649501D01*
X120497881Y-68649500D01*
X120497873Y-68649500D01*
X120497864Y-68649500D01*
X119502129Y-68649500D01*
X119502123Y-68649501D01*
X119442516Y-68655908D01*
X119307671Y-68706202D01*
X119307664Y-68706206D01*
X119192457Y-68792451D01*
X119192451Y-68792457D01*
X119149515Y-68849812D01*
X119093581Y-68891682D01*
X119050249Y-68899500D01*
X118300097Y-68899500D01*
X118233058Y-68879815D01*
X118212416Y-68863181D01*
X117606819Y-68257584D01*
X117573334Y-68196261D01*
X117570500Y-68169903D01*
X117570500Y-66414141D01*
X117590185Y-66347102D01*
X117642989Y-66301347D01*
X117651149Y-66297966D01*
X117662331Y-66293796D01*
X117777546Y-66207546D01*
X117863796Y-66092331D01*
X117914091Y-65957483D01*
X117920500Y-65897873D01*
X117920500Y-65894986D01*
X118745001Y-65894986D01*
X118755494Y-65997697D01*
X118810641Y-66164119D01*
X118810643Y-66164124D01*
X118902684Y-66313345D01*
X119026654Y-66437315D01*
X119175875Y-66529356D01*
X119175880Y-66529358D01*
X119205602Y-66539207D01*
X119263047Y-66578979D01*
X119289870Y-66643495D01*
X119277555Y-66712271D01*
X119240910Y-66756179D01*
X119192452Y-66792455D01*
X119106206Y-66907664D01*
X119106202Y-66907671D01*
X119055908Y-67042517D01*
X119049501Y-67102116D01*
X119049500Y-67102135D01*
X119049500Y-67897870D01*
X119049501Y-67897876D01*
X119055908Y-67957483D01*
X119106202Y-68092328D01*
X119106206Y-68092335D01*
X119192452Y-68207544D01*
X119192455Y-68207547D01*
X119307664Y-68293793D01*
X119307671Y-68293797D01*
X119442517Y-68344091D01*
X119442516Y-68344091D01*
X119449444Y-68344835D01*
X119502127Y-68350500D01*
X120497872Y-68350499D01*
X120557483Y-68344091D01*
X120692331Y-68293796D01*
X120807546Y-68207546D01*
X120893796Y-68092331D01*
X120914184Y-68037669D01*
X120916609Y-68031167D01*
X120958480Y-67975233D01*
X121023944Y-67950816D01*
X121032791Y-67950500D01*
X121927935Y-67950500D01*
X121994974Y-67970185D01*
X122000624Y-67974738D01*
X122009399Y-67980601D01*
X122092260Y-68035966D01*
X122092263Y-68035966D01*
X122092264Y-68035967D01*
X122165321Y-68050499D01*
X122165324Y-68050500D01*
X122165326Y-68050500D01*
X124214676Y-68050500D01*
X124214677Y-68050499D01*
X124287740Y-68035966D01*
X124370601Y-67980601D01*
X124425966Y-67897740D01*
X124440500Y-67824674D01*
X124440500Y-66575326D01*
X124440500Y-66575323D01*
X124440499Y-66575321D01*
X124425967Y-66502264D01*
X124425966Y-66502260D01*
X124370601Y-66419399D01*
X124296943Y-66370183D01*
X124287739Y-66364033D01*
X124287735Y-66364032D01*
X124214677Y-66349500D01*
X124214674Y-66349500D01*
X122165326Y-66349500D01*
X122165323Y-66349500D01*
X122092264Y-66364032D01*
X122092260Y-66364033D01*
X122009399Y-66419399D01*
X121954033Y-66502260D01*
X121954032Y-66502264D01*
X121939500Y-66575321D01*
X121939500Y-66925500D01*
X121919815Y-66992539D01*
X121867011Y-67038294D01*
X121815500Y-67049500D01*
X121032791Y-67049500D01*
X120965752Y-67029815D01*
X120919997Y-66977011D01*
X120916609Y-66968833D01*
X120893797Y-66907671D01*
X120893793Y-66907664D01*
X120807547Y-66792455D01*
X120740123Y-66741981D01*
X120698253Y-66686047D01*
X120693269Y-66616356D01*
X120726755Y-66555033D01*
X120757985Y-66533166D01*
X120757975Y-66533149D01*
X120758267Y-66532968D01*
X120762036Y-66530330D01*
X120764122Y-66529357D01*
X120913345Y-66437315D01*
X121037315Y-66313345D01*
X121129356Y-66164124D01*
X121129358Y-66164119D01*
X121184505Y-65997697D01*
X121184506Y-65997690D01*
X121194999Y-65894986D01*
X121195000Y-65894973D01*
X121195000Y-65757500D01*
X118745001Y-65757500D01*
X118745001Y-65894986D01*
X117920500Y-65894986D01*
X117920499Y-65483008D01*
X117920499Y-65102127D01*
X117920498Y-65102123D01*
X117920497Y-65102116D01*
X117914091Y-65042517D01*
X117912718Y-65038835D01*
X117912499Y-65035778D01*
X117912308Y-65034969D01*
X117912439Y-65034937D01*
X117907733Y-64969143D01*
X117941217Y-64907820D01*
X118002540Y-64874334D01*
X118028899Y-64871500D01*
X118633352Y-64871500D01*
X118700391Y-64891185D01*
X118746146Y-64943989D01*
X118755712Y-65010521D01*
X118756182Y-65010569D01*
X118755989Y-65012450D01*
X118756090Y-65013147D01*
X118755689Y-65015385D01*
X118745000Y-65120013D01*
X118745000Y-65257500D01*
X121194999Y-65257500D01*
X121194999Y-65120028D01*
X121194998Y-65120013D01*
X121183818Y-65010569D01*
X121186227Y-65010322D01*
X121190612Y-64951777D01*
X121232671Y-64895984D01*
X121298217Y-64871787D01*
X121306648Y-64871500D01*
X121628308Y-64871500D01*
X121628309Y-64871500D01*
X121718673Y-64847286D01*
X121742887Y-64840799D01*
X121761843Y-64829854D01*
X121770824Y-64826386D01*
X121796424Y-64824256D01*
X121821397Y-64818198D01*
X121830673Y-64821408D01*
X121840453Y-64820595D01*
X121863144Y-64832646D01*
X121887424Y-64841049D01*
X121893490Y-64848762D01*
X121902160Y-64853367D01*
X121914735Y-64875776D01*
X121930616Y-64895969D01*
X121932996Y-64908317D01*
X121936353Y-64914299D01*
X121935830Y-64923021D01*
X121939500Y-64942058D01*
X121939500Y-65824678D01*
X121954032Y-65897735D01*
X121954033Y-65897739D01*
X121971050Y-65923206D01*
X122009399Y-65980601D01*
X122085078Y-66031167D01*
X122092260Y-66035966D01*
X122092264Y-66035967D01*
X122165321Y-66050499D01*
X122165324Y-66050500D01*
X122165326Y-66050500D01*
X124214676Y-66050500D01*
X124214677Y-66050499D01*
X124287740Y-66035966D01*
X124370601Y-65980601D01*
X124425966Y-65897740D01*
X124440500Y-65824674D01*
X124440500Y-64575326D01*
X124440500Y-64575323D01*
X124440499Y-64575321D01*
X124425967Y-64502264D01*
X124425966Y-64502260D01*
X124423883Y-64499142D01*
X124370601Y-64419399D01*
X124296943Y-64370183D01*
X124287739Y-64364033D01*
X124287735Y-64364032D01*
X124214677Y-64349500D01*
X124214674Y-64349500D01*
X122576966Y-64349500D01*
X122555720Y-64343261D01*
X122533632Y-64341682D01*
X122522848Y-64333609D01*
X122509927Y-64329815D01*
X122495427Y-64313081D01*
X122477699Y-64299810D01*
X122472991Y-64287189D01*
X122464172Y-64277011D01*
X122461020Y-64255093D01*
X122453282Y-64234346D01*
X122456144Y-64221185D01*
X122454228Y-64207853D01*
X122463427Y-64187709D01*
X122468134Y-64166073D01*
X122481402Y-64148347D01*
X122483253Y-64144297D01*
X122489285Y-64137819D01*
X122540285Y-64086819D01*
X122601608Y-64053334D01*
X122627966Y-64050500D01*
X124214676Y-64050500D01*
X124214677Y-64050499D01*
X124287740Y-64035966D01*
X124370601Y-63980601D01*
X124425966Y-63897740D01*
X124440500Y-63824674D01*
X124440500Y-62624500D01*
X124460185Y-62557461D01*
X124512989Y-62511706D01*
X124564500Y-62500500D01*
X137815500Y-62500500D01*
X137882539Y-62520185D01*
X137928294Y-62572989D01*
X137939500Y-62624500D01*
X137939500Y-63824678D01*
X137954032Y-63897735D01*
X137954033Y-63897739D01*
X137954034Y-63897740D01*
X138009399Y-63980601D01*
X138085078Y-64031167D01*
X138092260Y-64035966D01*
X138092264Y-64035967D01*
X138165321Y-64050499D01*
X138165324Y-64050500D01*
X138165326Y-64050500D01*
X139752035Y-64050500D01*
X139781475Y-64059144D01*
X139811462Y-64065668D01*
X139816477Y-64069422D01*
X139819074Y-64070185D01*
X139839716Y-64086819D01*
X139890716Y-64137819D01*
X139924201Y-64199142D01*
X139919217Y-64268834D01*
X139877345Y-64324767D01*
X139811881Y-64349184D01*
X139803035Y-64349500D01*
X138165323Y-64349500D01*
X138092264Y-64364032D01*
X138092260Y-64364033D01*
X138009399Y-64419399D01*
X137954033Y-64502260D01*
X137954032Y-64502264D01*
X137939500Y-64575321D01*
X137939500Y-65824678D01*
X137954032Y-65897735D01*
X137954033Y-65897739D01*
X137971050Y-65923206D01*
X138009399Y-65980601D01*
X138085078Y-66031167D01*
X138092260Y-66035966D01*
X138092264Y-66035967D01*
X138165321Y-66050499D01*
X138165324Y-66050500D01*
X138165326Y-66050500D01*
X139862035Y-66050500D01*
X139891475Y-66059144D01*
X139921462Y-66065668D01*
X139926477Y-66069422D01*
X139929074Y-66070185D01*
X139949716Y-66086819D01*
X140000716Y-66137819D01*
X140034201Y-66199142D01*
X140029217Y-66268834D01*
X139987345Y-66324767D01*
X139921881Y-66349184D01*
X139913035Y-66349500D01*
X138165323Y-66349500D01*
X138092264Y-66364032D01*
X138092260Y-66364033D01*
X138009399Y-66419399D01*
X137954033Y-66502260D01*
X137954032Y-66502264D01*
X137939500Y-66575321D01*
X137939500Y-67362035D01*
X137919815Y-67429074D01*
X137903181Y-67449716D01*
X136139513Y-69213383D01*
X136139509Y-69213389D01*
X136080201Y-69316112D01*
X136080200Y-69316117D01*
X136049500Y-69430691D01*
X136049500Y-75979192D01*
X136029815Y-76046231D01*
X136013181Y-76066873D01*
X135994726Y-76085327D01*
X135994723Y-76085331D01*
X135923538Y-76191866D01*
X135923533Y-76191875D01*
X135874499Y-76310255D01*
X135874497Y-76310261D01*
X135849500Y-76435928D01*
X135849500Y-76435931D01*
X135849500Y-76564069D01*
X135849500Y-76564071D01*
X135849499Y-76564071D01*
X135874497Y-76689738D01*
X135874499Y-76689744D01*
X135923533Y-76808124D01*
X135923538Y-76808133D01*
X135994723Y-76914668D01*
X135994726Y-76914672D01*
X136085327Y-77005273D01*
X136085331Y-77005276D01*
X136191866Y-77076461D01*
X136191872Y-77076464D01*
X136191873Y-77076465D01*
X136310256Y-77125501D01*
X136310260Y-77125501D01*
X136310261Y-77125502D01*
X136435928Y-77150500D01*
X136435931Y-77150500D01*
X136564071Y-77150500D01*
X136648615Y-77133682D01*
X136689744Y-77125501D01*
X136808127Y-77076465D01*
X136808132Y-77076461D01*
X136808135Y-77076460D01*
X136856608Y-77044071D01*
X136866308Y-77041033D01*
X136873989Y-77034378D01*
X136899087Y-77030769D01*
X136923285Y-77023192D01*
X136933085Y-77025880D01*
X136943147Y-77024434D01*
X136966214Y-77034968D01*
X136990665Y-77041676D01*
X136997456Y-77049236D01*
X137006703Y-77053459D01*
X137020413Y-77074792D01*
X137037356Y-77093654D01*
X137039987Y-77105251D01*
X137044477Y-77112237D01*
X137049500Y-77147172D01*
X137049500Y-77325457D01*
X137029815Y-77392496D01*
X136977011Y-77438251D01*
X136907853Y-77448195D01*
X136899804Y-77445988D01*
X136899719Y-77446416D01*
X136814677Y-77429500D01*
X136814674Y-77429500D01*
X135565326Y-77429500D01*
X135565323Y-77429500D01*
X135492264Y-77444032D01*
X135492260Y-77444033D01*
X135409399Y-77499399D01*
X135354033Y-77582260D01*
X135354032Y-77582264D01*
X135339500Y-77655321D01*
X135339500Y-79704678D01*
X135354032Y-79777735D01*
X135354033Y-79777739D01*
X135354034Y-79777740D01*
X135409399Y-79860601D01*
X135492260Y-79915966D01*
X135492264Y-79915967D01*
X135565321Y-79930499D01*
X135565324Y-79930500D01*
X136769823Y-79930500D01*
X136836862Y-79950185D01*
X136882617Y-80002989D01*
X136892561Y-80072147D01*
X136863536Y-80135703D01*
X136844137Y-80153763D01*
X136792454Y-80192454D01*
X136792453Y-80192455D01*
X136792452Y-80192456D01*
X136706206Y-80307664D01*
X136706202Y-80307671D01*
X136655908Y-80442517D01*
X136649501Y-80502116D01*
X136649500Y-80502135D01*
X136649500Y-81497870D01*
X136649501Y-81497876D01*
X136655909Y-81557484D01*
X136703209Y-81684305D01*
X136708193Y-81753996D01*
X136674707Y-81815319D01*
X136613384Y-81848803D01*
X136570223Y-81849188D01*
X136570134Y-81850097D01*
X136564072Y-81849500D01*
X136564069Y-81849500D01*
X136435931Y-81849500D01*
X136435929Y-81849500D01*
X136310261Y-81874497D01*
X136310255Y-81874499D01*
X136191875Y-81923533D01*
X136191866Y-81923538D01*
X136085331Y-81994723D01*
X136085327Y-81994726D01*
X135994726Y-82085327D01*
X135994723Y-82085331D01*
X135923538Y-82191866D01*
X135923533Y-82191875D01*
X135874499Y-82310255D01*
X135874497Y-82310261D01*
X135849500Y-82435928D01*
X135849500Y-82435931D01*
X135849500Y-82564069D01*
X135849500Y-82564071D01*
X135849499Y-82564071D01*
X135874497Y-82689738D01*
X135874499Y-82689744D01*
X135923533Y-82808124D01*
X135923538Y-82808133D01*
X135994723Y-82914668D01*
X135994726Y-82914672D01*
X136085327Y-83005273D01*
X136085331Y-83005276D01*
X136191866Y-83076461D01*
X136191872Y-83076464D01*
X136191873Y-83076465D01*
X136310256Y-83125501D01*
X136310260Y-83125501D01*
X136310261Y-83125502D01*
X136435928Y-83150500D01*
X136435931Y-83150500D01*
X136462035Y-83150500D01*
X136491475Y-83159144D01*
X136521462Y-83165668D01*
X136526477Y-83169422D01*
X136529074Y-83170185D01*
X136549716Y-83186819D01*
X136613181Y-83250284D01*
X136646666Y-83311607D01*
X136649500Y-83337965D01*
X136649500Y-83997870D01*
X136649501Y-83997876D01*
X136655908Y-84057483D01*
X136706202Y-84192328D01*
X136706206Y-84192335D01*
X136792452Y-84307544D01*
X136792455Y-84307547D01*
X136907664Y-84393793D01*
X136907671Y-84393797D01*
X137042517Y-84444091D01*
X137042516Y-84444091D01*
X137049444Y-84444835D01*
X137102127Y-84450500D01*
X137897872Y-84450499D01*
X137957483Y-84444091D01*
X138092331Y-84393796D01*
X138207546Y-84307546D01*
X138293796Y-84192331D01*
X138344091Y-84057483D01*
X138350500Y-83997873D01*
X138350499Y-83002135D01*
X138649500Y-83002135D01*
X138649500Y-83997870D01*
X138649501Y-83997876D01*
X138655908Y-84057483D01*
X138706202Y-84192328D01*
X138706206Y-84192335D01*
X138792452Y-84307544D01*
X138792455Y-84307547D01*
X138907664Y-84393793D01*
X138907671Y-84393797D01*
X139042517Y-84444091D01*
X139042516Y-84444091D01*
X139049444Y-84444835D01*
X139102127Y-84450500D01*
X139897872Y-84450499D01*
X139957483Y-84444091D01*
X140092331Y-84393796D01*
X140207546Y-84307546D01*
X140293796Y-84192331D01*
X140344091Y-84057483D01*
X140344091Y-84057481D01*
X140345874Y-84049938D01*
X140348146Y-84050474D01*
X140370429Y-83996688D01*
X140427823Y-83956843D01*
X140466976Y-83950500D01*
X141471309Y-83950500D01*
X141538348Y-83970185D01*
X141574411Y-84005609D01*
X141684022Y-84169655D01*
X141830342Y-84315975D01*
X141830345Y-84315977D01*
X142002402Y-84430941D01*
X142193580Y-84510130D01*
X142396530Y-84550499D01*
X142396534Y-84550500D01*
X142396535Y-84550500D01*
X142603466Y-84550500D01*
X142603467Y-84550499D01*
X142806420Y-84510130D01*
X142997598Y-84430941D01*
X143169655Y-84315977D01*
X143315977Y-84169655D01*
X143362528Y-84099986D01*
X144800001Y-84099986D01*
X144810494Y-84202697D01*
X144865641Y-84369119D01*
X144865643Y-84369124D01*
X144957684Y-84518345D01*
X145081654Y-84642315D01*
X145230875Y-84734356D01*
X145230880Y-84734358D01*
X145397302Y-84789505D01*
X145397309Y-84789506D01*
X145500019Y-84799999D01*
X145849999Y-84799999D01*
X146350000Y-84799999D01*
X146699972Y-84799999D01*
X146699986Y-84799998D01*
X146802697Y-84789505D01*
X146969119Y-84734358D01*
X146969124Y-84734356D01*
X147118345Y-84642315D01*
X147242315Y-84518345D01*
X147334356Y-84369124D01*
X147334358Y-84369119D01*
X147389505Y-84202697D01*
X147389506Y-84202690D01*
X147399999Y-84099986D01*
X147400000Y-84099973D01*
X147400000Y-83750000D01*
X146350000Y-83750000D01*
X146350000Y-84799999D01*
X145849999Y-84799999D01*
X145850000Y-84799998D01*
X145850000Y-83750000D01*
X144800001Y-83750000D01*
X144800001Y-84099986D01*
X143362528Y-84099986D01*
X143430941Y-83997598D01*
X143510130Y-83806420D01*
X143550500Y-83603465D01*
X143550500Y-83460504D01*
X145800000Y-83460504D01*
X145800000Y-83539496D01*
X145820444Y-83615796D01*
X145859940Y-83684205D01*
X145915795Y-83740060D01*
X145984204Y-83779556D01*
X146060504Y-83800000D01*
X146139496Y-83800000D01*
X146215796Y-83779556D01*
X146284205Y-83740060D01*
X146340060Y-83684205D01*
X146379556Y-83615796D01*
X146400000Y-83539496D01*
X146400000Y-83460504D01*
X146379556Y-83384204D01*
X146340060Y-83315795D01*
X146284205Y-83259940D01*
X146266988Y-83250000D01*
X146350000Y-83250000D01*
X147399999Y-83250000D01*
X147399999Y-82900028D01*
X147399998Y-82900013D01*
X147389505Y-82797302D01*
X147334358Y-82630880D01*
X147334356Y-82630875D01*
X147242315Y-82481654D01*
X147118345Y-82357684D01*
X146969124Y-82265643D01*
X146969119Y-82265641D01*
X146802697Y-82210494D01*
X146802690Y-82210493D01*
X146699986Y-82200000D01*
X146350000Y-82200000D01*
X146350000Y-83250000D01*
X146266988Y-83250000D01*
X146215796Y-83220444D01*
X146139496Y-83200000D01*
X146060504Y-83200000D01*
X145984204Y-83220444D01*
X145915795Y-83259940D01*
X145859940Y-83315795D01*
X145820444Y-83384204D01*
X145800000Y-83460504D01*
X143550500Y-83460504D01*
X143550500Y-83396535D01*
X143510130Y-83193580D01*
X143430941Y-83002402D01*
X143414667Y-82978046D01*
X143406454Y-82965753D01*
X143362528Y-82900013D01*
X144800000Y-82900013D01*
X144800000Y-83250000D01*
X145850000Y-83250000D01*
X145850000Y-82200000D01*
X145500028Y-82200000D01*
X145500012Y-82200001D01*
X145397302Y-82210494D01*
X145230880Y-82265641D01*
X145230875Y-82265643D01*
X145081654Y-82357684D01*
X144957684Y-82481654D01*
X144865643Y-82630875D01*
X144865641Y-82630880D01*
X144810494Y-82797302D01*
X144810493Y-82797309D01*
X144800000Y-82900013D01*
X143362528Y-82900013D01*
X143315977Y-82830344D01*
X143169657Y-82684024D01*
X143083626Y-82626541D01*
X142997598Y-82569059D01*
X142986251Y-82564359D01*
X142806420Y-82489870D01*
X142806412Y-82489868D01*
X142603469Y-82449500D01*
X142603465Y-82449500D01*
X142396535Y-82449500D01*
X142396530Y-82449500D01*
X142193587Y-82489868D01*
X142193579Y-82489870D01*
X142002403Y-82569058D01*
X141830342Y-82684024D01*
X141684022Y-82830344D01*
X141574411Y-82994391D01*
X141520799Y-83039196D01*
X141471309Y-83049500D01*
X140466977Y-83049500D01*
X140399938Y-83029815D01*
X140354183Y-82977011D01*
X140346733Y-82949865D01*
X140345876Y-82950068D01*
X140344092Y-82942520D01*
X140293797Y-82807671D01*
X140293793Y-82807664D01*
X140207547Y-82692455D01*
X140207544Y-82692452D01*
X140092335Y-82606206D01*
X140092328Y-82606202D01*
X139957482Y-82555908D01*
X139957483Y-82555908D01*
X139897883Y-82549501D01*
X139897881Y-82549500D01*
X139897873Y-82549500D01*
X139897864Y-82549500D01*
X139102129Y-82549500D01*
X139102123Y-82549501D01*
X139042516Y-82555908D01*
X138907671Y-82606202D01*
X138907664Y-82606206D01*
X138792455Y-82692452D01*
X138792452Y-82692455D01*
X138706206Y-82807664D01*
X138706202Y-82807671D01*
X138655908Y-82942517D01*
X138649501Y-83002116D01*
X138649500Y-83002135D01*
X138350499Y-83002135D01*
X138350499Y-83002128D01*
X138344091Y-82942517D01*
X138336608Y-82922455D01*
X138293797Y-82807671D01*
X138293793Y-82807664D01*
X138207547Y-82692455D01*
X138207544Y-82692452D01*
X138092335Y-82606206D01*
X138092328Y-82606202D01*
X137957482Y-82555908D01*
X137957483Y-82555908D01*
X137897883Y-82549501D01*
X137897881Y-82549500D01*
X137897873Y-82549500D01*
X137897865Y-82549500D01*
X137274073Y-82549500D01*
X137207034Y-82529815D01*
X137161279Y-82477011D01*
X137151809Y-82441882D01*
X137151689Y-82441906D01*
X137151332Y-82440113D01*
X137150670Y-82437656D01*
X137150500Y-82435937D01*
X137150500Y-82435931D01*
X137125501Y-82310256D01*
X137079831Y-82200000D01*
X137076466Y-82191875D01*
X137076461Y-82191866D01*
X137044070Y-82143390D01*
X137023192Y-82076713D01*
X137041676Y-82009333D01*
X137093655Y-81962642D01*
X137147167Y-81950499D01*
X137897872Y-81950499D01*
X137957483Y-81944091D01*
X138092331Y-81893796D01*
X138207546Y-81807546D01*
X138293796Y-81692331D01*
X138344091Y-81557483D01*
X138350500Y-81497873D01*
X138350499Y-80502135D01*
X138649500Y-80502135D01*
X138649500Y-81497870D01*
X138649501Y-81497876D01*
X138655908Y-81557483D01*
X138706202Y-81692328D01*
X138706206Y-81692335D01*
X138792452Y-81807544D01*
X138792455Y-81807547D01*
X138907664Y-81893793D01*
X138907671Y-81893797D01*
X139042517Y-81944091D01*
X139042516Y-81944091D01*
X139049444Y-81944835D01*
X139102127Y-81950500D01*
X139897872Y-81950499D01*
X139957483Y-81944091D01*
X140092331Y-81893796D01*
X140207546Y-81807546D01*
X140293796Y-81692331D01*
X140344091Y-81557483D01*
X140350500Y-81497873D01*
X140350499Y-81074499D01*
X140370183Y-81007461D01*
X140422987Y-80961706D01*
X140474499Y-80950500D01*
X141471309Y-80950500D01*
X141538348Y-80970185D01*
X141574411Y-81005609D01*
X141684022Y-81169655D01*
X141830342Y-81315975D01*
X141830345Y-81315977D01*
X142002402Y-81430941D01*
X142193580Y-81510130D01*
X142356316Y-81542500D01*
X142396530Y-81550499D01*
X142396534Y-81550500D01*
X142396535Y-81550500D01*
X142603466Y-81550500D01*
X142603467Y-81550499D01*
X142806420Y-81510130D01*
X142997598Y-81430941D01*
X143169655Y-81315977D01*
X143315977Y-81169655D01*
X143362528Y-81099986D01*
X144800001Y-81099986D01*
X144810494Y-81202697D01*
X144865641Y-81369119D01*
X144865643Y-81369124D01*
X144957684Y-81518345D01*
X145081654Y-81642315D01*
X145230875Y-81734356D01*
X145230880Y-81734358D01*
X145397302Y-81789505D01*
X145397309Y-81789506D01*
X145500019Y-81799999D01*
X145849999Y-81799999D01*
X146350000Y-81799999D01*
X146699972Y-81799999D01*
X146699986Y-81799998D01*
X146802697Y-81789505D01*
X146969119Y-81734358D01*
X146969124Y-81734356D01*
X147118345Y-81642315D01*
X147242315Y-81518345D01*
X147334356Y-81369124D01*
X147334358Y-81369119D01*
X147389505Y-81202697D01*
X147389506Y-81202690D01*
X147399999Y-81099986D01*
X147400000Y-81099973D01*
X147400000Y-80750000D01*
X146350000Y-80750000D01*
X146350000Y-81799999D01*
X145849999Y-81799999D01*
X145850000Y-81799998D01*
X145850000Y-80750000D01*
X144800001Y-80750000D01*
X144800001Y-81099986D01*
X143362528Y-81099986D01*
X143430941Y-80997598D01*
X143510130Y-80806420D01*
X143550500Y-80603465D01*
X143550500Y-80460504D01*
X145800000Y-80460504D01*
X145800000Y-80539496D01*
X145820444Y-80615796D01*
X145859940Y-80684205D01*
X145915795Y-80740060D01*
X145984204Y-80779556D01*
X146060504Y-80800000D01*
X146139496Y-80800000D01*
X146215796Y-80779556D01*
X146284205Y-80740060D01*
X146340060Y-80684205D01*
X146379556Y-80615796D01*
X146400000Y-80539496D01*
X146400000Y-80460504D01*
X146379556Y-80384204D01*
X146340060Y-80315795D01*
X146284205Y-80259940D01*
X146266988Y-80250000D01*
X146350000Y-80250000D01*
X147399999Y-80250000D01*
X147399999Y-79900028D01*
X147399998Y-79900013D01*
X147389505Y-79797302D01*
X147334358Y-79630880D01*
X147334356Y-79630875D01*
X147242315Y-79481654D01*
X147118345Y-79357684D01*
X146969124Y-79265643D01*
X146969119Y-79265641D01*
X146802697Y-79210494D01*
X146802690Y-79210493D01*
X146699986Y-79200000D01*
X146350000Y-79200000D01*
X146350000Y-80250000D01*
X146266988Y-80250000D01*
X146215796Y-80220444D01*
X146139496Y-80200000D01*
X146060504Y-80200000D01*
X145984204Y-80220444D01*
X145915795Y-80259940D01*
X145859940Y-80315795D01*
X145820444Y-80384204D01*
X145800000Y-80460504D01*
X143550500Y-80460504D01*
X143550500Y-80396535D01*
X143510130Y-80193580D01*
X143430941Y-80002402D01*
X143422209Y-79989334D01*
X143406454Y-79965753D01*
X143362528Y-79900013D01*
X144800000Y-79900013D01*
X144800000Y-80250000D01*
X145850000Y-80250000D01*
X145850000Y-79200000D01*
X145500028Y-79200000D01*
X145500012Y-79200001D01*
X145397302Y-79210494D01*
X145230880Y-79265641D01*
X145230875Y-79265643D01*
X145081654Y-79357684D01*
X144957684Y-79481654D01*
X144865643Y-79630875D01*
X144865641Y-79630880D01*
X144810494Y-79797302D01*
X144810493Y-79797309D01*
X144800000Y-79900013D01*
X143362528Y-79900013D01*
X143315977Y-79830344D01*
X143169657Y-79684024D01*
X143083626Y-79626541D01*
X142997598Y-79569059D01*
X142806420Y-79489870D01*
X142806412Y-79489868D01*
X142603469Y-79449500D01*
X142603465Y-79449500D01*
X142396535Y-79449500D01*
X142396530Y-79449500D01*
X142193587Y-79489868D01*
X142193579Y-79489870D01*
X142002403Y-79569058D01*
X141830342Y-79684024D01*
X141684022Y-79830344D01*
X141574411Y-79994391D01*
X141520799Y-80039196D01*
X141471309Y-80049500D01*
X139940688Y-80049500D01*
X139936136Y-80050099D01*
X139906706Y-80050449D01*
X139897876Y-80049500D01*
X139102129Y-80049500D01*
X139102123Y-80049501D01*
X139042516Y-80055908D01*
X138907671Y-80106202D01*
X138907664Y-80106206D01*
X138792455Y-80192452D01*
X138792452Y-80192455D01*
X138706206Y-80307664D01*
X138706202Y-80307671D01*
X138655908Y-80442517D01*
X138649501Y-80502116D01*
X138649500Y-80502135D01*
X138350499Y-80502135D01*
X138350499Y-80502128D01*
X138344091Y-80442517D01*
X138341633Y-80435928D01*
X138293797Y-80307671D01*
X138293793Y-80307664D01*
X138207547Y-80192455D01*
X138207544Y-80192452D01*
X138092335Y-80106206D01*
X138092328Y-80106202D01*
X138031167Y-80083391D01*
X137975233Y-80041520D01*
X137950816Y-79976056D01*
X137950500Y-79967209D01*
X137950500Y-78417438D01*
X137970185Y-78350399D01*
X138022989Y-78304644D01*
X138087758Y-78294149D01*
X138142160Y-78299999D01*
X138142172Y-78300000D01*
X138940000Y-78300000D01*
X139440000Y-78300000D01*
X140237828Y-78300000D01*
X140237844Y-78299999D01*
X140297372Y-78293598D01*
X140297379Y-78293596D01*
X140432086Y-78243354D01*
X140432093Y-78243350D01*
X140547187Y-78157190D01*
X140547190Y-78157187D01*
X140633350Y-78042093D01*
X140633354Y-78042086D01*
X140637867Y-78029986D01*
X141300001Y-78029986D01*
X141310494Y-78132697D01*
X141365641Y-78299119D01*
X141365643Y-78299124D01*
X141457684Y-78448345D01*
X141581654Y-78572315D01*
X141730875Y-78664356D01*
X141730880Y-78664358D01*
X141897302Y-78719505D01*
X141897309Y-78719506D01*
X142000019Y-78729999D01*
X142249999Y-78729999D01*
X142750000Y-78729999D01*
X142999972Y-78729999D01*
X142999986Y-78729998D01*
X143102697Y-78719505D01*
X143269119Y-78664358D01*
X143269124Y-78664356D01*
X143418345Y-78572315D01*
X143542315Y-78448345D01*
X143634356Y-78299124D01*
X143634358Y-78299119D01*
X143689505Y-78132697D01*
X143689506Y-78132690D01*
X143699999Y-78029986D01*
X143700000Y-78029973D01*
X143700000Y-77880000D01*
X142750000Y-77880000D01*
X142750000Y-78729999D01*
X142249999Y-78729999D01*
X142250000Y-78729998D01*
X142250000Y-77880000D01*
X141300001Y-77880000D01*
X141300001Y-78029986D01*
X140637867Y-78029986D01*
X140683596Y-77907379D01*
X140683598Y-77907372D01*
X140689999Y-77847844D01*
X140690000Y-77847827D01*
X140690000Y-77450000D01*
X139440000Y-77450000D01*
X139440000Y-78300000D01*
X138940000Y-78300000D01*
X138940000Y-77324000D01*
X138959685Y-77256961D01*
X139012489Y-77211206D01*
X139064000Y-77200000D01*
X139190000Y-77200000D01*
X139190000Y-77074000D01*
X139209685Y-77006961D01*
X139262489Y-76961206D01*
X139314000Y-76950000D01*
X140690000Y-76950000D01*
X140690000Y-76552172D01*
X140689999Y-76552155D01*
X140683598Y-76492627D01*
X140683596Y-76492620D01*
X140633354Y-76357913D01*
X140633352Y-76357910D01*
X140574139Y-76278812D01*
X140549721Y-76213347D01*
X140564572Y-76145074D01*
X140613977Y-76095668D01*
X140673405Y-76080500D01*
X141467209Y-76080500D01*
X141534248Y-76100185D01*
X141580003Y-76152989D01*
X141583391Y-76161167D01*
X141606202Y-76222328D01*
X141606206Y-76222335D01*
X141692452Y-76337544D01*
X141692455Y-76337547D01*
X141753841Y-76383501D01*
X141795712Y-76439435D01*
X141800696Y-76509126D01*
X141767210Y-76570449D01*
X141736910Y-76591664D01*
X141737025Y-76591851D01*
X141733831Y-76593820D01*
X141731936Y-76595148D01*
X141730885Y-76595637D01*
X141581654Y-76687684D01*
X141457684Y-76811654D01*
X141365643Y-76960875D01*
X141365641Y-76960880D01*
X141310494Y-77127302D01*
X141310493Y-77127309D01*
X141300000Y-77230013D01*
X141300000Y-77380000D01*
X143699999Y-77380000D01*
X143699999Y-77230028D01*
X143699998Y-77230013D01*
X143689505Y-77127302D01*
X143634358Y-76960880D01*
X143634356Y-76960875D01*
X143542315Y-76811654D01*
X143418345Y-76687684D01*
X143269121Y-76595642D01*
X143268068Y-76595151D01*
X143267466Y-76594621D01*
X143262975Y-76591851D01*
X143263448Y-76591083D01*
X143215627Y-76548981D01*
X143196473Y-76481788D01*
X143216686Y-76414906D01*
X143246154Y-76383503D01*
X143307546Y-76337546D01*
X143393796Y-76222331D01*
X143444091Y-76087483D01*
X143450500Y-76027873D01*
X143450499Y-75232128D01*
X143444091Y-75172517D01*
X143439353Y-75159815D01*
X143393797Y-75037671D01*
X143393793Y-75037664D01*
X143307547Y-74922455D01*
X143307544Y-74922452D01*
X143192335Y-74836206D01*
X143192328Y-74836202D01*
X143057482Y-74785908D01*
X143057483Y-74785908D01*
X142997883Y-74779501D01*
X142997881Y-74779500D01*
X142997873Y-74779500D01*
X142997864Y-74779500D01*
X142002129Y-74779500D01*
X142002123Y-74779501D01*
X141942516Y-74785908D01*
X141807671Y-74836202D01*
X141807664Y-74836206D01*
X141692455Y-74922452D01*
X141692452Y-74922455D01*
X141606206Y-75037664D01*
X141606202Y-75037671D01*
X141583391Y-75098833D01*
X141541520Y-75154767D01*
X141476056Y-75179184D01*
X141467209Y-75179500D01*
X140564500Y-75179500D01*
X140497461Y-75159815D01*
X140451706Y-75107011D01*
X140440500Y-75055500D01*
X140440500Y-74575323D01*
X140440499Y-74575321D01*
X140425967Y-74502264D01*
X140425966Y-74502260D01*
X140416159Y-74487583D01*
X140370601Y-74419399D01*
X140287740Y-74364034D01*
X140287739Y-74364033D01*
X140287735Y-74364032D01*
X140214677Y-74349500D01*
X140214674Y-74349500D01*
X138165326Y-74349500D01*
X138098690Y-74362754D01*
X138077705Y-74360875D01*
X138056853Y-74363874D01*
X138043603Y-74357823D01*
X138029098Y-74356525D01*
X138012461Y-74343601D01*
X137993297Y-74334849D01*
X137985422Y-74322596D01*
X137973922Y-74313662D01*
X137966913Y-74293795D01*
X137955523Y-74276071D01*
X137951988Y-74251485D01*
X137950678Y-74247772D01*
X137950500Y-74241136D01*
X137950500Y-74158863D01*
X137970185Y-74091824D01*
X138022989Y-74046069D01*
X138092147Y-74036125D01*
X138098691Y-74037246D01*
X138165321Y-74050499D01*
X138165324Y-74050500D01*
X138165326Y-74050500D01*
X140214676Y-74050500D01*
X140214677Y-74050499D01*
X140287740Y-74035966D01*
X140370601Y-73980601D01*
X140425966Y-73897740D01*
X140440500Y-73824674D01*
X140440500Y-73704500D01*
X140460185Y-73637461D01*
X140512989Y-73591706D01*
X140564500Y-73580500D01*
X141433023Y-73580500D01*
X141500062Y-73600185D01*
X141545817Y-73652989D01*
X141553266Y-73680134D01*
X141554124Y-73679932D01*
X141555907Y-73687479D01*
X141606202Y-73822328D01*
X141606206Y-73822335D01*
X141692452Y-73937544D01*
X141692455Y-73937547D01*
X141807664Y-74023793D01*
X141807671Y-74023797D01*
X141942517Y-74074091D01*
X141942516Y-74074091D01*
X141949444Y-74074835D01*
X142002127Y-74080500D01*
X142797872Y-74080499D01*
X142857483Y-74074091D01*
X142992331Y-74023796D01*
X143107546Y-73937546D01*
X143193796Y-73822331D01*
X143244091Y-73687483D01*
X143250500Y-73627873D01*
X143250499Y-72632128D01*
X143244393Y-72575323D01*
X143244091Y-72572516D01*
X143193797Y-72437671D01*
X143193793Y-72437664D01*
X143107547Y-72322455D01*
X143107544Y-72322452D01*
X142992335Y-72236206D01*
X142992328Y-72236202D01*
X142857482Y-72185908D01*
X142857483Y-72185908D01*
X142797883Y-72179501D01*
X142797881Y-72179500D01*
X142797873Y-72179500D01*
X142797864Y-72179500D01*
X142002129Y-72179500D01*
X142002123Y-72179501D01*
X141942516Y-72185908D01*
X141807671Y-72236202D01*
X141807664Y-72236206D01*
X141692455Y-72322452D01*
X141692452Y-72322455D01*
X141606206Y-72437664D01*
X141606202Y-72437671D01*
X141555908Y-72572517D01*
X141554126Y-72580062D01*
X141551853Y-72579525D01*
X141529571Y-72633312D01*
X141472177Y-72673157D01*
X141433024Y-72679500D01*
X140562986Y-72679500D01*
X140495947Y-72659815D01*
X140450192Y-72607011D01*
X140441369Y-72579692D01*
X140425967Y-72502263D01*
X140425966Y-72502260D01*
X140370601Y-72419399D01*
X140287740Y-72364034D01*
X140287739Y-72364033D01*
X140287735Y-72364032D01*
X140214677Y-72349500D01*
X140214674Y-72349500D01*
X138165326Y-72349500D01*
X138098690Y-72362754D01*
X138077705Y-72360875D01*
X138056853Y-72363874D01*
X138043603Y-72357823D01*
X138029098Y-72356525D01*
X138012461Y-72343601D01*
X137993297Y-72334849D01*
X137985422Y-72322596D01*
X137973922Y-72313662D01*
X137966913Y-72293795D01*
X137955523Y-72276071D01*
X137951988Y-72251485D01*
X137950678Y-72247772D01*
X137950500Y-72241136D01*
X137950500Y-72158863D01*
X137970185Y-72091824D01*
X138022989Y-72046069D01*
X138092147Y-72036125D01*
X138098691Y-72037246D01*
X138165321Y-72050499D01*
X138165324Y-72050500D01*
X138165326Y-72050500D01*
X140214676Y-72050500D01*
X140214677Y-72050499D01*
X140287740Y-72035966D01*
X140370601Y-71980601D01*
X140425966Y-71897740D01*
X140440500Y-71824674D01*
X140440500Y-71204500D01*
X140460185Y-71137461D01*
X140512989Y-71091706D01*
X140564500Y-71080500D01*
X141467209Y-71080500D01*
X141534248Y-71100185D01*
X141580003Y-71152989D01*
X141583391Y-71161167D01*
X141606202Y-71222328D01*
X141606206Y-71222335D01*
X141692452Y-71337544D01*
X141692455Y-71337547D01*
X141807664Y-71423793D01*
X141807671Y-71423797D01*
X141942517Y-71474091D01*
X141942516Y-71474091D01*
X141949444Y-71474835D01*
X142002127Y-71480500D01*
X142997872Y-71480499D01*
X143057483Y-71474091D01*
X143192331Y-71423796D01*
X143307546Y-71337546D01*
X143393796Y-71222331D01*
X143416609Y-71161167D01*
X143458480Y-71105233D01*
X143523944Y-71080816D01*
X143532791Y-71080500D01*
X144167209Y-71080500D01*
X144234248Y-71100185D01*
X144280003Y-71152989D01*
X144283391Y-71161167D01*
X144306202Y-71222328D01*
X144306206Y-71222335D01*
X144392452Y-71337544D01*
X144392455Y-71337547D01*
X144507664Y-71423793D01*
X144507671Y-71423797D01*
X144552618Y-71440561D01*
X144642517Y-71474091D01*
X144702127Y-71480500D01*
X145140615Y-71480499D01*
X145207653Y-71500183D01*
X145253408Y-71552987D01*
X145263352Y-71622146D01*
X145234327Y-71685702D01*
X145228295Y-71692180D01*
X144777294Y-72143181D01*
X144715971Y-72176666D01*
X144689613Y-72179500D01*
X144002129Y-72179500D01*
X144002123Y-72179501D01*
X143942516Y-72185908D01*
X143807671Y-72236202D01*
X143807664Y-72236206D01*
X143692455Y-72322452D01*
X143692452Y-72322455D01*
X143606206Y-72437664D01*
X143606202Y-72437671D01*
X143555908Y-72572517D01*
X143549501Y-72632116D01*
X143549501Y-72632123D01*
X143549500Y-72632135D01*
X143549500Y-73627870D01*
X143549501Y-73627876D01*
X143555908Y-73687483D01*
X143606202Y-73822328D01*
X143606203Y-73822329D01*
X143606204Y-73822331D01*
X143692452Y-73937543D01*
X143692455Y-73937547D01*
X143749810Y-73980482D01*
X143752546Y-73984137D01*
X143756703Y-73986036D01*
X143773293Y-74011851D01*
X143791682Y-74036415D01*
X143792697Y-74042045D01*
X143794477Y-74044814D01*
X143799500Y-74079749D01*
X143799500Y-74313330D01*
X143799499Y-74313348D01*
X143799499Y-74479054D01*
X143799498Y-74479054D01*
X143805716Y-74502260D01*
X143838739Y-74625502D01*
X143840424Y-74631787D01*
X143856432Y-74659513D01*
X143856433Y-74659515D01*
X143919477Y-74768712D01*
X143919481Y-74768717D01*
X144038349Y-74887585D01*
X144038355Y-74887590D01*
X145315139Y-76164374D01*
X145315149Y-76164385D01*
X145319479Y-76168715D01*
X145319480Y-76168716D01*
X145431284Y-76280520D01*
X145431286Y-76280521D01*
X145431290Y-76280524D01*
X145482786Y-76310255D01*
X145482789Y-76310256D01*
X145504145Y-76322586D01*
X145568209Y-76359574D01*
X145568210Y-76359575D01*
X145568212Y-76359575D01*
X145568215Y-76359577D01*
X145720943Y-76400501D01*
X145720946Y-76400501D01*
X145886653Y-76400501D01*
X145886669Y-76400500D01*
X146225233Y-76400500D01*
X146272685Y-76409939D01*
X146284112Y-76414672D01*
X146310256Y-76425501D01*
X146310260Y-76425501D01*
X146310261Y-76425502D01*
X146435928Y-76450500D01*
X146435931Y-76450500D01*
X146564071Y-76450500D01*
X146648615Y-76433682D01*
X146689744Y-76425501D01*
X146715895Y-76414669D01*
X146727315Y-76409939D01*
X146774767Y-76400500D01*
X148704055Y-76400500D01*
X148704057Y-76400500D01*
X148856784Y-76359577D01*
X148856785Y-76359576D01*
X148864635Y-76357473D01*
X148864820Y-76358165D01*
X148903365Y-76350499D01*
X149281517Y-76350499D01*
X149281518Y-76350499D01*
X149375304Y-76335646D01*
X149488342Y-76278050D01*
X149578050Y-76188342D01*
X149635646Y-76075304D01*
X149635646Y-76075302D01*
X149635647Y-76075301D01*
X149650499Y-75981524D01*
X149650500Y-75981519D01*
X149650499Y-75618482D01*
X149635646Y-75524696D01*
X149578050Y-75411658D01*
X149554072Y-75387680D01*
X149520588Y-75326360D01*
X149525572Y-75256668D01*
X149554072Y-75212319D01*
X149578050Y-75188342D01*
X149635646Y-75075304D01*
X149643240Y-75027352D01*
X149673167Y-74964220D01*
X149678012Y-74959090D01*
X149950286Y-74686818D01*
X150011610Y-74653334D01*
X150037967Y-74650500D01*
X150064071Y-74650500D01*
X150158153Y-74631785D01*
X150189744Y-74625501D01*
X150308127Y-74576465D01*
X150308132Y-74576461D01*
X150308135Y-74576460D01*
X150356608Y-74544071D01*
X150423285Y-74523192D01*
X150490665Y-74541676D01*
X150537356Y-74593654D01*
X150549500Y-74647172D01*
X150549500Y-79132981D01*
X150529815Y-79200020D01*
X150477011Y-79245775D01*
X150449692Y-79254598D01*
X150402263Y-79264032D01*
X150402260Y-79264033D01*
X150319399Y-79319399D01*
X150264033Y-79402260D01*
X150264032Y-79402264D01*
X150249500Y-79475321D01*
X150249500Y-80774678D01*
X150264032Y-80847735D01*
X150264033Y-80847739D01*
X150264034Y-80847740D01*
X150319399Y-80930601D01*
X150402260Y-80985966D01*
X150402264Y-80985967D01*
X150475321Y-81000499D01*
X150475324Y-81000500D01*
X150475326Y-81000500D01*
X151524676Y-81000500D01*
X151524677Y-81000499D01*
X151597740Y-80985966D01*
X151680601Y-80930601D01*
X151735966Y-80847740D01*
X151750500Y-80774674D01*
X151750500Y-79475326D01*
X151750500Y-79475323D01*
X151750499Y-79475321D01*
X151735967Y-79402264D01*
X151735966Y-79402260D01*
X151680601Y-79319399D01*
X151625235Y-79282405D01*
X151597739Y-79264033D01*
X151597736Y-79264032D01*
X151550308Y-79254598D01*
X151488397Y-79222212D01*
X151453823Y-79161496D01*
X151450500Y-79132981D01*
X151450500Y-78013769D01*
X151470185Y-77946730D01*
X151522989Y-77900975D01*
X151592147Y-77891031D01*
X151617833Y-77897587D01*
X151742517Y-77944091D01*
X151742516Y-77944091D01*
X151749444Y-77944835D01*
X151802127Y-77950500D01*
X153197872Y-77950499D01*
X153257483Y-77944091D01*
X153392331Y-77893796D01*
X153507546Y-77807546D01*
X153593796Y-77692331D01*
X153644091Y-77557483D01*
X153650500Y-77497873D01*
X153650499Y-76702128D01*
X153644091Y-76642517D01*
X153637744Y-76625501D01*
X153593797Y-76507671D01*
X153593793Y-76507664D01*
X153507547Y-76392455D01*
X153507544Y-76392452D01*
X153392335Y-76306206D01*
X153392328Y-76306202D01*
X153257482Y-76255908D01*
X153257483Y-76255908D01*
X153197883Y-76249501D01*
X153197881Y-76249500D01*
X153197873Y-76249500D01*
X153197864Y-76249500D01*
X151802129Y-76249500D01*
X151802123Y-76249501D01*
X151742515Y-76255909D01*
X151617832Y-76302412D01*
X151548141Y-76307396D01*
X151486818Y-76273910D01*
X151453334Y-76212587D01*
X151450500Y-76186230D01*
X151450500Y-72413769D01*
X151470185Y-72346730D01*
X151522989Y-72300975D01*
X151592147Y-72291031D01*
X151617833Y-72297587D01*
X151742517Y-72344091D01*
X151742516Y-72344091D01*
X151749444Y-72344835D01*
X151802127Y-72350500D01*
X153197872Y-72350499D01*
X153257483Y-72344091D01*
X153392331Y-72293796D01*
X153507546Y-72207546D01*
X153593796Y-72092331D01*
X153644091Y-71957483D01*
X153650500Y-71897873D01*
X153650499Y-71102128D01*
X153644091Y-71042517D01*
X153593796Y-70907669D01*
X153593795Y-70907668D01*
X153593793Y-70907664D01*
X153507547Y-70792455D01*
X153507544Y-70792452D01*
X153392335Y-70706206D01*
X153392328Y-70706202D01*
X153257482Y-70655908D01*
X153257483Y-70655908D01*
X153197883Y-70649501D01*
X153197881Y-70649500D01*
X153197873Y-70649500D01*
X153197864Y-70649500D01*
X151802129Y-70649500D01*
X151802123Y-70649501D01*
X151742516Y-70655908D01*
X151607671Y-70706202D01*
X151607664Y-70706206D01*
X151492455Y-70792452D01*
X151492452Y-70792455D01*
X151406206Y-70907664D01*
X151406202Y-70907671D01*
X151355908Y-71042517D01*
X151351825Y-71080500D01*
X151349501Y-71102123D01*
X151349500Y-71102135D01*
X151349500Y-71105618D01*
X151329815Y-71172657D01*
X151277011Y-71218412D01*
X151207853Y-71228356D01*
X151144297Y-71199331D01*
X151137819Y-71193299D01*
X145789032Y-65844513D01*
X145789030Y-65844511D01*
X145735138Y-65813396D01*
X145686301Y-65785199D01*
X145654252Y-65776613D01*
X145599842Y-65762034D01*
X145571725Y-65754500D01*
X145571724Y-65754500D01*
X143583129Y-65754500D01*
X143516090Y-65734815D01*
X143470335Y-65682011D01*
X143466947Y-65673833D01*
X143448797Y-65625171D01*
X143448793Y-65625164D01*
X143362547Y-65509955D01*
X143362544Y-65509952D01*
X143247335Y-65423706D01*
X143247329Y-65423703D01*
X143227529Y-65416318D01*
X143171596Y-65374446D01*
X143147179Y-65308982D01*
X143162031Y-65240709D01*
X143211437Y-65191304D01*
X143231860Y-65182430D01*
X143324117Y-65151859D01*
X143324124Y-65151856D01*
X143473345Y-65059815D01*
X143597315Y-64935845D01*
X143689356Y-64786624D01*
X143689358Y-64786619D01*
X143744505Y-64620197D01*
X143744506Y-64620190D01*
X143754999Y-64517486D01*
X143755000Y-64517473D01*
X143755000Y-64380000D01*
X142654000Y-64380000D01*
X142586961Y-64360315D01*
X142541206Y-64307511D01*
X142530000Y-64256000D01*
X142530000Y-64130000D01*
X142404000Y-64130000D01*
X142336961Y-64110315D01*
X142291206Y-64057511D01*
X142280000Y-64006000D01*
X142280000Y-63880000D01*
X142780000Y-63880000D01*
X143754999Y-63880000D01*
X143754999Y-63742528D01*
X143754998Y-63742513D01*
X143744505Y-63639802D01*
X143689358Y-63473380D01*
X143689356Y-63473375D01*
X143597315Y-63324154D01*
X143473345Y-63200184D01*
X143324124Y-63108143D01*
X143324119Y-63108141D01*
X143157697Y-63052994D01*
X143157690Y-63052993D01*
X143054986Y-63042500D01*
X142780000Y-63042500D01*
X142780000Y-63880000D01*
X142280000Y-63880000D01*
X142280000Y-63042500D01*
X142005029Y-63042500D01*
X142005012Y-63042501D01*
X141902302Y-63052994D01*
X141735880Y-63108141D01*
X141735875Y-63108143D01*
X141586654Y-63200184D01*
X141462684Y-63324154D01*
X141370643Y-63473375D01*
X141370641Y-63473380D01*
X141315494Y-63639802D01*
X141315493Y-63639809D01*
X141305000Y-63742513D01*
X141305000Y-63978535D01*
X141285315Y-64045574D01*
X141232511Y-64091329D01*
X141163353Y-64101273D01*
X141099797Y-64072248D01*
X141093319Y-64066216D01*
X140476819Y-63449716D01*
X140443334Y-63388393D01*
X140440500Y-63362035D01*
X140440500Y-62624500D01*
X140460185Y-62557461D01*
X140512989Y-62511706D01*
X140564500Y-62500500D01*
X150434108Y-62500500D01*
X150496949Y-62500500D01*
X150503032Y-62500648D01*
X150836929Y-62517052D01*
X150849037Y-62518245D01*
X150862116Y-62520185D01*
X151176699Y-62566849D01*
X151188617Y-62569219D01*
X151509951Y-62649709D01*
X151521588Y-62653240D01*
X151562370Y-62667832D01*
X151833467Y-62764832D01*
X151844688Y-62769479D01*
X152144163Y-62911120D01*
X152154871Y-62916844D01*
X152438988Y-63087137D01*
X152449103Y-63093895D01*
X152631294Y-63229017D01*
X152715170Y-63291224D01*
X152724576Y-63298944D01*
X152970013Y-63521395D01*
X152978604Y-63529986D01*
X153078142Y-63639809D01*
X153201055Y-63775423D01*
X153208775Y-63784829D01*
X153406102Y-64050893D01*
X153412862Y-64061011D01*
X153431637Y-64092335D01*
X153582533Y-64344091D01*
X153583148Y-64345116D01*
X153588883Y-64355844D01*
X153727772Y-64649501D01*
X153730514Y-64655297D01*
X153735170Y-64666540D01*
X153846759Y-64978411D01*
X153850292Y-64990055D01*
X153930777Y-65311369D01*
X153933151Y-65323305D01*
X153981754Y-65650962D01*
X153982947Y-65663071D01*
X153999351Y-65996966D01*
X153999500Y-66003051D01*
X153999500Y-93496948D01*
X153999351Y-93503033D01*
X153982947Y-93836928D01*
X153981754Y-93849037D01*
X153933151Y-94176694D01*
X153930777Y-94188630D01*
X153850292Y-94509944D01*
X153846759Y-94521588D01*
X153735170Y-94833459D01*
X153730514Y-94844702D01*
X153588885Y-95144151D01*
X153583148Y-95154883D01*
X153412862Y-95438988D01*
X153406102Y-95449106D01*
X153208775Y-95715170D01*
X153201055Y-95724576D01*
X152978611Y-95970006D01*
X152970006Y-95978611D01*
X152724576Y-96201055D01*
X152715170Y-96208775D01*
X152449106Y-96406102D01*
X152438988Y-96412862D01*
X152154883Y-96583148D01*
X152144151Y-96588885D01*
X151844702Y-96730514D01*
X151833459Y-96735170D01*
X151521588Y-96846759D01*
X151509944Y-96850292D01*
X151188630Y-96930777D01*
X151176695Y-96933151D01*
X150849039Y-96981754D01*
X150836928Y-96982947D01*
X150503048Y-96999349D01*
X150496939Y-96999498D01*
X146007194Y-96998600D01*
X145940159Y-96978902D01*
X145894414Y-96926089D01*
X145884485Y-96856928D01*
X145891038Y-96831265D01*
X145918596Y-96757380D01*
X145918598Y-96757372D01*
X145924999Y-96697844D01*
X145925000Y-96697827D01*
X145925000Y-96250000D01*
X141775000Y-96250000D01*
X141775000Y-96873729D01*
X141772445Y-96882428D01*
X141773734Y-96891402D01*
X141762755Y-96915428D01*
X141755315Y-96940768D01*
X141748464Y-96946703D01*
X141744696Y-96954952D01*
X141722466Y-96969231D01*
X141702511Y-96986523D01*
X141691984Y-96988811D01*
X141685910Y-96992714D01*
X141650974Y-96997729D01*
X141598974Y-96997718D01*
X141531938Y-96978019D01*
X141486195Y-96925206D01*
X141475000Y-96873718D01*
X141475000Y-96250000D01*
X136525000Y-96250000D01*
X136525000Y-96697844D01*
X136531401Y-96757372D01*
X136531403Y-96757379D01*
X136558248Y-96829354D01*
X136563232Y-96899045D01*
X136529747Y-96960368D01*
X136468424Y-96993853D01*
X136442041Y-96996687D01*
X133840273Y-96996167D01*
X133773238Y-96976469D01*
X133727493Y-96923656D01*
X133717564Y-96854495D01*
X133746601Y-96790946D01*
X133752617Y-96784486D01*
X133950284Y-96586818D01*
X134011607Y-96553333D01*
X134037965Y-96550499D01*
X134997871Y-96550499D01*
X134997872Y-96550499D01*
X135057483Y-96544091D01*
X135192331Y-96493796D01*
X135307546Y-96407546D01*
X135393796Y-96292331D01*
X135444091Y-96157483D01*
X135450500Y-96097873D01*
X135450499Y-94902128D01*
X135444091Y-94842517D01*
X135444066Y-94842451D01*
X135393797Y-94707671D01*
X135393793Y-94707664D01*
X135307547Y-94592455D01*
X135307544Y-94592452D01*
X135192335Y-94506206D01*
X135192328Y-94506202D01*
X135057482Y-94455908D01*
X135057483Y-94455908D01*
X134997883Y-94449501D01*
X134997881Y-94449500D01*
X134997873Y-94449500D01*
X134997864Y-94449500D01*
X133802129Y-94449500D01*
X133802123Y-94449501D01*
X133742516Y-94455908D01*
X133607671Y-94506202D01*
X133607664Y-94506206D01*
X133492455Y-94592452D01*
X133492452Y-94592455D01*
X133406206Y-94707664D01*
X133406202Y-94707671D01*
X133355908Y-94842517D01*
X133349782Y-94899500D01*
X133349501Y-94902123D01*
X133349500Y-94902135D01*
X133349500Y-95862033D01*
X133340856Y-95891469D01*
X133334333Y-95921459D01*
X133330577Y-95926476D01*
X133329815Y-95929072D01*
X133313182Y-95949714D01*
X133223716Y-96039181D01*
X133162393Y-96072666D01*
X133136034Y-96075500D01*
X131524338Y-96075500D01*
X131457299Y-96055815D01*
X131411544Y-96003011D01*
X131401600Y-95933853D01*
X131430625Y-95870297D01*
X131481005Y-95835318D01*
X131592328Y-95793797D01*
X131592327Y-95793797D01*
X131592331Y-95793796D01*
X131707546Y-95707546D01*
X131734227Y-95671903D01*
X131750485Y-95650188D01*
X131754140Y-95647451D01*
X131756038Y-95643297D01*
X131781855Y-95626705D01*
X131806419Y-95608318D01*
X131812046Y-95607302D01*
X131814816Y-95605523D01*
X131849751Y-95600500D01*
X131913331Y-95600500D01*
X131913347Y-95600501D01*
X131920943Y-95600501D01*
X132079054Y-95600501D01*
X132079057Y-95600501D01*
X132231785Y-95559577D01*
X132281904Y-95530639D01*
X132368716Y-95480520D01*
X132480520Y-95368716D01*
X132480521Y-95368714D01*
X132730329Y-95118904D01*
X132770554Y-95092027D01*
X132808127Y-95076465D01*
X132914669Y-95005276D01*
X133005276Y-94914669D01*
X133076465Y-94808127D01*
X133125501Y-94689744D01*
X133135357Y-94640198D01*
X133150500Y-94564071D01*
X133150500Y-94435928D01*
X133125502Y-94310261D01*
X133125501Y-94310260D01*
X133125501Y-94310256D01*
X133076465Y-94191873D01*
X133076464Y-94191872D01*
X133076461Y-94191866D01*
X133044071Y-94143391D01*
X133023193Y-94076713D01*
X133041678Y-94009333D01*
X133093656Y-93962643D01*
X133147173Y-93950500D01*
X133479192Y-93950500D01*
X133546231Y-93970185D01*
X133566873Y-93986819D01*
X133585327Y-94005273D01*
X133585331Y-94005276D01*
X133691866Y-94076461D01*
X133691875Y-94076466D01*
X133713277Y-94085331D01*
X133810256Y-94125501D01*
X133810260Y-94125501D01*
X133810261Y-94125502D01*
X133935928Y-94150500D01*
X133935931Y-94150500D01*
X134064071Y-94150500D01*
X134148615Y-94133682D01*
X134189744Y-94125501D01*
X134308127Y-94076465D01*
X134414669Y-94005276D01*
X134505276Y-93914669D01*
X134576465Y-93808127D01*
X134625501Y-93689744D01*
X134637423Y-93629810D01*
X134650500Y-93564071D01*
X134650500Y-93435928D01*
X134625502Y-93310261D01*
X134625501Y-93310260D01*
X134625501Y-93310256D01*
X134576465Y-93191873D01*
X134576464Y-93191872D01*
X134576461Y-93191866D01*
X134528644Y-93120303D01*
X134507766Y-93053625D01*
X134526251Y-92986245D01*
X134578229Y-92939555D01*
X134607547Y-92929796D01*
X134706420Y-92910130D01*
X134897598Y-92830941D01*
X135069655Y-92715977D01*
X135183477Y-92602155D01*
X137525000Y-92602155D01*
X137525000Y-93175000D01*
X138487500Y-93175000D01*
X138487500Y-92150000D01*
X137977155Y-92150000D01*
X137917627Y-92156401D01*
X137917620Y-92156403D01*
X137782913Y-92206645D01*
X137782906Y-92206649D01*
X137667812Y-92292809D01*
X137667809Y-92292812D01*
X137581649Y-92407906D01*
X137581645Y-92407913D01*
X137531403Y-92542620D01*
X137531401Y-92542627D01*
X137525000Y-92602155D01*
X135183477Y-92602155D01*
X135215977Y-92569655D01*
X135330941Y-92397598D01*
X135410130Y-92206420D01*
X135450500Y-92003465D01*
X135450500Y-91796535D01*
X135410130Y-91593580D01*
X135330941Y-91402402D01*
X135290842Y-91342390D01*
X135269965Y-91275713D01*
X135288450Y-91208333D01*
X135340429Y-91161643D01*
X135393945Y-91149500D01*
X138136035Y-91149500D01*
X138203074Y-91169185D01*
X138223716Y-91185819D01*
X139000017Y-91962120D01*
X139033502Y-92023443D01*
X139028518Y-92093135D01*
X139000018Y-92137481D01*
X138987500Y-92149999D01*
X138987500Y-93301000D01*
X138967815Y-93368039D01*
X138915011Y-93413794D01*
X138863500Y-93425000D01*
X138737500Y-93425000D01*
X138737500Y-93551000D01*
X138717815Y-93618039D01*
X138665011Y-93663794D01*
X138613500Y-93675000D01*
X137525000Y-93675000D01*
X137525000Y-94247844D01*
X137531401Y-94307372D01*
X137531403Y-94307379D01*
X137581645Y-94442086D01*
X137581649Y-94442093D01*
X137667809Y-94557187D01*
X137667812Y-94557190D01*
X137760710Y-94626734D01*
X137802581Y-94682668D01*
X137807565Y-94752359D01*
X137774079Y-94813682D01*
X137712756Y-94847166D01*
X137686399Y-94850000D01*
X136977155Y-94850000D01*
X136917627Y-94856401D01*
X136917620Y-94856403D01*
X136782913Y-94906645D01*
X136782906Y-94906649D01*
X136667812Y-94992809D01*
X136667809Y-94992812D01*
X136581649Y-95107906D01*
X136581645Y-95107913D01*
X136531403Y-95242620D01*
X136531401Y-95242627D01*
X136525000Y-95302155D01*
X136525000Y-95750000D01*
X139825000Y-95750000D01*
X140325000Y-95750000D01*
X141475000Y-95750000D01*
X141475000Y-95002172D01*
X141474999Y-95002155D01*
X141468598Y-94942627D01*
X141468596Y-94942620D01*
X141418354Y-94807913D01*
X141418350Y-94807906D01*
X141332190Y-94692812D01*
X141332187Y-94692809D01*
X141217093Y-94606649D01*
X141217086Y-94606645D01*
X141082379Y-94556403D01*
X141082372Y-94556401D01*
X141022844Y-94550000D01*
X140325000Y-94550000D01*
X140325000Y-95750000D01*
X139825000Y-95750000D01*
X139825000Y-94538042D01*
X139826751Y-94532077D01*
X139825589Y-94525971D01*
X139836478Y-94498949D01*
X139844685Y-94471003D01*
X139849970Y-94465472D01*
X139851706Y-94461166D01*
X139875127Y-94439148D01*
X139877306Y-94436869D01*
X139901764Y-94419536D01*
X139923535Y-94361167D01*
X139965406Y-94305233D01*
X140030870Y-94280816D01*
X140039717Y-94280500D01*
X140174674Y-94280500D01*
X140225811Y-94270328D01*
X140242084Y-94270328D01*
X140250264Y-94267945D01*
X140258316Y-94270328D01*
X140274189Y-94270328D01*
X140325326Y-94280500D01*
X140824674Y-94280500D01*
X140875811Y-94270328D01*
X140924189Y-94270328D01*
X140975326Y-94280500D01*
X141474674Y-94280500D01*
X141525811Y-94270328D01*
X141574189Y-94270328D01*
X141625326Y-94280500D01*
X141800874Y-94280500D01*
X141867913Y-94300185D01*
X141888379Y-94316642D01*
X142015030Y-94442784D01*
X142027801Y-94466061D01*
X142043707Y-94487310D01*
X142044343Y-94496212D01*
X142048638Y-94504040D01*
X142046797Y-94530523D01*
X142048691Y-94557001D01*
X142044412Y-94564835D01*
X142043794Y-94573742D01*
X142027926Y-94595027D01*
X142015205Y-94618324D01*
X142002082Y-94629695D01*
X142002035Y-94629759D01*
X142001989Y-94629776D01*
X142001837Y-94629908D01*
X141917809Y-94692812D01*
X141831649Y-94807906D01*
X141831645Y-94807913D01*
X141781403Y-94942620D01*
X141781401Y-94942627D01*
X141775000Y-95002155D01*
X141775000Y-95750000D01*
X145925000Y-95750000D01*
X145925000Y-95302172D01*
X145924999Y-95302155D01*
X145918598Y-95242627D01*
X145918596Y-95242620D01*
X145868354Y-95107913D01*
X145868350Y-95107906D01*
X145782190Y-94992812D01*
X145782187Y-94992809D01*
X145667093Y-94906649D01*
X145667086Y-94906645D01*
X145532379Y-94856403D01*
X145532372Y-94856401D01*
X145472844Y-94850000D01*
X144763601Y-94850000D01*
X144696562Y-94830315D01*
X144650807Y-94777511D01*
X144640863Y-94708353D01*
X144669888Y-94644797D01*
X144689290Y-94626734D01*
X144782187Y-94557190D01*
X144782190Y-94557187D01*
X144868350Y-94442093D01*
X144868354Y-94442086D01*
X144918596Y-94307379D01*
X144918598Y-94307372D01*
X144924999Y-94247844D01*
X144925000Y-94247827D01*
X144925000Y-93675000D01*
X143836500Y-93675000D01*
X143769461Y-93655315D01*
X143723706Y-93602511D01*
X143712500Y-93551000D01*
X143712500Y-93425000D01*
X143586500Y-93425000D01*
X143519461Y-93405315D01*
X143473706Y-93352511D01*
X143462500Y-93301000D01*
X143462500Y-93175000D01*
X143962500Y-93175000D01*
X144925000Y-93175000D01*
X144925000Y-92602172D01*
X144924999Y-92602155D01*
X144918598Y-92542627D01*
X144918596Y-92542620D01*
X144868354Y-92407913D01*
X144868350Y-92407906D01*
X144782190Y-92292812D01*
X144782187Y-92292809D01*
X144667093Y-92206649D01*
X144667086Y-92206645D01*
X144532379Y-92156403D01*
X144532372Y-92156401D01*
X144472844Y-92150000D01*
X143962500Y-92150000D01*
X143962500Y-93175000D01*
X143462500Y-93175000D01*
X143462500Y-92150000D01*
X142952172Y-92150000D01*
X142952153Y-92150001D01*
X142888255Y-92156871D01*
X142861745Y-92156871D01*
X142797846Y-92150001D01*
X142797828Y-92150000D01*
X142750000Y-92150000D01*
X142750000Y-93216000D01*
X142747449Y-93224685D01*
X142748738Y-93233647D01*
X142737759Y-93257687D01*
X142730315Y-93283039D01*
X142723474Y-93288966D01*
X142719713Y-93297203D01*
X142697478Y-93311492D01*
X142677511Y-93328794D01*
X142666996Y-93331081D01*
X142660935Y-93334977D01*
X142626000Y-93340000D01*
X142474500Y-93340000D01*
X142407461Y-93320315D01*
X142361706Y-93267511D01*
X142350500Y-93216000D01*
X142350500Y-92625323D01*
X142335966Y-92552259D01*
X142320897Y-92529706D01*
X142300020Y-92463028D01*
X142300000Y-92460817D01*
X142300000Y-92150000D01*
X142252155Y-92150000D01*
X142192627Y-92156401D01*
X142192620Y-92156403D01*
X142057913Y-92206645D01*
X142057906Y-92206649D01*
X141942814Y-92292808D01*
X141942809Y-92292813D01*
X141900141Y-92349811D01*
X141844207Y-92391682D01*
X141800874Y-92399500D01*
X141625326Y-92399500D01*
X141574190Y-92409671D01*
X141525810Y-92409671D01*
X141474674Y-92399500D01*
X140975326Y-92399500D01*
X140924190Y-92409671D01*
X140875810Y-92409671D01*
X140824674Y-92399500D01*
X140499500Y-92399500D01*
X140432461Y-92379815D01*
X140386706Y-92327011D01*
X140375500Y-92275500D01*
X140375500Y-92190693D01*
X140375500Y-92190691D01*
X140344799Y-92076114D01*
X140344799Y-92076113D01*
X140285489Y-91973386D01*
X138650614Y-90338511D01*
X138585117Y-90300696D01*
X138547888Y-90279201D01*
X138535780Y-90275957D01*
X138523673Y-90272713D01*
X138523670Y-90272712D01*
X138485478Y-90262478D01*
X138433309Y-90248500D01*
X138433308Y-90248500D01*
X132812255Y-90248500D01*
X132745216Y-90228815D01*
X132699461Y-90176011D01*
X132689517Y-90106853D01*
X132718542Y-90043297D01*
X132724574Y-90036819D01*
X133874574Y-88886818D01*
X133935897Y-88853333D01*
X133962255Y-88850499D01*
X134439017Y-88850499D01*
X134439018Y-88850499D01*
X134532804Y-88835646D01*
X134645842Y-88778050D01*
X134702168Y-88721723D01*
X134763489Y-88688240D01*
X134833181Y-88693224D01*
X134889115Y-88735095D01*
X134904409Y-88761953D01*
X134923533Y-88808124D01*
X134923538Y-88808133D01*
X134994723Y-88914668D01*
X134994726Y-88914672D01*
X135085327Y-89005273D01*
X135085331Y-89005276D01*
X135191866Y-89076461D01*
X135191875Y-89076466D01*
X135218692Y-89087574D01*
X135310256Y-89125501D01*
X135310260Y-89125501D01*
X135310261Y-89125502D01*
X135435928Y-89150500D01*
X135435931Y-89150500D01*
X135564071Y-89150500D01*
X135648615Y-89133682D01*
X135689744Y-89125501D01*
X135808127Y-89076465D01*
X135914669Y-89005276D01*
X135923197Y-88996748D01*
X135933127Y-88986819D01*
X135994450Y-88953334D01*
X136020808Y-88950500D01*
X136533023Y-88950500D01*
X136600062Y-88970185D01*
X136645817Y-89022989D01*
X136653266Y-89050134D01*
X136654124Y-89049932D01*
X136655907Y-89057479D01*
X136706202Y-89192328D01*
X136706206Y-89192335D01*
X136792452Y-89307544D01*
X136792455Y-89307547D01*
X136907664Y-89393793D01*
X136907671Y-89393797D01*
X137042517Y-89444091D01*
X137042516Y-89444091D01*
X137049444Y-89444835D01*
X137102127Y-89450500D01*
X137897872Y-89450499D01*
X137957483Y-89444091D01*
X138092331Y-89393796D01*
X138207546Y-89307546D01*
X138293796Y-89192331D01*
X138344091Y-89057483D01*
X138350500Y-88997873D01*
X138350499Y-88002135D01*
X138649500Y-88002135D01*
X138649500Y-88997870D01*
X138649501Y-88997876D01*
X138655908Y-89057483D01*
X138706202Y-89192328D01*
X138706206Y-89192335D01*
X138792452Y-89307544D01*
X138792455Y-89307547D01*
X138907664Y-89393793D01*
X138907671Y-89393797D01*
X138922962Y-89399500D01*
X139042517Y-89444091D01*
X139102127Y-89450500D01*
X139762034Y-89450499D01*
X139829073Y-89470183D01*
X139849715Y-89486818D01*
X140223387Y-89860490D01*
X140292687Y-89900500D01*
X140326114Y-89919799D01*
X140440691Y-89950500D01*
X141471309Y-89950500D01*
X141538348Y-89970185D01*
X141574411Y-90005609D01*
X141684022Y-90169655D01*
X141830342Y-90315975D01*
X141830345Y-90315977D01*
X142002402Y-90430941D01*
X142193580Y-90510130D01*
X142396530Y-90550499D01*
X142396534Y-90550500D01*
X142396535Y-90550500D01*
X142603466Y-90550500D01*
X142603467Y-90550499D01*
X142806420Y-90510130D01*
X142997598Y-90430941D01*
X143169655Y-90315977D01*
X143315977Y-90169655D01*
X143362528Y-90099986D01*
X144800001Y-90099986D01*
X144810494Y-90202697D01*
X144865641Y-90369119D01*
X144865643Y-90369124D01*
X144957684Y-90518345D01*
X145081654Y-90642315D01*
X145230875Y-90734356D01*
X145230880Y-90734358D01*
X145397302Y-90789505D01*
X145397309Y-90789506D01*
X145500019Y-90799999D01*
X145849999Y-90799999D01*
X146350000Y-90799999D01*
X146699972Y-90799999D01*
X146699986Y-90799998D01*
X146802697Y-90789505D01*
X146969119Y-90734358D01*
X146969124Y-90734356D01*
X147118345Y-90642315D01*
X147242315Y-90518345D01*
X147334356Y-90369124D01*
X147334358Y-90369119D01*
X147389505Y-90202697D01*
X147389506Y-90202690D01*
X147399999Y-90099986D01*
X147400000Y-90099973D01*
X147400000Y-89750000D01*
X146350000Y-89750000D01*
X146350000Y-90799999D01*
X145849999Y-90799999D01*
X145850000Y-90799998D01*
X145850000Y-89750000D01*
X144800001Y-89750000D01*
X144800001Y-90099986D01*
X143362528Y-90099986D01*
X143430941Y-89997598D01*
X143510130Y-89806420D01*
X143550500Y-89603465D01*
X143550500Y-89460504D01*
X145800000Y-89460504D01*
X145800000Y-89539496D01*
X145820444Y-89615796D01*
X145859940Y-89684205D01*
X145915795Y-89740060D01*
X145984204Y-89779556D01*
X146060504Y-89800000D01*
X146139496Y-89800000D01*
X146215796Y-89779556D01*
X146284205Y-89740060D01*
X146340060Y-89684205D01*
X146379556Y-89615796D01*
X146400000Y-89539496D01*
X146400000Y-89460504D01*
X146379556Y-89384204D01*
X146340060Y-89315795D01*
X146284205Y-89259940D01*
X146266988Y-89250000D01*
X146350000Y-89250000D01*
X147399999Y-89250000D01*
X147399999Y-88900028D01*
X147399998Y-88900013D01*
X147389505Y-88797302D01*
X147334358Y-88630880D01*
X147334356Y-88630875D01*
X147283142Y-88547844D01*
X150000000Y-88547844D01*
X150006401Y-88607372D01*
X150006403Y-88607379D01*
X150056645Y-88742086D01*
X150056649Y-88742093D01*
X150142809Y-88857187D01*
X150142812Y-88857190D01*
X150257906Y-88943350D01*
X150257913Y-88943354D01*
X150392620Y-88993596D01*
X150392627Y-88993598D01*
X150452155Y-88999999D01*
X150452172Y-89000000D01*
X150750000Y-89000000D01*
X151250000Y-89000000D01*
X151547828Y-89000000D01*
X151547844Y-88999999D01*
X151607372Y-88993598D01*
X151607379Y-88993596D01*
X151742086Y-88943354D01*
X151742093Y-88943350D01*
X151857187Y-88857190D01*
X151857190Y-88857187D01*
X151943350Y-88742093D01*
X151943354Y-88742086D01*
X151993596Y-88607379D01*
X151993598Y-88607372D01*
X151999999Y-88547844D01*
X152000000Y-88547827D01*
X152000000Y-88125000D01*
X151250000Y-88125000D01*
X151250000Y-89000000D01*
X150750000Y-89000000D01*
X150750000Y-88125000D01*
X150000000Y-88125000D01*
X150000000Y-88547844D01*
X147283142Y-88547844D01*
X147242315Y-88481654D01*
X147118345Y-88357684D01*
X146969124Y-88265643D01*
X146969119Y-88265641D01*
X146802697Y-88210494D01*
X146802690Y-88210493D01*
X146699986Y-88200000D01*
X146350000Y-88200000D01*
X146350000Y-89250000D01*
X146266988Y-89250000D01*
X146215796Y-89220444D01*
X146139496Y-89200000D01*
X146060504Y-89200000D01*
X145984204Y-89220444D01*
X145915795Y-89259940D01*
X145859940Y-89315795D01*
X145820444Y-89384204D01*
X145800000Y-89460504D01*
X143550500Y-89460504D01*
X143550500Y-89396535D01*
X143510130Y-89193580D01*
X143430941Y-89002402D01*
X143420529Y-88986819D01*
X143406454Y-88965753D01*
X143362528Y-88900013D01*
X144800000Y-88900013D01*
X144800000Y-89250000D01*
X145850000Y-89250000D01*
X145850000Y-88200000D01*
X145500028Y-88200000D01*
X145500012Y-88200001D01*
X145397302Y-88210494D01*
X145230880Y-88265641D01*
X145230875Y-88265643D01*
X145081654Y-88357684D01*
X144957684Y-88481654D01*
X144865643Y-88630875D01*
X144865641Y-88630880D01*
X144810494Y-88797302D01*
X144810493Y-88797309D01*
X144800000Y-88900013D01*
X143362528Y-88900013D01*
X143315977Y-88830344D01*
X143169657Y-88684024D01*
X143070362Y-88617678D01*
X142997598Y-88569059D01*
X142990833Y-88566257D01*
X142806420Y-88489870D01*
X142806412Y-88489868D01*
X142603469Y-88449500D01*
X142603465Y-88449500D01*
X142396535Y-88449500D01*
X142396530Y-88449500D01*
X142193587Y-88489868D01*
X142193579Y-88489870D01*
X142002403Y-88569058D01*
X141830342Y-88684024D01*
X141684022Y-88830344D01*
X141574411Y-88994391D01*
X141520799Y-89039196D01*
X141471309Y-89049500D01*
X140737965Y-89049500D01*
X140670926Y-89029815D01*
X140650284Y-89013181D01*
X140386818Y-88749715D01*
X140353333Y-88688392D01*
X140350499Y-88662034D01*
X140350499Y-88002129D01*
X140350498Y-88002123D01*
X140350497Y-88002116D01*
X140344091Y-87942517D01*
X140337012Y-87923538D01*
X140293797Y-87807671D01*
X140293793Y-87807664D01*
X140207547Y-87692455D01*
X140207544Y-87692452D01*
X140092335Y-87606206D01*
X140092328Y-87606202D01*
X139957482Y-87555908D01*
X139957483Y-87555908D01*
X139897883Y-87549501D01*
X139897881Y-87549500D01*
X139897873Y-87549500D01*
X139897864Y-87549500D01*
X139102129Y-87549500D01*
X139102123Y-87549501D01*
X139042516Y-87555908D01*
X138907671Y-87606202D01*
X138907664Y-87606206D01*
X138792455Y-87692452D01*
X138792452Y-87692455D01*
X138706206Y-87807664D01*
X138706202Y-87807671D01*
X138655908Y-87942517D01*
X138649501Y-88002116D01*
X138649501Y-88002123D01*
X138649500Y-88002135D01*
X138350499Y-88002135D01*
X138350499Y-88002128D01*
X138344091Y-87942517D01*
X138337012Y-87923538D01*
X138293797Y-87807671D01*
X138293793Y-87807664D01*
X138207547Y-87692455D01*
X138207544Y-87692452D01*
X138092335Y-87606206D01*
X138092328Y-87606202D01*
X137957482Y-87555908D01*
X137957483Y-87555908D01*
X137897883Y-87549501D01*
X137897881Y-87549500D01*
X137897873Y-87549500D01*
X137897864Y-87549500D01*
X137102129Y-87549500D01*
X137102123Y-87549501D01*
X137042516Y-87555908D01*
X136907671Y-87606202D01*
X136907664Y-87606206D01*
X136792455Y-87692452D01*
X136792452Y-87692455D01*
X136706206Y-87807664D01*
X136706202Y-87807671D01*
X136655908Y-87942517D01*
X136654126Y-87950062D01*
X136651853Y-87949525D01*
X136629571Y-88003312D01*
X136572177Y-88043157D01*
X136533024Y-88049500D01*
X136020808Y-88049500D01*
X135953769Y-88029815D01*
X135933127Y-88013181D01*
X135914672Y-87994726D01*
X135914668Y-87994723D01*
X135808133Y-87923538D01*
X135808124Y-87923533D01*
X135689744Y-87874499D01*
X135689738Y-87874497D01*
X135564071Y-87849500D01*
X135564069Y-87849500D01*
X135435931Y-87849500D01*
X135435929Y-87849500D01*
X135310261Y-87874497D01*
X135310255Y-87874499D01*
X135191875Y-87923533D01*
X135191866Y-87923538D01*
X135085331Y-87994723D01*
X135000532Y-88079522D01*
X134939208Y-88113006D01*
X134869517Y-88108022D01*
X134813583Y-88066150D01*
X134803335Y-88049996D01*
X134794525Y-88033406D01*
X134793146Y-88024696D01*
X134735550Y-87911658D01*
X134723445Y-87899553D01*
X134714738Y-87883156D01*
X134711294Y-87866390D01*
X134703090Y-87851368D01*
X134704411Y-87832876D01*
X134700681Y-87814715D01*
X134706849Y-87798746D01*
X134708069Y-87781676D01*
X134721542Y-87760709D01*
X134725858Y-87749539D01*
X134730092Y-87746445D01*
X134729811Y-87746241D01*
X134735542Y-87738349D01*
X134735550Y-87738342D01*
X134793146Y-87625304D01*
X134793146Y-87625302D01*
X134793147Y-87625301D01*
X134807999Y-87531524D01*
X134808000Y-87531519D01*
X134807999Y-87168482D01*
X134793146Y-87074696D01*
X134735550Y-86961658D01*
X134735545Y-86961653D01*
X134729811Y-86953759D01*
X134731165Y-86952774D01*
X134703090Y-86901368D01*
X134708069Y-86831676D01*
X134730513Y-86796751D01*
X134729811Y-86796241D01*
X134735542Y-86788349D01*
X134735550Y-86788342D01*
X134793146Y-86675304D01*
X134793146Y-86675302D01*
X134793147Y-86675301D01*
X134807999Y-86581524D01*
X134808000Y-86581519D01*
X134807999Y-86527306D01*
X134827682Y-86460269D01*
X134880486Y-86414514D01*
X134949644Y-86404569D01*
X135013200Y-86433593D01*
X135019680Y-86439626D01*
X135085327Y-86505273D01*
X135085331Y-86505276D01*
X135191866Y-86576461D01*
X135191875Y-86576466D01*
X135204072Y-86581518D01*
X135310256Y-86625501D01*
X135310260Y-86625501D01*
X135310261Y-86625502D01*
X135435928Y-86650500D01*
X135435931Y-86650500D01*
X135564071Y-86650500D01*
X135648615Y-86633682D01*
X135689744Y-86625501D01*
X135808127Y-86576465D01*
X135914669Y-86505276D01*
X135922081Y-86497864D01*
X135933127Y-86486819D01*
X135994450Y-86453334D01*
X136020808Y-86450500D01*
X136533023Y-86450500D01*
X136600062Y-86470185D01*
X136645817Y-86522989D01*
X136653266Y-86550134D01*
X136654124Y-86549932D01*
X136655907Y-86557479D01*
X136706202Y-86692328D01*
X136706206Y-86692335D01*
X136792452Y-86807544D01*
X136792455Y-86807547D01*
X136907664Y-86893793D01*
X136907671Y-86893797D01*
X137042517Y-86944091D01*
X137042516Y-86944091D01*
X137049444Y-86944835D01*
X137102127Y-86950500D01*
X137897872Y-86950499D01*
X137957483Y-86944091D01*
X138092331Y-86893796D01*
X138207546Y-86807546D01*
X138293796Y-86692331D01*
X138344091Y-86557483D01*
X138350500Y-86497873D01*
X138350499Y-85502135D01*
X138649500Y-85502135D01*
X138649500Y-86497870D01*
X138649501Y-86497876D01*
X138655908Y-86557483D01*
X138706202Y-86692328D01*
X138706206Y-86692335D01*
X138792452Y-86807544D01*
X138792455Y-86807547D01*
X138907664Y-86893793D01*
X138907671Y-86893797D01*
X139042517Y-86944091D01*
X139042516Y-86944091D01*
X139049444Y-86944835D01*
X139102127Y-86950500D01*
X139897872Y-86950499D01*
X139906698Y-86949550D01*
X139936151Y-86949901D01*
X139940684Y-86950498D01*
X139940691Y-86950500D01*
X141471309Y-86950500D01*
X141538348Y-86970185D01*
X141574411Y-87005609D01*
X141684022Y-87169655D01*
X141830342Y-87315975D01*
X141830345Y-87315977D01*
X142002402Y-87430941D01*
X142193580Y-87510130D01*
X142372112Y-87545642D01*
X142396530Y-87550499D01*
X142396534Y-87550500D01*
X142396535Y-87550500D01*
X142603466Y-87550500D01*
X142603467Y-87550499D01*
X142806420Y-87510130D01*
X142997598Y-87430941D01*
X143169655Y-87315977D01*
X143315977Y-87169655D01*
X143362528Y-87099986D01*
X144800001Y-87099986D01*
X144810494Y-87202697D01*
X144865641Y-87369119D01*
X144865643Y-87369124D01*
X144957684Y-87518345D01*
X145081654Y-87642315D01*
X145230875Y-87734356D01*
X145230880Y-87734358D01*
X145397302Y-87789505D01*
X145397309Y-87789506D01*
X145500019Y-87799999D01*
X145849999Y-87799999D01*
X146350000Y-87799999D01*
X146699972Y-87799999D01*
X146699986Y-87799998D01*
X146802697Y-87789505D01*
X146969119Y-87734358D01*
X146969124Y-87734356D01*
X147118345Y-87642315D01*
X147242315Y-87518345D01*
X147334356Y-87369124D01*
X147334358Y-87369119D01*
X147389505Y-87202697D01*
X147389506Y-87202688D01*
X147389560Y-87202155D01*
X150000000Y-87202155D01*
X150000000Y-87625000D01*
X150750000Y-87625000D01*
X151250000Y-87625000D01*
X152000000Y-87625000D01*
X152000000Y-87202172D01*
X151999999Y-87202155D01*
X151993598Y-87142627D01*
X151993596Y-87142620D01*
X151943354Y-87007913D01*
X151943350Y-87007906D01*
X151857190Y-86892812D01*
X151857187Y-86892809D01*
X151742093Y-86806649D01*
X151742086Y-86806645D01*
X151607379Y-86756403D01*
X151607372Y-86756401D01*
X151547844Y-86750000D01*
X151250000Y-86750000D01*
X151250000Y-87625000D01*
X150750000Y-87625000D01*
X150750000Y-86750000D01*
X150452155Y-86750000D01*
X150392627Y-86756401D01*
X150392620Y-86756403D01*
X150257913Y-86806645D01*
X150257906Y-86806649D01*
X150142812Y-86892809D01*
X150142809Y-86892812D01*
X150056649Y-87007906D01*
X150056645Y-87007913D01*
X150006403Y-87142620D01*
X150006401Y-87142627D01*
X150000000Y-87202155D01*
X147389560Y-87202155D01*
X147391186Y-87186251D01*
X147391186Y-87186248D01*
X147399999Y-87099985D01*
X147400000Y-87099973D01*
X147400000Y-86750000D01*
X146350000Y-86750000D01*
X146350000Y-87799999D01*
X145849999Y-87799999D01*
X145850000Y-87799998D01*
X145850000Y-86750000D01*
X144800001Y-86750000D01*
X144800001Y-87099986D01*
X143362528Y-87099986D01*
X143430941Y-86997598D01*
X143510130Y-86806420D01*
X143534440Y-86684205D01*
X143536381Y-86674447D01*
X143536381Y-86674446D01*
X143539959Y-86656459D01*
X143550500Y-86603465D01*
X143550500Y-86460504D01*
X145800000Y-86460504D01*
X145800000Y-86539496D01*
X145820444Y-86615796D01*
X145859940Y-86684205D01*
X145915795Y-86740060D01*
X145984204Y-86779556D01*
X146060504Y-86800000D01*
X146139496Y-86800000D01*
X146215796Y-86779556D01*
X146284205Y-86740060D01*
X146340060Y-86684205D01*
X146379556Y-86615796D01*
X146400000Y-86539496D01*
X146400000Y-86460504D01*
X146379556Y-86384204D01*
X146340060Y-86315795D01*
X146284205Y-86259940D01*
X146266988Y-86250000D01*
X146350000Y-86250000D01*
X147399999Y-86250000D01*
X147399999Y-85900028D01*
X147399998Y-85900013D01*
X147389505Y-85797302D01*
X147334358Y-85630880D01*
X147334356Y-85630875D01*
X147242315Y-85481654D01*
X147118345Y-85357684D01*
X146969124Y-85265643D01*
X146969119Y-85265641D01*
X146802697Y-85210494D01*
X146802690Y-85210493D01*
X146699986Y-85200000D01*
X146350000Y-85200000D01*
X146350000Y-86250000D01*
X146266988Y-86250000D01*
X146215796Y-86220444D01*
X146139496Y-86200000D01*
X146060504Y-86200000D01*
X145984204Y-86220444D01*
X145915795Y-86259940D01*
X145859940Y-86315795D01*
X145820444Y-86384204D01*
X145800000Y-86460504D01*
X143550500Y-86460504D01*
X143550500Y-86396535D01*
X143510130Y-86193580D01*
X143430941Y-86002402D01*
X143423201Y-85990818D01*
X143406454Y-85965753D01*
X143362528Y-85900013D01*
X144800000Y-85900013D01*
X144800000Y-86250000D01*
X145850000Y-86250000D01*
X145850000Y-85200000D01*
X145500028Y-85200000D01*
X145500012Y-85200001D01*
X145397302Y-85210494D01*
X145230880Y-85265641D01*
X145230875Y-85265643D01*
X145081654Y-85357684D01*
X144957684Y-85481654D01*
X144865643Y-85630875D01*
X144865641Y-85630880D01*
X144810494Y-85797302D01*
X144810493Y-85797309D01*
X144800000Y-85900013D01*
X143362528Y-85900013D01*
X143315977Y-85830344D01*
X143169657Y-85684024D01*
X143008676Y-85576461D01*
X142997598Y-85569059D01*
X142935065Y-85543157D01*
X142806420Y-85489870D01*
X142806412Y-85489868D01*
X142603469Y-85449500D01*
X142603465Y-85449500D01*
X142396535Y-85449500D01*
X142396530Y-85449500D01*
X142193587Y-85489868D01*
X142193579Y-85489870D01*
X142002403Y-85569058D01*
X141830342Y-85684024D01*
X141684022Y-85830344D01*
X141574411Y-85994391D01*
X141520799Y-86039196D01*
X141471309Y-86049500D01*
X140474500Y-86049500D01*
X140407461Y-86029815D01*
X140361706Y-85977011D01*
X140350500Y-85925500D01*
X140350499Y-85502129D01*
X140350498Y-85502123D01*
X140350497Y-85502116D01*
X140344091Y-85442517D01*
X140342322Y-85437775D01*
X140293797Y-85307671D01*
X140293793Y-85307664D01*
X140207547Y-85192455D01*
X140207544Y-85192452D01*
X140092335Y-85106206D01*
X140092328Y-85106202D01*
X139957482Y-85055908D01*
X139957483Y-85055908D01*
X139897883Y-85049501D01*
X139897881Y-85049500D01*
X139897873Y-85049500D01*
X139897864Y-85049500D01*
X139102129Y-85049500D01*
X139102123Y-85049501D01*
X139042516Y-85055908D01*
X138907671Y-85106202D01*
X138907664Y-85106206D01*
X138792455Y-85192452D01*
X138792452Y-85192455D01*
X138706206Y-85307664D01*
X138706202Y-85307671D01*
X138655908Y-85442517D01*
X138649501Y-85502116D01*
X138649501Y-85502123D01*
X138649500Y-85502135D01*
X138350499Y-85502135D01*
X138350499Y-85502128D01*
X138344091Y-85442517D01*
X138342322Y-85437775D01*
X138293797Y-85307671D01*
X138293793Y-85307664D01*
X138207547Y-85192455D01*
X138207544Y-85192452D01*
X138092335Y-85106206D01*
X138092328Y-85106202D01*
X137957482Y-85055908D01*
X137957483Y-85055908D01*
X137897883Y-85049501D01*
X137897881Y-85049500D01*
X137897873Y-85049500D01*
X137897864Y-85049500D01*
X137102129Y-85049500D01*
X137102123Y-85049501D01*
X137042516Y-85055908D01*
X136907671Y-85106202D01*
X136907664Y-85106206D01*
X136792455Y-85192452D01*
X136792452Y-85192455D01*
X136706206Y-85307664D01*
X136706202Y-85307671D01*
X136655908Y-85442517D01*
X136654126Y-85450062D01*
X136651853Y-85449525D01*
X136629571Y-85503312D01*
X136572177Y-85543157D01*
X136533024Y-85549500D01*
X136020808Y-85549500D01*
X135953769Y-85529815D01*
X135933127Y-85513181D01*
X135914672Y-85494726D01*
X135914668Y-85494723D01*
X135808133Y-85423538D01*
X135808124Y-85423533D01*
X135689744Y-85374499D01*
X135689738Y-85374497D01*
X135675257Y-85371617D01*
X135613347Y-85339232D01*
X135578772Y-85278516D01*
X135582512Y-85208747D01*
X135623379Y-85152075D01*
X135675257Y-85128383D01*
X135683784Y-85126686D01*
X135689744Y-85125501D01*
X135808127Y-85076465D01*
X135914669Y-85005276D01*
X136005276Y-84914669D01*
X136076465Y-84808127D01*
X136125501Y-84689744D01*
X136133682Y-84648615D01*
X136150500Y-84564071D01*
X136150500Y-84435928D01*
X136125502Y-84310261D01*
X136125501Y-84310260D01*
X136125501Y-84310256D01*
X136087287Y-84218000D01*
X136076466Y-84191875D01*
X136076461Y-84191866D01*
X136005276Y-84085331D01*
X136005273Y-84085327D01*
X135914672Y-83994726D01*
X135914668Y-83994723D01*
X135808133Y-83923538D01*
X135808127Y-83923535D01*
X135770555Y-83907972D01*
X135730328Y-83881092D01*
X135581021Y-83731785D01*
X135418977Y-83569742D01*
X135385493Y-83508420D01*
X135390477Y-83438729D01*
X135407393Y-83407751D01*
X135493793Y-83292335D01*
X135493792Y-83292335D01*
X135493796Y-83292331D01*
X135544091Y-83157483D01*
X135550500Y-83097873D01*
X135550499Y-81902128D01*
X135544091Y-81842517D01*
X135541272Y-81834960D01*
X135493797Y-81707671D01*
X135493793Y-81707664D01*
X135407547Y-81592455D01*
X135407544Y-81592452D01*
X135292335Y-81506206D01*
X135292328Y-81506202D01*
X135157482Y-81455908D01*
X135157483Y-81455908D01*
X135097883Y-81449501D01*
X135097881Y-81449500D01*
X135097873Y-81449500D01*
X135097864Y-81449500D01*
X133902129Y-81449500D01*
X133902123Y-81449501D01*
X133842516Y-81455908D01*
X133707671Y-81506202D01*
X133707664Y-81506206D01*
X133592455Y-81592452D01*
X133592452Y-81592455D01*
X133506206Y-81707664D01*
X133506202Y-81707671D01*
X133455908Y-81842517D01*
X133449623Y-81900981D01*
X133449501Y-81902123D01*
X133449500Y-81902135D01*
X133449500Y-83097870D01*
X133449501Y-83097876D01*
X133455908Y-83157483D01*
X133506202Y-83292328D01*
X133506206Y-83292335D01*
X133592452Y-83407544D01*
X133592455Y-83407547D01*
X133707664Y-83493793D01*
X133707673Y-83493798D01*
X133835519Y-83541481D01*
X133836203Y-83541993D01*
X133837056Y-83542066D01*
X133864142Y-83562908D01*
X133891453Y-83583352D01*
X133891975Y-83584324D01*
X133892430Y-83584674D01*
X133894554Y-83589122D01*
X133908933Y-83615873D01*
X133910647Y-83620661D01*
X133940423Y-83731785D01*
X133961151Y-83767686D01*
X133983509Y-83806412D01*
X134019479Y-83868715D01*
X134138349Y-83987585D01*
X134138355Y-83987590D01*
X134881092Y-84730328D01*
X134907972Y-84770555D01*
X134923535Y-84808127D01*
X134923538Y-84808133D01*
X134994723Y-84914668D01*
X134994726Y-84914672D01*
X135085327Y-85005273D01*
X135085331Y-85005276D01*
X135191866Y-85076461D01*
X135191872Y-85076464D01*
X135191873Y-85076465D01*
X135310256Y-85125501D01*
X135310258Y-85125501D01*
X135310260Y-85125502D01*
X135324743Y-85128383D01*
X135386653Y-85160769D01*
X135421227Y-85221485D01*
X135417486Y-85291254D01*
X135376619Y-85347926D01*
X135324743Y-85371617D01*
X135310260Y-85374497D01*
X135310255Y-85374499D01*
X135191875Y-85423533D01*
X135191866Y-85423538D01*
X135085331Y-85494723D01*
X135085327Y-85494726D01*
X134994726Y-85585327D01*
X134994723Y-85585331D01*
X134923538Y-85691866D01*
X134923533Y-85691875D01*
X134874499Y-85810255D01*
X134874498Y-85810259D01*
X134863288Y-85866610D01*
X134830901Y-85928520D01*
X134770185Y-85963093D01*
X134700415Y-85959352D01*
X134653990Y-85930097D01*
X134645847Y-85921954D01*
X134645844Y-85921952D01*
X134645842Y-85921950D01*
X134537232Y-85866610D01*
X134532801Y-85864352D01*
X134439024Y-85849500D01*
X134439019Y-85849500D01*
X133962255Y-85849500D01*
X133895216Y-85829815D01*
X133874574Y-85813181D01*
X132740915Y-84679522D01*
X132740913Y-84679520D01*
X132676473Y-84642315D01*
X132649589Y-84626793D01*
X132598657Y-84613146D01*
X132547727Y-84599500D01*
X125052727Y-84599500D01*
X124947273Y-84599500D01*
X124845410Y-84626793D01*
X124754087Y-84679520D01*
X124754084Y-84679522D01*
X123362284Y-86071321D01*
X123300961Y-86104806D01*
X123231269Y-86099822D01*
X123224518Y-86097075D01*
X123179992Y-86077415D01*
X123154865Y-86074500D01*
X121605143Y-86074500D01*
X121605117Y-86074502D01*
X121580012Y-86077413D01*
X121580008Y-86077415D01*
X121477235Y-86122793D01*
X121397794Y-86202234D01*
X121352415Y-86305006D01*
X121352415Y-86305008D01*
X121349500Y-86330131D01*
X121349500Y-86719856D01*
X121349502Y-86719882D01*
X121352413Y-86744986D01*
X121352414Y-86744990D01*
X121352415Y-86744991D01*
X121376666Y-86799915D01*
X121385737Y-86869191D01*
X121376666Y-86900084D01*
X121352415Y-86955006D01*
X121352415Y-86955008D01*
X121349500Y-86980131D01*
X121349500Y-87369856D01*
X121349502Y-87369882D01*
X121352413Y-87394986D01*
X121352414Y-87394990D01*
X121352415Y-87394991D01*
X121376666Y-87449915D01*
X121385737Y-87519191D01*
X121376666Y-87550084D01*
X121352415Y-87605006D01*
X121352415Y-87605008D01*
X121349500Y-87630131D01*
X121349500Y-88019856D01*
X121349502Y-88019882D01*
X121352413Y-88044986D01*
X121352414Y-88044990D01*
X121352415Y-88044991D01*
X121376666Y-88099915D01*
X121385737Y-88169191D01*
X121376666Y-88200084D01*
X121352415Y-88255006D01*
X121352415Y-88255008D01*
X121349500Y-88280131D01*
X121349500Y-88669856D01*
X121349502Y-88669882D01*
X121352413Y-88694987D01*
X121352415Y-88694991D01*
X121397793Y-88797764D01*
X121485360Y-88885331D01*
X121483119Y-88887571D01*
X121515571Y-88927327D01*
X121523477Y-88996748D01*
X121492596Y-89059423D01*
X121432733Y-89095453D01*
X121401311Y-89099500D01*
X117930086Y-89099500D01*
X117863047Y-89079815D01*
X117817292Y-89027011D01*
X117807348Y-88957853D01*
X117831283Y-88900573D01*
X117833920Y-88897095D01*
X117889386Y-88756443D01*
X117889386Y-88756442D01*
X117899167Y-88675000D01*
X116744000Y-88675000D01*
X116735314Y-88672449D01*
X116726353Y-88673738D01*
X116702312Y-88662759D01*
X116676961Y-88655315D01*
X116671033Y-88648474D01*
X116662797Y-88644713D01*
X116648507Y-88622478D01*
X116631206Y-88602511D01*
X116628918Y-88591996D01*
X116625023Y-88585935D01*
X116620000Y-88551000D01*
X116620000Y-88399499D01*
X116639685Y-88332460D01*
X116692489Y-88286705D01*
X116743998Y-88275499D01*
X117394864Y-88275499D01*
X117394871Y-88275498D01*
X117398439Y-88275292D01*
X117398448Y-88275455D01*
X117406334Y-88275000D01*
X117899167Y-88275000D01*
X117889386Y-88193557D01*
X117889386Y-88193556D01*
X117833920Y-88052904D01*
X117742563Y-87932432D01*
X117699573Y-87899832D01*
X117658050Y-87843640D01*
X117650499Y-87801029D01*
X117650499Y-87630143D01*
X117650499Y-87630136D01*
X117649939Y-87625304D01*
X117647586Y-87605012D01*
X117647585Y-87605011D01*
X117647585Y-87605009D01*
X117623333Y-87550084D01*
X117614262Y-87480809D01*
X117623331Y-87449919D01*
X117647585Y-87394991D01*
X117650500Y-87369865D01*
X117650499Y-86980136D01*
X117649345Y-86970185D01*
X117647586Y-86955012D01*
X117647585Y-86955011D01*
X117647585Y-86955009D01*
X117623333Y-86900084D01*
X117614262Y-86830809D01*
X117623331Y-86799919D01*
X117647585Y-86744991D01*
X117650500Y-86719865D01*
X117650499Y-86330136D01*
X117650497Y-86330117D01*
X117647586Y-86305012D01*
X117647585Y-86305010D01*
X117647585Y-86305009D01*
X117602206Y-86202235D01*
X117522765Y-86122794D01*
X117522763Y-86122793D01*
X117522762Y-86122792D01*
X117519960Y-86121555D01*
X117515689Y-86117947D01*
X117513286Y-86116301D01*
X117513452Y-86116057D01*
X117466586Y-86076467D01*
X117446061Y-86009681D01*
X117464902Y-85942399D01*
X117482366Y-85920446D01*
X118015923Y-85386889D01*
X118077244Y-85353406D01*
X118146936Y-85358390D01*
X118202869Y-85400262D01*
X118210984Y-85412563D01*
X118219500Y-85427314D01*
X118692686Y-85900500D01*
X118806814Y-85966392D01*
X118934107Y-86000500D01*
X118934108Y-86000500D01*
X118934109Y-86000500D01*
X120065890Y-86000500D01*
X120065892Y-86000500D01*
X120193186Y-85966392D01*
X120307314Y-85900500D01*
X120900500Y-85307314D01*
X120966392Y-85193186D01*
X121000500Y-85065892D01*
X121000500Y-84934107D01*
X121000500Y-84925849D01*
X121020185Y-84858810D01*
X121021398Y-84856959D01*
X121060964Y-84797743D01*
X121060964Y-84797742D01*
X121060966Y-84797740D01*
X121075500Y-84724674D01*
X121075500Y-84400098D01*
X121084144Y-84370660D01*
X121090668Y-84340670D01*
X121094422Y-84335654D01*
X121095185Y-84333059D01*
X121111820Y-84312416D01*
X121169919Y-84254318D01*
X121231242Y-84220834D01*
X121257599Y-84218000D01*
X121534607Y-84218000D01*
X121601646Y-84237685D01*
X121633873Y-84267688D01*
X121665743Y-84310261D01*
X121667455Y-84312547D01*
X121782666Y-84398794D01*
X121782664Y-84398794D01*
X121782668Y-84398795D01*
X121782669Y-84398796D01*
X121818832Y-84412283D01*
X121874764Y-84454152D01*
X121899183Y-84519616D01*
X121899499Y-84528465D01*
X121899499Y-84579054D01*
X121899498Y-84579054D01*
X121926418Y-84679520D01*
X121940423Y-84731785D01*
X121961457Y-84768216D01*
X121997680Y-84830957D01*
X122018894Y-84867702D01*
X122019480Y-84868716D01*
X122131284Y-84980520D01*
X122131285Y-84980521D01*
X122256970Y-85106206D01*
X122381092Y-85230327D01*
X122407972Y-85270555D01*
X122423533Y-85308124D01*
X122423538Y-85308133D01*
X122494723Y-85414668D01*
X122494726Y-85414672D01*
X122585327Y-85505273D01*
X122585331Y-85505276D01*
X122691866Y-85576461D01*
X122691872Y-85576464D01*
X122691873Y-85576465D01*
X122810256Y-85625501D01*
X122810260Y-85625501D01*
X122810261Y-85625502D01*
X122935928Y-85650500D01*
X122935931Y-85650500D01*
X123064071Y-85650500D01*
X123148615Y-85633682D01*
X123189744Y-85625501D01*
X123308127Y-85576465D01*
X123414669Y-85505276D01*
X123505276Y-85414669D01*
X123576465Y-85308127D01*
X123625501Y-85189744D01*
X123648034Y-85076466D01*
X123650500Y-85064071D01*
X123650500Y-84935928D01*
X123625502Y-84810261D01*
X123625501Y-84810260D01*
X123625501Y-84810256D01*
X123576465Y-84691873D01*
X123576464Y-84691872D01*
X123576461Y-84691866D01*
X123505276Y-84585331D01*
X123505273Y-84585327D01*
X123414672Y-84494726D01*
X123414668Y-84494723D01*
X123377798Y-84470087D01*
X123332993Y-84416474D01*
X123324286Y-84347149D01*
X123347422Y-84292674D01*
X123418796Y-84197331D01*
X123469091Y-84062483D01*
X123475500Y-84002873D01*
X123475499Y-83700001D01*
X124390204Y-83700001D01*
X124390399Y-83702486D01*
X124436218Y-83860198D01*
X124519814Y-84001552D01*
X124519821Y-84001561D01*
X124635938Y-84117678D01*
X124635947Y-84117685D01*
X124777303Y-84201282D01*
X124777306Y-84201283D01*
X124935004Y-84247099D01*
X124935010Y-84247100D01*
X124971850Y-84249999D01*
X124971866Y-84250000D01*
X125375000Y-84250000D01*
X125875000Y-84250000D01*
X126278134Y-84250000D01*
X126278149Y-84249999D01*
X126314989Y-84247100D01*
X126314995Y-84247099D01*
X126472693Y-84201283D01*
X126472696Y-84201282D01*
X126614052Y-84117685D01*
X126614061Y-84117678D01*
X126730178Y-84001561D01*
X126730185Y-84001552D01*
X126813781Y-83860198D01*
X126859600Y-83702486D01*
X126859795Y-83700001D01*
X126859795Y-83700000D01*
X125875000Y-83700000D01*
X125875000Y-84250000D01*
X125375000Y-84250000D01*
X125375000Y-83700000D01*
X124390205Y-83700000D01*
X124390204Y-83700001D01*
X123475499Y-83700001D01*
X123475499Y-83615873D01*
X123475499Y-83244344D01*
X123475499Y-83232129D01*
X123475498Y-83232123D01*
X123473553Y-83214032D01*
X123472045Y-83199998D01*
X124390204Y-83199998D01*
X124390205Y-83200000D01*
X125375000Y-83200000D01*
X125375000Y-82650000D01*
X124971850Y-82650000D01*
X124935010Y-82652899D01*
X124935004Y-82652900D01*
X124777306Y-82698716D01*
X124777303Y-82698717D01*
X124635947Y-82782314D01*
X124635938Y-82782321D01*
X124519821Y-82898438D01*
X124519814Y-82898447D01*
X124436218Y-83039801D01*
X124390399Y-83197513D01*
X124390204Y-83199998D01*
X123472045Y-83199998D01*
X123469091Y-83172517D01*
X123468221Y-83170185D01*
X123418797Y-83037671D01*
X123418793Y-83037664D01*
X123332547Y-82922455D01*
X123332544Y-82922452D01*
X123217335Y-82836206D01*
X123217329Y-82836203D01*
X123197529Y-82828818D01*
X123141596Y-82786946D01*
X123117179Y-82721482D01*
X123132031Y-82653209D01*
X123181437Y-82603804D01*
X123201860Y-82594930D01*
X123294117Y-82564359D01*
X123294124Y-82564356D01*
X123443345Y-82472315D01*
X123567315Y-82348345D01*
X123659356Y-82199124D01*
X123659358Y-82199119D01*
X123714505Y-82032697D01*
X123714506Y-82032690D01*
X123724999Y-81929986D01*
X123725000Y-81929973D01*
X123725000Y-81792500D01*
X122624000Y-81792500D01*
X122556961Y-81772815D01*
X122511206Y-81720011D01*
X122500000Y-81668500D01*
X122500000Y-81542500D01*
X122374000Y-81542500D01*
X122306961Y-81522815D01*
X122261206Y-81470011D01*
X122250000Y-81418500D01*
X122250000Y-81292500D01*
X122750000Y-81292500D01*
X123724999Y-81292500D01*
X123724999Y-81155028D01*
X123724998Y-81155013D01*
X123714505Y-81052302D01*
X123659358Y-80885880D01*
X123659356Y-80885875D01*
X123567315Y-80736654D01*
X123443345Y-80612684D01*
X123294124Y-80520643D01*
X123294119Y-80520641D01*
X123127697Y-80465494D01*
X123127690Y-80465493D01*
X123024986Y-80455000D01*
X122750000Y-80455000D01*
X122750000Y-81292500D01*
X122250000Y-81292500D01*
X122250000Y-80455000D01*
X121975029Y-80455000D01*
X121975012Y-80455001D01*
X121872302Y-80465494D01*
X121705880Y-80520641D01*
X121705875Y-80520643D01*
X121556654Y-80612684D01*
X121432684Y-80736654D01*
X121340643Y-80885875D01*
X121340641Y-80885880D01*
X121317082Y-80956978D01*
X121277309Y-81014423D01*
X121212793Y-81041246D01*
X121144017Y-81028931D01*
X121092818Y-80981388D01*
X121075973Y-80930127D01*
X121075500Y-80925331D01*
X121075500Y-80925326D01*
X121060966Y-80852262D01*
X121060966Y-80852260D01*
X121057945Y-80847739D01*
X121005601Y-80769399D01*
X120950235Y-80732405D01*
X120922739Y-80714033D01*
X120922735Y-80714032D01*
X120849677Y-80699500D01*
X120849674Y-80699500D01*
X120150326Y-80699500D01*
X120150323Y-80699500D01*
X120077264Y-80714032D01*
X120077260Y-80714033D01*
X119994399Y-80769399D01*
X119939033Y-80852260D01*
X119939032Y-80852264D01*
X119924500Y-80925321D01*
X119924500Y-82224678D01*
X119939032Y-82297735D01*
X119939033Y-82297739D01*
X119939034Y-82297740D01*
X119994399Y-82380601D01*
X120050791Y-82418280D01*
X120077260Y-82435966D01*
X120077264Y-82435967D01*
X120150321Y-82450499D01*
X120150324Y-82450500D01*
X120150326Y-82450500D01*
X120849676Y-82450500D01*
X120849677Y-82450499D01*
X120922740Y-82435966D01*
X121005601Y-82380601D01*
X121060966Y-82297740D01*
X121075500Y-82224674D01*
X121075500Y-82167400D01*
X121095185Y-82100361D01*
X121147989Y-82054606D01*
X121217147Y-82044662D01*
X121280703Y-82073687D01*
X121317206Y-82128396D01*
X121340641Y-82199119D01*
X121340643Y-82199124D01*
X121432684Y-82348345D01*
X121556654Y-82472315D01*
X121705875Y-82564356D01*
X121705880Y-82564358D01*
X121798140Y-82594930D01*
X121855585Y-82634702D01*
X121882408Y-82699218D01*
X121870093Y-82767994D01*
X121822550Y-82819194D01*
X121802471Y-82828817D01*
X121782674Y-82836201D01*
X121782664Y-82836206D01*
X121667455Y-82922452D01*
X121633873Y-82967312D01*
X121577939Y-83009182D01*
X121534607Y-83017000D01*
X121044170Y-83017000D01*
X121044154Y-83016999D01*
X121036558Y-83016999D01*
X120878443Y-83016999D01*
X120808857Y-83035645D01*
X120725714Y-83057923D01*
X120725709Y-83057926D01*
X120588790Y-83136975D01*
X120588782Y-83136981D01*
X120562583Y-83163181D01*
X120535655Y-83177884D01*
X120509837Y-83194477D01*
X120503636Y-83195368D01*
X120501260Y-83196666D01*
X120474902Y-83199500D01*
X120384126Y-83199500D01*
X120317087Y-83179815D01*
X120284859Y-83149811D01*
X120242190Y-83092813D01*
X120242185Y-83092808D01*
X120127093Y-83006649D01*
X120127086Y-83006645D01*
X119992379Y-82956403D01*
X119992372Y-82956401D01*
X119932844Y-82950000D01*
X119810000Y-82950000D01*
X119810000Y-83951000D01*
X119790315Y-84018039D01*
X119737511Y-84063794D01*
X119686000Y-84075000D01*
X119434000Y-84075000D01*
X119366961Y-84055315D01*
X119321206Y-84002511D01*
X119310000Y-83951000D01*
X119310000Y-82950000D01*
X119187155Y-82950000D01*
X119127627Y-82956401D01*
X119127620Y-82956403D01*
X118992913Y-83006645D01*
X118992906Y-83006649D01*
X118877814Y-83092808D01*
X118877809Y-83092813D01*
X118835141Y-83149811D01*
X118779207Y-83191682D01*
X118735874Y-83199500D01*
X118270323Y-83199500D01*
X118197264Y-83214032D01*
X118197260Y-83214033D01*
X118114399Y-83269399D01*
X118059033Y-83352260D01*
X118059032Y-83352264D01*
X118044500Y-83425321D01*
X118044500Y-83891324D01*
X118035855Y-83920764D01*
X118029332Y-83950751D01*
X118025577Y-83955766D01*
X118024815Y-83958363D01*
X118008181Y-83979005D01*
X117936681Y-84050505D01*
X117875358Y-84083990D01*
X117805666Y-84079006D01*
X117749733Y-84037134D01*
X117725316Y-83971670D01*
X117725000Y-83962824D01*
X117725000Y-83825000D01*
X116750000Y-83825000D01*
X116750000Y-84662499D01*
X117025325Y-84662499D01*
X117092364Y-84682184D01*
X117138119Y-84734988D01*
X117148063Y-84804146D01*
X117119038Y-84867702D01*
X117113006Y-84874180D01*
X116650005Y-85337181D01*
X116588682Y-85370666D01*
X116562324Y-85373500D01*
X114710108Y-85373500D01*
X114582812Y-85407608D01*
X114468686Y-85473500D01*
X114468683Y-85473502D01*
X113579003Y-86363181D01*
X113517680Y-86396666D01*
X113491322Y-86399500D01*
X113043482Y-86399500D01*
X112972023Y-86410818D01*
X112949696Y-86414354D01*
X112836658Y-86471950D01*
X112836657Y-86471951D01*
X112836652Y-86471954D01*
X112746954Y-86561652D01*
X112746951Y-86561657D01*
X112746950Y-86561658D01*
X112736828Y-86581524D01*
X112689352Y-86674698D01*
X112674500Y-86768475D01*
X112674500Y-87131517D01*
X112676259Y-87142620D01*
X112683374Y-87187547D01*
X112685091Y-87198384D01*
X112676135Y-87267678D01*
X112650298Y-87305462D01*
X112557321Y-87398438D01*
X112557314Y-87398447D01*
X112473718Y-87539801D01*
X112427899Y-87697513D01*
X112427704Y-87699998D01*
X112427705Y-87700000D01*
X113576000Y-87700000D01*
X113643039Y-87719685D01*
X113688794Y-87772489D01*
X113700000Y-87824000D01*
X113700000Y-87950000D01*
X113826000Y-87950000D01*
X113893039Y-87969685D01*
X113938794Y-88022489D01*
X113950000Y-88074000D01*
X113950000Y-88750000D01*
X114390634Y-88750000D01*
X114390649Y-88749999D01*
X114427489Y-88747100D01*
X114427495Y-88747099D01*
X114585193Y-88701283D01*
X114585196Y-88701282D01*
X114726556Y-88617682D01*
X114728869Y-88615889D01*
X114731014Y-88615046D01*
X114733271Y-88613712D01*
X114733486Y-88614075D01*
X114793904Y-88590350D01*
X114862422Y-88604027D01*
X114912669Y-88652576D01*
X114924649Y-88681770D01*
X114926786Y-88689744D01*
X114951793Y-88783074D01*
X115004520Y-88874399D01*
X115950601Y-89820480D01*
X115988448Y-89842331D01*
X116006480Y-89852742D01*
X116054696Y-89903309D01*
X116067918Y-89971916D01*
X116041950Y-90036781D01*
X115987814Y-90076311D01*
X115907670Y-90106203D01*
X115907664Y-90106206D01*
X115792455Y-90192452D01*
X115746498Y-90253842D01*
X115690563Y-90295713D01*
X115620872Y-90300696D01*
X115559549Y-90267210D01*
X115538335Y-90236909D01*
X115538149Y-90237025D01*
X115536170Y-90233816D01*
X115534845Y-90231924D01*
X115534356Y-90230877D01*
X115442315Y-90081654D01*
X115318345Y-89957684D01*
X115169124Y-89865643D01*
X115169119Y-89865641D01*
X115002697Y-89810494D01*
X115002690Y-89810493D01*
X114899986Y-89800000D01*
X114750000Y-89800000D01*
X114750000Y-92199999D01*
X114899972Y-92199999D01*
X114899986Y-92199998D01*
X115002697Y-92189505D01*
X115169119Y-92134358D01*
X115169124Y-92134356D01*
X115318345Y-92042315D01*
X115442315Y-91918345D01*
X115534354Y-91769126D01*
X115534842Y-91768081D01*
X115535368Y-91767482D01*
X115538149Y-91762975D01*
X115538918Y-91763449D01*
X115581007Y-91715635D01*
X115648198Y-91696473D01*
X115715082Y-91716679D01*
X115746498Y-91746157D01*
X115784210Y-91796534D01*
X115792455Y-91807547D01*
X115907664Y-91893793D01*
X115907671Y-91893797D01*
X116042517Y-91944091D01*
X116042516Y-91944091D01*
X116049444Y-91944835D01*
X116102127Y-91950500D01*
X116897872Y-91950499D01*
X116957483Y-91944091D01*
X117092331Y-91893796D01*
X117095274Y-91891592D01*
X117197939Y-91814738D01*
X117263403Y-91790320D01*
X117331676Y-91805171D01*
X117359931Y-91826323D01*
X117696927Y-92163319D01*
X117730412Y-92224642D01*
X117725428Y-92294334D01*
X117683556Y-92350267D01*
X117669484Y-92355515D01*
X117650000Y-92375000D01*
X117650000Y-93212500D01*
X118647547Y-93212500D01*
X118659187Y-93206143D01*
X118660257Y-93206219D01*
X118661208Y-93205721D01*
X118695032Y-93208704D01*
X118728879Y-93211124D01*
X118730088Y-93211797D01*
X118730808Y-93211861D01*
X118734261Y-93214121D01*
X118761499Y-93229288D01*
X118767698Y-93234091D01*
X118814087Y-93280480D01*
X118859699Y-93306814D01*
X118905413Y-93333207D01*
X119007273Y-93360501D01*
X119007275Y-93360501D01*
X119120323Y-93360501D01*
X119120339Y-93360500D01*
X119125898Y-93360500D01*
X119192937Y-93380185D01*
X119238692Y-93432989D01*
X119248636Y-93502147D01*
X119219611Y-93565703D01*
X119213579Y-93572181D01*
X119107321Y-93678438D01*
X119107314Y-93678447D01*
X119023718Y-93819801D01*
X118977899Y-93977513D01*
X118977704Y-93979998D01*
X118977705Y-93980000D01*
X120326000Y-93980000D01*
X120393039Y-93999685D01*
X120438794Y-94052489D01*
X120450000Y-94104000D01*
X120450000Y-94356000D01*
X120430315Y-94423039D01*
X120377511Y-94468794D01*
X120326000Y-94480000D01*
X118977705Y-94480000D01*
X118977704Y-94480001D01*
X118977899Y-94482486D01*
X119023718Y-94640198D01*
X119036836Y-94662379D01*
X119054019Y-94730103D01*
X119031859Y-94796366D01*
X118977393Y-94840129D01*
X118959504Y-94845964D01*
X118945016Y-94849500D01*
X118935931Y-94849500D01*
X118810256Y-94874499D01*
X118763887Y-94893705D01*
X118754633Y-94895964D01*
X118745202Y-94895527D01*
X118725233Y-94899500D01*
X118337320Y-94899500D01*
X118270281Y-94879815D01*
X118238052Y-94849809D01*
X118236073Y-94847166D01*
X118232546Y-94842454D01*
X118220530Y-94833459D01*
X118117335Y-94756206D01*
X118117329Y-94756203D01*
X118097529Y-94748818D01*
X118041596Y-94706946D01*
X118017179Y-94641482D01*
X118032031Y-94573209D01*
X118081437Y-94523804D01*
X118101860Y-94514930D01*
X118194117Y-94484359D01*
X118194124Y-94484356D01*
X118343345Y-94392315D01*
X118467315Y-94268345D01*
X118559356Y-94119124D01*
X118559358Y-94119119D01*
X118614505Y-93952697D01*
X118614506Y-93952690D01*
X118624999Y-93849986D01*
X118625000Y-93849973D01*
X118625000Y-93712500D01*
X116175001Y-93712500D01*
X116175001Y-93849986D01*
X116185494Y-93952697D01*
X116240641Y-94119119D01*
X116240643Y-94119124D01*
X116332684Y-94268345D01*
X116456654Y-94392315D01*
X116605875Y-94484356D01*
X116605880Y-94484358D01*
X116698140Y-94514930D01*
X116755585Y-94554702D01*
X116782408Y-94619218D01*
X116770093Y-94687994D01*
X116727979Y-94735770D01*
X116715978Y-94743780D01*
X116682669Y-94756204D01*
X116567454Y-94842454D01*
X116566753Y-94843389D01*
X116558897Y-94848634D01*
X116528619Y-94858099D01*
X116498901Y-94869184D01*
X116492419Y-94869415D01*
X116492210Y-94869481D01*
X116492023Y-94869429D01*
X116490054Y-94869500D01*
X115849751Y-94869500D01*
X115782712Y-94849815D01*
X115750485Y-94819812D01*
X115717312Y-94775500D01*
X115707546Y-94762454D01*
X115664331Y-94730103D01*
X115592335Y-94676206D01*
X115592328Y-94676202D01*
X115457482Y-94625908D01*
X115457483Y-94625908D01*
X115397883Y-94619501D01*
X115397881Y-94619500D01*
X115397873Y-94619500D01*
X115397865Y-94619500D01*
X114686963Y-94619500D01*
X114665715Y-94613260D01*
X114643628Y-94611681D01*
X114632845Y-94603609D01*
X114619924Y-94599815D01*
X114605423Y-94583081D01*
X114587695Y-94569809D01*
X114582988Y-94557188D01*
X114574169Y-94547011D01*
X114571017Y-94525093D01*
X114563279Y-94504345D01*
X114566141Y-94491184D01*
X114564225Y-94477853D01*
X114573423Y-94457710D01*
X114578131Y-94436072D01*
X114591400Y-94418347D01*
X114593250Y-94414297D01*
X114599269Y-94407832D01*
X114650285Y-94356817D01*
X114711608Y-94323333D01*
X114737965Y-94320499D01*
X115397871Y-94320499D01*
X115397872Y-94320499D01*
X115457483Y-94314091D01*
X115592331Y-94263796D01*
X115707546Y-94177546D01*
X115793796Y-94062331D01*
X115844091Y-93927483D01*
X115850500Y-93867873D01*
X115850499Y-93075013D01*
X116175000Y-93075013D01*
X116175000Y-93212500D01*
X117150000Y-93212500D01*
X117150000Y-92375000D01*
X116875029Y-92375000D01*
X116875012Y-92375001D01*
X116772302Y-92385494D01*
X116605880Y-92440641D01*
X116605875Y-92440643D01*
X116456654Y-92532684D01*
X116332684Y-92656654D01*
X116240643Y-92805875D01*
X116240641Y-92805880D01*
X116185494Y-92972302D01*
X116185493Y-92972309D01*
X116175000Y-93075013D01*
X115850499Y-93075013D01*
X115850499Y-93072128D01*
X115844091Y-93012517D01*
X115837455Y-92994726D01*
X115793797Y-92877671D01*
X115793793Y-92877664D01*
X115707547Y-92762455D01*
X115707544Y-92762452D01*
X115592335Y-92676206D01*
X115592328Y-92676202D01*
X115457482Y-92625908D01*
X115457483Y-92625908D01*
X115397883Y-92619501D01*
X115397881Y-92619500D01*
X115397873Y-92619500D01*
X115397864Y-92619500D01*
X114402129Y-92619500D01*
X114402123Y-92619501D01*
X114342516Y-92625908D01*
X114207671Y-92676202D01*
X114207664Y-92676206D01*
X114092455Y-92762452D01*
X114092452Y-92762455D01*
X114006206Y-92877664D01*
X114006202Y-92877671D01*
X113955908Y-93012517D01*
X113951771Y-93051000D01*
X113949501Y-93072123D01*
X113949500Y-93072135D01*
X113949500Y-93732034D01*
X113929815Y-93799073D01*
X113913181Y-93819715D01*
X113438513Y-94294383D01*
X113438509Y-94294389D01*
X113379201Y-94397112D01*
X113379200Y-94397115D01*
X113376374Y-94407664D01*
X113376373Y-94407668D01*
X113348500Y-94511691D01*
X113348500Y-96155891D01*
X113361699Y-96205146D01*
X113361700Y-96205150D01*
X113379199Y-96270465D01*
X113414440Y-96331502D01*
X113438511Y-96373194D01*
X113438513Y-96373196D01*
X113845788Y-96780472D01*
X113879273Y-96841795D01*
X113874289Y-96911487D01*
X113832417Y-96967420D01*
X113766953Y-96991837D01*
X113758082Y-96992153D01*
X109824030Y-96991366D01*
X109815938Y-96991364D01*
X109815892Y-96991352D01*
X109754850Y-96991352D01*
X109754846Y-96991350D01*
X109745147Y-96990970D01*
X109712176Y-96988375D01*
X109548623Y-96975502D01*
X109529406Y-96972458D01*
X109342479Y-96927581D01*
X109323976Y-96921569D01*
X109146369Y-96848001D01*
X109129032Y-96839167D01*
X108965120Y-96738719D01*
X108949378Y-96727281D01*
X108803199Y-96602429D01*
X108789441Y-96588671D01*
X108664591Y-96442486D01*
X108653163Y-96426756D01*
X108552711Y-96262828D01*
X108543886Y-96245508D01*
X108470322Y-96067897D01*
X108464309Y-96049392D01*
X108433349Y-95920421D01*
X108419433Y-95862454D01*
X108416391Y-95843237D01*
X108411518Y-95781296D01*
X108400881Y-95646105D01*
X108400500Y-95636389D01*
X108400500Y-95626705D01*
X108400502Y-95575973D01*
X108400500Y-95575965D01*
X108400500Y-91499986D01*
X113400001Y-91499986D01*
X113410494Y-91602697D01*
X113465641Y-91769119D01*
X113465643Y-91769124D01*
X113557684Y-91918345D01*
X113681654Y-92042315D01*
X113830875Y-92134356D01*
X113830880Y-92134358D01*
X113997302Y-92189505D01*
X113997309Y-92189506D01*
X114100019Y-92199999D01*
X114249999Y-92199999D01*
X114250000Y-92199998D01*
X114250000Y-91250000D01*
X113400001Y-91250000D01*
X113400001Y-91499986D01*
X108400500Y-91499986D01*
X108400500Y-90500013D01*
X113400000Y-90500013D01*
X113400000Y-90750000D01*
X114250000Y-90750000D01*
X114250000Y-89800000D01*
X114100027Y-89800000D01*
X114100012Y-89800001D01*
X113997302Y-89810494D01*
X113830880Y-89865641D01*
X113830875Y-89865643D01*
X113681654Y-89957684D01*
X113557684Y-90081654D01*
X113465643Y-90230875D01*
X113465641Y-90230880D01*
X113410494Y-90397302D01*
X113410493Y-90397309D01*
X113400000Y-90500013D01*
X108400500Y-90500013D01*
X108400500Y-88852135D01*
X108674500Y-88852135D01*
X108674500Y-89647870D01*
X108674501Y-89647876D01*
X108680908Y-89707483D01*
X108731202Y-89842328D01*
X108731206Y-89842335D01*
X108817452Y-89957544D01*
X108817455Y-89957547D01*
X108932664Y-90043793D01*
X108932671Y-90043797D01*
X109067517Y-90094091D01*
X109067516Y-90094091D01*
X109074444Y-90094835D01*
X109127127Y-90100500D01*
X110522872Y-90100499D01*
X110582483Y-90094091D01*
X110717331Y-90043796D01*
X110832546Y-89957546D01*
X110918796Y-89842331D01*
X110969091Y-89707483D01*
X110975500Y-89647873D01*
X110975499Y-88852128D01*
X110969091Y-88792517D01*
X110965569Y-88783075D01*
X110918797Y-88657671D01*
X110918793Y-88657664D01*
X110832547Y-88542455D01*
X110832544Y-88542452D01*
X110717335Y-88456206D01*
X110717328Y-88456202D01*
X110582482Y-88405908D01*
X110582483Y-88405908D01*
X110522883Y-88399501D01*
X110522881Y-88399500D01*
X110522873Y-88399500D01*
X110522864Y-88399500D01*
X109127129Y-88399500D01*
X109127123Y-88399501D01*
X109067516Y-88405908D01*
X108932671Y-88456202D01*
X108932664Y-88456206D01*
X108817455Y-88542452D01*
X108817452Y-88542455D01*
X108731206Y-88657664D01*
X108731202Y-88657671D01*
X108680908Y-88792517D01*
X108676272Y-88835645D01*
X108674501Y-88852123D01*
X108674500Y-88852135D01*
X108400500Y-88852135D01*
X108400500Y-88200001D01*
X112427704Y-88200001D01*
X112427899Y-88202486D01*
X112473718Y-88360198D01*
X112557314Y-88501552D01*
X112557321Y-88501561D01*
X112673438Y-88617678D01*
X112673447Y-88617685D01*
X112814803Y-88701282D01*
X112814806Y-88701283D01*
X112972504Y-88747099D01*
X112972510Y-88747100D01*
X113009350Y-88749999D01*
X113009366Y-88750000D01*
X113450000Y-88750000D01*
X113450000Y-88200000D01*
X112427705Y-88200000D01*
X112427704Y-88200001D01*
X108400500Y-88200001D01*
X108400500Y-85252135D01*
X108674500Y-85252135D01*
X108674500Y-86047870D01*
X108674501Y-86047876D01*
X108680908Y-86107483D01*
X108731202Y-86242328D01*
X108731206Y-86242335D01*
X108817452Y-86357544D01*
X108817455Y-86357547D01*
X108932664Y-86443793D01*
X108932671Y-86443797D01*
X109067517Y-86494091D01*
X109067516Y-86494091D01*
X109074444Y-86494835D01*
X109127127Y-86500500D01*
X110522872Y-86500499D01*
X110582483Y-86494091D01*
X110717331Y-86443796D01*
X110832546Y-86357546D01*
X110918796Y-86242331D01*
X110969091Y-86107483D01*
X110975500Y-86047873D01*
X110975499Y-85252128D01*
X110969091Y-85192517D01*
X110944095Y-85125500D01*
X110918797Y-85057671D01*
X110918793Y-85057664D01*
X110832547Y-84942455D01*
X110832544Y-84942452D01*
X110717335Y-84856206D01*
X110717328Y-84856202D01*
X110582482Y-84805908D01*
X110582483Y-84805908D01*
X110522883Y-84799501D01*
X110522881Y-84799500D01*
X110522873Y-84799500D01*
X110522864Y-84799500D01*
X109127129Y-84799500D01*
X109127123Y-84799501D01*
X109067516Y-84805908D01*
X108932671Y-84856202D01*
X108932664Y-84856206D01*
X108817455Y-84942452D01*
X108817452Y-84942455D01*
X108731206Y-85057664D01*
X108731202Y-85057671D01*
X108680908Y-85192517D01*
X108674501Y-85252116D01*
X108674501Y-85252123D01*
X108674500Y-85252135D01*
X108400500Y-85252135D01*
X108400500Y-83962486D01*
X115275001Y-83962486D01*
X115285494Y-84065196D01*
X115340641Y-84231619D01*
X115340643Y-84231624D01*
X115432684Y-84380845D01*
X115556654Y-84504815D01*
X115705875Y-84596856D01*
X115705880Y-84596858D01*
X115872302Y-84652005D01*
X115872309Y-84652006D01*
X115975019Y-84662499D01*
X116249999Y-84662499D01*
X116250000Y-84662498D01*
X116250000Y-83825000D01*
X115275001Y-83825000D01*
X115275001Y-83962486D01*
X108400500Y-83962486D01*
X108400500Y-74547844D01*
X110000000Y-74547844D01*
X110006401Y-74607372D01*
X110006403Y-74607379D01*
X110056645Y-74742086D01*
X110056649Y-74742093D01*
X110142809Y-74857187D01*
X110142812Y-74857190D01*
X110257906Y-74943350D01*
X110257913Y-74943354D01*
X110392620Y-74993596D01*
X110392627Y-74993598D01*
X110452155Y-74999999D01*
X110452172Y-75000000D01*
X110750000Y-75000000D01*
X111250000Y-75000000D01*
X111547828Y-75000000D01*
X111547844Y-74999999D01*
X111607372Y-74993598D01*
X111607379Y-74993596D01*
X111742086Y-74943354D01*
X111742093Y-74943350D01*
X111857187Y-74857190D01*
X111857190Y-74857187D01*
X111943350Y-74742093D01*
X111943354Y-74742086D01*
X111993596Y-74607379D01*
X111993598Y-74607372D01*
X111999999Y-74547844D01*
X112000000Y-74547827D01*
X112000000Y-74125000D01*
X111250000Y-74125000D01*
X111250000Y-75000000D01*
X110750000Y-75000000D01*
X110750000Y-74125000D01*
X110000000Y-74125000D01*
X110000000Y-74547844D01*
X108400500Y-74547844D01*
X108400500Y-73202155D01*
X110000000Y-73202155D01*
X110000000Y-73625000D01*
X110750000Y-73625000D01*
X111250000Y-73625000D01*
X112000000Y-73625000D01*
X112000000Y-73599986D01*
X114700001Y-73599986D01*
X114710494Y-73702697D01*
X114765641Y-73869119D01*
X114765643Y-73869124D01*
X114857684Y-74018345D01*
X114981654Y-74142315D01*
X115130875Y-74234356D01*
X115130880Y-74234358D01*
X115297302Y-74289505D01*
X115297309Y-74289506D01*
X115400019Y-74299999D01*
X115749999Y-74299999D01*
X115750000Y-74299998D01*
X115750000Y-72550000D01*
X114700001Y-72550000D01*
X114700001Y-73599986D01*
X112000000Y-73599986D01*
X112000000Y-73202172D01*
X111999999Y-73202155D01*
X111993598Y-73142627D01*
X111993596Y-73142620D01*
X111943354Y-73007913D01*
X111943350Y-73007906D01*
X111857190Y-72892812D01*
X111857187Y-72892809D01*
X111742093Y-72806649D01*
X111742086Y-72806645D01*
X111607379Y-72756403D01*
X111607372Y-72756401D01*
X111547844Y-72750000D01*
X111250000Y-72750000D01*
X111250000Y-73625000D01*
X110750000Y-73625000D01*
X110750000Y-72750000D01*
X110452155Y-72750000D01*
X110392627Y-72756401D01*
X110392620Y-72756403D01*
X110257913Y-72806645D01*
X110257906Y-72806649D01*
X110142812Y-72892809D01*
X110142809Y-72892812D01*
X110056649Y-73007906D01*
X110056645Y-73007913D01*
X110006403Y-73142620D01*
X110006401Y-73142627D01*
X110000000Y-73202155D01*
X108400500Y-73202155D01*
X108400500Y-71000013D01*
X114700000Y-71000013D01*
X114700000Y-72050000D01*
X115750000Y-72050000D01*
X115750000Y-70300000D01*
X115400028Y-70300000D01*
X115400012Y-70300001D01*
X115297302Y-70310494D01*
X115130880Y-70365641D01*
X115130875Y-70365643D01*
X114981654Y-70457684D01*
X114857684Y-70581654D01*
X114765643Y-70730875D01*
X114765641Y-70730880D01*
X114710494Y-70897302D01*
X114710493Y-70897309D01*
X114700000Y-71000013D01*
X108400500Y-71000013D01*
X108400500Y-65475321D01*
X110249500Y-65475321D01*
X110249500Y-66774678D01*
X110264032Y-66847735D01*
X110264033Y-66847739D01*
X110279936Y-66871540D01*
X110319399Y-66930601D01*
X110388858Y-66977011D01*
X110402260Y-66985966D01*
X110402264Y-66985967D01*
X110475321Y-67000499D01*
X110475324Y-67000500D01*
X110475326Y-67000500D01*
X111524676Y-67000500D01*
X111524677Y-67000499D01*
X111597740Y-66985966D01*
X111680601Y-66930601D01*
X111735966Y-66847740D01*
X111750500Y-66774674D01*
X111750500Y-66074500D01*
X111770185Y-66007461D01*
X111822989Y-65961706D01*
X111874500Y-65950500D01*
X113167209Y-65950500D01*
X113234248Y-65970185D01*
X113280003Y-66022989D01*
X113283391Y-66031167D01*
X113306202Y-66092328D01*
X113306206Y-66092335D01*
X113392452Y-66207544D01*
X113392455Y-66207547D01*
X113507664Y-66293793D01*
X113507671Y-66293797D01*
X113518825Y-66297957D01*
X113642517Y-66344091D01*
X113702127Y-66350500D01*
X114362034Y-66350499D01*
X114391480Y-66359145D01*
X114421461Y-66365667D01*
X114426474Y-66369419D01*
X114429073Y-66370183D01*
X114449715Y-66386818D01*
X114621063Y-66558166D01*
X114654548Y-66619489D01*
X114649564Y-66689181D01*
X114647943Y-66693299D01*
X114599500Y-66810251D01*
X114599497Y-66810261D01*
X114574500Y-66935928D01*
X114574500Y-66935931D01*
X114574500Y-67064069D01*
X114574500Y-67064071D01*
X114574499Y-67064071D01*
X114599497Y-67189738D01*
X114599499Y-67189744D01*
X114648533Y-67308124D01*
X114648538Y-67308133D01*
X114719723Y-67414668D01*
X114719726Y-67414672D01*
X114810327Y-67505273D01*
X114810331Y-67505276D01*
X114916866Y-67576461D01*
X114916872Y-67576464D01*
X114916873Y-67576465D01*
X115035256Y-67625501D01*
X115035260Y-67625501D01*
X115035261Y-67625502D01*
X115160928Y-67650500D01*
X115160931Y-67650500D01*
X115289071Y-67650500D01*
X115373615Y-67633682D01*
X115414744Y-67625501D01*
X115533127Y-67576465D01*
X115639669Y-67505276D01*
X115730276Y-67414669D01*
X115801465Y-67308127D01*
X115850501Y-67189744D01*
X115873034Y-67076466D01*
X115875500Y-67064071D01*
X115875500Y-66935928D01*
X115850502Y-66810261D01*
X115850501Y-66810260D01*
X115850501Y-66810256D01*
X115801465Y-66691873D01*
X115801464Y-66691872D01*
X115801461Y-66691866D01*
X115730276Y-66585331D01*
X115730273Y-66585327D01*
X115711819Y-66566873D01*
X115678334Y-66505550D01*
X115675500Y-66479192D01*
X115675500Y-66465693D01*
X115675500Y-66465691D01*
X115649704Y-66369419D01*
X115644800Y-66351117D01*
X115644799Y-66351114D01*
X115644799Y-66351113D01*
X115585489Y-66248386D01*
X115186818Y-65849715D01*
X115153333Y-65788392D01*
X115150499Y-65762034D01*
X115150499Y-65102127D01*
X115150498Y-65102123D01*
X115150497Y-65102116D01*
X115144091Y-65042517D01*
X115133971Y-65015385D01*
X115093797Y-64907671D01*
X115093793Y-64907664D01*
X115007547Y-64792455D01*
X115007544Y-64792452D01*
X114892335Y-64706206D01*
X114892328Y-64706202D01*
X114757482Y-64655908D01*
X114757483Y-64655908D01*
X114697883Y-64649501D01*
X114697881Y-64649500D01*
X114697873Y-64649500D01*
X114697864Y-64649500D01*
X113702129Y-64649500D01*
X113702123Y-64649501D01*
X113642516Y-64655908D01*
X113507671Y-64706202D01*
X113507664Y-64706206D01*
X113392455Y-64792452D01*
X113392452Y-64792455D01*
X113306206Y-64907664D01*
X113306202Y-64907671D01*
X113283391Y-64968833D01*
X113241520Y-65024767D01*
X113176056Y-65049184D01*
X113167209Y-65049500D01*
X111565691Y-65049500D01*
X111496944Y-65067920D01*
X111451112Y-65080201D01*
X111451111Y-65080202D01*
X111413137Y-65102127D01*
X111348389Y-65139509D01*
X111348383Y-65139513D01*
X111274716Y-65213181D01*
X111213393Y-65246666D01*
X111187035Y-65249500D01*
X110475323Y-65249500D01*
X110402264Y-65264032D01*
X110402260Y-65264033D01*
X110319399Y-65319399D01*
X110264033Y-65402260D01*
X110264032Y-65402264D01*
X110249500Y-65475321D01*
X108400500Y-65475321D01*
X108400500Y-63854875D01*
X108400882Y-63845146D01*
X108403028Y-63817877D01*
X108416349Y-63648613D01*
X108419391Y-63629407D01*
X108464273Y-63442460D01*
X108470279Y-63423976D01*
X108543854Y-63246351D01*
X108552687Y-63229017D01*
X108601452Y-63149441D01*
X108653133Y-63065103D01*
X108664568Y-63049365D01*
X108670417Y-63042517D01*
X108789426Y-62903173D01*
X108803173Y-62889426D01*
X108949367Y-62764565D01*
X108965106Y-62753132D01*
X108971033Y-62749500D01*
X109129020Y-62652685D01*
X109146351Y-62643854D01*
X109323976Y-62570279D01*
X109342460Y-62564273D01*
X109529407Y-62519391D01*
X109548613Y-62516349D01*
X109745146Y-62500881D01*
X109754875Y-62500500D01*
X109815892Y-62500500D01*
X113409897Y-62500500D01*
X113476936Y-62520185D01*
G37*
%TD.AperFunction*%
%TA.AperFunction,Conductor*%
G36*
X124018363Y-91020185D02*
G01*
X124039005Y-91036819D01*
X124202449Y-91200263D01*
X124209948Y-91213997D01*
X124221404Y-91224661D01*
X124226350Y-91244035D01*
X124235934Y-91261586D01*
X124234817Y-91277196D01*
X124238689Y-91292359D01*
X124232426Y-91327093D01*
X124229482Y-91335940D01*
X124189354Y-91414696D01*
X124176706Y-91494552D01*
X124173485Y-91504233D01*
X124133641Y-91561629D01*
X124069093Y-91588372D01*
X124008375Y-91579645D01*
X123887524Y-91529587D01*
X123887512Y-91529584D01*
X123713646Y-91495000D01*
X123536353Y-91495000D01*
X123362487Y-91529584D01*
X123362479Y-91529586D01*
X123198691Y-91597429D01*
X123188076Y-91604521D01*
X123188076Y-91604522D01*
X124155465Y-92571911D01*
X124188950Y-92633234D01*
X124190257Y-92678990D01*
X124174500Y-92778475D01*
X124174500Y-93141517D01*
X124189354Y-93235307D01*
X124198711Y-93253670D01*
X124211607Y-93322339D01*
X124185330Y-93387080D01*
X124175908Y-93397645D01*
X123978553Y-93595000D01*
X124175908Y-93792354D01*
X124209393Y-93853677D01*
X124204409Y-93923368D01*
X124198713Y-93936327D01*
X124189352Y-93954698D01*
X124174500Y-94048475D01*
X124174500Y-94411517D01*
X124180366Y-94448554D01*
X124189202Y-94504345D01*
X124190258Y-94511009D01*
X124181302Y-94580303D01*
X124155465Y-94618087D01*
X123801777Y-94971777D01*
X123188075Y-95585476D01*
X123188075Y-95585477D01*
X123198684Y-95592567D01*
X123198689Y-95592569D01*
X123362479Y-95660413D01*
X123362487Y-95660415D01*
X123536353Y-95694999D01*
X123536357Y-95695000D01*
X123713643Y-95695000D01*
X123713646Y-95694999D01*
X123887512Y-95660415D01*
X123887520Y-95660413D01*
X124008375Y-95610354D01*
X124077845Y-95602885D01*
X124140324Y-95634160D01*
X124172073Y-95681751D01*
X124176371Y-95693326D01*
X124189354Y-95775304D01*
X124246950Y-95888342D01*
X124249867Y-95891259D01*
X124256208Y-95908336D01*
X124258168Y-95936312D01*
X124263344Y-95963874D01*
X124260576Y-95970692D01*
X124261091Y-95978035D01*
X124247613Y-96002630D01*
X124237068Y-96028614D01*
X124231052Y-96032854D01*
X124227516Y-96039309D01*
X124202884Y-96052712D01*
X124179962Y-96068872D01*
X124170221Y-96070485D01*
X124166144Y-96072705D01*
X124159678Y-96072233D01*
X124139963Y-96075500D01*
X121710037Y-96075500D01*
X121642998Y-96055815D01*
X121597243Y-96003011D01*
X121587299Y-95933853D01*
X121599553Y-95895204D01*
X121603048Y-95888343D01*
X121603050Y-95888342D01*
X121660646Y-95775304D01*
X121671699Y-95705514D01*
X121701627Y-95642383D01*
X121760938Y-95605451D01*
X121830801Y-95606448D01*
X121841625Y-95610354D01*
X121962479Y-95660413D01*
X121962487Y-95660415D01*
X122136353Y-95694999D01*
X122136357Y-95695000D01*
X122313643Y-95695000D01*
X122313646Y-95694999D01*
X122487512Y-95660415D01*
X122487524Y-95660412D01*
X122651306Y-95592572D01*
X122661922Y-95585476D01*
X122661923Y-95585476D01*
X122048223Y-94971777D01*
X121836636Y-94760190D01*
X122050000Y-94760190D01*
X122050000Y-94829810D01*
X122076643Y-94894129D01*
X122125871Y-94943357D01*
X122190190Y-94970000D01*
X122259810Y-94970000D01*
X122324129Y-94943357D01*
X122373357Y-94894129D01*
X122400000Y-94829810D01*
X122400000Y-94795000D01*
X122578554Y-94795000D01*
X122925000Y-95141446D01*
X123271446Y-94795000D01*
X123236636Y-94760190D01*
X123450000Y-94760190D01*
X123450000Y-94829810D01*
X123476643Y-94894129D01*
X123525871Y-94943357D01*
X123590190Y-94970000D01*
X123659810Y-94970000D01*
X123724129Y-94943357D01*
X123773357Y-94894129D01*
X123800000Y-94829810D01*
X123800000Y-94760190D01*
X123773357Y-94695871D01*
X123724129Y-94646643D01*
X123659810Y-94620000D01*
X123590190Y-94620000D01*
X123525871Y-94646643D01*
X123476643Y-94695871D01*
X123450000Y-94760190D01*
X123236636Y-94760190D01*
X122925000Y-94448554D01*
X122578554Y-94795000D01*
X122400000Y-94795000D01*
X122400000Y-94760190D01*
X122373357Y-94695871D01*
X122324129Y-94646643D01*
X122259810Y-94620000D01*
X122190190Y-94620000D01*
X122125871Y-94646643D01*
X122076643Y-94695871D01*
X122050000Y-94760190D01*
X121836636Y-94760190D01*
X121404679Y-94328233D01*
X121371194Y-94266910D01*
X121368360Y-94240552D01*
X121368360Y-94195000D01*
X121978554Y-94195000D01*
X122225000Y-94441446D01*
X122471446Y-94195000D01*
X123378554Y-94195000D01*
X123625000Y-94441446D01*
X123871446Y-94195000D01*
X123625000Y-93948554D01*
X123378554Y-94195000D01*
X122471446Y-94195000D01*
X122225000Y-93948554D01*
X121978554Y-94195000D01*
X121368360Y-94195000D01*
X121368360Y-94149448D01*
X121388045Y-94082409D01*
X121404679Y-94061767D01*
X121871446Y-93595000D01*
X121836636Y-93560190D01*
X122050000Y-93560190D01*
X122050000Y-93629810D01*
X122076643Y-93694129D01*
X122125871Y-93743357D01*
X122190190Y-93770000D01*
X122259810Y-93770000D01*
X122324129Y-93743357D01*
X122373357Y-93694129D01*
X122400000Y-93629810D01*
X122400000Y-93595000D01*
X122578554Y-93595000D01*
X122925000Y-93941446D01*
X123271446Y-93595000D01*
X123236636Y-93560190D01*
X123450000Y-93560190D01*
X123450000Y-93629810D01*
X123476643Y-93694129D01*
X123525871Y-93743357D01*
X123590190Y-93770000D01*
X123659810Y-93770000D01*
X123724129Y-93743357D01*
X123773357Y-93694129D01*
X123800000Y-93629810D01*
X123800000Y-93560190D01*
X123773357Y-93495871D01*
X123724129Y-93446643D01*
X123659810Y-93420000D01*
X123590190Y-93420000D01*
X123525871Y-93446643D01*
X123476643Y-93495871D01*
X123450000Y-93560190D01*
X123236636Y-93560190D01*
X122925000Y-93248554D01*
X122578554Y-93595000D01*
X122400000Y-93595000D01*
X122400000Y-93560190D01*
X122373357Y-93495871D01*
X122324129Y-93446643D01*
X122259810Y-93420000D01*
X122190190Y-93420000D01*
X122125871Y-93446643D01*
X122076643Y-93495871D01*
X122050000Y-93560190D01*
X121836636Y-93560190D01*
X121674091Y-93397645D01*
X121640606Y-93336322D01*
X121645590Y-93266630D01*
X121651279Y-93253687D01*
X121660646Y-93235304D01*
X121660909Y-93233647D01*
X121675499Y-93141524D01*
X121675500Y-93141519D01*
X121675500Y-92995000D01*
X121978554Y-92995000D01*
X122225000Y-93241446D01*
X122471446Y-92995000D01*
X123378554Y-92995000D01*
X123625000Y-93241446D01*
X123871446Y-92995000D01*
X123625000Y-92748554D01*
X123378554Y-92995000D01*
X122471446Y-92995000D01*
X122225000Y-92748554D01*
X121978554Y-92995000D01*
X121675500Y-92995000D01*
X121675499Y-92778482D01*
X121675499Y-92778481D01*
X121675499Y-92778476D01*
X121659742Y-92678988D01*
X121668697Y-92609695D01*
X121694534Y-92571909D01*
X121906254Y-92360190D01*
X122050000Y-92360190D01*
X122050000Y-92429810D01*
X122076643Y-92494129D01*
X122125871Y-92543357D01*
X122190190Y-92570000D01*
X122259810Y-92570000D01*
X122324129Y-92543357D01*
X122373357Y-92494129D01*
X122400000Y-92429810D01*
X122400000Y-92395000D01*
X122578554Y-92395000D01*
X122925000Y-92741446D01*
X123271446Y-92395000D01*
X123236636Y-92360190D01*
X123450000Y-92360190D01*
X123450000Y-92429810D01*
X123476643Y-92494129D01*
X123525871Y-92543357D01*
X123590190Y-92570000D01*
X123659810Y-92570000D01*
X123724129Y-92543357D01*
X123773357Y-92494129D01*
X123800000Y-92429810D01*
X123800000Y-92360190D01*
X123773357Y-92295871D01*
X123724129Y-92246643D01*
X123659810Y-92220000D01*
X123590190Y-92220000D01*
X123525871Y-92246643D01*
X123476643Y-92295871D01*
X123450000Y-92360190D01*
X123236636Y-92360190D01*
X122925000Y-92048554D01*
X122578554Y-92395000D01*
X122400000Y-92395000D01*
X122400000Y-92360190D01*
X122373357Y-92295871D01*
X122324129Y-92246643D01*
X122259810Y-92220000D01*
X122190190Y-92220000D01*
X122125871Y-92246643D01*
X122076643Y-92295871D01*
X122050000Y-92360190D01*
X121906254Y-92360190D01*
X122010489Y-92255956D01*
X122010491Y-92255954D01*
X122048223Y-92218223D01*
X122661923Y-91604522D01*
X122651311Y-91597430D01*
X122487520Y-91529586D01*
X122487512Y-91529584D01*
X122313646Y-91495000D01*
X122136360Y-91495000D01*
X122061134Y-91509963D01*
X121991542Y-91503735D01*
X121936365Y-91460871D01*
X121917866Y-91422939D01*
X121876281Y-91279802D01*
X121821766Y-91187621D01*
X121804583Y-91119897D01*
X121826743Y-91053635D01*
X121881209Y-91009871D01*
X121928498Y-91000500D01*
X123951324Y-91000500D01*
X124018363Y-91020185D01*
G37*
%TD.AperFunction*%
%TA.AperFunction,Conductor*%
G36*
X129915972Y-92370185D02*
G01*
X129961727Y-92422989D01*
X129971671Y-92492147D01*
X129965115Y-92517832D01*
X129955909Y-92542514D01*
X129955908Y-92542516D01*
X129949501Y-92602116D01*
X129949501Y-92602123D01*
X129949500Y-92602135D01*
X129949500Y-93397870D01*
X129949501Y-93397876D01*
X129955908Y-93457483D01*
X130006202Y-93592328D01*
X130006206Y-93592335D01*
X130092452Y-93707544D01*
X130092455Y-93707547D01*
X130207664Y-93793793D01*
X130207671Y-93793797D01*
X130252618Y-93810561D01*
X130342517Y-93844091D01*
X130402127Y-93850500D01*
X131072855Y-93850499D01*
X131088343Y-93854648D01*
X131102088Y-93853994D01*
X131134853Y-93867110D01*
X131223193Y-93918113D01*
X131271408Y-93968679D01*
X131284632Y-94037286D01*
X131258664Y-94102151D01*
X131201750Y-94142680D01*
X131161193Y-94149500D01*
X130402129Y-94149500D01*
X130402123Y-94149501D01*
X130342516Y-94155908D01*
X130207671Y-94206202D01*
X130207664Y-94206206D01*
X130092457Y-94292451D01*
X130092451Y-94292457D01*
X130049515Y-94349812D01*
X129993581Y-94391682D01*
X129950249Y-94399500D01*
X129365393Y-94399500D01*
X129298354Y-94379815D01*
X129266127Y-94349812D01*
X129244182Y-94320498D01*
X129232546Y-94304954D01*
X129232544Y-94304953D01*
X129232544Y-94304952D01*
X129117335Y-94218706D01*
X129117329Y-94218703D01*
X129097529Y-94211318D01*
X129041596Y-94169446D01*
X129017179Y-94103982D01*
X129032031Y-94035709D01*
X129081437Y-93986304D01*
X129101860Y-93977430D01*
X129194117Y-93946859D01*
X129194124Y-93946856D01*
X129343345Y-93854815D01*
X129467315Y-93730845D01*
X129559356Y-93581624D01*
X129559358Y-93581619D01*
X129614505Y-93415197D01*
X129614506Y-93415190D01*
X129624999Y-93312486D01*
X129625000Y-93312473D01*
X129625000Y-93175000D01*
X128524000Y-93175000D01*
X128456961Y-93155315D01*
X128411206Y-93102511D01*
X128400000Y-93051000D01*
X128400000Y-92799000D01*
X128419685Y-92731961D01*
X128472489Y-92686206D01*
X128524000Y-92675000D01*
X129624999Y-92675000D01*
X129624999Y-92537528D01*
X129624998Y-92537515D01*
X129619848Y-92487103D01*
X129622650Y-92472028D01*
X129620468Y-92456853D01*
X129628905Y-92438377D01*
X129632617Y-92418410D01*
X129643123Y-92407243D01*
X129649493Y-92393297D01*
X129666578Y-92382316D01*
X129680497Y-92367525D01*
X129696250Y-92363248D01*
X129708271Y-92355523D01*
X129743206Y-92350500D01*
X129848933Y-92350500D01*
X129915972Y-92370185D01*
G37*
%TD.AperFunction*%
%TA.AperFunction,Conductor*%
G36*
X118953275Y-89920185D02*
G01*
X118999030Y-89972989D01*
X119008974Y-90042147D01*
X118989338Y-90093391D01*
X118923538Y-90191866D01*
X118923533Y-90191875D01*
X118874499Y-90310255D01*
X118874497Y-90310261D01*
X118849500Y-90435928D01*
X118849500Y-90435931D01*
X118849500Y-90564069D01*
X118849500Y-90564071D01*
X118849499Y-90564071D01*
X118874497Y-90689738D01*
X118874499Y-90689744D01*
X118923533Y-90808124D01*
X118923538Y-90808133D01*
X118994723Y-90914668D01*
X118994726Y-90914672D01*
X119080621Y-91000567D01*
X119114106Y-91061890D01*
X119109122Y-91131582D01*
X119099672Y-91151368D01*
X119023719Y-91279799D01*
X118977899Y-91437513D01*
X118977704Y-91439998D01*
X118977705Y-91440000D01*
X120326000Y-91440000D01*
X120393039Y-91459685D01*
X120438794Y-91512489D01*
X120450000Y-91564000D01*
X120450000Y-91816000D01*
X120430315Y-91883039D01*
X120377511Y-91928794D01*
X120326000Y-91940000D01*
X118977705Y-91940000D01*
X118977704Y-91940001D01*
X118977899Y-91942488D01*
X118994273Y-91998848D01*
X118994072Y-92068718D01*
X118956130Y-92127387D01*
X118892491Y-92156230D01*
X118823361Y-92146088D01*
X118787515Y-92121123D01*
X118270914Y-91604522D01*
X117386818Y-90720425D01*
X117353333Y-90659102D01*
X117350499Y-90632744D01*
X117350499Y-90502129D01*
X117350498Y-90502123D01*
X117350271Y-90500013D01*
X117344091Y-90442517D01*
X117341633Y-90435928D01*
X117293797Y-90307671D01*
X117293793Y-90307664D01*
X117207547Y-90192455D01*
X117207544Y-90192452D01*
X117115792Y-90123766D01*
X117073921Y-90067832D01*
X117068937Y-89998141D01*
X117102423Y-89936818D01*
X117163746Y-89903334D01*
X117190103Y-89900500D01*
X118886236Y-89900500D01*
X118953275Y-89920185D01*
G37*
%TD.AperFunction*%
%TA.AperFunction,Conductor*%
G36*
X127469903Y-85974185D02*
G01*
X127515658Y-86026989D01*
X127526153Y-86091757D01*
X127524500Y-86107122D01*
X127524500Y-86877870D01*
X127524501Y-86877876D01*
X127530908Y-86937483D01*
X127581202Y-87072328D01*
X127581206Y-87072335D01*
X127667452Y-87187544D01*
X127667455Y-87187547D01*
X127782664Y-87273793D01*
X127782673Y-87273798D01*
X127802468Y-87281181D01*
X127858402Y-87323051D01*
X127882820Y-87388515D01*
X127867969Y-87456788D01*
X127818565Y-87506194D01*
X127798141Y-87515069D01*
X127705878Y-87545642D01*
X127705875Y-87545643D01*
X127556654Y-87637684D01*
X127432684Y-87761654D01*
X127340643Y-87910875D01*
X127340641Y-87910880D01*
X127285494Y-88077302D01*
X127285493Y-88077309D01*
X127275000Y-88180013D01*
X127275000Y-88317500D01*
X128376000Y-88317500D01*
X128443039Y-88337185D01*
X128488794Y-88389989D01*
X128500000Y-88441500D01*
X128500000Y-88693500D01*
X128480315Y-88760539D01*
X128427511Y-88806294D01*
X128376000Y-88817500D01*
X127275001Y-88817500D01*
X127275001Y-88954986D01*
X127285494Y-89057697D01*
X127340641Y-89224119D01*
X127340643Y-89224124D01*
X127432684Y-89373345D01*
X127495158Y-89435819D01*
X127528643Y-89497142D01*
X127523659Y-89566834D01*
X127481787Y-89622767D01*
X127416323Y-89647184D01*
X127407477Y-89647500D01*
X125765255Y-89647500D01*
X125735814Y-89638855D01*
X125705828Y-89632332D01*
X125700812Y-89628577D01*
X125698216Y-89627815D01*
X125677574Y-89611181D01*
X125628573Y-89562180D01*
X125595088Y-89500857D01*
X125600072Y-89431165D01*
X125641944Y-89375232D01*
X125707408Y-89350815D01*
X125716254Y-89350499D01*
X125997871Y-89350499D01*
X125997872Y-89350499D01*
X126057483Y-89344091D01*
X126192331Y-89293796D01*
X126307546Y-89207546D01*
X126393796Y-89092331D01*
X126444091Y-88957483D01*
X126450500Y-88897873D01*
X126450499Y-88102128D01*
X126444091Y-88042517D01*
X126439353Y-88029815D01*
X126393797Y-87907671D01*
X126393793Y-87907664D01*
X126307547Y-87792455D01*
X126307544Y-87792452D01*
X126192335Y-87706206D01*
X126192328Y-87706202D01*
X126057482Y-87655908D01*
X126057483Y-87655908D01*
X125997883Y-87649501D01*
X125997881Y-87649500D01*
X125997873Y-87649500D01*
X125997864Y-87649500D01*
X125002129Y-87649500D01*
X125002123Y-87649501D01*
X124942516Y-87655908D01*
X124807671Y-87706202D01*
X124807664Y-87706206D01*
X124692455Y-87792452D01*
X124692452Y-87792455D01*
X124606206Y-87907664D01*
X124606202Y-87907671D01*
X124583391Y-87968833D01*
X124570121Y-87986559D01*
X124560922Y-88006703D01*
X124549591Y-88013984D01*
X124541520Y-88024767D01*
X124520771Y-88032505D01*
X124502144Y-88044477D01*
X124480227Y-88047628D01*
X124476056Y-88049184D01*
X124467209Y-88049500D01*
X124316255Y-88049500D01*
X124249216Y-88029815D01*
X124203461Y-87977011D01*
X124193517Y-87907853D01*
X124222542Y-87844297D01*
X124228574Y-87837819D01*
X124273941Y-87792452D01*
X124320480Y-87745913D01*
X124373206Y-87654588D01*
X124400500Y-87552727D01*
X124400500Y-87447273D01*
X124373206Y-87345413D01*
X124373206Y-87345412D01*
X124373206Y-87345411D01*
X124320482Y-87254090D01*
X124320478Y-87254085D01*
X124111819Y-87045426D01*
X124078334Y-86984103D01*
X124075500Y-86957745D01*
X124075500Y-86542254D01*
X124095185Y-86475215D01*
X124111815Y-86454577D01*
X124337820Y-86228572D01*
X124399142Y-86195088D01*
X124468834Y-86200072D01*
X124524767Y-86241944D01*
X124549184Y-86307408D01*
X124549500Y-86316254D01*
X124549500Y-86897870D01*
X124549501Y-86897876D01*
X124555908Y-86957483D01*
X124606202Y-87092328D01*
X124606206Y-87092335D01*
X124692452Y-87207544D01*
X124692455Y-87207547D01*
X124807664Y-87293793D01*
X124807671Y-87293797D01*
X124942517Y-87344091D01*
X124942516Y-87344091D01*
X124949444Y-87344835D01*
X125002127Y-87350500D01*
X125997872Y-87350499D01*
X126057483Y-87344091D01*
X126192331Y-87293796D01*
X126307546Y-87207546D01*
X126393796Y-87092331D01*
X126444091Y-86957483D01*
X126450500Y-86897873D01*
X126450499Y-86167255D01*
X126459144Y-86137810D01*
X126465667Y-86107829D01*
X126469420Y-86102815D01*
X126470183Y-86100217D01*
X126486818Y-86079574D01*
X126575575Y-85990818D01*
X126636899Y-85957334D01*
X126663256Y-85954500D01*
X127402864Y-85954500D01*
X127469903Y-85974185D01*
G37*
%TD.AperFunction*%
%TA.AperFunction,Conductor*%
G36*
X131813039Y-88319685D02*
G01*
X131858794Y-88372489D01*
X131870000Y-88424000D01*
X131870000Y-89100000D01*
X132198134Y-89100000D01*
X132198142Y-89099999D01*
X132221754Y-89098141D01*
X132290131Y-89112504D01*
X132339889Y-89161555D01*
X132355229Y-89229720D01*
X132331281Y-89295357D01*
X132319166Y-89309440D01*
X132017426Y-89611181D01*
X131956103Y-89644666D01*
X131929745Y-89647500D01*
X129592523Y-89647500D01*
X129525484Y-89627815D01*
X129479729Y-89575011D01*
X129469785Y-89505853D01*
X129498810Y-89442297D01*
X129504842Y-89435819D01*
X129567315Y-89373345D01*
X129659356Y-89224124D01*
X129659356Y-89224122D01*
X129675905Y-89174181D01*
X129715677Y-89116735D01*
X129780192Y-89089911D01*
X129848968Y-89102225D01*
X129896714Y-89144291D01*
X129914342Y-89170673D01*
X130004943Y-89261274D01*
X130004947Y-89261277D01*
X130111482Y-89332462D01*
X130111488Y-89332465D01*
X130111489Y-89332466D01*
X130229872Y-89381502D01*
X130229876Y-89381502D01*
X130229877Y-89381503D01*
X130320349Y-89399500D01*
X130320352Y-89399500D01*
X130355547Y-89406501D01*
X130483685Y-89406501D01*
X130518880Y-89399500D01*
X130518883Y-89399500D01*
X130584478Y-89386451D01*
X130609360Y-89381502D01*
X130727743Y-89332466D01*
X130834285Y-89261277D01*
X130924892Y-89170670D01*
X130935315Y-89155069D01*
X130988924Y-89110266D01*
X131039423Y-89100793D01*
X131039423Y-89100000D01*
X131370000Y-89100000D01*
X131370000Y-88424000D01*
X131389685Y-88356961D01*
X131442489Y-88311206D01*
X131494000Y-88300000D01*
X131746000Y-88300000D01*
X131813039Y-88319685D01*
G37*
%TD.AperFunction*%
%TA.AperFunction,Conductor*%
G36*
X145341490Y-66675185D02*
G01*
X145362132Y-66691819D01*
X150513181Y-71842868D01*
X150546666Y-71904191D01*
X150549500Y-71930549D01*
X150549500Y-73352827D01*
X150529815Y-73419866D01*
X150477011Y-73465621D01*
X150407853Y-73475565D01*
X150356609Y-73455929D01*
X150308133Y-73423538D01*
X150308124Y-73423533D01*
X150189744Y-73374499D01*
X150189738Y-73374497D01*
X150064071Y-73349500D01*
X150064069Y-73349500D01*
X149975964Y-73349500D01*
X149908925Y-73329815D01*
X149863170Y-73277011D01*
X149853226Y-73207853D01*
X149856887Y-73190906D01*
X149897100Y-73052488D01*
X149897295Y-73050001D01*
X149897295Y-73050000D01*
X147339727Y-73050000D01*
X147308791Y-73068504D01*
X147238957Y-73066259D01*
X147230246Y-73063027D01*
X147189748Y-73046252D01*
X147189738Y-73046249D01*
X147064071Y-73021252D01*
X147064069Y-73021252D01*
X146935931Y-73021252D01*
X146935929Y-73021252D01*
X146810261Y-73046249D01*
X146810255Y-73046251D01*
X146691875Y-73095285D01*
X146691866Y-73095290D01*
X146585331Y-73166475D01*
X146585327Y-73166478D01*
X146494726Y-73257079D01*
X146494723Y-73257083D01*
X146423538Y-73363618D01*
X146423533Y-73363627D01*
X146374499Y-73482007D01*
X146374497Y-73482013D01*
X146349500Y-73607680D01*
X146349500Y-73607683D01*
X146349500Y-73735821D01*
X146349500Y-73735823D01*
X146349499Y-73735823D01*
X146374497Y-73861490D01*
X146374499Y-73861496D01*
X146423533Y-73979876D01*
X146423538Y-73979885D01*
X146494723Y-74086420D01*
X146494726Y-74086424D01*
X146585327Y-74177025D01*
X146585331Y-74177028D01*
X146691866Y-74248213D01*
X146691875Y-74248218D01*
X146709511Y-74255523D01*
X146810256Y-74297253D01*
X146810260Y-74297253D01*
X146810261Y-74297254D01*
X146935928Y-74322252D01*
X146935931Y-74322252D01*
X147064071Y-74322252D01*
X147175944Y-74299998D01*
X147189744Y-74297253D01*
X147279827Y-74259938D01*
X147288004Y-74258312D01*
X147292345Y-74255523D01*
X147327280Y-74250500D01*
X147551715Y-74250500D01*
X147618754Y-74270185D01*
X147664509Y-74322989D01*
X147674453Y-74392147D01*
X147662199Y-74430795D01*
X147614354Y-74524693D01*
X147614352Y-74524698D01*
X147599500Y-74618475D01*
X147599500Y-74981518D01*
X147611313Y-75056104D01*
X147602357Y-75125397D01*
X147557360Y-75178849D01*
X147490608Y-75199487D01*
X147488839Y-75199500D01*
X146774767Y-75199500D01*
X146727315Y-75190061D01*
X146689748Y-75174500D01*
X146689738Y-75174497D01*
X146564071Y-75149500D01*
X146564069Y-75149500D01*
X146435931Y-75149500D01*
X146435929Y-75149500D01*
X146310261Y-75174497D01*
X146310251Y-75174500D01*
X146272685Y-75190061D01*
X146264508Y-75191687D01*
X146260168Y-75194477D01*
X146225233Y-75199500D01*
X146100097Y-75199500D01*
X146033058Y-75179815D01*
X146012416Y-75163181D01*
X145036819Y-74187584D01*
X145003334Y-74126261D01*
X145000500Y-74099903D01*
X145000500Y-74079749D01*
X145020185Y-74012710D01*
X145050190Y-73980482D01*
X145107546Y-73937546D01*
X145193796Y-73822331D01*
X145244091Y-73687483D01*
X145250500Y-73627873D01*
X145250499Y-73419808D01*
X145270183Y-73352769D01*
X145286813Y-73332132D01*
X146068948Y-72549998D01*
X147352704Y-72549998D01*
X147352705Y-72550000D01*
X148375000Y-72550000D01*
X148875000Y-72550000D01*
X149897295Y-72550000D01*
X149897295Y-72549998D01*
X149897100Y-72547513D01*
X149851281Y-72389801D01*
X149767685Y-72248447D01*
X149767678Y-72248438D01*
X149651561Y-72132321D01*
X149651552Y-72132314D01*
X149510196Y-72048717D01*
X149510193Y-72048716D01*
X149352495Y-72002900D01*
X149352489Y-72002899D01*
X149315649Y-72000000D01*
X148875000Y-72000000D01*
X148875000Y-72550000D01*
X148375000Y-72550000D01*
X148375000Y-72000000D01*
X147934350Y-72000000D01*
X147897510Y-72002899D01*
X147897504Y-72002900D01*
X147739806Y-72048716D01*
X147739803Y-72048717D01*
X147598447Y-72132314D01*
X147598438Y-72132321D01*
X147482321Y-72248438D01*
X147482314Y-72248447D01*
X147398718Y-72389801D01*
X147352899Y-72547513D01*
X147352704Y-72549998D01*
X146068948Y-72549998D01*
X146809506Y-71809440D01*
X146809511Y-71809436D01*
X146819714Y-71799232D01*
X146819716Y-71799232D01*
X146931520Y-71687428D01*
X147004808Y-71560489D01*
X147010577Y-71550497D01*
X147051500Y-71397769D01*
X147051500Y-71239655D01*
X147051500Y-69801943D01*
X147010577Y-69649216D01*
X147010577Y-69649215D01*
X146970071Y-69579057D01*
X146931520Y-69512284D01*
X146819716Y-69400480D01*
X146815385Y-69396149D01*
X146815374Y-69396139D01*
X146186818Y-68767583D01*
X146153333Y-68706260D01*
X146150499Y-68679902D01*
X146150499Y-68232129D01*
X146150498Y-68232123D01*
X146150497Y-68232116D01*
X146144091Y-68172517D01*
X146135076Y-68148347D01*
X146093797Y-68037671D01*
X146093793Y-68037664D01*
X146007547Y-67922455D01*
X146007544Y-67922452D01*
X145892335Y-67836206D01*
X145892328Y-67836202D01*
X145757482Y-67785908D01*
X145757483Y-67785908D01*
X145697883Y-67779501D01*
X145697881Y-67779500D01*
X145697873Y-67779500D01*
X145697864Y-67779500D01*
X144702129Y-67779500D01*
X144702123Y-67779501D01*
X144642516Y-67785908D01*
X144507671Y-67836202D01*
X144507664Y-67836206D01*
X144392455Y-67922452D01*
X144392452Y-67922455D01*
X144306206Y-68037664D01*
X144306202Y-68037671D01*
X144255908Y-68172517D01*
X144250676Y-68221185D01*
X144249501Y-68232123D01*
X144249500Y-68232135D01*
X144249500Y-69027870D01*
X144249501Y-69027876D01*
X144255908Y-69087483D01*
X144306202Y-69222328D01*
X144306206Y-69222335D01*
X144392452Y-69337544D01*
X144392455Y-69337547D01*
X144507664Y-69423793D01*
X144507671Y-69423797D01*
X144526155Y-69430691D01*
X144642517Y-69474091D01*
X144702127Y-69480500D01*
X145149902Y-69480499D01*
X145179348Y-69489145D01*
X145209329Y-69495667D01*
X145214342Y-69499419D01*
X145216941Y-69500183D01*
X145237583Y-69516818D01*
X145288584Y-69567819D01*
X145322069Y-69629142D01*
X145317085Y-69698834D01*
X145275213Y-69754767D01*
X145209749Y-69779184D01*
X145200903Y-69779500D01*
X144702129Y-69779500D01*
X144702123Y-69779501D01*
X144642516Y-69785908D01*
X144507671Y-69836202D01*
X144507664Y-69836206D01*
X144392455Y-69922452D01*
X144392452Y-69922455D01*
X144306206Y-70037664D01*
X144306202Y-70037671D01*
X144283391Y-70098833D01*
X144241520Y-70154767D01*
X144176056Y-70179184D01*
X144167209Y-70179500D01*
X143532791Y-70179500D01*
X143465752Y-70159815D01*
X143419997Y-70107011D01*
X143416609Y-70098833D01*
X143393797Y-70037671D01*
X143393793Y-70037664D01*
X143307547Y-69922455D01*
X143307544Y-69922452D01*
X143192335Y-69836206D01*
X143192328Y-69836202D01*
X143057482Y-69785908D01*
X143057483Y-69785908D01*
X142997883Y-69779501D01*
X142997881Y-69779500D01*
X142997873Y-69779500D01*
X142997864Y-69779500D01*
X142002129Y-69779500D01*
X142002123Y-69779501D01*
X141942516Y-69785908D01*
X141807671Y-69836202D01*
X141807664Y-69836206D01*
X141692455Y-69922452D01*
X141692452Y-69922455D01*
X141606206Y-70037664D01*
X141606202Y-70037671D01*
X141583391Y-70098833D01*
X141541520Y-70154767D01*
X141476056Y-70179184D01*
X141467209Y-70179500D01*
X140469688Y-70179500D01*
X140402649Y-70159815D01*
X140356894Y-70107011D01*
X140346950Y-70037853D01*
X140366586Y-69986610D01*
X140425964Y-69897743D01*
X140425964Y-69897742D01*
X140425966Y-69897740D01*
X140440500Y-69824674D01*
X140440500Y-68575326D01*
X140440500Y-68575323D01*
X140440499Y-68575321D01*
X140425967Y-68502264D01*
X140425966Y-68502260D01*
X140370601Y-68419399D01*
X140287740Y-68364034D01*
X140287739Y-68364033D01*
X140287735Y-68364032D01*
X140214677Y-68349500D01*
X140214674Y-68349500D01*
X138576965Y-68349500D01*
X138555719Y-68343261D01*
X138533631Y-68341682D01*
X138522847Y-68333609D01*
X138509926Y-68329815D01*
X138495426Y-68313081D01*
X138477698Y-68299810D01*
X138472990Y-68287189D01*
X138464171Y-68277011D01*
X138461019Y-68255093D01*
X138453281Y-68234346D01*
X138456143Y-68221185D01*
X138454227Y-68207853D01*
X138463426Y-68187709D01*
X138468133Y-68166073D01*
X138481401Y-68148347D01*
X138483252Y-68144297D01*
X138489284Y-68137819D01*
X138540284Y-68086819D01*
X138601607Y-68053334D01*
X138627965Y-68050500D01*
X140214676Y-68050500D01*
X140214677Y-68050499D01*
X140287740Y-68035966D01*
X140370601Y-67980601D01*
X140425966Y-67897740D01*
X140440500Y-67824674D01*
X140440500Y-67140491D01*
X140460185Y-67073452D01*
X140512989Y-67027697D01*
X140582147Y-67017753D01*
X140633391Y-67037389D01*
X140691866Y-67076461D01*
X140691872Y-67076464D01*
X140691873Y-67076465D01*
X140810256Y-67125501D01*
X140810260Y-67125501D01*
X140810261Y-67125502D01*
X140935928Y-67150500D01*
X140935931Y-67150500D01*
X141064071Y-67150500D01*
X141148615Y-67133682D01*
X141189744Y-67125501D01*
X141308127Y-67076465D01*
X141414669Y-67005276D01*
X141505276Y-66914669D01*
X141505278Y-66914665D01*
X141509140Y-66909961D01*
X141510481Y-66911061D01*
X141557743Y-66871540D01*
X141627065Y-66862812D01*
X141690102Y-66892947D01*
X141694948Y-66897540D01*
X141697455Y-66900047D01*
X141812664Y-66986293D01*
X141812671Y-66986297D01*
X141829407Y-66992539D01*
X141947517Y-67036591D01*
X141968756Y-67038874D01*
X142033304Y-67065610D01*
X142073154Y-67123002D01*
X142079500Y-67162163D01*
X142079500Y-67659798D01*
X142059815Y-67726837D01*
X142007011Y-67772592D01*
X141968755Y-67783087D01*
X141942520Y-67785907D01*
X141807671Y-67836202D01*
X141807664Y-67836206D01*
X141692455Y-67922452D01*
X141692452Y-67922455D01*
X141606206Y-68037664D01*
X141606202Y-68037671D01*
X141555908Y-68172517D01*
X141550676Y-68221185D01*
X141549501Y-68232123D01*
X141549500Y-68232135D01*
X141549500Y-69027870D01*
X141549501Y-69027876D01*
X141555908Y-69087483D01*
X141606202Y-69222328D01*
X141606206Y-69222335D01*
X141692452Y-69337544D01*
X141692455Y-69337547D01*
X141807664Y-69423793D01*
X141807671Y-69423797D01*
X141942517Y-69474091D01*
X141942516Y-69474091D01*
X141949444Y-69474835D01*
X142002127Y-69480500D01*
X142997872Y-69480499D01*
X143057483Y-69474091D01*
X143192331Y-69423796D01*
X143307546Y-69337546D01*
X143393796Y-69222331D01*
X143444091Y-69087483D01*
X143450500Y-69027873D01*
X143450499Y-68232128D01*
X143444091Y-68172517D01*
X143435076Y-68148347D01*
X143393797Y-68037671D01*
X143393793Y-68037664D01*
X143307547Y-67922455D01*
X143307544Y-67922452D01*
X143192335Y-67836206D01*
X143192328Y-67836202D01*
X143061167Y-67787282D01*
X143005233Y-67745411D01*
X142980816Y-67679946D01*
X142980500Y-67671100D01*
X142980500Y-67162163D01*
X143000185Y-67095124D01*
X143052989Y-67049369D01*
X143091248Y-67038873D01*
X143112483Y-67036591D01*
X143247331Y-66986296D01*
X143362546Y-66900046D01*
X143448796Y-66784831D01*
X143452584Y-66774674D01*
X143466947Y-66736167D01*
X143508818Y-66680233D01*
X143574283Y-66655816D01*
X143583129Y-66655500D01*
X145274451Y-66655500D01*
X145341490Y-66675185D01*
G37*
%TD.AperFunction*%
%TD*%
M02*
