%TF.GenerationSoftware,KiCad,Pcbnew,9.0.7-9.0.7~ubuntu22.04.1*%
%TF.CreationDate,2026-01-23T00:01:14+05:30*%
%TF.ProjectId,TWIN_NODE2,5457494e-5f4e-44f4-9445-322e6b696361,rev?*%
%TF.SameCoordinates,Original*%
%TF.FileFunction,Paste,Top*%
%TF.FilePolarity,Positive*%
%FSLAX46Y46*%
G04 Gerber Fmt 4.6, Leading zero omitted, Abs format (unit mm)*
G04 Created by KiCad (PCBNEW 9.0.7-9.0.7~ubuntu22.04.1) date 2026-01-23 00:01:14*
%MOMM*%
%LPD*%
G01*
G04 APERTURE LIST*
G04 Aperture macros list*
%AMRoundRect*
0 Rectangle with rounded corners*
0 $1 Rounding radius*
0 $2 $3 $4 $5 $6 $7 $8 $9 X,Y pos of 4 corners*
0 Add a 4 corners polygon primitive as box body*
4,1,4,$2,$3,$4,$5,$6,$7,$8,$9,$2,$3,0*
0 Add four circle primitives for the rounded corners*
1,1,$1+$1,$2,$3*
1,1,$1+$1,$4,$5*
1,1,$1+$1,$6,$7*
1,1,$1+$1,$8,$9*
0 Add four rect primitives between the rounded corners*
20,1,$1+$1,$2,$3,$4,$5,0*
20,1,$1+$1,$4,$5,$6,$7,0*
20,1,$1+$1,$6,$7,$8,$9,0*
20,1,$1+$1,$8,$9,$2,$3,0*%
G04 Aperture macros list end*
%ADD10R,1.000000X1.250000*%
%ADD11RoundRect,0.250000X-0.650000X0.350000X-0.650000X-0.350000X0.650000X-0.350000X0.650000X0.350000X0*%
%ADD12RoundRect,0.150000X-0.625000X0.150000X-0.625000X-0.150000X0.625000X-0.150000X0.625000X0.150000X0*%
%ADD13RoundRect,0.250000X-0.450000X0.350000X-0.450000X-0.350000X0.450000X-0.350000X0.450000X0.350000X0*%
%ADD14R,0.450000X1.380000*%
%ADD15R,1.650000X1.300000*%
%ADD16R,1.425000X1.550000*%
%ADD17R,1.800000X1.900000*%
%ADD18R,1.000000X1.900000*%
%ADD19RoundRect,0.250000X0.550000X-1.250000X0.550000X1.250000X-0.550000X1.250000X-0.550000X-1.250000X0*%
%ADD20RoundRect,0.250000X0.350000X0.450000X-0.350000X0.450000X-0.350000X-0.450000X0.350000X-0.450000X0*%
%ADD21RoundRect,0.250000X0.475000X-0.337500X0.475000X0.337500X-0.475000X0.337500X-0.475000X-0.337500X0*%
%ADD22RoundRect,0.250000X-0.475000X0.337500X-0.475000X-0.337500X0.475000X-0.337500X0.475000X0.337500X0*%
%ADD23RoundRect,0.250000X0.450000X-0.350000X0.450000X0.350000X-0.450000X0.350000X-0.450000X-0.350000X0*%
%ADD24RoundRect,0.050000X-0.730000X-0.150000X0.730000X-0.150000X0.730000X0.150000X-0.730000X0.150000X0*%
%ADD25R,0.650000X1.250000*%
%ADD26R,2.000000X1.200000*%
%ADD27R,1.200000X2.000000*%
%ADD28RoundRect,0.150000X-0.587500X-0.150000X0.587500X-0.150000X0.587500X0.150000X-0.587500X0.150000X0*%
%ADD29RoundRect,0.150000X0.512500X0.150000X-0.512500X0.150000X-0.512500X-0.150000X0.512500X-0.150000X0*%
%ADD30RoundRect,0.250000X-0.350000X-0.450000X0.350000X-0.450000X0.350000X0.450000X-0.350000X0.450000X0*%
%ADD31RoundRect,0.150000X0.625000X-0.150000X0.625000X0.150000X-0.625000X0.150000X-0.625000X-0.150000X0*%
%ADD32RoundRect,0.250000X0.650000X-0.350000X0.650000X0.350000X-0.650000X0.350000X-0.650000X-0.350000X0*%
%ADD33RoundRect,0.250000X-0.255000X-0.440000X0.255000X-0.440000X0.255000X0.440000X-0.255000X0.440000X0*%
%ADD34RoundRect,0.150000X-0.825000X-0.150000X0.825000X-0.150000X0.825000X0.150000X-0.825000X0.150000X0*%
G04 APERTURE END LIST*
D10*
%TO.C,SW1*%
X111000000Y-73875000D03*
X111000000Y-66125000D03*
%TD*%
D11*
%TO.C,J3*%
X109825000Y-89250000D03*
X109825000Y-85650000D03*
D12*
X113700000Y-87950000D03*
X113700000Y-86950000D03*
%TD*%
D10*
%TO.C,SW2*%
X151000000Y-80125000D03*
X151000000Y-87875000D03*
%TD*%
D13*
%TO.C,R6*%
X114200000Y-63500000D03*
X114200000Y-65500000D03*
%TD*%
D14*
%TO.C,J2*%
X139925000Y-93340000D03*
X140575000Y-93340000D03*
X141225000Y-93340000D03*
X141875000Y-93340000D03*
X142525000Y-93340000D03*
D15*
X137850000Y-96000000D03*
D16*
X138737500Y-93425000D03*
D17*
X140075000Y-96000000D03*
D18*
X142775000Y-96000000D03*
D16*
X143712500Y-93425000D03*
D15*
X144600000Y-96000000D03*
%TD*%
D19*
%TO.C,C4*%
X116000000Y-76700000D03*
X116000000Y-72300000D03*
%TD*%
D20*
%TO.C,R15*%
X139500000Y-88500000D03*
X137500000Y-88500000D03*
%TD*%
D21*
%TO.C,C7*%
X142530000Y-66205000D03*
X142530000Y-64130000D03*
%TD*%
D13*
%TO.C,R4*%
X142500000Y-75630000D03*
X142500000Y-77630000D03*
%TD*%
D22*
%TO.C,C3*%
X128500000Y-86492500D03*
X128500000Y-88567500D03*
%TD*%
%TO.C,C8*%
X116500000Y-83575000D03*
X116500000Y-81500000D03*
%TD*%
D23*
%TO.C,R3*%
X130900000Y-95000000D03*
X130900000Y-93000000D03*
%TD*%
%TO.C,R1*%
X114900000Y-95470000D03*
X114900000Y-93470000D03*
%TD*%
D21*
%TO.C,C9*%
X122500000Y-81542500D03*
X122500000Y-83617500D03*
%TD*%
%TO.C,C2*%
X128400000Y-95000000D03*
X128400000Y-92925000D03*
%TD*%
D24*
%TO.C,Q1*%
X116620000Y-86525000D03*
X116620000Y-87175000D03*
X116620000Y-87825000D03*
X116620000Y-88475000D03*
X122380000Y-88475000D03*
X122380000Y-87825000D03*
X122380000Y-87175000D03*
X122380000Y-86525000D03*
%TD*%
D20*
%TO.C,R13*%
X139500000Y-83500000D03*
X137500000Y-83500000D03*
%TD*%
D21*
%TO.C,C5*%
X120000000Y-75055000D03*
X120000000Y-77130000D03*
%TD*%
D22*
%TO.C,C6*%
X119970000Y-63432500D03*
X119970000Y-65507500D03*
%TD*%
D23*
%TO.C,R10*%
X145200000Y-68630000D03*
X145200000Y-70630000D03*
%TD*%
D13*
%TO.C,R8*%
X116970000Y-63500000D03*
X116970000Y-65500000D03*
%TD*%
D20*
%TO.C,R14*%
X139500000Y-86000000D03*
X137500000Y-86000000D03*
%TD*%
D25*
%TO.C,IC1*%
X118620000Y-81575000D03*
X120500000Y-81575000D03*
X120500000Y-84075000D03*
X119560000Y-84075000D03*
X118620000Y-84075000D03*
%TD*%
D26*
%TO.C,U1*%
X123190000Y-63200000D03*
X123190000Y-65200000D03*
X123190000Y-67200000D03*
X123190000Y-69200000D03*
X123190000Y-71200000D03*
X123190000Y-73200000D03*
X123190000Y-75200000D03*
X123190000Y-77200000D03*
D27*
X126190000Y-78680000D03*
X128190000Y-78680000D03*
X130190000Y-78680000D03*
X132190000Y-78680000D03*
X134190000Y-78680000D03*
X136190000Y-78680000D03*
D26*
X139190000Y-77200000D03*
X139190000Y-75200000D03*
X139190000Y-73200000D03*
X139190000Y-71200000D03*
X139190000Y-69200000D03*
X139190000Y-67200000D03*
X139190000Y-65200000D03*
X139190000Y-63200000D03*
%TD*%
D28*
%TO.C,Q2*%
X125625000Y-81550000D03*
X125625000Y-83450000D03*
X127500000Y-82500000D03*
%TD*%
D29*
%TO.C,U3*%
X133895000Y-88300000D03*
X133895000Y-87350000D03*
X133895000Y-86400000D03*
X131620000Y-86400000D03*
X131620000Y-87350000D03*
X131620000Y-88300000D03*
%TD*%
D23*
%TO.C,R11*%
X142500000Y-70630000D03*
X142500000Y-68630000D03*
%TD*%
D30*
%TO.C,R5*%
X142400000Y-73130000D03*
X144400000Y-73130000D03*
%TD*%
D20*
%TO.C,R12*%
X139500000Y-81000000D03*
X137500000Y-81000000D03*
%TD*%
%TO.C,R2*%
X116500000Y-91000000D03*
X114500000Y-91000000D03*
%TD*%
D13*
%TO.C,R9*%
X125500000Y-86500000D03*
X125500000Y-88500000D03*
%TD*%
D21*
%TO.C,C1*%
X117400000Y-95537500D03*
X117400000Y-93462500D03*
%TD*%
D13*
%TO.C,R7*%
X120000000Y-67500000D03*
X120000000Y-69500000D03*
%TD*%
D31*
%TO.C,J4*%
X148625000Y-75800000D03*
X148625000Y-74800000D03*
X148625000Y-73800000D03*
X148625000Y-72800000D03*
D32*
X152500000Y-77100000D03*
X152500000Y-71500000D03*
%TD*%
D33*
%TO.C,U2*%
X122325000Y-92770000D03*
X122325000Y-94420000D03*
X123525000Y-92770000D03*
X123525000Y-94420000D03*
D34*
X120450000Y-91690000D03*
X120450000Y-92960000D03*
X120450000Y-94230000D03*
X120450000Y-95500000D03*
X125400000Y-95500000D03*
X125400000Y-94230000D03*
X125400000Y-92960000D03*
X125400000Y-91690000D03*
%TD*%
M02*
