%TF.GenerationSoftware,KiCad,Pcbnew,9.0.7-9.0.7~ubuntu22.04.1*%
%TF.CreationDate,2026-01-23T00:01:15+05:30*%
%TF.ProjectId,TWIN_NODE2,5457494e-5f4e-44f4-9445-322e6b696361,rev?*%
%TF.SameCoordinates,Original*%
%TF.FileFunction,Soldermask,Bot*%
%TF.FilePolarity,Negative*%
%FSLAX46Y46*%
G04 Gerber Fmt 4.6, Leading zero omitted, Abs format (unit mm)*
G04 Created by KiCad (PCBNEW 9.0.7-9.0.7~ubuntu22.04.1) date 2026-01-23 00:01:15*
%MOMM*%
%LPD*%
G01*
G04 APERTURE LIST*
G04 Aperture macros list*
%AMRoundRect*
0 Rectangle with rounded corners*
0 $1 Rounding radius*
0 $2 $3 $4 $5 $6 $7 $8 $9 X,Y pos of 4 corners*
0 Add a 4 corners polygon primitive as box body*
4,1,4,$2,$3,$4,$5,$6,$7,$8,$9,$2,$3,0*
0 Add four circle primitives for the rounded corners*
1,1,$1+$1,$2,$3*
1,1,$1+$1,$4,$5*
1,1,$1+$1,$6,$7*
1,1,$1+$1,$8,$9*
0 Add four rect primitives between the rounded corners*
20,1,$1+$1,$2,$3,$4,$5,0*
20,1,$1+$1,$4,$5,$6,$7,0*
20,1,$1+$1,$6,$7,$8,$9,0*
20,1,$1+$1,$8,$9,$2,$3,0*%
G04 Aperture macros list end*
%ADD10C,0.800000*%
%ADD11C,6.400000*%
%ADD12RoundRect,0.250000X0.550000X0.550000X-0.550000X0.550000X-0.550000X-0.550000X0.550000X-0.550000X0*%
%ADD13C,1.600000*%
%ADD14RoundRect,0.250000X0.550000X-0.550000X0.550000X0.550000X-0.550000X0.550000X-0.550000X-0.550000X0*%
G04 APERTURE END LIST*
D10*
%TO.C,H2*%
X148200000Y-93500000D03*
X148902944Y-91802944D03*
X148902944Y-95197056D03*
X150600000Y-91100000D03*
D11*
X150600000Y-93500000D03*
D10*
X150600000Y-95900000D03*
X152297056Y-91802944D03*
X152297056Y-95197056D03*
X153000000Y-93500000D03*
%TD*%
D12*
%TO.C,J1*%
X134500000Y-82500000D03*
D13*
X130900000Y-82500000D03*
%TD*%
D12*
%TO.C,D4*%
X146100000Y-86500000D03*
D13*
X142500000Y-86500000D03*
%TD*%
D14*
%TO.C,D1*%
X134400000Y-95500000D03*
D13*
X134400000Y-91900000D03*
%TD*%
D12*
%TO.C,D5*%
X146100000Y-89500000D03*
D13*
X142500000Y-89500000D03*
%TD*%
D12*
%TO.C,D3*%
X146100000Y-83500000D03*
D13*
X142500000Y-83500000D03*
%TD*%
D12*
%TO.C,D2*%
X146100000Y-80500000D03*
D13*
X142500000Y-80500000D03*
%TD*%
D10*
%TO.C,H3*%
X109427944Y-80997056D03*
X110130888Y-79300000D03*
X110130888Y-82694112D03*
X111827944Y-78597056D03*
D11*
X111827944Y-80997056D03*
D10*
X111827944Y-83397056D03*
X113525000Y-79300000D03*
X113525000Y-82694112D03*
X114227944Y-80997056D03*
%TD*%
%TO.C,H1*%
X148000000Y-66000000D03*
X148702944Y-64302944D03*
X148702944Y-67697056D03*
X150400000Y-63600000D03*
D11*
X150400000Y-66000000D03*
D10*
X150400000Y-68400000D03*
X152097056Y-64302944D03*
X152097056Y-67697056D03*
X152800000Y-66000000D03*
%TD*%
M02*
