M48
; DRILL file {KiCad 9.0.7-9.0.7~ubuntu22.04.1} date 2026-01-23T00:01:11+0530
; FORMAT={-:-/ absolute / metric / decimal}
; #@! TF.CreationDate,2026-01-23T00:01:11+05:30
; #@! TF.GenerationSoftware,Kicad,Pcbnew,9.0.7-9.0.7~ubuntu22.04.1
; #@! TF.FileFunction,Plated,1,2,PTH
FMAT,2
METRIC
; #@! TA.AperFunction,Plated,PTH,ViaDrill
T1C0.350
; #@! TA.AperFunction,Plated,PTH,ComponentDrill
T2C0.350
; #@! TA.AperFunction,Plated,PTH,ComponentDrill
T3C0.500
; #@! TA.AperFunction,Plated,PTH,ComponentDrill
T4C0.600
; #@! TA.AperFunction,Plated,PTH,ComponentDrill
T5C3.200
%
G90
G05
T1
X115.225Y-67.0
X118.0Y-90.5
X118.6Y-63.4
X119.0Y-95.5
X119.5Y-90.5
X123.0Y-85.0
X126.0Y-72.5
X126.0Y-80.5
X126.8Y-75.0
X127.0Y-87.5
X127.5Y-72.5
X128.5Y-76.0
X129.5Y-94.0
X130.42Y-88.756
X132.5Y-94.5
X134.0Y-93.5
X135.5Y-84.5
X135.5Y-86.0
X135.5Y-88.5
X136.5Y-76.5
X136.5Y-82.5
X141.0Y-65.0
X141.0Y-66.5
X146.5Y-75.8
X147.0Y-73.672
X147.5Y-70.5
X150.0Y-74.0
T2
X122.225Y-92.395
X122.225Y-93.595
X122.225Y-94.795
X123.625Y-92.395
X123.625Y-93.595
X123.625Y-94.795
T3
X109.428Y-80.997
X110.131Y-79.3
X110.131Y-82.694
X111.828Y-78.597
X111.828Y-83.397
X113.525Y-79.3
X113.525Y-82.694
X114.228Y-80.997
X148.0Y-66.0
X148.2Y-93.5
X148.703Y-64.303
X148.703Y-67.697
X148.903Y-91.803
X148.903Y-95.197
X150.4Y-63.6
X150.4Y-68.4
X150.6Y-91.1
X150.6Y-95.9
X152.097Y-64.303
X152.097Y-67.697
X152.297Y-91.803
X152.297Y-95.197
X152.8Y-66.0
X153.0Y-93.5
T4
X130.9Y-82.5
X134.4Y-91.9
X134.4Y-95.5
X134.5Y-82.5
X142.5Y-80.5
X142.5Y-83.5
X142.5Y-86.5
X142.5Y-89.5
X146.1Y-80.5
X146.1Y-83.5
X146.1Y-86.5
X146.1Y-89.5
T5
X111.828Y-80.997
X150.4Y-66.0
X150.6Y-93.5
M30
